<svg width="174" height="181" viewBox="0 0 174 181" fill="none" xmlns="http://www.w3.org/2000/svg">
<path d="M87.0005 174C135.049 174 174 135.048 174 86.9998C174 38.9511 135.049 0 87.0005 0C38.9519 0 0.000732422 38.9511 0.000732422 86.9998C0.000732422 135.048 38.9519 174 87.0005 174Z" fill="url(#paint0_linear_596_667)"/>
<path fill-rule="evenodd" clip-rule="evenodd" d="M106.385 50.2192C111.806 49.9721 120.01 50.9429 120.972 55.2948C122.007 59.9766 118.557 61.2585 121.564 63.624C124.383 65.8421 132.16 61.1597 139.404 61.7012C145.303 62.1432 151.823 66.1372 153.203 72.8393C154.583 79.542 154.583 80.7245 157.54 82.0064C160.496 83.2877 160.818 87.2323 160.595 89.7928C160.267 93.5718 163.313 97.2774 163.158 102.507C162.895 111.379 157.418 116.717 148.964 122.319C140.685 127.805 140.357 129.515 140.192 135.132C140.086 138.799 139.601 144.989 131.716 147.848C123.831 150.705 117.052 151.551 113.679 154.057C109.21 157.375 111.707 162.534 109.243 163.618C106.779 164.702 102.757 161.622 102.836 155.042C102.903 149.556 109.014 148.636 108.652 143.313C108.239 137.25 99.2187 139.263 99.6821 132.175C100.011 127.149 105.936 123.621 109.44 121.235C115.519 117.095 116.176 107.568 109.637 107.436C101.322 107.269 89.5301 111.28 78.0962 108.914C66.663 106.549 61.9452 97.1906 62.5234 88.2158C63.0162 80.5602 68.4237 75.07 73.3651 71.7556C78.6557 68.207 82.7292 68.5354 85.5875 65.2498C88.8738 61.4721 88.0666 57.4013 91.8957 54.2105C94.557 51.9932 99.2328 50.5443 106.385 50.2192Z" fill="#FAE2FF"/>
<path fill-rule="evenodd" clip-rule="evenodd" d="M106.777 53.5584C110.498 53.3447 116.13 54.1846 116.789 57.9496C117.5 62.0011 115.424 66.136 116.963 68.601C120.249 73.8576 134.127 67.3605 139.1 67.8299C143.15 68.2118 147.624 71.667 148.571 77.4657C149.518 83.2645 149.432 84.4623 151.548 85.3963C154.286 86.6048 154.418 89.7589 153.645 92.1332C152.63 95.2492 155.732 100.207 155.238 105.121C154.47 112.76 147.209 115.928 141.408 120.774C135.724 125.521 136.206 127.484 136.093 132.345C136.019 135.517 135.962 141.596 130.274 143.346C119.92 146.532 112.1 150.869 110.458 153.301C108.106 156.782 110.704 160.148 109.012 161.087C107.321 162.025 104.158 159.83 105.3 154.253C106.52 148.29 114.691 144.027 114.443 139.423C114.16 134.177 107.968 135.919 108.287 129.787C108.513 125.438 112.58 122.386 114.984 120.322C119.157 116.74 121.464 108.125 115.846 104.182C110.227 100.239 95.2079 106.385 87.3594 104.339C79.5123 102.292 76.2734 94.1963 76.67 86.4312C77.0085 79.8079 80.7201 75.0581 84.1119 72.1904C87.7433 69.1198 90.5396 69.4049 92.5012 66.562C94.7572 63.2937 94.2024 59.7717 96.8304 57.0116C98.6585 55.0933 101.868 53.8401 106.777 53.5584Z" fill="url(#paint1_linear_596_667)"/>
<path fill-rule="evenodd" clip-rule="evenodd" d="M78.9732 31.797C79.6983 32.8427 80.1481 34.7791 78.1588 36.1201C76.0185 37.5637 73.3776 38.2006 72.2557 39.4093C69.8636 41.9876 75.7424 44.1553 76.2911 45.7822C76.7381 47.1069 75.5429 49.4926 72.4679 51.5376C69.3929 53.5826 68.7119 53.9211 68.5364 54.8365C68.3094 56.0209 66.5745 57.0189 65.1263 57.5098C63.2259 58.1541 60.9704 60.5865 58.153 61.9328C53.7743 64.025 50.8269 62.8209 47.1833 62.5622C43.6139 62.3087 42.5993 63.0492 39.874 64.4926C38.0954 65.4346 34.7012 67.2651 32.7997 66.0995C29.3388 63.9774 25.65 62.9614 24.0283 63.2102C21.7066 63.5664 20.2551 65.3649 19.4567 65.1452C18.6588 64.9256 19.3662 63.3144 22.6575 61.9603C26.1774 60.5121 29.8821 61.6554 32.4057 60.1819C35.2809 58.503 33.3023 57.1845 36.7693 55.4157C39.2277 54.1614 41.5898 54.4479 43.131 54.5378C45.8055 54.6947 50.9789 52.765 52.2593 49.8898C53.5396 47.0146 47.6704 44.3997 47.5315 41.4351C47.3929 38.471 51.3739 35.0436 55.7627 32.802C59.5062 30.89 62.7559 30.5542 64.9054 30.695C67.2069 30.8456 67.5036 31.7669 69.4063 31.4883C71.5939 31.1684 73.4648 29.9323 75.43 29.8778C76.796 29.8405 78.0167 30.4175 78.9732 31.797Z" fill="url(#paint2_linear_596_667)"/>
<path fill-rule="evenodd" clip-rule="evenodd" d="M21.4219 39.6891C30.8628 33.8957 47.8724 37.1713 50.3341 31.0154C51.3857 28.3868 46.9671 24.6304 45.7345 22.9987C41.5789 17.497 45.603 14.7849 52.6997 14.391C64.0875 13.7587 77.0297 17.1358 88.7086 14.588C95.9369 13.0109 98.1756 5.94429 102.771 6.70277C107.847 7.5407 105.137 13.274 109.473 14.7195C113.81 16.1644 118.749 12.2999 122.09 14.588C125.687 17.0517 134.542 27.631 142.591 26.4158C144.368 26.1474 145.416 24.099 144.514 21.7287C129.182 8.20837 109.051 0 87.0007 0C48.709 0 16.1953 24.7379 4.56982 59.1037C6.63494 53.7223 11.6238 45.7015 21.4219 39.6891Z" fill="#FAE2FF"/>
<path fill-rule="evenodd" clip-rule="evenodd" d="M18.6624 37.7175C28.1026 31.9241 42.1211 32.28 43.7636 27.3352C44.4666 25.2207 42.975 23.3472 41.7425 21.7161C37.5869 16.2144 45.3239 12.8133 52.3331 11.5908C63.5687 9.63051 78.1394 9.52702 85.4898 7.29432C90.6803 5.71728 99.1283 1.7059 103.724 2.46438C108.8 3.30231 107.467 9.45491 111.803 10.8998C116.141 12.3453 118.963 8.40667 122.303 10.6948C125.901 13.1585 132.899 23.5575 140.949 22.3417C142.725 22.0733 143.035 20.4455 142.278 19.8232C127.248 7.43988 107.994 0 87.0007 0C48.709 0 16.1953 24.7379 4.56982 59.1037C6.63494 53.7223 8.86363 43.7299 18.6624 37.7175Z" fill="url(#paint3_linear_596_667)"/>
<path fill-rule="evenodd" clip-rule="evenodd" d="M147.486 34.5959C142.065 36.6657 135.56 35.0887 133.885 31.1461C132.209 27.2034 129.203 23.0639 124.521 23.6548C121.57 24.0287 120.393 25.9295 119.921 27.335C119.096 29.7954 119.657 32.0474 112.496 31.8685C104.66 31.6735 100.57 30.7521 93.7607 34.6907C87.7697 38.1566 87.1988 43.6482 88.5776 46.1934C90.5158 49.7748 95.3458 50.7276 100.931 48.2305C106.516 45.7334 111.066 39.968 116.701 39.1628C121.065 38.5392 125.573 40.37 123.141 44.7479C121.662 47.4092 120.775 49.3809 122.024 51.3845C123.657 54.0065 131.486 53.0931 138.123 51.3845C144.76 49.6766 153.104 48.9536 155.338 53.4216C157.573 57.8904 154.813 68.4696 157.573 74.1208C160.332 79.7713 165.721 80.7575 168.481 81.2175C170.404 81.538 172.487 81.8605 173.928 83.6051C173.11 62.3083 164.643 42.9745 151.188 28.2764C151.329 30.6967 150.654 33.3868 147.486 34.5959Z" fill="#FAE2FF"/>
<path fill-rule="evenodd" clip-rule="evenodd" d="M148.422 36.8637C143.987 39.2293 135.977 38.7406 133.063 34.4321C130.582 30.7639 128.173 27.5577 123.688 29.0239C120.271 30.1409 120.63 33.5815 113.482 34.0381C107.305 34.4321 105.597 33.1835 98.9599 36.3376C91.6923 39.7915 94.0325 48.0993 99.6169 45.6029C105.202 43.1058 113.235 37.2083 118.87 36.403C123.232 35.7801 129.45 37.6109 127.017 41.9888C125.539 44.6501 125.736 46.1611 127.084 47.5084C128.595 49.0194 133.129 48.1 139.765 46.3914C146.402 44.6829 157.25 44.2001 160.284 50.6378C163.454 57.3646 157.091 65.6578 159.741 71.3611C162.764 77.8662 173.194 74.7855 172.681 71.8611C169.763 55.2281 162.122 40.2215 151.189 28.2761C152.711 31.3441 151.414 35.268 148.422 36.8637Z" fill="url(#paint4_linear_596_667)"/>
<path fill-rule="evenodd" clip-rule="evenodd" d="M68.5646 35.5931C68.7028 36.3141 68.0853 37.3816 67.509 37.6977C66.9328 38.0138 67.4262 38.6864 67.189 39.0522C66.9294 39.4504 66.652 39.3033 66.2206 40.2353C65.7892 41.1674 64.3803 42.8055 63.1598 43.4779C61.9394 44.1503 61.2227 44.4696 61.502 44.8901C61.7812 45.3106 62.5123 45.127 63.1547 44.617C63.7971 44.1069 66.1168 41.3013 67.1696 43.4065C67.5911 44.2493 66.581 45.3238 65.5273 45.7048C64.7147 45.9981 66.1131 47.6609 64.063 48.9233C62.167 50.0906 58.6553 49.6613 59.3817 50.8597C60.0027 51.8838 59.7628 51.3382 60.4052 50.8282C61.0474 50.3175 63.2517 48.558 64.641 50.8097C65.2959 51.8715 62.894 53.5222 60.713 53.3706C59.2266 53.267 57.355 53.116 55.8903 54.1488C54.3002 55.2693 53.4568 57.2878 53.0139 57.3701C53.061 56.2545 53.4245 55.5005 52.7911 56.3037C52.9772 56.1272 52.8745 55.9248 52.796 55.1932C52.7174 54.4609 52.2657 53.0717 52.0855 51.9806C51.9055 50.8903 52.5741 50.2381 53.0875 50.3079C53.6012 50.3783 53.6667 51.072 53.649 51.3813C53.6146 51.9901 52.4595 54.6433 53.6114 54.8735C54.3452 55.0202 55.0662 52.5848 55.2192 51.2829C55.4482 49.331 54.1449 47.0627 54.4271 44.5991C54.6254 42.8625 55.9876 42.166 56.6008 42.4674C57.4435 42.8803 57.4672 44.1279 57.0443 44.8972C56.4783 45.927 55.5533 46.229 57.0924 46.4489C58.8809 46.7052 56.9485 44.9909 58.4086 43.0825C58.5002 39.7822 60.6739 36.1906 62.2663 37.1047C62.9753 37.5121 62.6914 38.8648 61.9813 39.9837C61.1657 41.2677 58.81 45.6564 59.8089 45.9546C60.4264 46.1389 60.2813 44.3086 60.8694 43.5485C61.4568 42.788 62.4345 41.8489 62.9125 40.588C63.3902 39.3279 64.6618 35.9991 66.3377 35.0445C67.8621 34.1746 68.5029 35.2723 68.5646 35.5931Z" fill="#C3B6D7" fill-opacity="0.37"/>
<path fill-rule="evenodd" clip-rule="evenodd" d="M22.1977 72.3185C22.7372 72.2171 23.5169 72.6559 23.7388 73.0676C23.9607 73.4793 24.4722 73.1238 24.7388 73.2925C25.029 73.4771 24.9132 73.6763 25.5965 73.9822C26.2798 74.2882 27.4657 75.2919 27.9378 76.1638C28.4099 77.0357 28.631 77.5479 28.9501 77.3466C29.2693 77.1452 29.1495 76.6222 28.7849 76.1638C28.4203 75.7054 26.3869 74.0531 27.9767 73.2925C28.6131 72.9879 29.3891 73.7078 29.6483 74.4612C29.8478 75.0423 31.1165 74.0354 32.0084 75.4996C32.833 76.8536 32.4332 79.3699 33.3411 78.8459C34.117 78.3979 33.7057 78.5714 33.3411 78.113C32.9761 77.6547 31.7181 76.0818 33.4245 75.0797C34.2292 74.6072 35.4018 76.3221 35.239 77.8845C35.1279 78.9493 34.9727 80.2901 35.7072 81.3358C36.5041 82.4709 37.9859 83.0684 38.037 83.3853C37.2083 83.3552 36.6559 83.0972 37.2388 83.5483C37.1118 83.4156 36.9589 83.4898 36.413 83.5483C35.8666 83.607 34.823 83.9349 34.0075 84.0675C33.1924 84.1999 32.7228 83.7231 32.7864 83.3552C32.8506 82.9871 33.3679 82.938 33.5976 82.9497C34.0496 82.9724 35.9963 83.7911 36.1939 82.9654C36.3198 82.4394 34.5251 81.9309 33.5604 81.8255C32.114 81.6677 30.3972 82.6084 28.5715 82.4141C27.2845 82.2777 26.7978 81.3044 27.0359 80.8643C27.3623 80.2594 28.2907 80.2385 28.8532 80.5389C29.6061 80.941 29.8094 81.6024 30.0083 80.4995C30.2399 79.2178 28.9207 80.6072 27.5349 79.5676C25.0825 79.5126 22.4613 77.9674 23.1776 76.8241C23.4968 76.3151 24.4963 76.514 25.3122 77.019C26.2483 77.599 29.4583 79.272 29.703 78.5556C29.8542 78.1128 28.4896 78.2226 27.9378 77.8038C27.3857 77.3857 26.7097 76.6885 25.7829 76.3502C24.8567 76.0121 22.4102 75.1121 21.7387 73.915C21.1267 72.8261 21.9578 72.3636 22.1977 72.3185Z" fill="#C3B6D7" fill-opacity="0.37"/>
<path fill-rule="evenodd" clip-rule="evenodd" d="M88.8474 115.317C89.3536 115.529 89.7634 116.324 89.7222 116.79C89.6811 117.256 90.3038 117.241 90.4337 117.528C90.5745 117.842 90.3682 117.944 90.7706 118.576C91.1729 119.207 91.6111 120.698 91.5258 121.686C91.4404 122.673 91.3433 123.223 91.7206 123.23C92.0978 123.238 92.2855 122.735 92.2332 122.152C92.1808 121.568 91.3916 119.07 93.1377 119.309C93.8367 119.405 94.0887 120.433 93.8908 121.205C93.7377 121.8 95.3511 121.657 95.2905 123.37C95.2344 124.954 93.5163 126.836 94.5628 126.898C95.4572 126.95 95.0183 126.869 94.966 126.286C94.9131 125.702 94.7278 123.697 96.7041 123.798C97.6361 123.846 97.672 125.924 96.6766 127.139C95.9981 127.967 95.1309 129.001 95.1691 130.279C95.2102 131.665 96.119 132.979 95.9873 133.272C95.3119 132.791 94.9925 132.272 95.231 132.969C95.198 132.788 95.0295 132.766 94.5414 132.515C94.0528 132.263 93.001 131.963 92.247 131.625C91.4935 131.287 91.3635 130.631 91.6191 130.358C91.8751 130.086 92.3342 130.33 92.5195 130.466C92.8845 130.733 94.0599 132.488 94.6791 131.907C95.0736 131.537 93.8546 130.125 93.1069 129.507C91.9858 128.579 90.0346 128.42 88.6168 127.254C87.6171 126.432 87.746 125.351 88.187 125.115C88.7923 124.789 89.5791 125.283 89.8835 125.843C90.2911 126.593 90.0972 127.257 90.8699 126.445C91.7683 125.502 89.9024 125.937 89.3169 124.307C87.2992 122.912 85.9601 120.179 87.1872 119.619C87.7338 119.369 88.4591 120.085 88.8626 120.956C89.3254 121.955 91.0858 125.118 91.6842 124.654C92.0541 124.367 90.8541 123.709 90.6236 123.055C90.3926 122.402 90.2116 121.448 89.6237 120.656C89.0362 119.864 87.4881 117.767 87.5859 116.398C87.6737 115.152 88.6222 115.223 88.8474 115.317Z" fill="#C3B6D7" fill-opacity="0.37"/>
<path fill-rule="evenodd" clip-rule="evenodd" d="M44.9067 140.128C45.0827 140.648 44.7576 141.482 44.3811 141.759C44.0045 142.037 44.4283 142.493 44.2986 142.781C44.1565 143.094 43.9431 143.007 43.736 143.727C43.5289 144.446 42.7013 145.761 41.9042 146.351C41.1071 146.941 40.631 147.231 40.8751 147.519C41.1192 147.807 41.6202 147.615 42.023 147.19C42.4257 146.764 43.7766 144.519 44.7526 145.987C45.1434 146.574 44.5394 147.443 43.8298 147.806C43.2825 148.085 44.4572 149.2 43.1326 150.288C41.9076 151.294 39.3601 151.251 40.0063 152.077C40.5586 152.782 40.3291 152.399 40.7319 151.974C41.1344 151.548 42.5155 150.082 43.747 151.631C44.3276 152.362 42.794 153.763 41.2243 153.821C40.1544 153.86 38.805 153.895 37.8727 154.769C36.8605 155.717 36.4767 157.268 36.1701 157.363C36.0837 156.538 36.2617 155.955 35.8967 156.595C36.0103 156.451 35.9154 156.31 35.7809 155.778C35.6462 155.245 35.1753 154.258 34.9297 153.469C34.6843 152.68 35.0905 152.148 35.4637 152.16C35.8371 152.172 35.9583 152.677 35.9789 152.906C36.0199 153.357 35.4822 155.399 36.3274 155.479C36.8658 155.53 37.1177 153.682 37.0868 152.712C37.0402 151.258 35.8681 149.69 35.8045 147.855C35.7591 146.561 36.6546 145.943 37.1237 146.117C37.7683 146.355 37.9192 147.272 37.7007 147.871C37.4082 148.672 36.7818 148.967 37.9016 149.009C39.2031 149.058 37.6425 147.947 38.4775 146.429C38.1881 143.993 39.3505 141.181 40.583 141.73C41.1318 141.975 41.0749 142.992 40.6893 143.871C40.2464 144.879 39.0399 148.292 39.7835 148.434C40.2431 148.522 39.9431 147.186 40.2804 146.581C40.617 145.976 41.2125 145.209 41.4175 144.243C41.6224 143.279 42.1705 140.73 43.2617 139.898C44.254 139.139 44.8284 139.897 44.9067 140.128Z" fill="#C3B6D7" fill-opacity="0.37"/>
<path fill-rule="evenodd" clip-rule="evenodd" d="M65.8756 165.824C67.3514 162.764 71.8541 159.512 75.0863 160.302C77.8383 160.975 80.3732 161.459 82.2231 158.807C83.632 156.787 82.111 155.299 85.7846 151.971C88.9592 149.095 90.3613 148.948 92.7184 144.554C95.2995 139.741 90.8327 136.79 88.7885 140.413C86.7442 144.036 84.6938 150.349 81.9699 153.185C79.8607 155.381 75.8055 157.212 75.4259 154.062C75.1948 152.147 74.5056 151.511 73.2599 151.453C71.863 151.389 69.7758 153.801 66.8608 157.505C63.9458 161.209 58.2894 166.16 54.1707 164.404C49.8674 162.569 50.0936 155.839 46.4651 154.267C42.3261 152.475 37.8975 158.485 39.3027 159.659C47.2938 166.336 57.201 170.18 67.7002 171.13C65.6962 170.327 64.8801 167.888 65.8756 165.824Z" fill="url(#paint5_linear_596_667)"/>
<path fill-rule="evenodd" clip-rule="evenodd" d="M32.0663 146.664C30.4899 143.51 28.2058 140.279 29.3068 135.691C30.8839 129.12 41.5293 125.374 41.0038 111.313C40.4777 97.2509 26.7443 93.7677 19.8452 85.6855C15.1989 80.2426 13.7995 69.0531 9.3314 68.9957C5.53234 68.9463 2.21601 74.7844 0.297782 79.812C0.10073 82.2028 0.00138622 84.6006 0 86.9995C0 114.177 12.4648 138.441 31.9855 154.395C33.833 152.61 33.2428 149.017 32.067 146.664H32.0663Z" fill="#FAE2FF"/>
<path fill-rule="evenodd" clip-rule="evenodd" d="M27.6316 145.925C25.3535 143.233 22.2923 140.279 23.3933 135.691C24.9703 129.12 35.615 125.374 35.0895 111.313C34.5641 97.251 24.7733 98.1049 17.8736 90.0227C13.2273 84.5799 11.8278 73.3897 7.35976 73.3322C3.56137 73.2835 0.16358 81.6207 0.115507 82.5314C0.0387585 84.0196 0.000243311 85.5094 0 86.9995C0 112.64 11.0947 135.688 28.7426 151.61C30.3918 151.099 29.2581 147.847 27.6316 145.925Z" fill="url(#paint6_linear_596_667)"/>
<defs>
<linearGradient id="paint0_linear_596_667" x1="2548.22" y1="2548.22" x2="14851.9" y2="14851.7" gradientUnits="userSpaceOnUse">
<stop stop-color="#AA92EB"/>
<stop offset="1" stop-color="#8D6AEF"/>
</linearGradient>
<linearGradient id="paint1_linear_596_667" x1="612.978" y1="1884.74" x2="7840.6" y2="5734.52" gradientUnits="userSpaceOnUse">
<stop stop-color="#CB4AE9"/>
<stop offset="1" stop-color="#C31DEA"/>
</linearGradient>
<linearGradient id="paint2_linear_596_667" x1="-858.319" y1="739.433" x2="-191.834" y2="3698.99" gradientUnits="userSpaceOnUse">
<stop stop-color="#CB4AE9"/>
<stop offset="1" stop-color="#C31DEA"/>
</linearGradient>
<linearGradient id="paint3_linear_596_667" x1="6909.3" y1="5910.37" x2="6909.3" y2="0" gradientUnits="userSpaceOnUse">
<stop stop-color="#CB4AE9"/>
<stop offset="1" stop-color="#93778B"/>
</linearGradient>
<linearGradient id="paint4_linear_596_667" x1="1707.59" y1="-404.647" x2="4106.85" y2="6272.06" gradientUnits="userSpaceOnUse">
<stop stop-color="#CB4AE9"/>
<stop offset="1" stop-color="#C31DEA"/>
</linearGradient>
<linearGradient id="paint5_linear_596_667" x1="-603.462" y1="1055.16" x2="-4286.96" y2="-1372.39" gradientUnits="userSpaceOnUse">
<stop stop-color="#CB4AE9"/>
<stop offset="1" stop-color="#C31DEA"/>
</linearGradient>
<linearGradient id="paint6_linear_596_667" x1="0.0351084" y1="3987.24" x2="3510.84" y2="3987.24" gradientUnits="userSpaceOnUse">
<stop stop-color="#CB4AE9"/>
<stop offset="1" stop-color="#C31DEA"/>
</linearGradient>
</defs>
</svg>
