<svg xmlns="http://www.w3.org/2000/svg" width="198" height="193" viewBox="0 0 198 193" fill="none">
  <path d="M111.205 176.059C158.417 173.643 194.73 133.412 192.314 86.2008C189.898 38.9895 149.667 2.6758 102.456 5.09191C55.2446 7.50801 18.9309 47.7389 21.347 94.9502C23.7631 142.162 63.9941 178.475 111.205 176.059Z" fill="url(#paint0_linear_22_2107)"/>
  <path fill-rule="evenodd" clip-rule="evenodd" d="M124.028 53.461C129.342 52.9456 137.452 53.487 138.616 57.7146C139.869 62.2627 136.543 63.6958 139.616 65.869C142.498 67.9066 149.904 62.9147 157.049 63.0825C162.867 63.2202 169.474 66.8167 171.167 73.3326C172.86 79.8492 172.92 81.011 175.89 82.1219C178.859 83.2322 179.374 87.0919 179.283 89.619C179.151 93.3487 182.33 96.8365 182.441 101.983C182.629 110.713 177.515 116.234 169.491 122.163C161.632 127.97 161.396 129.666 161.516 135.194C161.596 138.803 161.431 144.909 153.827 148.114C146.222 151.319 139.605 152.491 136.416 155.122C132.193 158.608 134.905 163.551 132.539 164.74C130.172 165.929 126.065 163.104 125.812 156.636C125.602 151.241 131.56 150.031 130.936 144.819C130.226 138.881 121.464 141.314 121.563 134.326C121.634 129.371 127.278 125.606 130.601 123.085C136.365 118.712 136.532 109.318 130.101 109.517C121.922 109.771 110.537 114.305 99.1838 112.556C87.8308 110.806 82.7247 101.848 82.8415 93.0009C82.9407 85.454 87.9779 79.7875 92.6666 76.2825C97.6866 72.5296 101.706 72.6475 104.349 69.2754C107.388 65.3983 106.39 61.4391 109.992 58.1113C112.495 55.7988 117.017 54.1401 124.028 53.461Z" fill="#5C60D5"/>
  <path fill-rule="evenodd" clip-rule="evenodd" d="M124.581 56.7227C128.226 56.3257 133.803 56.8678 134.639 60.534C135.542 64.4791 133.71 68.6464 135.346 70.991C138.839 75.9908 152.149 68.909 157.058 69.1202C161.057 69.2918 165.627 72.4618 166.849 78.1119C168.071 83.7619 168.047 84.9432 170.173 85.7546C172.923 86.8043 173.212 89.8968 172.572 92.2686C171.732 95.3813 175.028 100.096 174.79 104.95C174.42 112.494 167.445 115.973 161.988 121.026C156.643 125.976 157.215 127.881 157.348 132.662C157.434 135.783 157.684 141.758 152.184 143.764C142.17 147.416 134.705 152.07 133.213 154.542C131.077 158.081 133.799 161.258 132.184 162.265C130.57 163.272 127.352 161.274 128.193 155.737C129.092 149.816 136.907 145.217 136.431 140.706C135.889 135.565 129.893 137.588 129.898 131.547C129.901 127.262 133.744 124.059 136.002 121.91C139.922 118.18 141.756 109.599 136.037 106.008C130.318 102.417 115.87 109.211 108.055 107.595C100.242 105.979 96.6525 98.1863 96.6517 90.5366C96.6513 84.0117 100.059 79.158 103.248 76.1698C106.662 72.9701 109.423 73.1096 111.208 70.2176C113.26 66.8928 112.538 63.4601 114.981 60.6159C116.681 58.6392 119.772 57.2464 124.581 56.7227Z" fill="url(#paint1_linear_22_2107)"/>
  <path fill-rule="evenodd" clip-rule="evenodd" d="M40.0157 47.387C49.0007 41.2198 65.8786 43.583 67.9879 37.4106C68.889 34.7749 64.3584 31.3062 63.0653 29.7648C58.7055 24.568 62.5231 21.7009 69.4763 20.9569C80.6338 19.763 93.5203 22.4305 104.868 19.3398C111.891 17.4268 113.735 10.3707 118.289 10.8849C123.318 11.453 120.943 17.2226 125.277 18.4249C129.611 19.6265 134.27 15.581 137.667 17.6612C141.325 19.9011 150.558 29.8508 158.406 28.252C160.138 27.899 161.065 25.8335 160.06 23.55C144.314 11.0362 124.122 3.98311 102.456 5.09191C64.8315 7.01739 34.1284 32.9592 24.4335 67.3106C26.1921 61.9191 30.6907 53.7873 40.0157 47.387Z" fill="#5C60D5"/>
  <path fill-rule="evenodd" clip-rule="evenodd" d="M37.2051 45.5885C46.1895 39.4213 59.9816 39.0661 61.3468 34.1249C61.9312 32.0119 60.3715 30.246 59.0784 28.7053C54.7186 23.5085 62.1497 19.7776 68.9753 18.224C79.9165 15.7329 94.228 14.8985 101.338 12.3351C106.359 10.5245 114.458 6.15826 119.012 6.67243C124.041 7.24053 123.041 13.3529 127.374 14.5545C131.709 15.7568 134.284 11.7449 137.681 13.8251C141.34 16.065 148.739 25.9309 156.587 24.3315C158.319 23.9784 158.541 22.3634 157.767 21.7901C142.376 10.3783 123.084 4.03626 102.456 5.09191C64.8315 7.01739 34.1284 32.9592 24.4335 67.3106C26.1921 61.9191 27.8795 51.9888 37.2051 45.5885Z" fill="url(#paint2_linear_22_2107)"/>
  <path fill-rule="evenodd" clip-rule="evenodd" d="M163.627 36.0436C158.404 38.35 151.933 37.1275 150.089 33.3379C148.244 29.5482 145.082 25.632 140.512 26.448C137.631 26.9637 136.57 28.8907 136.177 30.2954C135.49 32.7544 136.155 34.9389 129.11 35.1232C121.4 35.3257 117.335 34.626 110.843 38.8384C105.13 42.5451 104.846 47.9697 106.328 50.4012C108.413 53.8227 113.207 54.516 118.569 51.7816C123.931 49.0472 128.112 43.1535 133.608 42.0789C137.864 41.2468 142.386 42.8189 140.217 47.2429C138.897 49.9322 138.125 51.9141 139.453 53.8201C141.189 56.3142 148.836 55.023 155.271 53.0105C161.706 50.9987 169.869 49.8686 172.289 54.1464C174.709 58.4249 172.529 68.9586 175.525 74.3725C178.521 79.7858 183.865 80.4838 186.6 80.797C188.506 81.0152 190.569 81.2274 192.073 82.8691C190.198 61.9846 180.906 43.4135 166.947 29.6481C167.207 32.0191 166.679 34.6963 163.627 36.0436Z" fill="#5C60D5"/>
  <path fill-rule="evenodd" clip-rule="evenodd" d="M164.661 38.2244C160.422 40.7718 152.527 40.6944 149.447 36.6075C146.825 33.128 144.297 30.0988 139.963 31.765C136.662 33.0344 137.188 36.3969 130.187 37.2051C124.138 37.9027 122.396 36.7618 116.034 40.1947C109.067 43.9538 111.784 51.9992 117.145 49.2655C122.508 46.531 130.105 40.3323 135.6 39.2578C139.856 38.4263 146.057 39.9126 143.887 44.3365C142.568 47.0258 142.838 48.5005 144.229 49.7566C145.79 51.1653 150.199 50.0339 156.634 48.0214C163.069 46.0089 173.704 44.9891 177.009 51.162C180.461 57.6122 174.626 66.0808 177.517 71.5514C180.814 77.7912 190.908 74.2397 190.257 71.3921C186.553 55.1956 178.291 40.8347 166.947 29.6474C168.597 32.5853 167.52 36.5061 164.661 38.2244Z" fill="url(#paint3_linear_22_2107)"/>
  <path fill-rule="evenodd" clip-rule="evenodd" d="M55.8539 151.963C54.1464 148.943 51.7397 145.883 52.5907 141.319C53.8099 134.784 64.0814 130.568 62.858 116.778C61.634 102.988 47.9648 100.256 40.7796 92.6613C35.9405 87.5469 34.0028 76.6228 29.6097 76.791C25.8744 76.9335 22.9094 82.8367 21.2774 87.8731C21.204 90.2321 21.227 92.5931 21.3462 94.9503C22.7129 121.654 36.1805 144.869 56.1633 159.563C57.8888 157.716 57.1282 154.215 55.8546 151.963L55.8539 151.963Z" fill="#5C60D5"/>
  <path fill-rule="evenodd" clip-rule="evenodd" d="M51.4594 151.459C49.0857 148.929 45.9292 146.18 46.7803 141.617C47.9995 135.081 58.2703 130.865 57.0469 117.075C55.8235 103.285 46.2463 104.616 39.0605 97.022C34.2214 91.9076 32.2837 80.9828 27.8906 81.1511C24.1559 81.2942 21.2366 89.657 21.2351 90.5542C21.2346 92.0203 21.2716 93.4861 21.3463 94.9502C22.6356 120.144 34.6959 142.232 52.837 156.99C54.4317 156.405 53.1542 153.266 51.4594 151.459Z" fill="url(#paint4_linear_22_2107)"/>
  <path fill-rule="evenodd" clip-rule="evenodd" d="M184.441 72.5461C184.427 72.089 184.186 70.5188 184.804 69.9768C184.99 69.814 185.315 69.8184 185.315 69.8184C185.315 69.8184 185.227 68.7415 185.751 68.403C186.292 68.053 187.041 68.108 187.041 68.108C187.041 68.108 187.088 67.3814 187.482 67.2403C187.876 67.0998 188.833 67.1751 188.833 67.1751C188.833 67.1751 188.907 66.7569 189.344 66.703C190.212 66.5954 192.281 67.6274 191.931 68.0604C191.634 68.4281 190.554 68.3519 190.554 68.3519C190.554 68.3519 191.159 69.0451 190.81 69.2438C190.463 69.4431 189.665 69.309 189.665 69.309C189.665 69.309 190.236 69.8237 189.89 70.1216C189.564 70.4041 187.631 70.1136 187.631 70.1136C187.631 70.1136 188.547 70.3384 188.188 70.733C187.866 71.0863 186.61 70.8835 185.48 71.7346C184.738 72.2921 184.441 72.5461 184.441 72.5461Z" fill="url(#paint5_linear_22_2107)"/>
  <path fill-rule="evenodd" clip-rule="evenodd" d="M72.9247 71.3619C72.9375 70.5982 71.7801 66.142 67.5011 64.1437C63.6358 62.3386 61.3636 63.5533 61.4475 64.4995C61.503 65.1327 62.5019 65.3348 62.9288 65.3728C63.355 65.4115 64.1792 65.2845 64.5397 65.6831C64.8981 66.0804 64.6186 66.6459 64.9867 67.0402C65.6464 67.7464 66.742 67.395 67.5363 67.3898C68.4924 67.3837 70.0076 67.6225 70.6552 68.9161C71.4492 70.4988 71.3315 71.5651 71.0575 73.4103C70.7843 75.2561 70.6408 76.1659 70.6806 76.3007C70.7313 76.4685 70.8365 76.6742 71.3335 76.6685C71.8299 76.6642 72.1173 74.2736 72.5057 73.4053C72.8935 72.5389 72.9247 71.3619 72.9247 71.3619Z" fill="#6A74EF"/>
  <path fill-rule="evenodd" clip-rule="evenodd" d="M68.9775 76.964C69.0465 76.7711 68.8557 75.2667 69.1825 74.0298C69.6084 72.4176 69.458 70.4941 68.994 69.6016C68.4373 68.5297 67.4841 67.7556 66.792 68.1515C66.1912 68.4946 66.2428 69.5536 66.5426 70.1934C66.9265 71.0124 69.1002 73.6933 68.2683 74.4042C67.817 74.789 67.6126 73.8918 67.5225 73.4675C67.3634 72.7245 66.9333 71.8908 66.4212 71.9979C65.8876 72.1107 65.6994 73.0083 66.4228 73.8935C67.1301 74.7591 67.7717 75.4971 67.995 76.081C68.2054 76.6332 67.8531 76.4829 67.9631 76.7956C68.0894 77.1548 68.7927 77.4786 68.9775 76.964Z" fill="#2421A2"/>
  <path fill-rule="evenodd" clip-rule="evenodd" d="M72.9401 78.4372C72.7497 78.199 73.4836 76.9755 74.2065 76.5011C74.9294 76.026 75.9373 76.0428 76.1173 75.5765C76.2974 75.1108 76.2232 74.6121 76.7165 74.1369C77.1635 73.7075 78.045 74.2748 78.4067 73.4499C78.7683 72.625 78.7374 71.4288 79.1131 69.4777C79.4494 67.7346 79.9349 67.273 80.4634 67.1768C81.1131 67.0581 81.5215 66.3367 81.5441 65.1062C81.5594 64.2503 83.5465 59.5707 85.2757 60.0847C86.7465 60.5224 86.3615 63.2685 85.8771 64.5621C85.1646 66.4614 84.2451 66.6538 84.1544 67.7358C84.0471 69.0193 84.4491 69.3559 84.0572 70.6678C83.7343 71.7492 83.1745 73.1756 79.9145 75.0224C76.8289 76.7694 75.0229 77.338 74.4466 77.7227C73.7382 78.197 73.2746 78.8555 72.9401 78.4372ZM75.3735 50.7975C75.5229 51.7514 75.781 53.4142 75.3275 54.1405C74.8746 54.8669 74.3465 54.7643 73.9768 55.8435C73.252 57.965 74.9709 62.2867 74.5666 65.4021C74.2306 67.9872 73.3414 70.9202 72.6949 70.8053C72.0489 70.6891 70.5235 76.5475 70.5821 77.2292C70.6407 77.9116 71.131 77.6484 71.131 77.6484C71.4911 76.7157 72.2428 73.5397 73.7298 72.2626C75.2155 70.9861 76.3394 69.5309 76.616 67.5842C76.8934 65.6389 76.1908 61.4218 76.8022 60.2855C77.4143 59.1491 78.8138 57.3706 79.2079 53.0546C79.2899 52.1493 79.259 51.2899 79.1421 50.5217L75.366 49.9066C75.3329 50.249 75.3364 50.5619 75.3735 50.7975Z" fill="#5C60D5"/>
  <path fill-rule="evenodd" clip-rule="evenodd" d="M82.5928 53.378C81.884 53.5373 81.4748 54.4087 81.461 55.1152C81.4471 55.8217 81.5447 56.187 81.3285 56.5749C81.0936 56.9987 80.1689 56.8204 79.5371 57.6361C78.9053 58.4519 78.647 60.4614 78.6151 61.9587C78.5833 63.4568 78.0832 64.3789 77.5773 64.2732C77.0713 64.1676 76.8945 63.361 77.0509 62.5084C77.2072 61.6559 78.6329 58.1797 76.2608 57.9959C75.3112 57.9221 74.8219 59.3752 74.9726 60.5856C75.0894 61.5189 75.8381 63.7452 75.6658 66.3154C75.5065 68.6921 75.3754 70.576 73.9658 70.3443C72.7611 70.1461 72.6258 68.6718 72.7822 67.8192C72.9391 66.9666 73.4838 64.0374 70.824 63.5776C69.5698 63.3609 69.2144 66.4429 70.3667 68.5605C71.1522 70.0035 72.1597 71.8121 71.9197 73.7023C71.6596 75.754 70.249 77.4297 70.3819 77.9064C70.5142 78.3837 71.6806 78.5674 71.7516 78.3099C71.8226 78.051 71.7385 77.4495 72.4289 77.2261C73.1199 77.0026 74.5719 76.881 75.6309 76.611C76.6893 76.3411 76.9603 75.4037 76.6586 74.9193C76.3562 74.4349 75.7058 74.6556 75.4377 74.8009C74.9096 75.0864 73.0771 77.3357 72.3344 76.2792C71.8612 75.6062 73.7014 73.8808 74.7935 73.1908C76.431 72.1565 79.0657 72.5236 81.1356 71.2251C82.5951 70.3105 82.5824 68.6615 82.0272 68.1729C81.2654 67.5009 80.1394 67.9919 79.6491 68.732C78.9927 69.7226 77.848 71.2592 76.9339 69.8115C75.8711 68.1295 78.935 66.8716 80.5018 66.0883C83.4084 64.6352 85.7375 61.512 84.1783 60.2974C83.4836 59.7567 82.4072 60.5985 81.7384 61.77C80.9712 63.1149 78.1475 67.2802 77.4153 66.4047C76.9627 65.8635 78.666 65.2535 79.0711 64.352C79.4769 63.4512 79.8602 62.0864 80.7642 61.0884C81.6676 60.0911 84.0495 57.4467 84.1212 55.3776C84.188 53.495 82.9082 53.3066 82.5928 53.3773L82.5928 53.378Z" fill="#2421A2"/>
  <path d="M66.0676 48.3927L51.6705 74.6984L80.0408 82.6412L94.5722 53.0346L66.0676 48.3927ZM78.3848 78.984L56.2473 72.7862L67.7439 51.7792L89.9612 55.3977L78.3848 78.984Z" fill="white"/>
  <path fill-rule="evenodd" clip-rule="evenodd" d="M0.920806 44.2164L9.27477 34.5474L19.1787 42.6348L10.8241 52.3032L0.920806 44.2164Z" fill="white"/>
  <path fill-rule="evenodd" clip-rule="evenodd" d="M8.8948 34.3354L0.733155 44.2405L1.30756 36.0826L9.07474 26.6567L8.8948 34.3354Z" fill="#E3DDE4"/>
  <path fill-rule="evenodd" clip-rule="evenodd" d="M9.46627 34.3009L9.67141 26.6262L19.3836 34.6037L19.5911 42.6164L9.46627 34.3009Z" fill="#6A74EF"/>
  <path fill-rule="evenodd" clip-rule="evenodd" d="M11.0459 44.3731C11.0092 44.3749 10.9726 44.3693 10.9381 44.3569C10.9036 44.3444 10.8719 44.3253 10.8448 44.3005L1.71795 36.0129C1.66139 35.961 1.62708 35.8893 1.62218 35.8127C1.61728 35.7361 1.64217 35.6605 1.69165 35.6018C1.71568 35.5733 1.74524 35.5499 1.77855 35.5331C1.81186 35.5162 1.84823 35.5063 1.88547 35.5039C1.92271 35.5015 1.96006 35.5067 1.99525 35.5191C2.03044 35.5315 2.06276 35.5509 2.09025 35.5762L11.0026 43.6689L18.873 34.1654C18.8966 34.1365 18.9257 34.1127 18.9588 34.0954C18.9918 34.0781 19.0279 34.0676 19.0651 34.0647C19.1023 34.0617 19.1396 34.0663 19.175 34.0782C19.2103 34.0901 19.2429 34.1091 19.2707 34.1339C19.3898 34.239 19.4038 34.4224 19.3029 34.5447L11.2459 44.2721C11.2221 44.3012 11.1926 44.3252 11.1592 44.3426C11.1259 44.3601 11.0893 44.3705 11.0518 44.3735L11.0459 44.3731Z" fill="#B5A8AE"/>
  <path fill-rule="evenodd" clip-rule="evenodd" d="M10.592 52.3157L10.5834 52.3162C10.4709 52.3153 10.3771 52.1919 10.374 52.0401L10.2161 44.0203C10.213 43.8685 10.316 43.7481 10.4146 43.7464C10.5264 43.7472 10.6202 43.8707 10.6234 44.0225L10.7819 52.0423C10.7842 52.1901 10.7002 52.3102 10.592 52.3157Z" fill="#B5A8AE"/>
  <path d="M11.0802 52.9505C11.0074 52.9546 10.9357 52.9315 10.8789 52.8858L0.851904 44.7593C0.822821 44.7363 0.798739 44.7077 0.781136 44.6751C0.763532 44.6424 0.752779 44.6066 0.749535 44.5697C0.74629 44.5328 0.750625 44.4956 0.762271 44.4604C0.773918 44.4252 0.79263 44.3928 0.81726 44.3651L9.27106 34.6548C9.32172 34.5977 9.39239 34.5623 9.46845 34.5558C9.54451 34.5494 9.62015 34.5724 9.67972 34.6201L19.7068 42.7472C19.7358 42.7702 19.7599 42.7989 19.7775 42.8315C19.7951 42.8641 19.8059 42.8999 19.8091 42.9368C19.8124 42.9738 19.808 43.011 19.7964 43.0461C19.7847 43.0813 19.766 43.1137 19.7414 43.1414L11.2869 52.8511C11.2607 52.8806 11.2289 52.9046 11.1932 52.9217C11.1576 52.9387 11.119 52.9485 11.0795 52.9505L11.0802 52.9505ZM1.44752 44.5091L11.0313 52.2768L19.1111 42.9967L9.52803 35.2291L1.44752 44.5091Z" fill="#B5A8AE"/>
  <path d="M1.05042 44.8853C1.01009 44.8865 0.969943 44.8793 0.932567 44.8641C0.89519 44.8489 0.861411 44.826 0.833405 44.797C0.8054 44.7679 0.783789 44.7333 0.769961 44.6954C0.756134 44.6575 0.750397 44.6171 0.75312 44.5769L1.33469 36.3791C1.33911 36.3191 1.3619 36.2619 1.39997 36.2153L9.2475 26.7399C9.28483 26.6943 9.33564 26.6617 9.39266 26.6467C9.44967 26.6318 9.50995 26.6352 9.56488 26.6566C9.62003 26.6783 9.66719 26.7164 9.69995 26.7658C9.73272 26.8152 9.74951 26.8735 9.74805 26.9327L9.56409 34.6484C9.56254 34.7134 9.53909 34.776 9.49754 34.8261L1.25237 44.7829C1.22765 44.813 1.19693 44.8377 1.16216 44.8553C1.1274 44.8729 1.08934 44.8831 1.05042 44.8853ZM1.89409 36.5136L1.38209 43.7317L8.99973 34.5326L9.16181 27.7389L1.89409 36.5136Z" fill="#F2D265"/>
  <path d="M19.3287 43.2896C19.2545 43.2936 19.1816 43.2699 19.124 43.2231L8.92931 34.8664C8.89579 34.8389 8.86897 34.8041 8.85088 34.7647C8.8328 34.7253 8.82392 34.6823 8.82492 34.6389L9.03202 26.9253C9.03393 26.8708 9.05118 26.8179 9.08179 26.7727C9.1124 26.7275 9.15514 26.6918 9.20509 26.6698C9.25577 26.6475 9.31161 26.6396 9.3665 26.6469C9.42139 26.6542 9.47323 26.6764 9.51634 26.7111L19.2964 34.7285C19.3279 34.7543 19.3536 34.7865 19.3715 34.8231C19.3895 34.8596 19.3994 34.8996 19.4006 34.9403L19.6089 42.9943C19.6099 43.0503 19.5947 43.1053 19.565 43.1527C19.5353 43.2001 19.4924 43.2379 19.4417 43.2614C19.4065 43.2782 19.3676 43.2878 19.3287 43.2896ZM9.41643 34.5139L19.0028 42.3716L18.8141 35.0867L9.60398 27.5367L9.41643 34.5139Z" fill="#F2D265"/>
  <path fill-rule="evenodd" clip-rule="evenodd" d="M183.593 183.391L188.264 176.838L181.551 173.632L176.545 180.497L183.593 183.391Z" fill="#5C60D5"/>
  <path fill-rule="evenodd" clip-rule="evenodd" d="M181.551 173.632L176.545 180.497L173.401 174.757L178.264 168.762L181.551 173.632Z" fill="white"/>
  <defs>
    <linearGradient id="paint0_linear_22_2107" x1="2648.92" y1="2385.14" x2="15356.9" y2="13855.5" gradientUnits="userSpaceOnUse">
      <stop stop-color="#92A6EB"/>
      <stop offset="1" stop-color="#6A74EF"/>
    </linearGradient>
    <linearGradient id="paint1_linear_22_2107" x1="714.04" y1="1830.54" x2="8009.28" y2="5249.78" gradientUnits="userSpaceOnUse">
      <stop stop-color="#E9AA4A"/>
      <stop offset="1" stop-color="#EA971D"/>
    </linearGradient>
    <linearGradient id="paint2_linear_22_2107" x1="7103.06" y1="5469.41" x2="6805.86" y2="-337.964" gradientUnits="userSpaceOnUse">
      <stop stop-color="#E9AA4A"/>
      <stop offset="1" stop-color="#F2D265"/>
    </linearGradient>
    <linearGradient id="paint3_linear_22_2107" x1="1674.45" y1="-473.994" x2="4367.64" y2="5965.71" gradientUnits="userSpaceOnUse">
      <stop stop-color="#E9AA4A"/>
      <stop offset="1" stop-color="#EA971D"/>
    </linearGradient>
    <linearGradient id="paint4_linear_22_2107" x1="217.502" y1="3927.22" x2="3667.12" y2="3750.68" gradientUnits="userSpaceOnUse">
      <stop stop-color="#E9AA4A"/>
      <stop offset="1" stop-color="#EA971D"/>
    </linearGradient>
    <linearGradient id="paint5_linear_22_2107" x1="198.398" y1="345.942" x2="973.98" y2="306.25" gradientUnits="userSpaceOnUse">
      <stop stop-color="#EAAEA4"/>
      <stop offset="0.3126" stop-color="#E8A89D"/>
      <stop offset="0.7825" stop-color="#E39688"/>
      <stop offset="1" stop-color="#E08C7C"/>
    </linearGradient>
  </defs>
</svg>