<svg width="277" height="277" viewBox="0 0 277 277" fill="none" xmlns="http://www.w3.org/2000/svg">
<path d="M84.9354 202.166C49.5794 167.039 49.3938 109.901 84.521 74.5447C119.648 39.1887 176.786 39.0032 212.142 74.1303C247.498 109.257 247.684 166.395 212.556 201.751C177.429 237.107 120.291 237.293 84.9354 202.166Z" fill="url(#paint0_linear_595_436)"/>
<path fill-rule="evenodd" clip-rule="evenodd" d="M187.342 126.903C184.498 123.801 179.442 119.862 176.479 121.785C173.292 123.854 174.474 126.461 171.497 126.149C168.706 125.856 167.045 118.97 162.757 115.315C159.264 112.34 153.445 111.023 148.938 114.04C144.432 117.058 143.771 117.723 141.427 116.828C139.084 115.933 136.702 117.977 135.393 119.539C133.461 121.845 129.714 122.266 126.875 125.293C122.06 130.429 122.089 136.427 123.608 144.2C125.096 151.812 124.32 152.953 121.27 156.205C119.279 158.326 116.085 162.074 118.825 167.993C121.566 173.911 124.822 178.092 125.278 181.346C125.881 185.656 121.623 187.194 122.372 189.151C123.122 191.107 127.057 191.573 130.692 187.827C133.723 184.703 130.875 180.846 134.05 178.049C137.667 174.862 141.504 180.926 145.211 176.684C147.84 173.676 146.553 168.452 145.959 165.194C144.929 159.542 149.894 153.821 153.565 157.322C158.233 161.773 162.479 170.475 170.092 175.394C177.704 180.312 185.532 177.625 190.231 172.259C194.24 167.682 194.334 161.637 193.469 157.071C192.542 152.182 190.117 150.14 190.381 146.729C190.685 142.807 193.405 140.957 193.082 137.069C192.858 134.366 191.095 130.995 187.342 126.903Z" fill="#FF5555"/>
<path fill-rule="evenodd" clip-rule="evenodd" d="M102.85 73.3627C99.8534 72.5036 95.0407 72.607 93.6037 77.0427C92.0579 81.8146 93.7336 83.5353 91.5561 85.671C89.5146 87.6735 86.1061 81.9236 81.9216 81.6853C78.514 81.4924 74.026 84.9382 71.8701 91.7807C69.7141 98.6239 69.4706 99.8581 67.5441 100.868C65.618 101.878 64.6249 105.959 64.2231 108.657C63.6297 112.638 61.1542 116.168 60.1644 121.644C58.4854 130.933 60.4659 137.113 64.0653 143.897C67.5905 150.542 67.4229 152.362 66.359 158.244C65.664 162.084 64.6621 168.598 68.5069 172.456C72.3519 176.314 75.9887 177.948 77.3696 180.938C79.1985 184.897 76.7328 190.005 77.8947 191.41C79.0568 192.814 81.9527 190.045 83.2627 183.169C84.3549 177.435 81.1086 175.797 82.408 170.282C83.8885 163.998 88.5454 167.1 89.7443 159.651C90.5941 154.368 87.9893 150.028 86.5106 147.149C83.9453 142.154 85.5373 132.136 89.241 132.724C93.9505 133.472 99.7544 138.966 106.67 137.765C113.585 136.564 118.165 127.319 119.687 117.887C120.987 109.842 119.077 103.512 116.981 99.5042C114.737 95.2134 112.379 95.1045 111.449 91.358C110.379 87.0504 111.671 82.8909 110.175 79.1357C109.135 76.5262 106.805 74.4953 102.85 73.3627Z" fill="#FF5555"/>
<path fill-rule="evenodd" clip-rule="evenodd" d="M231.382 151.278C228.67 140.113 213.759 130.088 216.448 123.759C217.596 121.056 223.593 121.522 225.693 121.222C232.773 120.212 231.795 115.275 226.861 109.797C218.944 101.006 206.951 94.0292 200.22 83.6162C196.054 77.1714 199.573 70.3348 195.637 67.5332C191.29 64.4391 189.092 70.6392 184.845 68.5325C180.597 66.4254 179.788 59.9706 175.657 59.2123C171.209 58.3952 156.959 59.7064 151.924 52.9275C150.813 51.4311 151.54 49.1574 153.936 48.0728C175.103 49.3331 195.916 58.0098 212.142 74.1304C240.318 102.125 246.158 144.098 229.588 177.884C232.003 172.415 234.196 162.865 231.382 151.278Z" fill="#FF5555"/>
<path fill-rule="evenodd" clip-rule="evenodd" d="M234.853 151.845C232.142 140.68 221.567 130.694 223.973 125.854C225.002 123.784 227.469 123.496 229.568 123.197C236.648 122.187 233.442 114.028 229.178 108.004C222.343 98.3475 211.697 87.6191 207.921 80.6025C205.255 75.6474 201.971 66.5195 198.035 63.7179C193.687 60.6238 190.17 66.1254 185.923 64.0183C181.674 61.9111 182.477 56.9497 178.346 56.1913C173.898 55.3742 161.146 57.9097 156.112 51.1303C155 49.6339 155.963 48.2101 156.975 48.3053C177.087 50.1812 196.694 58.7825 212.142 74.1304C240.318 102.125 246.158 144.098 229.588 177.884C232.003 172.415 237.668 163.433 234.853 151.845Z" fill="url(#paint1_linear_595_436)"/>
<path fill-rule="evenodd" clip-rule="evenodd" d="M142.342 55.3682C144.818 60.8547 150.758 64.45 154.873 62.7736C158.989 61.0976 164.227 60.2491 167.24 64.1066C169.138 66.5392 168.614 68.7985 167.934 70.1778C166.743 72.5915 164.683 73.8382 170.083 78.9416C175.992 84.5271 179.675 86.8394 181.806 94.7154C183.681 101.646 180.086 106.104 177.211 106.969C173.166 108.187 168.916 105.357 166.632 99.4365C164.347 93.5159 165.214 85.9471 161.656 81.2348C158.902 77.5861 154.245 75.637 152.835 80.6366C151.977 83.6761 151.188 85.7752 148.805 86.3368C145.686 87.0722 140.593 80.6764 136.958 74.5673C133.324 68.4586 127.712 61.826 122.802 63.4806C117.89 65.1351 112.187 74.9376 106.025 77.0781C99.8631 79.2185 95.1768 76.0046 92.81 74.3257C91.1603 73.1552 89.3921 71.8701 87.056 72.1C103.227 57.027 123.592 48.9908 144.239 48.0119C142.365 49.6894 140.895 52.1628 142.342 55.3682Z" fill="#FF5555"/>
<path fill-rule="evenodd" clip-rule="evenodd" d="M139.996 56.3527C141.53 61.3359 147.782 66.8322 153.076 65.792C157.583 64.9067 161.7 64.3086 163.928 68.6667C165.626 71.9863 162.847 74.2559 167.773 79.8177C172.03 84.6232 174.2 84.9535 176.777 92.1263C179.6 99.981 171.804 104.383 169.52 98.4638C167.236 92.5432 165.636 82.3305 162.079 77.6188C159.324 73.971 153.411 70.7728 152 75.7725C151.142 78.8115 149.892 79.7793 147.916 79.7857C145.7 79.7929 143.035 75.8016 139.401 69.6924C135.766 63.5833 128.137 55.2971 121.198 57.8162C113.948 60.449 112.567 71.2032 106.448 73.4625C99.4672 76.039 94.0443 66.1468 96.5601 64.3703C110.867 54.2641 127.46 48.8077 144.239 48.0113C140.876 49.1559 138.961 52.9912 139.996 56.3527Z" fill="url(#paint2_linear_595_436)"/>
<path fill-rule="evenodd" clip-rule="evenodd" d="M145.342 222.213C148.807 221.044 152.85 220.337 155.394 216.155C159.037 210.168 153.943 199.628 164.609 189.666C175.277 179.703 187.929 187.18 198.914 186.277C206.312 185.669 215.522 178.458 218.852 181.682C221.684 184.423 219.856 191.144 217.592 196.245C215.989 198.149 214.309 199.986 212.556 201.752C192.688 221.75 165.777 230.492 139.749 227.96C139.694 225.297 142.756 223.084 145.341 222.212L145.342 222.213Z" fill="#FF5555"/>
<path fill-rule="evenodd" clip-rule="evenodd" d="M149.146 224.911C152.79 224.595 157.202 224.66 159.746 220.479C163.389 214.491 158.295 203.952 168.962 193.99C179.629 184.027 186.209 191.813 197.195 190.91C204.593 190.302 213.803 183.09 217.133 186.315C219.964 189.056 216.369 197.675 215.738 198.38C214.707 199.531 213.646 200.655 212.557 201.752C193.812 220.619 168.798 229.468 144.172 228.282C143.332 226.701 146.544 225.136 149.146 224.911Z" fill="url(#paint3_linear_595_436)"/>
<path fill-rule="evenodd" clip-rule="evenodd" d="M93.0765 120.365C93.6039 119.756 97.649 117.073 102.414 118.516C106.719 119.82 107.647 122.373 106.915 123.057C106.426 123.515 105.5 122.97 105.138 122.7C104.776 122.43 104.219 121.75 103.655 121.809C103.094 121.869 102.915 122.509 102.349 122.56C101.334 122.65 100.722 121.603 100.102 121.04C99.3556 120.362 97.9982 119.483 96.5793 120.042C94.8421 120.726 94.184 121.645 93.1002 123.287C92.0154 124.928 91.4877 125.743 91.3616 125.821C91.2037 125.917 90.9763 126.004 90.5902 125.65C90.2037 125.297 91.6607 123.218 91.9671 122.263C92.2725 121.31 93.0765 120.365 93.0765 120.365Z" fill="#FF5555"/>
<path fill-rule="evenodd" clip-rule="evenodd" d="M92.2317 127.54C92.3133 127.34 93.522 126.293 94.1361 125.093C94.9366 123.527 96.4085 122.123 97.4009 121.75C98.5924 121.3 99.8855 121.363 100.15 122.161C100.38 122.853 99.5941 123.648 98.9085 123.94C98.0307 124.312 94.4376 124.886 94.5901 126.03C94.6735 126.65 95.4655 126.089 95.8348 125.82C96.4826 125.349 97.4071 124.997 97.7337 125.441C98.0731 125.906 97.589 126.743 96.3982 126.928C95.2337 127.11 94.2106 127.237 93.6244 127.538C93.0705 127.824 93.4529 127.954 93.1464 128.122C92.7944 128.315 92.0145 128.074 92.2317 127.54Z" fill="#F0F44D"/>
<path fill-rule="evenodd" clip-rule="evenodd" d="M88.0845 125.907C88.4016 125.854 88.6867 124.377 88.4532 123.496C88.2202 122.614 87.4173 121.918 87.6042 121.425C87.7906 120.933 88.1999 120.594 88.1471 119.873C88.0985 119.222 87.0073 119.047 87.3041 118.144C87.6009 117.242 88.4672 116.325 89.5456 114.529C90.5085 112.924 90.4524 112.22 90.1052 111.773C89.6788 111.222 89.866 110.369 90.7145 109.387C91.3048 108.704 93.039 103.633 91.32 102.819C89.8574 102.127 88.2267 104.554 87.6963 105.91C86.9188 107.902 87.5051 108.701 86.8146 109.614C85.9954 110.697 85.443 110.678 84.8272 111.984C84.3195 113.06 83.7548 114.573 85.0138 118.317C86.206 121.861 87.2233 123.578 87.4049 124.286C87.6271 125.157 87.5275 126 88.0845 125.907ZM105.629 102.499C104.841 103.143 103.468 104.266 103.312 105.156C103.157 106.045 103.643 106.336 103.174 107.443C102.249 109.619 97.8584 111.801 95.9828 114.531C94.427 116.796 93.0604 119.724 93.6488 120.089C94.2376 120.453 91.3114 126.125 90.7856 126.618C90.2593 127.113 90.0596 126.561 90.0596 126.561C90.4335 125.576 92.0789 122.554 91.8108 120.504C91.5431 118.457 91.6852 116.523 92.8383 114.801C93.9899 113.079 97.5096 110.263 97.8295 108.941C98.1489 107.618 98.3023 105.237 101.031 101.572C101.604 100.804 102.233 100.151 102.865 99.6303L106.262 101.805C106.047 102.097 105.824 102.341 105.629 102.499Z" fill="#FF5555"/>
<path fill-rule="evenodd" clip-rule="evenodd" d="M151.024 150.319C151.769 150.014 156.589 149.444 160.191 152.883C163.443 155.989 163.12 158.686 162.159 158.965C161.515 159.153 160.934 158.25 160.734 157.845C160.532 157.441 160.342 156.583 159.812 156.381C159.285 156.181 158.836 156.672 158.308 156.462C157.362 156.084 157.287 154.873 156.988 154.091C156.628 153.149 155.814 151.752 154.295 151.611C152.436 151.437 151.434 151.961 149.726 152.937C148.018 153.912 147.179 154.401 147.031 154.414C146.847 154.428 146.605 154.404 146.42 153.913C146.234 153.424 148.472 152.226 149.177 151.512C149.879 150.8 151.024 150.319 151.024 150.319Z" fill="#FF5555"/>
<path fill-rule="evenodd" clip-rule="evenodd" d="M193.182 164.776C192.823 164.446 191.703 161.201 189.668 158.977C187.016 156.078 185.369 152.015 185.512 149.768C185.683 147.069 187.076 144.614 189.08 144.786C190.819 144.934 191.797 147.143 191.77 148.724C191.735 150.747 189.509 158.215 192.161 158.901C193.599 159.272 193.14 157.253 192.908 156.305C192.504 154.642 192.63 152.546 193.92 152.294C195.266 152.034 196.63 153.693 195.881 156.164C195.15 158.58 194.437 160.675 194.529 162.071C194.616 163.392 195.272 162.761 195.343 163.5C195.424 164.349 194.141 165.656 193.182 164.776Z" fill="#F0F44D"/>
<path fill-rule="evenodd" clip-rule="evenodd" d="M185.584 171.421C185.775 170.76 182.817 168.938 180.661 168.634C178.504 168.328 176.201 169.288 175.303 168.502C174.406 167.717 174.059 166.631 172.431 166.115C170.957 165.65 169.515 167.617 167.827 166.266C166.14 164.915 164.971 162.445 162.084 158.809C159.502 155.561 157.906 155.065 156.59 155.355C154.971 155.709 153.282 154.612 151.955 152.122C151.033 150.39 141.607 142.666 138.158 145.303C135.225 147.547 138.958 152.797 141.414 154.992C145.023 158.213 147.34 157.761 148.67 159.886C150.248 162.406 149.671 163.462 151.933 165.779C153.798 167.689 156.565 170.086 165.985 170.859C174.901 171.59 179.649 171.091 181.374 171.347C183.497 171.664 185.247 172.582 185.584 171.421ZM151.332 117.256C151.977 119.34 153.106 122.97 154.903 124.036C156.699 125.102 157.809 124.408 159.778 126.27C163.646 129.933 164.168 140.331 168.328 146.317C171.781 151.283 176.868 156.451 178.238 155.623C179.605 154.792 189.189 165.345 189.761 166.79C190.333 168.236 188.932 168.15 188.932 168.15C187.136 166.577 182.113 160.787 177.365 159.547C172.622 158.307 168.525 156.37 165.871 152.652C163.216 148.937 160.462 139.687 157.877 137.929C155.29 136.173 150.224 133.829 144.843 125.384C143.716 123.612 142.896 121.83 142.369 120.155L150.426 115.432C150.857 116.1 151.174 116.742 151.332 117.256Z" fill="#FF5555"/>
<path fill-rule="evenodd" clip-rule="evenodd" d="M137.385 129.153C139.182 128.827 141.028 130.23 141.792 131.658C142.556 133.087 142.71 133.922 143.61 134.515C144.59 135.164 146.535 133.951 148.835 135.035C151.135 136.12 153.813 139.983 155.438 143.009C157.064 146.036 159.171 147.459 160.227 146.778C161.282 146.098 160.853 144.29 159.61 142.694C158.366 141.098 151.48 135.314 156.752 132.76C158.862 131.737 161.494 134.253 162.402 136.861C163.1 138.873 163.684 144.104 166.745 149.19C169.575 153.893 171.83 157.617 174.835 155.849C177.403 154.338 176.187 151.206 174.943 149.61C173.698 148.014 169.408 142.537 175.055 139.156C177.719 137.562 181.731 143.524 181.273 148.903C180.96 152.57 180.515 157.185 183.027 160.822C185.752 164.77 190.737 166.893 190.925 167.988C191.115 169.084 188.62 170.53 188.19 170.07C187.758 169.607 187.328 168.302 185.507 168.48C183.684 168.659 180.215 169.744 177.496 170.166C174.78 170.588 173.184 168.924 173.377 167.658C173.571 166.392 175.297 166.245 176.065 166.295C177.577 166.393 184.128 169.299 184.743 166.461C185.135 164.653 179.109 162.823 175.879 162.418C171.037 161.812 165.351 164.981 159.239 164.232C154.931 163.707 153.251 160.33 154.022 158.823C155.08 156.752 158.182 156.72 160.078 157.78C162.616 159.198 166.844 161.282 167.449 157.489C168.152 153.08 159.794 153.328 155.374 153.168C147.176 152.873 138.576 148.64 140.907 144.729C141.946 142.988 145.297 143.716 148.051 145.493C151.211 147.532 162.031 153.438 162.809 150.979C163.29 149.459 158.736 149.779 156.869 148.311C155.001 146.846 152.704 144.413 149.588 143.207C146.474 142.002 138.249 138.794 135.939 134.638C133.834 130.857 136.585 129.297 137.385 129.152L137.385 129.153Z" fill="#F0F44D"/>
<defs>
<linearGradient id="paint0_linear_595_436" x1="-3461.86" y1="149.871" x2="-21510.1" y2="208.347" gradientUnits="userSpaceOnUse">
<stop stop-color="#E8A89D"/>
<stop offset="1" stop-color="#FFF8F8"/>
</linearGradient>
<linearGradient id="paint1_linear_595_436" x1="-9128.88" y1="-564.402" x2="-4807.96" y2="-4913.48" gradientUnits="userSpaceOnUse">
<stop stop-color="#E9AA4A"/>
<stop offset="1" stop-color="#F2D265"/>
</linearGradient>
<linearGradient id="paint2_linear_595_436" x1="-684.52" y1="-1408.39" x2="-7331.16" y2="1750.54" gradientUnits="userSpaceOnUse">
<stop stop-color="#E9AA4A"/>
<stop offset="1" stop-color="#EA971D"/>
</linearGradient>
<linearGradient id="paint3_linear_595_436" x1="-2638.84" y1="3071.67" x2="-5222.21" y2="505.014" gradientUnits="userSpaceOnUse">
<stop stop-color="#E9AA4A"/>
<stop offset="1" stop-color="#EA971D"/>
</linearGradient>
</defs>
</svg>
