<svg width="281" height="281" viewBox="0 0 281 281" fill="none" xmlns="http://www.w3.org/2000/svg">
<path d="M84.0481 210.299C50.3367 176.806 50.1598 122.326 83.653 88.6144C117.146 54.903 171.626 54.7261 205.338 88.2193C239.049 121.712 239.226 176.192 205.733 209.904C172.24 243.615 117.759 243.792 84.0481 210.299Z" fill="url(#paint0_linear_595_473)"/>
<path fill-rule="evenodd" clip-rule="evenodd" d="M175.124 184.957C177.615 181.67 180.319 175.979 177.274 173.054C173.998 169.908 171.521 171.401 170.917 168.245C170.351 165.285 177.359 162.875 179.997 158.019C182.144 154.063 181.736 147.824 177.004 143.384C172.271 138.943 171.333 138.314 171.568 135.766C171.803 133.219 168.81 130.915 166.685 129.692C163.548 127.886 161.898 123.991 157.683 121.303C150.535 116.743 143.98 117.353 135.957 119.7C128.099 121.999 126.604 121.295 122.078 118.407C119.123 116.521 114.008 113.529 108.401 116.979C102.796 120.429 99.2544 124.253 95.838 125.046C91.3137 126.096 88.2786 121.774 86.3752 122.75C84.4723 123.726 85.2123 127.904 90.4653 131.358C94.8463 134.239 98.163 130.875 102.232 133.939C106.868 137.429 101.451 142.044 107.27 145.528C111.397 147.998 116.704 146.14 120.081 145.202C125.939 143.574 133.776 148.234 131.111 152.428C127.723 157.761 119.548 163.06 116.583 171.53C113.618 180 119.045 187.96 126.409 192.376C132.691 196.143 139.336 195.658 144.058 194.307C149.113 192.861 150.577 190.118 154.394 190.065C158.782 190.005 161.67 192.683 165.823 191.968C168.708 191.471 171.838 189.294 175.124 184.957Z" fill="#EAA21D"/>
<path fill-rule="evenodd" clip-rule="evenodd" d="M223.682 161.779C221.097 151.133 206.879 141.574 209.443 135.539C210.538 132.962 216.256 133.407 218.258 133.121C225.009 132.158 224.076 127.45 219.372 122.227C211.823 113.845 200.388 107.193 193.97 97.2641C189.998 91.119 193.353 84.6005 189.6 81.9292C185.455 78.979 183.36 84.8907 179.31 82.882C175.26 80.8729 174.488 74.7184 170.55 73.9953C166.308 73.2162 152.721 74.4664 147.921 68.0028C146.862 66.576 147.554 64.4081 149.839 63.3739C170.021 64.5756 189.866 72.8488 205.337 88.2195C232.203 114.911 237.771 154.932 221.972 187.147C224.275 181.932 226.365 172.827 223.682 161.779Z" fill="#EAA21D"/>
<path fill-rule="evenodd" clip-rule="evenodd" d="M226.992 162.319C224.408 151.674 214.324 142.152 216.618 137.537C217.599 135.564 219.952 135.289 221.953 135.004C228.704 134.04 225.646 126.261 221.581 120.517C215.064 111.31 204.914 101.081 201.313 94.3905C198.77 89.6659 195.639 80.9626 191.886 78.2913C187.741 75.3412 184.387 80.5869 180.338 78.5777C176.287 76.5686 177.052 71.8379 173.114 71.1148C168.872 70.3357 156.713 72.7533 151.913 66.2893C150.854 64.8625 151.772 63.5049 152.736 63.5956C171.913 65.3843 190.608 73.5855 205.337 88.2195C232.203 114.911 237.771 154.932 221.972 187.147C224.275 181.932 229.676 173.368 226.992 162.319Z" fill="url(#paint1_linear_595_473)"/>
<path fill-rule="evenodd" clip-rule="evenodd" d="M138.784 70.3302C141.145 75.5615 146.808 78.9896 150.732 77.3911C154.656 75.7931 159.65 74.9841 162.523 78.6621C164.333 80.9816 163.834 83.1358 163.186 84.4509C162.049 86.7524 160.086 87.941 165.235 92.807C170.869 98.1328 174.381 100.337 176.412 107.847C178.2 114.455 174.772 118.706 172.031 119.531C168.174 120.692 164.121 117.994 161.943 112.349C159.766 106.703 160.592 99.4867 157.2 94.9936C154.573 91.5146 150.133 89.6562 148.788 94.4233C147.971 97.3214 147.218 99.3228 144.946 99.8583C141.972 100.559 137.116 94.4612 133.651 88.6362C130.185 82.8117 124.834 76.4877 120.152 78.0652C115.469 79.6428 110.031 88.9893 104.156 91.0302C98.2807 93.0711 93.8125 90.0067 91.5557 88.4059C89.9827 87.2899 88.2968 86.0645 86.0693 86.2837C101.488 71.9119 120.906 64.2495 140.592 63.3161C138.806 64.9156 137.404 67.2739 138.784 70.3302Z" fill="#EAA21D"/>
<path fill-rule="evenodd" clip-rule="evenodd" d="M136.547 71.2687C138.01 76.0202 143.971 81.2608 149.018 80.269C153.316 79.4248 157.241 78.8546 159.366 83.0099C160.984 86.1752 158.335 88.3391 163.031 93.6423C167.09 98.2242 169.159 98.5392 171.617 105.378C174.309 112.868 166.876 117.065 164.698 111.421C162.52 105.776 160.994 96.0382 157.602 91.5456C154.976 88.0675 149.338 85.0181 147.992 89.7852C147.174 92.6828 145.983 93.6056 144.098 93.6118C141.985 93.6186 139.445 89.813 135.979 83.988C132.514 78.163 125.239 70.2623 118.623 72.6642C111.71 75.1745 110.394 85.4284 104.559 87.5827C97.9033 90.0394 92.7327 80.6073 95.1314 78.9134C108.773 69.2773 124.594 64.0747 140.592 63.3154C137.386 64.4067 135.56 68.0636 136.547 71.2687Z" fill="url(#paint2_linear_595_473)"/>
<path fill-rule="evenodd" clip-rule="evenodd" d="M98.1702 211.477C100.402 207.035 99.7262 199.127 95.3961 196.349C91.7096 193.985 88.4816 191.68 89.8233 187.21C90.8454 183.805 94.2558 184.077 94.5352 176.998C94.776 170.882 93.5004 169.222 96.4592 162.585C99.6991 155.316 107.97 157.43 105.636 163.011C103.301 168.593 97.6637 176.678 97.0032 182.269C96.4923 186.597 98.4521 192.7 102.722 190.19C105.318 188.664 106.817 188.823 108.181 190.122C109.711 191.58 108.912 196.085 107.382 202.688C105.852 209.291 105.636 220.029 112.075 222.873C118.802 225.845 126.848 219.354 132.551 221.837C139.056 224.67 136.261 235.057 133.357 234.619C116.841 232.135 101.82 224.942 89.746 214.419C92.816 215.85 96.6644 214.473 98.1702 211.477Z" fill="url(#paint3_linear_595_473)"/>
<path fill-rule="evenodd" clip-rule="evenodd" d="M141.644 229.414C144.949 228.3 148.804 227.625 151.229 223.639C154.703 217.929 149.846 207.88 160.016 198.381C170.187 188.882 182.251 196.011 192.725 195.15C199.779 194.57 208.561 187.695 211.736 190.769C214.435 193.382 212.693 199.79 210.534 204.655C209.006 206.469 207.404 208.221 205.733 209.905C186.788 228.973 161.129 237.308 136.312 234.894C136.26 232.354 139.179 230.245 141.644 229.413L141.644 229.414Z" fill="#EAA21D"/>
<path fill-rule="evenodd" clip-rule="evenodd" d="M145.271 231.986C148.746 231.686 152.953 231.747 155.378 227.761C158.852 222.051 153.995 212.003 164.165 202.504C174.336 193.004 180.61 200.428 191.085 199.567C198.139 198.987 206.921 192.111 210.096 195.186C212.795 197.799 209.367 206.017 208.766 206.69C207.783 207.787 206.771 208.859 205.733 209.905C187.859 227.895 164.01 236.331 140.528 235.201C139.727 233.693 142.79 232.201 145.271 231.986Z" fill="url(#paint4_linear_595_473)"/>
<path fill-rule="evenodd" clip-rule="evenodd" d="M83.1546 94.1583C81.0561 96.9442 78.199 100.033 79.5434 104.501C81.4691 110.901 92.1901 114.003 92.4598 127.917C92.7296 141.832 83.014 141.537 76.6543 149.905C72.3716 155.54 71.6173 166.668 67.2086 166.975C63.4607 167.236 59.6381 159.195 59.5396 158.298C59.3803 156.833 59.2587 155.364 59.1749 153.893C57.737 128.574 67.3997 105.194 83.9328 88.4822C85.5899 88.8941 84.6528 92.169 83.1546 94.1583Z" fill="url(#paint5_linear_595_473)"/>
<path fill-rule="evenodd" clip-rule="evenodd" d="M103.363 186.025C103.866 185.445 107.723 182.886 112.267 184.263C116.371 185.506 117.256 187.94 116.558 188.592C116.092 189.028 115.209 188.509 114.864 188.251C114.519 187.994 113.987 187.346 113.45 187.402C112.915 187.459 112.745 188.07 112.205 188.118C111.237 188.204 110.653 187.205 110.062 186.668C109.35 186.022 108.056 185.184 106.703 185.717C105.047 186.369 104.419 187.246 103.386 188.811C102.352 190.376 101.848 191.153 101.728 191.227C101.578 191.319 101.361 191.402 100.993 191.064C100.624 190.728 102.013 188.746 102.306 187.835C102.597 186.927 103.363 186.025 103.363 186.025Z" fill="#EAA21D"/>
<path fill-rule="evenodd" clip-rule="evenodd" d="M102.558 192.867C102.636 192.676 103.788 191.678 104.374 190.533C105.137 189.041 106.54 187.702 107.487 187.345C108.623 186.917 109.855 186.977 110.108 187.738C110.327 188.398 109.578 189.156 108.924 189.434C108.087 189.789 104.661 190.337 104.806 191.427C104.886 192.018 105.641 191.483 105.993 191.226C106.611 190.777 107.492 190.442 107.804 190.866C108.127 191.308 107.666 192.106 106.53 192.283C105.42 192.456 104.445 192.578 103.886 192.865C103.358 193.137 103.722 193.261 103.43 193.421C103.094 193.605 102.351 193.376 102.558 192.867Z" fill="#E08C7C"/>
<path fill-rule="evenodd" clip-rule="evenodd" d="M98.6038 191.309C98.9062 191.259 99.1781 189.851 98.9554 189.011C98.7332 188.17 97.9676 187.506 98.1459 187.036C98.3237 186.567 98.7139 186.243 98.6636 185.557C98.6172 184.935 97.5768 184.768 97.8598 183.908C98.1427 183.048 98.9687 182.174 99.9969 180.461C100.915 178.931 100.862 178.26 100.531 177.833C100.124 177.308 100.302 176.494 101.111 175.558C101.674 174.907 103.328 170.071 101.689 169.296C100.294 168.636 98.7394 170.95 98.2337 172.243C97.4923 174.142 98.0514 174.904 97.393 175.774C96.6119 176.807 96.0852 176.789 95.4981 178.034C95.0139 179.06 94.4756 180.503 95.676 184.073C96.8127 187.451 97.7827 189.089 97.9558 189.764C98.1677 190.594 98.0727 191.398 98.6038 191.309ZM115.333 168.991C114.58 169.604 113.271 170.676 113.123 171.524C112.975 172.371 113.439 172.649 112.991 173.705C112.11 175.779 107.923 177.86 106.135 180.462C104.651 182.623 103.348 185.414 103.909 185.762C104.471 186.109 101.681 191.517 101.179 191.988C100.677 192.459 100.487 191.933 100.487 191.933C100.844 190.994 102.412 188.112 102.157 186.158C101.902 184.206 102.037 182.363 103.137 180.72C104.235 179.078 107.591 176.393 107.896 175.133C108.2 173.871 108.346 171.601 110.948 168.107C111.494 167.374 112.094 166.752 112.697 166.255L115.936 168.329C115.731 168.608 115.518 168.839 115.333 168.991Z" fill="#EAA21D"/>
<path fill-rule="evenodd" clip-rule="evenodd" d="M126.995 38.4154C127.706 38.5826 128.109 39.4626 128.116 40.1728C128.123 40.8831 128.021 41.2494 128.234 41.6415C128.466 42.0698 129.398 41.8997 130.025 42.7259C130.652 43.5522 130.891 45.5747 130.909 47.0801C130.926 48.5862 131.419 49.5181 131.929 49.4169C132.439 49.3157 132.624 48.5067 132.476 47.6481C132.327 46.7896 130.928 43.2813 133.314 43.12C134.27 43.0552 134.747 44.5206 134.584 45.7359C134.457 46.6729 133.682 48.9034 133.83 51.4886C133.967 53.8792 134.08 55.7743 135.499 55.5553C136.712 55.368 136.863 53.8873 136.714 53.0288C136.565 52.1702 136.046 49.2203 138.724 48.7845C139.987 48.5791 140.314 51.6806 139.135 53.7978C138.331 55.2405 137.3 57.0485 137.523 58.9509C137.764 61.0158 139.165 62.7143 139.027 63.1921C138.889 63.6706 137.715 63.8437 137.646 63.5841C137.577 63.3232 137.668 62.7195 136.976 62.488C136.284 62.2565 134.825 62.1199 133.763 61.8381C132.702 61.5563 132.439 60.6114 132.747 60.1274C133.056 59.6434 133.707 59.8718 133.976 60.0205C134.504 60.3127 136.323 62.5917 137.08 61.5371C137.563 60.8653 135.73 59.1127 134.639 58.4084C133.003 57.3525 130.351 57.6954 128.283 56.3697C126.825 55.4359 126.854 53.7784 127.417 53.2928C128.19 52.6248 129.317 53.1296 129.802 53.8784C130.452 54.8806 131.588 56.4365 132.521 54.9904C133.606 53.3101 130.539 52.0153 128.971 51.2124C126.064 49.7231 123.754 46.5606 125.333 45.3551C126.037 44.8185 127.11 45.6753 127.771 46.8595C128.529 48.219 131.326 52.4339 132.071 51.5611C132.531 51.0216 130.825 50.3915 130.427 49.4813C130.028 48.5718 129.656 47.1962 128.757 46.184C127.859 45.1725 125.491 42.4908 125.439 40.4104C125.391 38.5173 126.679 38.3406 126.995 38.4148L126.995 38.4154Z" fill="#32854B"/>
<path fill-rule="evenodd" clip-rule="evenodd" d="M154.183 15.2125C155.054 16.0475 154.866 17.6863 154.26 18.7463C153.654 19.8064 153.191 20.266 153.156 21.0244C153.116 21.8516 154.595 22.3681 154.774 24.1122C154.954 25.8563 153.543 29.0564 152.262 31.3054C150.98 33.5553 150.877 35.346 151.694 35.6165C152.51 35.8871 153.477 34.8395 154.009 33.4423C154.541 32.0451 155.584 25.6825 159.135 27.4132C160.557 28.1059 159.968 30.6754 158.681 32.3443C157.687 33.6306 154.645 36.302 152.614 40.2614C150.736 43.9228 149.254 46.8293 151.473 47.676C153.369 48.3993 154.869 46.3258 155.401 44.9286C155.932 43.5308 157.749 38.724 161.955 40.2882C163.939 41.026 161.716 45.8996 158.194 48.0687C155.793 49.5466 152.752 51.3795 151.42 54.3871C149.974 57.6514 150.504 61.3296 149.892 61.9246C149.28 62.5212 147.452 61.8086 147.578 61.3665C147.706 60.9225 148.359 60.1009 147.571 59.1862C146.782 58.2709 144.816 56.864 143.543 55.569C142.27 54.2746 142.714 52.6547 143.574 52.1906C144.435 51.7271 145.168 52.604 145.423 53.0461C145.924 53.9158 146.548 58.8013 148.545 57.8608C149.817 57.2618 148.717 53.1471 147.769 51.2008C146.346 48.283 142.258 46.6024 140.452 42.9273C139.178 40.3373 140.657 37.901 141.883 37.6449C143.566 37.2911 144.74 38.9708 144.784 40.4832C144.844 42.5076 145.118 45.7546 147.706 44.3784C150.714 42.78 147.452 38.3256 145.909 35.8398C143.045 31.2286 142.485 24.6268 145.788 24.1413C147.259 23.9257 148.051 26.084 147.968 28.3873C147.872 31.031 148.215 39.5971 150.036 38.9163C151.162 38.4955 149.27 36.1516 149.49 34.4717C149.709 32.7922 150.37 30.4432 149.963 28.1987C149.557 25.9557 148.498 20.0198 150.228 16.8889C151.801 14.0388 153.795 14.8402 154.183 15.2115L154.183 15.2125Z" fill="#32854B"/>
<path fill-rule="evenodd" clip-rule="evenodd" d="M169.901 36.8039C170.337 37.3901 170.077 38.3224 169.624 38.8698C169.172 39.4171 168.858 39.6315 168.768 40.0689C168.669 40.5458 169.491 41.0163 169.437 42.0521C169.384 43.0879 168.263 44.7884 167.305 45.9502C166.347 47.1125 166.123 48.1429 166.578 48.3942C167.033 48.6455 167.697 48.1468 168.136 47.3947C168.576 46.6426 169.77 43.0592 171.697 44.4745C172.469 45.041 171.889 46.469 170.981 47.2925C170.28 47.927 168.25 49.1323 166.696 51.2036C165.258 53.1189 164.123 54.6404 165.349 55.3881C166.397 56.027 167.467 54.9924 167.907 54.2403C168.346 53.4878 169.852 50.8987 172.18 52.2925C173.278 52.9498 171.527 55.5311 169.261 56.389C167.716 56.9734 165.763 57.6908 164.706 59.2883C163.559 61.0221 163.535 63.224 163.121 63.5C162.707 63.7769 161.698 63.152 161.813 62.9092C161.928 62.6655 162.387 62.2623 162.007 61.6394C161.627 61.016 160.601 59.9711 159.971 59.071C159.342 58.1714 159.75 57.2795 160.297 57.1082C160.845 56.9374 161.196 57.5321 161.305 57.8186C161.52 58.3824 161.442 61.2978 162.7 60.9798C163.502 60.7773 163.231 58.256 162.852 57.0142C162.282 55.1524 160.034 53.7044 159.308 51.3578C158.796 49.7039 159.887 48.4558 160.63 48.4475C161.652 48.4351 162.188 49.5475 162.076 50.4329C161.926 51.6181 161.791 53.5396 163.437 53.0359C165.35 52.4512 163.84 49.4837 163.16 47.8595C161.898 44.8464 162.171 40.9395 164.156 41.0364C165.04 41.08 165.308 42.4272 165.049 43.7584C164.752 45.2861 164.172 50.3114 165.304 50.1245C166.004 50.0089 165.106 48.4272 165.388 47.4747C165.67 46.5222 166.273 45.231 166.238 43.8778C166.204 42.5256 166.123 38.9488 167.425 37.3254C168.609 35.8471 169.707 36.5428 169.901 36.8035L169.901 36.8039Z" fill="#32854B"/>
<defs>
<linearGradient id="paint0_linear_595_473" x1="-3297.77" y1="160.437" x2="-20506.5" y2="216.193" gradientUnits="userSpaceOnUse">
<stop stop-color="#C8DAFC"/>
<stop offset="1" stop-color="#FFF8F8"/>
</linearGradient>
<linearGradient id="paint1_linear_595_473" x1="-8701.18" y1="-520.611" x2="-4581.25" y2="-4667.39" gradientUnits="userSpaceOnUse">
<stop stop-color="#E9AA4A"/>
<stop offset="1" stop-color="#F2D265"/>
</linearGradient>
<linearGradient id="paint2_linear_595_473" x1="-649.616" y1="-1325.34" x2="-6987.08" y2="1686.65" gradientUnits="userSpaceOnUse">
<stop stop-color="#E9AA4A"/>
<stop offset="1" stop-color="#EA971D"/>
</linearGradient>
<linearGradient id="paint3_linear_595_473" x1="-300.827" y1="1763.7" x2="6358.37" y2="3975.17" gradientUnits="userSpaceOnUse">
<stop stop-color="#E9AA4A"/>
<stop offset="1" stop-color="#EA971D"/>
</linearGradient>
<linearGradient id="paint4_linear_595_473" x1="-2513.02" y1="2946.33" x2="-4976.24" y2="499.06" gradientUnits="userSpaceOnUse">
<stop stop-color="#E9AA4A"/>
<stop offset="1" stop-color="#EA971D"/>
</linearGradient>
<linearGradient id="paint5_linear_595_473" x1="-159.519" y1="-3697.32" x2="3307.14" y2="-3894.21" gradientUnits="userSpaceOnUse">
<stop stop-color="#E9AA4A"/>
<stop offset="1" stop-color="#EA971D"/>
</linearGradient>
</defs>
</svg>
