<svg width="121" height="203" viewBox="0 0 121 203" fill="none" xmlns="http://www.w3.org/2000/svg">
<g id="Group">
<path id="Vector" d="M70.2174 15.7413C70.0539 16.9013 70.8617 17.9743 72.0218 18.1379C73.1819 18.3015 74.2549 17.4936 74.4184 16.3336C74.582 15.1735 73.7742 14.1005 72.6141 13.9369C71.454 13.7733 70.381 14.5812 70.2174 15.7413Z" fill="#C3B6D7" fill-opacity="0.17"/>
<path id="Vector_2" d="M81.557 34.0764C81.465 34.729 81.9194 35.3326 82.572 35.4246C83.2245 35.5166 83.8281 35.0622 83.9201 34.4096C84.0121 33.7571 83.5577 33.1535 82.9051 33.0615C82.2526 32.9695 81.649 33.4239 81.557 34.0764Z" fill="#C3B6D7" fill-opacity="0.17"/>
<path id="Vector_3" d="M48.9505 33.6298C48.8483 34.3548 49.3532 35.0255 50.0782 35.1277C50.8033 35.2299 51.4739 34.725 51.5761 34C51.6784 33.2749 51.1735 32.6043 50.4484 32.5021C49.7234 32.3999 49.0527 32.9048 48.9505 33.6298Z" fill="#C3B6D7" fill-opacity="0.17"/>
<path id="Vector_4" d="M32.1445 19.8796C32.0321 20.6771 32.5875 21.4149 33.385 21.5273C34.1826 21.6397 34.9203 21.0844 35.0327 20.2868C35.1452 19.4892 34.5898 18.7515 33.7922 18.6391C32.9947 18.5267 32.257 19.082 32.1445 19.8796Z" fill="#C3B6D7" fill-opacity="0.17"/>
<path id="Vector_5" d="M21.404 52.3737C21.2916 53.1713 21.847 53.909 22.6445 54.0214C23.4421 54.1338 24.1798 53.5785 24.2922 52.7809C24.4047 51.9834 23.8493 51.2457 23.0518 51.1332C22.2542 51.0208 21.5165 51.5761 21.404 52.3737Z" fill="#C3B6D7" fill-opacity="0.17"/>
<path id="Vector_6" d="M13.1371 114.807C13.0145 115.677 13.6203 116.481 14.4904 116.604C15.3605 116.727 16.1652 116.121 16.2879 115.251C16.4106 114.381 15.8047 113.576 14.9346 113.453C14.0646 113.331 13.2598 113.936 13.1371 114.807Z" fill="#C3B6D7" fill-opacity="0.17"/>
<path id="Vector_7" d="M43.3616 145.444C43.2491 146.242 43.8045 146.98 44.6021 147.092C45.3996 147.205 46.1373 146.649 46.2498 145.852C46.3622 145.054 45.8068 144.316 45.0093 144.204C44.2117 144.092 43.474 144.647 43.3616 145.444Z" fill="#C3B6D7" fill-opacity="0.17"/>
<path id="Vector_8" d="M60.5214 168.081C60.4397 168.661 60.8436 169.198 61.4236 169.28C62.0037 169.362 62.5402 168.958 62.6219 168.378C62.7037 167.798 62.2998 167.261 61.7198 167.179C61.1397 167.097 60.6032 167.501 60.5214 168.081Z" fill="#C3B6D7" fill-opacity="0.17"/>
<path id="Vector_9" d="M53.5185 183.563C53.4061 184.36 53.9615 185.098 54.759 185.21C55.5566 185.323 56.2943 184.768 56.4067 183.97C56.5192 183.172 55.9638 182.435 55.1663 182.322C54.3687 182.21 53.631 182.765 53.5185 183.563Z" fill="#C3B6D7" fill-opacity="0.17"/>
<path id="Vector_10" d="M70.2137 198.101C70.1115 198.826 70.6164 199.496 71.3414 199.599C72.0665 199.701 72.7371 199.196 72.8393 198.471C72.9415 197.746 72.4366 197.075 71.7116 196.973C70.9865 196.871 70.3159 197.376 70.2137 198.101Z" fill="#C3B6D7" fill-opacity="0.17"/>
<path id="Vector_11" d="M17.2464 188.223C17.1442 188.948 17.6491 189.618 18.3741 189.721C19.0992 189.823 19.7698 189.318 19.872 188.593C19.9743 187.868 19.4694 187.197 18.7443 187.095C18.0193 186.993 17.3486 187.498 17.2464 188.223Z" fill="#C3B6D7" fill-opacity="0.17"/>
<path id="Vector_12" d="M4.02148 164.266C3.90903 165.064 4.46442 165.801 5.26197 165.914C6.05953 166.026 6.79723 165.471 6.90968 164.673C7.02212 163.876 6.46674 163.138 5.66918 163.026C4.87163 162.913 4.13393 163.469 4.02148 164.266Z" fill="#C3B6D7" fill-opacity="0.17"/>
<path id="Vector_13" d="M33.7507 88.2567C33.5667 89.5618 34.4756 90.7689 35.7806 90.953C37.0857 91.137 38.2929 90.2281 38.4769 88.9231C38.6609 87.618 37.7521 86.4108 36.447 86.2268C35.1419 86.0428 33.9348 86.9516 33.7507 88.2567Z" fill="#C3B6D7" fill-opacity="0.17"/>
<path id="Vector_14" d="M57.853 103.437C57.669 104.743 58.5779 105.95 59.8829 106.134C61.188 106.318 62.3952 105.409 62.5792 104.104C62.7632 102.799 61.8544 101.592 60.5493 101.408C59.2442 101.224 58.037 102.132 57.853 103.437Z" fill="#C3B6D7" fill-opacity="0.17"/>
<path id="Vector_15" d="M64.8862 135.224C64.7022 136.529 65.6111 137.736 66.9161 137.92C68.2212 138.104 69.4284 137.195 69.6124 135.89C69.7964 134.585 68.8876 133.378 67.5825 133.194C66.2774 133.01 65.0703 133.919 64.8862 135.224Z" fill="#C3B6D7" fill-opacity="0.17"/>
<path id="Vector_16" d="M29.196 130.058C29.0018 131.436 29.9611 132.71 31.3387 132.904C32.7163 133.098 33.9905 132.139 34.1847 130.761C34.3789 129.384 33.4196 128.11 32.042 127.915C30.6644 127.721 29.3902 128.681 29.196 130.058Z" fill="#C3B6D7" fill-opacity="0.17"/>
<path id="Vector_17" d="M28.9816 156.271C28.7874 157.648 29.7467 158.922 31.1243 159.117C32.5019 159.311 33.7761 158.352 33.9703 156.974C34.1646 155.596 33.2053 154.322 31.8277 154.128C30.4501 153.934 29.1759 154.893 28.9816 156.271Z" fill="#C3B6D7" fill-opacity="0.17"/>
<path id="Vector_18" d="M50.6118 80.726C50.4278 82.0311 51.3366 83.2382 52.6417 83.4222C53.9468 83.6062 55.154 82.6974 55.338 81.3923C55.522 80.0872 54.6132 78.8801 53.3081 78.6961C52.003 78.5121 50.7958 79.4209 50.6118 80.726Z" fill="#C3B6D7" fill-opacity="0.17"/>
<path id="Vector_19" d="M27.4595 92.9932C27.2755 94.2982 28.1843 95.5054 29.4894 95.6894C30.7945 95.8734 32.0016 94.9646 32.1856 93.6595C32.3696 92.3544 31.4608 91.1473 30.1557 90.9633C28.8506 90.7793 27.6435 91.6881 27.4595 92.9932Z" fill="#C3B6D7" fill-opacity="0.17"/>
<path id="Vector_20" d="M43.1702 112.614C42.9862 113.919 43.895 115.126 45.2001 115.31C46.5052 115.494 47.7123 114.586 47.8963 113.28C48.0803 111.975 47.1715 110.768 45.8664 110.584C44.5613 110.4 43.3542 111.309 43.1702 112.614Z" fill="#C3B6D7" fill-opacity="0.17"/>
<path id="Vector_21" d="M45.4757 50.6797C45.3019 51.9123 46.1602 53.0524 47.3928 53.2261C48.6254 53.3999 49.7655 52.5416 49.9392 51.309C50.113 50.0764 49.2547 48.9363 48.0221 48.7626C46.7895 48.5888 45.6494 49.4471 45.4757 50.6797Z" fill="#C3B6D7" fill-opacity="0.17"/>
<path id="Vector_22" d="M70.9188 77.299C70.745 78.5316 71.6033 79.6716 72.8359 79.8454C74.0685 80.0192 75.2086 79.1609 75.3824 77.9283C75.5561 76.6957 74.6978 75.5556 73.4652 75.3818C72.2326 75.2081 71.0926 76.0664 70.9188 77.299Z" fill="#C3B6D7" fill-opacity="0.17"/>
<path id="Vector_23" d="M36.9272 2.30982L72.3179 16.0373L47.7056 50.0568L53.0118 80.7966L36.1138 88.5899L29.0349 93.2153L45.7958 112.984L31.315 130.223L31.6626 156.247" stroke="#C3B6D7" stroke-opacity="0.17" stroke-width="0.795481" stroke-linecap="round" stroke-linejoin="round"/>
<path id="Vector_24" d="M52.858 81.8112L60.537 103.489L67.2492 135.557" stroke="#C3B6D7" stroke-opacity="0.17" stroke-width="0.795481" stroke-miterlimit="10"/>
<path id="Vector_25" d="M91.2391 58.4708C91.1471 59.1233 91.6015 59.7269 92.2541 59.8189C92.9066 59.9109 93.5102 59.4565 93.6022 58.8039C93.6942 58.1514 93.2398 57.5478 92.5873 57.4558C91.9347 57.3638 91.3311 57.8182 91.2391 58.4708Z" fill="#C3B6D7" fill-opacity="0.17"/>
<path id="Vector_26" d="M99.895 147.122C99.8132 147.702 100.217 148.239 100.797 148.321C101.377 148.402 101.914 147.998 101.995 147.418C102.077 146.838 101.673 146.302 101.093 146.22C100.513 146.138 99.9767 146.542 99.895 147.122Z" fill="#C3B6D7" fill-opacity="0.17"/>
<path id="Vector_27" d="M82.7301 80.836C82.6381 81.4885 83.0925 82.0921 83.7451 82.1841C84.3976 82.2761 85.0012 81.8217 85.0932 81.1691C85.1852 80.5166 84.7308 79.913 84.0782 79.821C83.4257 79.729 82.8221 80.1834 82.7301 80.836Z" fill="#C3B6D7" fill-opacity="0.17"/>
<path id="Vector_28" d="M85.1064 119.062C85.0246 119.642 85.4285 120.179 86.0086 120.261C86.5886 120.342 87.1251 119.938 87.2069 119.358C87.2887 118.778 86.8848 118.242 86.3047 118.16C85.7247 118.078 85.1882 118.482 85.1064 119.062Z" fill="#C3B6D7" fill-opacity="0.17"/>
<path id="Vector_29" d="M67.0799 53.1901C67.0083 53.6976 67.3617 54.167 67.8693 54.2386C68.3768 54.3102 68.8462 53.9567 68.9178 53.4492C68.9894 52.9417 68.6359 52.4722 68.1284 52.4007C67.6209 52.3291 67.1514 52.6825 67.0799 53.1901Z" fill="#C3B6D7" fill-opacity="0.17"/>
<path id="Vector_30" d="M88.6354 162.405C88.5128 163.275 89.1186 164.08 89.9887 164.203C90.8588 164.325 91.6635 163.719 91.7862 162.849C91.9089 161.979 91.303 161.174 90.4329 161.052C89.5629 160.929 88.7581 161.535 88.6354 162.405Z" fill="#C3B6D7" fill-opacity="0.17"/>
<path id="Vector_31" d="M78.9399 130.511C78.8581 131.091 79.262 131.627 79.8421 131.709C80.4221 131.791 80.9586 131.387 81.0404 130.807C81.1222 130.227 80.7183 129.69 80.1382 129.609C79.5582 129.527 79.0217 129.931 78.9399 130.511Z" fill="#C3B6D7" fill-opacity="0.17"/>
<path id="Vector_32" d="M98.3592 25.0646C98.257 25.7896 98.7619 26.4603 99.4869 26.5625C100.212 26.6647 100.883 26.1598 100.985 25.4348C101.087 24.7097 100.582 24.0391 99.8571 23.9369C99.1321 23.8346 98.4614 24.3395 98.3592 25.0646Z" fill="#C3B6D7" fill-opacity="0.17"/>
<path id="Vector_33" d="M38.2242 176.185C38.122 176.91 38.6269 177.58 39.3519 177.683C40.077 177.785 40.7476 177.28 40.8498 176.555C40.952 175.83 40.4471 175.159 39.7221 175.057C38.997 174.955 38.3264 175.46 38.2242 176.185Z" fill="#C3B6D7" fill-opacity="0.17"/>
<path id="Vector_34" d="M18.5592 188.408L39.5368 176.37L55.1124 183.654L61.5715 168.23" stroke="#C3B6D7" stroke-opacity="0.17" stroke-width="0.795481" stroke-miterlimit="10"/>
<path id="Vector_35" d="M73.1506 77.6135L53.0118 80.7966" stroke="#C3B6D7" stroke-opacity="0.17" stroke-width="0.795481" stroke-linecap="round" stroke-linejoin="round"/>
</g>
</svg>
