<svg width="375" height="712" viewBox="0 0 375 712" fill="none" xmlns="http://www.w3.org/2000/svg">
<path d="M139.152 424.388C140.282 424.079 140.948 422.912 140.639 421.782C140.33 420.652 139.164 419.986 138.034 420.295C136.904 420.604 136.238 421.771 136.547 422.901C136.856 424.031 138.022 424.697 139.152 424.388Z" fill="white"/>
<path d="M151.503 406.718C152.139 406.544 152.513 405.888 152.34 405.252C152.166 404.616 151.51 404.242 150.874 404.416C150.238 404.589 149.864 405.246 150.037 405.881C150.211 406.517 150.867 406.891 151.503 406.718Z" fill="white"/>
<path d="M163.997 436.839C164.703 436.646 165.119 435.917 164.926 435.211C164.733 434.504 164.004 434.088 163.298 434.281C162.591 434.474 162.175 435.203 162.368 435.91C162.561 436.616 163.29 437.032 163.997 436.839Z" fill="white"/>
<path d="M158.02 457.715C158.797 457.502 159.255 456.7 159.042 455.923C158.83 455.147 158.028 454.689 157.251 454.901C156.474 455.114 156.016 455.916 156.229 456.692C156.441 457.469 157.243 457.927 158.02 457.715Z" fill="white"/>
<path d="M192.112 454.719C192.889 454.507 193.346 453.705 193.134 452.928C192.922 452.151 192.12 451.693 191.343 451.905C190.566 452.118 190.108 452.92 190.32 453.697C190.533 454.474 191.335 454.931 192.112 454.719Z" fill="white"/>
<path d="M252.719 437.604C253.567 437.372 254.066 436.497 253.834 435.649C253.603 434.802 252.728 434.303 251.88 434.534C251.033 434.766 250.533 435.641 250.765 436.488C250.997 437.336 251.872 437.835 252.719 437.604Z" fill="white"/>
<path d="M268.895 397.722C269.672 397.51 270.13 396.708 269.917 395.931C269.705 395.154 268.903 394.696 268.126 394.908C267.349 395.121 266.891 395.923 267.104 396.7C267.316 397.477 268.118 397.934 268.895 397.722Z" fill="white"/>
<path d="M282.893 373.005C283.458 372.85 283.791 372.267 283.636 371.702C283.482 371.137 282.899 370.804 282.334 370.958C281.769 371.113 281.436 371.696 281.59 372.261C281.745 372.826 282.328 373.159 282.893 373.005Z" fill="white"/>
<path d="M299.882 373.309C300.659 373.097 301.116 372.295 300.904 371.518C300.692 370.741 299.89 370.283 299.113 370.496C298.336 370.708 297.878 371.51 298.09 372.287C298.303 373.064 299.105 373.521 299.882 373.309Z" fill="white"/>
<path d="M306.626 352.224C307.332 352.031 307.748 351.302 307.555 350.595C307.362 349.889 306.633 349.473 305.927 349.666C305.22 349.859 304.804 350.588 304.997 351.294C305.19 352.001 305.92 352.417 306.626 352.224Z" fill="white"/>
<path d="M318.516 404.776C319.222 404.583 319.638 403.854 319.445 403.147C319.252 402.441 318.523 402.025 317.817 402.218C317.11 402.411 316.694 403.14 316.887 403.847C317.08 404.553 317.809 404.969 318.516 404.776Z" fill="white"/>
<path d="M301.748 426.402C302.525 426.189 302.983 425.387 302.771 424.61C302.558 423.834 301.756 423.376 300.979 423.588C300.202 423.801 299.745 424.603 299.957 425.379C300.169 426.156 300.971 426.614 301.748 426.402Z" fill="white"/>
<path d="M220.179 429.18C221.451 428.832 222.199 427.52 221.852 426.249C221.504 424.977 220.192 424.228 218.921 424.576C217.649 424.923 216.9 426.236 217.248 427.507C217.595 428.778 218.908 429.527 220.179 429.18Z" fill="white"/>
<path d="M224.582 401.037C225.854 400.69 226.603 399.378 226.255 398.106C225.908 396.835 224.595 396.086 223.324 396.433C222.052 396.781 221.304 398.093 221.651 399.365C221.999 400.636 223.311 401.385 224.582 401.037Z" fill="white"/>
<path d="M250.991 381.999C252.262 381.652 253.011 380.339 252.663 379.068C252.316 377.797 251.004 377.048 249.732 377.395C248.461 377.743 247.712 379.055 248.059 380.326C248.407 381.598 249.719 382.347 250.991 381.999Z" fill="white"/>
<path d="M260.371 416.82C261.712 416.453 262.503 415.068 262.136 413.726C261.769 412.384 260.384 411.593 259.042 411.96C257.7 412.327 256.91 413.712 257.276 415.054C257.643 416.396 259.029 417.187 260.371 416.82Z" fill="white"/>
<path d="M284.528 406.644C285.87 406.277 286.661 404.892 286.294 403.55C285.927 402.208 284.542 401.417 283.2 401.784C281.858 402.151 281.067 403.536 281.434 404.878C281.801 406.22 283.186 407.01 284.528 406.644Z" fill="white"/>
<path d="M206.591 416.676C207.862 416.328 208.611 415.016 208.263 413.744C207.916 412.473 206.604 411.724 205.332 412.072C204.061 412.419 203.312 413.731 203.659 415.003C204.007 416.274 205.319 417.023 206.591 416.676Z" fill="white"/>
<path d="M227.019 433.083C228.29 432.735 229.039 431.423 228.691 430.152C228.344 428.88 227.032 428.131 225.76 428.479C224.489 428.826 223.74 430.139 224.087 431.41C224.435 432.682 225.747 433.43 227.019 433.083Z" fill="white"/>
<path d="M238.82 410.89C240.092 410.543 240.841 409.23 240.493 407.959C240.146 406.688 238.833 405.939 237.562 406.286C236.291 406.634 235.542 407.946 235.889 409.217C236.237 410.489 237.549 411.238 238.82 410.89Z" fill="white"/>
<path d="M181.03 433.283C182.231 432.955 182.938 431.715 182.61 430.515C182.282 429.314 181.042 428.607 179.841 428.935C178.641 429.263 177.933 430.502 178.262 431.703C178.59 432.904 179.829 433.611 181.03 433.283Z" fill="white"/>
<path d="M195.407 399.383C196.608 399.054 197.315 397.815 196.987 396.614C196.659 395.413 195.419 394.706 194.219 395.034C193.018 395.362 192.31 396.602 192.639 397.803C192.967 399.003 194.206 399.711 195.407 399.383Z" fill="white"/>
<path d="M139.992 460.276L138.593 422.341L179.575 431.482L205.706 414.443L219.55 426.878L226.599 431.548L238.121 408.332L259.683 414.809L283.445 404.191" stroke="white" stroke-width="0.795481" stroke-linecap="round" stroke-linejoin="round"/>
<path d="M206.698 414.183L223.568 398.552L250.361 379.697" stroke="white" stroke-width="0.795481" stroke-miterlimit="10"/>
<path d="M170.074 388.172C170.71 387.999 171.085 387.342 170.911 386.707C170.737 386.071 170.081 385.697 169.445 385.87C168.81 386.044 168.435 386.7 168.609 387.336C168.783 387.972 169.439 388.346 170.074 388.172Z" fill="white"/>
<path d="M248.063 345.14C248.628 344.986 248.961 344.402 248.806 343.837C248.652 343.272 248.069 342.939 247.504 343.094C246.939 343.248 246.606 343.831 246.76 344.397C246.915 344.962 247.498 345.294 248.063 345.14Z" fill="white"/>
<path d="M193.981 387.136C194.617 386.962 194.991 386.306 194.818 385.67C194.644 385.034 193.988 384.66 193.352 384.834C192.716 385.007 192.342 385.664 192.516 386.299C192.689 386.935 193.345 387.309 193.981 387.136Z" fill="white"/>
<path d="M228.146 369.826C228.711 369.671 229.044 369.088 228.89 368.523C228.735 367.958 228.152 367.625 227.587 367.78C227.022 367.934 226.689 368.517 226.843 369.082C226.998 369.647 227.581 369.98 228.146 369.826Z" fill="white"/>
<path d="M174.786 412.449C175.28 412.314 175.571 411.804 175.436 411.309C175.301 410.815 174.791 410.523 174.296 410.659C173.802 410.794 173.511 411.304 173.646 411.799C173.781 412.293 174.291 412.584 174.786 412.449Z" fill="white"/>
<path d="M266.554 349.432C267.402 349.2 267.901 348.326 267.669 347.478C267.438 346.63 266.563 346.131 265.715 346.363C264.868 346.594 264.368 347.469 264.6 348.317C264.832 349.164 265.706 349.664 266.554 349.432Z" fill="white"/>
<path d="M241.101 370.958C241.666 370.804 241.998 370.22 241.844 369.655C241.69 369.09 241.106 368.757 240.541 368.912C239.976 369.066 239.643 369.65 239.798 370.215C239.952 370.78 240.536 371.113 241.101 370.958Z" fill="white"/>
<path d="M136.578 394.854C137.284 394.661 137.7 393.932 137.507 393.225C137.314 392.519 136.585 392.103 135.879 392.296C135.172 392.489 134.756 393.218 134.949 393.924C135.142 394.631 135.871 395.047 136.578 394.854Z" fill="white"/>
<path d="M299.159 390.275C299.865 390.082 300.281 389.353 300.088 388.646C299.895 387.94 299.166 387.524 298.459 387.717C297.753 387.91 297.337 388.639 297.53 389.346C297.723 390.052 298.452 390.468 299.159 390.275Z" fill="white"/>
<path d="M318.166 403.497L298.809 388.996L299.334 371.809L282.613 371.982" stroke="white" stroke-width="0.795481" stroke-miterlimit="10"/>
<path d="M194.813 397.208L205.706 414.444" stroke="white" stroke-width="0.795481" stroke-linecap="round" stroke-linejoin="round"/>
<g clip-path="url(#clip0_49_939)">
<path d="M333.218 100.741C333.054 101.901 333.862 102.974 335.022 103.138C336.182 103.301 337.255 102.494 337.419 101.334C337.582 100.173 336.774 99.1005 335.614 98.9369C334.454 98.7733 333.381 99.5812 333.218 100.741Z" fill="white"/>
<path d="M344.557 119.076C344.465 119.729 344.92 120.333 345.572 120.425C346.225 120.517 346.828 120.062 346.92 119.41C347.012 118.757 346.558 118.153 345.905 118.061C345.253 117.969 344.649 118.424 344.557 119.076Z" fill="white"/>
<path d="M311.951 118.63C311.849 119.355 312.353 120.025 313.078 120.128C313.804 120.23 314.474 119.725 314.576 119C314.679 118.275 314.174 117.604 313.449 117.502C312.724 117.4 312.053 117.905 311.951 118.63Z" fill="white"/>
<path d="M295.145 104.88C295.032 105.677 295.587 106.415 296.385 106.527C297.183 106.64 297.92 106.084 298.033 105.287C298.145 104.489 297.59 103.752 296.792 103.639C295.995 103.527 295.257 104.082 295.145 104.88Z" fill="white"/>
<path d="M284.404 137.374C284.292 138.171 284.847 138.909 285.645 139.021C286.442 139.134 287.18 138.578 287.292 137.781C287.405 136.983 286.849 136.246 286.052 136.133C285.254 136.021 284.517 136.576 284.404 137.374Z" fill="white"/>
<path d="M276.137 199.807C276.015 200.677 276.621 201.481 277.491 201.604C278.361 201.727 279.165 201.121 279.288 200.251C279.411 199.381 278.805 198.576 277.935 198.453C277.065 198.331 276.26 198.936 276.137 199.807Z" fill="white"/>
<path d="M306.362 230.444C306.249 231.242 306.805 231.98 307.602 232.092C308.4 232.205 309.137 231.649 309.25 230.852C309.362 230.054 308.807 229.316 308.009 229.204C307.212 229.092 306.474 229.647 306.362 230.444Z" fill="white"/>
<path d="M323.522 253.081C323.44 253.661 323.844 254.198 324.424 254.28C325.004 254.362 325.54 253.958 325.622 253.378C325.704 252.798 325.3 252.261 324.72 252.179C324.14 252.097 323.603 252.501 323.522 253.081Z" fill="white"/>
<path d="M316.519 268.563C316.406 269.36 316.962 270.098 317.759 270.21C318.557 270.323 319.294 269.768 319.407 268.97C319.519 268.172 318.964 267.435 318.166 267.322C317.369 267.21 316.631 267.765 316.519 268.563Z" fill="white"/>
<path d="M333.214 283.101C333.112 283.826 333.616 284.496 334.342 284.599C335.067 284.701 335.737 284.196 335.839 283.471C335.942 282.746 335.437 282.075 334.712 281.973C333.987 281.871 333.316 282.376 333.214 283.101Z" fill="white"/>
<path d="M280.247 273.223C280.144 273.948 280.649 274.618 281.374 274.721C282.099 274.823 282.77 274.318 282.872 273.593C282.974 272.868 282.469 272.197 281.744 272.095C281.019 271.993 280.349 272.498 280.247 273.223Z" fill="white"/>
<path d="M267.022 249.266C266.909 250.064 267.465 250.801 268.262 250.914C269.06 251.026 269.797 250.471 269.91 249.673C270.022 248.876 269.467 248.138 268.669 248.026C267.872 247.913 267.134 248.469 267.022 249.266Z" fill="white"/>
<path d="M296.751 173.257C296.567 174.562 297.476 175.769 298.781 175.953C300.086 176.137 301.293 175.228 301.477 173.923C301.661 172.618 300.752 171.411 299.447 171.227C298.142 171.043 296.935 171.952 296.751 173.257Z" fill="white"/>
<path d="M320.853 188.437C320.669 189.743 321.578 190.95 322.883 191.134C324.188 191.318 325.395 190.409 325.579 189.104C325.763 187.799 324.855 186.592 323.55 186.408C322.244 186.224 321.037 187.132 320.853 188.437Z" fill="white"/>
<path d="M327.886 220.224C327.702 221.529 328.611 222.736 329.916 222.92C331.221 223.104 332.429 222.195 332.613 220.89C332.797 219.585 331.888 218.378 330.583 218.194C329.278 218.01 328.07 218.919 327.886 220.224Z" fill="white"/>
<path d="M292.196 215.058C292.002 216.436 292.961 217.71 294.339 217.904C295.717 218.098 296.991 217.139 297.185 215.761C297.379 214.384 296.42 213.11 295.042 212.915C293.665 212.721 292.39 213.681 292.196 215.058Z" fill="white"/>
<path d="M291.982 241.271C291.787 242.648 292.747 243.922 294.124 244.117C295.502 244.311 296.776 243.352 296.97 241.974C297.165 240.596 296.205 239.322 294.828 239.128C293.45 238.934 292.176 239.893 291.982 241.271Z" fill="white"/>
<path d="M313.612 165.726C313.428 167.031 314.337 168.238 315.642 168.422C316.947 168.606 318.154 167.697 318.338 166.392C318.522 165.087 317.613 163.88 316.308 163.696C315.003 163.512 313.796 164.421 313.612 165.726Z" fill="white"/>
<path d="M290.46 177.993C290.276 179.298 291.185 180.505 292.49 180.689C293.795 180.873 295.002 179.965 295.186 178.66C295.37 177.354 294.461 176.147 293.156 175.963C291.851 175.779 290.644 176.688 290.46 177.993Z" fill="white"/>
<path d="M306.17 197.614C305.986 198.919 306.895 200.126 308.2 200.31C309.505 200.494 310.712 199.586 310.896 198.28C311.08 196.975 310.172 195.768 308.867 195.584C307.561 195.4 306.354 196.309 306.17 197.614Z" fill="white"/>
<path d="M308.476 135.68C308.302 136.912 309.16 138.052 310.393 138.226C311.625 138.4 312.765 137.542 312.939 136.309C313.113 135.076 312.255 133.936 311.022 133.763C309.79 133.589 308.649 134.447 308.476 135.68Z" fill="white"/>
<path d="M333.919 162.299C333.745 163.532 334.604 164.672 335.836 164.845C337.069 165.019 338.209 164.161 338.383 162.928C338.556 161.696 337.698 160.556 336.465 160.382C335.233 160.208 334.093 161.066 333.919 162.299Z" fill="white"/>
<path d="M299.927 87.3098L335.318 101.037L310.706 135.057L316.012 165.797L299.114 173.59L292.035 178.215L308.796 197.984L294.315 215.223L294.663 241.247" stroke="white" stroke-width="0.795481" stroke-linecap="round" stroke-linejoin="round"/>
<path d="M315.858 166.811L323.537 188.489L330.249 220.557" stroke="white" stroke-width="0.795481" stroke-miterlimit="10"/>
<path d="M354.239 143.471C354.147 144.123 354.602 144.727 355.254 144.819C355.907 144.911 356.51 144.456 356.602 143.804C356.694 143.151 356.24 142.548 355.587 142.456C354.935 142.364 354.331 142.818 354.239 143.471Z" fill="white"/>
<path d="M362.895 232.122C362.813 232.702 363.217 233.239 363.797 233.321C364.377 233.402 364.914 232.998 364.995 232.418C365.077 231.838 364.673 231.302 364.093 231.22C363.513 231.138 362.977 231.542 362.895 232.122Z" fill="white"/>
<path d="M345.73 165.836C345.638 166.489 346.093 167.092 346.745 167.184C347.398 167.276 348.001 166.822 348.093 166.169C348.185 165.517 347.731 164.913 347.078 164.821C346.426 164.729 345.822 165.183 345.73 165.836Z" fill="white"/>
<path d="M348.106 204.062C348.025 204.642 348.429 205.179 349.009 205.261C349.589 205.342 350.125 204.938 350.207 204.358C350.289 203.778 349.885 203.242 349.305 203.16C348.725 203.078 348.188 203.482 348.106 204.062Z" fill="white"/>
<path d="M330.08 138.19C330.008 138.698 330.362 139.167 330.869 139.239C331.377 139.31 331.846 138.957 331.918 138.449C331.989 137.942 331.636 137.472 331.129 137.401C330.621 137.329 330.152 137.683 330.08 138.19Z" fill="white"/>
<path d="M351.636 247.405C351.513 248.275 352.119 249.08 352.989 249.203C353.859 249.325 354.664 248.719 354.786 247.849C354.909 246.979 354.303 246.174 353.433 246.052C352.563 245.929 351.758 246.535 351.636 247.405Z" fill="white"/>
<path d="M341.94 215.511C341.858 216.091 342.262 216.627 342.842 216.709C343.422 216.791 343.959 216.387 344.041 215.807C344.122 215.227 343.718 214.69 343.138 214.609C342.558 214.527 342.022 214.931 341.94 215.511Z" fill="white"/>
<path d="M361.359 110.065C361.257 110.79 361.762 111.46 362.487 111.563C363.212 111.665 363.883 111.16 363.985 110.435C364.087 109.71 363.582 109.039 362.857 108.937C362.132 108.835 361.461 109.34 361.359 110.065Z" fill="white"/>
<path d="M301.224 261.185C301.122 261.91 301.627 262.58 302.352 262.683C303.077 262.785 303.748 262.28 303.85 261.555C303.952 260.83 303.447 260.159 302.722 260.057C301.997 259.955 301.326 260.46 301.224 261.185Z" fill="white"/>
<path d="M281.559 273.408L302.537 261.37L318.113 268.654L324.572 253.23" stroke="white" stroke-width="0.795481" stroke-miterlimit="10"/>
<path d="M336.151 162.614L316.012 165.797" stroke="white" stroke-width="0.795481" stroke-linecap="round" stroke-linejoin="round"/>
</g>
<path d="M71.6989 118.817C72.8424 118.562 73.5626 117.428 73.3076 116.285C73.0526 115.141 71.919 114.421 70.7755 114.676C69.632 114.931 68.9118 116.065 69.1668 117.208C69.4218 118.352 70.5555 119.072 71.6989 118.817Z" fill="white"/>
<path d="M84.8729 101.752C85.5161 101.608 85.9212 100.971 85.7778 100.328C85.6343 99.6844 84.9967 99.2793 84.3535 99.4227C83.7103 99.5661 83.3051 100.204 83.4486 100.847C83.592 101.49 84.2297 101.895 84.8729 101.752Z" fill="white"/>
<path d="M95.9255 132.431C96.6402 132.272 97.0903 131.563 96.9309 130.849C96.7715 130.134 96.063 129.684 95.3483 129.843C94.6337 130.003 94.1835 130.711 94.3429 131.426C94.5023 132.141 95.2108 132.591 95.9255 132.431Z" fill="white"/>
<path d="M88.9665 153C89.7526 152.825 90.2478 152.046 90.0725 151.26C89.8972 150.473 89.1177 149.978 88.3316 150.154C87.5455 150.329 87.0503 151.108 87.2256 151.894C87.4009 152.681 88.1804 153.176 88.9665 153Z" fill="white"/>
<path d="M123.162 151.623C123.948 151.448 124.443 150.668 124.268 149.882C124.093 149.096 123.313 148.601 122.527 148.776C121.741 148.952 121.246 149.731 121.421 150.517C121.596 151.303 122.376 151.798 123.162 151.623Z" fill="white"/>
<path d="M184.512 137.398C185.37 137.207 185.91 136.357 185.719 135.499C185.527 134.641 184.677 134.101 183.82 134.292C182.962 134.484 182.422 135.334 182.613 136.192C182.804 137.049 183.655 137.589 184.512 137.398Z" fill="white"/>
<path d="M202.559 98.3276C203.345 98.1523 203.84 97.3729 203.665 96.5867C203.49 95.8006 202.71 95.3054 201.924 95.4808C201.138 95.6561 200.643 96.4355 200.818 97.2216C200.993 98.0077 201.773 98.5029 202.559 98.3276Z" fill="white"/>
<path d="M217.712 74.3011C218.284 74.1736 218.644 73.6067 218.517 73.035C218.389 72.4633 217.822 72.1032 217.251 72.2307C216.679 72.3582 216.319 72.925 216.446 73.4967C216.574 74.0685 217.141 74.4286 217.712 74.3011Z" fill="white"/>
<path d="M234.668 75.41C235.454 75.2347 235.949 74.4553 235.774 73.6692C235.598 72.8831 234.819 72.3879 234.033 72.5632C233.247 72.7385 232.751 73.5179 232.927 74.3041C233.102 75.0902 233.881 75.5854 234.668 75.41Z" fill="white"/>
<path d="M242.403 54.6678C243.118 54.5084 243.568 53.7999 243.408 53.0852C243.249 52.3706 242.541 51.9204 241.826 52.0798C241.111 52.2392 240.661 52.9477 240.82 53.6624C240.98 54.377 241.688 54.8272 242.403 54.6678Z" fill="white"/>
<path d="M251.79 107.724C252.505 107.565 252.955 106.856 252.795 106.142C252.636 105.427 251.927 104.977 251.213 105.136C250.498 105.296 250.048 106.004 250.207 106.719C250.367 107.433 251.075 107.884 251.79 107.724Z" fill="white"/>
<path d="M234.017 128.532C234.803 128.356 235.298 127.577 235.123 126.791C234.948 126.005 234.168 125.509 233.382 125.685C232.596 125.86 232.101 126.639 232.276 127.426C232.451 128.212 233.231 128.707 234.017 128.532Z" fill="white"/>
<path d="M152.408 127.442C153.694 127.155 154.504 125.88 154.218 124.593C153.931 123.307 152.655 122.497 151.369 122.784C150.083 123.071 149.272 124.346 149.559 125.632C149.846 126.919 151.121 127.729 152.408 127.442Z" fill="white"/>
<path d="M158.139 99.54C159.425 99.2531 160.236 97.9777 159.949 96.6913C159.662 95.4049 158.387 94.5947 157.1 94.8816C155.814 95.1684 155.004 96.4438 155.29 97.7302C155.577 99.0166 156.853 99.8269 158.139 99.54Z" fill="white"/>
<path d="M185.42 81.7743C186.706 81.4874 187.516 80.212 187.229 78.9256C186.943 77.6392 185.667 76.8289 184.381 77.1158C183.094 77.4027 182.284 78.6781 182.571 79.9645C182.858 81.2509 184.133 82.0611 185.42 81.7743Z" fill="white"/>
<path d="M193.139 117C194.497 116.697 195.353 115.351 195.05 113.993C194.747 112.636 193.401 111.78 192.043 112.083C190.685 112.386 189.83 113.732 190.133 115.09C190.435 116.448 191.782 117.303 193.139 117Z" fill="white"/>
<path d="M217.752 107.98C219.11 107.677 219.965 106.331 219.662 104.973C219.359 103.615 218.013 102.76 216.655 103.063C215.297 103.365 214.442 104.712 214.745 106.069C215.048 107.427 216.394 108.283 217.752 107.98Z" fill="white"/>
<path d="M139.427 114.308C140.713 114.021 141.523 112.746 141.237 111.46C140.95 110.173 139.674 109.363 138.388 109.65C137.102 109.937 136.291 111.212 136.578 112.498C136.865 113.785 138.14 114.595 139.427 114.308Z" fill="white"/>
<path d="M159.055 131.665C160.341 131.378 161.151 130.103 160.864 128.816C160.578 127.53 159.302 126.72 158.016 127.007C156.729 127.293 155.919 128.569 156.206 129.855C156.493 131.142 157.768 131.952 159.055 131.665Z" fill="white"/>
<path d="M171.894 110.056C173.181 109.769 173.991 108.494 173.704 107.207C173.417 105.921 172.142 105.111 170.856 105.398C169.569 105.685 168.759 106.96 169.046 108.246C169.333 109.533 170.608 110.343 171.894 110.056Z" fill="white"/>
<path d="M113.108 129.686C114.323 129.415 115.088 128.211 114.817 126.996C114.546 125.781 113.342 125.016 112.127 125.287C110.912 125.557 110.147 126.762 110.418 127.977C110.689 129.192 111.893 129.957 113.108 129.686Z" fill="white"/>
<path d="M129.075 96.5048C130.29 96.2339 131.055 95.0293 130.784 93.8144C130.513 92.5995 129.309 91.8342 128.094 92.1052C126.879 92.3761 126.114 93.5806 126.385 94.7956C126.656 96.0105 127.86 96.7757 129.075 96.5048Z" fill="white"/>
<path d="M70.8373 154.704L71.2371 116.746L111.74 127.818L138.649 112.037L151.888 125.113L158.708 130.112L171.317 107.468L192.548 114.959L216.786 105.478" stroke="white" stroke-width="0.795481" stroke-linecap="round" stroke-linejoin="round"/>
<path d="M139.652 111.824L157.243 97.0095L184.9 79.445" stroke="white" stroke-width="0.795481" stroke-miterlimit="10"/>
<path d="M104.302 84.1071C104.945 83.9637 105.35 83.326 105.207 82.6828C105.063 82.0396 104.426 81.6344 103.782 81.7779C103.139 81.9213 102.734 82.559 102.878 83.2022C103.021 83.8454 103.659 84.2505 104.302 84.1071Z" fill="white"/>
<path d="M184.241 44.8177C184.813 44.6902 185.173 44.1233 185.046 43.5516C184.918 42.9799 184.351 42.6198 183.78 42.7473C183.208 42.8748 182.848 43.4416 182.975 44.0133C183.103 44.5851 183.67 44.9452 184.241 44.8177Z" fill="white"/>
<path d="M128.231 84.2042C128.874 84.0608 129.279 83.4231 129.136 82.7799C128.992 82.1367 128.355 81.7316 127.711 81.875C127.068 82.0184 126.663 82.6561 126.806 83.2993C126.95 83.9425 127.588 84.3477 128.231 84.2042Z" fill="white"/>
<path d="M163.178 68.5323C163.749 68.4048 164.109 67.8379 163.982 67.2662C163.854 66.6945 163.288 66.3343 162.716 66.4618C162.144 66.5893 161.784 67.1562 161.912 67.7279C162.039 68.2996 162.606 68.6598 163.178 68.5323Z" fill="white"/>
<path d="M107.858 108.58C108.358 108.468 108.673 107.972 108.561 107.472C108.45 106.972 107.954 106.657 107.454 106.768C106.953 106.88 106.638 107.376 106.75 107.876C106.861 108.376 107.357 108.691 107.858 108.58Z" fill="white"/>
<path d="M202.508 49.9809C203.366 49.7897 203.906 48.9394 203.715 48.0818C203.524 47.2242 202.673 46.684 201.816 46.8753C200.958 47.0666 200.418 47.9168 200.609 48.7744C200.8 49.632 201.651 50.1722 202.508 49.9809Z" fill="white"/>
<path d="M176.064 70.277C176.636 70.1495 176.996 69.5827 176.868 69.0109C176.741 68.4392 176.174 68.0791 175.602 68.2066C175.03 68.3341 174.67 68.9009 174.798 69.4726C174.925 70.0444 175.492 70.4045 176.064 70.277Z" fill="white"/>
<path d="M70.5263 89.1942C71.241 89.0349 71.6911 88.3263 71.5318 87.6117C71.3724 86.897 70.6638 86.4468 69.9492 86.6062C69.2345 86.7656 68.7844 87.4741 68.9437 88.1888C69.1031 88.9035 69.8117 89.3536 70.5263 89.1942Z" fill="white"/>
<path d="M233.141 92.3225C233.856 92.1631 234.306 91.4545 234.147 90.7399C233.987 90.0252 233.279 89.5751 232.564 89.7344C231.85 89.8938 231.399 90.6024 231.559 91.317C231.718 92.0317 232.427 92.4818 233.141 92.3225Z" fill="white"/>
<path d="M251.501 106.43L232.853 91.0285L234.192 73.8861L217.481 73.2659" stroke="white" stroke-width="0.795481" stroke-miterlimit="10"/>
<path d="M128.584 94.305L138.649 112.037" stroke="white" stroke-width="0.795481" stroke-linecap="round" stroke-linejoin="round"/>
<g clip-path="url(#clip1_49_939)">
<path d="M175.292 168.642C174.27 169.215 173.906 170.508 174.479 171.53C175.051 172.552 176.344 172.916 177.366 172.343C178.388 171.77 178.752 170.478 178.18 169.456C177.607 168.434 176.314 168.069 175.292 168.642Z" fill="white"/>
<path d="M167.576 188.772C167.001 189.094 166.796 189.822 167.118 190.396C167.44 190.971 168.167 191.176 168.742 190.854C169.317 190.532 169.522 189.805 169.2 189.23C168.878 188.655 168.15 188.45 167.576 188.772Z" fill="white"/>
<path d="M148.176 162.561C147.537 162.919 147.309 163.727 147.667 164.366C148.025 165.004 148.833 165.232 149.472 164.874C150.111 164.516 150.338 163.708 149.98 163.069C149.622 162.43 148.814 162.203 148.176 162.561Z" fill="white"/>
<path d="M148.933 140.86C148.23 141.253 147.98 142.142 148.373 142.845C148.767 143.547 149.656 143.798 150.359 143.404C151.061 143.01 151.312 142.122 150.918 141.419C150.524 140.716 149.635 140.466 148.933 140.86Z" fill="white"/>
<path d="M116.574 152.002C115.872 152.396 115.621 153.284 116.015 153.987C116.409 154.69 117.298 154.94 118 154.546C118.703 154.153 118.953 153.264 118.56 152.561C118.166 151.858 117.277 151.608 116.574 152.002Z" fill="white"/>
<path d="M61.8961 183.251C61.1296 183.68 60.8564 184.65 61.2859 185.416C61.7155 186.183 62.6851 186.456 63.4516 186.026C64.2181 185.597 64.4913 184.627 64.0617 183.861C63.6322 183.094 62.6626 182.821 61.8961 183.251Z" fill="white"/>
<path d="M55.8331 225.859C55.1305 226.252 54.8801 227.141 55.2738 227.844C55.6676 228.546 56.5564 228.797 57.259 228.403C57.9616 228.009 58.2121 227.12 57.8183 226.418C57.4246 225.715 56.5358 225.465 55.8331 225.859Z" fill="white"/>
<path d="M48.2203 253.225C47.7093 253.512 47.5272 254.158 47.8136 254.669C48.0999 255.18 48.7463 255.362 49.2574 255.076C49.7684 254.789 49.9505 254.143 49.6641 253.632C49.3778 253.121 48.7314 252.939 48.2203 253.225Z" fill="white"/>
<path d="M31.6613 257.034C30.9586 257.427 30.7082 258.316 31.102 259.019C31.4957 259.721 32.3845 259.972 33.0871 259.578C33.7898 259.184 34.0402 258.296 33.6464 257.593C33.2527 256.89 32.3639 256.64 31.6613 257.034Z" fill="white"/>
<path d="M30.2101 279.124C29.5714 279.482 29.3437 280.29 29.7017 280.928C30.0596 281.567 30.8676 281.795 31.5064 281.437C32.1451 281.079 32.3728 280.271 32.0148 279.632C31.6569 278.993 30.8489 278.766 30.2101 279.124Z" fill="white"/>
<path d="M5.97795 231C5.33919 231.358 5.11154 232.166 5.4695 232.805C5.82745 233.443 6.63545 233.671 7.27421 233.313C7.91297 232.955 8.14061 232.147 7.78266 231.508C7.4247 230.87 6.61671 230.642 5.97795 231Z" fill="white"/>
<path d="M17.0247 205.964C16.322 206.358 16.0716 207.247 16.4654 207.949C16.8591 208.652 17.7479 208.902 18.4505 208.509C19.1532 208.115 19.4036 207.226 19.0098 206.524C18.6161 205.821 17.7273 205.57 17.0247 205.964Z" fill="white"/>
<path d="M95.5073 183.565C94.3575 184.209 93.9477 185.663 94.592 186.813C95.2364 187.963 96.6907 188.373 97.8405 187.728C98.9903 187.084 99.4 185.63 98.7557 184.48C98.1114 183.33 96.657 182.92 95.5073 183.565Z" fill="white"/>
<path d="M98.0326 211.937C96.8829 212.582 96.4731 214.036 97.1174 215.186C97.7617 216.335 99.2161 216.745 100.366 216.101C101.516 215.457 101.925 214.002 101.281 212.852C100.637 211.703 99.1824 211.293 98.0326 211.937Z" fill="white"/>
<path d="M77.0052 236.791C75.8554 237.435 75.4457 238.889 76.09 240.039C76.7343 241.189 78.1887 241.599 79.3384 240.954C80.4882 240.31 80.898 238.856 80.2537 237.706C79.6093 236.556 78.1549 236.146 77.0052 236.791Z" fill="white"/>
<path d="M59.4918 205.267C58.2782 205.947 57.8457 207.482 58.5258 208.696C59.2059 209.91 60.7411 210.342 61.9547 209.662C63.1684 208.982 63.6009 207.447 62.9208 206.233C62.2407 205.019 60.7055 204.587 59.4918 205.267Z" fill="white"/>
<path d="M38.5079 220.977C37.2943 221.658 36.8618 223.193 37.5419 224.406C38.222 225.62 39.7572 226.053 40.9708 225.372C42.1845 224.692 42.617 223.157 41.9369 221.943C41.2568 220.73 39.7216 220.297 38.5079 220.977Z" fill="white"/>
<path d="M111.714 192.416C110.564 193.06 110.154 194.515 110.799 195.665C111.443 196.814 112.897 197.224 114.047 196.58C115.197 195.935 115.607 194.481 114.962 193.331C114.318 192.182 112.864 191.772 111.714 192.416Z" fill="white"/>
<path d="M87.9274 181.429C86.7776 182.074 86.3679 183.528 87.0122 184.678C87.6565 185.827 89.1109 186.237 90.2607 185.593C91.4105 184.949 91.8202 183.494 91.1759 182.344C90.5316 181.195 89.0772 180.785 87.9274 181.429Z" fill="white"/>
<path d="M81.8361 205.816C80.6863 206.46 80.2766 207.914 80.9209 209.064C81.5652 210.214 83.0196 210.624 84.1694 209.979C85.3191 209.335 85.7289 207.881 85.0846 206.731C84.4403 205.581 82.9859 205.171 81.8361 205.816Z" fill="white"/>
<path d="M132.506 170.126C131.42 170.735 131.033 172.108 131.642 173.194C132.25 174.28 133.624 174.667 134.71 174.058C135.795 173.45 136.182 172.076 135.574 170.99C134.965 169.905 133.592 169.518 132.506 170.126Z" fill="white"/>
<path d="M126.744 206.496C125.658 207.104 125.271 208.478 125.879 209.564C126.488 210.649 127.861 211.036 128.947 210.428C130.033 209.819 130.42 208.446 129.812 207.36C129.203 206.274 127.83 205.887 126.744 206.496Z" fill="white"/>
<path d="M165.809 134.02L176.329 170.493L134.353 171.523L113.112 194.368L96.6739 185.647L88.7052 182.817L83.1324 208.129L60.6445 207.053L40.1512 223.096" stroke="white" stroke-width="0.795481" stroke-linecap="round" stroke-linejoin="round"/>
<path d="M112.211 194.861L99.6176 214.104L78.1719 238.873" stroke="white" stroke-width="0.795481" stroke-miterlimit="10"/>
<path d="M154.034 211.254C153.459 211.577 153.254 212.304 153.576 212.879C153.899 213.454 154.626 213.658 155.201 213.336C155.776 213.014 155.98 212.287 155.658 211.712C155.336 211.137 154.609 210.932 154.034 211.254Z" fill="white"/>
<path d="M88.7498 271.851C88.2388 272.138 88.0566 272.784 88.343 273.295C88.6294 273.806 89.2758 273.988 89.7868 273.702C90.2978 273.415 90.4799 272.769 90.1935 272.258C89.9072 271.747 89.2608 271.565 88.7498 271.851Z" fill="white"/>
<path d="M131.086 218.035C130.511 218.357 130.306 219.085 130.628 219.659C130.95 220.234 131.677 220.439 132.252 220.117C132.827 219.795 133.032 219.068 132.71 218.493C132.388 217.918 131.661 217.713 131.086 218.035Z" fill="white"/>
<path d="M102.114 243.085C101.603 243.372 101.421 244.018 101.707 244.529C101.993 245.04 102.64 245.222 103.151 244.936C103.662 244.65 103.844 244.003 103.557 243.492C103.271 242.981 102.625 242.799 102.114 243.085Z" fill="white"/>
<path d="M143.598 188.835C143.151 189.085 142.992 189.651 143.242 190.098C143.493 190.545 144.058 190.704 144.505 190.454C144.953 190.203 145.112 189.638 144.861 189.191C144.611 188.743 144.045 188.584 143.598 188.835Z" fill="white"/>
<path d="M69.7696 272.153C69.0031 272.583 68.7299 273.552 69.1595 274.319C69.589 275.085 70.5586 275.358 71.3251 274.929C72.0916 274.499 72.3648 273.53 71.9353 272.763C71.5057 271.997 70.5361 271.723 69.7696 272.153Z" fill="white"/>
<path d="M89.2694 245.116C88.7584 245.402 88.5763 246.049 88.8627 246.56C89.149 247.071 89.7954 247.253 90.3064 246.966C90.8174 246.68 90.9995 246.034 90.7132 245.523C90.4268 245.012 89.7804 244.83 89.2694 245.116Z" fill="white"/>
<path d="M184.925 196.679C184.286 197.037 184.058 197.845 184.416 198.484C184.774 199.123 185.582 199.35 186.221 198.993C186.86 198.635 187.087 197.827 186.729 197.188C186.371 196.549 185.563 196.321 184.925 196.679Z" fill="white"/>
<path d="M28.2647 240.396C27.6259 240.754 27.3983 241.562 27.7562 242.2C28.1142 242.839 28.9222 243.067 29.5609 242.709C30.1997 242.351 30.4274 241.543 30.0694 240.904C29.7114 240.265 28.9035 240.038 28.2647 240.396Z" fill="white"/>
<path d="M6.62603 232.157L28.9128 241.552L32.5546 258.357L48.7389 254.151" stroke="white" stroke-width="0.795481" stroke-miterlimit="10"/>
<path d="M127.846 208.462L113.112 194.368" stroke="white" stroke-width="0.795481" stroke-linecap="round" stroke-linejoin="round"/>
</g>
<g clip-path="url(#clip2_49_939)">
<path d="M183.571 519.351C182.498 519.821 182.009 521.072 182.479 522.145C182.949 523.218 184.201 523.707 185.274 523.237C186.347 522.766 186.835 521.515 186.365 520.442C185.895 519.369 184.644 518.881 183.571 519.351Z" fill="white"/>
<path d="M173.925 538.631C173.322 538.895 173.047 539.599 173.311 540.203C173.576 540.806 174.279 541.081 174.883 540.817C175.487 540.552 175.761 539.849 175.497 539.245C175.232 538.641 174.529 538.366 173.925 538.631Z" fill="white"/>
<path d="M157.178 510.65C156.507 510.944 156.202 511.726 156.496 512.397C156.79 513.067 157.572 513.373 158.242 513.079C158.913 512.785 159.218 512.003 158.924 511.333C158.631 510.662 157.849 510.356 157.178 510.65Z" fill="white"/>
<path d="M160.051 489.127C159.313 489.45 158.977 490.31 159.3 491.048C159.624 491.786 160.484 492.122 161.221 491.798C161.959 491.475 162.295 490.615 161.972 489.877C161.649 489.14 160.789 488.804 160.051 489.127Z" fill="white"/>
<path d="M126.759 497.056C126.021 497.379 125.685 498.239 126.008 498.977C126.332 499.714 127.192 500.05 127.929 499.727C128.667 499.404 129.003 498.544 128.68 497.806C128.357 497.068 127.497 496.732 126.759 497.056Z" fill="white"/>
<path d="M69.2902 522.815C68.4854 523.168 68.1189 524.106 68.4715 524.911C68.8241 525.715 69.7624 526.082 70.5672 525.729C71.372 525.377 71.7386 524.438 71.3859 523.634C71.0333 522.829 70.095 522.462 69.2902 522.815Z" fill="white"/>
<path d="M59.0952 564.627C58.3575 564.95 58.0215 565.81 58.3447 566.548C58.668 567.286 59.528 567.622 60.2658 567.299C61.0035 566.975 61.3395 566.115 61.0163 565.378C60.693 564.64 59.8329 564.304 59.0952 564.627Z" fill="white"/>
<path d="M48.8461 591.12C48.3096 591.355 48.0652 591.98 48.3003 592.517C48.5354 593.053 49.1609 593.298 49.6975 593.063C50.234 592.827 50.4784 592.202 50.2433 591.665C50.0082 591.129 49.3827 590.884 48.8461 591.12Z" fill="white"/>
<path d="M31.9941 593.293C31.2564 593.616 30.9204 594.476 31.2436 595.214C31.5669 595.951 32.427 596.287 33.1647 595.964C33.9024 595.641 34.2384 594.781 33.9152 594.043C33.592 593.305 32.7319 592.969 31.9941 593.293Z" fill="white"/>
<path d="M28.3926 615.135C27.722 615.429 27.4165 616.211 27.7104 616.882C28.0042 617.552 28.7861 617.858 29.4568 617.564C30.1275 617.27 30.4329 616.488 30.1391 615.818C29.8452 615.147 29.0633 614.841 28.3926 615.135Z" fill="white"/>
<path d="M8.97613 564.875C8.30547 565.169 8.00001 565.951 8.29386 566.621C8.58772 567.292 9.36962 567.598 10.0403 567.304C10.711 567.01 11.0164 566.228 10.7226 565.557C10.4287 564.887 9.6468 564.581 8.97613 564.875Z" fill="white"/>
<path d="M22.415 541.038C21.6773 541.361 21.3413 542.221 21.6645 542.959C21.9878 543.697 22.8479 544.033 23.5856 543.709C24.3233 543.386 24.6593 542.526 24.3361 541.788C24.0129 541.051 23.1528 540.715 22.415 541.038Z" fill="white"/>
<path d="M102.71 526.41C101.503 526.939 100.953 528.346 101.482 529.554C102.011 530.761 103.418 531.311 104.626 530.782C105.833 530.253 106.383 528.845 105.854 527.638C105.325 526.431 103.917 525.881 102.71 526.41Z" fill="white"/>
<path d="M102.453 554.894C101.245 555.423 100.695 556.83 101.224 558.037C101.753 559.244 103.161 559.794 104.368 559.265C105.575 558.736 106.125 557.329 105.596 556.122C105.067 554.914 103.66 554.365 102.453 554.894Z" fill="white"/>
<path d="M79.0983 577.575C77.8911 578.104 77.3412 579.511 77.8702 580.718C78.3991 581.926 79.8066 582.475 81.0138 581.946C82.221 581.418 82.7708 580.01 82.2418 578.803C81.7129 577.596 80.3055 577.046 79.0983 577.575Z" fill="white"/>
<path d="M64.7473 544.491C63.473 545.05 62.8926 546.535 63.4509 547.809C64.0093 549.084 65.4949 549.664 66.7692 549.106C68.0434 548.547 68.6238 547.062 68.0655 545.788C67.5071 544.513 66.0215 543.933 64.7473 544.491Z" fill="white"/>
<path d="M42.3295 558.077C41.0553 558.636 40.4749 560.121 41.0332 561.395C41.5916 562.67 43.0772 563.25 44.3514 562.692C45.6257 562.133 46.2061 560.648 45.6477 559.374C45.0894 558.099 43.6038 557.519 42.3295 558.077Z" fill="white"/>
<path d="M117.975 536.802C116.768 537.331 116.218 538.738 116.747 539.946C117.276 541.153 118.683 541.703 119.89 541.174C121.097 540.645 121.647 539.237 121.118 538.03C120.589 536.823 119.182 536.273 117.975 536.802Z" fill="white"/>
<path d="M95.3751 523.545C94.1679 524.073 93.6181 525.481 94.147 526.688C94.676 527.895 96.0834 528.445 97.2906 527.916C98.4978 527.387 99.0476 525.98 98.5187 524.773C97.9898 523.565 96.5823 523.016 95.3751 523.545Z" fill="white"/>
<path d="M86.9312 547.22C85.724 547.748 85.1741 549.156 85.7031 550.363C86.232 551.57 87.6394 552.12 88.8466 551.591C90.0538 551.062 90.6037 549.655 90.0747 548.448C89.5458 547.24 88.1384 546.691 86.9312 547.22Z" fill="white"/>
<path d="M140.844 516.649C139.704 517.149 139.185 518.478 139.685 519.618C140.184 520.758 141.513 521.277 142.654 520.778C143.794 520.278 144.313 518.949 143.813 517.809C143.314 516.669 141.985 516.149 140.844 516.649Z" fill="white"/>
<path d="M131.558 552.282C130.418 552.782 129.898 554.111 130.398 555.251C130.897 556.391 132.227 556.91 133.367 556.411C134.507 555.911 135.026 554.582 134.527 553.442C134.027 552.302 132.698 551.782 131.558 552.282Z" fill="white"/>
<path d="M177.514 483.968L184.422 521.294L142.546 518.22L119.175 538.881L103.668 528.596L96.0136 525.002L87.9954 549.648L65.7201 546.381L43.7579 560.346" stroke="white" stroke-width="0.795481" stroke-linecap="round" stroke-linejoin="round"/>
<path d="M118.231 539.283L103.818 557.205L80.0561 579.761" stroke="white" stroke-width="0.795481" stroke-miterlimit="10"/>
<path d="M158.253 559.683C157.649 559.948 157.374 560.651 157.639 561.255C157.903 561.859 158.607 562.134 159.211 561.869C159.814 561.605 160.089 560.901 159.825 560.297C159.56 559.694 158.856 559.419 158.253 559.683Z" fill="white"/>
<path d="M87.3627 613.615C86.8262 613.85 86.5818 614.475 86.8169 615.012C87.052 615.548 87.6775 615.793 88.2141 615.558C88.7506 615.323 88.995 614.697 88.7599 614.161C88.5248 613.624 87.8993 613.38 87.3627 613.615Z" fill="white"/>
<path d="M134.752 564.19C134.148 564.455 133.873 565.159 134.138 565.762C134.402 566.366 135.106 566.641 135.71 566.376C136.313 566.112 136.588 565.408 136.324 564.804C136.059 564.201 135.356 563.926 134.752 564.19Z" fill="white"/>
<path d="M103.472 586.291C102.935 586.527 102.691 587.152 102.926 587.689C103.161 588.225 103.787 588.47 104.323 588.234C104.86 587.999 105.104 587.374 104.869 586.837C104.634 586.301 104.009 586.056 103.472 586.291Z" fill="white"/>
<path d="M150.056 536.352C149.587 536.557 149.373 537.105 149.579 537.574C149.784 538.043 150.332 538.257 150.801 538.052C151.271 537.846 151.484 537.299 151.279 536.829C151.073 536.36 150.526 536.146 150.056 536.352Z" fill="white"/>
<path d="M68.4438 612.061C67.639 612.414 67.2724 613.352 67.625 614.157C67.9777 614.962 68.916 615.328 69.7208 614.976C70.5256 614.623 70.8921 613.685 70.5395 612.88C70.1869 612.075 69.2486 611.709 68.4438 612.061Z" fill="white"/>
<path d="M90.4909 587.058C89.9544 587.293 89.71 587.918 89.9451 588.455C90.1802 588.992 90.8057 589.236 91.3422 589.001C91.8788 588.766 92.1231 588.14 91.8881 587.604C91.653 587.067 91.0275 586.823 90.4909 587.058Z" fill="white"/>
<path d="M190.419 548.195C189.749 548.489 189.443 549.27 189.737 549.941C190.031 550.612 190.813 550.917 191.483 550.623C192.154 550.33 192.46 549.548 192.166 548.877C191.872 548.206 191.09 547.901 190.419 548.195Z" fill="white"/>
<path d="M30.2387 576.402C29.568 576.696 29.2626 577.478 29.5564 578.149C29.8503 578.819 30.6322 579.125 31.3029 578.831C31.9735 578.537 32.279 577.755 31.9851 577.085C31.6913 576.414 30.9094 576.108 30.2387 576.402Z" fill="white"/>
<path d="M9.50816 566.089L30.7708 577.617L32.754 594.697L49.2717 592.091" stroke="white" stroke-width="0.795481" stroke-miterlimit="10"/>
<path d="M132.462 554.346L119.175 538.881" stroke="white" stroke-width="0.795481" stroke-linecap="round" stroke-linejoin="round"/>
</g>
<g clip-path="url(#clip3_49_939)">
<path d="M269.999 464.363C270.317 465.491 271.489 466.147 272.616 465.829C273.744 465.511 274.4 464.339 274.082 463.211C273.764 462.084 272.592 461.428 271.465 461.746C270.337 462.064 269.681 463.236 269.999 464.363Z" fill="white"/>
<path d="M287.769 476.57C287.948 477.204 288.607 477.573 289.241 477.394C289.875 477.215 290.244 476.556 290.066 475.922C289.887 475.288 289.227 474.918 288.593 475.097C287.959 475.276 287.59 475.935 287.769 476.57Z" fill="white"/>
<path d="M257.75 489.308C257.949 490.013 258.681 490.423 259.386 490.224C260.091 490.025 260.501 489.293 260.302 488.588C260.103 487.883 259.371 487.473 258.666 487.672C257.961 487.871 257.551 488.603 257.75 489.308Z" fill="white"/>
<path d="M236.827 483.501C237.045 484.277 237.851 484.728 238.626 484.509C239.401 484.29 239.852 483.485 239.634 482.71C239.415 481.934 238.609 481.483 237.834 481.702C237.059 481.921 236.608 482.726 236.827 483.501Z" fill="white"/>
<path d="M240.1 517.568C240.318 518.343 241.124 518.794 241.899 518.575C242.674 518.357 243.125 517.551 242.907 516.776C242.688 516.001 241.882 515.549 241.107 515.768C240.332 515.987 239.881 516.793 240.1 517.568Z" fill="white"/>
<path d="M257.708 578.034C257.946 578.879 258.825 579.372 259.671 579.133C260.517 578.895 261.009 578.016 260.77 577.17C260.532 576.324 259.653 575.832 258.807 576.071C257.961 576.309 257.469 577.188 257.708 578.034Z" fill="white"/>
<path d="M297.72 593.884C297.938 594.66 298.744 595.111 299.519 594.892C300.294 594.673 300.745 593.868 300.527 593.092C300.308 592.317 299.502 591.866 298.727 592.085C297.952 592.303 297.501 593.109 297.72 593.884Z" fill="white"/>
<path d="M322.55 607.681C322.709 608.244 323.295 608.573 323.859 608.414C324.423 608.255 324.751 607.669 324.592 607.105C324.433 606.541 323.847 606.213 323.283 606.372C322.719 606.531 322.391 607.117 322.55 607.681Z" fill="white"/>
<path d="M322.384 624.671C322.603 625.447 323.408 625.898 324.184 625.679C324.959 625.46 325.41 624.655 325.191 623.879C324.973 623.104 324.167 622.653 323.392 622.872C322.616 623.091 322.165 623.896 322.384 624.671Z" fill="white"/>
<path d="M343.524 631.244C343.722 631.948 344.455 632.359 345.159 632.16C345.864 631.961 346.274 631.229 346.076 630.524C345.877 629.819 345.144 629.409 344.44 629.608C343.735 629.807 343.325 630.539 343.524 631.244Z" fill="white"/>
<path d="M291.07 643.561C291.269 644.266 292.001 644.676 292.706 644.477C293.411 644.278 293.821 643.546 293.622 642.841C293.423 642.136 292.691 641.726 291.986 641.925C291.281 642.124 290.871 642.856 291.07 643.561Z" fill="white"/>
<path d="M269.308 626.97C269.527 627.745 270.333 628.197 271.108 627.978C271.883 627.759 272.334 626.954 272.116 626.178C271.897 625.403 271.091 624.952 270.316 625.171C269.541 625.389 269.09 626.195 269.308 626.97Z" fill="white"/>
<path d="M265.866 545.426C266.224 546.695 267.543 547.433 268.811 547.075C270.08 546.717 270.818 545.399 270.46 544.131C270.102 542.862 268.784 542.124 267.515 542.482C266.247 542.839 265.509 544.158 265.866 545.426Z" fill="white"/>
<path d="M294.044 549.6C294.402 550.869 295.72 551.607 296.988 551.249C298.257 550.891 298.995 549.573 298.637 548.304C298.279 547.036 296.961 546.298 295.693 546.655C294.424 547.013 293.686 548.332 294.044 549.6Z" fill="white"/>
<path d="M313.296 575.853C313.654 577.121 314.972 577.859 316.241 577.502C317.509 577.144 318.248 575.825 317.89 574.557C317.532 573.288 316.214 572.55 314.945 572.908C313.677 573.266 312.938 574.584 313.296 575.853Z" fill="white"/>
<path d="M278.553 585.516C278.931 586.855 280.322 587.634 281.661 587.256C283 586.878 283.779 585.487 283.402 584.148C283.024 582.809 281.632 582.03 280.293 582.407C278.954 582.785 278.175 584.177 278.553 585.516Z" fill="white"/>
<path d="M288.926 609.589C289.303 610.928 290.695 611.708 292.034 611.33C293.373 610.952 294.152 609.561 293.774 608.222C293.397 606.883 292.005 606.103 290.666 606.481C289.327 606.859 288.548 608.251 288.926 609.589Z" fill="white"/>
<path d="M278.26 531.736C278.617 533.005 279.936 533.743 281.204 533.385C282.473 533.028 283.211 531.709 282.853 530.441C282.495 529.172 281.177 528.434 279.909 528.792C278.64 529.15 277.902 530.468 278.26 531.736Z" fill="white"/>
<path d="M262.019 552.297C262.377 553.566 263.695 554.304 264.964 553.946C266.232 553.588 266.97 552.27 266.613 551.002C266.255 549.733 264.936 548.995 263.668 549.353C262.399 549.71 261.661 551.029 262.019 552.297Z" fill="white"/>
<path d="M284.307 563.918C284.665 565.187 285.983 565.925 287.252 565.567C288.52 565.209 289.259 563.891 288.901 562.622C288.543 561.354 287.225 560.616 285.956 560.973C284.688 561.331 283.949 562.65 284.307 563.918Z" fill="white"/>
<path d="M261.445 506.312C261.783 507.51 263.028 508.207 264.226 507.869C265.424 507.531 266.121 506.286 265.783 505.088C265.445 503.89 264.2 503.193 263.002 503.531C261.804 503.869 261.107 505.114 261.445 506.312Z" fill="white"/>
<path d="M295.461 520.412C295.799 521.61 297.044 522.308 298.242 521.97C299.44 521.632 300.137 520.387 299.8 519.189C299.462 517.991 298.216 517.293 297.018 517.631C295.82 517.969 295.123 519.214 295.461 520.412Z" fill="white"/>
<path d="M234.119 465.495L272.04 463.787L263.234 504.843L280.484 530.833L268.163 544.778L263.55 551.865L286.859 563.198L280.558 584.812L291.37 608.487" stroke="white" stroke-width="0.795481" stroke-linecap="round" stroke-linejoin="round"/>
<path d="M280.753 531.824L296.521 548.565L315.593 575.205" stroke="white" stroke-width="0.795481" stroke-miterlimit="10"/>
<path d="M306.465 494.989C306.644 495.624 307.303 495.993 307.937 495.814C308.571 495.635 308.94 494.976 308.761 494.341C308.583 493.707 307.923 493.338 307.289 493.517C306.655 493.696 306.286 494.355 306.465 494.989Z" fill="white"/>
<path d="M350.13 572.625C350.289 573.189 350.875 573.517 351.439 573.358C352.003 573.199 352.331 572.613 352.172 572.049C352.013 571.485 351.427 571.157 350.863 571.316C350.299 571.475 349.971 572.061 350.13 572.625Z" fill="white"/>
<path d="M307.696 518.887C307.875 519.521 308.534 519.89 309.168 519.711C309.802 519.532 310.172 518.873 309.993 518.239C309.814 517.605 309.155 517.236 308.52 517.414C307.886 517.593 307.517 518.253 307.696 518.887Z" fill="white"/>
<path d="M325.283 552.91C325.442 553.474 326.028 553.802 326.592 553.643C327.156 553.484 327.484 552.898 327.325 552.334C327.166 551.77 326.58 551.442 326.016 551.601C325.452 551.76 325.124 552.346 325.283 552.91Z" fill="white"/>
<path d="M282.227 499.898C282.366 500.391 282.879 500.678 283.372 500.539C283.866 500.4 284.153 499.887 284.014 499.394C283.874 498.901 283.362 498.614 282.868 498.753C282.375 498.892 282.088 499.405 282.227 499.898Z" fill="white"/>
<path d="M345.989 591.15C346.227 591.996 347.106 592.488 347.952 592.25C348.798 592.011 349.29 591.132 349.051 590.287C348.813 589.441 347.934 588.949 347.088 589.187C346.243 589.426 345.75 590.305 345.989 591.15Z" fill="white"/>
<path d="M324.256 565.873C324.416 566.437 325.001 566.765 325.565 566.606C326.129 566.447 326.457 565.861 326.298 565.297C326.139 564.733 325.553 564.405 324.989 564.564C324.426 564.723 324.097 565.309 324.256 565.873Z" fill="white"/>
<path d="M299.511 461.548C299.71 462.253 300.442 462.663 301.147 462.464C301.851 462.265 302.262 461.533 302.063 460.828C301.864 460.124 301.132 459.713 300.427 459.912C299.722 460.111 299.312 460.844 299.511 461.548Z" fill="white"/>
<path d="M305.413 624.086C305.612 624.791 306.344 625.201 307.049 625.002C307.754 624.804 308.164 624.071 307.965 623.367C307.766 622.662 307.034 622.252 306.329 622.45C305.624 622.649 305.214 623.382 305.413 624.086Z" fill="white"/>
<path d="M292.346 643.201L306.689 623.726L323.879 624.112L323.571 607.393" stroke="white" stroke-width="0.795481" stroke-miterlimit="10"/>
<path d="M297.63 519.8L280.484 530.833" stroke="white" stroke-width="0.795481" stroke-linecap="round" stroke-linejoin="round"/>
</g>
<defs>
<clipPath id="clip0_49_939">
<rect width="288.68" height="161" fill="white" transform="translate(421.726 58.4772) rotate(98.0253)"/>
</clipPath>
<clipPath id="clip1_49_939">
<rect width="288.68" height="161" fill="white" transform="translate(262.54 213.45) rotate(150.734)"/>
</clipPath>
<clipPath id="clip2_49_939">
<rect width="288.68" height="161" fill="white" transform="translate(266.026 572.466) rotate(156.339)"/>
</clipPath>
<clipPath id="clip3_49_939">
<rect width="288.68" height="161" fill="white" transform="translate(333.953 390) rotate(74.2466)"/>
</clipPath>
</defs>
</svg>
