<svg xmlns="http://www.w3.org/2000/svg" width="132" height="138" viewBox="0 0 132 138" fill="none">
  <path d="M79.4961 115.114C107.245 107.037 123.192 77.9934 115.115 50.2443C107.037 22.4951 77.9941 6.54813 50.245 14.6256C22.4958 22.7031 6.54882 51.7463 14.6263 79.4954C22.7038 107.245 51.747 123.192 79.4961 115.114Z" fill="url(#paint0_linear_47_447)"/>
  <path fill-rule="evenodd" clip-rule="evenodd" d="M64.95 112.496C61.7898 111.68 57.2445 109.672 57.4607 106.999C57.6934 104.125 59.9035 103.998 58.5931 102.106C57.3646 100.333 52.0656 101.65 47.9964 100.058C44.6831 98.7609 41.6408 95.312 42.0322 91.2148C42.4237 87.1172 42.6328 86.4374 41.1593 85.1776C39.686 83.9183 40.1984 81.5936 40.7792 80.1609C41.6362 78.0463 40.5401 75.3774 41.5537 72.398C43.2729 67.344 47.3659 65.243 53.2163 63.5169C58.9461 61.8263 59.4368 60.9016 60.5247 57.7009C61.2344 55.6117 62.6074 52.1386 67.6461 51.8893C72.6847 51.6403 76.7312 52.3523 79.1138 51.5081C82.2693 50.3902 81.746 46.9831 83.3541 46.7953C84.9621 46.6078 86.7304 49.0897 85.5216 52.8583C84.5132 56.001 80.8376 55.4494 80.1046 58.5735C79.2699 62.1327 84.8118 62.5696 83.2924 66.5627C82.2146 69.3943 78.1845 70.3751 75.7481 71.1276C71.5216 72.433 69.4591 77.7944 73.1954 79.0261C77.9465 80.592 85.4349 80.3708 91.5904 83.7522C97.7454 87.1334 98.8034 93.3477 96.8843 98.4053C95.2477 102.72 91.1682 104.92 87.7413 105.952C84.0722 107.057 81.7883 106.148 79.5642 107.532C77.007 109.123 76.7514 111.606 73.9858 112.763C72.0638 113.567 69.1195 113.574 64.95 112.496Z" fill="#434955"/>
  <path fill-rule="evenodd" clip-rule="evenodd" d="M19.0435 48.5715C23.5219 43.6386 33.896 42.6708 34.2828 38.7018C34.4482 37.0069 31.2648 35.5804 30.2787 34.8452C26.9539 32.3665 28.8219 30.1237 32.8542 28.7032C39.3246 26.4236 47.3667 26.1982 53.6832 22.7634C57.5926 20.6375 57.6975 16.18 60.4791 15.8455C63.5512 15.4762 62.9499 19.2429 65.6974 19.3487C68.4447 19.4541 70.6477 16.3919 72.9615 17.1518C75.4532 17.9698 82.3455 22.591 86.7899 20.5361C87.7709 20.0824 88.0319 18.7231 87.1125 17.5059C75.9848 12.2752 62.9792 10.9188 50.2445 14.6257C28.1302 21.0629 13.5116 40.8155 12.5749 62.6168C12.8628 59.1618 14.3956 53.691 19.0435 48.5715Z" fill="#434955"/>
  <path fill-rule="evenodd" clip-rule="evenodd" d="M17.1184 47.8967C21.5964 42.9639 29.7522 40.8128 29.8695 37.681C29.92 36.3416 28.7436 35.5104 27.7576 34.7756C24.4328 32.2969 28.3293 29.032 32.1718 27.1476C38.331 24.1267 46.7285 21.6174 50.5982 19.0923C53.3307 17.309 57.5352 13.5721 60.3168 13.2376C63.3889 12.8682 63.6536 16.6455 66.401 16.7509C69.1488 16.8566 70.1166 14.1076 72.4304 14.8674C74.9221 15.6855 80.7121 20.5146 85.1565 18.4593C86.1374 18.0056 86.0423 17.0135 85.5008 16.7813C74.7389 12.1564 62.3688 11.0964 50.2445 14.6257C28.1302 21.0629 13.5116 40.8155 12.5749 62.6168C12.8628 59.1618 12.4701 53.0163 17.1184 47.8967Z" fill="url(#paint1_linear_47_447)"/>
  <path fill-rule="evenodd" clip-rule="evenodd" d="M90.9923 24.4374C88.2092 26.5442 84.1872 26.727 82.557 24.7316C80.9264 22.7364 78.4945 20.8511 75.89 21.9794C74.2486 22.6914 73.8883 23.9871 73.852 24.8781C73.789 26.4378 74.4919 27.644 70.3263 28.7444C65.7678 29.9492 63.2507 30.1047 59.9806 33.524C57.1033 36.5328 57.6968 39.8003 58.9209 41.0384C60.6423 42.7809 63.5919 42.5191 66.3976 40.1381C69.2033 37.7571 70.862 33.6625 73.981 32.2502C76.396 31.1565 79.3077 31.4558 78.639 34.3931C78.2323 36.1787 78.0517 37.4664 79.1096 38.4137C80.4935 39.6534 84.8615 37.8097 88.4071 35.7073C91.9528 33.6052 96.6504 31.7848 98.6917 33.9897C100.734 36.1948 100.918 42.7686 103.462 45.5682C106.006 48.3676 109.284 48.0312 110.955 47.833C112.119 47.6947 113.376 47.5309 114.502 48.2961C110.449 36.1343 102.309 26.3921 92.0677 20.1655C92.5563 21.5395 92.6183 23.2066 90.9923 24.4374Z" fill="#434955"/>
  <path fill-rule="evenodd" clip-rule="evenodd" d="M91.9141 25.5895C89.7502 27.7013 85.0421 28.7656 82.635 26.7672C80.5855 25.0658 78.6553 23.6192 76.3113 25.22C74.526 26.4394 75.3115 28.3661 71.2601 29.8316C67.7592 31.0974 66.5625 30.6636 63.2599 33.6008C59.6434 36.8173 62.3915 41.2218 65.197 38.8413C68.0027 36.4603 71.6507 31.7038 74.7694 30.2915C77.1842 29.1984 81.0826 29.2105 80.4138 32.1477C80.0075 33.9332 80.3753 34.7727 81.3799 35.3243C82.5065 35.9429 84.9706 34.6497 88.5161 32.5473C92.0617 30.4449 98.2457 28.3424 101.08 31.5502C104.041 34.9023 101.761 40.7614 104.25 43.6097C107.09 46.8583 112.595 43.3257 111.807 41.7231C107.326 32.6077 100.391 25.2256 92.0679 20.165C93.4628 21.6809 93.3736 24.165 91.9141 25.5895Z" fill="url(#paint2_linear_47_447)"/>
  <path fill-rule="evenodd" clip-rule="evenodd" d="M43.1748 108.562C41.7341 107.006 39.8719 105.524 39.7364 102.689C39.5426 98.6293 45.0607 94.6762 42.3934 86.6439C39.7256 78.6113 31.2088 78.9084 25.8657 75.4006C22.2673 73.0383 19.5781 66.8113 16.988 67.5293C14.7857 68.1394 13.8519 72.0686 13.5892 75.2946C13.8774 76.7085 14.2231 78.11 14.6256 79.4956C19.1944 95.1912 30.4721 107.109 44.4278 113.041C45.1947 111.7 44.2497 109.724 43.1752 108.562L43.1748 108.562Z" fill="#434955"/>
  <path fill-rule="evenodd" clip-rule="evenodd" d="M40.4892 108.881C38.721 107.709 36.4565 106.518 36.321 103.683C36.1272 99.6235 41.645 95.6704 38.9777 87.6381C36.3103 79.6054 30.7995 81.7445 25.456 78.2368C21.8577 75.8745 19.1683 69.6472 16.5782 70.3652C14.3764 70.9756 13.8156 76.3617 13.941 76.8958C14.1468 77.7681 14.375 78.635 14.6254 79.4956C18.9359 94.3036 29.2178 105.749 42.0866 111.978C42.9532 111.405 41.7517 109.718 40.4892 108.881Z" fill="url(#paint3_linear_47_447)"/>
  <defs>
    <linearGradient id="paint0_linear_47_447" x1="1900.04" y1="1072.52" x2="11074" y2="6109.68" gradientUnits="userSpaceOnUse">
      <stop stop-color="#808080"/>
      <stop offset="1" stop-color="#B5A8AE"/>
    </linearGradient>
    <linearGradient id="paint1_linear_47_447" x1="4983.86" y1="2281.09" x2="3990.27" y2="-1132.27" gradientUnits="userSpaceOnUse">
      <stop stop-color="#434955"/>
      <stop offset="1" stop-color="#DCDCDC"/>
    </linearGradient>
    <linearGradient id="paint2_linear_47_447" x1="918.143" y1="-491.505" x2="3426.19" y2="2961.09" gradientUnits="userSpaceOnUse">
      <stop stop-color="#444444"/>
      <stop offset="1" stop-color="#D9D9D9"/>
    </linearGradient>
    <linearGradient id="paint3_linear_47_447" x1="670.317" y1="2331.96" x2="2697.88" y2="1741.76" gradientUnits="userSpaceOnUse">
      <stop stop-color="#444444"/>
      <stop offset="1" stop-color="white"/>
    </linearGradient>
  </defs>
</svg>