<svg xmlns="http://www.w3.org/2000/svg" width="162" height="147" viewBox="0 0 162 147" fill="none">
  <path d="M38.5844 41.3628C33.7312 43.3459 28.7791 45.5564 25.3703 49.2695C24.2331 50.5081 23.2546 52.0121 23.3535 53.6223C23.5378 56.6249 27.3287 58.4134 30.6386 58.4189C33.9485 58.4243 37.1685 57.2973 40.4784 57.3055C42.1865 57.3096 44.3247 58.0609 44.3022 59.6139C44.2887 60.5422 43.4676 61.2731 42.7064 61.8911C36.8643 66.6346 31.0222 71.378 25.1785 76.1215C23.2322 77.7017 21.2244 79.3582 20.2115 81.5442C19.1986 83.7301 19.4908 86.6102 21.587 88.0258C22.967 88.9581 24.7995 89.0806 26.5196 89.1079C34.3306 89.2344 42.1011 88.1428 49.7832 86.8566C76.9471 82.3105 103.606 75.2871 129.234 65.9295C133.927 64.2159 138.964 62.1102 141.199 57.9888C143.779 53.2249 141.026 46.7147 135.598 44.7465C132.354 43.5692 128.707 43.9054 125.272 43.3282C121.838 42.7511 118.155 40.6128 118.119 37.4414C118.062 32.1944 127.409 30.2031 127.677 24.9614C127.82 22.1861 125.043 19.8409 122.057 19.2379C119.071 18.635 115.969 19.3618 113.05 20.1948C113.05 20.1921 60.1129 32.5673 38.5844 41.3628Z" fill="#FAF3F3"/>
  <path d="M30.5351 95.8018C32.9969 93.8431 35.8124 91.7661 39.0803 91.8995C41.7938 92.0097 44.1598 93.6689 45.8469 95.6044C47.5341 97.5386 48.7283 99.7898 50.3465 101.773C52.0517 103.861 54.515 105.742 57.3768 105.723C60.3811 105.703 62.8339 103.643 64.9601 101.714L79.0387 88.9459C81.6384 86.5884 84.7924 84.0459 88.438 84.4528C92.0775 84.8598 94.4584 88.0149 96.3523 90.8678C99.2337 95.2083 102.114 99.5503 104.995 103.891C105.569 104.757 106.183 105.658 107.148 106.161C109.7 107.494 112.704 105.376 114.722 103.429C116.801 101.425 118.939 99.3897 121.621 98.1034C124.301 96.8172 127.668 96.3871 130.347 97.6774C132.055 98.4995 133.307 99.9151 134.508 101.291C139.149 106.608 143.791 111.924 148.431 117.241H7.39136C7.39136 117.239 22.82 101.939 30.5351 95.8018Z" fill="#D0BFFF"/>
  <path d="M33.5439 95.9461C35.4858 94.4039 37.6105 92.7516 40.1997 92.2398C42.8308 91.7198 45.3106 92.7788 47.194 94.4053C50.7961 97.5168 52.0997 102.424 56.4569 104.884C58.3494 105.953 60.5654 106.229 62.6572 105.478C64.7893 104.713 66.481 103.206 68.0767 101.761C72.3156 97.9197 76.553 94.0746 80.7904 90.2308C84.0508 87.2731 88.6119 82.8073 93.6389 85.3771C95.6647 86.4129 97.0986 88.2082 98.3228 89.9545C99.8406 92.1214 101.257 94.3509 102.716 96.5504C104.259 98.8765 105.803 101.201 107.346 103.527C108.446 105.184 109.706 106.986 112.133 106.76C114.286 106.559 116.138 105.078 117.577 103.722C119.42 101.985 121.219 100.189 123.47 98.8738C125.695 97.5726 128.426 96.7723 131.083 97.2242C133.761 97.6801 135.512 99.5027 137.126 101.347C140.869 105.625 144.601 109.911 148.34 114.193C149.267 115.256 150.196 116.319 151.124 117.384C151.176 117.268 151.23 117.151 151.283 117.035H12.366C11.7652 117.035 11.0744 116.948 10.4781 117.035C10.4046 117.046 10.3192 117.035 10.2443 117.035C10.2968 117.151 10.3507 117.268 10.4031 117.384C16.013 111.821 21.7278 106.329 27.6314 101.022C29.5553 99.289 31.5046 97.5712 33.5439 95.9461C33.7612 95.7719 33.4435 95.4847 33.2263 95.6575C29.3065 98.7813 25.655 102.194 22.0275 105.591C18.6606 108.745 15.3388 111.94 12.0484 115.161C11.3921 115.803 10.7343 116.447 10.0825 117.095C9.95364 117.223 10.0405 117.443 10.2413 117.443H145.544C147.375 117.443 149.215 117.49 151.046 117.443C151.124 117.442 151.202 117.443 151.28 117.443C151.491 117.443 151.554 117.227 151.438 117.095C147.603 112.7 143.765 108.305 139.929 103.91C138.281 102.022 136.727 99.8484 134.651 98.3185C132.811 96.9628 130.521 96.4892 128.193 96.7832C125.779 97.0881 123.614 98.1497 121.726 99.5136C119.66 101.007 118.044 102.908 116.059 104.472C114.089 106.025 111.161 107.373 109.086 105.184C108.142 104.188 107.472 102.931 106.727 101.81C105.93 100.608 105.133 99.4074 104.336 98.2055L99.6293 91.1128C98.4696 89.3651 97.2649 87.5821 95.5972 86.1896C94.1019 84.9415 92.2124 84.1071 90.1432 84.2147C87.8911 84.3317 85.8983 85.4574 84.2007 86.7273C82.043 88.3416 80.1356 90.2485 78.1593 92.0397C75.9881 94.0092 73.817 95.9787 71.6444 97.9469C69.6665 99.7409 67.7576 101.65 65.6254 103.293C63.5966 104.857 61.0809 106.029 58.3823 105.255C53.1935 103.766 51.5722 98.1579 48.2504 94.8068C46.737 93.2797 44.7472 91.9893 42.4517 91.7348C40.0918 91.4721 37.8712 92.4113 35.9907 93.624C35.0228 94.2474 34.1193 94.947 33.2263 95.6562C33.0075 95.8318 33.3266 96.1189 33.5439 95.9461Z" fill="#D0BFFF"/>
  <path d="M139.824 54.3287C136.898 51.8134 133.347 51.1083 128.954 51.2948C128.235 51.3261 127.43 51.435 127.015 51.8869C126.601 52.3388 127.048 53.1636 127.751 53.037C122.79 50.9055 116.875 50.1038 111.26 50.8021C110.639 50.8797 109.964 51.0022 109.592 51.3901C109.222 51.7794 109.468 52.4899 110.097 52.4953C105.483 50.7572 97.163 54.1137 97.9961 54.4036L139.824 54.3287ZM119.623 78.3714C116.919 76.0466 113.636 75.3947 109.577 75.5675C108.912 75.5961 108.168 75.6968 107.785 76.1147C107.403 76.5325 107.816 77.2948 108.464 77.1777C103.879 75.2068 98.4126 74.4664 93.2223 75.1115C92.6484 75.1823 92.0236 75.2967 91.682 75.656C91.3388 76.0153 91.5666 76.6727 92.1479 76.6782C87.8836 75.0707 80.1955 78.174 80.9656 78.4422L119.623 78.3714Z" fill="#FFDCDC"/>
  <path d="M38.1679 72.6847L8.08374 73.2564L21.8582 75.8221L14.4098 80.7561L38.5875 75.622L38.1679 72.6847Z" fill="#FF5555"/>
  <path d="M39.2377 76.6632L6.59131 94.1168L24.6166 81.8082L7.33749 81.4693L39.2377 74.1874V76.6632Z" fill="#FF5555"/>
  <path d="M13.7639 87.45L18.701 83.4633L1.42334 82.4357L13.2469 76.6673L1.87435 71.819H15.7207L7.84384 63.8593L8.10605 63.9355C8.40722 64.0226 38.1917 72.618 39.2376 72.618H39.4279L29.9432 80.6295L13.7639 87.45ZM1.95526 82.3309L19.0696 83.349L14.6269 86.9369L29.8713 80.5097L39.0743 72.7323C36.596 72.2886 11.3815 65.0216 8.32481 64.1396L16.0579 71.9538H2.54562L13.5796 76.6578L1.95526 82.3309Z" fill="#FF5555"/>
  <path d="M36.7325 71.8231L17.2897 64.7807L21.3878 69.5664L3.0957 67.3682L38.5875 75.0163L36.7325 71.8231Z" fill="#FF5555"/>
  <path d="M68.5562 50.1365C68.5562 50.1365 66.1153 57.9847 75.0006 59.045C74.5571 59.8848 74.4672 60.2265 74.4672 60.2265C74.4672 60.2265 65.4156 58.2596 65.8651 53.2467C67.4593 50.0821 68.5562 50.1365 68.5562 50.1365Z" fill="#5121D6"/>
  <path d="M49.3322 64.5997L40.2446 60.6702L29.9119 71.8857L38.5874 70.1639L49.3322 64.5997ZM52.8848 79.3691L46.4284 86.3843L31.8897 80.1041L40.5637 78.3823L52.8848 79.3691Z" fill="#602AF4"/>
  <path d="M41.7445 77.1069L38.0974 77.4989L36.7324 71.8231L40.2446 70.8771L41.7445 77.1069Z" fill="#2F0E8C"/>
  <path d="M99.2877 62.4219C99.2877 62.4219 89.9694 71.5645 77.9105 76.3992C77.6858 76.489 77.461 76.5775 77.2348 76.6632C77.01 76.7517 76.7822 76.8361 76.556 76.9191C74.5497 77.6555 72.4744 78.2625 70.3618 78.6818C60.1609 80.7071 47.9672 80.1286 40.5952 78.5143L38.5874 70.1639C44.5464 65.9009 55.3316 60.6266 65.5325 58.6026C67.6452 58.1834 69.8089 57.9493 71.971 57.8595C72.2167 57.8486 72.4625 57.8404 72.7067 57.8336C72.9524 57.8268 73.1967 57.8214 73.4424 57.8186C86.622 57.6431 99.2877 62.4219 99.2877 62.4219Z" fill="#D0BFFF"/>
  <path d="M99.2877 62.4219C99.2877 62.4219 89.9694 71.5645 77.9105 76.3992C77.6858 76.489 77.461 76.5775 77.2348 76.6632C74.31 74.2132 72.3531 71.197 71.5665 67.9235C70.7798 64.6514 71.1739 61.1683 72.7082 57.8336C72.9539 57.8268 73.1982 57.8214 73.4439 57.8186C86.622 57.6431 99.2877 62.4219 99.2877 62.4219Z" fill="#602AF4"/>
  <path d="M73.4423 57.8186C73.1966 57.8214 72.9524 57.8268 72.7066 57.8336C72.4624 57.8404 72.2167 57.8486 71.9709 57.8595C71.2772 59.4275 70.8232 61.024 70.6194 62.6152C70.3857 64.4486 70.4831 66.2779 70.9101 68.0528C71.3371 69.8277 72.0878 71.5291 73.1427 73.1053C74.0582 74.4745 75.2044 75.7554 76.5544 76.9177C76.7807 76.8347 77.0085 76.749 77.2332 76.6619C77.4595 76.5747 77.6842 76.4876 77.909 76.3978C75.0321 74.0567 73.0258 71.1439 72.2197 67.7929C71.415 64.4418 71.902 61.0363 73.4423 57.8186Z" fill="#2F0E8C"/>
  <path d="M76.3132 58.5972C80.1895 58.7578 93.2942 61.1153 96.3074 62.2981C93.7048 62.117 77.7202 59.4792 76.7927 60.5926C76.3462 59.4424 76.3132 58.5972 76.3132 58.5972Z" fill="#D0BFFF"/>
  <path d="M51.3731 73.0835L35.1652 76.3012L30.9009 75.9949L34.6363 74.1016L50.8441 70.8853L51.3731 73.0835Z" fill="#602AF4"/>
  <path d="M67.3337 73.029L69.7401 75.8221L66.3882 74.0172V74.4256L65.5791 73.9315L66.3403 72.6847L67.3337 73.029Z" fill="#E599F7"/>
  <path d="M69.6755 65.7975C69.8957 65.547 69.7429 65.1741 69.3968 65.1142C66.439 64.5983 59.8042 63.0562 58.8018 62.0585C57.684 60.9465 59.2274 59.4969 60.3451 58.7238L63.8858 60.0917L73.0153 63.9845C73.0748 64.0099 73.1277 64.0463 73.1707 64.0914C73.2137 64.1365 73.2458 64.1892 73.265 64.2463C73.2842 64.3034 73.29 64.3634 73.2821 64.4226C73.2742 64.4819 73.2528 64.5389 73.2191 64.5902L67.6032 73.2577C67.6032 73.2577 66.5918 73.1611 65.9011 73.0155C65.9011 73.0155 68.5247 66.8387 69.6755 65.7975Z" fill="#500B60"/>
  <path d="M70.8787 59.7269H73.3809L72.6123 59.9406L73.3809 60.5313L72.5538 61.284L70.8787 60.3979V59.7269Z" fill="#FCB1B1"/>
  <path d="M68.6657 49.8902L67.7696 54.5942L63.8859 60.0903L59.7444 59.0913L63.6267 48.8993L67.9974 48.0404L68.6657 49.8902Z" fill="#602AF4"/>
  <path d="M69.9647 48.6624L68.5562 50.1365L67.9973 48.0404L68.6656 47.662L69.9647 48.6624Z" fill="#FCB1B1"/>
  <path d="M68.387 44.036C67.7472 44.2701 67.4266 45.7592 67.5255 46.0736C67.6244 46.388 68.5683 47.662 68.5683 47.662L70.2525 44.2974L68.387 44.036Z" fill="#2F0E8C"/>
  <path d="M70.8712 45.0555C70.8712 45.0555 72.1328 49.4002 71.2023 49.2028C70.2718 49.0041 68.9113 48.8421 68.739 48.4229C68.5667 48.0037 68.1576 45.242 68.5487 44.8159C68.9398 44.3899 70.7993 44.786 70.7993 44.786L70.8712 45.0555Z" fill="#FFCACA"/>
  <path d="M68.2626 45.1889C68.0378 45.0147 67.9419 44.7139 68.0288 44.4566C68.1517 44.0959 68.5757 43.8877 68.9848 43.8223C69.3938 43.757 69.8149 43.7978 70.2269 43.7434C70.6375 43.6889 71.069 43.5052 71.2248 43.1568C71.4466 43.3364 71.571 43.6114 71.553 43.8809C71.6908 43.7679 71.8302 43.6549 71.968 43.5419C71.7687 44.0932 71.5365 44.6853 71.0031 45.0038C70.4831 45.3128 69.8119 45.2801 69.1931 45.2365C69.1916 45.2352 68.4873 45.3631 68.2626 45.1889Z" fill="#2F0E8C"/>
  <path d="M69.1422 45.1059L68.2732 46.3254L68.1877 44.8091L69.1422 45.1059Z" fill="#2F0E8C"/>
  <path d="M68.537 47.1428C68.6986 47.0985 68.7752 46.8986 68.7079 46.6964C68.6407 46.4942 68.4552 46.3662 68.2936 46.4105C68.132 46.4549 68.0555 46.6547 68.1227 46.857C68.1899 47.0592 68.3754 47.1872 68.537 47.1428Z" fill="#FFCACA"/>
  <path d="M63.6266 48.8993C63.6266 48.8993 57.4054 59.7269 71.1229 60.6811C71.054 60.074 71.054 59.6058 71.054 59.6058C71.054 59.6058 63.9563 58.7469 65.0336 53.1432C65.149 52.5457 65.3632 51.9686 65.6284 51.4119C66.8361 48.8707 63.6266 48.8993 63.6266 48.8993Z" fill="#7645FF"/>
  <path d="M129.622 77.0062C129.122 77.062 128.602 77.1206 128.223 77.1655C125.257 73.6756 122.748 67.0701 121.472 59.663C121.94 59.6112 122.406 59.5581 122.873 59.5064C124.148 66.9109 126.657 73.515 129.622 77.0062Z" fill="#FAF3F3"/>
  <path d="M129.622 77.0062L129.717 77.1165C129.249 77.1682 128.783 77.2213 128.316 77.273C128.284 77.2376 128.254 77.2009 128.223 77.1655C128.602 77.1206 129.122 77.062 129.622 77.0062Z" fill="#FAF3F3"/>
  <path d="M129.716 77.1165C130.317 77.8093 130.938 78.3728 131.568 78.7893L130.167 78.9458C129.537 78.5293 128.916 77.9658 128.315 77.273C128.783 77.2213 129.249 77.1682 129.716 77.1165Z" fill="#FAF3F3"/>
  <path d="M123.693 51.4187C123.891 61.5059 127.379 71.8789 131.484 74.5889L130.084 74.7454C125.978 72.0355 122.49 61.6624 122.292 51.5752C122.243 49.0531 122.403 46.7882 122.737 44.8513C123.205 44.7996 123.671 44.7465 124.138 44.6948C123.805 46.6317 123.644 48.8966 123.693 51.4187Z" fill="#FF5555"/>
  <path d="M127.464 63.2386C128.497 66.3093 129.887 68.7034 131.39 69.6957L129.989 69.8522C128.486 68.86 127.096 66.4658 126.063 63.3951C126.531 63.3434 126.997 63.2903 127.464 63.2386Z" fill="#FAF3F3"/>
  <path d="M129.895 63.4986C130.331 64.2254 130.806 64.7821 131.3 65.1074L129.899 65.2639C129.406 64.9386 128.93 64.3819 128.494 63.6551C128.96 63.6034 129.427 63.5516 129.895 63.4986Z" fill="#FF5555"/>
  <path d="M129.547 56.0778C129.734 58.0024 130.419 59.8072 131.206 60.3272L129.805 60.4837C129.018 59.9638 128.333 58.1589 128.146 56.2343C128.612 56.1812 129.08 56.1295 129.547 56.0778ZM125.684 52.7322C125.756 56.4235 126.432 60.1679 127.464 63.2386C126.997 63.2903 126.531 63.3434 126.063 63.3951C125.031 60.3258 124.357 56.5814 124.283 52.8887C124.165 46.8985 125.669 42.8873 127.845 42.6436L129.246 42.4871C127.07 42.7321 125.567 46.7433 125.684 52.7322Z" fill="#FAF3F3"/>
  <path d="M121.983 50.2903C122.045 53.391 122.358 56.5133 122.873 59.5064C122.406 59.5581 121.94 59.6112 121.472 59.6629C120.957 56.6712 120.644 53.5475 120.582 50.4469C120.385 40.3828 122.911 33.6426 126.567 33.2343L127.968 33.0777C124.312 33.4861 121.786 40.2263 121.983 50.2903Z" fill="#FAF3F3"/>
  <path d="M127.551 53.9654C127.623 57.6036 128.585 61.3194 129.893 63.4999C129.426 63.5517 128.96 63.6047 128.492 63.6565C127.183 61.476 126.221 57.7601 126.15 54.1219C126.072 50.1869 127.06 47.5518 128.489 47.3925L129.89 47.236C128.462 47.3953 127.475 50.0304 127.551 53.9654ZM128.558 37.4238C126.502 37.6538 124.886 40.3474 124.138 44.6948C123.671 44.7465 123.205 44.7996 122.737 44.8513C123.485 40.504 125.101 37.8103 127.157 37.5803C127.578 37.534 128.139 37.4714 128.558 37.4238Z" fill="#FF5555"/>
  <path d="M129.498 55.2489C129.504 55.5252 129.52 55.8015 129.547 56.0764C129.08 56.1282 128.614 56.1812 128.146 56.233C128.119 55.9577 128.103 55.6817 128.097 55.4054C128.061 53.6128 128.512 52.4123 129.164 52.3402L130.565 52.1837C129.913 52.2558 129.462 53.4577 129.498 55.2489Z" fill="#FAF3F3"/>
  <path d="M131.299 65.1074C131.672 65.3538 132.028 65.4504 132.361 65.4136L130.96 65.5702C130.627 65.6069 130.271 65.5103 129.898 65.2639C130.319 65.2176 130.89 65.0121 131.299 65.1074Z" fill="#FF5555"/>
  <path d="M131.206 60.3258C131.375 60.4374 131.539 60.4823 131.69 60.4646L130.289 60.6212C130.138 60.6375 129.974 60.5939 129.805 60.4823C130.224 60.4361 130.795 60.2292 131.206 60.3258ZM131.39 69.6957C131.958 70.07 132.5 70.2184 133.007 70.1612L131.606 70.3177C131.1 70.3749 130.557 70.2265 129.989 69.8522C130.409 69.806 130.969 69.742 131.39 69.6957Z" fill="#FAF3F3"/>
  <path d="M131.486 74.5889C132.261 75.1007 133.003 75.3021 133.695 75.2245L132.294 75.3811C131.602 75.4587 130.86 75.2572 130.085 74.7454C130.505 74.6992 131.076 74.4923 131.486 74.5889Z" fill="#FF5555"/>
  <path d="M131.568 78.7893C132.521 79.4181 133.434 79.6672 134.285 79.5719L132.884 79.7284C132.033 79.8237 131.12 79.5746 130.167 78.9458C130.587 78.8995 131.147 78.8356 131.568 78.7893Z" fill="#FAF3F3"/>
  <path d="M129.164 52.3402L130.565 52.1836C130.716 52.1673 130.879 52.2109 131.049 52.3225L129.648 52.479C129.477 52.3674 129.315 52.3238 129.164 52.3402Z" fill="#FF5555"/>
  <path d="M128.491 47.3925L129.892 47.236C130.224 47.1993 130.581 47.2959 130.954 47.5423L129.553 47.6988C129.18 47.4524 128.823 47.3544 128.491 47.3925Z" fill="#FAF3F3"/>
  <path d="M127.845 42.645L129.246 42.4884C129.752 42.4313 130.296 42.5796 130.864 42.9539L129.463 43.1105C128.895 42.7348 128.351 42.5878 127.845 42.645ZM131.69 60.4646L130.289 60.6212C130.939 60.5477 131.39 59.3485 131.354 57.5546C131.311 55.3455 130.547 53.0711 129.648 52.479L131.048 52.3225C131.947 52.9159 132.712 55.189 132.755 57.3981C132.79 59.192 132.34 60.3925 131.69 60.4646Z" fill="#FF5555"/>
  <path d="M127.157 37.5803L128.558 37.4238C129.25 37.3462 129.992 37.5476 130.768 38.0594L129.367 38.2159C128.591 37.7055 127.849 37.5027 127.157 37.5803Z" fill="#FAF3F3"/>
  <path d="M126.567 33.2343L127.968 33.0777C128.819 32.9825 129.731 33.2302 130.686 33.8604L129.285 34.0169C128.33 33.3867 127.418 33.139 126.567 33.2343Z" fill="#FF5555"/>
  <path d="M132.361 65.4136L130.96 65.5702C132.39 65.4096 133.377 62.7744 133.299 58.8408C133.203 53.9898 131.525 49.0014 129.552 47.6988L130.953 47.5423C132.926 48.8448 134.604 53.8333 134.7 58.6843C134.778 62.6179 133.791 65.253 132.361 65.4136Z" fill="#FAF3F3"/>
  <path d="M133.007 70.1612L131.606 70.3177C133.782 70.0741 135.285 66.0615 135.168 60.0726C135.022 52.6873 132.468 45.0936 129.463 43.1105L130.864 42.9539C133.869 44.9371 136.423 52.5321 136.569 59.9161C136.686 65.905 135.183 69.9176 133.007 70.1612Z" fill="#FF5555"/>
  <path d="M133.695 75.2245L132.294 75.3811C135.265 75.0476 137.318 69.5678 137.157 61.3861C136.96 51.2989 133.471 40.9259 129.366 38.2159L130.767 38.0594C134.872 40.768 138.361 51.1424 138.558 61.2296C138.72 69.4112 136.668 74.8924 133.695 75.2245Z" fill="#FAF3F3"/>
  <path d="M134.286 79.5719L132.885 79.7284C136.54 79.3188 139.066 72.5785 138.868 62.5158C138.624 50.1093 134.333 37.3503 129.285 34.0169L130.686 33.8604C135.735 37.1924 140.025 49.9528 140.269 62.3593C140.467 72.422 137.941 79.1622 134.286 79.5719Z" fill="#FF5555"/>
  <path d="M129.285 34.0169C134.335 37.3489 138.624 50.1093 138.869 62.5158C139.113 74.9237 135.217 82.2792 130.168 78.9472C125.118 75.6152 120.827 62.8561 120.583 50.4482C120.34 38.0403 124.236 30.6835 129.285 34.0169ZM130.085 74.7454C134.191 77.454 137.357 71.4747 137.159 61.3861C136.961 51.2989 133.473 40.9259 129.367 38.2159C125.262 35.5059 122.096 41.488 122.294 51.5752C122.491 61.6638 125.98 72.0368 130.085 74.7454Z" fill="#FF5555"/>
  <path d="M129.553 47.6988C131.527 49.0014 133.205 53.9898 133.301 58.8408C133.397 63.6918 131.873 66.5679 129.899 65.2653C127.925 63.9627 126.248 58.9742 126.152 54.1232C126.056 49.2709 127.58 46.3948 129.553 47.6988ZM129.805 60.4823C130.704 61.0758 131.398 59.7664 131.354 57.5559C131.311 55.3469 130.547 53.0724 129.648 52.4804C128.749 51.8869 128.053 53.1977 128.097 55.4068C128.14 57.6172 128.904 59.8889 129.805 60.4823Z" fill="#FAF3F3"/>
  <path d="M137.159 61.3875C137.014 53.9803 135.093 46.418 132.459 41.8501C132.403 41.7535 132.346 41.6568 132.289 41.5629C132.006 41.0906 131.714 40.6537 131.416 40.2535C131.356 40.1732 131.296 40.0956 131.236 40.018C130.635 39.2504 130.009 38.6406 129.367 38.2173C128.597 37.7096 127.862 37.5068 127.174 37.5803C126.772 37.6225 126.389 37.7586 126.023 37.9832C125.918 38.0471 125.816 38.1179 125.716 38.1969C125.616 38.2745 125.515 38.3602 125.418 38.4528C125.126 38.7291 124.85 39.0666 124.591 39.4627C124.504 39.5947 124.42 39.7336 124.339 39.8778C124.254 40.0268 124.174 40.178 124.099 40.3311C124.021 40.489 123.945 40.6523 123.871 40.8211C122.878 43.1091 122.289 46.4983 122.285 50.6442C122.285 50.9518 122.288 51.2622 122.294 51.578C122.372 55.5184 122.95 59.5023 123.873 63.0562L123.985 63.4809C124.289 64.6065 124.627 65.6872 124.995 66.7053C125.409 67.8514 125.858 68.9185 126.339 69.8863C126.446 70.1013 126.554 70.3109 126.663 70.5165C127.703 72.4642 128.867 73.9437 130.087 74.7481C130.278 74.8747 130.469 74.9836 130.658 75.0721C130.783 75.132 130.908 75.1823 131.031 75.2259C131.153 75.2695 131.276 75.3035 131.396 75.3307C131.578 75.3715 131.756 75.3933 131.933 75.3988C132.05 75.4015 132.166 75.3974 132.28 75.3851C135.145 75.0816 137.16 69.9992 137.168 62.3226C137.168 62.0136 137.165 61.7019 137.159 61.3875ZM129.989 69.8522C126.984 67.8691 124.429 60.2741 124.285 52.8901C124.14 45.5047 126.459 41.1273 129.465 43.1105C132.469 45.0936 135.024 52.6886 135.169 60.0726C135.313 67.458 132.993 71.8354 129.989 69.8522Z" fill="#FAF3F3"/>
  <path d="M134.869 83.8635L133.468 84.02C137.799 83.5341 140.791 75.5498 140.556 63.6279C140.267 48.9306 135.184 33.8141 129.203 29.8669L130.604 29.7103C136.585 33.6576 141.669 48.7741 141.957 63.4713C142.192 75.3933 139.2 83.379 134.869 83.8635Z" fill="#DBDBDB"/>
  <path d="M140.557 63.6292C140.268 48.932 135.186 33.8155 129.204 29.8682C123.223 25.9196 118.608 34.6348 118.895 49.3335C119.185 64.0321 124.267 79.1473 130.25 83.0945C136.23 87.0417 140.845 78.3279 140.557 63.6292ZM138.734 67.4335C138.692 67.9603 138.641 68.4734 138.582 68.9716C138.509 69.5983 138.418 70.2233 138.31 70.8458C138.262 71.1222 138.211 71.393 138.157 71.6584C138.128 71.8013 138.098 71.9415 138.068 72.0817C138.013 72.3349 137.955 72.5813 137.895 72.8235C137.881 72.8793 137.866 72.9352 137.853 72.991C137.802 73.1897 137.749 73.3843 137.694 73.5749C137.677 73.6348 137.659 73.6933 137.641 73.7532C137.474 74.318 137.292 74.8475 137.094 75.3402C137.066 75.411 137.038 75.4791 137.009 75.5485C136.87 75.8847 136.723 76.2018 136.569 76.5013C136.42 76.7885 136.267 77.0593 136.109 77.3111C135.929 77.5956 135.741 77.8583 135.548 78.0951C135.445 78.2217 135.338 78.3415 135.229 78.4545C135.216 78.4694 135.201 78.4844 135.187 78.498C135.023 78.6676 134.846 78.8268 134.658 78.9744C134.534 79.071 134.408 79.1582 134.279 79.2371C134.15 79.316 134.021 79.3855 133.888 79.4467C133.756 79.508 133.621 79.5597 133.486 79.6019C133.364 79.6413 133.239 79.6713 133.113 79.6944L133.041 79.7067C132.919 79.7271 132.794 79.7407 132.668 79.7462C132.662 79.7462 132.656 79.7475 132.65 79.7475C131.867 79.7775 131.034 79.5202 130.166 78.9485C127.07 76.9055 124.261 71.3209 122.493 64.4459C122.422 64.175 122.355 63.9015 122.289 63.6265C122.186 63.1964 122.085 62.7622 121.989 62.3239C121.846 61.6651 121.712 60.9968 121.588 60.3217C121.543 60.0767 121.499 59.829 121.458 59.5826C121.113 57.5641 120.86 55.4871 120.714 53.3978L120.71 53.3243C120.644 52.366 120.6 51.4065 120.582 50.4482C120.338 38.0417 124.234 30.6849 129.283 34.0183C129.749 34.3259 130.209 34.7151 130.66 35.1752C130.758 35.2746 130.855 35.378 130.951 35.4842C135.245 40.2127 138.651 51.5031 138.867 62.5158C138.903 64.2594 138.855 65.905 138.734 67.4335Z" fill="#FAF3F3"/>
  <path d="M131.07 55.2924C131.043 55.1767 131.014 55.061 130.984 54.9494C130.968 54.8882 130.95 54.8269 130.933 54.767C130.899 54.6483 130.862 54.5303 130.822 54.4131C130.803 54.356 130.783 54.2988 130.764 54.243C130.724 54.1314 130.682 54.0239 130.638 53.9191C130.356 53.2399 130.013 52.7226 129.648 52.4804C129.535 52.4055 129.426 52.3619 129.321 52.3456C128.744 52.2544 128.295 53.003 128.148 54.2661C128.142 54.3233 128.134 54.3818 128.13 54.4417C128.119 54.5601 128.11 54.684 128.104 54.8106C128.095 55.0011 128.094 55.1999 128.097 55.4081C128.116 56.3759 128.272 57.3545 128.519 58.1998C128.554 58.3209 128.591 58.438 128.63 58.5536C128.708 58.7837 128.792 59.0001 128.881 59.2015C128.97 59.403 129.065 59.5881 129.165 59.7528C129.191 59.7936 129.215 59.8345 129.24 59.8739C129.342 60.0291 129.447 60.1652 129.556 60.2768C129.637 60.3612 129.721 60.4306 129.805 60.4864C130.142 60.7083 130.451 60.6634 130.703 60.4034C130.744 60.3598 130.785 60.3108 130.824 60.2564C130.92 60.1189 131.007 59.9461 131.08 59.7405C131.11 59.6589 131.137 59.5718 131.161 59.4792C131.198 59.3417 131.231 59.192 131.258 59.0328C131.323 58.6612 131.357 58.2351 131.357 57.7642C131.357 57.6975 131.357 57.6281 131.356 57.56C131.339 56.7842 131.236 56.0056 131.07 55.2924Z" fill="#FF5555"/>
  <path d="M125.983 28.9413L127.384 28.7848C128.392 28.6718 129.474 28.9658 130.604 29.7117L129.203 29.8682C128.073 29.1223 126.991 28.8283 125.983 28.9413Z" fill="#DBDBDB"/>
  <path d="M129.463 43.1105C132.468 45.0936 135.022 52.6886 135.168 60.0726C135.313 67.458 132.993 71.8354 129.989 69.8522C126.983 67.8691 124.429 60.2741 124.285 52.8901C124.138 45.5047 126.458 41.1273 129.463 43.1105ZM129.899 65.2653C131.873 66.5679 133.396 63.6918 133.301 58.8408C133.205 53.9898 131.527 49.0014 129.553 47.6988C127.578 46.3962 126.056 49.2709 126.15 54.1232C126.246 58.9729 127.924 63.9613 129.899 65.2653Z" fill="#FF5555"/>
  <path d="M80.7604 35.3971C76.7823 31.9793 71.9561 31.0197 65.9851 31.2743C65.0066 31.3164 63.9128 31.4648 63.3509 32.0787C62.7875 32.6925 63.3959 33.8141 64.3503 33.6412C57.6077 30.7434 49.569 29.6545 41.9363 30.6032C41.0927 30.708 40.1742 30.8741 39.6708 31.4036C39.1673 31.9317 39.5014 32.8981 40.3555 32.9062C34.0833 30.542 22.7752 35.1031 23.9079 35.4978L80.7604 35.3971Z" fill="#FFDCDC"/>
</svg>