<svg width="269" height="261" viewBox="0 0 269 261" fill="none" xmlns="http://www.w3.org/2000/svg">
<path d="M43.1367 200.139C32.6342 192.599 27.3212 178.22 32.9375 166.561C37.3544 157.385 47.1992 146.755 64.653 137.238C110.826 112.064 98.0828 104.578 105.395 83.0892C111.823 64.183 119.641 41.0493 162.167 32.8521C194.415 26.6375 199.95 57.4975 224.94 56.8589C241.008 56.4426 259.853 107.888 208.695 139.363C157.537 170.838 157.994 191.28 142.009 213.446C125.933 235.744 61.907 247.747 62.4514 226.051C62.769 213.278 49.7378 204.881 43.1367 200.139Z" fill="#D0BFFF" fill-opacity="0.27"/>
<path d="M56.5517 200.895C57.5543 199.987 57.6308 198.438 56.7227 197.436C55.8146 196.433 54.2657 196.357 53.2631 197.265C52.2606 198.173 52.1841 199.722 53.0922 200.724C54.0003 201.727 55.5492 201.803 56.5517 200.895Z" fill="white"/>
<path d="M60.0454 176.25C60.6093 175.739 60.6524 174.868 60.1415 174.304C59.6307 173.74 58.7595 173.697 58.1955 174.208C57.6316 174.718 57.5885 175.59 58.0994 176.154C58.6102 176.718 59.4814 176.761 60.0454 176.25Z" fill="white"/>
<path d="M88.6382 200.747C89.2648 200.179 89.3126 199.211 88.745 198.585C88.1774 197.958 87.2094 197.91 86.5828 198.478C85.9562 199.045 85.9084 200.013 86.4759 200.64C87.0435 201.267 88.0116 201.314 88.6382 200.747Z" fill="white"/>
<path d="M93.3822 225.366C94.0715 224.741 94.1241 223.676 93.4997 222.987C92.8754 222.298 91.8105 222.245 91.1213 222.87C90.432 223.494 90.3794 224.559 91.0037 225.248C91.6281 225.937 92.693 225.99 93.3822 225.366Z" fill="white"/>
<path d="M126.927 204.481C127.616 203.857 127.669 202.792 127.044 202.103C126.42 201.414 125.355 201.361 124.666 201.985C123.977 202.61 123.924 203.675 124.548 204.364C125.173 205.053 126.238 205.106 126.927 204.481Z" fill="white"/>
<path d="M180.407 155.212C181.158 154.531 181.216 153.369 180.535 152.618C179.854 151.866 178.692 151.808 177.94 152.489C177.188 153.17 177.131 154.332 177.812 155.084C178.493 155.836 179.655 155.893 180.407 155.212Z" fill="white"/>
<path d="M176.243 105.696C176.932 105.071 176.985 104.006 176.36 103.317C175.736 102.628 174.671 102.575 173.982 103.2C173.293 103.824 173.24 104.889 173.864 105.578C174.489 106.267 175.553 106.32 176.243 105.696Z" fill="white"/>
<path d="M177.753 72.9325C178.255 72.4785 178.293 71.704 177.839 71.2028C177.385 70.7015 176.61 70.6632 176.109 71.1173C175.608 71.5713 175.569 72.3458 176.023 72.8471C176.478 73.3483 177.252 73.3866 177.753 72.9325Z" fill="white"/>
<path d="M195.408 64.3763C196.097 63.752 196.15 62.6871 195.525 61.9979C194.901 61.3086 193.836 61.256 193.147 61.8803C192.458 62.5047 192.405 63.5695 193.029 64.2588C193.654 64.948 194.719 65.0007 195.408 64.3763Z" fill="white"/>
<path d="M191.345 39.1407C191.971 38.5732 192.019 37.6051 191.451 36.9785C190.884 36.3519 189.916 36.3041 189.289 36.8717C188.663 37.4392 188.615 38.4073 189.182 39.0339C189.75 39.6605 190.718 39.7083 191.345 39.1407Z" fill="white"/>
<path d="M231.027 87.053C231.653 86.4854 231.701 85.5173 231.133 84.8907C230.566 84.2642 229.598 84.2163 228.971 84.7839C228.345 85.3515 228.297 86.3195 228.864 86.9461C229.432 87.5727 230.4 87.6206 231.027 87.053Z" fill="white"/>
<path d="M225.05 118.078C225.739 117.454 225.792 116.389 225.168 115.7C224.543 115.01 223.478 114.958 222.789 115.582C222.1 116.206 222.047 117.271 222.672 117.961C223.296 118.65 224.361 118.702 225.05 118.078Z" fill="white"/>
<path d="M142.498 163.526C143.626 162.505 143.712 160.762 142.69 159.634C141.669 158.506 139.926 158.42 138.798 159.442C137.67 160.464 137.584 162.206 138.606 163.334C139.627 164.462 141.37 164.548 142.498 163.526Z" fill="white"/>
<path d="M132.339 132.245C133.467 131.224 133.553 129.481 132.532 128.353C131.51 127.226 129.767 127.139 128.64 128.161C127.512 129.183 127.426 130.925 128.447 132.053C129.469 133.181 131.211 133.267 132.339 132.245Z" fill="white"/>
<path d="M149.595 98.8516C150.723 97.83 150.809 96.0875 149.788 94.9596C148.766 93.8317 147.023 93.7456 145.896 94.7673C144.768 95.7889 144.682 97.5314 145.703 98.6593C146.725 99.7871 148.467 99.8733 149.595 98.8516Z" fill="white"/>
<path d="M177.435 129.814C178.626 128.736 178.717 126.896 177.638 125.706C176.56 124.515 174.72 124.424 173.53 125.503C172.339 126.581 172.248 128.42 173.327 129.611C174.405 130.801 176.245 130.892 177.435 129.814Z" fill="white"/>
<path d="M197 106.721C198.19 105.643 198.281 103.804 197.203 102.613C196.125 101.423 194.285 101.332 193.095 102.41C191.904 103.489 191.813 105.328 192.892 106.518C193.97 107.709 195.809 107.8 197 106.721Z" fill="white"/>
<path d="M121.975 157.744C123.103 156.722 123.189 154.979 122.168 153.852C121.146 152.724 119.404 152.638 118.276 153.659C117.148 154.681 117.062 156.423 118.083 157.551C119.105 158.679 120.848 158.765 121.975 157.744Z" fill="white"/>
<path d="M151.579 163.975C152.707 162.953 152.793 161.211 151.772 160.083C150.75 158.955 149.007 158.869 147.88 159.891C146.752 160.912 146.666 162.655 147.687 163.783C148.709 164.911 150.451 164.997 151.579 163.975Z" fill="white"/>
<path d="M152.146 134.958C153.274 133.937 153.36 132.194 152.338 131.066C151.317 129.939 149.574 129.852 148.446 130.874C147.318 131.896 147.232 133.638 148.254 134.766C149.276 135.894 151.018 135.98 152.146 134.958Z" fill="white"/>
<path d="M104.323 188.192C105.388 187.227 105.469 185.581 104.505 184.516C103.54 183.451 101.894 183.369 100.829 184.334C99.7635 185.299 99.6822 186.945 100.647 188.01C101.612 189.075 103.258 189.157 104.323 188.192Z" fill="white"/>
<path d="M101.429 145.774C102.495 144.809 102.576 143.163 101.611 142.098C100.646 141.033 99.0005 140.951 97.9353 141.916C96.8701 142.881 96.7888 144.527 97.7537 145.592C98.7185 146.657 100.364 146.739 101.429 145.774Z" fill="white"/>
<path d="M76.1533 237.415L54.9074 199.08L101.884 187.096L119.899 155.907L140.648 161.484L150.346 162.614L150.091 132.689L175.677 128.101L194.604 104.761" stroke="white" stroke-width="0.918476" stroke-linecap="round" stroke-linejoin="round"/>
<path d="M120.785 155.121L129.996 130.216L147.745 96.8095" stroke="white" stroke-width="0.918476" stroke-miterlimit="10"/>
<path d="M69.4882 147.455C70.0522 146.944 70.0952 146.073 69.5844 145.509C69.0736 144.945 68.2023 144.902 67.6384 145.413C67.0745 145.924 67.0314 146.795 67.5422 147.359C68.053 147.923 68.9243 147.966 69.4882 147.455Z" fill="white"/>
<path d="M127.336 62.4213C127.838 61.9672 127.876 61.1927 127.422 60.6915C126.968 60.1902 126.193 60.1519 125.692 60.606C125.191 61.0601 125.152 61.8345 125.606 62.3358C126.061 62.8371 126.835 62.8753 127.336 62.4213Z" fill="white"/>
<path d="M93.567 133.906C94.1309 133.395 94.174 132.524 93.6631 131.96C93.1523 131.396 92.2811 131.353 91.7171 131.864C91.1532 132.375 91.1101 133.246 91.621 133.81C92.1318 134.374 93.003 134.417 93.567 133.906Z" fill="white"/>
<path d="M119.714 98.242C120.215 97.788 120.253 97.0135 119.799 96.5122C119.345 96.011 118.571 95.9727 118.069 96.4268C117.568 96.8808 117.53 97.6553 117.984 98.1565C118.438 98.6578 119.213 98.6961 119.714 98.242Z" fill="white"/>
<path d="M87.0149 169.996C87.4535 169.599 87.487 168.921 87.0897 168.483C86.6924 168.044 86.0148 168.011 85.5762 168.408C85.1375 168.805 85.1041 169.483 85.5014 169.921C85.8987 170.36 86.5763 170.394 87.0149 169.996Z" fill="white"/>
<path d="M148.62 57.1873C149.372 56.5062 149.429 55.3445 148.748 54.5926C148.067 53.8407 146.905 53.7833 146.153 54.4644C145.401 55.1455 145.344 56.3072 146.025 57.0591C146.706 57.811 147.868 57.8684 148.62 57.1873Z" fill="white"/>
<path d="M133.646 92.6447C134.147 92.1906 134.185 91.4162 133.731 90.9149C133.277 90.4136 132.503 90.3754 132.001 90.8294C131.5 91.2835 131.462 92.0579 131.916 92.5592C132.37 93.0605 133.144 93.0987 133.646 92.6447Z" fill="white"/>
<path d="M38.4808 171.824C39.1074 171.257 39.1552 170.289 38.5877 169.662C38.0201 169.036 37.052 168.988 36.4254 169.555C35.7988 170.123 35.751 171.091 36.3186 171.718C36.8862 172.344 37.8542 172.392 38.4808 171.824Z" fill="white"/>
<path d="M203.521 82.2257C204.148 81.6581 204.195 80.6901 203.628 80.0635C203.06 79.4369 202.092 79.389 201.466 79.9566C200.839 80.5242 200.791 81.4923 201.359 82.1189C201.926 82.7454 202.894 82.7933 203.521 82.2257Z" fill="white"/>
<path d="M229.999 85.9184L202.493 81.0912L194.061 63.1176L176.931 72.0249" stroke="white" stroke-width="0.918476" stroke-miterlimit="10"/>
<path d="M99.6821 143.845L119.898 155.907" stroke="white" stroke-width="0.918476" stroke-linecap="round" stroke-linejoin="round"/>
</svg>
