<svg width="346" height="335" viewBox="0 0 346 335" fill="none" xmlns="http://www.w3.org/2000/svg">
<g clip-path="url(#clip0_49_734)">
<path d="M87.1367 229.139C76.6342 221.599 71.3212 207.22 76.9375 195.561C81.3544 186.385 91.1992 175.755 108.653 166.238C154.826 141.064 142.083 133.578 149.395 112.089C155.823 93.183 163.641 70.0493 206.167 61.8521C238.415 55.6375 243.95 86.4975 268.94 85.8589C285.008 85.4426 303.853 136.888 252.695 168.363C201.537 199.838 201.994 220.28 186.009 242.446C169.933 264.744 105.907 276.747 106.451 255.051C106.769 242.278 93.7378 233.881 87.1367 229.139Z" fill="#D0BFFF" fill-opacity="0.27"/>
<path d="M100.552 229.895C101.554 228.987 101.631 227.438 100.723 226.436C99.8146 225.433 98.2657 225.357 97.2631 226.265C96.2606 227.173 96.1841 228.722 97.0922 229.724C98.0003 230.727 99.5492 230.803 100.552 229.895Z" fill="white"/>
<path d="M104.045 205.25C104.609 204.739 104.652 203.868 104.142 203.304C103.631 202.74 102.759 202.697 102.196 203.208C101.632 203.718 101.589 204.59 102.099 205.154C102.61 205.718 103.481 205.761 104.045 205.25Z" fill="white"/>
<path d="M132.638 229.747C133.265 229.179 133.313 228.211 132.745 227.585C132.177 226.958 131.209 226.91 130.583 227.478C129.956 228.045 129.908 229.013 130.476 229.64C131.044 230.267 132.012 230.314 132.638 229.747Z" fill="white"/>
<path d="M137.382 254.366C138.071 253.741 138.124 252.676 137.5 251.987C136.875 251.298 135.811 251.245 135.121 251.87C134.432 252.494 134.379 253.559 135.004 254.248C135.628 254.937 136.693 254.99 137.382 254.366Z" fill="white"/>
<path d="M170.927 233.481C171.616 232.857 171.669 231.792 171.044 231.103C170.42 230.414 169.355 230.361 168.666 230.985C167.977 231.61 167.924 232.675 168.548 233.364C169.173 234.053 170.238 234.106 170.927 233.481Z" fill="white"/>
<path d="M224.407 184.212C225.158 183.531 225.216 182.369 224.535 181.618C223.854 180.866 222.692 180.808 221.94 181.489C221.188 182.17 221.131 183.332 221.812 184.084C222.493 184.836 223.655 184.893 224.407 184.212Z" fill="white"/>
<path d="M220.243 134.696C220.932 134.071 220.985 133.006 220.36 132.317C219.736 131.628 218.671 131.575 217.982 132.2C217.293 132.824 217.24 133.889 217.864 134.578C218.489 135.267 219.553 135.32 220.243 134.696Z" fill="white"/>
<path d="M221.753 101.933C222.255 101.478 222.293 100.704 221.839 100.203C221.385 99.7015 220.61 99.6632 220.109 100.117C219.608 100.571 219.569 101.346 220.023 101.847C220.478 102.348 221.252 102.387 221.753 101.933Z" fill="white"/>
<path d="M239.408 93.3763C240.097 92.752 240.15 91.6871 239.525 90.9979C238.901 90.3086 237.836 90.256 237.147 90.8803C236.458 91.5047 236.405 92.5695 237.029 93.2588C237.654 93.948 238.719 94.0007 239.408 93.3763Z" fill="white"/>
<path d="M235.345 68.1407C235.971 67.5732 236.019 66.6051 235.451 65.9785C234.884 65.3519 233.916 65.3041 233.289 65.8717C232.663 66.4392 232.615 67.4073 233.182 68.0339C233.75 68.6605 234.718 68.7083 235.345 68.1407Z" fill="white"/>
<path d="M275.027 116.053C275.653 115.485 275.701 114.517 275.133 113.891C274.566 113.264 273.598 113.216 272.971 113.784C272.345 114.351 272.297 115.32 272.864 115.946C273.432 116.573 274.4 116.621 275.027 116.053Z" fill="white"/>
<path d="M269.05 147.078C269.739 146.454 269.792 145.389 269.168 144.7C268.543 144.01 267.478 143.958 266.789 144.582C266.1 145.206 266.047 146.271 266.672 146.961C267.296 147.65 268.361 147.702 269.05 147.078Z" fill="white"/>
<path d="M186.498 192.526C187.626 191.505 187.712 189.762 186.69 188.634C185.669 187.506 183.926 187.42 182.798 188.442C181.67 189.464 181.584 191.206 182.606 192.334C183.627 193.462 185.37 193.548 186.498 192.526Z" fill="white"/>
<path d="M176.339 161.245C177.467 160.224 177.553 158.481 176.532 157.353C175.51 156.226 173.767 156.139 172.64 157.161C171.512 158.183 171.426 159.925 172.447 161.053C173.469 162.181 175.211 162.267 176.339 161.245Z" fill="white"/>
<path d="M193.595 127.852C194.723 126.83 194.809 125.087 193.788 123.96C192.766 122.832 191.023 122.746 189.896 123.767C188.768 124.789 188.682 126.531 189.703 127.659C190.725 128.787 192.467 128.873 193.595 127.852Z" fill="white"/>
<path d="M221.435 158.814C222.626 157.736 222.717 155.896 221.638 154.706C220.56 153.515 218.72 153.424 217.53 154.503C216.339 155.581 216.248 157.42 217.327 158.611C218.405 159.801 220.245 159.892 221.435 158.814Z" fill="white"/>
<path d="M241 135.721C242.19 134.643 242.281 132.804 241.203 131.613C240.125 130.423 238.285 130.332 237.095 131.41C235.904 132.489 235.813 134.328 236.892 135.518C237.97 136.709 239.809 136.8 241 135.721Z" fill="white"/>
<path d="M165.975 186.744C167.103 185.722 167.189 183.979 166.168 182.852C165.146 181.724 163.404 181.638 162.276 182.659C161.148 183.681 161.062 185.423 162.083 186.551C163.105 187.679 164.848 187.765 165.975 186.744Z" fill="white"/>
<path d="M195.579 192.975C196.707 191.953 196.793 190.211 195.772 189.083C194.75 187.955 193.007 187.869 191.88 188.891C190.752 189.912 190.666 191.655 191.687 192.783C192.709 193.911 194.451 193.997 195.579 192.975Z" fill="white"/>
<path d="M196.146 163.958C197.274 162.937 197.36 161.194 196.338 160.066C195.317 158.939 193.574 158.852 192.446 159.874C191.318 160.896 191.232 162.638 192.254 163.766C193.276 164.894 195.018 164.98 196.146 163.958Z" fill="white"/>
<path d="M148.323 217.192C149.388 216.227 149.469 214.581 148.505 213.516C147.54 212.451 145.894 212.369 144.829 213.334C143.764 214.299 143.682 215.945 144.647 217.01C145.612 218.075 147.258 218.157 148.323 217.192Z" fill="white"/>
<path d="M145.429 174.774C146.495 173.809 146.576 172.163 145.611 171.098C144.646 170.033 143.001 169.951 141.935 170.916C140.87 171.881 140.789 173.527 141.754 174.592C142.719 175.657 144.364 175.739 145.429 174.774Z" fill="white"/>
<path d="M120.153 266.415L98.9074 228.08L145.884 216.096L163.899 184.907L184.648 190.484L194.346 191.614L194.091 161.689L219.677 157.101L238.604 133.761" stroke="white" stroke-width="0.918476" stroke-linecap="round" stroke-linejoin="round"/>
<path d="M164.785 184.121L173.996 159.216L191.745 125.81" stroke="white" stroke-width="0.918476" stroke-miterlimit="10"/>
<path d="M113.488 176.455C114.052 175.944 114.095 175.073 113.584 174.509C113.074 173.945 112.202 173.902 111.638 174.413C111.074 174.924 111.031 175.795 111.542 176.359C112.053 176.923 112.924 176.966 113.488 176.455Z" fill="white"/>
<path d="M171.336 91.4213C171.838 90.9672 171.876 90.1927 171.422 89.6915C170.968 89.1902 170.193 89.1519 169.692 89.606C169.191 90.0601 169.152 90.8345 169.606 91.3358C170.061 91.8371 170.835 91.8753 171.336 91.4213Z" fill="white"/>
<path d="M137.567 162.906C138.131 162.395 138.174 161.524 137.663 160.96C137.152 160.396 136.281 160.353 135.717 160.864C135.153 161.375 135.11 162.246 135.621 162.81C136.132 163.374 137.003 163.417 137.567 162.906Z" fill="white"/>
<path d="M163.714 127.242C164.215 126.788 164.253 126.014 163.799 125.512C163.345 125.011 162.571 124.973 162.069 125.427C161.568 125.881 161.53 126.655 161.984 127.157C162.438 127.658 163.213 127.696 163.714 127.242Z" fill="white"/>
<path d="M131.015 198.996C131.454 198.599 131.487 197.921 131.09 197.483C130.692 197.044 130.015 197.011 129.576 197.408C129.138 197.805 129.104 198.483 129.501 198.921C129.899 199.36 130.576 199.394 131.015 198.996Z" fill="white"/>
<path d="M192.62 86.1873C193.372 85.5062 193.429 84.3445 192.748 83.5926C192.067 82.8407 190.905 82.7833 190.153 83.4644C189.401 84.1455 189.344 85.3072 190.025 86.0591C190.706 86.811 191.868 86.8684 192.62 86.1873Z" fill="white"/>
<path d="M177.646 121.645C178.147 121.191 178.185 120.416 177.731 119.915C177.277 119.414 176.503 119.375 176.001 119.829C175.5 120.283 175.462 121.058 175.916 121.559C176.37 122.06 177.144 122.099 177.646 121.645Z" fill="white"/>
<path d="M82.4808 200.824C83.1074 200.257 83.1552 199.289 82.5877 198.662C82.0201 198.036 81.052 197.988 80.4254 198.555C79.7988 199.123 79.751 200.091 80.3186 200.718C80.8862 201.344 81.8542 201.392 82.4808 200.824Z" fill="white"/>
<path d="M247.521 111.226C248.148 110.658 248.195 109.69 247.628 109.063C247.06 108.437 246.092 108.389 245.466 108.957C244.839 109.524 244.791 110.492 245.359 111.119C245.926 111.745 246.894 111.793 247.521 111.226Z" fill="white"/>
<path d="M273.999 114.918L246.493 110.091L238.061 92.1176L220.931 101.025" stroke="white" stroke-width="0.918476" stroke-miterlimit="10"/>
<path d="M143.682 172.845L163.898 184.907" stroke="white" stroke-width="0.918476" stroke-linecap="round" stroke-linejoin="round"/>
<rect x="109.925" y="241.589" width="11.775" height="4.26097" rx="2.13049" transform="rotate(-91.004 109.925 241.589)" fill="#70369D" stroke="#70369D" stroke-width="1.06978"/>
<rect x="115.602" y="259.916" width="11.775" height="4.26097" rx="2.13049" transform="rotate(-106.688 115.602 259.916)" fill="#70369D" stroke="#70369D" stroke-width="1.06978"/>
<rect x="108.721" y="222.963" width="11.775" height="4.26097" rx="2.13049" transform="rotate(-73.6524 108.721 222.963)" fill="#70369D" stroke="#70369D" stroke-width="1.06978"/>
<rect x="116.833" y="205.597" width="11.775" height="4.26097" rx="2.13049" transform="rotate(-60.8419 116.833 205.597)" fill="#70369D" stroke="#70369D" stroke-width="1.06978"/>
<rect x="130.478" y="190.679" width="11.775" height="4.26097" rx="2.13049" transform="rotate(-18.6933 130.478 190.679)" fill="#70369D" stroke="#70369D" stroke-width="1.06978"/>
<rect x="196.639" y="155.386" width="11.775" height="4.26097" rx="2.13049" transform="rotate(-36.6764 196.639 155.386)" fill="#808080"/>
<rect x="196.639" y="155.386" width="11.775" height="4.26097" rx="2.13049" transform="rotate(-36.6764 196.639 155.386)" fill="#808080"/>
<rect x="196.639" y="155.386" width="11.775" height="4.26097" rx="2.13049" transform="rotate(-36.6764 196.639 155.386)" stroke="#808080" stroke-width="1.06978"/>
<rect x="208.775" y="145.32" width="11.775" height="4.26097" rx="2.13049" transform="rotate(-53.8347 208.775 145.32)" fill="#808080"/>
<rect x="208.775" y="145.32" width="11.775" height="4.26097" rx="2.13049" transform="rotate(-53.8347 208.775 145.32)" fill="#808080"/>
<rect x="208.775" y="145.32" width="11.775" height="4.26097" rx="2.13049" transform="rotate(-53.8347 208.775 145.32)" stroke="#808080" stroke-width="1.06978"/>
<rect x="218.211" y="131.689" width="11.775" height="4.26097" rx="2.13049" transform="rotate(-66.575 218.211 131.689)" fill="#808080"/>
<rect x="218.211" y="131.689" width="11.775" height="4.26097" rx="2.13049" transform="rotate(-66.575 218.211 131.689)" fill="#808080"/>
<rect x="218.211" y="131.689" width="11.775" height="4.26097" rx="2.13049" transform="rotate(-66.575 218.211 131.689)" stroke="#808080" stroke-width="1.06978"/>
<rect x="224.622" y="118.123" width="11.775" height="4.26097" rx="2.13049" transform="rotate(-78.9796 224.622 118.123)" fill="#808080"/>
<rect x="224.622" y="118.123" width="11.775" height="4.26097" rx="2.13049" transform="rotate(-78.9796 224.622 118.123)" fill="#808080"/>
<rect x="224.622" y="118.123" width="11.775" height="4.26097" rx="2.13049" transform="rotate(-78.9796 224.622 118.123)" stroke="#808080" stroke-width="1.06978"/>
<rect x="227.439" y="101.497" width="11.775" height="4.26097" rx="2.13049" transform="rotate(-78.9796 227.439 101.497)" fill="#808080"/>
<rect x="227.439" y="101.497" width="11.775" height="4.26097" rx="2.13049" transform="rotate(-78.9796 227.439 101.497)" fill="#808080"/>
<rect x="227.439" y="101.497" width="11.775" height="4.26097" rx="2.13049" transform="rotate(-78.9796 227.439 101.497)" stroke="#808080" stroke-width="1.06978"/>
<rect x="231.16" y="83.4837" width="11.775" height="4.26097" rx="2.13049" transform="rotate(-64.0025 231.16 83.4837)" fill="#808080"/>
<rect x="231.16" y="83.4837" width="11.775" height="4.26097" rx="2.13049" transform="rotate(-64.0025 231.16 83.4837)" fill="#808080"/>
<rect x="231.16" y="83.4837" width="11.775" height="4.26097" rx="2.13049" transform="rotate(-64.0025 231.16 83.4837)" stroke="#808080" stroke-width="1.06978"/>
</g>
<defs>
<clipPath id="clip0_49_734">
<rect width="308.824" height="172.234" fill="white" transform="translate(0.875977 207.327) rotate(-42.1709)"/>
</clipPath>
</defs>
</svg>
