<svg width="375" height="271" viewBox="0 0 375 271" fill="none" xmlns="http://www.w3.org/2000/svg">
<g clip-path="url(#clip0_60_1347)">
<path d="M-1.84149 145.99C-1.84149 145.99 -80.0487 51.024 7.46889 26.817C94.9865 2.60996 125.711 101.3 185.297 104.093C244.884 106.886 314.712 66.8516 333.332 66.8516C351.953 66.8516 385.471 68.7137 383.608 101.3C381.746 133.886 357.539 163.68 356.608 179.507C355.677 195.335 378.022 238.163 381.746 248.404C385.471 258.646 390.126 287.508 369.643 289.37C359.159 290.301 299.349 301.939 218.349 278.197C157.054 260.233 61.1153 291.232 38.7471 291.232C31.5032 291.25 24.4335 289.011 18.5203 284.826C2.08749 273.137 -24.0607 243.777 -0.910454 183.231C11.1931 151.576 -1.84149 145.99 -1.84149 145.99Z" fill="#E5D2EF" fill-opacity="0.5"/>
<path d="M307.69 60.483C320.802 60.483 331.431 49.8535 331.431 36.7415C331.431 23.6294 320.802 13 307.69 13C294.578 13 283.948 23.6294 283.948 36.7415C283.948 49.8535 294.578 60.483 307.69 60.483Z" fill="#D0BFFF"/>
<path d="M278.828 56.7588C287.569 56.7588 294.655 49.6725 294.655 40.9311C294.655 32.1898 287.569 25.1035 278.828 25.1035C270.086 25.1035 263 32.1898 263 40.9311C263 49.6725 270.086 56.7588 278.828 56.7588Z" fill="#D0BFFF"/>
<path d="M332.828 56.7588C341.312 56.7588 348.19 49.8809 348.19 41.3967C348.19 32.9124 341.312 26.0345 332.828 26.0345C324.343 26.0345 317.466 32.9124 317.466 41.3967C317.466 49.8809 324.343 56.7588 332.828 56.7588Z" fill="#D0BFFF"/>
<path d="M238.155 222.483C251.267 222.483 261.897 211.854 261.897 198.741C261.897 185.629 251.267 175 238.155 175C225.043 175 214.414 185.629 214.414 198.741C214.414 211.854 225.043 222.483 238.155 222.483Z" fill="#D0BFFF"/>
<path d="M208.828 216.897C217.569 216.897 224.655 209.81 224.655 201.069C224.655 192.328 217.569 185.241 208.828 185.241C200.086 185.241 193 192.328 193 201.069C193 209.81 200.086 216.897 208.828 216.897Z" fill="#D0BFFF"/>
<path d="M264.224 218.293C272.709 218.293 279.587 211.415 279.587 202.931C279.587 194.447 272.709 187.569 264.224 187.569C255.74 187.569 248.862 194.447 248.862 202.931C248.862 211.415 255.74 218.293 264.224 218.293Z" fill="#D0BFFF"/>
<path d="M36.7962 234.715C45.5375 234.715 52.6238 227.629 52.6238 218.887C52.6238 210.146 45.5375 203.06 36.7962 203.06C28.0548 203.06 20.9685 210.146 20.9685 218.887C20.9685 227.629 28.0548 234.715 36.7962 234.715Z" fill="#D0BFFF"/>
<path d="M55.4171 232.853C61.5875 232.853 66.5896 227.851 66.5896 221.68C66.5896 215.51 61.5875 210.508 55.4171 210.508C49.2467 210.508 44.2446 215.51 44.2446 221.68C44.2446 227.851 49.2467 232.853 55.4171 232.853Z" fill="#D0BFFF"/>
<path d="M17.4171 232.853C23.5875 232.853 28.5896 227.851 28.5896 221.68C28.5896 215.51 23.5875 210.508 17.4171 210.508C11.2467 210.508 6.24463 215.51 6.24463 221.68C6.24463 227.851 11.2467 232.853 17.4171 232.853Z" fill="#D0BFFF"/>
</g>
<defs>
<clipPath id="clip0_60_1347">
<rect width="419" height="270.048" fill="white" transform="translate(-34)"/>
</clipPath>
</defs>
</svg>
