<svg xmlns="http://www.w3.org/2000/svg" width="24" height="40" viewBox="0 0 24 40" fill="none">
  <path opacity="0.1" d="M2.91212 0.878767C2.9444 0.727328 3.01736 0.58141 3.13379 0.456844C3.48864 0.0772407 4.10508 0.0387604 4.51067 0.370877C4.6781 0.507979 4.78236 0.686987 4.82335 0.876434C5.47346 0.67891 6.21438 0.795251 6.76617 1.2471C7.60049 1.93033 7.68509 3.11723 6.9551 3.89813C6.74269 4.12535 6.48403 4.29126 6.20444 4.39816C6.57466 4.92764 6.55134 5.63641 6.10796 6.14746C6.13854 6.19766 6.15754 6.25245 6.16244 6.30884C6.28494 6.43946 6.34597 6.60492 6.34215 6.77047C6.52338 6.76197 6.70822 6.81634 6.85558 6.93701C7.00393 7.05849 7.22174 7.14435 7.23602 7.31481C7.32909 7.24507 7.53418 7.25175 7.62706 7.32781C7.73135 7.41321 7.53696 7.63467 7.44572 7.73229C7.35448 7.8299 7.22313 8.0523 7.11886 7.96689C7.10129 7.95251 7.06285 7.85498 7.05065 7.83757C7.02116 7.90454 6.97763 7.83678 6.92383 7.89432C6.66022 8.1763 6.2023 8.20489 5.90101 7.95818C5.73295 7.82056 5.64936 7.62635 5.65384 7.43254C5.47261 7.44103 5.28778 7.38666 5.14041 7.266C4.95979 7.11809 4.87729 6.90485 4.89632 6.69698C4.51787 6.70176 4.13634 6.58244 3.82906 6.33081C3.51471 6.07339 3.3365 5.72549 3.29657 5.36508C3.22207 5.33128 3.15093 5.28846 3.08525 5.23563C2.58859 5.61605 1.85754 5.61779 1.35849 5.20913C0.80227 4.75364 0.745881 3.96238 1.23254 3.44177C1.24599 3.42736 1.26071 3.41468 1.27472 3.40099C1.25193 3.38427 1.22837 3.36902 1.20631 3.35096C0.545808 2.81007 0.478832 1.87044 1.05673 1.25223C1.5303 0.745608 2.28978 0.612773 2.91212 0.878767Z" fill="#000"/>
  <g opacity="0.07">
    <path d="M22.6282 34.0589C22.8791 32.2622 20.3958 30.477 17.0816 30.0717C13.7674 29.6663 10.8773 30.7942 10.6264 32.5909C10.3755 34.3876 12.8588 36.1727 16.173 36.5781C19.4872 36.9835 22.3773 35.8556 22.6282 34.0589Z" fill="#000"/>
    <path d="M15.1348 34.8233C15.3503 37.2765 12.2299 39.5188 8.16535 39.8317C4.94026 40.08 2.08972 39.0389 0.942119 37.3728C-1.05641 34.2349 6.89502 29.2894 11.5664 31.3898C13.5942 32.0374 15.0001 33.2901 15.1348 34.8233Z" fill="#000"/>
  </g>
  <path d="M19.3184 11.797C19.5591 12.2892 20.0188 12.5748 20.3453 12.435C20.6718 12.2951 20.7414 11.7828 20.5007 11.2906C20.2601 10.7985 19.8004 10.5129 19.4739 10.6527C19.1474 10.7925 19.0778 11.3048 19.3184 11.797Z" fill="#98D8F0"/>
  <path d="M8.75973 9.07794C8.78875 9.06057 8.79878 9.02417 8.77977 8.9973C8.72111 8.9144 8.57051 8.85327 8.41723 8.96379C8.28204 9.06127 8.0373 9.2516 7.81313 9.16246L7.62073 9.80894C7.62073 9.80894 7.96622 9.59309 8.06157 9.56697C8.24067 9.51789 8.64953 9.14391 8.75973 9.07794Z" fill="#9DCADB"/>
  <path d="M20.911 17.2133C21.0032 16.9105 21.3451 16.6905 21.2683 16.3167C21.233 16.145 21.2356 15.7854 21.2705 15.6485C21.0622 15.549 20.5721 15.3767 20.3377 15.5197C20.3187 15.8831 19.9952 16.201 19.9481 16.3575C19.8472 16.6925 19.9404 17.0932 20.0931 17.3073C20.1541 17.3928 20.8402 17.4457 20.911 17.2133Z" fill="#98D8F0"/>
  <path d="M18.5104 19.9057C18.3932 19.8747 18.3222 19.9389 18.3516 20.049C18.381 20.159 18.4998 20.2732 18.617 20.3043C18.7342 20.3353 18.8055 20.2713 18.7761 20.1613C18.7466 20.0512 18.6276 19.9367 18.5104 19.9057Z" fill="#765C8A"/>
  <path d="M17.6594 19.8056C17.554 19.7486 17.4682 19.7945 17.4679 19.9079C17.4675 20.0213 17.5527 20.1594 17.6582 20.2164C17.7636 20.2734 17.8495 20.2278 17.8499 20.1143C17.8502 20.0009 17.7649 19.8626 17.6594 19.8056Z" fill="#765C8A"/>
  <path d="M20.2913 16.0122C20.3602 16.3515 20.678 16.5607 21.0524 16.4167C21.0524 16.4167 21.4964 14.9332 21.7476 13.6054L20.5151 13.6383L20.2913 16.0122Z" fill="#98D8F0"/>
  <path d="M13.6288 2.6653C13.6355 2.85887 13.7967 3.10253 13.8783 3.3737C14.0424 3.91905 14.1467 4.42612 14.4599 4.89142C14.8234 5.43137 15.1408 5.85656 15.7601 5.28176C16.3367 4.74658 16.7279 4.47518 16.3108 3.54231C16.093 3.05504 18.065 2.92008 17.9526 2.14601C17.753 0.772321 16.4122 0.107202 15.3547 0.401695C14.1289 0.743084 13.5824 1.31581 13.6288 2.6653Z" fill="#B9ECFF"/>
  <path d="M14.5714 7.44201L15.4454 7.28406L14.8377 3.0753L14.2098 3.2106C14.8204 4.68584 14.7314 6.01039 14.5714 7.44201Z" fill="#7B49A1"/>
  <path d="M20.2676 14.3568C20.1643 14.8216 21.5011 15.2204 21.7658 14.856C21.7658 14.856 21.8635 14.4259 21.9833 13.9693C22.1046 13.4105 20.5509 13.261 20.3517 13.6144L20.2676 14.3568Z" fill="#151515"/>
  <path d="M20.8081 11.3768C21.0917 11.6932 22.0704 11.7854 22.1659 11.3822C22.2413 11.064 20.6983 6.45854 20.18 5.95811C19.593 5.39152 18.6326 5.66342 18.4873 6.01484C18.2915 6.48798 20.702 11.2584 20.8081 11.3768Z" fill="#696969"/>
  <path d="M21.5592 14.3841C21.8276 13.2503 22.22 11.5111 22.1551 11.2914C22.0788 11.0327 20.8619 11.072 20.7524 11.3218C20.7016 11.4377 20.4571 13.2822 20.3142 14.3841H21.5592Z" fill="#696969"/>
  <path d="M20.2382 14.353C20.1348 14.8178 21.5194 15.2446 21.7841 14.8802C21.7841 14.8802 21.891 14.4319 21.9835 13.9693C21.4815 14.2344 20.5946 14.0138 20.3518 13.6144L20.2382 14.353Z" fill="#8C8C8C"/>
  <path d="M14.4537 33.3901C15.7832 33.8892 17.7104 34.5142 18.3624 34.0437C18.6845 33.8112 18.5707 32.2076 18.3329 32.0728C18.2747 32.0398 18.2185 32.0662 18.1147 32.0738C18.0417 32.079 17.9407 32.2427 17.7635 32.2458C17.1878 32.2557 16.3705 32.0572 16.1047 32.175C15.9458 32.2681 15.2773 32.4317 14.7598 32.3543C14.3981 32.3002 13.8649 31.8647 13.6963 32.0276C13.3835 32.3297 13.6385 33.084 14.4537 33.3901Z" fill="#fff"/>
  <path d="M14.5118 33.0393C15.8413 33.5384 17.7685 34.1635 18.4205 33.6929C18.7426 33.4604 18.6373 32.2366 18.3994 32.1017C18.3413 32.0687 18.285 32.0952 18.1812 32.1027C18.1082 32.108 18.0073 32.2717 17.83 32.2747C17.2543 32.2847 14.1675 31.5847 13.7344 31.9409C13.3967 32.2186 13.6965 32.7333 14.5118 33.0393Z" fill="#9338D9"/>
  <path d="M18.5822 32.801C18.1763 33.2318 17.4593 33.2175 16.7987 32.4582L17.3228 30.6312L18.8916 31.0238L18.5822 32.801Z" fill="#A2E5FF"/>
  <path d="M17.5663 24.1196C17.8993 24.7776 17.8926 25.7858 17.38 30.9219C17.4604 31.3926 18.8029 31.3209 18.8975 31.0058C19.2817 29.7257 20.2058 26.2553 19.7193 23.9181C19.6594 23.6306 19.6789 22.3795 19.6191 21.2118C19.5628 20.1119 19.6462 18.8077 19.6841 18.6904C19.949 17.8705 20.4327 16.4945 19.7053 15.0223L16.9145 15.6778C16.9145 15.6778 16.7345 22.4757 17.5663 24.1196Z" fill="#A2E5FF"/>
  <path d="M15.0383 24.226C16.4487 19.8952 17.4475 19.6254 17.3705 15.7093L14.6537 16.0059C13.8473 18.5752 12.3986 23.6048 13.0467 24.7459C13.114 24.8644 15.0383 24.226 15.0383 24.226Z" fill="#A2E5FF"/>
  <path d="M15.6059 32.071L17.0383 31.2643L16.0256 29.8752L14.8276 30.6512L15.6059 32.071Z" fill="#A2E5FF"/>
  <path d="M14.8319 30.6686C15.3575 30.5755 15.7825 30.6592 16.1883 30.1447C15.4689 27.8745 15.8292 24.8605 15.041 24.2282C15.041 24.2282 12.9144 24.3467 13.0593 24.7973C13.2005 25.2362 14.8319 30.6686 14.8319 30.6686Z" fill="#A2E5FF"/>
  <path d="M15.3151 31.6511C15.6536 32.2958 16.3093 32.7187 16.7252 33.1916C17.203 33.735 17.2993 34.3172 17.831 34.2938L17.7795 30.1994C17.39 30.1467 16.8028 30.236 16.4705 30.3364C16.6368 31.4872 16.1878 32.1346 15.3151 31.6511Z" fill="#CA87FD"/>
  <path d="M17.1804 30.3066C17.1996 30.267 17.2218 30.2299 17.2463 30.1962C17.4363 30.1802 17.6237 30.1783 17.7795 30.1994L17.831 34.2938C17.6208 34.3031 17.4787 34.2173 17.3541 34.0769C17.3126 34.0301 16.7175 31.2595 17.1804 30.3066Z" fill="#fff"/>
  <path d="M16.2946 4.65828L15.4933 4.75699L15.813 7.03046L16.6143 6.93176L16.2946 4.65828Z" fill="#B9ECFF"/>
  <path d="M19.6482 20.703C18.2693 21.7671 14.0443 21.7494 13.2218 20.6173L14.5319 16.1408L20.018 15.2606C20.018 15.2606 20.2228 16.236 20.1871 17.1671C20.1646 17.7551 19.8346 18.1163 19.7328 18.7898C19.5934 19.7126 19.6482 20.703 19.6482 20.703Z" fill="#AF45FF"/>
  <path d="M20.0656 15.1781C19.859 17.2018 15.7375 17.0966 14.4994 16.2102C14.2999 16.0674 15.0565 15.0504 15.219 13.3754C15.3302 12.2298 13.9413 9.98177 13.9067 9.37955C13.8575 8.52484 14.1458 7.7094 14.2856 7.41743C14.7881 6.36754 18.6434 5.04569 19.7872 5.86838C20.4672 6.35744 19.3739 10.0605 19.296 12.2501C19.2348 13.9706 20.2476 14.2018 20.0656 15.1781Z" fill="#4F4F4F"/>
  <path d="M16.4859 10.6722C17.4086 11.2602 19.3252 10.7469 19.9412 9.89682C19.9412 9.89682 20.6267 7.67482 19.1599 5.49288C18.0593 3.85584 18.4923 1.30888 17.544 0.463636C16.6336 -0.347784 14.728 -0.0262251 13.9789 0.902259C12.8958 2.24462 15.0932 4.73209 16.14 6.66462C17.0085 8.268 16.4859 10.6722 16.4859 10.6722Z" fill="#7B49A1"/>
  <path d="M17.8407 34.293C18.0041 34.3643 18.5058 33.2708 18.1423 31.8583C18.1443 31.1465 18.3464 30.459 17.8635 30.2275C17.7194 30.1584 17.5807 30.2661 17.5029 30.4254C17.1593 31.1298 17.6554 34.3087 17.8407 34.293Z" fill="#5F258C"/>
  <path d="M12.9886 10.3353L13.3959 10.1443L12.9371 9.85951L12.5298 10.0505L12.9886 10.3353Z" fill="#A55BDE"/>
  <path d="M15.8026 12.0819L16.2099 11.8909L13.396 10.1443L12.9886 10.3353L15.8026 12.0819Z" fill="#AF47FF"/>
  <path d="M14.2413 7.26206L14.6487 7.07104C14.1558 7.30215 13.525 9.23503 13.3959 10.1443L12.9885 10.3353C13.1176 9.42604 13.7485 7.49316 14.2413 7.26206Z" fill="#68209E"/>
  <path d="M16.2675 12.3705L16.6748 12.1794L16.2099 11.8909L15.8026 12.0819L16.2675 12.3705Z" fill="#A55BDE"/>
  <path d="M12.0202 11.9775L12.5298 10.0505C12.7017 8.7291 13.9329 6.49368 14.9163 7.10401C15.899 7.71397 16.2793 10.9497 16.2613 12.3667L15.8025 12.0819C15.8059 10.7272 15.6128 7.68551 14.8896 7.23664C14.1657 6.78736 13.1656 9.08835 12.9886 10.3353L15.8025 12.0819L16.2674 12.3704L16.4726 14.7411C16.5119 15.26 16.1536 15.4882 15.723 15.2209L12.6442 13.3099C12.2135 13.0426 11.9159 12.4073 12.0202 11.9775Z" fill="#812AC4"/>
  <path d="M15.1227 7.09925C16.0966 7.72004 16.6856 10.7557 16.6686 12.1727L16.6696 12.1722L16.8799 14.5501C16.9014 14.8338 16.804 15.0306 16.641 15.1071L16.2337 15.2981C16.3967 15.2216 16.4941 15.0248 16.4726 14.7412L16.2626 12.3661L16.2613 12.3667C16.2793 10.9497 15.8849 7.73343 14.9163 7.10406C14.6414 6.92544 14.4082 7.00782 14.2084 7.10278C14.2084 7.10275 14.6225 6.78045 15.1227 7.09925Z" fill="#AB3DFF"/>
  <path d="M13.8872 10.6059C13.7009 10.497 13.6172 10.4 13.5699 10.2348C13.4816 9.92665 13.1135 9.63935 13.0264 9.61426C12.8356 9.5593 12.614 9.37254 12.5305 9.26748C12.5085 9.23982 12.4662 9.23256 12.437 9.25359C12.347 9.31845 12.2873 9.43149 12.3935 9.59778C12.4775 9.72927 12.6636 9.83808 12.6676 9.89523C12.6606 9.908 12.5087 9.826 12.4441 9.8254C12.0949 9.74054 12.0812 10.5696 12.0846 10.6597C12.0921 10.856 12.3617 11.2135 12.6931 11.1888C12.8278 11.1787 12.9686 11.2348 13.0647 11.2734C13.4475 11.4272 14.0915 10.7232 13.8872 10.6059Z" fill="#98D8F0"/>
  <path d="M14.974 10.9684C14.4314 10.6058 13.2194 11.8834 13.5486 12.3724C13.5486 12.3724 14.0495 12.7103 14.573 13.087C15.2268 13.5197 16.2324 11.8675 15.883 11.4573L14.974 10.9684Z" fill="#151515"/>
  <path d="M13.8553 10.5934C13.4984 10.5054 13.0149 10.8422 12.9923 11.2204C12.9923 11.2204 14.2311 12.2348 15.4028 13.0194L16.0472 11.8057L13.8553 10.5934Z" fill="#98D8F0"/>
  <path d="M14.2872 12.3804C14.2872 12.3804 16.756 14.1375 17.0576 14.1014C17.3596 14.0653 16.6167 12.4474 16.2802 12.242C15.3034 11.6457 15.3432 11.2838 15.3432 11.2838C14.9947 11.1705 14.1549 11.9327 14.2872 12.3804Z" fill="#616161"/>
  <path d="M14.9944 10.9374C14.4518 10.5747 13.1787 11.8907 13.5079 12.3798C13.5079 12.3798 14.0275 12.7376 14.573 13.087C14.4955 12.3864 15.2432 11.5152 15.883 11.4573L14.9944 10.9374Z" fill="#8C8C8C"/>
  <path d="M15.2788 12.1661C15.4273 12.5471 16.7029 14.462 17.3127 14.0772C17.8759 13.7218 15.4867 7.53161 14.9026 7.23806C14.2167 6.89338 13.5724 8.12739 13.8273 8.85294C14.2548 10.0693 15.1314 11.7877 15.2788 12.1661Z" fill="#696969"/>
  <path d="M11.7808 35.0974C11.7562 35.1428 11.7418 35.2922 11.7288 35.3627C12.3292 35.8155 13.0751 36.1625 13.6588 36.0105C14.1647 35.8787 14.2406 35.4787 14.149 35.0925L11.7808 35.0974Z" fill="#483259"/>
  <path d="M13.6907 35.9169C12.9576 36.1079 11.7959 35.2136 11.241 34.7442C10.7043 34.2902 10.185 34.1089 9.88929 33.7516C9.64133 33.452 9.61079 33.1002 9.70035 32.7205C9.93664 31.7188 11.0014 32.5789 12.3486 33.4925C13.2139 34.0793 13.7831 34.1299 14.053 34.6138C14.2772 35.0159 14.3558 35.7437 13.6907 35.9169Z" fill="#483259"/>
  <path d="M13.6945 35.6902C12.9614 35.8812 11.9072 35.0837 11.3266 34.6245C10.7739 34.1874 10.2169 33.9147 9.92112 33.5574C9.67316 33.2578 9.62302 32.9784 9.71258 32.5987C9.94886 31.597 11.0568 32.4101 12.404 33.3237C13.2692 33.9105 13.8385 33.9611 14.1083 34.445C14.3326 34.8471 14.3596 35.517 13.6945 35.6902Z" fill="#131D21"/>
  <path d="M11.671 34.0059C11.9514 35.4175 14.0258 35.7453 14.2685 34.7005C14.2994 34.5678 14.5999 20.7282 14.5999 20.7282L10.9226 21.347C10.9226 21.347 11.5761 33.5282 11.671 34.0059Z" fill="#33819E"/>
  <path d="M16.5013 16.3815C15.4162 15.5982 12.7689 12.5446 12.2875 11.6599C11.9949 11.1222 11.7901 10.5474 12.2304 10.0395C12.8111 9.36958 14.1259 9.89165 14.6486 10.6021C14.6486 10.6021 16.6574 13.2267 17.4076 14.4916C17.7189 15.0164 17.3677 17.0069 16.5013 16.3815Z" fill="#fff"/>
  <path d="M18.9143 12.8846L19.9552 13.3515L20.6142 12.0645L19.5733 11.5976L18.9143 12.8846Z" fill="#98D8F0"/>
  <path d="M16.8768 16.481C16.3955 16.4457 16.5218 14.4281 16.8137 14.0279C17.1117 13.6193 19.2222 12.0906 19.2222 12.0906C19.6541 12.0762 20.2163 12.4736 20.4791 12.9223C20.4791 12.9223 17.2938 16.5116 16.8768 16.481Z" fill="#fff"/>
  <path d="M11.6805 9.17694C11.8393 10.3499 9.64406 10.9084 9.12086 10.1649L9.07227 7.62651L11.501 7.40486L11.6805 9.17694Z" fill="#ADDDF0"/>
  <path d="M11.891 6.23985C11.8968 6.92575 11.5854 7.80725 11.1887 8.21478C10.5466 8.87455 8.60891 9.43004 8.0812 8.95481C7.46263 8.39773 7.4999 6.9382 7.52432 5.92288C7.56119 4.38915 8.41098 3.13511 10.2233 3.3177C11.4292 3.43921 11.8781 4.70578 11.891 6.23985Z" fill="#ADDDF0"/>
  <path d="M12.4839 4.15772C12.5829 4.25776 12.6719 4.38749 12.6705 4.52852C12.7051 4.27234 12.5268 4.02138 12.3411 3.87521C12.2702 3.57718 11.9815 3.15034 11.5597 3.07474C11.7769 3.13892 11.9253 3.33888 12.0159 3.5154C11.8764 3.401 11.7188 3.31195 11.5465 3.25269C10.5847 2.92198 9.45536 3.03916 8.60221 3.40735C8.51203 3.41639 8.4193 3.43994 8.32588 3.47305C8.2869 3.48266 8.24812 3.49242 8.20995 3.5022L7.66497 3.63547C7.76724 3.64197 7.86398 3.64259 7.95603 3.63922C7.91403 3.66093 7.87241 3.6829 7.83156 3.70465L7.33879 3.96004C7.47102 3.93722 7.59069 3.9065 7.70195 3.87213C7.59623 3.94674 7.49352 4.03104 7.39557 4.11252L6.97022 4.45816C7.1883 4.37388 7.36537 4.274 7.51958 4.17417C7.37878 4.29169 7.26597 4.47269 7.16403 4.64101L6.93652 5.00664C7.09786 4.90325 7.21656 4.7929 7.31234 4.68421C7.29731 4.76662 7.10815 5.15686 7.34173 5.54532L7.67314 5.8369C7.59569 5.65989 7.59971 5.46143 7.68485 5.3327C7.74202 5.56285 8.14586 5.69193 8.17213 5.73607C8.24144 5.85251 8.45067 6.61102 8.56277 6.81739C8.67946 6.85196 8.71014 6.85485 8.83117 6.86903C8.87735 6.87443 8.82513 6.0679 8.97572 5.89222C9.07736 5.77365 9.23446 5.70681 9.43007 5.8161C9.57729 5.89834 9.59698 6.13774 9.58931 6.39563C9.57446 6.89539 9.93094 7.61864 10.2707 7.78266C10.8695 8.07179 11.3891 8.00604 11.5859 8.17812C12.1587 7.93949 12.845 5.034 12.4839 4.15772Z" fill="#2D004F"/>
  <path d="M11.6291 8.60665C10.9248 8.53228 9.63388 9.6265 9.09877 10.0616C8.66576 10.4137 8.29578 12.1256 8.29578 12.1256C8.29578 12.1256 8.55967 11.5614 8.7451 11.4866C9.07024 11.3554 9.13028 10.9839 9.38494 10.6432C9.86014 10.0074 12.3311 9.5727 12.3311 9.5727C12.3311 9.5727 11.8783 8.63295 11.6291 8.60665Z" fill="#fff"/>
  <path d="M4.96619 37.7127C5.17 37.8841 6.79244 38.4147 7.25241 37.6872C7.3213 37.5782 7.29575 37.2235 7.29575 37.2235L4.91101 37.3222L4.96619 37.7127Z" fill="#483259"/>
  <path d="M7.11393 37.5411C6.65731 38.0675 5.92474 37.7312 4.78753 37.5296C3.49422 37.3003 2.91925 37.3726 2.13495 36.7336C1.62986 36.322 1.29133 35.3978 1.77539 35.3987C2.8084 35.4007 3.04157 35.729 4.63192 36.0843C5.67123 36.3166 6.31299 36.0211 6.82908 36.2753C7.23218 36.4738 7.48967 37.1079 7.11393 37.5411Z" fill="#483259"/>
  <path d="M7.00754 37.5651C6.3368 37.9015 5.7367 37.6028 4.66817 37.3586C3.37599 37.0634 3.09332 37.1204 2.2326 36.5742C1.63971 36.198 1.17272 35.2974 1.82597 35.2775C2.85843 35.2461 3.05874 35.3684 4.64908 35.7238C5.68839 35.956 6.59734 35.8738 7.00831 36.261C7.34982 36.5828 7.4862 37.325 7.00754 37.5651Z" fill="#131D21"/>
  <path d="M4.71925 36.1168C4.68817 37.2076 6.59327 37.7952 7.25856 36.926C7.35928 36.7943 8.87867 29.6613 8.87867 29.6613L12.5546 21.3083L8.9393 20.5155C8.9393 20.5155 5.96509 27.8225 5.71961 28.9713C5.49767 30.01 4.72562 35.8926 4.71925 36.1168Z" fill="#01BAFE"/>
  <path d="M13.6438 9.8105C15.3103 10.8336 14.6597 14.3909 14.45 17.1451C14.3145 18.9245 14.7859 20.3434 14.7652 20.6123C14.6826 21.057 14.3226 21.817 13.2381 21.9815C11.0466 22.3138 9.31624 21.3593 8.81538 20.6509C8.79197 20.0887 8.99845 20.223 8.98401 18.475C8.96841 16.5855 8.33193 15.6337 8.08894 14.7791C7.74482 13.5688 9.05671 11.0396 9.51877 10.7715C10.2075 10.3719 10.4696 10.1246 10.9347 9.85477C11.8602 9.31779 13.0284 9.43271 13.6438 9.8105Z" fill="#9F3FE8"/>
  <path d="M11.9668 8.9767C11.2624 8.90233 9.80302 9.86107 9.26793 10.2962C8.83492 10.6483 8.00723 11.9053 8.07482 12.5376C8.43993 12.0751 10.0554 10.6483 10.5454 10.5349C11.508 10.3121 12.0859 9.84044 12.3147 9.60968C12.3713 9.55268 12.3919 9.47652 12.3195 9.43839C12.2221 9.38712 12.0934 8.99007 11.9668 8.9767Z" fill="#8400E8"/>
  <path d="M7.37463 11.7364C7.42003 11.3465 7.64511 11.016 7.6708 10.7376C7.55259 10.2524 6.08695 10.0329 5.97381 10.4849C5.91818 10.7148 5.82834 11.29 5.64343 12.0122L7.37463 11.7364Z" fill="#525252"/>
  <path d="M7.58134 7.89192C7.90636 8.10009 7.7453 8.31752 7.75956 8.50542C7.7917 8.92932 7.90547 9.71642 7.62677 9.80624C7.36273 9.89134 7.1299 11.3921 7.1299 11.3921C6.72035 11.4773 6.32372 11.3471 5.9303 11.1325C5.9303 11.1325 6.30579 9.63284 6.18756 9.28257C6.0823 8.97068 6.55493 8.28843 6.74283 8.21057C7.08945 8.06697 7.45381 7.81022 7.58134 7.89192Z" fill="#9DCADB"/>
  <path d="M5.97385 10.4849C5.42994 12.0818 4.18808 16.3446 4.60697 16.7856C5.3046 17.5201 6.35255 17.0214 6.58087 16.1248C6.90916 14.8357 7.55364 12.0081 7.67084 10.7376C7.53026 11.2343 6.06443 11.0233 5.97385 10.4849Z" fill="#F2F2F2"/>
  <path d="M7.1819 16.6258C8.29094 15.6861 9.86165 14.0601 10.099 13.5319C10.4906 12.6605 9.69789 11.053 8.65144 11.6917C7.67472 12.2878 6.03659 14.6136 4.94659 15.8893C3.56314 17.5084 6.27372 17.3952 7.1819 16.6258Z" fill="#F2F2F2"/>
  <path d="M7.40307 7.97322L6.5979 7.53528C6.61797 7.54621 6.63021 7.56968 6.62979 7.60295L7.43496 8.04089C7.43538 8.00763 7.42314 7.98415 7.40307 7.97322Z" fill="#752BAD"/>
  <path d="M6.44312 7.78463L7.24828 8.22258C7.26771 8.23313 7.29446 8.23194 7.32414 8.21646C7.38451 8.18498 7.43413 8.10638 7.43498 8.0409L6.62981 7.60295C6.62896 7.66842 6.57932 7.74702 6.51897 7.7785C6.48928 7.79399 6.46254 7.7952 6.44312 7.78463Z" fill="#8F35D4"/>
  <path d="M4.98313 6.70734C4.98315 6.70711 4.98317 6.70684 4.98318 6.70662C4.98309 6.69934 4.98298 6.69108 4.98072 6.68124C4.97831 6.67071 4.97485 6.6636 4.97239 6.6595C4.9708 6.65687 4.96665 6.65003 4.95911 6.64394L6.59788 7.53528C6.61794 7.54621 6.63019 7.56969 6.62976 7.60296L4.98313 6.70734Z" fill="#C1E8F7"/>
  <path d="M4.82412 6.89625C4.83833 6.89643 4.85567 6.89166 4.87167 6.88315C4.90965 6.86298 4.93514 6.83099 4.94985 6.8077C4.96558 6.78279 4.97233 6.76231 4.97454 6.75559C4.97702 6.74809 4.97954 6.73787 4.98091 6.73012C4.98211 6.72336 4.98273 6.71432 4.98312 6.70734L6.62975 7.60297C6.62889 7.66844 6.57926 7.74704 6.51891 7.77852C6.48923 7.79399 6.46248 7.79521 6.44305 7.78463L4.80359 6.8929C4.81274 6.89608 4.82068 6.89621 4.82412 6.89625Z" fill="#fff"/>
  <path d="M7.08118 8.11633C7.06696 8.11722 7.01608 8.09096 7.02264 8.08613C7.03145 8.07965 7.08459 8.10413 7.08378 8.11431C7.08367 8.11596 7.08179 8.11624 7.08118 8.11633ZM6.8217 7.98923C6.81322 7.98636 6.76828 7.9618 6.76565 7.95949C6.76568 7.95941 6.76571 7.95929 6.76574 7.95921C6.77432 7.96037 6.82236 7.98447 6.82323 7.9893C6.82277 7.98937 6.82215 7.98936 6.8217 7.98923ZM6.55814 7.77685C6.54918 7.77228 6.53987 7.76933 6.53444 7.7693C6.53285 7.77036 6.53126 7.7714 6.52966 7.7724C6.53123 7.7806 6.56724 7.80003 6.57712 7.79538C6.5814 7.79151 6.56833 7.78203 6.55814 7.77685ZM6.85114 7.80732C6.84343 7.81943 6.80376 7.79705 6.80119 7.78393C6.79917 7.77357 6.81787 7.77503 6.8357 7.78662C6.84687 7.79389 6.85337 7.8026 6.85114 7.80732ZM7.27161 7.97749C7.26764 7.99015 7.23196 7.97279 7.22231 7.95671C7.21713 7.94809 7.22172 7.94358 7.23299 7.94624C7.25088 7.95046 7.27325 7.96855 7.27161 7.97749ZM7.22843 8.12106C7.21508 8.13021 7.17542 8.10465 7.17811 8.09595C7.18143 8.08529 7.2206 8.09988 7.22862 8.11478C7.23009 8.11747 7.23002 8.11964 7.22843 8.12106ZM7.19637 7.90798C7.18302 7.91714 7.14336 7.89158 7.14606 7.88288C7.14937 7.87222 7.18854 7.88681 7.19656 7.90171C7.19802 7.90441 7.19795 7.90658 7.19637 7.90798ZM7.05049 7.90048C7.03714 7.90964 6.99748 7.88408 7.00018 7.87538C7.00349 7.86472 7.04267 7.87931 7.05068 7.89421C7.05213 7.89691 7.05207 7.89908 7.05049 7.90048ZM6.6946 7.68292C6.68125 7.69207 6.64157 7.66651 6.64429 7.65782C6.6476 7.64716 6.68677 7.66175 6.69479 7.67664C6.69624 7.67935 6.69618 7.68152 6.6946 7.68292ZM7.28158 8.21069C7.26562 8.20243 7.24998 8.19841 7.25172 8.20299C7.25385 8.20866 7.28359 8.22467 7.29652 8.22712C7.29821 8.22672 7.2999 8.22626 7.30162 8.22576C7.30112 8.22315 7.29408 8.21714 7.28158 8.21069ZM6.89059 7.96303C6.87539 7.97096 6.83521 7.94518 6.83893 7.93717C6.84354 7.92725 6.88424 7.94273 6.89139 7.95711C6.8927 7.95978 6.89243 7.96176 6.89059 7.96303ZM7.03419 8.00903C7.03009 8.01161 7.01532 8.00488 7.01048 8.00232C6.99442 7.99382 6.98976 7.98787 6.99055 7.98593C6.99301 7.97989 7.02886 7.99686 7.03413 8.00656C7.03473 8.00768 7.03476 8.00848 7.03419 8.00903ZM7.40611 8.07804C7.402 8.08063 7.38724 8.07389 7.3824 8.07132C7.36634 8.06283 7.36169 8.05687 7.36247 8.05493C7.36494 8.04889 7.40078 8.06586 7.40605 8.07556C7.40665 8.0767 7.40668 8.07751 7.40611 8.07804ZM6.6783 7.89649C6.6742 7.89908 6.65943 7.89234 6.65459 7.88978C6.63853 7.88129 6.63387 7.87532 6.63466 7.87339C6.63712 7.86735 6.67297 7.88431 6.67824 7.89401C6.67885 7.89515 6.67887 7.89595 6.6783 7.89649ZM6.86907 7.70443C6.86495 7.70702 6.8502 7.70028 6.84535 7.69772C6.82929 7.68922 6.82464 7.68326 6.82543 7.68132C6.82789 7.67528 6.86373 7.69225 6.869 7.70195C6.86962 7.70309 6.86963 7.7039 6.86907 7.70443Z" fill="#4A4A4A"/>
  <path d="M4.62513 6.7124C4.60047 6.72526 4.57871 6.72402 4.565 6.71164C4.56264 6.70944 4.55904 6.7061 4.5547 6.70065C4.55079 6.69544 4.55063 6.69523 4.54842 6.69166C4.54514 6.68593 4.54501 6.68571 4.54317 6.68169C4.54058 6.67546 4.54047 6.67521 4.53905 6.67062C4.53731 6.66409 4.53717 6.66356 4.53627 6.65806C4.53537 6.65045 4.53536 6.6503 4.53528 6.64315C4.53558 6.63596 4.53561 6.63537 4.53638 6.62976C4.53768 6.62254 4.53771 6.6224 4.53891 6.61796C4.54101 6.61102 4.541 6.61102 4.54246 6.6073C4.54522 6.60074 4.54522 6.60074 4.54689 6.59747C4.55023 6.59125 4.55024 6.59125 4.55213 6.58824C4.55606 6.58232 4.55606 6.58232 4.55823 6.57948C4.56276 6.57386 4.56276 6.57385 4.56533 6.57108C4.57045 6.56584 4.57054 6.56573 4.57366 6.56297C4.57927 6.55829 4.5796 6.558 4.58364 6.55515C4.58974 6.55112 4.59037 6.55069 4.59586 6.54775C4.60295 6.54428 4.60323 6.54415 4.60998 6.54159C4.61659 6.53943 4.61729 6.53921 4.62291 6.53791C4.6296 6.53663 4.63015 6.53653 4.63515 6.53599C4.64204 6.53551 4.64231 6.53548 4.64694 6.53552C4.65372 6.5358 4.65399 6.53582 4.65834 6.53635C4.66544 6.53744 4.66573 6.53749 4.6721 6.5391C4.69091 6.54426 4.70293 6.56219 4.70258 6.58968C4.70201 6.63546 4.66732 6.69039 4.62513 6.7124Z" fill="#59565C"/>
  <path d="M4.79379 6.8273C4.77229 6.83852 4.75255 6.84125 4.7366 6.83685C4.68016 6.79351 4.59276 6.7368 4.56494 6.71165C4.57865 6.72404 4.60041 6.72528 4.62507 6.71242C4.66726 6.69042 4.70194 6.63547 4.70255 6.58971C4.70291 6.56222 4.69088 6.54429 4.67207 6.53912C4.70915 6.5493 4.80492 6.59222 4.87309 6.61666C4.88563 6.62788 4.89297 6.64634 4.89265 6.67072C4.89188 6.72912 4.84763 6.79923 4.79379 6.8273Z" fill="#40474A"/>
  <path d="M4.95843 6.64326C4.96651 6.64952 4.97088 6.65677 4.97252 6.6595C4.97499 6.66361 4.97844 6.6707 4.98085 6.68124C4.98311 6.69109 4.98322 6.69934 4.98331 6.70662C4.98292 6.71369 4.98228 6.72315 4.98105 6.73014C4.97968 6.73788 4.97716 6.74811 4.97468 6.75562C4.97246 6.76235 4.96572 6.78283 4.94999 6.80773C4.93528 6.83101 4.90979 6.86299 4.87181 6.88318C4.85581 6.89168 4.83847 6.89645 4.82426 6.89628C4.82071 6.89623 4.81243 6.89613 4.80294 6.89267C4.80001 6.89161 4.79622 6.88981 4.79357 6.88821C4.79091 6.88662 4.78767 6.88404 4.78529 6.88207C4.77991 6.87199 4.76121 6.85567 4.73669 6.83684C4.75265 6.84123 4.77238 6.8385 4.79389 6.82729C4.84772 6.79922 4.89198 6.72911 4.89275 6.67071C4.89306 6.64633 4.88573 6.62788 4.87318 6.61665C4.90289 6.6273 4.92738 6.63446 4.93942 6.63384C4.93951 6.63383 4.94898 6.63592 4.95843 6.64326Z" fill="#9327E6"/>
  <mask id="mask0_44_878" style="mask-type:luminance" maskUnits="userSpaceOnUse" x="4" y="6" width="3" height="2">
    <path d="M6.51891 7.77852C6.48923 7.794 6.46248 7.79521 6.44305 7.78464L4.80359 6.89291C4.81274 6.89608 4.82068 6.89621 4.82412 6.89626C4.83833 6.89643 4.85567 6.89166 4.87167 6.88316C4.90965 6.86299 4.93514 6.83099 4.94985 6.80771C4.96558 6.7828 4.97233 6.76232 4.97454 6.7556C4.97702 6.7481 4.97954 6.73788 4.98091 6.73013C4.98211 6.72336 4.98273 6.71433 4.98312 6.70734C4.98314 6.70711 4.98315 6.70684 4.98317 6.70662C4.98307 6.69934 4.98296 6.69108 4.98071 6.68124C4.97829 6.67071 4.97484 6.6636 4.97236 6.6595C4.97078 6.65687 4.96662 6.65003 4.95909 6.64394L6.59786 7.53528C6.61793 7.54621 6.63017 7.56969 6.62975 7.60296C6.62889 7.66844 6.57928 7.74704 6.51891 7.77852Z" fill="#fff"/>
  </mask>
  <g mask="url(#mask0_44_878)">
    <path d="M5.56886 7.37042C5.57819 7.38261 5.59183 7.39371 5.61099 7.39938C5.60154 7.40378 5.59021 7.40715 5.57738 7.40788C5.56465 7.40862 5.55034 7.40721 5.53608 7.40254C5.50922 7.39365 5.4934 7.37922 5.48392 7.36499C5.47434 7.35061 5.47109 7.33561 5.46997 7.3211C5.46899 7.30644 5.47054 7.2924 5.47059 7.27808C5.47066 7.26781 5.4701 7.2576 5.46814 7.24747L5.5294 7.28079C5.53254 7.28546 5.53512 7.29016 5.53729 7.29501C5.54244 7.3064 5.54558 7.31883 5.54987 7.33171C5.55416 7.34448 5.55949 7.35805 5.56886 7.37042Z" fill="#D9D9D9"/>
  </g>
  <mask id="mask1_44_878" style="mask-type:luminance" maskUnits="userSpaceOnUse" x="4" y="6" width="3" height="2">
    <path d="M6.51891 7.77852C6.48923 7.794 6.46248 7.79521 6.44305 7.78464L4.80359 6.89291C4.81274 6.89608 4.82068 6.89621 4.82412 6.89626C4.83833 6.89643 4.85567 6.89166 4.87167 6.88316C4.90965 6.86299 4.93514 6.83099 4.94985 6.80771C4.96558 6.7828 4.97233 6.76232 4.97454 6.7556C4.97702 6.7481 4.97954 6.73788 4.98091 6.73013C4.98211 6.72336 4.98273 6.71433 4.98312 6.70734C4.98314 6.70711 4.98315 6.70684 4.98317 6.70662C4.98307 6.69934 4.98296 6.69108 4.98071 6.68124C4.97829 6.67071 4.97484 6.6636 4.97236 6.6595C4.97078 6.65687 4.96662 6.65003 4.95909 6.64394L6.59786 7.53528C6.61793 7.54621 6.63017 7.56969 6.62975 7.60296C6.62889 7.66844 6.57928 7.74704 6.51891 7.77852Z" fill="#fff"/>
  </mask>
  <g mask="url(#mask1_44_878)">
    <path d="M5.11423 7.11469C5.1154 7.11833 5.11661 7.12205 5.11799 7.12575C5.11945 7.12924 5.12105 7.13279 5.12282 7.13633C5.12965 7.15076 5.13982 7.16461 5.15669 7.17595C5.15099 7.17697 5.14564 7.17682 5.13973 7.1767C5.13394 7.17645 5.12756 7.17611 5.12143 7.17495C5.10959 7.17229 5.09588 7.16858 5.08359 7.16166C5.07766 7.15851 5.07198 7.15538 5.06707 7.15198C5.06237 7.14848 5.05806 7.14493 5.05415 7.14134C5.05025 7.13775 5.04664 7.13416 5.04353 7.13049C5.04061 7.1267 5.03801 7.12291 5.03569 7.11913C5.03112 7.11151 5.02747 7.10404 5.02504 7.09638C5.02271 7.08862 5.02115 7.08093 5.02003 7.07331C5.01771 7.05812 5.01764 7.0431 5.01619 7.02791C5.0155 7.02055 5.01449 7.01321 5.01294 7.00589L5.09044 7.04805C5.09874 7.06255 5.1033 7.07739 5.10767 7.09327C5.10989 7.10047 5.11207 7.10758 5.11423 7.11469Z" fill="#D9D9D9"/>
  </g>
  <mask id="mask2_44_878" style="mask-type:luminance" maskUnits="userSpaceOnUse" x="4" y="6" width="3" height="2">
    <path d="M6.51891 7.77852C6.48923 7.794 6.46248 7.79521 6.44305 7.78464L4.80359 6.89291C4.81274 6.89608 4.82068 6.89621 4.82412 6.89626C4.83833 6.89643 4.85567 6.89166 4.87167 6.88316C4.90965 6.86299 4.93514 6.83099 4.94985 6.80771C4.96558 6.7828 4.97233 6.76232 4.97454 6.7556C4.97702 6.7481 4.97954 6.73788 4.98091 6.73013C4.98211 6.72336 4.98273 6.71433 4.98312 6.70734C4.98314 6.70711 4.98315 6.70684 4.98317 6.70662C4.98307 6.69934 4.98296 6.69108 4.98071 6.68124C4.97829 6.67071 4.97484 6.6636 4.97236 6.6595C4.97078 6.65687 4.96662 6.65003 4.95909 6.64394L6.59786 7.53528C6.61793 7.54621 6.63017 7.56969 6.62975 7.60296C6.62889 7.66844 6.57928 7.74704 6.51891 7.77852Z" fill="#fff"/>
  </mask>
  <g mask="url(#mask2_44_878)">
    <path d="M6.07916 7.60412C6.09667 7.62633 6.11864 7.65047 6.15363 7.65962C6.14964 7.66212 6.14535 7.66448 6.14071 7.66667C6.13602 7.6687 6.13088 7.67034 6.12544 7.67186C6.12271 7.67262 6.11988 7.67331 6.11698 7.67393C6.114 7.6744 6.11092 7.67477 6.10775 7.67508C6.10136 7.67557 6.09478 7.67632 6.08747 7.67561C6.06042 7.67457 6.03838 7.66476 6.02328 7.65279C6.01575 7.64629 6.00954 7.64012 6.00509 7.6325C6.00056 7.62513 5.99707 7.61814 5.99513 7.61032C5.99309 7.60266 5.99168 7.59555 5.9913 7.58826C5.99068 7.58098 5.99008 7.57368 5.9892 7.56645C5.98762 7.55344 5.98499 7.54058 5.97986 7.52806L6.05092 7.56671C6.05242 7.56844 6.0539 7.57023 6.05526 7.57225C6.05909 7.57693 6.06289 7.58197 6.06673 7.58755C6.07078 7.59264 6.07484 7.59828 6.07916 7.60412ZM6.50919 7.37696C6.50365 7.38424 6.49688 7.38992 6.49037 7.3949C6.48358 7.39973 6.47615 7.40342 6.46897 7.40664C6.46172 7.40966 6.45439 7.41207 6.44709 7.41415C6.42451 7.4206 6.40206 7.42385 6.38187 7.43193C6.38269 7.42474 6.38352 7.41737 6.38603 7.41025C6.38773 7.4029 6.39129 7.39574 6.39492 7.38808C6.39504 7.38785 6.39515 7.38766 6.39528 7.38744C6.39919 7.38062 6.40233 7.37473 6.40687 7.36957C6.40881 7.36689 6.4109 7.36438 6.41322 7.36198C6.41555 7.35959 6.41808 7.35732 6.42027 7.35512C6.42205 7.35349 6.42395 7.35191 6.42582 7.35033C6.4499 7.34274 6.48112 7.34421 6.50206 7.35521C6.50824 7.35845 6.51293 7.36222 6.51615 7.36627C6.51402 7.37014 6.51168 7.37372 6.50919 7.37696Z" fill="#D9D9D9"/>
  </g>
  <path d="M4.68709 5.24678C4.68672 5.28784 4.69096 5.32896 4.70316 5.36783C4.71515 5.40653 4.73788 5.44278 4.7474 5.48507C4.75577 5.52621 4.76017 5.57082 4.74194 5.61318C4.72422 5.65362 4.6982 5.68756 4.67577 5.72258C4.62922 5.79155 4.59628 5.866 4.60035 5.94286C4.60014 6.02077 4.64289 6.09434 4.68599 6.16575L4.68277 6.16812C4.62107 6.10964 4.56782 6.03431 4.55947 5.94531C4.54914 5.85512 4.59787 5.77221 4.64825 5.70594C4.67285 5.67152 4.69997 5.63884 4.71739 5.60355C4.73465 5.56977 4.73332 5.5278 4.72728 5.4887C4.72138 5.44943 4.70128 5.41192 4.69128 5.37078C4.68132 5.32979 4.67988 5.28781 4.68299 5.24664L4.68709 5.24678ZM4.89114 5.13179C4.89035 5.18946 4.89966 5.24659 4.92491 5.29881C4.95012 5.3517 4.96484 5.41139 4.95389 5.47224C4.93707 5.53285 4.89559 5.57787 4.86443 5.62635C4.82982 5.6732 4.80236 5.72314 4.78665 5.77909L4.78394 5.77878C4.78408 5.71989 4.81 5.6629 4.84126 5.61286C4.87273 5.5629 4.91464 5.51826 4.9327 5.46725C4.94465 5.41442 4.93483 5.35602 4.91213 5.30332C4.88975 5.24868 4.8839 5.18904 4.88841 5.13169L4.89114 5.13179ZM4.60412 5.04983C4.57995 5.0899 4.54967 5.12722 4.53781 5.17191C4.53156 5.19375 4.52564 5.21664 4.52672 5.23858C4.52809 5.26088 4.53494 5.28287 4.54313 5.30429C4.56024 5.34701 4.5809 5.38909 4.59508 5.43377C4.60781 5.4785 4.61562 5.52594 4.60754 5.57182L4.60617 5.5717C4.60612 5.52568 4.59857 5.48048 4.582 5.43748C4.56775 5.39394 4.54806 5.35179 4.53279 5.30758C4.52511 5.28557 4.51861 5.26265 4.51783 5.23888C4.5175 5.21474 4.52426 5.19232 4.53126 5.17004C4.54527 5.12469 4.57743 5.08809 4.60292 5.04918L4.60412 5.04983Z" fill="#696969"/>
</svg>