<svg width="53" height="30" viewBox="0 0 53 30" fill="none" xmlns="http://www.w3.org/2000/svg">
<path d="M25.6295 13.305L52.1507 0.535449L28.7231 19.1356" fill="url(#paint0_linear_49_1034)"/>
<path d="M40.049 8.06862L52.1507 0.53544L37.5432 7.59619L40.049 8.06862Z" fill="url(#paint1_linear_49_1034)"/>
<path d="M15.1103 26.745C13.8798 27.6173 10.9598 28.4287 10.9598 28.4287C10.9598 28.4287 11.1933 28.3012 11.5767 28.1201C11.9602 27.9382 12.2767 27.5574 12.2767 27.5574C12.2767 27.5574 11.4939 28.0132 10.4038 28.3674C9.3146 28.7216 7.85574 28.9831 7.85574 28.9831C7.85574 28.9831 8.15157 28.8458 8.66975 28.5224C9.18875 28.199 10.0802 27.6357 10.0802 27.6357C10.0802 27.6357 7.85375 28.8014 4.44025 29.0446C3.10443 29.1398 0.921951 29.6039 0.921951 29.6039C0.921951 29.6039 1.97253 28.7405 2.4715 28.2432C3.26448 27.4541 4.18423 26.1871 4.90644 25.3861C5.98201 24.1931 8.19253 22.0927 8.19253 22.0927L7.74665 22.2843C7.30076 22.4758 6.76127 22.6819 6.76127 22.6819C6.76127 22.6819 8.98464 20.6619 10.645 20.0465C12.5162 19.3533 15.0208 19.6479 15.0208 19.6479C15.0208 19.6479 15.2476 20.6531 16.0746 21.9513C16.9299 23.2926 17.6296 23.837 17.6296 23.837C17.6296 23.837 16.9954 25.4091 15.1103 26.745Z" fill="url(#paint2_linear_49_1034)"/>
<path d="M15.4011 25.5786C14.4765 26.2341 12.2819 26.8444 12.2819 26.8444C12.2819 26.8444 12.4571 26.7489 12.7456 26.6125C13.034 26.4761 13.2713 26.1893 13.2713 26.1893C13.2713 26.1893 12.6826 26.5318 11.864 26.7976C11.0455 27.0635 9.94949 27.2608 9.94949 27.2608C9.94949 27.2608 10.1716 27.1573 10.5612 26.9143C10.9509 26.6713 11.6213 26.2479 11.6213 26.2479C11.6213 26.2479 9.94778 27.1239 7.38211 27.3068C6.37819 27.3782 4.73825 27.7267 4.73825 27.7267C4.73825 27.7267 5.52803 27.0775 5.90287 26.704C6.49903 26.111 7.18986 25.1594 7.73336 24.5566C8.54208 23.66 10.2028 22.082 10.2028 22.082L9.86759 22.2257C9.53236 22.3693 9.12651 22.5243 9.12651 22.5243C9.12651 22.5243 10.7975 21.0065 12.0455 20.5438C13.4517 20.0229 15.3345 20.2442 15.3345 20.2442C15.3345 20.2442 15.5046 21.0001 16.1265 21.9749C16.7692 22.9835 17.2954 23.3915 17.2954 23.3915C17.2954 23.3915 16.8173 24.5744 15.4011 25.5786Z" fill="url(#paint3_linear_49_1034)"/>
<path d="M16.7554 17.3698C16.8954 17.1687 20.8131 13.1677 25.5912 10.8041C30.3694 8.44057 32.5403 8.22705 32.5403 8.22705C32.5403 8.22705 33.7495 9.01868 34.9671 11.0991C36.1847 13.1796 36.5444 14.0208 36.4516 14.2881C36.3588 14.5555 31.7147 19.3389 26.603 21.349C21.4922 23.359 20.9028 23.4742 20.9028 23.4742C20.9028 23.4742 20.2646 23.4118 19.5264 22.3728C18.7881 21.3338 17.0708 18.7456 16.8781 18.1693C16.6853 17.5929 16.7554 17.3698 16.7554 17.3698Z" fill="url(#paint4_linear_49_1034)"/>
<path d="M40.2832 7.93257C39.9972 7.55712 39.6195 7.4923 37.3291 7.52954C35.0386 7.56678 32.6589 8.29272 32.6589 8.29272L32.6863 8.33429C33.0432 8.6111 34.002 9.44996 34.9678 11.0991C35.8845 12.665 36.3142 13.5289 36.4321 13.9743L36.5226 14.1098L36.9214 13.7515C37.3202 13.3933 38.9582 11.0949 39.5652 10.0248C40.1723 8.95542 40.5692 8.30803 40.2832 7.93257Z" fill="url(#paint5_linear_49_1034)"/>
<path d="M21.0922 23.4058L18.5049 28.6205C18.5049 28.6205 21.0717 27.6042 24.0587 25.7192C27.0457 23.8342 27.2797 23.5435 27.2797 23.5435L28.0643 20.6955C28.0634 20.6955 23.2607 22.8142 21.0922 23.4058Z" fill="url(#paint6_linear_49_1034)"/>
<path d="M22.6032 12.5561L19.8374 12.0413C19.8374 12.0413 17.4116 13.0119 15.3888 14.269C13.366 15.5261 11.3918 16.9383 11.3918 16.9383L16.9421 17.1691C16.9429 17.1683 20.838 13.367 22.6032 12.5561Z" fill="url(#paint7_linear_49_1034)"/>
<path d="M19.5262 22.3719C18.7872 21.3329 17.0707 18.7447 16.8779 18.1684C16.8251 18.0117 16.7931 17.8821 16.7727 17.7747L15.3474 18.7775C15.3474 18.7775 15.2592 19.7553 16.5457 21.5686C17.8322 23.3818 18.4979 23.9991 18.8043 23.9747C19.1107 23.9503 20.4289 23.2978 20.4289 23.2978L20.4015 23.2562C20.1614 23.1008 19.8539 22.8322 19.5262 22.3719Z" fill="url(#paint8_linear_49_1034)"/>
<path d="M15.4457 19.3552L15.0226 19.6464C15.0226 19.6464 14.9798 20.2683 15.9569 21.7727C16.9349 23.2772 17.5286 23.8285 17.7884 23.8492C18.0483 23.8699 18.2359 23.6461 18.2359 23.6461C18.2359 23.6461 15.9538 21.2841 15.4457 19.3552Z" fill="url(#paint9_linear_49_1034)"/>
<path d="M24.35 16.0102L22.2291 16.7128C22.2291 16.7128 18.9453 18.4536 17.8759 19.0736C16.5346 19.8508 12.6079 22.3287 12.6079 22.3287L12.7752 22.6609L22.5152 17.1115L24.6586 16.3198L24.35 16.0102Z" fill="url(#paint10_linear_49_1034)"/>
<path d="M12.7751 22.6599L18.1434 20.2926C18.1434 20.2926 20.2041 19.1674 20.873 18.7641C21.8399 18.1819 24.6585 16.3188 24.6585 16.3188L22.4208 17.1328L12.7751 22.6599Z" fill="url(#paint11_linear_49_1034)"/>
<defs>
<linearGradient id="paint0_linear_49_1034" x1="56.4742" y1="-0.692636" x2="26.4772" y2="18.8608" gradientUnits="userSpaceOnUse">
<stop stop-color="#591DFF"/>
<stop offset="0.136" stop-color="#571CFB"/>
<stop offset="0.274" stop-color="#531BEF"/>
<stop offset="0.414" stop-color="#4C18DA"/>
<stop offset="0.555" stop-color="#4114BD"/>
<stop offset="0.696" stop-color="#330F98"/>
<stop offset="0.839" stop-color="#58086B"/>
<stop offset="0.979" stop-color="#2D0137"/>
<stop offset="1" stop-color="#25002E"/>
</linearGradient>
<linearGradient id="paint1_linear_49_1034" x1="53.1821" y1="-0.453695" x2="36" y2="10.7212" gradientUnits="userSpaceOnUse">
<stop stop-color="#591DFF"/>
<stop offset="0.136" stop-color="#571CFB"/>
<stop offset="0.274" stop-color="#531BEF"/>
<stop offset="0.414" stop-color="#4C18DA"/>
<stop offset="0.555" stop-color="#4114BD"/>
<stop offset="0.696" stop-color="#330F98"/>
<stop offset="0.839" stop-color="#58086B"/>
<stop offset="0.979" stop-color="#2D0137"/>
<stop offset="1" stop-color="#25002E"/>
</linearGradient>
<linearGradient id="paint2_linear_49_1034" x1="0.891115" y1="24.635" x2="17.6353" y2="24.5267" gradientUnits="userSpaceOnUse">
<stop stop-color="#9E88DA"/>
<stop offset="0.042" stop-color="#A18ED4"/>
<stop offset="0.496" stop-color="#E599F7"/>
<stop offset="0.828" stop-color="#D86DF1"/>
<stop offset="1" stop-color="#E05EFF"/>
</linearGradient>
<linearGradient id="paint3_linear_49_1034" x1="4.71442" y1="23.9926" x2="17.2981" y2="23.9112" gradientUnits="userSpaceOnUse">
<stop stop-color="#9E88DA"/>
<stop offset="0.042" stop-color="#A18ED4"/>
<stop offset="0.496" stop-color="#D99595"/>
<stop offset="0.828" stop-color="#F16D6D"/>
<stop offset="1" stop-color="#FF5E5E"/>
</linearGradient>
<linearGradient id="paint4_linear_49_1034" x1="30.0362" y1="19.991" x2="15.9874" y2="0.799574" gradientUnits="userSpaceOnUse">
<stop stop-color="#BAA1FF"/>
<stop offset="0.488" stop-color="white"/>
</linearGradient>
<linearGradient id="paint5_linear_49_1034" x1="39.2004" y1="12.2423" x2="36.5166" y2="7.65599" gradientUnits="userSpaceOnUse">
<stop stop-color="#70369D"/>
<stop offset="0.745" stop-color="#E599F7"/>
</linearGradient>
<linearGradient id="paint6_linear_49_1034" x1="18.4791" y1="24.6888" x2="28.0892" y2="24.6266" gradientUnits="userSpaceOnUse">
<stop stop-color="#C9C9C9"/>
<stop offset="0.745" stop-color="#E599F7"/>
</linearGradient>
<linearGradient id="paint7_linear_49_1034" x1="20.6083" y1="16.0569" x2="14.9304" y2="13.7251" gradientUnits="userSpaceOnUse">
<stop stop-color="#70369D"/>
<stop offset="0.745" stop-color="#E599F7"/>
</linearGradient>
<linearGradient id="paint8_linear_49_1034" x1="19.7444" y1="24.0166" x2="16.0697" y2="18.172" gradientUnits="userSpaceOnUse">
<stop stop-color="#2C0036"/>
<stop offset="0.438" stop-color="#70008B"/>
<stop offset="1" stop-color="#E599F7"/>
</linearGradient>
<linearGradient id="paint9_linear_49_1034" x1="15.0554" y1="19.4013" x2="17.6668" y2="24.1848" gradientUnits="userSpaceOnUse">
<stop stop-color="#E599F7"/>
<stop offset="0.159" stop-color="#E599F7"/>
<stop offset="0.353" stop-color="#E599F7"/>
<stop offset="0.568" stop-color="#E599F7"/>
<stop offset="0.794" stop-color="#6026FF"/>
<stop offset="1" stop-color="#4400FF"/>
</linearGradient>
<linearGradient id="paint10_linear_49_1034" x1="25.3948" y1="15.6537" x2="13.4602" y2="22.5373" gradientUnits="userSpaceOnUse">
<stop stop-color="#E599F7"/>
<stop offset="0.132" stop-color="#E599F7"/>
<stop offset="0.534" stop-color="#652EFF"/>
<stop offset="0.835" stop-color="#4D0DFF"/>
<stop offset="1" stop-color="#4400FF"/>
</linearGradient>
<linearGradient id="paint11_linear_49_1034" x1="12.7547" y1="19.528" x2="24.6789" y2="19.4508" gradientUnits="userSpaceOnUse">
<stop stop-color="#9600BA"/>
<stop offset="0.745" stop-color="#70369D" stop-opacity="0.65"/>
</linearGradient>
</defs>
</svg>
