<svg xmlns="http://www.w3.org/2000/svg" width="86" height="86" viewBox="0 0 86 86" fill="none">
  <g opacity="0.28">
    <path d="M18.0714 46.0466V50.1924M18.0714 50.1924H9.77979M18.0714 50.1924H26.363M22.2172 50.1924H13.9256V54.3382H22.2172M22.2172 50.1924V54.3382M22.2172 50.1924H25.0913M22.2172 54.3382H28.2006M20.4273 58.484H18.0714V54.3382H26.363" stroke="#434955" stroke-width="0.688" stroke-miterlimit="10" stroke-linecap="round" stroke-linejoin="round"/>
  </g>
  <g opacity="0.28">
    <path d="M65.5096 20.3129V24.4587M65.5096 24.4587H73.8012M65.5096 24.4587H57.218" stroke="#434955" stroke-width="0.688" stroke-miterlimit="10" stroke-linecap="round" stroke-linejoin="round"/>
    <path d="M69.6555 28.6044H61.3639V24.4586H69.6555V28.6044Z" stroke="#434955" stroke-width="0.688" stroke-miterlimit="10" stroke-linecap="round" stroke-linejoin="round"/>
    <path d="M63.1536 32.7503H65.5095M65.5095 32.7503V28.6045M65.5095 32.7503H72.233M65.5095 28.6045H57.2179M65.5095 28.6045H73.8011H69.6553V24.4587H76.6275M55.3802 28.6045H61.3637V24.4587H58.4896" stroke="#434955" stroke-width="0.688" stroke-miterlimit="10" stroke-linecap="round" stroke-linejoin="round"/>
  </g>
  <path d="M20.4793 66.4491C18.3328 61.9474 24.2963 58.6481 24.2633 50.8168C24.2184 40.1522 13.1205 37.0768 13.7713 30.3498C15.0338 17.3022 58.7817 8.23407 61.9313 14.234C63.1181 16.4949 57.3664 18.6586 56.7713 24.8704C55.7429 35.6062 71.9324 39.4921 72.2513 49.5276C72.5821 59.9356 55.6382 70.5562 40.7753 71.9285C34.393 72.5177 23.075 71.8927 20.4793 66.4491Z" fill="#FFCAC2"/>
  <path d="M38.3845 33.6873L37.1825 23.0107C37.0606 21.9273 37.1984 20.8323 37.5865 19.8036H31.0254C31.4135 20.8322 31.5513 21.9272 31.4294 23.0107L30.2274 33.6873C29.9173 36.4413 28.955 39.0986 27.4085 41.4709C25.2459 44.7886 24.2404 48.6401 24.5284 52.5032L25.4859 65.3469C25.5998 66.8741 26.9079 68.094 28.5608 68.2141L31.392 68.4199C33.332 68.5609 35.2797 68.5609 37.2197 68.4199L40.051 68.2141C41.7038 68.094 43.0119 66.8741 43.1258 65.3469L44.0833 52.5032C44.3713 48.6401 43.3658 44.7886 41.2032 41.4709C39.6569 39.0986 38.6946 36.4413 38.3845 33.6873Z" fill="#ED6A56"/>
  <path d="M35.7771 68.4199L38.5797 68.2141C40.2157 68.094 41.5106 66.8741 41.6233 65.3469L42.5711 52.5032C42.8562 48.6401 42.1162 45.0466 39.9755 41.7289C39.9755 41.7289 37.9403 39.1923 37.6074 33.4293L36.5036 22.7527C36.3929 21.7593 36.7571 20.7564 37.0715 19.8036H37.6005C37.2164 20.8322 37.0799 21.9272 37.2006 23.0107L38.3905 33.6873C38.6974 36.4413 39.6499 39.0986 41.1806 41.4709C43.3214 44.7886 44.3166 48.6401 44.0315 52.5032L43.0837 65.3469C42.971 66.8741 41.6761 68.094 40.0401 68.2141L37.2375 68.4199C36.0349 68.5082 34.8288 68.5411 33.623 68.5188C34.3418 68.5055 35.0601 68.4725 35.7771 68.4199Z" fill="#ED6A56"/>
  <path d="M37.1648 21.6638C37.2189 21.0272 37.3608 20.4012 37.5865 19.8036H37.2594C37.1434 20.4165 37.1116 21.0423 37.1648 21.6638ZM31.3527 19.8037H31.0255C31.2512 20.4013 31.3931 21.0273 31.4473 21.6639C31.5006 21.0412 31.4685 20.4163 31.3527 19.8037Z" fill="#7D9D6B"/>
  <path d="M44.0836 51.3385L43.126 64.1822C43.0122 65.7095 41.704 66.9293 40.0512 67.0494L37.2199 67.2552C35.2799 67.3962 33.3323 67.3962 31.3923 67.2552L28.561 67.0494C26.9082 66.9293 25.6 65.7095 25.4862 64.1822L24.5285 51.3385C24.5109 51.1027 24.4982 50.8665 24.4903 50.6301C24.4696 51.2527 24.4818 51.8778 24.5285 52.5031L25.486 65.3468C25.5998 66.8741 26.908 68.0939 28.5608 68.2141L31.3921 68.4199C33.3321 68.5608 35.2797 68.5608 37.2197 68.4199L40.051 68.2141C41.7039 68.0939 43.012 66.8741 43.1259 65.3468L44.0834 52.5031C44.1297 51.8799 44.1424 51.2547 44.1216 50.6301C44.1138 50.8665 44.1011 51.1027 44.0836 51.3385Z" fill="#6E8F5D"/>
  <path opacity="0.5" d="M31.1238 43C30.542 44.354 29.8868 46.1488 29.6752 47.7629C29.1796 51.5437 29.6752 54.483 29.6752 54.483M32.1409 40.8657C32.1409 40.8657 32.1784 40.7378 31.8581 41.4148" stroke="white" stroke-width="1.204" stroke-miterlimit="10" stroke-linecap="round" stroke-linejoin="round"/>
  <path d="M38.3845 33.6873L37.1825 23.0107C37.0606 21.9273 37.1984 20.8323 37.5865 19.8036H31.0254C31.4135 20.8322 31.5513 21.9272 31.4294 23.0107L30.2274 33.6873C29.9173 36.4413 28.955 39.0986 27.4085 41.4709C25.2459 44.7886 24.2404 48.6401 24.5284 52.5032L25.4859 65.3469C25.5998 66.8741 26.9079 68.094 28.5608 68.2141L31.392 68.4199C33.332 68.5609 35.2797 68.5609 37.2197 68.4199L40.051 68.2141C41.7038 68.094 43.0119 66.8741 43.1258 65.3469L44.0833 52.5032C44.3713 48.6401 43.3658 44.7886 41.2032 41.4709C39.6569 39.0986 38.6946 36.4413 38.3845 33.6873Z" stroke="#246D49" stroke-width="0.688" stroke-miterlimit="10" stroke-linecap="round" stroke-linejoin="round"/>
  <path d="M38.7644 36.1831C38.1932 36.2702 37.6196 36.3411 37.0444 36.3956C36.4544 37.1489 35.413 37.6675 34.2201 37.6667C33.0265 37.6675 31.985 37.1489 31.395 36.3956C30.8198 36.341 30.2463 36.2702 29.675 36.1831C29.7026 36.0808 29.7284 35.9785 29.7525 35.8753C29.8531 35.465 29.9382 35.0514 30.0079 34.6343C30.0087 34.6308 30.0096 34.6274 30.0096 34.624C30.0259 34.5311 30.0405 34.4373 30.0543 34.3436C30.0569 34.329 30.0595 34.3152 30.0612 34.3006C30.0911 34.0966 30.1177 33.8922 30.1412 33.6874L30.2891 32.3768L31.3435 23.0105C31.3718 22.7551 31.3865 22.4997 31.3865 22.2443C31.3865 21.4152 31.2359 20.5896 30.9392 19.8036H37.5002C37.1123 20.8321 36.9747 21.9269 37.0969 23.0105L38.1512 32.3768L38.2983 33.6874C38.3103 33.7923 38.3232 33.8981 38.337 34.003C38.4058 34.5285 38.4978 35.0497 38.6147 35.5657C38.6371 35.6689 38.6612 35.7729 38.687 35.8753C38.7111 35.9785 38.7369 36.0808 38.7644 36.1831Z" fill="#F2A356"/>
  <path d="M37.0716 19.8036C36.7573 20.7564 36.3931 21.7594 36.5038 22.7528L37.6076 33.4293C37.6691 34.4941 37.789 35.4479 37.9431 36.2967C38.2172 36.2625 38.4909 36.2247 38.7645 36.1831C38.737 36.0808 38.7112 35.9784 38.6871 35.8752C38.6613 35.7729 38.6372 35.6688 38.6148 35.5656C38.4979 35.0496 38.4059 34.5285 38.3371 34.003C38.3233 33.8981 38.3104 33.7923 38.2984 33.6874L38.1513 32.3768L37.0969 23.0105C36.9748 21.9269 37.1124 20.8322 37.5003 19.8036H37.0716Z" fill="#D6954B"/>
  <path d="M38.3846 33.6873L38.237 32.3764C37.7158 32.4551 37.1924 32.5182 36.6674 32.5656C36.0329 31.9951 35.2085 31.6517 34.3061 31.651C33.4036 31.6517 32.5793 31.9951 31.9448 32.5656C31.4197 32.5181 30.8963 32.455 30.375 32.3764L30.2274 33.6873C30.1322 34.5295 29.9762 35.3637 29.7606 36.1834C30.332 36.2705 30.9058 36.3411 31.4812 36.3953C32.0714 37.1485 33.1128 37.6678 34.306 37.6665C35.4992 37.6678 36.5406 37.1485 37.1307 36.3953C37.7061 36.3411 38.2799 36.2705 38.8512 36.1834C38.6357 35.3637 38.4797 34.5295 38.3846 33.6873Z" fill="#806940"/>
  <path opacity="0.3" d="M37.509 32.4756L37.6076 33.4292C37.6691 34.494 37.789 35.4478 37.9431 36.2966C38.2172 36.2624 38.4909 36.2246 38.7645 36.183C38.7369 36.0807 38.7111 35.9784 38.6871 35.8752C38.6613 35.7728 38.6372 35.6688 38.6148 35.5656C38.4979 35.0496 38.4058 34.5284 38.337 34.0029C38.3233 33.898 38.3104 33.7922 38.2983 33.6873L38.1526 32.3884C37.9383 32.42 37.7238 32.4492 37.509 32.4756Z" fill="#806940"/>
  <path opacity="0.3" d="M34.2197 35.8623C35.1498 35.8623 35.9037 35.2693 35.9037 34.5378C35.9037 33.8062 35.1498 33.2132 34.2197 33.2132C33.2897 33.2132 32.5358 33.8062 32.5358 34.5378C32.5358 35.2693 33.2897 35.8623 34.2197 35.8623Z" fill="#806940"/>
  <path opacity="0.5" d="M33.2452 24.8096L33.0634 29.9818" stroke="white" stroke-width="1.204" stroke-miterlimit="10" stroke-linecap="round" stroke-linejoin="round"/>
  <path d="M32.7826 68.4199L29.98 68.2141C28.344 68.094 27.0491 66.8741 26.9364 65.3469L25.9886 52.5032C25.7035 48.6401 26.4434 45.0466 28.5842 41.7289C28.5842 41.7289 30.6194 39.1923 30.9523 33.4293L32.0561 22.7527C32.1667 21.7593 31.8025 20.7564 31.4882 19.8036H30.9592C31.3433 20.8322 31.4798 21.9272 31.359 23.0107L30.1692 33.6873C29.8623 36.4413 28.9098 39.0986 27.379 41.4709C25.2383 44.7886 24.2431 48.6401 24.5281 52.5032L25.4759 65.3469C25.5887 66.8741 26.8836 68.094 28.5196 68.2141L31.3221 68.4199C32.5248 68.5082 33.7309 68.5411 34.9366 68.5188C34.2179 68.5055 33.4996 68.4725 32.7826 68.4199Z" fill="#FCFFFA"/>
  <path d="M31.3031 21.1795C31.3031 21.1795 32.9658 22.3526 33.1606 22.3526C33.3555 22.3526 34.2197 21.7661 34.2197 21.7661L34.9365 22.7424C34.9365 22.7424 35.1499 22.3851 35.357 22.3851C35.5641 22.3851 36.2676 22.4501 36.376 22.4501H37.1879V20.2358H31.261L31.3031 21.1795Z" fill="#ED6A56"/>
  <path d="M32.0151 21.4202L31.9731 20.4764H37.1879V20.2357H31.261L31.303 21.1795C31.303 21.1795 32.9657 22.3526 33.1606 22.3526C33.196 22.3526 33.2536 22.3331 33.324 22.3014C32.7717 21.954 32.0151 21.4202 32.0151 21.4202ZM34.9317 22.0067C34.9317 22.0067 34.7691 22.1171 34.5691 22.242L34.9365 22.7424C34.9365 22.7424 35.0743 22.5118 35.236 22.4212L34.9317 22.0067Z" fill="#FCFFFA"/>
  <path d="M31.3031 21.1795C31.3031 21.1795 32.9658 22.3526 33.1606 22.3526C33.3555 22.3526 34.2197 21.7661 34.2197 21.7661L34.9365 22.7424C34.9365 22.7424 35.1499 22.3851 35.357 22.3851C35.5641 22.3851 36.2676 22.4501 36.376 22.4501H37.1879V20.2358H31.261L31.3031 21.1795Z" stroke="#ED6A56" stroke-width="0.688" stroke-miterlimit="10" stroke-linecap="round" stroke-linejoin="round"/>
  <path d="M39.5208 51.2184C38.1473 50.728 36.6014 50.3625 34.9634 50.3625C33.3253 50.3625 31.7794 50.728 30.406 51.2184C29.2126 51.6445 27.9617 51.8663 26.7008 51.8663C26.2735 51.8663 25.9338 52.2415 25.9569 52.6878L26.5171 63.4996C26.5377 63.8969 26.8406 64.2133 27.2203 64.2356C28.0238 64.2828 29.4798 64.4352 31.1738 64.9229C32.3475 65.2608 33.6272 65.5332 34.9634 65.5332C36.2997 65.5332 37.5789 65.2588 38.7532 64.9229C40.2069 64.5071 41.7012 64.2676 43.2076 64.255L43.8343 55.8485L44.0541 51.8663H43.2262C41.965 51.8663 40.7141 51.6445 39.5208 51.2184Z" fill="#F2A356"/>
  <path d="M43.98 53.2041L44.0538 51.8663H43.2259C43.02 51.8663 42.8144 51.8597 42.6092 51.848C42.5998 52.0666 42.5871 52.285 42.5711 52.5032L41.6974 64.3428C42.1847 64.2906 42.6743 64.2615 43.1644 64.2557L43.98 53.2041Z" fill="#D6954B"/>
  <path d="M43.4961 62.3326C37.7957 62.702 32.0774 62.702 26.377 62.3326L26.4659 60.8201C32.1071 61.1857 37.7661 61.1857 43.4073 60.8201L43.4961 62.3326Z" fill="#806940"/>
  <path d="M43.4961 62.3326C37.7957 62.702 32.0774 62.702 26.377 62.3326L26.4659 60.8201C32.1071 61.1857 37.7661 61.1857 43.4073 60.8201L43.4961 62.3326Z" fill="#CE7657"/>
  <path d="M43.4961 62.3326C37.7957 62.702 32.0774 62.702 26.377 62.3326L26.4659 60.8201C32.1071 61.1857 37.7661 61.1857 43.4073 60.8201L43.4961 62.3326Z" stroke="#434955" stroke-width="0.688" stroke-miterlimit="10" stroke-linecap="round" stroke-linejoin="round"/>
  <path d="M38.1948 61.839C38.2118 62.4776 36.7531 63.0091 34.9365 63.0089C33.12 63.0092 31.6612 62.4776 31.6782 61.839C31.6953 61.1999 33.154 60.6953 34.9365 60.695C36.7191 60.6954 38.1778 61.1999 38.1948 61.839Z" fill="#CE7657"/>
  <path d="M38.1948 61.839C38.2118 62.4776 36.7531 63.0091 34.9365 63.0089C33.12 63.0092 31.6612 62.4776 31.6782 61.839C31.6953 61.1999 33.154 60.6953 34.9365 60.695C36.7191 60.6954 38.1778 61.1999 38.1948 61.839Z" stroke="#434955" stroke-width="0.688" stroke-miterlimit="10" stroke-linecap="round" stroke-linejoin="round"/>
  <path d="M39.5208 51.2184C38.1473 50.728 36.6014 50.3625 34.9634 50.3625C33.3253 50.3625 31.7794 50.728 30.406 51.2184C29.2126 51.6445 27.9617 51.8663 26.7008 51.8663C26.2735 51.8663 25.9338 52.2415 25.9569 52.6878L26.5171 63.4996C26.5377 63.8969 26.8406 64.2133 27.2203 64.2356C28.0238 64.2828 29.4798 64.4352 31.1738 64.9229C32.3475 65.2608 33.6272 65.5332 34.9634 65.5332C36.2997 65.5332 37.5789 65.2588 38.7532 64.9229C40.2069 64.5071 41.7012 64.2676 43.2076 64.255L43.8343 55.8485L44.0541 51.8663H43.2262C41.9651 51.8663 40.7141 51.6445 39.5208 51.2184Z" stroke="#434955" stroke-width="0.688" stroke-miterlimit="10" stroke-linecap="round" stroke-linejoin="round"/>
  <path opacity="0.13" d="M34.9633 64.8452C33.8906 64.8452 32.7468 64.6598 31.3639 64.2618C29.6618 63.7718 28.1929 63.6036 27.2604 63.5488C27.239 63.5475 27.2067 63.5166 27.2041 63.4641L26.6439 52.6523C26.6415 52.6066 26.6622 52.5796 26.6711 52.5702C26.6861 52.5544 26.6971 52.5544 26.7007 52.5544C28.0342 52.5544 29.3587 52.3229 30.6372 51.8665C32.1747 51.3174 33.5898 51.0507 34.9632 51.0507C36.3367 51.0507 37.7518 51.3175 39.2893 51.8665C40.5679 52.3229 41.8923 52.5544 43.2258 52.5544H43.3267L43.1475 55.804L42.5674 63.5852C41.2555 63.649 39.9118 63.8758 38.5637 64.2615C37.6876 64.5121 36.361 64.8452 34.9633 64.8452Z" stroke="#434955" stroke-width="0.172" stroke-miterlimit="10" stroke-linecap="round" stroke-linejoin="round"/>
  <path d="M38.3846 33.6873L38.237 32.3764C37.7158 32.4551 37.1924 32.5182 36.6674 32.5656C36.0329 31.9951 35.2085 31.6517 34.3061 31.651C33.4036 31.6517 32.5793 31.9951 31.9448 32.5656C31.4197 32.5181 30.8963 32.455 30.375 32.3764L30.2274 33.6873C30.1322 34.5295 29.9762 35.3637 29.7606 36.1834C30.332 36.2705 30.9058 36.3411 31.4812 36.3953C32.0714 37.1485 33.1128 37.6678 34.306 37.6665C35.4992 37.6678 36.5406 37.1485 37.1307 36.3953C37.7061 36.3411 38.2799 36.2705 38.8513 36.1834C38.6357 35.3637 38.4797 34.5295 38.3846 33.6873Z" stroke="#434955" stroke-width="0.688" stroke-miterlimit="10" stroke-linecap="round" stroke-linejoin="round"/>
  <path d="M38.3845 33.6873L37.1825 23.0107C37.0606 21.9273 37.1984 20.8323 37.5865 19.8036H31.0254C31.4135 20.8322 31.5513 21.9272 31.4294 23.0107L30.2274 33.6873C29.9173 36.4413 28.955 39.0986 27.4085 41.4709C25.2459 44.7886 24.2404 48.6401 24.5284 52.5032L25.4859 65.3469C25.5998 66.8741 26.9079 68.094 28.5608 68.2141L31.392 68.4199C33.332 68.5609 35.2797 68.5609 37.2197 68.4199L40.051 68.2141C41.7038 68.094 43.0119 66.8741 43.1258 65.3469L44.0833 52.5032C44.3713 48.6401 43.3658 44.7886 41.2032 41.4709C39.6569 39.0986 38.6946 36.4413 38.3845 33.6873Z" stroke="#434955" stroke-width="0.688" stroke-miterlimit="10" stroke-linecap="round" stroke-linejoin="round"/>
  <path d="M54.0575 52.8213L51.5201 56.1085L48.9827 52.8213C47.6467 51.0906 46.9503 48.8767 47.03 46.6137L47.5874 34.6356H55.4528L56.0102 46.6137C56.0899 48.8767 55.3935 51.0906 54.0575 52.8213Z" fill="#ED6A56"/>
  <path d="M55.7497 41.015H47.2905L47.03 46.6137C46.9503 48.8767 47.6467 51.0906 48.9827 52.8213L51.5201 56.1085L54.0575 52.8213C55.3935 51.0906 56.0899 48.8767 56.0102 46.6137L55.7497 41.015Z" fill="#F2A356"/>
  <path d="M49.7363 52.8213C48.9848 51.8478 48.4357 50.7214 48.1132 49.5194C47.8596 48.5726 47.7485 47.5933 47.7835 46.6138L47.8244 45.7335L48.3409 34.6357H47.5874L47.0709 45.7335L47.0299 46.6138C47.0249 46.7553 47.023 46.8965 47.0241 47.0375C47.03 47.8757 47.1428 48.7097 47.3596 49.5194C47.6821 50.7214 48.2313 51.8479 48.9827 52.8213L51.5202 56.1085L51.7249 55.7063L49.7363 52.8213Z" fill="#FCFFFA"/>
  <path d="M51.5201 56.1085V67.9236M47.3054 67.9236H55.7348" stroke="#434955" stroke-width="0.688" stroke-miterlimit="10" stroke-linecap="round" stroke-linejoin="round"/>
  <path d="M55.5503 42.5184L55.4996 40.4278H47.5404L47.4899 42.5184H55.5503Z" fill="#FCFFFA"/>
  <path d="M48.8799 42.2257C49.6852 42.2257 50.338 41.5729 50.338 40.7676C50.338 39.9623 49.6852 39.3095 48.8799 39.3095C48.0746 39.3095 47.4218 39.9623 47.4218 40.7676C47.4218 41.5729 48.0746 42.2257 48.8799 42.2257Z" fill="#FCFFFA"/>
  <path d="M50.9672 42.5757C51.7725 42.5757 52.4253 41.9229 52.4253 41.1176C52.4253 40.3122 51.7725 39.6594 50.9672 39.6594C50.1619 39.6594 49.509 40.3122 49.509 41.1176C49.509 41.9229 50.1619 42.5757 50.9672 42.5757Z" fill="#FCFFFA"/>
  <path d="M52.6855 42.1803C53.3292 42.1803 53.8509 41.6586 53.8509 41.0149C53.8509 40.3713 53.3292 39.8495 52.6855 39.8495C52.0419 39.8495 51.5201 40.3713 51.5201 41.0149C51.5201 41.6586 52.0419 42.1803 52.6855 42.1803Z" fill="#FCFFFA"/>
  <path d="M53.9721 41.1175C54.4224 41.1175 54.7875 40.7524 54.7875 40.3021C54.7875 39.8517 54.4224 39.4866 53.9721 39.4866C53.5217 39.4866 53.1566 39.8517 53.1566 40.3021C53.1566 40.7524 53.5217 41.1175 53.9721 41.1175Z" fill="#FCFFFA"/>
  <path d="M54.9917 41.1176C55.3293 41.1176 55.6029 40.8439 55.6029 40.5063C55.6029 40.1687 55.3293 39.895 54.9917 39.895C54.6541 39.895 54.3804 40.1687 54.3804 40.5063C54.3804 40.8439 54.6541 41.1176 54.9917 41.1176Z" fill="#FCFFFA"/>
  <path d="M53.2827 37.1121C53.4873 37.1121 53.6532 36.9462 53.6532 36.7416C53.6532 36.537 53.4873 36.3711 53.2827 36.3711C53.0781 36.3711 52.9122 36.537 52.9122 36.7416C52.9122 36.9462 53.0781 37.1121 53.2827 37.1121Z" fill="#FCFFFA"/>
  <path d="M54.0575 52.8213L51.5201 56.1085L48.9827 52.8213C47.6467 51.0906 46.9503 48.8767 47.03 46.6137L47.5874 34.6356H55.4528L56.0102 46.6137C56.0899 48.8767 55.3935 51.0906 54.0575 52.8213Z" stroke="#434955" stroke-width="0.688" stroke-miterlimit="10" stroke-linecap="round" stroke-linejoin="round"/>
  <path opacity="0.5" d="M49.8326 36.1752V38.5283" stroke="white" stroke-width="1.204" stroke-miterlimit="10" stroke-linecap="round" stroke-linejoin="round"/>
  <path d="M53.7467 45.372C54.0172 45.372 54.2365 45.1527 54.2365 44.8822C54.2365 44.6116 54.0172 44.3923 53.7467 44.3923C53.4762 44.3923 53.2568 44.6116 53.2568 44.8822C53.2568 45.1527 53.4762 45.372 53.7467 45.372Z" fill="#FFEEEE"/>
  <path d="M53.9721 49.475C54.1742 49.475 54.3381 49.3111 54.3381 49.109C54.3381 48.9069 54.1742 48.743 53.9721 48.743C53.7699 48.743 53.6061 48.9069 53.6061 49.109C53.6061 49.3111 53.7699 49.475 53.9721 49.475Z" fill="#434955"/>
  <path d="M51.1527 46.4665C51.2297 46.4665 51.2921 46.4041 51.2921 46.3271C51.2921 46.2501 51.2297 46.1877 51.1527 46.1877C51.0757 46.1877 51.0133 46.2501 51.0133 46.3271C51.0133 46.4041 51.0757 46.4665 51.1527 46.4665Z" fill="#FFEEEE"/>
  <path d="M50.4775 48.2679C50.5545 48.2679 50.6169 48.2055 50.6169 48.1285C50.6169 48.0515 50.5545 47.9891 50.4775 47.9891C50.4005 47.9891 50.3381 48.0515 50.3381 48.1285C50.3381 48.2055 50.4005 48.2679 50.4775 48.2679Z" fill="#FFEEEE"/>
  <path d="M51.9679 49.9C52.0449 49.9 52.1073 49.8376 52.1073 49.7606C52.1073 49.6836 52.0449 49.6212 51.9679 49.6212C51.8909 49.6212 51.8285 49.6836 51.8285 49.7606C51.8285 49.8376 51.8909 49.9 51.9679 49.9Z" fill="#FFEEEE"/>
  <path opacity="0.5" d="M49.1472 47.0021C49.1943 48.378 49.5651 49.8855 50.8633 51.2159M49.2502 44.4226V45.0351" stroke="white" stroke-width="1.204" stroke-miterlimit="10" stroke-linecap="round" stroke-linejoin="round"/>
  <path d="M60.2906 52.8213L57.7531 56.1085L55.2157 52.8213C53.8798 51.0906 53.1833 48.8767 53.263 46.6137L53.8204 34.6356H61.6858L62.2433 46.6137C62.3229 48.8767 61.6264 51.0906 60.2906 52.8213Z" fill="#ED6A56"/>
  <path d="M61.9827 41.015H53.5236L53.263 46.6137C53.1833 48.8767 53.8798 51.0906 55.2157 52.8213L57.7531 56.1085L60.2906 52.8213C61.6265 51.0906 62.3229 48.8767 62.2433 46.6137L61.9827 41.015Z" fill="#F2A356"/>
  <path d="M55.9693 52.8213C55.2178 51.8478 54.6687 50.7214 54.3462 49.5194C54.0926 48.5726 53.9815 47.5933 54.0165 46.6138L54.0574 45.7335L54.5739 34.6357H53.8204L53.3039 45.7335L53.263 46.6138C53.258 46.7553 53.2561 46.8965 53.2571 47.0375C53.2631 47.8757 53.3758 48.7097 53.5927 49.5194C53.9152 50.7214 54.4643 51.8479 55.2158 52.8213L57.7532 56.1085L57.958 55.7063L55.9693 52.8213Z" fill="#FCFFFA"/>
  <path d="M57.7531 56.1085V67.9236M53.5385 67.9236H61.9678" stroke="#434955" stroke-width="0.688" stroke-miterlimit="10" stroke-linecap="round" stroke-linejoin="round"/>
  <path d="M61.7833 42.5184L61.7327 40.4278H53.7735L53.7229 42.5184H61.7833Z" fill="#FCFFFA"/>
  <path d="M55.1129 42.2257C55.9182 42.2257 56.571 41.5729 56.571 40.7676C56.571 39.9623 55.9182 39.3095 55.1129 39.3095C54.3076 39.3095 53.6548 39.9623 53.6548 40.7676C53.6548 41.5729 54.3076 42.2257 55.1129 42.2257Z" fill="#FCFFFA"/>
  <path d="M57.2002 42.5757C58.0055 42.5757 58.6583 41.9229 58.6583 41.1176C58.6583 40.3122 58.0055 39.6594 57.2002 39.6594C56.3949 39.6594 55.7421 40.3122 55.7421 41.1176C55.7421 41.9229 56.3949 42.5757 57.2002 42.5757Z" fill="#FCFFFA"/>
  <path d="M58.933 43.2184C59.7383 43.2184 60.3911 42.5656 60.3911 41.7603C60.3911 40.955 59.7383 40.3021 58.933 40.3021C58.1277 40.3021 57.4749 40.955 57.4749 41.7603C57.4749 42.5656 58.1277 43.2184 58.933 43.2184Z" fill="#FCFFFA"/>
  <path d="M60.2052 41.1175C60.6556 41.1175 61.0207 40.7524 61.0207 40.3021C61.0207 39.8517 60.6556 39.4866 60.2052 39.4866C59.7549 39.4866 59.3898 39.8517 59.3898 40.3021C59.3898 40.7524 59.7549 41.1175 60.2052 41.1175Z" fill="#FCFFFA"/>
  <path d="M61.2247 41.1176C61.5623 41.1176 61.836 40.8439 61.836 40.5063C61.836 40.1687 61.5623 39.895 61.2247 39.895C60.8871 39.895 60.6134 40.1687 60.6134 40.5063C60.6134 40.8439 60.8871 41.1176 61.2247 41.1176Z" fill="#FCFFFA"/>
  <path d="M59.8453 38.8302C60.0297 38.8302 60.1793 38.6807 60.1793 38.4962C60.1793 38.3117 60.0297 38.1622 59.8453 38.1622C59.6608 38.1622 59.5112 38.3117 59.5112 38.4962C59.5112 38.6807 59.6608 38.8302 59.8453 38.8302Z" fill="#FCFFFA"/>
  <path d="M60.2906 52.8213L57.7531 56.1085L55.2157 52.8213C53.8798 51.0906 53.1833 48.8767 53.263 46.6137L53.8204 34.6356H61.6858L62.2433 46.6137C62.3229 48.8767 61.6264 51.0906 60.2906 52.8213Z" stroke="#434955" stroke-width="0.688" stroke-miterlimit="10" stroke-linecap="round" stroke-linejoin="round"/>
  <path opacity="0.5" d="M56.0657 36.1752V38.5283" stroke="white" stroke-width="1.204" stroke-miterlimit="10" stroke-linecap="round" stroke-linejoin="round"/>
  <path d="M59.9797 45.372C60.2503 45.372 60.4696 45.1527 60.4696 44.8822C60.4696 44.6116 60.2503 44.3923 59.9797 44.3923C59.7092 44.3923 59.4899 44.6116 59.4899 44.8822C59.4899 45.1527 59.7092 45.372 59.9797 45.372Z" fill="#FFEEEE"/>
  <path d="M57.3857 46.4665C57.4627 46.4665 57.5251 46.4041 57.5251 46.3271C57.5251 46.2501 57.4627 46.1877 57.3857 46.1877C57.3087 46.1877 57.2463 46.2501 57.2463 46.3271C57.2463 46.4041 57.3087 46.4665 57.3857 46.4665Z" fill="#FFEEEE"/>
  <path d="M60.2052 48.7011C60.2822 48.7011 60.3446 48.6387 60.3446 48.5617C60.3446 48.4847 60.2822 48.4223 60.2052 48.4223C60.1282 48.4223 60.0658 48.4847 60.0658 48.5617C60.0658 48.6387 60.1282 48.7011 60.2052 48.7011Z" fill="#FFEEEE"/>
  <path d="M58.2008 49.9C58.2778 49.9 58.3402 49.8376 58.3402 49.7606C58.3402 49.6836 58.2778 49.6212 58.2008 49.6212C58.1238 49.6212 58.0614 49.6836 58.0614 49.7606C58.0614 49.8376 58.1238 49.9 58.2008 49.9Z" fill="#FFEEEE"/>
  <path opacity="0.5" d="M55.3802 47.0021C55.4273 48.378 55.7981 49.8855 57.0964 51.2159M55.4832 44.4226V45.0351" stroke="white" stroke-width="1.204" stroke-miterlimit="10" stroke-linecap="round" stroke-linejoin="round"/>
  <path d="M75.078 68.5255H11.266L14.19 75.25H19.866C19.866 75.25 24.4802 72.842 24.4802 73.53C24.4802 74.218 31.5294 80.066 31.5294 80.066C31.5294 80.066 33.7694 82.474 36.8797 80.754C39.9901 79.034 42.8412 78.3129 43.4962 77.658C44.712 76.4422 42.9676 74.5248 43.4762 74.2041C44.4948 73.5619 49.0123 80.1791 51.152 79.2376C52.0328 78.85 51.7783 77.5037 52.8643 77.0803C54.0233 76.6283 54.6783 78.0193 56.8838 78.3205C59.0691 78.6189 61.4472 77.666 61.4901 77.658C61.4901 77.658 61.1243 76.6912 62.8661 74.9495C64.6077 73.2078 65.36 72.584 66.822 74.046C68.284 75.508 68.112 76.884 68.886 77.658C69.5066 78.2787 69.7531 79.1126 70.0024 79.0382C70.5444 78.8761 69.8402 75.1823 70.1816 75.1107C70.4734 75.0495 71.1277 77.7212 71.8806 77.6627C71.9806 77.6549 72.1924 77.4445 72.65 77.0686C72.8372 76.9147 73.0572 76.7178 73.3581 76.4169C74.4574 75.3174 75.078 74.906 75.078 73.53V68.5255Z" fill="#FCFFFA"/>
  <path d="M75.078 68.5255H11.266" stroke="#434955" stroke-width="0.688" stroke-miterlimit="10" stroke-linecap="round" stroke-linejoin="round"/>
  <path d="M36.3603 17.992H32.0889C31.544 17.992 31.1023 17.5503 31.1023 17.0054V16.6457C31.1023 16.1008 31.544 15.6591 32.0889 15.6591H36.3603C36.9052 15.6591 37.3469 16.1008 37.3469 16.6457V17.0054C37.3468 17.5503 36.9051 17.992 36.3603 17.992Z" fill="#ED6A56"/>
  <path d="M31.9748 17.0055V16.6458C31.9748 16.1009 32.4165 15.6592 32.9614 15.6592H32.0888C31.5439 15.6592 31.1023 16.1009 31.1023 16.6458V17.0055C31.1023 17.5504 31.544 17.992 32.0888 17.992H32.9614C32.4165 17.992 31.9748 17.5503 31.9748 17.0055Z" fill="#FCFFFA"/>
  <path d="M36.3603 17.992H32.0889C31.544 17.992 31.1023 17.5503 31.1023 17.0054V16.6457C31.1023 16.1008 31.544 15.6591 32.0889 15.6591H36.3603C36.9052 15.6591 37.3469 16.1008 37.3469 16.6457V17.0054C37.3468 17.5503 36.9051 17.992 36.3603 17.992Z" stroke="#434955" stroke-width="0.688" stroke-miterlimit="10" stroke-linecap="round" stroke-linejoin="round"/>
  <path opacity="0.5" d="M32.7372 16.5645V16.7979" stroke="white" stroke-width="1.204" stroke-miterlimit="10" stroke-linecap="round" stroke-linejoin="round"/>
  <path d="M36.1407 20.3129H31.7108C30.9658 20.3129 30.3619 19.709 30.3619 18.964C30.3619 18.2191 30.9658 17.6152 31.7108 17.6152H36.1407C36.8856 17.6152 37.4895 18.2191 37.4895 18.964C37.4895 19.709 36.8856 20.3129 36.1407 20.3129Z" fill="#ED6A56"/>
  <path d="M31.4068 18.964C31.4068 18.2191 31.9639 17.6152 32.6512 17.6152H31.6064C30.919 17.6152 30.3619 18.2191 30.3619 18.964C30.3619 19.709 30.9191 20.3129 31.6064 20.3129H32.6512C31.9639 20.3128 31.4068 19.709 31.4068 18.964Z" fill="#FCFFFA"/>
  <path d="M36.1407 20.3129H31.7108C30.9658 20.3129 30.3619 19.709 30.3619 18.964C30.3619 18.2191 30.9658 17.6152 31.7108 17.6152H36.1407C36.8856 17.6152 37.4895 18.2191 37.4895 18.964C37.4895 19.709 36.8856 20.3129 36.1407 20.3129Z" stroke="#434955" stroke-width="0.688" stroke-miterlimit="10" stroke-linecap="round" stroke-linejoin="round"/>
  <path d="M38.4633 14.5983C38.4712 14.5338 38.4764 14.4685 38.4764 14.4019C38.4764 13.5084 37.7521 12.7841 36.8587 12.7841C36.4963 12.784 36.1445 12.9061 35.8601 13.1307C35.6638 13.0492 35.4534 13.0073 35.2408 13.0074C34.6471 13.0074 34.1296 13.3283 33.8481 13.8051C33.6517 13.7193 33.4353 13.69 33.2231 13.7203C32.7049 13.7926 32.2923 14.2196 32.2381 14.74C32.1657 15.4339 32.708 16.0197 33.387 16.0197C33.6565 16.0197 33.9037 15.9268 34.1002 15.7721C34.2706 15.9421 34.4768 16.0718 34.7039 16.1516C34.9309 16.2315 35.1729 16.2596 35.4122 16.2337V16.243C35.6241 16.243 35.8274 16.3272 35.9772 16.477C36.1271 16.6269 36.2113 16.8302 36.2113 17.0421V22.4901C36.2113 23.1172 36.7196 23.6257 37.3468 23.6257C37.9739 23.6257 38.4824 23.1173 38.4824 22.4901V14.8005C38.4824 14.7314 38.4751 14.664 38.4633 14.5983Z" fill="#FCFFFA"/>
  <path d="M38.4633 14.5983C38.4712 14.5338 38.4764 14.4685 38.4764 14.4019C38.4764 13.5084 37.7521 12.7841 36.8587 12.7841C36.4963 12.784 36.1445 12.9061 35.8601 13.1307C35.6638 13.0492 35.4534 13.0073 35.2408 13.0074C34.6471 13.0074 34.1296 13.3283 33.8481 13.8051C33.6517 13.7193 33.4353 13.69 33.2231 13.7203C32.7049 13.7926 32.2923 14.2196 32.2381 14.74C32.1657 15.4339 32.708 16.0197 33.387 16.0197C33.6565 16.0197 33.9037 15.9268 34.1002 15.7721C34.2706 15.9421 34.4768 16.0718 34.7039 16.1516C34.9309 16.2315 35.1729 16.2596 35.4122 16.2337V16.243C35.6241 16.243 35.8274 16.3272 35.9772 16.477C36.1271 16.6269 36.2113 16.8302 36.2113 17.0421V22.4901C36.2113 23.1172 36.7196 23.6257 37.3468 23.6257C37.9739 23.6257 38.4824 23.1173 38.4824 22.4901V14.8005C38.4824 14.7314 38.4751 14.664 38.4633 14.5983Z" stroke="#434955" stroke-width="0.688" stroke-miterlimit="10" stroke-linecap="round" stroke-linejoin="round"/>
  <path opacity="0.5" d="M32.4792 18.7147V19.1814" stroke="white" stroke-width="1.204" stroke-miterlimit="10" stroke-linecap="round" stroke-linejoin="round"/>
  <path d="M34.9366 57.9479C36.7844 57.9479 38.2823 57.0198 38.2823 55.875C38.2823 54.7301 36.7844 53.802 34.9366 53.802C33.0888 53.802 31.5909 54.7301 31.5909 55.875C31.5909 57.0198 33.0888 57.9479 34.9366 57.9479Z" fill="#FCFFFA"/>
</svg>