<svg width="71" height="57" viewBox="0 0 71 57" fill="none" xmlns="http://www.w3.org/2000/svg">
<g clip-path="url(#clip0_432_496)">
<path opacity="0.12" d="M32.0017 9.99471C29.5408 12.0632 27.5409 14.7495 24.6934 16.2419C23.0995 17.0762 21.3265 17.4881 19.5938 17.9657C13.7466 19.5775 7.65454 22.4743 5.10401 27.9783C4.53092 29.217 4.1608 30.5482 3.49668 31.7392C2.95642 32.7032 2.2341 33.5539 1.65355 34.5031C0.201712 36.8747 -0.318389 39.7007 0.19397 42.4338C0.858094 45.8857 3.16685 48.8735 6.03378 50.9062C8.08643 52.3598 10.4161 53.3758 12.878 53.891C18.4775 55.0611 24.2472 53.5642 29.9601 53.2941C40.5562 52.7807 51.2031 56.4759 61.6604 54.691C64.5721 54.194 67.6196 53.1254 69.3061 50.7002C70.4403 49.0675 70.8074 47.02 70.9029 45.0291C71.1414 39.7104 69.653 34.4573 66.66 30.0542C65.5661 28.4544 64.2483 26.9202 63.8379 25.0188C63.5976 23.9085 63.6886 22.7533 63.5603 21.6251C63.406 20.3693 62.98 19.1622 62.312 18.0877C61.644 17.0132 60.7499 16.0972 59.692 15.4032C57.2772 13.8421 54.1417 13.5272 51.9732 11.6408C48.9317 8.9933 47.981 6.2995 43.5351 5.97863C39.3668 5.67716 35.1657 7.33672 32.0017 9.99471Z" fill="#9068FD"/>
<path d="M46.0886 18.091C46.0886 18.091 47.3781 20.8445 47.9944 21.4922C48.6108 22.1399 57.7145 26.2411 57.7145 26.2411C57.7145 26.2411 58.0682 26.6739 58.7383 26.4127C59.4084 26.1515 60.1262 24.4263 60.1262 24.4263C60.1262 24.4263 59.6218 23.698 59.0069 23.6667C58.3921 23.6353 58.7383 23.1563 58.7383 23.1563L57.6533 23.6667C57.6533 23.6667 56.9967 24.004 55.2744 22.7324C53.5522 21.4609 50.0644 19.8237 50.0644 19.8237L49.3182 17.703L46.0886 18.091Z" fill="url(#paint0_linear_432_496)"/>
<path d="M46.0886 18.091C46.0886 18.091 47.3781 20.8445 47.9944 21.4922C48.6108 22.1399 57.7145 26.2411 57.7145 26.2411C57.7145 26.2411 58.0682 26.6739 58.7383 26.4127C59.4084 26.1515 60.1262 24.4263 60.1262 24.4263C60.1262 24.4263 59.6218 23.698 59.0069 23.6667C58.3921 23.6353 58.7383 23.1563 58.7383 23.1563L57.6533 23.6667C57.6533 23.6667 56.9967 24.004 55.2744 22.7324C53.5522 21.4609 50.0644 19.8237 50.0644 19.8237L49.3182 17.703L46.0886 18.091Z" fill="url(#paint1_linear_432_496)"/>
<path d="M48.9631 11.5751L49.5347 16.8687V17.9194H48.6646L47.3348 15.5584L48.9631 11.5751Z" fill="#9068FD"/>
<path d="M48.9631 11.5751L49.5347 16.8687V17.9194H48.6646L47.3348 15.5584L48.9631 11.5751Z" fill="url(#paint2_linear_432_496)"/>
<path d="M22.1415 52.0374C20.8177 51.9927 19.4924 51.9494 18.1702 52.021C16.5195 52.1121 14.8868 52.3822 13.2541 52.6523L8.58887 53.4254C9.58729 54.5522 11.1678 54.9178 12.6423 55.2282C13.8914 55.4924 15.1555 55.7535 16.4285 55.8431C17.9209 55.9491 19.4342 55.8132 20.9341 55.7237C26.6978 55.3819 32.4779 55.7133 38.2461 55.9282C47.2503 56.2654 56.2585 56.3207 65.2707 56.0938C65.0573 55.4491 64.3931 55.0491 63.726 54.9178C63.0589 54.7865 62.3724 54.8879 61.6948 54.9357C59.1757 55.1148 56.9012 54.5134 54.5925 53.5776C52.6732 52.8001 50.7435 52.9896 48.6855 52.9209L31.8212 52.3598L22.1415 52.0374Z" fill="url(#paint3_linear_432_496)"/>
<path d="M43.5127 48.1736C45.4118 48.1736 46.9513 46.6174 46.9513 44.6978C46.9513 42.7781 45.4118 41.2219 43.5127 41.2219C41.6137 41.2219 40.0742 42.7781 40.0742 44.6978C40.0742 46.6174 41.6137 48.1736 43.5127 48.1736Z" fill="#9068FD"/>
<path d="M43.5127 48.1736C45.4118 48.1736 46.9513 46.6174 46.9513 44.6978C46.9513 42.7781 45.4118 41.2219 43.5127 41.2219C41.6137 41.2219 40.0742 42.7781 40.0742 44.6978C40.0742 46.6174 41.6137 48.1736 43.5127 48.1736Z" fill="url(#paint4_linear_432_496)"/>
<path d="M18.0462 54.8148C15.7475 54.8148 13.5003 54.1332 11.5889 52.856C9.67753 51.5789 8.1878 49.7636 7.30809 47.6398C6.42838 45.516 6.1982 43.179 6.64668 40.9244C7.09515 38.6698 8.20212 36.5988 9.82761 34.9733C11.4531 33.3478 13.5241 32.2408 15.7787 31.7924C18.0334 31.3439 20.3703 31.5741 22.4941 32.4538C24.6179 33.3335 26.4332 34.8232 27.7103 36.7346C28.9875 38.646 29.6692 40.8931 29.6692 43.1919C29.6644 46.2731 28.4383 49.2267 26.2597 51.4053C24.081 53.584 21.1274 54.8101 18.0462 54.8148ZM18.0462 32.9465C16.0195 32.9465 14.0383 33.5475 12.3532 34.6735C10.6681 35.7996 9.35472 37.4 8.5792 39.2725C7.80368 41.1449 7.60085 43.2053 7.99635 45.193C8.39185 47.1808 9.36792 49.0066 10.8011 50.4396C12.2343 51.8726 14.0603 52.8484 16.0481 53.2436C18.0359 53.6388 20.0963 53.4357 21.9686 52.6599C23.841 51.8841 25.4412 50.5705 26.567 48.8852C27.6927 47.1999 28.2934 45.2186 28.2931 43.1919C28.29 40.4754 27.2093 37.8711 25.2883 35.9503C23.3673 34.0296 20.7628 32.9493 18.0462 32.9465ZM59.5219 55.77C57.2518 55.7697 55.0328 55.0962 53.1456 53.8347C51.2583 52.5732 49.7876 50.7803 48.9193 48.6828C48.0511 46.5854 47.8244 44.2776 48.2679 42.0512C48.7113 39.8249 49.8051 37.7801 51.4108 36.1755C53.0165 34.5708 55.062 33.4784 57.2886 33.0364C59.5152 32.5943 61.8229 32.8226 63.9198 33.6922C66.0167 34.5618 67.8086 36.0337 69.0688 37.9218C70.3291 39.8098 71.0012 42.0292 71 44.2993C70.9945 47.3411 69.7832 50.2566 67.6316 52.4068C65.48 54.557 62.5637 55.7664 59.5219 55.77ZM59.5219 34.3046C57.5465 34.3046 55.6156 34.8903 53.9731 35.9876C52.3305 37.0849 51.0503 38.6446 50.2941 40.4694C49.5379 42.2943 49.3397 44.3024 49.7246 46.2398C50.1096 48.1773 51.0603 49.9571 52.4567 51.3543C53.853 52.7515 55.6323 53.7033 57.5695 54.0894C59.5067 54.4755 61.5149 54.2785 63.3402 53.5234C65.1655 52.7683 66.726 51.489 67.8243 49.8471C68.9226 48.2053 69.5094 46.2746 69.5106 44.2993C69.5106 41.6492 68.4585 39.1074 66.5856 37.2325C64.7126 35.3576 62.172 34.3029 59.5219 34.3001V34.3046Z" fill="black"/>
<path d="M59.8696 46.6498C59.8017 46.7046 59.7192 46.7383 59.6323 46.7468C54.5238 44.9172 53.5134 31.9063 53.5134 31.9063L54.7685 31.6392C54.7685 31.672 54.7685 31.7063 54.7775 31.7392C55.6282 42.5069 59.9159 46.4916 59.9159 46.4916C59.9214 46.5198 59.9201 46.5488 59.912 46.5764C59.904 46.6039 59.8894 46.6291 59.8696 46.6498Z" fill="#9068FD"/>
<path d="M59.8696 46.6498C54.973 44.5037 53.9955 31.9123 53.9955 31.9123L54.7805 31.7451C55.6312 42.5129 59.9189 46.4976 59.9189 46.4976C59.923 46.5251 59.9207 46.5531 59.9122 46.5795C59.9036 46.6059 59.8891 46.63 59.8696 46.6498Z" fill="url(#paint5_linear_432_496)"/>
<path d="M30.4243 25.2218L35.2135 34.4747L38.1759 34.2449L38.3759 24.9218C38.3759 24.9218 31.1407 19.0387 30.4243 25.2218Z" fill="#E599F7"/>
<path d="M38.1221 35.1597L37.952 34.2643L35.2134 34.4762L35.6402 35.6985L35.4492 36.2955C35.0837 37.4406 35.0093 38.6588 35.2328 39.8399L39.2265 47.899L40.6592 47.8049L38.1221 35.1597Z" fill="url(#paint6_linear_432_496)"/>
<path d="M33.1734 29.4617H34.4404L31.769 44.5276C31.744 44.672 31.6687 44.803 31.5564 44.8972C31.4442 44.9914 31.3022 45.0429 31.1556 45.0425H31.1452C31.0541 45.0423 30.9641 45.0223 30.8815 44.9837C30.799 44.9451 30.7259 44.8889 30.6673 44.8191C30.6087 44.7493 30.5661 44.6676 30.5425 44.5796C30.5188 44.4916 30.5146 44.3995 30.5303 44.3097L33.1734 29.4617Z" fill="#9068FD"/>
<path d="M33.1733 32.257L53.1761 27.2902V28.7901L33.1733 33.8538V32.257ZM31.8271 42.0636L53.1761 29.099V30.9466L31.8271 43.753V42.0636Z" fill="#9068FD"/>
<path d="M31.8271 42.0636L53.1761 29.0991V30.9467L31.8271 43.7531V42.0636Z" fill="url(#paint7_linear_432_496)"/>
<path d="M55.5043 27.1977V30.8929C55.5044 31.0961 55.4332 31.2928 55.3031 31.4488C55.173 31.6048 54.9923 31.7102 54.7924 31.7466L54.1954 31.8555C54.0703 31.8785 53.9417 31.8737 53.8186 31.8414C53.6956 31.8091 53.5811 31.7501 53.4834 31.6687C53.3857 31.5872 53.3071 31.4852 53.2533 31.37C53.1994 31.2548 53.1715 31.1291 53.1716 31.0019V27.3052C53.1718 27.1021 53.2431 26.9055 53.3731 26.7496C53.5032 26.5936 53.6838 26.4881 53.8835 26.4515L53.9925 26.4321L54.4775 26.3441C54.6028 26.3206 54.7318 26.325 54.8552 26.3571C54.9786 26.3891 55.0935 26.448 55.1915 26.5296C55.2896 26.6111 55.3684 26.7132 55.4225 26.8287C55.4766 26.9442 55.5045 27.0702 55.5043 27.1977Z" fill="#9068FD"/>
<path d="M55.5043 26.9589V31.0586C55.5044 31.2153 55.4495 31.367 55.3491 31.4873C55.2487 31.6075 55.1093 31.6888 54.9551 31.7167L53.9642 31.8988C53.8677 31.9163 53.7686 31.9124 53.6739 31.8874C53.5791 31.8624 53.491 31.8169 53.4157 31.7541C53.3404 31.6914 53.2798 31.6129 53.2382 31.5242C53.1965 31.4354 53.1749 31.3387 53.1747 31.2407V27.1365C53.1746 26.9799 53.2296 26.8281 53.3299 26.7079C53.4303 26.5876 53.5697 26.5064 53.7239 26.4784L53.9955 26.4276L54.7149 26.2963C54.8117 26.2785 54.9113 26.2823 55.0065 26.3074C55.1017 26.3326 55.1902 26.3785 55.2656 26.4418C55.341 26.5051 55.4015 26.5842 55.4428 26.6736C55.4841 26.7631 55.5051 26.8605 55.5043 26.9589Z" fill="url(#paint8_linear_432_496)"/>
<path d="M56.3251 31.4482L55.5043 31.5974V26.1546L53.9955 26.4307V26.4157L56.3251 25.9874" fill="url(#paint9_linear_432_496)"/>
<path d="M55.5043 26.1545V31.5974L53.9955 31.8735V26.4306L55.5043 26.1545Z" fill="url(#paint10_linear_432_496)"/>
<path d="M33.1733 32.2585L15.6464 43.1531C15.6464 43.1531 14.8838 45.1007 15.6464 45.041C16.4091 44.9813 31.7645 44.5261 31.7645 44.5261L31.8212 42.8471L16.6389 44.2426C16.6389 44.2426 16.1479 43.9441 16.8434 43.3859C17.5388 42.8277 33.1733 33.8524 33.1733 33.8524V32.2585Z" fill="#9068FD"/>
<path d="M34.4403 29.4617L33.9807 32.0615L33.6822 33.7285L31.7674 44.5306C31.7424 44.675 31.6671 44.8059 31.5548 44.9002C31.4426 44.9944 31.3006 45.0459 31.154 45.0455H31.1436C31.0035 45.0453 30.8675 44.9979 30.7576 44.911C30.6476 44.8241 30.5702 44.7027 30.5377 44.5664C30.5165 44.4835 30.5135 44.397 30.5287 44.3127L30.772 42.9487L32.3002 34.3583L32.6121 32.6092L33.1718 29.4647L34.4403 29.4617Z" fill="url(#paint11_linear_432_496)"/>
<path d="M53.1746 27.2917V28.7901L33.6837 33.724L33.9807 32.0585L53.1746 27.2917Z" fill="url(#paint12_linear_432_496)"/>
<path d="M53.1761 30.9467L31.8271 43.7531Z" fill="url(#paint13_linear_432_496)"/>
<path d="M16.6434 44.244L30.7736 42.9456L30.5303 44.3097C30.5154 44.3978 30.6079 43.6739 30.6288 43.7545C26.9694 43.865 16.4196 44.3515 15.7256 44.6977C15.0316 45.044 16.1733 43.1919 16.1733 43.1919L32.4824 33.3524L32.3033 34.3553C29.0051 36.2522 17.4434 42.9068 16.8494 43.3874C16.1524 43.9485 16.6434 44.244 16.6434 44.244Z" fill="url(#paint14_linear_432_496)"/>
<path d="M56.6474 25.8621L55.8729 26.8202C55.8729 26.8202 55.8893 27.6022 56.4251 27.5574L59.5144 23.4817C59.5144 23.4817 61.2754 21.0296 59.6442 19.8999C59.277 19.6475 58.8549 19.4864 58.413 19.4298C56.2296 19.1387 54.2909 20.8595 54.2014 23.0593L54.0521 26.5889L55.0491 26.5307L55.2475 22.5877C55.3013 20.9461 58.0981 19.188 59.2502 20.8998C59.9054 21.8639 57.8652 24.4502 56.6474 25.8621Z" fill="#9068FD"/>
<path d="M47.226 8.69484C47.9617 8.0337 48.6408 7.22481 48.8049 6.24878C48.8736 5.8309 48.8512 5.39512 48.9049 4.97575C49.0049 4.20417 49.1437 3.35648 49.7422 2.85802C50.0389 2.63488 50.3823 2.48182 50.7466 2.41029C51.0696 2.32478 51.4037 2.28855 51.7375 2.30284C52.8031 2.37 53.7478 3.23261 53.9761 4.27432C54.0426 4.64502 54.0696 5.02171 54.0567 5.3981V6.46816C54.0416 6.70467 54.0725 6.94187 54.1478 7.16661C54.2283 7.36361 54.3806 7.55912 54.3298 7.76358C54.2657 7.91811 54.1524 8.04717 54.0075 8.13071C53.8276 8.27076 53.6675 8.43441 53.5314 8.61724C53.318 8.90527 53.1613 9.24255 52.8807 9.46492C52.421 9.83057 51.7659 9.78579 51.1853 9.69923C50.9355 9.64743 50.679 9.63634 50.4257 9.6664C49.8944 9.76341 49.5019 10.2275 48.9885 10.3947C48.9199 10.4206 48.8469 10.4327 48.7736 10.4305C48.5706 10.4171 48.4214 10.2455 48.2945 10.0873C47.9572 9.66192 47.5632 9.1157 47.226 8.69484Z" fill="url(#paint15_linear_432_496)"/>
<path d="M48.7958 13.2213C48.5384 14.1227 48.032 14.9333 47.3348 15.5599L38.6982 23.3384C38.0928 23.8844 37.383 24.3022 36.6117 24.5664C35.8404 24.8306 35.0236 24.9357 34.2105 24.8756C34.1598 24.8756 34.1075 24.8756 34.0613 24.8621C31.7092 24.6263 28.9363 23.619 29.6646 20.073C30.8839 14.1347 42.9471 9.16196 42.9471 9.16196C46.8647 7.51135 48.3198 8.91124 48.8137 10.6454C49.0467 11.4891 49.0405 12.381 48.7958 13.2213Z" fill="#9068FD"/>
<path d="M48.0481 12.1482L47.9183 13.5556C47.6676 14.4406 48.0481 14.9167 47.3407 15.5539L38.7042 23.3324C38.0987 23.8784 37.389 24.2962 36.6177 24.5604C35.8464 24.8245 35.0295 24.9297 34.2165 24.8696L32.4166 24.0726C32.4166 24.0726 33.4419 20.6938 39.2623 16.2419C45.0827 11.7901 48.0481 12.1482 48.0481 12.1482Z" fill="url(#paint16_linear_432_496)"/>
<path d="M39.1608 47.8154C39.123 47.8134 39.0854 47.8216 39.0519 47.8393C39.0248 47.8603 39.0045 47.8888 38.9937 47.9214C38.8683 48.2199 38.9817 48.5721 39.1041 48.8765C39.1185 48.9221 39.1436 48.9635 39.1772 48.9974C39.2131 49.0241 39.2553 49.041 39.2996 49.0466C39.613 49.0944 39.9115 48.8974 40.2294 48.8691C40.3916 48.8771 40.5543 48.8731 40.7159 48.8571C40.8505 48.816 40.9711 48.7385 41.0643 48.6332C41.1575 48.5278 41.2198 48.3987 41.2442 48.2601C41.291 47.9845 41.2854 47.7025 41.2278 47.4289C41.2269 47.3864 41.2098 47.3458 41.1801 47.3155C41.155 47.2999 41.1259 47.2921 41.0965 47.2931C40.9522 47.2847 40.8086 47.3184 40.6831 47.3901C40.5756 47.4513 40.4846 47.5393 40.3846 47.6035C40.0249 47.8169 39.5608 47.8079 39.1608 47.8154Z" fill="#9068FD"/>
<path d="M39.1608 47.8154C39.123 47.8134 39.0854 47.8216 39.0519 47.8393C39.0248 47.8603 39.0045 47.8888 38.9937 47.9214C38.8683 48.2199 38.9817 48.5721 39.1041 48.8765C39.1185 48.9221 39.1435 48.9635 39.1772 48.9974C39.2131 49.0241 39.2553 49.041 39.2996 49.0466C39.613 49.0944 39.9115 48.8974 40.2294 48.8691C40.3916 48.8771 40.5543 48.8731 40.7159 48.8571C40.8505 48.816 40.971 48.7385 41.0643 48.6332C41.1575 48.5278 41.2198 48.3987 41.2442 48.2601C41.291 47.9845 41.2854 47.7025 41.2278 47.4289C41.2269 47.3864 41.2098 47.3458 41.1801 47.3155C41.155 47.2999 41.1259 47.2921 41.0965 47.2931C40.9522 47.2847 40.8086 47.3184 40.6831 47.3901C40.5756 47.4513 40.4846 47.5393 40.3846 47.6035C40.0249 47.8169 39.5608 47.8079 39.1608 47.8154Z" fill="url(#paint17_linear_432_496)"/>
<path d="M39.6085 48.8884C39.4931 48.9249 39.3874 48.9872 39.2996 49.0705C39.1086 49.2705 39.1235 49.5824 39.1638 49.8555C39.2099 50.1765 39.2727 50.4948 39.3518 50.8092C39.3936 50.9734 39.4608 51.1614 39.622 51.2151C39.7048 51.2353 39.7913 51.2353 39.8742 51.2151C41.2992 50.967 42.7039 50.6138 44.0768 50.1585C44.1316 50.1471 44.181 50.1177 44.2171 50.0749C44.2463 50.0204 44.2527 49.9566 44.235 49.8973C44.0559 48.969 43.1635 49.0302 42.4367 48.9153C41.5009 48.7661 40.5219 48.5452 39.6085 48.8884Z" fill="#E599F7"/>
<path d="M32.3644 26.253C32.3644 26.253 29.5975 25.6993 29.8572 27.2365C30.1168 28.7737 30.3198 29.0901 31.1018 29.3259C34.4001 30.2825 37.8819 28.2096 37.8819 28.2096C37.8819 28.2096 38.1639 26.156 32.3644 26.253Z" fill="#9068FD"/>
<path d="M32.3644 26.253C32.3644 26.253 29.5975 25.6993 29.8572 27.2365C30.1168 28.7737 30.3198 29.0901 31.1018 29.3259C34.4001 30.2825 37.8819 28.2096 37.8819 28.2096C37.8819 28.2096 38.1639 26.156 32.3644 26.253Z" fill="url(#paint18_linear_432_496)"/>
<path d="M51.1151 5.69953C51.027 6.07711 50.9942 6.48454 50.7718 6.80093L50.4987 6.09353C50.484 6.0343 50.4499 5.98173 50.4017 5.94429C50.3711 5.93056 50.3377 5.92435 50.3042 5.92617C50.2707 5.92798 50.2381 5.93778 50.2092 5.95474C50.1093 6.00831 50.0257 6.08764 49.9669 6.18448C49.9081 6.28133 49.8763 6.39215 49.8749 6.50544C49.8751 6.73306 49.9431 6.95544 50.0704 7.14419C50.1123 7.19998 50.1418 7.2641 50.1569 7.33223C50.158 7.39337 50.1402 7.45336 50.106 7.50407C50.0719 7.55479 50.023 7.59378 49.9659 7.61579C49.8503 7.65715 49.7272 7.67343 49.6047 7.66355L48.9526 7.65459C48.3556 7.64564 47.6795 7.60385 47.287 7.15314C47.3766 7.02181 47.5855 7.0039 47.6721 6.88152C47.7006 6.83368 47.7156 6.77902 47.7156 6.72333C47.7156 6.66763 47.7006 6.61297 47.6721 6.56513C47.6128 6.47072 47.5363 6.38822 47.4467 6.32187L47.0229 5.97414C46.9124 5.88161 46.793 5.75923 46.8229 5.61894C46.8796 5.3518 47.396 5.36523 47.3915 5.09361C47.3915 4.96079 47.2512 4.87871 47.1363 4.81155C47.0214 4.74439 46.899 4.625 46.9453 4.50113C46.999 4.35188 47.2139 4.37427 47.3542 4.30114C47.3542 4.12504 47.0826 4.06086 47.0557 3.88924C47.0521 3.84143 47.063 3.79366 47.087 3.75214C47.111 3.71061 47.1469 3.67726 47.19 3.65642C47.2775 3.61769 47.372 3.59736 47.4676 3.59672L48.1213 3.54598C48.9734 3.4558 49.8315 3.43633 50.6867 3.48778C50.856 3.4938 51.0226 3.53178 51.1777 3.59971C51.3513 3.69504 51.4964 3.83458 51.5986 4.00415C51.7314 4.21608 51.6762 4.27726 51.5732 4.49516C51.3776 4.87894 51.224 5.28274 51.1151 5.69953Z" fill="#E599F7"/>
<path d="M56.3251 26.9232L55.8774 26.8202C55.8774 26.8202 55.8938 27.6022 56.4296 27.5574L59.5189 23.4817C59.5189 23.4817 61.2799 21.0296 59.6487 19.8999C59.2815 19.6475 58.8594 19.4864 58.4175 19.4298C56.2341 19.1387 54.2954 20.8595 54.2059 23.0593L54.0566 26.5889L54.4775 26.3396L54.7461 22.5101C54.7999 20.8684 57.8548 18.7791 59.6338 20.57C60.8904 21.8221 57.8712 25.9531 56.3251 26.9232Z" fill="url(#paint19_linear_432_496)"/>
<path opacity="0.42" d="M42.3964 48.6945C39.2862 48.6945 20.2744 46.5096 16.4508 46.0663C16.0746 46.0259 15.7286 45.8414 15.4854 45.5515C15.2422 45.2616 15.1208 44.8888 15.1464 44.5112C15.1927 44.0008 15.5315 43.3651 16.8896 43.2382C17.1284 43.2158 40.7249 41.025 43.0232 40.7772C44.238 40.6474 45.3558 40.9757 46.1692 41.701C46.5485 42.0498 46.8495 42.475 47.0525 42.9486C47.2555 43.4222 47.3557 43.9334 47.3467 44.4486C47.3602 47.2349 45.7767 48.6273 42.5038 48.693L42.3964 48.6945ZM16.912 43.5352C15.9852 43.6218 15.4897 43.959 15.4375 44.5381C15.4186 44.8386 15.5168 45.1347 15.7116 45.3643C15.9064 45.5939 16.1826 45.7391 16.4822 45.7693C20.352 46.2171 39.7906 48.4557 42.5009 48.3945C45.6185 48.3288 47.0647 47.0752 47.0512 44.45C47.0597 43.9763 46.9673 43.5062 46.7802 43.0708C46.5932 42.6355 46.3157 42.2449 45.9662 41.9249C45.22 41.2548 44.1828 40.9518 43.0516 41.0742C40.7518 41.322 17.1552 43.5128 16.915 43.5352H16.912Z" fill="black"/>
<path d="M54.476 2.55202C54.476 2.95348 54.4148 3.38627 54.1044 3.68028C53.8223 3.94742 53.394 4.04741 52.9866 4.11009C50.8149 4.43981 48.595 4.04763 46.6677 2.99377C46.3394 2.8102 45.9842 2.50127 46.1185 2.17891C46.1601 2.09131 46.2245 2.01654 46.3051 1.96251C46.4016 1.89816 46.504 1.84319 46.611 1.79835C47.5064 1.3954 48.4108 0.990954 49.3242 0.611881C49.8273 0.386796 50.3518 0.212803 50.8897 0.0925221C51.7553 -0.0776129 53.0508 -0.041795 53.791 0.46264C54.282 0.79694 54.4208 1.52673 54.4596 2.12519C54.4715 2.27891 54.4745 2.42516 54.476 2.55202Z" fill="#9068FD"/>
<path d="M54.4596 2.12519C54.4379 2.4211 54.312 2.69975 54.1044 2.91169C53.8223 3.18032 53.394 3.28031 52.9866 3.343C50.8147 3.67214 48.5948 3.27944 46.6677 2.22518C46.5366 2.1527 46.4148 2.06449 46.3051 1.96251C46.4016 1.89816 46.504 1.84319 46.611 1.79835C47.5064 1.3954 48.4108 0.990954 49.3242 0.611881C49.8274 0.386796 50.3518 0.212803 50.8897 0.0925221C51.7553 -0.0776129 53.0508 -0.0417951 53.791 0.46264C54.282 0.79694 54.4208 1.52673 54.4596 2.12519Z" fill="url(#paint20_linear_432_496)"/>
<path d="M47.3483 9.68429C46.9807 9.65092 46.614 9.75751 46.3215 9.98277C45.6261 10.4783 45.2634 11.3185 45.0455 12.1438C44.8342 13.0408 44.689 13.9521 44.6112 14.8704C44.5082 15.8211 44.4053 16.7926 44.6112 17.7284C44.6754 18.0269 44.7918 18.3507 45.0589 18.5059C45.3753 18.6925 45.7753 18.5761 46.123 18.4567L48.3303 17.6926C48.4977 17.6571 48.6448 17.5581 48.7407 17.4165C48.7897 17.2841 48.7934 17.1392 48.7512 17.0046C48.5049 15.8106 48.6661 14.263 48.7631 13.0527C48.8377 12.0363 49.0511 9.9171 47.3483 9.68429Z" fill="#9068FD"/>
<path d="M45.053 18.5104C45.053 18.5104 46.417 21.2639 47.0707 21.9131C47.7244 22.5623 57.3684 26.6679 57.3684 26.6679C57.3684 26.6679 57.743 27.1007 58.4533 26.838C59.1637 26.5754 59.9219 24.8531 59.9219 24.8531C59.9219 24.8531 59.3876 24.1248 58.7369 24.092C58.0862 24.0592 58.4533 23.5816 58.4533 23.5816L57.3027 24.092C57.3027 24.092 56.6072 24.4293 54.7835 23.1593C52.9598 21.8892 49.2616 20.2371 49.2616 20.2371L48.3229 17.7L45.053 18.5104Z" fill="url(#paint21_linear_432_496)"/>
<path d="M46.4692 8.46052L47.8676 8.05011C47.8676 8.05011 48.8362 9.82459 48.7735 10.4216L46.4692 8.46052Z" fill="#9068FD"/>
<path d="M46.4692 8.46052L47.8676 8.05011C47.8676 8.05011 48.8362 9.82459 48.7735 10.4216L46.4692 8.46052Z" fill="url(#paint22_linear_432_496)"/>
<path d="M48.7347 17.421L48.5855 18.4254L45.4275 19.2581L44.7574 18.1955C44.7574 18.1955 47.0498 17.8045 48.7347 17.421Z" fill="#9068FD"/>
<path d="M48.7347 17.421L48.5855 18.4254L45.4275 19.2581L44.7574 18.1955C44.7574 18.1955 47.0498 17.8045 48.7347 17.421Z" fill="url(#paint23_linear_432_496)"/>
<path d="M29.4811 23.8936C29.4811 23.8936 29.4975 27.3545 33.1763 27.9514C36.8551 28.5484 44.2321 27.0246 44.2321 27.0246L45.9469 23.7339L37.5789 21.5564C37.5789 21.5564 30.1228 20.661 29.4811 23.8936Z" fill="#E599F7"/>
<path d="M45.9468 23.7338L44.232 27.0246C44.232 27.0246 46.0229 26.6097 46.211 26.9664C46.399 27.3231 44.729 28.0588 44.5365 32.951C44.5156 33.4912 44.1858 35.6478 44.0888 36.1805L43.7903 37.1446C43.7903 37.1446 45.0738 37.2804 45.1335 37.261C45.1932 37.2416 50.5345 25.9307 48.5973 24.6457C48.0407 24.2711 45.9468 23.7338 45.9468 23.7338Z" fill="url(#paint24_linear_432_496)"/>
<path d="M42.9278 37.1835C42.9277 37.0842 42.9499 36.986 42.9928 36.8964C43.0357 36.8068 43.0981 36.7279 43.1755 36.6656C43.2411 36.6305 43.3131 36.609 43.3872 36.6023C43.4613 36.5957 43.536 36.604 43.6068 36.6268C43.748 36.672 43.8856 36.7273 44.0187 36.7925C44.3161 36.9165 44.6369 36.9746 44.9589 36.9626C45.0992 36.9626 45.2574 36.9507 45.35 37.0611C45.3797 37.1158 45.3961 37.1768 45.3979 37.239C45.3997 37.3012 45.3869 37.363 45.3604 37.4193C45.2841 37.665 45.1867 37.9037 45.0694 38.1327C45.055 38.1682 45.0319 38.1995 45.0022 38.2237C44.9702 38.2422 44.9346 38.2534 44.8978 38.2566C44.3589 38.3375 43.8101 38.3249 43.2755 38.2192C42.6621 38.0969 42.886 37.6447 42.9278 37.1835Z" fill="#9068FD"/>
<path d="M40.6831 47.3931C40.5757 47.4543 40.4846 47.5423 40.3846 47.6065Z" fill="url(#paint25_linear_432_496)"/>
<path d="M42.9278 37.1835C42.9277 37.0842 42.9499 36.986 42.9928 36.8964C43.0357 36.8068 43.0981 36.7279 43.1755 36.6656C43.2411 36.6305 43.3131 36.609 43.3872 36.6023C43.4613 36.5957 43.536 36.604 43.6068 36.6268C43.748 36.672 43.8856 36.7273 44.0187 36.7925C44.3161 36.9165 44.6369 36.9746 44.959 36.9626C45.0992 36.9626 45.2574 36.9507 45.35 37.0611C45.3797 37.1158 45.3961 37.1768 45.3979 37.239C45.3997 37.3012 45.3869 37.363 45.3604 37.4193C45.2841 37.665 45.1867 37.9037 45.0694 38.1327C45.055 38.1682 45.0319 38.1995 45.0022 38.2237C44.9702 38.2422 44.9346 38.2534 44.8978 38.2566C44.3589 38.3375 43.8101 38.3249 43.2755 38.2192C42.6621 38.0969 42.886 37.6447 42.9278 37.1835Z" fill="url(#paint26_linear_432_496)"/>
<path d="M42.9711 38.0446C43.2532 37.9937 43.5396 37.9702 43.8262 37.9744C44.0599 37.9777 44.2899 38.0333 44.4993 38.1371C44.9918 38.3983 45.2455 38.9803 45.7126 39.2728C45.9332 39.3859 46.1605 39.4856 46.3932 39.5713C46.5097 39.6153 46.6163 39.6822 46.7065 39.768C46.7967 39.8539 46.8688 39.957 46.9185 40.0713C46.9566 40.2173 46.9668 40.3692 46.9483 40.519C46.9551 40.6335 46.9177 40.7462 46.8439 40.8339C46.7565 40.8938 46.6507 40.9207 46.5454 40.91C46.1932 40.91 43.0069 40.3921 41.8144 40.1757C41.7518 40.1653 41.1085 40.3086 41.3533 39.5235C41.4401 39.2359 41.5551 38.9574 41.6965 38.6923C41.9159 38.2341 42.5278 38.1102 42.9711 38.0446Z" fill="#E599F7"/>
<path d="M42.2666 50.7002L41.6592 50.5122L44.7604 40.5936L45.3663 40.7802L42.2666 50.7002Z" fill="#9068FD"/>
<path d="M42.2666 50.7002L41.6592 50.5122L44.7604 40.5936L45.3663 40.7802L42.2666 50.7002Z" fill="url(#paint27_linear_432_496)"/>
<path d="M43.2844 40.4534L43.056 41.219L46.7886 41.7234L46.893 41.0578L43.2844 40.4534ZM40.0548 51.0002L40.1488 51.7927L43.7754 50.7719L43.6067 50.1182L40.0548 51.0002Z" fill="#9068FD"/>
<path d="M43.2844 40.4534L43.056 41.219L46.7886 41.7234L46.893 41.0578L43.2844 40.4534Z" fill="url(#paint28_linear_432_496)"/>
<path d="M40.0548 51.0002L40.1488 51.7927L43.7754 50.7719L43.6067 50.1182L40.0548 51.0002Z" fill="url(#paint29_linear_432_496)"/>
<path d="M43.7695 45.3142C44.067 45.3142 44.3082 45.0729 44.3082 44.7754C44.3082 44.4778 44.067 44.2366 43.7695 44.2366C43.4719 44.2366 43.2307 44.4778 43.2307 44.7754C43.2307 45.0729 43.4719 45.3142 43.7695 45.3142Z" fill="#9068FD"/>
<path d="M43.8486 45.3142C44.1461 45.3142 44.3873 45.0729 44.3873 44.7754C44.3873 44.4778 44.1461 44.2366 43.8486 44.2366C43.551 44.2366 43.3098 44.4778 43.3098 44.7754C43.3098 45.0729 43.551 45.3142 43.8486 45.3142Z" fill="url(#paint30_linear_432_496)"/>
<path d="M49.5347 17.1494L48.7124 17.5866L48.5945 18.4239L49.5347 17.9194V17.1494Z" fill="#9068FD"/>
<path d="M49.5347 17.1494L48.7124 17.5866L48.5945 18.4239L49.5347 17.9194V17.1494Z" fill="url(#paint31_linear_432_496)"/>
</g>
<defs>
<linearGradient id="paint0_linear_432_496" x1="46.0886" y1="22.0996" x2="60.1262" y2="22.0996" gradientUnits="userSpaceOnUse">
<stop stop-color="#D0BFFF"/>
<stop offset="0.42" stop-color="#EFD1D1"/>
<stop offset="1" stop-color="#F2C9C9"/>
</linearGradient>
<linearGradient id="paint1_linear_432_496" x1="55.3893" y1="20.4132" x2="48.4422" y2="24.7278" gradientUnits="userSpaceOnUse">
<stop stop-opacity="0"/>
<stop offset="0.88" stop-opacity="0.8"/>
<stop offset="0.97"/>
</linearGradient>
<linearGradient id="paint2_linear_432_496" x1="49.854" y1="14.8316" x2="48.1169" y2="14.6913" gradientUnits="userSpaceOnUse">
<stop stop-opacity="0"/>
<stop offset="0.88" stop-opacity="0.8"/>
<stop offset="0.97"/>
</linearGradient>
<linearGradient id="paint3_linear_432_496" x1="36.828" y1="48.8479" x2="37.0761" y2="62.3076" gradientUnits="userSpaceOnUse">
<stop stop-opacity="0"/>
<stop offset="0.88" stop-opacity="0.8"/>
<stop offset="0.97"/>
</linearGradient>
<linearGradient id="paint4_linear_432_496" x1="45.3439" y1="36.285" x2="41.8144" y2="52.5046" gradientUnits="userSpaceOnUse">
<stop stop-opacity="0"/>
<stop offset="0.88" stop-opacity="0.8"/>
<stop offset="0.97"/>
</linearGradient>
<linearGradient id="paint5_linear_432_496" x1="51.9598" y1="39.8594" x2="60.4711" y2="38.8042" gradientUnits="userSpaceOnUse">
<stop stop-color="#FAF3F3" stop-opacity="0"/>
<stop offset="0.84" stop-color="#FAF3F3" stop-opacity="0.84"/>
<stop offset="0.97" stop-color="#FAF3F3"/>
</linearGradient>
<linearGradient id="paint6_linear_432_496" x1="34.0522" y1="40.1531" x2="41.8975" y2="41.7606" gradientUnits="userSpaceOnUse">
<stop stop-color="#D0BFFF"/>
<stop offset="0.42" stop-color="#EFD1D1"/>
<stop offset="1" stop-color="#F2C9C9"/>
</linearGradient>
<linearGradient id="paint7_linear_432_496" x1="41.589" y1="34.9478" x2="43.2143" y2="37.5819" gradientUnits="userSpaceOnUse">
<stop stop-opacity="0"/>
<stop offset="0.88" stop-opacity="0.8"/>
<stop offset="0.97"/>
</linearGradient>
<linearGradient id="paint8_linear_432_496" x1="55.1193" y1="29.0722" x2="52.818" y2="29.1543" gradientUnits="userSpaceOnUse">
<stop stop-opacity="0"/>
<stop offset="0.88" stop-opacity="0.8"/>
<stop offset="0.97"/>
</linearGradient>
<linearGradient id="paint9_linear_432_496" x1="56.9445" y1="28.4902" x2="54.6447" y2="29.0588" gradientUnits="userSpaceOnUse">
<stop stop-color="#FAF3F3" stop-opacity="0"/>
<stop offset="0.84" stop-color="#FAF3F3" stop-opacity="0.84"/>
<stop offset="0.97" stop-color="#FAF3F3"/>
</linearGradient>
<linearGradient id="paint10_linear_432_496" x1="55.8535" y1="28.7424" x2="52.1762" y2="29.6513" gradientUnits="userSpaceOnUse">
<stop stop-color="#FAF3F3" stop-opacity="0"/>
<stop offset="0.84" stop-color="#FAF3F3" stop-opacity="0.84"/>
<stop offset="0.97" stop-color="#FAF3F3"/>
</linearGradient>
<linearGradient id="paint11_linear_432_496" x1="31.5659" y1="37.0223" x2="32.8822" y2="37.2745" gradientUnits="userSpaceOnUse">
<stop stop-opacity="0"/>
<stop offset="0.88" stop-opacity="0.8"/>
<stop offset="0.97"/>
</linearGradient>
<linearGradient id="paint12_linear_432_496" x1="43.1799" y1="29.5065" x2="43.6545" y2="31.4063" gradientUnits="userSpaceOnUse">
<stop stop-opacity="0"/>
<stop offset="0.88" stop-opacity="0.8"/>
<stop offset="0.97"/>
</linearGradient>
<linearGradient id="paint13_linear_432_496" x1="31.8271" y1="37.3492" x2="53.1761" y2="37.3492" gradientUnits="userSpaceOnUse">
<stop stop-opacity="0"/>
<stop offset="0.88" stop-opacity="0.8"/>
<stop offset="0.97"/>
</linearGradient>
<linearGradient id="paint14_linear_432_496" x1="18.5582" y1="38.2401" x2="33.4495" y2="40.4324" gradientUnits="userSpaceOnUse">
<stop stop-opacity="0"/>
<stop offset="0.88" stop-opacity="0.8"/>
<stop offset="0.97"/>
</linearGradient>
<linearGradient id="paint15_linear_432_496" x1="47.226" y1="6.35922" x2="54.3403" y2="6.35922" gradientUnits="userSpaceOnUse">
<stop stop-color="#D0BFFF"/>
<stop offset="0.42" stop-color="#EFD1D1"/>
<stop offset="1" stop-color="#F2C9C9"/>
</linearGradient>
<linearGradient id="paint16_linear_432_496" x1="28.22" y1="25.0919" x2="55.4848" y2="11.2155" gradientUnits="userSpaceOnUse">
<stop stop-opacity="0"/>
<stop offset="0.88" stop-opacity="0.8"/>
<stop offset="0.97"/>
</linearGradient>
<linearGradient id="paint17_linear_432_496" x1="43.2948" y1="48.3437" x2="36.8237" y2="47.9855" gradientUnits="userSpaceOnUse">
<stop stop-color="#FAF3F3" stop-opacity="0"/>
<stop offset="0.84" stop-color="#FAF3F3" stop-opacity="0.84"/>
<stop offset="0.97" stop-color="#FAF3F3"/>
</linearGradient>
<linearGradient id="paint18_linear_432_496" x1="25.1292" y1="27.7633" x2="34.0374" y2="27.8902" gradientUnits="userSpaceOnUse">
<stop stop-opacity="0"/>
<stop offset="0.88" stop-opacity="0.8"/>
<stop offset="0.97"/>
</linearGradient>
<linearGradient id="paint19_linear_432_496" x1="53.4403" y1="24.8159" x2="63.9036" y2="20.6983" gradientUnits="userSpaceOnUse">
<stop stop-color="#FAF3F3" stop-opacity="0"/>
<stop offset="0.52" stop-color="#FAF3F3" stop-opacity="0.84"/>
<stop offset="0.97" stop-color="#FAF3F3"/>
</linearGradient>
<linearGradient id="paint20_linear_432_496" x1="49.8152" y1="-1.13872" x2="50.936" y2="4.96823" gradientUnits="userSpaceOnUse">
<stop stop-opacity="0"/>
<stop offset="0.88" stop-opacity="0.8"/>
<stop offset="0.97"/>
</linearGradient>
<linearGradient id="paint21_linear_432_496" x1="45.053" y1="22.3101" x2="59.9204" y2="22.3101" gradientUnits="userSpaceOnUse">
<stop stop-color="#D0BFFF"/>
<stop offset="0.42" stop-color="#EFD1D1"/>
<stop offset="1" stop-color="#F2C9C9"/>
</linearGradient>
<linearGradient id="paint22_linear_432_496" x1="49.5451" y1="8.92466" x2="47.3602" y2="9.48432" gradientUnits="userSpaceOnUse">
<stop stop-opacity="0"/>
<stop offset="0.88" stop-opacity="0.8"/>
<stop offset="0.97"/>
</linearGradient>
<linearGradient id="paint23_linear_432_496" x1="46.7737" y1="15.6345" x2="46.7319" y2="19.585" gradientUnits="userSpaceOnUse">
<stop stop-opacity="0"/>
<stop offset="0.88" stop-opacity="0.8"/>
<stop offset="0.97"/>
</linearGradient>
<linearGradient id="paint24_linear_432_496" x1="41.7728" y1="31.969" x2="50.3074" y2="28.6329" gradientUnits="userSpaceOnUse">
<stop stop-color="#D0BFFF"/>
<stop offset="0.42" stop-color="#EFD1D1"/>
<stop offset="1" stop-color="#F2C9C9"/>
</linearGradient>
<linearGradient id="paint25_linear_432_496" x1="40.3772" y1="47.499" x2="40.6831" y2="47.499" gradientUnits="userSpaceOnUse">
<stop stop-color="#FAF3F3" stop-opacity="0"/>
<stop offset="0.84" stop-color="#FAF3F3" stop-opacity="0.84"/>
<stop offset="0.97" stop-color="#FAF3F3"/>
</linearGradient>
<linearGradient id="paint26_linear_432_496" x1="45.4141" y1="37.9417" x2="42.7248" y2="37.1566" gradientUnits="userSpaceOnUse">
<stop stop-color="#FAF3F3" stop-opacity="0"/>
<stop offset="0.84" stop-color="#FAF3F3" stop-opacity="0.84"/>
<stop offset="0.97" stop-color="#FAF3F3"/>
</linearGradient>
<linearGradient id="paint27_linear_432_496" x1="42.6785" y1="45.4171" x2="44.359" y2="45.8798" gradientUnits="userSpaceOnUse">
<stop stop-opacity="0"/>
<stop offset="0.88" stop-opacity="0.8"/>
<stop offset="0.97"/>
</linearGradient>
<linearGradient id="paint28_linear_432_496" x1="45.1171" y1="39.9489" x2="44.8857" y2="41.8831" gradientUnits="userSpaceOnUse">
<stop stop-opacity="0"/>
<stop offset="0.88" stop-opacity="0.8"/>
<stop offset="0.97"/>
</linearGradient>
<linearGradient id="paint29_linear_432_496" x1="41.5472" y1="49.6541" x2="42.1143" y2="51.8808" gradientUnits="userSpaceOnUse">
<stop stop-opacity="0"/>
<stop offset="0.88" stop-opacity="0.8"/>
<stop offset="0.97"/>
</linearGradient>
<linearGradient id="paint30_linear_432_496" x1="43.3098" y1="44.7754" x2="44.3873" y2="44.7754" gradientUnits="userSpaceOnUse">
<stop stop-opacity="0"/>
<stop offset="0.88" stop-opacity="0.8"/>
<stop offset="0.97"/>
</linearGradient>
<linearGradient id="paint31_linear_432_496" x1="49.5601" y1="18.8223" x2="48.7616" y2="17.1553" gradientUnits="userSpaceOnUse">
<stop stop-opacity="0"/>
<stop offset="0.88" stop-opacity="0.8"/>
<stop offset="0.97"/>
</linearGradient>
<clipPath id="clip0_432_496">
<rect width="71" height="56.2296" fill="white"/>
</clipPath>
</defs>
</svg>
