<svg xmlns="http://www.w3.org/2000/svg" width="44" height="44" viewBox="0 0 44 44" fill="none">
  <path d="M39.3392 39.8526C36.1777 35.2204 33.9736 29.9322 32.9103 24.4282C32.7514 23.6093 32.4744 22.6234 31.6637 22.4278C31.1177 22.2974 30.5718 22.603 30.1196 22.9371C28.3188 24.2693 27.0111 26.2574 26.4977 28.4371C26.2777 29.3782 26.0251 30.5556 25.084 30.7919C24.4281 30.9589 23.7722 30.5393 23.2955 30.0585C22.004 28.7548 21.3848 26.946 20.8103 25.2022C19.6981 21.8452 18.5859 18.4841 17.4777 15.1271C17.3229 14.6545 17.1111 14.1248 16.6466 13.9537C16.2474 13.803 15.8033 13.9782 15.4285 14.1778C13.7255 15.0904 12.4259 16.6345 11.497 18.3293C10.564 20.0241 9.96921 21.8737 9.37847 23.7152C7.69587 28.9504 6.01328 34.1815 4.33069 39.4167L39.3392 39.8526Z" fill="#FFE9E9"/>
  <path d="M40.0318 27.4348C41.2377 28.0907 42.0566 29.3659 42.0566 30.8367C42.0566 32.9715 40.3251 34.703 38.1903 34.703C36.5444 34.703 35.1348 33.6722 34.5807 32.2219L40.0318 27.4348Z" fill="#DACCFF"/>
  <path d="M34.0512 32.2463C37.433 32.2463 40.1745 29.5048 40.1745 26.123C40.1745 22.7411 37.433 19.9996 34.0512 19.9996C30.6694 19.9996 27.9279 22.7411 27.9279 26.123C27.9279 29.5048 30.6694 32.2463 34.0512 32.2463Z" fill="#D0BFFF"/>
  <path d="M34.0511 38.2189C33.9737 38.2189 33.9126 38.1578 33.9126 38.0804V26.123C33.9126 26.0455 33.9737 25.9844 34.0511 25.9844C34.1285 25.9844 34.1896 26.0455 34.1896 26.123V38.0804C34.1896 38.1578 34.1285 38.2189 34.0511 38.2189Z" fill="#DACCFF"/>
  <path d="M34.051 29.4311C34.0144 29.4311 33.9777 29.4189 33.9533 29.3904L32.2381 27.6752C32.1851 27.6222 32.1851 27.5326 32.2381 27.4755C32.291 27.4226 32.3807 27.4226 32.4377 27.4755L34.1529 29.1907C34.2059 29.2437 34.2059 29.3333 34.1529 29.3904C34.1244 29.4189 34.0877 29.4311 34.051 29.4311ZM34.051 31.0241C34.0144 31.0241 33.9777 31.0118 33.9533 30.9833L32.2381 29.2681C32.1851 29.2152 32.1851 29.1255 32.2381 29.0685C32.291 29.0155 32.3807 29.0155 32.4377 29.0685L34.1529 30.7837C34.2059 30.8367 34.2059 30.9263 34.1529 30.9833C34.1244 31.0118 34.0877 31.0241 34.051 31.0241ZM38.1659 38.2189C38.0966 38.2067 38.0518 38.1415 38.0518 38.0722V31.8063C38.0518 31.7289 38.1088 31.6637 38.1862 31.6596C38.2677 31.6555 38.3329 31.7207 38.3329 31.7981V38.0804C38.3288 38.1659 38.2514 38.2311 38.1659 38.2189Z" fill="#DACCFF"/>
  <path d="M38.1902 32.7148C38.1536 32.7148 38.1169 32.7026 38.0925 32.6741C38.0395 32.6211 38.0395 32.5315 38.0925 32.4744L39.3269 31.24C39.3799 31.187 39.4695 31.187 39.5265 31.24C39.5795 31.2929 39.5795 31.3826 39.5265 31.4396L38.288 32.6741C38.2595 32.7026 38.2269 32.7148 38.1902 32.7148ZM38.1902 33.8637C38.1536 33.8637 38.1169 33.8515 38.0925 33.8229C38.0395 33.77 38.0395 33.6803 38.0925 33.6233L39.3269 32.3889C39.3799 32.3359 39.4695 32.3359 39.5265 32.3889C39.5795 32.4418 39.5795 32.5315 39.5265 32.5885L38.2921 33.8229C38.2595 33.8474 38.2269 33.8637 38.1902 33.8637Z" fill="#DACCFF"/>
  <path d="M7.55327 32.2463C10.9351 32.2463 13.6766 29.5048 13.6766 26.123C13.6766 22.7411 10.9351 19.9996 7.55327 19.9996C4.17144 19.9996 1.42993 22.7411 1.42993 26.123C1.42993 29.5048 4.17144 32.2463 7.55327 32.2463Z" fill="#D0BFFF"/>
  <path d="M7.55331 38.2189C7.47591 38.2189 7.41479 38.1578 7.41479 38.0804V26.123C7.41479 26.0455 7.47591 25.9844 7.55331 25.9844C7.63072 25.9844 7.69183 26.0455 7.69183 26.123V38.0804C7.69591 38.1578 7.63072 38.2189 7.55331 38.2189Z" fill="#DACCFF"/>
  <path d="M7.55325 29.4311C7.51658 29.4311 7.47991 29.4189 7.45547 29.3904L5.74028 27.6752C5.68732 27.6222 5.68732 27.5326 5.74028 27.4755C5.79325 27.4226 5.88288 27.4226 5.93991 27.4755L7.6551 29.1907C7.70806 29.2437 7.70806 29.3333 7.6551 29.3904C7.62658 29.4189 7.58991 29.4311 7.55325 29.4311ZM7.55325 31.0241C7.51658 31.0241 7.47991 31.0118 7.45547 30.9833L5.74028 29.2681C5.68732 29.2152 5.68732 29.1255 5.74028 29.0685C5.79325 29.0155 5.88288 29.0155 5.93991 29.0685L7.6551 30.7837C7.70806 30.8367 7.70806 30.9263 7.6551 30.9833C7.62658 31.0118 7.58991 31.0241 7.55325 31.0241Z" fill="#DACCFF"/>
  <path d="M41.254 40.8222H2.74589C2.5096 40.8222 2.31812 40.6307 2.31812 40.3944V38.4307C2.31812 38.1944 2.5096 38.0029 2.74589 38.0029H41.2581C41.4944 38.0029 41.6859 38.1944 41.6859 38.4307V40.3944C41.6859 40.6307 41.4903 40.8222 41.254 40.8222Z" fill="#FAF3F3"/>
  <path d="M28.8934 38.6222C29.2682 38.9033 29.5086 39.1396 29.5656 39.1967C29.643 39.27 29.6063 39.6 29.4312 39.8322C29.4026 39.873 29.366 39.9096 29.3293 39.9422C28.5104 40.26 27.1497 39.327 27.0723 39.2741C26.9949 39.2211 25.8419 38.9482 25.7115 38.777C25.5934 38.6222 25.7726 38.5326 25.8174 38.2882C25.8215 38.2637 25.8256 38.2393 25.8256 38.2107C25.8378 37.9093 26.0619 37.2411 26.2534 37.1841L26.8889 37.3633L26.9297 37.3756C26.9297 37.3756 27.2841 37.237 27.4226 37.2126C27.5652 37.1922 28.1112 37.7219 28.3637 38.1252C28.4656 38.28 28.6693 38.4593 28.8934 38.6222Z" fill="#602AF4"/>
  <path d="M28.8932 38.6222C28.6651 38.6385 28.4166 38.5448 28.3392 38.5081C28.2495 38.4633 28.0743 38.1374 27.9806 38.0804C27.891 38.0193 26.8603 37.7585 26.8277 37.5711C26.8195 37.5263 26.8481 37.453 26.8929 37.3674L26.9336 37.3796C26.9336 37.3796 27.2881 37.2411 27.4266 37.2167C27.5692 37.1963 28.1151 37.7259 28.3677 38.1293C28.4655 38.28 28.6692 38.4593 28.8932 38.6222Z" fill="#E599F7"/>
  <path d="M29.4353 39.8322C29.4068 39.873 29.3701 39.9096 29.3334 39.9422C28.5146 40.26 27.1538 39.327 27.0764 39.2741C26.999 39.2211 25.846 38.9481 25.7157 38.777C25.5975 38.6222 25.7768 38.5326 25.8216 38.2881C26.1109 38.3452 26.3064 38.3656 26.5631 38.5C26.8849 38.6711 28.5675 39.9789 29.4353 39.8322Z" fill="#D0BFFF"/>
  <path d="M26.3797 27.7363C27.0927 28.7263 28.539 32.0874 28.4535 32.2911C28.3679 32.4948 27.329 37.7992 27.329 37.7992C27.329 37.7992 26.2168 37.9377 26.2005 37.4977C26.1842 37.0577 26.4694 33.334 26.9868 32.67C26.6364 32.2503 24.522 28.7222 24.522 28.7222L26.3797 27.7363Z" fill="#FFA6A6"/>
  <path d="M14.5078 34.4626C14.5608 34.9882 14.5567 35.363 14.5567 35.4526C14.5567 35.5748 14.3204 35.746 14.0597 35.7256C14.0149 35.7215 13.9701 35.7134 13.9252 35.6971C13.2041 35.1348 12.9597 33.2771 12.9475 33.1711C12.9312 33.0652 12.3893 31.8145 12.4178 31.5863C12.4464 31.3786 12.6175 31.4926 12.8049 31.3786C12.8252 31.3663 12.8415 31.3541 12.8619 31.3378C13.0656 31.1626 13.6401 30.9508 13.7949 31.0974L14.076 31.8063L14.0923 31.8511C14.0923 31.8511 14.406 32.0915 14.5078 32.2097C14.6097 32.3278 14.6056 33.1711 14.5038 33.6641C14.4671 33.8515 14.4793 34.153 14.5078 34.4626Z" fill="#602AF4"/>
  <path d="M14.5078 34.4626C14.357 34.2589 14.2592 33.9697 14.2348 33.876C14.2063 33.766 14.3081 33.3952 14.2918 33.273C14.2715 33.1508 13.7989 32.0222 13.9007 31.8797C13.9252 31.843 13.9903 31.8226 14.0718 31.8104L14.0881 31.8552C14.0881 31.8552 14.4018 32.0956 14.5037 32.2137C14.6055 32.3319 14.6015 33.1752 14.4996 33.6682C14.467 33.8515 14.4792 34.153 14.5078 34.4626Z" fill="#E599F7"/>
  <path d="M21.6334 27.3289C21.0305 28.05 19.5394 29.7489 19.1442 30.4211C18.0401 30.7226 14.349 30.6737 13.6727 31.187C13.5464 31.9693 13.9946 32.12 13.9946 32.12L18.9771 32.4052C19.3723 32.3604 20.0201 32.173 20.3297 31.8715C21.0223 31.1993 23.6705 28.5511 23.6664 28.2293C23.6623 27.7811 21.6334 27.3289 21.6334 27.3289Z" fill="#FFA6A6"/>
  <path d="M21.8737 25.3896C21.3196 26.1596 19.8693 28.9911 19.8693 28.9911L22.4074 30.083L24.4282 27.7363L21.8737 25.3896Z" fill="#FF5555"/>
  <path d="M25.6341 25.85C26.0456 26.4489 27.1456 28.5593 27.1456 28.5593L24.5423 30.0789C24.5423 30.0789 21.3237 26.9418 21.6863 25.6504C22.8474 25.0107 25.1982 25.1289 25.6341 25.85Z" fill="#FF5555"/>
  <path d="M24.3751 21.6741C25.4507 21.6985 26.294 21.01 26.6322 20.7085C27.2025 20.8796 27.3614 20.8552 27.3614 20.8552C27.3614 20.8552 26.2084 22.7048 25.0147 22.6885C23.8251 22.6722 24.3751 21.6741 24.3751 21.6741Z" fill="#FFA6A6"/>
  <path d="M25.8378 25.9967C25.8378 25.9967 25.0597 25.3 24.0982 25.5852C23.1326 25.8704 21.3767 25.5852 21.3767 25.5852L21.6863 23.6989L21.8289 22.823L22.3382 19.7104L21.4908 20.0771C21.4908 20.0771 20.676 18.5371 20.6597 18.4841C22.6967 16.6304 23.9352 16.9971 24.3589 17.0867C24.3589 17.0867 24.3956 17.2048 25.3449 17.6734C26.29 18.1378 25.8378 25.9967 25.8378 25.9967Z" fill="#602AF4"/>
  <path d="M25.2512 16.1782V18.1582L24.0493 17.3148L24.1186 16.0437L24.7908 15.3307L25.2512 16.1782Z" fill="#FFA6A6"/>
  <path d="M23.5767 13.8437C23.3648 14.0474 23.316 14.6585 23.3037 14.9478C23.2997 15.0496 23.32 15.1474 23.3648 15.2411C23.5563 15.6282 24.09 16.6222 24.1593 16.6915C24.2815 16.5285 24.5097 16.3533 24.5097 16.3533L24.6074 15.6282L24.6482 14.4426L23.5767 13.8437Z" fill="#E599F7"/>
  <path d="M26.4081 15.6282C26.4081 16.3411 26.4081 16.8952 25.8785 16.8952C24.8559 16.9767 24.367 16.5693 24.367 15.6078C24.367 14.8948 23.7111 14.3204 25.3285 14.3204C25.8541 14.3204 26.4081 14.9152 26.4081 15.6282Z" fill="#FFCACA"/>
  <path d="M24.6481 14.6056C25.0963 14.7278 26.1637 14.5974 26.3267 14.41C26.4489 14.2674 26.2533 13.5097 25.9274 13.5097C25.6015 13.5097 25.1411 13.3019 25.1411 13.3019C25.1411 13.3019 25.1289 13.4608 25.2104 13.5015C25.2919 13.5423 23.7111 13.4648 23.5074 13.9578C23.5033 13.9497 23.2589 14.5241 24.6481 14.6056Z" fill="#E599F7"/>
  <path d="M24.9782 14.4018C24.8804 14.85 24.7826 15.5059 24.2448 15.4244C23.7071 15.3429 24.1471 14.1981 24.1471 14.1981L24.9782 14.4018Z" fill="#E599F7"/>
  <path d="M24.3948 15.9635C24.5517 15.9151 24.6193 15.6823 24.5456 15.4437C24.4719 15.205 24.285 15.0508 24.1281 15.0993C23.9711 15.1477 23.9036 15.3804 23.9772 15.6191C24.0509 15.8577 24.2378 16.0119 24.3948 15.9635Z" fill="#FFCACA"/>
  <path d="M22.3585 23.5848C22.3585 23.5848 22.2363 23.6867 21.947 24.037C21.8859 23.9841 21.8248 23.927 21.7637 23.8741C18.4759 20.9326 19.7511 19.6737 20.8389 18.8304C20.9896 19.1319 21.2707 19.6167 21.4214 19.9426C20.4314 20.6067 21.2952 22.1467 21.9022 22.9941C22.1548 23.3485 22.3585 23.5848 22.3585 23.5848Z" fill="#FFA6A6"/>
  <path d="M21.9389 23.9148C21.9185 23.9515 21.9022 23.9922 21.8859 24.0289C21.8289 24.1674 21.8697 24.3304 21.9837 24.4281L22.3219 24.7174L23.1 24.3344L23.1204 24.0656C23.1204 24.0656 23.2834 24.1837 23.4178 24.1267C23.2182 23.9107 23.0471 23.5441 22.7659 23.4504C22.6152 23.3974 22.4767 23.3648 22.2852 23.5196C21.8737 23.7681 21.9389 23.9148 21.9389 23.9148ZM26.6037 20.8919C26.563 20.7493 26.4774 20.5007 26.4774 20.5007C26.4774 20.5007 26.8074 19.5963 26.7911 19.4781C26.9867 19.5719 26.9785 19.8489 26.9785 19.8489L27.2597 19.47L27.9441 20.3989C27.9441 20.3989 27.5978 21.2381 27.0885 21.177C26.5793 21.12 26.6037 20.8919 26.6037 20.8919Z" fill="#FFA6A6"/>
  <path d="M14.0597 35.7255C14.0149 35.7215 13.9701 35.7133 13.9252 35.697C13.2041 35.1348 12.9597 33.277 12.9475 33.1711C12.9312 33.0652 12.3893 31.8144 12.4178 31.5863C12.4464 31.3785 12.6175 31.4926 12.8049 31.3785C12.9515 31.6841 13.0575 31.8796 13.1308 32.2055C13.2204 32.617 13.4241 35.0085 14.0597 35.7255Z" fill="#D0BFFF"/>
  <path d="M35.5096 12.3771C37.3389 12.3771 38.8218 10.8941 38.8218 9.06485C38.8218 7.23556 37.3389 5.75262 35.5096 5.75262C33.6803 5.75262 32.1974 7.23556 32.1974 9.06485C32.1974 10.8941 33.6803 12.3771 35.5096 12.3771Z" fill="#FF5555"/>
  <path d="M16.4308 6.45332C14.1656 5.05999 11.5867 4.18406 8.94267 3.90703C8.796 3.89073 8.63711 3.88258 8.51082 3.95591C8.26637 4.10665 8.30711 4.49369 8.4986 4.70962C8.69008 4.92147 8.97526 5.01925 9.22378 5.16184C9.4723 5.30443 9.71267 5.54073 9.6923 5.82591C7.63489 5.19851 5.45119 4.99073 3.3123 5.22703C3.07193 5.25554 2.81934 5.28814 2.61563 5.41851C2.41193 5.54888 2.26526 5.80554 2.33452 6.03777C2.44452 6.40851 2.94156 6.45332 3.32452 6.42888L16.4308 6.45332Z" fill="#D0BFFF"/>
  <path d="M32.0385 11.1385C30.914 9.88775 29.3537 9.04035 27.6915 8.78776C27.8503 9.18294 28.1029 9.54146 28.4248 9.82257C24.8111 9.86738 21.3726 7.65109 17.7833 8.07887C17.547 8.10738 17.2863 8.16442 17.16 8.36405C16.94 8.71442 17.3148 9.14627 17.6896 9.32146C18.0644 9.49664 18.5289 9.63924 18.6633 10.0303C17.9015 10.067 17.1437 10.1037 16.3818 10.1403C16.2515 10.1485 16.1089 10.1566 16.0111 10.2422C15.8237 10.4052 15.9255 10.7392 16.1415 10.8655C16.3574 10.9918 16.6222 10.9715 16.8707 10.947L32.0385 11.1385Z" fill="#FFE9E9"/>
  <path d="M10.0142 14.7604C9.93676 14.6707 9.85935 14.577 9.76972 14.4996C9.68416 14.4181 9.58639 14.353 9.48453 14.2959L9.40713 14.2552L9.32564 14.2226C9.3012 14.2104 9.27268 14.2022 9.24416 14.1941L9.20342 14.1818C9.1912 14.1778 9.1749 14.1737 9.16268 14.1696C9.13416 14.1615 9.10565 14.1533 9.07713 14.1493L8.99157 14.133L8.90602 14.1248C8.8775 14.1207 8.84898 14.1207 8.82046 14.1207C8.79194 14.1167 8.76342 14.1207 8.7349 14.1207H8.69009C8.67379 14.1207 8.66157 14.1248 8.64527 14.1248C8.58824 14.1289 8.5312 14.133 8.47416 14.1411C8.36009 14.1574 8.24602 14.1859 8.13602 14.2185C8.02602 14.2511 7.91602 14.2918 7.81009 14.3407C7.75713 14.3652 7.70416 14.3896 7.6512 14.4181C7.60231 14.4467 7.54935 14.4752 7.50453 14.5037L7.41898 14.5567L7.37824 14.463C7.37009 14.4426 7.35379 14.4181 7.34157 14.3937C7.32935 14.3693 7.31305 14.3489 7.30083 14.3244C7.27231 14.2796 7.23972 14.2348 7.20305 14.1941C7.13379 14.1085 7.05231 14.0352 6.96676 13.9741C6.8812 13.913 6.78342 13.86 6.68157 13.8274C6.57972 13.7948 6.46972 13.7785 6.35972 13.7744C6.30676 13.7704 6.24972 13.7785 6.19676 13.7826C6.14379 13.7907 6.08676 13.7989 6.03379 13.8111C5.92379 13.8315 5.81787 13.8722 5.71194 13.913C5.50009 13.9985 5.30046 14.1126 5.10083 14.2389C5.27602 14.0841 5.46342 13.9455 5.67527 13.8355C5.7812 13.7826 5.8912 13.7337 6.00527 13.7011C6.06231 13.6807 6.12342 13.6726 6.18046 13.6604C6.24157 13.6522 6.30268 13.6441 6.36379 13.6441C6.48602 13.64 6.61231 13.6522 6.73046 13.6848C6.84861 13.7174 6.96268 13.7744 7.06453 13.8396C7.16639 13.9089 7.26009 13.9904 7.34157 14.0841C7.38231 14.1289 7.41898 14.1818 7.45157 14.2307C7.46787 14.2552 7.48416 14.2837 7.50046 14.3081C7.51676 14.3367 7.52898 14.3611 7.54527 14.3937L7.4149 14.357C7.47194 14.3204 7.5249 14.2918 7.57787 14.2633C7.6349 14.2348 7.68787 14.2104 7.7449 14.1859C7.85898 14.137 7.97305 14.0963 8.09527 14.0596C8.21342 14.027 8.33565 14.0026 8.45787 13.9904C8.51898 13.9822 8.58009 13.9781 8.64527 13.9781H8.7349C8.7675 13.9781 8.79602 13.9822 8.82861 13.9822C9.07713 14.0026 9.32157 14.0881 9.52527 14.2267C9.62713 14.2959 9.72083 14.3774 9.79824 14.4711C9.83898 14.5159 9.87565 14.5648 9.91231 14.6137C9.93268 14.6381 9.9449 14.6626 9.9612 14.6911L10.0142 14.7604ZM37.506 16.3248C37.4205 16.2718 37.3349 16.223 37.2453 16.1863C37.1556 16.1455 37.0619 16.1211 36.9682 16.1007L36.899 16.0885L36.8256 16.0844C36.8012 16.0804 36.7768 16.0844 36.7523 16.0844H36.7156C36.7034 16.0844 36.6912 16.0844 36.679 16.0885C36.6545 16.0926 36.6301 16.0926 36.6097 16.0967L36.5405 16.1048L36.4712 16.1211C36.4468 16.1252 36.4264 16.1333 36.4019 16.1415C36.3775 16.1455 36.3571 16.1537 36.3327 16.1618L36.3001 16.1741C36.2879 16.1781 36.2797 16.1822 36.2675 16.1863C36.2227 16.2026 36.1819 16.223 36.1371 16.2433C36.0516 16.2881 35.9701 16.337 35.8927 16.3941C35.8153 16.4511 35.7379 16.5081 35.6686 16.5733C35.6319 16.6059 35.5993 16.6385 35.5668 16.6752C35.5342 16.7078 35.5016 16.7444 35.4731 16.7811L35.4201 16.8463L35.3631 16.7852L35.3182 16.7404C35.3019 16.7241 35.2856 16.7118 35.2653 16.6955C35.2286 16.667 35.1919 16.6426 35.1553 16.6181C35.0779 16.5693 34.9964 16.5326 34.9108 16.5081C34.8253 16.4837 34.7356 16.4674 34.6501 16.4674C34.5605 16.4674 34.4708 16.4837 34.3853 16.5081C34.3405 16.5204 34.2997 16.5407 34.259 16.557C34.2182 16.5774 34.1775 16.5978 34.1368 16.6222C34.0553 16.667 33.9819 16.7281 33.9086 16.7852C33.766 16.9074 33.6397 17.05 33.5175 17.1967C33.6112 17.0296 33.7253 16.8748 33.8597 16.7322C33.929 16.663 34.0023 16.5978 34.0838 16.5407C34.1245 16.5122 34.1653 16.4878 34.2101 16.4633C34.2549 16.443 34.2997 16.4185 34.3486 16.4022C34.4423 16.3655 34.5442 16.3452 34.646 16.3411C34.7479 16.337 34.8497 16.3493 34.9516 16.3778C35.0493 16.4063 35.1431 16.447 35.2327 16.5C35.2775 16.5244 35.3182 16.553 35.359 16.5855C35.3793 16.6018 35.3997 16.6181 35.416 16.6344C35.4364 16.6507 35.4527 16.667 35.4731 16.6915L35.3631 16.6955C35.3956 16.6548 35.4323 16.6181 35.469 16.5815C35.5056 16.5448 35.5423 16.5081 35.579 16.4755C35.6564 16.4063 35.7338 16.3452 35.8193 16.2881C35.9049 16.2311 35.9945 16.1781 36.0842 16.1374C36.129 16.117 36.1779 16.0967 36.2268 16.0804L36.2634 16.0681L36.3001 16.0559C36.3245 16.0478 36.349 16.0396 36.3734 16.0355C36.573 15.9867 36.7849 15.9907 36.9845 16.0437C37.0823 16.0722 37.176 16.1089 37.2616 16.1618C37.3064 16.1863 37.3471 16.2148 37.3879 16.2433C37.4082 16.2555 37.4286 16.2718 37.4449 16.2881L37.506 16.3248Z" fill="#602AF4"/>
</svg>