<svg xmlns="http://www.w3.org/2000/svg" width="78" height="86" viewBox="0 0 78 86" fill="none">
  <g clip-path="url(#clip0_438_557)">
    <path opacity="0.19" d="M63.4555 53.4557C65.0584 50.7543 68.1672 48.8803 68.7775 45.7966C69.4865 42.2067 66.4441 38.8663 66.4441 35.2063C66.4441 32.8872 67.6646 30.7638 68.239 28.5165C69.0791 25.1958 68.3988 21.4857 66.2879 18.7896C64.177 16.0936 60.6392 14.5302 57.2413 14.9628C55.3602 15.2033 53.5975 16.0056 51.7433 16.3987C49.1822 16.935 46.5187 16.6848 44.1022 15.6808C41.8765 14.751 39.8876 13.1911 37.5183 12.7388C35.0807 12.2739 32.5714 13.0565 30.3384 14.1389C19.4502 19.425 13.1445 32.7365 15.9518 44.5096C18.7592 56.2828 30.3851 65.3276 42.4921 65.1319C45.5436 65.0835 48.5465 64.518 51.5387 63.9526C54.1378 63.4644 59.5784 63.5577 61.4918 61.5223C63.3244 59.5693 62.0159 55.8825 63.4555 53.4557Z" fill="#9068FD"/>
    <path d="M51.5494 32.049L52.2674 31.4908C52.2674 31.4908 53.7213 28.6942 53.2995 27.4647" fill="url(#paint0_linear_438_557)"/>
    <path d="M46.8 34.6696C46.8 34.6696 46.6726 35.8525 44.7448 36.3946C43.6242 36.7173 42.4676 36.8982 41.3021 36.9331L40.9772 35.7969L46.8 34.6696Z" fill="#9068FD"/>
    <path d="M46.8 34.6696C46.8 34.6696 46.6726 35.8525 44.7448 36.3946C43.6242 36.7173 42.4676 36.8982 41.3021 36.9331L40.9772 35.7969L46.8 34.6696Z" fill="url(#paint1_linear_438_557)"/>
    <path d="M52.9388 20.1699C52.4003 21.123 50.7956 20.9292 47.9326 20.0945C47.4893 19.9653 47.1141 19.8612 46.8 19.775C46.674 19.7415 46.5419 19.7382 46.4144 19.7654C46.2869 19.7926 46.1676 19.8496 46.0663 19.9317C45.965 20.0137 45.8845 20.1186 45.8314 20.2376C45.7783 20.3567 45.7541 20.4867 45.7607 20.6169C45.7823 21.0782 45.802 21.5449 45.8505 22.0115C46.0657 24.0124 46.6397 25.9581 47.5449 27.7554C47.6528 27.9311 47.7145 28.1311 47.7244 28.337C47.7101 28.757 47.2793 29.0281 46.8862 29.1878C45.1235 29.9058 43.1491 29.9327 41.2662 29.6724C40.6433 29.5863 39.9846 29.4499 39.5358 29.0119C39.2869 28.7491 39.1026 28.432 38.9973 28.0857C38.9381 27.9206 38.886 27.7536 38.8394 27.5867C38.8394 27.5616 38.825 27.5382 38.8214 27.5131C38.3002 25.652 37.9399 23.7495 37.7445 21.8267C37.7346 21.7203 37.7032 21.617 37.6521 21.5232C37.6011 21.4294 37.5314 21.3469 37.4474 21.2809C37.3634 21.2149 37.2669 21.1667 37.1636 21.1393C37.0604 21.1118 36.9527 21.1057 36.847 21.1212C36.7072 21.1397 36.5754 21.1969 36.4664 21.2864C34.8187 22.6147 33.1853 23.9663 31.6542 25.4309C30.911 26.1489 30.1895 26.8831 29.3028 27.4198C28.9322 27.6399 28.5909 27.9059 28.2868 28.2113C28.1685 28.3194 28.062 28.4398 27.9691 28.5703C27.7896 28.8468 27.725 29.1932 27.5437 29.4678C27.4898 29.5522 27.3911 29.6473 27.3014 29.5917C27.2761 29.5723 27.2553 29.5476 27.2404 29.5194C27.2255 29.4912 27.2169 29.4602 27.2152 29.4283C27.1803 29.2526 27.1946 29.0706 27.2565 28.9024C27.2798 28.8396 27.2924 28.8073 27.2924 28.8055C27.2924 28.8037 27.1955 28.985 27.2098 28.8306C27.2098 28.7534 27.1865 28.6511 27.1075 28.6421C27.0633 28.6451 27.0218 28.6642 26.9908 28.696C26.5286 29.0896 26.1076 29.5292 25.7344 30.0081C25.6392 30.1984 25.4167 29.8555 26.1472 28.8665C26.1472 28.8665 26.1149 28.7929 26.0664 28.8396C25.8762 29.0191 25.3485 29.6509 25.169 29.7909C25.0361 29.8932 24.9554 29.7371 25.0146 29.6114C25.0738 29.4858 25.4508 29.0568 25.7846 28.6188C25.6303 28.5973 24.8369 29.6958 24.6502 29.6042C24.6143 29.5881 24.6161 29.5288 24.6215 29.4894C24.6434 29.3714 24.701 29.263 24.7866 29.1788L25.5046 28.3047C25.352 28.3262 24.731 28.8557 24.6161 28.7552C24.3505 28.5255 25.2677 27.9654 25.4095 27.9134C25.5513 27.8613 26.2782 27.3875 26.4129 27.2977C26.7198 27.0877 27.0393 26.8992 27.357 26.7036C30.6723 24.6627 32.8891 21.2774 35.6892 18.576C36.8703 17.4362 38.6617 17.0628 39.1822 16.9964C39.3707 16.9731 39.5592 16.9516 39.7494 16.9336C40.0856 16.5895 40.3091 16.1513 40.3902 15.6771C40.4925 15.232 40.629 13.3922 41.2608 13.3922C41.7795 13.3922 42.2247 15.0381 42.3234 15.4689C42.3697 15.7119 42.3866 15.9596 42.3737 16.2066C42.3737 16.4723 42.3001 16.7828 42.6644 16.8833C42.8016 16.9181 42.9436 16.929 43.0845 16.9157H43.1311C43.6965 16.9677 44.2602 17.0449 44.8184 17.149C44.8184 17.149 46.5918 17.7521 47.5557 18.0339C48.7781 18.3929 51.2426 19.1324 51.1636 18.5975C51.0613 17.8993 50.8602 16.9264 50.232 16.4202C50.0902 16.3072 48.5645 15.5228 48.5645 15.5228C48.5645 15.5228 48.6273 15.1638 48.9414 15.3199C49.1862 15.4425 49.468 15.4687 49.7312 15.3935C49.8371 15.3505 49.0419 14.7509 48.1642 14.6612C47.2865 14.5714 47.719 14.2448 48.236 14.0545C48.8032 13.8445 49.6863 13.8409 50.2984 14.234C50.5802 14.4135 50.7848 15.2302 51.0577 15.4779C51.379 15.7759 53.4755 19.215 52.9388 20.1699Z" fill="url(#paint2_linear_438_557)"/>
    <path d="M41.7023 27.987L39.0943 28.346L38.8178 27.5149C38.2966 25.6538 37.9363 23.7513 37.7409 21.8285C37.731 21.7221 37.6996 21.6189 37.6486 21.525C37.5975 21.4312 37.5278 21.3488 37.4438 21.2828C37.3599 21.2168 37.2633 21.1685 37.1601 21.1411C37.0568 21.1136 36.9491 21.1075 36.8434 21.1231C36.8434 21.1231 38.3763 20.143 39.0727 20.8574C39.7692 21.5718 41.7023 27.987 41.7023 27.987Z" fill="url(#paint3_linear_438_557)"/>
    <path d="M41.4636 16.817C41.6072 17.176 41.9321 17.5062 42.3198 17.4937C42.4867 17.4937 42.6788 17.3824 42.6788 17.2155C42.6674 17.131 42.642 17.0491 42.6034 16.9731C42.5738 16.8645 42.5646 16.7513 42.5765 16.6393L42.6142 15.6287C42.633 15.4895 42.6105 15.3478 42.5496 15.2213C42.4908 15.1366 42.4084 15.071 42.3126 15.0328C41.9824 14.8766 41.3416 14.8874 41.1962 15.2948C41.0669 15.6323 41.3326 16.4885 41.4636 16.817Z" fill="url(#paint4_linear_438_557)"/>
    <path d="M43.1347 16.9336H43.088C43.0976 16.9345 43.1072 16.9345 43.1167 16.9336C43.1225 16.9316 43.1289 16.9316 43.1347 16.9336Z" fill="url(#paint5_linear_438_557)"/>
    <path d="M45.4807 13.3563C45.3537 13.9162 45.1072 14.442 44.758 14.8977C44.4089 15.3535 43.9653 15.7283 43.4577 15.9966C43.1304 16.1944 42.7455 16.2748 42.3664 16.2246C42.1872 16.1829 42.0173 16.108 41.8656 16.0038C40.9843 15.4205 40.6379 14.2825 40.6091 13.227C40.5786 12.2111 40.8281 11.1054 41.6179 10.4682C41.921 10.2336 42.2684 10.0626 42.6392 9.96558C43.7019 9.66582 44.7537 9.89558 45.4735 10.759C46.0245 11.4249 45.6637 12.5288 45.4807 13.3563Z" fill="url(#paint6_linear_438_557)"/>
    <path d="M45.6655 10.5005C45.6824 10.5751 45.6808 10.6527 45.6608 10.7266C45.6407 10.8004 45.6029 10.8683 45.5507 10.9241C45.4555 10.9873 45.3412 11.0152 45.2276 11.0031C44.6891 10.9869 44.1757 10.7608 43.6498 10.6297C43.1239 10.4987 42.5154 10.4826 42.0989 10.829C41.8744 11.0297 41.7187 11.2959 41.6538 11.59C41.5901 11.8813 41.5576 12.1786 41.5569 12.4768C41.3576 12.4624 41.3774 12.0855 41.1817 12.0496C41.0758 12.0298 40.9879 12.1321 40.9376 12.229C40.8368 12.4212 40.7842 12.6349 40.7842 12.8519C40.7842 13.0689 40.8368 13.2826 40.9376 13.4747C41.0026 13.5633 41.0435 13.6672 41.0561 13.7763C41.0561 13.9325 40.9089 14.0455 40.7814 14.1353C40.7484 14.1644 40.7068 14.182 40.663 14.1856C40.5858 14.1856 40.5373 14.1048 40.5032 14.0348C40.3331 13.6149 40.09 13.2284 39.7852 12.8932C39.5088 12.6221 39.1373 12.4283 38.9703 12.0801C38.9224 11.9925 38.9059 11.8911 38.9237 11.7929C38.9328 11.7428 38.9592 11.6975 38.9982 11.6647C39.0372 11.6319 39.0863 11.6138 39.1373 11.6134C39.1927 11.6275 39.2472 11.6448 39.3006 11.6654C39.3562 11.678 39.4316 11.6529 39.437 11.5954C39.4363 11.5772 39.4318 11.5593 39.4237 11.5429C39.4157 11.5266 39.4043 11.512 39.3904 11.5003C39.2327 11.3273 39.0514 11.1774 38.8519 11.0551C38.7707 11.0133 38.7015 10.9516 38.6508 10.8756C38.6217 10.82 38.6046 10.7588 38.6006 10.6962C38.5754 10.4754 38.6401 10.19 38.859 10.1577C38.9343 10.1543 39.0096 10.164 39.0816 10.1864C39.3539 10.2239 39.6307 10.1669 39.866 10.0248C39.9042 10.0066 39.9347 9.97544 39.9522 9.93688C39.9899 9.83278 39.8517 9.75739 39.7817 9.67123C39.6542 9.51686 39.7637 9.26377 39.9414 9.17223C40.1286 9.09843 40.3334 9.08157 40.5302 9.12377C40.7276 9.16619 40.9332 9.14869 41.1207 9.07351C40.9861 8.86888 40.6271 8.81324 40.6199 8.56912C40.6247 8.5043 40.6513 8.44299 40.6952 8.39512C40.7392 8.34724 40.798 8.31558 40.8622 8.30526C40.9916 8.29046 41.1226 8.31353 41.2392 8.37168C41.4725 8.47399 41.6825 8.62477 41.9141 8.73067C42.1408 8.85327 42.4053 8.88657 42.6554 8.82401C42.7918 8.77913 42.9103 8.69298 43.0449 8.64451C43.154 8.60571 43.2706 8.59233 43.3857 8.6054C43.5008 8.61846 43.6114 8.65762 43.709 8.7199C43.8559 8.83456 43.9895 8.9652 44.1075 9.10941C44.1674 9.1836 44.242 9.24456 44.3267 9.28843C44.4113 9.3323 44.5042 9.35813 44.5993 9.36429C44.6643 9.35717 44.7296 9.35358 44.795 9.35352C45.0355 9.37506 45.1414 9.65328 45.2922 9.80047C45.3983 9.886 45.4861 9.99209 45.5503 10.1124C45.6144 10.2327 45.6536 10.3647 45.6655 10.5005Z" fill="#E599F7"/>
    <path d="M43.088 16.93C42.9472 16.9434 42.8051 16.9325 42.668 16.8977C42.808 16.9073 42.948 16.918 43.088 16.93Z" fill="url(#paint7_linear_438_557)"/>
    <path d="M47.3385 27.1469V26.6085C47.3385 26.6085 44.3822 27.899 42.2157 27.9385C40.9859 27.9504 39.7606 28.0894 38.5593 28.3532L39.0745 29.2309C39.0745 29.2309 46.222 28.8252 47.3385 27.1469Z" fill="#9068FD"/>
    <path d="M47.3385 27.1469V26.6085C47.3385 26.6085 44.3822 27.899 42.2157 27.9385C40.9859 27.9504 39.7606 28.0894 38.5593 28.3532L39.0745 29.2309C39.0745 29.2309 46.222 28.8252 47.3385 27.1469Z" fill="url(#paint8_linear_438_557)"/>
    <path d="M42.2677 28.8881C41.3936 28.9293 40.514 28.8719 39.6453 28.967C39.5041 28.9692 39.367 29.0143 39.2522 29.0963C39.135 29.2263 39.0738 29.3971 39.0816 29.5719C38.9793 31.3956 40.3022 32.9375 41.2589 34.4919C41.466 34.7847 41.6047 35.1202 41.6646 35.4738C41.7095 35.8902 41.5569 36.3012 41.3971 36.689C40.8243 38.0881 40.1462 39.4417 39.3688 40.7384C40.0908 40.8123 40.8198 40.7074 41.4916 40.4328C42.1634 40.1583 42.7573 39.7226 43.2208 39.1642C43.539 38.7519 43.8162 38.3094 44.0483 37.8431C44.4827 37.03 44.9045 36.1935 45.0571 35.2853C45.2186 34.325 45.9151 32.3487 45.7661 31.3866C48.4029 31.2179 52.5349 30.5789 54.3316 32.7526C54.915 33.4598 55.1322 34.4076 55.3207 35.3032C56.2978 35.1172 57.2538 34.834 58.1746 34.4578C58.3093 34.4022 58.4636 34.3232 58.4906 34.1778C58.497 34.0648 58.4611 33.9535 58.39 33.8655L56.6058 31.0312C56.4745 30.7952 56.3067 30.5813 56.1086 30.3976C55.6348 30.0027 55.3817 29.2255 52.9818 28.7445C51.6374 28.477 47.3977 27.3498 46.8125 27.6298C45.3263 28.3406 43.946 28.8127 42.2677 28.8881Z" fill="url(#paint9_linear_438_557)"/>
    <path d="M56.7944 33.8422L53.9153 32.198L55.143 34.9981L58.3883 33.8673L56.7944 33.8422Z" fill="url(#paint10_linear_438_557)"/>
    <path d="M40.7976 35.4953C40.8061 35.5542 40.8264 35.6108 40.8573 35.6617C40.8881 35.7126 40.9289 35.7567 40.9771 35.7915C41.0672 35.823 41.1653 35.823 41.2553 35.7915L46.8 34.6697C46.8209 33.78 46.6552 32.8958 46.3135 32.0741C48.0538 31.8728 49.8109 31.8644 51.553 32.049C52.21 30.5496 52.7945 29.0215 53.3067 27.4647C51.8552 27.1984 50.3891 27.0186 48.9162 26.9262C48.588 26.8929 48.2568 26.902 47.9308 26.9531C47.448 27.0465 47.019 27.3121 46.5792 27.5311C45.3845 28.1046 44.0959 28.4573 42.7757 28.5722C41.7615 28.6799 40.1837 28.3604 39.3473 29.0694C37.5703 30.5754 40.3579 33.9373 40.7976 35.4953Z" fill="#9068FD"/>
    <path d="M42.8062 52.0592C37.7265 50.4581 32.688 48.4567 28.4465 45.224C24.205 41.9913 20.8251 37.389 19.9653 32.1334C19.0373 26.4667 21.159 20.5864 24.7579 16.1098C28.3568 11.6331 33.3037 8.42015 38.4768 5.92875C39.2378 5.56975 40.1281 5.01511 40.0779 4.17327C40.0025 2.9168 38.1698 2.86116 36.9798 3.25246C32.1334 4.84997 27.637 7.33779 23.2573 9.95125C19.2904 12.3206 15.3451 14.8425 12.1968 18.2242C8.71991 21.9595 6.36134 26.5905 4.37073 31.2897C1.57597 37.8862 -0.610288 44.9961 0.143595 52.1203C0.577975 56.2235 1.97625 60.1724 3.69223 63.9257C5.75644 68.4418 8.34656 72.8054 11.9867 76.1853C14.6056 78.6175 17.7109 80.4824 20.9615 81.9651C25.9049 84.2177 31.2808 85.6196 36.7123 85.634C43.8561 85.6294 50.7979 83.2629 56.4569 78.9029C60.0217 76.1386 63.0641 72.4841 64.265 68.1331C65.4658 63.7821 63.8019 58.7831 59.9319 56.4659C59.1479 55.9978 58.295 55.6561 57.4046 55.4535C56.543 55.2578 55.6545 55.195 54.7947 54.9868" fill="#9068FD"/>
    <path d="M42.8062 52.0592C37.7265 50.4581 32.688 48.4567 28.4465 45.224C24.205 41.9913 20.8251 37.389 19.9653 32.1334C19.0373 26.4667 21.159 20.5864 24.7579 16.1098C28.3568 11.6331 33.3037 8.42015 38.4768 5.92875C39.2378 5.56975 40.1281 5.01511 40.0779 4.17327C40.0025 2.9168 38.1698 2.86116 36.9798 3.25246C32.1334 4.84997 27.637 7.33779 23.2573 9.95125C19.2904 12.3206 15.3451 14.8425 12.1968 18.2242C8.71992 21.9595 6.36134 26.5905 4.37073 31.2897C1.57597 37.8862 -0.610288 44.9961 0.143595 52.1203C0.577975 56.2235 1.97625 60.1724 3.69223 63.9257C5.75644 68.4418 8.34656 72.8054 11.9867 76.1853C14.6056 78.6175 17.7109 80.4824 20.9615 81.9651C25.9049 84.2177 31.2808 85.6196 36.7123 85.634C43.8561 85.6294 50.7979 83.2629 56.4569 78.9029C60.0217 76.1386 63.0641 72.4841 64.265 68.1331C65.4658 63.7821 63.8019 58.7831 59.9319 56.4659C59.1479 55.9978 58.295 55.6561 57.4046 55.4535C56.543 55.2578 55.6545 55.195 54.7948 54.9868" fill="url(#paint11_linear_438_557)"/>
    <path d="M26.7396 16.7685C26.7396 16.7685 5.48544 31.7259 9.10587 50.2319C16.6573 88.7123 41.1585 68.7021 41.1585 68.7021C41.1585 68.7021 32.1711 72.0066 25.7326 66.7276C14.961 57.9018 6.80473 36.2456 26.7396 16.7685Z" fill="url(#paint12_linear_438_557)"/>
    <path d="M22.8589 11.5487C21.676 12.4947 21.0083 14.0437 19.6603 14.733C19.312 14.9125 18.9333 15.022 18.5976 15.2212C17.9712 15.6278 17.5133 16.2476 17.3089 16.9659C17.1886 17.3357 17.1294 17.7234 16.9786 18.086C16.7022 18.804 16.1709 19.3837 15.6467 19.9456C13.622 22.1229 11.5417 24.2966 10.0698 26.8795C9.25847 28.3011 8.64638 29.8232 8.0343 31.34C9.47027 29.0765 11.486 27.26 13.4802 25.4758L16.8458 22.4657L25.8816 14.3884C26.5239 13.7891 27.2045 13.2321 27.9189 12.7209C28.6476 12.2219 29.4661 11.7947 29.9562 11.0605C30.3151 10.5328 30.5377 9.44505 29.861 9.0717C29.231 8.7127 28.382 9.2835 27.8273 9.53121C26.2011 10.2635 24.2841 10.4071 22.8589 11.5487Z" fill="url(#paint13_linear_438_557)"/>
    <path d="M21.6078 42.2552L19.3371 38.2021C18.9207 39.3707 19.0643 40.6541 19.2133 41.8854L19.8595 47.2057C20.2059 50.0561 20.5972 53.0321 22.2288 55.3943C23.8604 57.7564 27.1506 59.2427 29.6923 57.9072C30.2495 57.6312 30.716 57.2014 31.0367 56.6687C31.2607 56.2422 31.4008 55.7767 31.4495 55.2974C31.8498 52.2782 30.1625 49.4996 27.655 47.938C26.6121 47.29 25.4238 46.8969 24.4671 46.1107C23.2304 45.0966 22.3886 43.6391 21.6078 42.2552Z" fill="url(#paint14_linear_438_557)"/>
    <path d="M34.7935 4.62201C33.2642 4.14814 31.5428 4.83022 30.4658 6.02208C29.3889 7.21393 28.9042 8.82581 28.7409 10.4179C25.8887 9.79868 22.7637 12.1214 22.5339 15.0328C21.7699 15.018 21.0156 15.2055 20.3475 15.5763C19.6794 15.9471 19.1212 16.4879 18.7296 17.144C18.3379 17.8001 18.1267 18.5481 18.1174 19.3122C18.1081 20.0763 18.301 20.8292 18.6765 21.4946C17.1436 22.9719 17.6139 25.9425 19.5255 26.8795C19.6773 26.967 19.8514 27.0082 20.0263 26.998C20.4141 26.9459 20.6007 26.5062 20.7246 26.1346C22.699 20.1753 27.2977 15.5084 32.5229 12.2183C35.253 10.5005 50.083 5.38307 42.9821 0.764639C39.7009 -1.37316 35.8292 1.31569 34.7935 4.62201Z" fill="#9068FD"/>
    <path d="M43.8312 5.63613C41.1711 8.54935 34.2999 11.1 32.5229 12.2147C29.5254 14.103 26.7342 16.4454 24.5282 19.2258C22.8637 21.2866 21.5755 23.6247 20.7229 26.1328C20.6008 26.5025 20.4141 26.9423 20.0264 26.9944C19.8515 27.0046 19.6774 26.9634 19.5256 26.8759C17.614 25.9407 17.1455 22.9701 18.6766 21.491C18.3011 20.8256 18.1082 20.0726 18.1175 19.3086C18.1268 18.5445 18.338 17.7965 18.7296 17.1404C19.1213 16.4843 19.6795 15.9435 20.3476 15.5727C21.0157 15.2019 21.77 15.0144 22.534 15.0292C22.7637 12.1177 25.887 9.79505 28.741 10.4143C28.9043 8.82219 29.3961 7.20852 30.4659 6.01846C31.5357 4.8284 33.2643 4.14811 34.7918 4.62198C35.8275 1.31566 39.701 -1.37319 42.984 0.762813C45.4736 2.38187 45.2689 4.06195 43.8312 5.63613Z" fill="url(#paint15_linear_438_557)"/>
    <path d="M42.2857 42.2425L41.9536 41.7597" stroke="black" stroke-width="0.0735934" stroke-miterlimit="10"/>
    <path d="M16.9409 61.7933C17.8276 57.6882 20.8198 54.3693 24.0256 51.6571C33.22 43.93 44.788 39.5928 56.7962 39.3706C57.1085 39.3706 57.4585 39.3706 57.6757 39.6057C58.1298 40.0778 57.5537 40.8191 57.0152 41.1943C54.4484 42.9803 51.6662 44.4827 49.3543 46.5881C47.0424 48.6936 45.1972 51.5781 45.2474 54.7014C45.3461 60.7647 52.2478 65.1391 52.2083 71.2006C52.1849 74.1013 50.4743 76.7937 48.2091 78.6031C45.9439 80.4124 43.1671 81.4552 40.392 82.2935C35.8059 83.6792 30.8393 84.5731 26.2621 83.1605C22.6722 82.053 19.3533 79.1505 18.3894 75.4421C17.8814 73.482 17.7199 71.3981 17.2694 69.3931C16.7093 66.9071 16.397 64.3116 16.9409 61.7933Z" fill="#9068FD"/>
    <path d="M16.9409 61.7933C17.8276 57.6882 20.8198 54.3693 24.0256 51.6571C33.22 43.93 44.788 39.5928 56.7962 39.3706C57.1085 39.3706 57.4585 39.3706 57.6757 39.6057C58.1298 40.0778 57.5537 40.8191 57.0152 41.1943C54.4484 42.9803 51.6662 44.4827 49.3543 46.5881C47.0424 48.6936 45.1972 51.5781 45.2474 54.7014C45.3461 60.7647 52.2478 65.1391 52.2083 71.2006C52.1849 74.1013 50.4743 76.7937 48.2091 78.6031C45.9439 80.4124 43.1671 81.4552 40.392 82.2935C35.8059 83.6792 30.8393 84.5731 26.2621 83.1605C22.6722 82.053 19.3533 79.1505 18.3894 75.4421C17.8814 73.482 17.7199 71.3981 17.2694 69.3931C16.7093 66.9071 16.397 64.3116 16.9409 61.7933Z" fill="url(#paint16_linear_438_557)"/>
    <path d="M29.8753 69.8204C31.1964 64.9237 36.2726 61.8166 37.8647 57.0007C38.5827 54.8468 38.5827 52.4128 39.8733 50.5586C41.9303 47.6275 46.1126 47.5072 49.5014 46.3477C47.0531 49.2699 44.7448 52.5977 44.4612 56.3994C44.2314 59.4616 45.3479 62.4413 45.9564 65.4496C46.5649 68.458 46.6403 71.7212 45.251 74.4585C44.6692 75.5903 43.8608 76.5902 42.8761 77.3962C41.8913 78.2021 40.7513 78.7969 39.5268 79.1434C33.1852 80.9078 28.075 76.4904 29.8753 69.8204Z" fill="#9068FD"/>
    <path d="M32.6845 69.4578C33.8117 65.2773 38.1465 62.6262 39.5053 58.5085C40.112 56.6741 40.1748 51.5172 41.2841 49.9358C43.0306 47.4408 47.6975 46.5523 50.5838 45.5651C48.4945 48.0583 43.9119 52.4092 43.6696 55.6545C43.474 58.268 44.4253 60.8097 44.9458 63.3729C45.4664 65.9361 45.6279 68.2731 44.4432 70.6101C43.465 72.5415 43.0755 73.7549 40.9879 74.3329C35.5743 75.8389 31.1498 75.1514 32.6845 69.4578Z" fill="#9068FD"/>
    <path d="M32.6845 69.4578C33.8117 65.2773 38.1465 62.6262 39.5053 58.5085C40.112 56.6741 40.1748 51.5172 41.2841 49.9358C43.0378 47.4336 46.7839 46.9167 49.6755 45.9294C47.5844 48.4244 43.9119 52.4021 43.6696 55.6474C43.474 58.2608 44.4253 60.8025 44.9458 63.3657C45.4664 65.9289 45.6279 68.2659 44.4432 70.603C43.465 72.5343 43.0755 73.7477 40.9879 74.3257C35.5743 75.8389 31.1498 75.1514 32.6845 69.4578Z" fill="url(#paint17_linear_438_557)"/>
    <path d="M41.2966 36.9295L42.7434 36.4592L44.8901 35.6838L45.1127 34.9981L41.6682 35.7161L41.2966 36.9295Z" fill="url(#paint18_linear_438_557)"/>
    <path d="M46.3099 32.0741C46.3099 32.0741 46.3817 31.2861 47.3654 30.5789C48.349 29.8717 52.3105 30.2199 52.3105 30.2199L51.5494 32.0508L46.3099 32.0741Z" fill="url(#paint19_linear_438_557)"/>
    <path d="M40.6056 30.7225C40.6358 30.7119 40.6687 30.7119 40.6989 30.7225C40.7283 30.7388 40.7502 30.7658 40.7599 30.7979C40.8123 30.9279 40.8154 31.0725 40.7689 31.2047C40.7223 31.3368 40.6291 31.4475 40.5068 31.5159C40.6291 31.5649 40.7363 31.6454 40.8174 31.7493C40.8748 31.8 40.9174 31.8653 40.9404 31.9384C40.9635 32.0114 40.9663 32.0894 40.9484 32.1639C40.9257 32.2016 40.8956 32.2344 40.8599 32.2601C40.8242 32.2858 40.7836 32.304 40.7406 32.3136C40.6976 32.3232 40.6531 32.3239 40.6099 32.3158C40.5666 32.3076 40.5255 32.2907 40.4889 32.2662C40.3458 32.1577 40.2393 32.008 40.1838 31.8372C40.0653 31.9162 40.0779 32.1244 39.945 32.1801C39.9144 32.1894 39.8818 32.1909 39.8504 32.1843C39.8191 32.1777 39.7898 32.1633 39.7655 32.1424C39.7173 32.096 39.681 32.0388 39.6596 31.9754C39.6234 31.8775 39.6023 31.7746 39.5968 31.6703C39.5968 31.6075 39.6058 31.5303 39.6632 31.5051C39.7207 31.48 39.8301 31.5267 39.8678 31.4657C39.7923 31.4239 39.7301 31.3617 39.6883 31.2862C39.661 31.2376 39.652 31.1809 39.6628 31.1262C39.6737 31.0716 39.7038 31.0226 39.7476 30.9882C39.8804 30.9038 39.9396 31.0331 40.0581 31.0528C40.2879 31.0779 40.383 30.7961 40.6056 30.7225Z" fill="url(#paint20_linear_438_557)"/>
    <path d="M42.501 33.0972C42.517 33.0937 42.5335 33.0938 42.5494 33.0976C42.5653 33.1014 42.5801 33.1088 42.5928 33.1192C42.6054 33.1295 42.6155 33.1427 42.6223 33.1575C42.6291 33.1724 42.6324 33.1886 42.6321 33.2049C42.6488 33.3433 42.615 33.4832 42.5369 33.5986C42.4587 33.7141 42.3414 33.7974 42.2066 33.8332C42.3128 33.9111 42.3964 34.0158 42.449 34.1365C42.4914 34.2002 42.516 34.2741 42.5201 34.3505C42.5242 34.4269 42.5077 34.503 42.4723 34.5709C42.4409 34.6017 42.4035 34.6258 42.3625 34.6417C42.3215 34.6577 42.2777 34.6651 42.2337 34.6636C42.1897 34.6621 42.1465 34.6517 42.1067 34.6329C42.0669 34.6142 42.0313 34.5876 42.002 34.5547C41.8928 34.414 41.83 34.2427 41.8225 34.0647C41.6879 34.1114 41.643 34.3142 41.5048 34.3358C41.4715 34.3379 41.4382 34.3312 41.4083 34.3164C41.3783 34.3016 41.3528 34.2792 41.3343 34.2514C41.3003 34.1972 41.28 34.1356 41.2751 34.0719C41.2628 33.9677 41.2676 33.8622 41.2894 33.7596C41.302 33.6985 41.3343 33.6267 41.3953 33.6178C41.4564 33.6088 41.5515 33.6806 41.6035 33.6303C41.5384 33.5693 41.4923 33.4908 41.4707 33.4042C41.4567 33.3503 41.4624 33.2932 41.4867 33.2432C41.5111 33.1932 41.5525 33.1535 41.6035 33.1313C41.7525 33.0829 41.783 33.2229 41.8871 33.2713C42.1043 33.3629 42.2677 33.1134 42.501 33.0972Z" fill="url(#paint21_linear_438_557)"/>
    <path d="M45.1235 32.4816C45.1554 32.4768 45.188 32.4838 45.2151 32.5013C45.2392 32.5246 45.2539 32.5559 45.2564 32.5892C45.2732 32.7277 45.2394 32.8675 45.1612 32.9829C45.083 33.0984 44.9657 33.1817 44.831 33.2175C44.9371 33.2955 45.0207 33.4001 45.0733 33.5208C45.116 33.5845 45.1406 33.6585 45.1443 33.735C45.1481 33.8116 45.131 33.8877 45.0948 33.9552C45.0635 33.986 45.0264 34.01 44.9855 34.026C44.9446 34.0419 44.9009 34.0493 44.8571 34.0478C44.8133 34.0463 44.7702 34.0359 44.7305 34.0172C44.6909 33.9985 44.6554 33.9719 44.6263 33.9391C44.5146 33.7983 44.4489 33.6266 44.4379 33.4472C44.3032 33.4939 44.2584 33.6985 44.1219 33.7183C44.0886 33.7218 44.055 33.7159 44.0249 33.7013C43.9948 33.6867 43.9693 33.664 43.9514 33.6357C43.9171 33.5816 43.8962 33.52 43.8904 33.4562C43.8796 33.3519 43.8851 33.2465 43.9066 33.1439C43.9191 33.0811 43.9496 33.0111 44.0125 33.0003C44.0753 32.9895 44.1686 33.0649 44.2207 33.0147C44.1549 32.9541 44.1087 32.8754 44.0878 32.7885C44.0737 32.7349 44.0791 32.6779 44.1031 32.6279C44.1271 32.5779 44.1682 32.5381 44.2189 32.5157C44.3697 32.4672 44.3984 32.6072 44.5043 32.6557C44.7268 32.7454 44.8902 32.4977 45.1235 32.4816Z" fill="url(#paint22_linear_438_557)"/>
    <path d="M49.173 27.4647C49.1889 27.4611 49.2055 27.4612 49.2214 27.465C49.2373 27.4688 49.2521 27.4762 49.2647 27.4866C49.2774 27.497 49.2875 27.5101 49.2943 27.5249C49.3011 27.5398 49.3044 27.556 49.304 27.5724C49.3208 27.7108 49.287 27.8506 49.2088 27.9661C49.1307 28.0815 49.0134 28.1648 48.8786 28.2006C48.9852 28.2781 49.0689 28.3829 49.1209 28.5039C49.1634 28.5676 49.1879 28.6415 49.192 28.7179C49.1961 28.7944 49.1796 28.8705 49.1443 28.9383C49.1129 28.9691 49.0755 28.9932 49.0345 29.0092C48.9935 29.0251 48.9496 29.0325 48.9057 29.031C48.8617 29.0295 48.8185 29.0191 48.7787 29.0004C48.7388 28.9817 48.7032 28.9551 48.674 28.9222C48.5626 28.7819 48.4969 28.6109 48.4855 28.4321C48.3527 28.477 48.306 28.6816 48.1696 28.7014C48.1363 28.7049 48.1027 28.699 48.0726 28.6844C48.0424 28.6698 48.017 28.6471 47.9991 28.6188C47.9654 28.5645 47.9451 28.503 47.9399 28.4393C47.9276 28.3351 47.9324 28.2296 47.9542 28.127C47.9668 28.066 47.9973 27.9942 48.0601 27.9834C48.1229 27.9726 48.2163 28.048 48.2683 27.9978C48.2032 27.9368 48.1571 27.8582 48.1355 27.7716C48.1214 27.718 48.1268 27.6611 48.1508 27.6111C48.1748 27.5611 48.2158 27.5213 48.2665 27.4988C48.4173 27.4503 48.446 27.5903 48.5519 27.6388C48.7745 27.7303 48.9379 27.4808 49.173 27.4647Z" fill="url(#paint23_linear_438_557)"/>
    <path d="M42.0989 29.7514C42.1107 29.7272 42.1303 29.7076 42.1546 29.6958C42.1822 29.688 42.2118 29.6912 42.2371 29.7048C42.3443 29.7553 42.4294 29.8431 42.4766 29.9517C42.5239 30.0604 42.53 30.1825 42.4938 30.2953C42.5985 30.2556 42.7115 30.2432 42.8223 30.2594C42.8874 30.2572 42.9518 30.2728 43.0087 30.3044C43.0656 30.336 43.1129 30.3825 43.1454 30.4389C43.1532 30.4754 43.1534 30.5131 43.1461 30.5497C43.1388 30.5863 43.1241 30.6211 43.103 30.6518C43.0818 30.6826 43.0546 30.7087 43.023 30.7285C42.9914 30.7484 42.9561 30.7616 42.9192 30.7674C42.7677 30.7837 42.6148 30.753 42.4813 30.6794C42.4543 30.7979 42.5818 30.92 42.5315 31.0295C42.519 31.0549 42.4996 31.0764 42.4755 31.0913C42.4513 31.1062 42.4235 31.114 42.3951 31.1138C42.3386 31.1144 42.2829 31.1002 42.2336 31.0725C42.1532 31.0341 42.0798 30.9825 42.0164 30.92C41.9787 30.8823 41.941 30.8284 41.9625 30.7782C41.9841 30.7279 42.0792 30.6956 42.0666 30.6364C41.9941 30.6588 41.9166 30.6588 41.8441 30.6364C41.799 30.6227 41.7604 30.5931 41.7353 30.5532C41.7102 30.5133 41.7004 30.4657 41.7076 30.4192C41.7399 30.2881 41.853 30.3348 41.9374 30.2774C42.1097 30.1625 42.0038 29.9309 42.0989 29.7514Z" fill="url(#paint24_linear_438_557)"/>
    <path d="M44.7034 28.766C44.7152 28.7418 44.7348 28.7222 44.7591 28.7104C44.7867 28.7026 44.8163 28.7058 44.8416 28.7194C44.9488 28.7699 45.0339 28.8577 45.0811 28.9663C45.1284 29.075 45.1345 29.1971 45.0983 29.3099C45.203 29.2702 45.316 29.2578 45.4268 29.274C45.4919 29.2718 45.5563 29.2874 45.6132 29.319C45.6701 29.3506 45.7174 29.3971 45.7499 29.4535C45.7577 29.49 45.7579 29.5277 45.7506 29.5643C45.7433 29.6009 45.7286 29.6357 45.7075 29.6664C45.6863 29.6971 45.6591 29.7232 45.6275 29.7431C45.5959 29.763 45.5606 29.7762 45.5237 29.782C45.3722 29.7983 45.2193 29.7676 45.0858 29.694C45.0588 29.8125 45.1863 29.9346 45.136 30.053C45.1234 30.0784 45.1039 30.0997 45.0798 30.1146C45.0557 30.1295 45.0279 30.1374 44.9996 30.1374C44.9431 30.138 44.8874 30.1238 44.8381 30.0961C44.7577 30.0576 44.6843 30.0061 44.6209 29.9435C44.5832 29.9058 44.5455 29.852 44.567 29.8017C44.5886 29.7515 44.6837 29.7192 44.6711 29.6599C44.5977 29.6794 44.5201 29.6763 44.4485 29.651C44.4035 29.6372 44.3648 29.6077 44.3398 29.5678C44.3147 29.5279 44.3049 29.4803 44.3121 29.4338C44.3444 29.3027 44.4575 29.3494 44.5419 29.292C44.7142 29.1717 44.6083 28.9401 44.7034 28.766Z" fill="url(#paint25_linear_438_557)"/>
    <path d="M51.0039 28.1503C51.0078 28.1367 51.0149 28.1243 51.0247 28.114C51.0344 28.1038 51.0465 28.096 51.0599 28.0915C51.0733 28.0869 51.0876 28.0856 51.1016 28.0877C51.1156 28.0899 51.1288 28.0953 51.1403 28.1037C51.2472 28.1545 51.3323 28.2422 51.3797 28.3507C51.4272 28.4592 51.434 28.5812 51.3987 28.6942C51.5028 28.6545 51.6153 28.6421 51.7254 28.6583C51.8547 28.6727 52.0036 28.7176 52.0485 28.8378C52.0566 28.8744 52.057 28.9123 52.0499 28.9492C52.0427 28.986 52.0281 29.0209 52.0069 29.0519C51.9857 29.0828 51.9584 29.1091 51.9266 29.1291C51.8949 29.1491 51.8594 29.1623 51.8224 29.1681C51.6714 29.1844 51.5191 29.1536 51.3862 29.0801C51.3575 29.1968 51.4849 29.3207 51.4364 29.4302C51.4232 29.4554 51.4033 29.4765 51.379 29.4914C51.3546 29.5062 51.3267 29.5142 51.2982 29.5145C51.2417 29.5151 51.186 29.5009 51.1367 29.4732C51.0572 29.4332 50.9841 29.3818 50.9195 29.3207C50.8818 29.283 50.8441 29.2291 50.8656 29.1789C50.8872 29.1286 50.9823 29.0963 50.9698 29.0371C50.8973 29.0571 50.8207 29.0558 50.749 29.0335C50.7042 29.0188 50.6659 28.9888 50.641 28.9487C50.6161 28.9087 50.606 28.8612 50.6126 28.8145C50.6467 28.6852 50.7579 28.7319 50.8423 28.6745C51.0128 28.5542 50.9087 28.3245 51.0039 28.1503Z" fill="url(#paint26_linear_438_557)"/>
    <path d="M44.1417 31.0223C44.1417 31.0097 44.156 30.9971 44.1686 30.9935C44.1818 30.9882 44.1966 30.9882 44.2099 30.9935C44.2638 31.0187 44.3067 31.0626 44.3305 31.1172C44.3543 31.1717 44.3574 31.2331 44.3391 31.2897C44.3916 31.2694 44.4486 31.2632 44.5042 31.2718C44.537 31.2708 44.5693 31.2789 44.5978 31.295C44.6262 31.3111 44.6498 31.3348 44.6658 31.3633C44.6927 31.4333 44.6263 31.5123 44.5527 31.5284C44.4769 31.5358 44.4005 31.5202 44.3337 31.4836C44.3194 31.5428 44.384 31.6038 44.3588 31.6631C44.3522 31.6754 44.3423 31.6857 44.3303 31.6929C44.3184 31.7002 44.3046 31.7041 44.2906 31.7043C44.2619 31.7051 44.2334 31.6983 44.2081 31.6846C44.168 31.6653 44.1315 31.6392 44.1004 31.6074C44.0894 31.5998 44.0809 31.5891 44.0761 31.5766C44.0713 31.5641 44.0704 31.5504 44.0735 31.5374C44.0842 31.5087 44.1309 31.4961 44.1237 31.4656C44.0873 31.4754 44.0489 31.4754 44.0124 31.4656C43.99 31.4583 43.9709 31.4433 43.9584 31.4232C43.946 31.4032 43.9409 31.3795 43.9442 31.3561C43.9622 31.2897 44.0178 31.313 44.0609 31.2843C44.147 31.2251 44.0932 31.1084 44.1417 31.0223Z" fill="url(#paint27_linear_438_557)"/>
    <path d="M46.6815 28.3783C46.6869 28.3659 46.6964 28.3558 46.7084 28.3496C46.7217 28.3443 46.7364 28.3443 46.7497 28.3496C46.8036 28.3747 46.8465 28.4187 46.8703 28.4732C46.8941 28.5277 46.8972 28.5891 46.8789 28.6457C46.9315 28.6254 46.9884 28.6193 47.0441 28.6278C47.0768 28.6269 47.1091 28.6349 47.1376 28.651C47.1661 28.6672 47.1896 28.6908 47.2056 28.7193C47.2325 28.7893 47.1679 28.8683 47.0925 28.8844C47.0167 28.8918 46.9404 28.8761 46.8735 28.8396C46.8592 28.8988 46.9238 28.9598 46.8987 29.0191C46.8922 29.0317 46.8825 29.0424 46.8705 29.05C46.8585 29.0576 46.8447 29.0618 46.8305 29.0622C46.8017 29.0611 46.7735 29.0538 46.7479 29.0406C46.708 29.0209 46.6717 28.9948 46.6402 28.9634C46.6292 28.9558 46.6207 28.9451 46.6159 28.9326C46.6111 28.9201 46.6102 28.9064 46.6133 28.8934C46.624 28.8647 46.6707 28.8521 46.6653 28.8216C46.6283 28.8315 46.5893 28.8315 46.5522 28.8216C46.5302 28.8137 46.5115 28.7986 46.4991 28.7787C46.4868 28.7589 46.4814 28.7354 46.484 28.7121C46.502 28.6457 46.5576 28.6691 46.6007 28.6403C46.6869 28.5811 46.633 28.4662 46.6815 28.3783Z" fill="url(#paint28_linear_438_557)"/>
    <path d="M49.1442 30.2504C49.1502 30.2385 49.1596 30.2285 49.1711 30.2217C49.1845 30.2172 49.199 30.2172 49.2124 30.2217C49.2661 30.2471 49.3087 30.2911 49.3325 30.3456C49.3562 30.4 49.3595 30.4612 49.3416 30.5179C49.3944 30.4985 49.4511 30.4924 49.5067 30.4999C49.5395 30.499 49.5718 30.5071 49.6003 30.5232C49.6288 30.5393 49.6523 30.5629 49.6683 30.5915C49.6952 30.6633 49.6288 30.7405 49.5552 30.7566C49.4793 30.7653 49.4026 30.7496 49.3362 30.7117C49.3219 30.771 49.3865 30.8338 49.3614 30.8912C49.3548 30.9038 49.345 30.9143 49.333 30.9219C49.321 30.9295 49.3073 30.9337 49.2932 30.9343C49.2643 30.9339 49.236 30.9265 49.2106 30.9128C49.1709 30.8935 49.1345 30.8681 49.1029 30.8374C49.0831 30.8176 49.0652 30.7907 49.076 30.7656C49.0867 30.7405 49.1334 30.7243 49.128 30.6938C49.0913 30.706 49.0516 30.706 49.0149 30.6938C48.9927 30.6861 48.9738 30.6711 48.9614 30.6511C48.949 30.6312 48.9438 30.6076 48.9467 30.5843C48.9647 30.5197 49.0203 30.543 49.0634 30.5143C49.1496 30.4533 49.0957 30.3384 49.1442 30.2504Z" fill="url(#paint29_linear_438_557)"/>
    <path d="M29.782 56.0225C26.2818 59.5172 21.5413 62.4969 16.6698 61.6389C13.6866 61.113 11.091 59.1816 9.19736 56.8158C7.30367 54.4501 6.02746 51.6589 4.83201 48.8749C4.69201 48.5482 4.52866 48.1964 4.21455 48.0349C3.73529 47.7908 3.12141 48.1336 2.88807 48.6182C2.65472 49.1029 2.69601 49.6755 2.75704 50.214C3.59289 57.2676 6.74563 63.8446 11.7211 68.9139C13.4012 70.6155 15.311 72.1448 17.5601 72.9866C21.2954 74.3759 25.7648 73.5556 28.7624 70.9296C31.6344 68.4167 33.0039 64.6472 34.0988 61.0017C34.6499 59.16 35.2081 57.2197 36.5669 55.8591C37.3872 55.037 38.4803 54.4501 39.035 53.4305C40.6271 50.5012 36.9026 50.7578 35.3517 51.4363C33.1439 52.3966 31.4531 54.3531 29.782 56.0225Z" fill="url(#paint30_linear_438_557)"/>
    <path d="M43.8509 4.88942C41.7741 7.16005 36.4251 9.14528 35.043 10.0069C32.7095 11.4787 30.534 13.3024 28.8163 15.4671C28.6808 15.5008 28.539 15.4994 28.4042 15.4629C28.2695 15.4265 28.1463 15.3563 28.0462 15.2589C27.8219 15.0202 27.7913 14.6666 27.7824 14.3417C27.7475 13.8371 27.788 13.3301 27.9026 12.8375C28.0659 12.2761 28.3916 11.7756 28.8388 11.399C29.286 11.0224 29.8346 10.7866 30.4156 10.7213C30.6052 10.727 30.7925 10.6771 30.9541 10.5777C31.0384 10.4972 31.104 10.3991 31.1461 10.2905C31.3669 9.81659 31.5643 9.31939 31.8892 8.90834C32.2141 8.4973 32.7077 8.176 33.2319 8.2119C33.4437 8.22626 33.6788 8.29267 33.8529 8.16702C33.949 8.08195 34.0219 7.97386 34.0647 7.8529C34.3557 7.28158 34.8409 6.83283 35.4332 6.58736C36.0255 6.34189 36.6859 6.31583 37.2957 6.51386C37.5164 5.47458 37.87 4.4353 38.5342 3.60423C39.5178 2.37648 41.0471 1.91338 42.5136 2.5111C43.5942 2.95087 44.1183 3.91476 43.8509 4.88942Z" fill="url(#paint31_linear_438_557)"/>
    <path d="M77.1725 30.5789C77.1725 30.5789 65.4353 31.1174 58.9932 33.8816C58.9932 33.8816 74.0708 31.7277 74.9073 31.7079L69.6786 34.1742C69.6786 34.1742 76.1494 32.6413 77.0738 31.7079C77.9982 30.7746 77.1725 30.5789 77.1725 30.5789Z" fill="url(#paint32_linear_438_557)"/>
    <path d="M40.4601 49.7545C42.4615 47.4659 45.7266 46.6761 48.7636 46.7892C50.9427 46.8682 53.2403 47.4228 54.7391 49.0042C54.8939 49.1534 55.0162 49.3331 55.098 49.5319C55.3099 50.1243 54.8091 50.7884 54.2006 50.941C53.5921 51.0935 52.9441 50.8333 52.4361 50.4689C51.9281 50.1045 51.4974 49.6307 51.0001 49.2519C50.5029 48.8732 49.688 48.6919 49.4296 49.2358C49.2501 49.6289 49.5193 50.1889 49.2034 50.4922C49.0077 50.6717 48.6954 50.643 48.4351 50.5766C47.6902 50.3845 46.9794 50.0291 46.213 49.9896C44.8381 49.9178 43.6247 50.8638 42.6841 51.869C41.7435 52.8741 40.8784 54.0229 39.6327 54.6045C38.9703 54.9114 38.1967 55.064 37.7228 55.6258C37.1556 56.3061 37.2615 57.3544 36.7482 58.0759C36.4143 58.5462 35.8704 58.8101 35.3427 59.0434C34.5051 59.4144 33.6572 59.7602 32.7993 60.0809C31.3633 60.6194 29.7263 61.0627 28.3424 60.404C28.0821 60.2784 27.8039 60.054 27.8434 59.7668C27.8705 59.6292 27.9402 59.5036 28.0426 59.4078C28.9742 58.4062 30.4712 58.4421 31.6433 57.9018C32.8154 57.3615 33.7685 56.3994 34.9658 55.834C37.791 54.5058 38.5288 51.9623 40.4601 49.7545Z" fill="url(#paint33_linear_438_557)"/>
    <path d="M22.7727 51.1258C22.0672 51.9497 21.64 52.9818 20.9346 53.8057C20.2292 54.6296 19.0571 55.2417 18.0627 54.7894C16.9749 54.2975 16.6267 52.7934 15.539 52.3123C14.6092 51.9013 13.4496 52.3859 12.5414 51.9282C10.9403 51.1223 11.7049 48.5896 10.7985 47.0441C10.1649 45.9671 8.79709 45.5327 7.99654 44.5671C7.00034 43.368 6.99495 41.4923 5.8031 40.4889C5.74017 40.4248 5.66459 40.3744 5.58116 40.341C5.49773 40.3076 5.40827 40.292 5.31846 40.2951C5.16584 40.3333 5.03396 40.4291 4.95049 40.5625C4.24507 41.5102 4.71894 42.86 5.30948 43.8832C6.06269 45.1853 6.97164 46.3908 8.01628 47.4731C8.39322 47.8644 8.80248 48.2611 8.9712 48.778C9.12198 49.2411 9.05916 49.7437 9.10762 50.2284C9.33737 52.5618 11.8557 53.8506 13.1912 55.7694C13.586 56.3366 13.884 56.9756 14.3471 57.489C15.4079 58.6719 17.1167 58.9878 18.7017 59.1044C20.7785 59.2624 23.1245 59.0955 24.5281 57.5554C24.8871 57.1533 25.2694 56.6274 25.8115 56.6453C26.0951 56.6543 26.35 56.8248 26.639 56.8338C27.5598 56.8733 27.7411 55.5432 27.5814 54.6368C27.4019 53.5849 27.348 50.0219 26.4218 49.4637C25.5459 48.9396 23.1711 50.3307 22.7727 51.1258Z" fill="url(#paint34_linear_438_557)"/>
    <path d="M28.0068 50.6358C28.2992 50.5847 28.576 50.467 28.8157 50.2917C29.0554 50.1165 29.2515 49.8884 29.3889 49.6253C29.6312 49.1909 29.7802 48.6398 30.2289 48.4244C30.6777 48.209 31.2305 48.4496 31.7331 48.3867C32.4726 48.2952 32.9537 47.5934 33.5532 47.15C34.1424 46.7192 34.8727 46.5269 35.5977 46.6115C35.6939 46.6166 35.7875 46.645 35.8705 46.6941C35.9501 46.7599 36.0052 46.8506 36.0267 46.9517C36.0482 47.0527 36.0349 47.158 35.989 47.2505C35.8898 47.4338 35.7387 47.5837 35.5546 47.6813C35.0758 47.977 34.5284 48.1433 33.966 48.1642C33.8394 48.1581 33.7129 48.1782 33.5945 48.2234C33.336 48.3526 33.2947 48.708 33.0937 48.9145C32.7526 49.2609 32.1352 49.0545 31.7134 49.2932C31.5294 49.4143 31.3788 49.5798 31.2754 49.7742C30.981 50.2481 30.7207 50.7704 30.2702 51.1007C29.9112 51.3664 29.4356 51.492 29.1358 51.8277C28.4663 52.5816 29.0478 53.8021 28.7104 54.7606C28.6272 54.9935 28.4884 55.2026 28.306 55.3696C28.1236 55.5367 27.9032 55.6567 27.6639 55.7191C27.4236 55.7772 27.1723 55.7712 26.9351 55.7016C26.6979 55.6319 26.4831 55.5012 26.3123 55.3225C25.9641 54.9455 25.8636 54.4088 25.7738 53.9026C25.6482 53.1308 25.5387 52.3033 25.869 51.5925C25.9874 51.3394 26.4541 50.3899 26.7467 50.3091C27.0393 50.2284 27.5939 50.6897 28.0068 50.6358Z" fill="url(#paint35_linear_438_557)"/>
    <path d="M24.503 48.586C25.0602 48.586 25.5118 48.1343 25.5118 47.5772C25.5118 47.0201 25.0602 46.5684 24.503 46.5684C23.9459 46.5684 23.4943 47.0201 23.4943 47.5772C23.4943 48.1343 23.9459 48.586 24.503 48.586Z" fill="url(#paint36_linear_438_557)"/>
    <path d="M22.0726 65.5645C22.6297 65.5645 23.0814 65.1128 23.0814 64.5557C23.0814 63.9986 22.6297 63.5469 22.0726 63.5469C21.5155 63.5469 21.0638 63.9986 21.0638 64.5557C21.0638 65.1128 21.5155 65.5645 22.0726 65.5645Z" fill="url(#paint37_linear_438_557)"/>
    <path d="M25.0056 45.0624C25.4061 45.0624 25.7307 44.7378 25.7307 44.3373C25.7307 43.9368 25.4061 43.6121 25.0056 43.6121C24.6051 43.6121 24.2804 43.9368 24.2804 44.3373C24.2804 44.7378 24.6051 45.0624 25.0056 45.0624Z" fill="url(#paint38_linear_438_557)"/>
    <path d="M47.0297 57.5464C47.2865 57.5464 47.4946 57.3383 47.4946 57.0815C47.4946 56.8248 47.2865 56.6166 47.0297 56.6166C46.773 56.6166 46.5648 56.8248 46.5648 57.0815C46.5648 57.3383 46.773 57.5464 47.0297 57.5464Z" fill="url(#paint39_linear_438_557)"/>
    <path d="M48.7853 60.0199C49.1144 60.0199 49.3812 59.7531 49.3812 59.4239C49.3812 59.0948 49.1144 58.828 48.7853 58.828C48.4561 58.828 48.1893 59.0948 48.1893 59.4239C48.1893 59.7531 48.4561 60.0199 48.7853 60.0199Z" fill="url(#paint40_linear_438_557)"/>
    <path d="M49.0779 57.6774C49.407 57.6774 49.6738 57.4106 49.6738 57.0815C49.6738 56.7524 49.407 56.4856 49.0779 56.4856C48.7487 56.4856 48.4819 56.7524 48.4819 57.0815C48.4819 57.4106 48.7487 57.6774 49.0779 57.6774Z" fill="url(#paint41_linear_438_557)"/>
    <path d="M50.5838 52.7036C50.9843 52.7036 51.309 52.379 51.309 51.9785C51.309 51.578 50.9843 51.2533 50.5838 51.2533C50.1833 51.2533 49.8586 51.578 49.8586 51.9785C49.8586 52.379 50.1833 52.7036 50.5838 52.7036Z" fill="url(#paint42_linear_438_557)"/>
    <path d="M17.3824 51.1779C17.7829 51.1779 18.1076 50.8532 18.1076 50.4527C18.1076 50.0522 17.7829 49.7275 17.3824 49.7275C16.9819 49.7275 16.6572 50.0522 16.6572 50.4527C16.6572 50.8532 16.9819 51.1779 17.3824 51.1779Z" fill="url(#paint43_linear_438_557)"/>
    <path d="M11.5704 46.1233C11.9709 46.1233 12.2955 45.7986 12.2955 45.3981C12.2955 44.9976 11.9709 44.673 11.5704 44.673C11.1699 44.673 10.8452 44.9976 10.8452 45.3981C10.8452 45.7986 11.1699 46.1233 11.5704 46.1233Z" fill="url(#paint44_linear_438_557)"/>
    <path d="M15.2788 27.3283C15.6793 27.3283 16.0039 27.0036 16.0039 26.6031C16.0039 26.2026 15.6793 25.8779 15.2788 25.8779C14.8783 25.8779 14.5536 26.2026 14.5536 26.6031C14.5536 27.0036 14.8783 27.3283 15.2788 27.3283Z" fill="url(#paint45_linear_438_557)"/>
    <path d="M28.7248 43.7737C29.1253 43.7737 29.45 43.449 29.45 43.0485C29.45 42.648 29.1253 42.3234 28.7248 42.3234C28.3243 42.3234 27.9996 42.648 27.9996 43.0485C27.9996 43.449 28.3243 43.7737 28.7248 43.7737Z" fill="url(#paint46_linear_438_557)"/>
    <path d="M19.5777 29.6958C19.0395 31.2282 18.6365 32.8048 18.3733 34.4075C17.9604 37.2382 18.271 40.1191 18.5815 42.9623C18.8382 45.2958 19.0984 47.6615 19.9062 49.8693C20.0857 50.3468 20.2831 50.8368 20.2382 51.343C20.1934 51.8492 19.8003 52.3679 19.2923 52.3464C18.7538 52.323 18.4199 51.754 18.2386 51.2443C17.8882 50.2644 17.702 49.2334 17.6876 48.1928C17.6876 47.7244 17.7055 47.2343 17.5081 46.8107C17.3106 46.3871 16.9068 46.0927 16.6591 45.6907C16.3324 45.1629 16.3001 44.5114 16.2875 43.8957C16.2569 42.2297 16.3265 40.5634 16.4957 38.9057C16.5091 38.5791 16.5846 38.2581 16.7183 37.9598C16.8332 37.7372 17.0109 37.5469 17.1096 37.3154C17.4525 36.513 16.7309 35.6353 16.7775 34.7629C16.8081 34.1437 17.2227 33.6142 17.3968 33.0182C17.772 31.7402 17.0378 30.2594 17.6481 29.0783C17.8276 28.748 18.0879 28.4716 18.2368 28.1288C18.6371 27.2151 18.0968 26.0897 18.5079 25.1814C18.7646 24.6142 19.3425 24.2517 19.6369 23.7042C19.7884 23.3665 19.9086 23.0156 19.9959 22.6559C20.3298 21.6167 21.0729 20.7694 21.807 19.9635C22.2378 19.4842 23.5804 17.7772 23.9017 18.9924C24.0938 19.7212 22.6758 21.7836 22.3635 22.4908C21.3152 24.8422 20.3866 27.2439 19.5777 29.6958Z" fill="url(#paint47_linear_438_557)"/>
    <path d="M12.5647 30.0046C12.3784 30.299 12.1341 30.5525 11.8467 30.7495C11.5398 30.929 11.1682 30.9738 10.8684 31.1623C9.72326 31.8803 10.2725 34.1042 9.01425 34.5997C8.70372 34.7199 8.33216 34.7002 8.07728 34.9138C7.52622 35.3697 8.04497 36.2636 7.91752 36.9672C7.79008 37.6708 7.03081 38.0909 6.87286 38.7765C6.77054 39.2163 6.93568 39.665 7.0362 40.1048C7.38083 41.6287 6.92312 43.2316 6.21052 44.6227C6.07462 44.8351 5.99437 45.0783 5.97717 45.3299C6.00535 45.5821 6.09335 45.824 6.23385 46.0353C6.75453 47.0028 7.01492 48.0889 6.98953 49.1873C6.95363 50.5945 6.50489 52.21 7.43468 53.269C7.64469 53.5096 7.91573 53.698 8.10061 53.9601C8.5314 54.5596 8.4237 55.3691 8.4596 56.1051C8.4955 56.841 8.8186 57.7205 9.55632 57.8085C10.0302 57.4154 10.0069 56.6956 9.94045 56.0835L9.47376 51.711C9.31759 50.2499 9.16143 48.7852 9.11476 47.3152C9.03579 44.4432 9.39657 41.582 9.75736 38.7334C9.87403 37.8144 9.9925 36.8864 10.2958 36.0105C10.6423 34.9999 11.2185 34.0863 11.791 33.1852L14.7886 28.4591C15.0471 28.0516 15.2661 27.5239 15.0435 27.0895C14.0671 27.2475 13.1247 29.2381 12.5647 30.0046Z" fill="url(#paint48_linear_438_557)"/>
  </g>
  <defs>
    <linearGradient id="paint0_linear_438_557" x1="51.8097" y1="23.7473" x2="52.42" y2="29.5378" gradientUnits="userSpaceOnUse">
      <stop stop-opacity="0"/>
      <stop offset="0.91" stop-opacity="0.8"/>
      <stop offset="1"/>
    </linearGradient>
    <linearGradient id="paint1_linear_438_557" x1="43.7001" y1="33.4796" x2="43.9389" y2="35.7448" gradientUnits="userSpaceOnUse">
      <stop stop-opacity="0"/>
      <stop offset="0.91" stop-opacity="0.8"/>
      <stop offset="1"/>
    </linearGradient>
    <linearGradient id="paint2_linear_438_557" x1="24.5712" y1="21.7387" x2="53.0267" y2="21.7387" gradientUnits="userSpaceOnUse">
      <stop stop-color="#D0BFFF"/>
      <stop offset="0.42" stop-color="#EFD1D1"/>
      <stop offset="1" stop-color="#F2C9C9"/>
    </linearGradient>
    <linearGradient id="paint3_linear_438_557" x1="35.5672" y1="23.5696" x2="59.6663" y2="30.2558" gradientUnits="userSpaceOnUse">
      <stop stop-color="#D0BFFF"/>
      <stop offset="0.42" stop-color="#EFD1D1"/>
      <stop offset="1" stop-color="#F2C9C9"/>
    </linearGradient>
    <linearGradient id="paint4_linear_438_557" x1="40.8497" y1="15.8621" x2="48.0834" y2="17.8688" gradientUnits="userSpaceOnUse">
      <stop stop-color="#D0BFFF"/>
      <stop offset="0.42" stop-color="#EFD1D1"/>
      <stop offset="1" stop-color="#F2C9C9"/>
    </linearGradient>
    <linearGradient id="paint5_linear_438_557" x1="43.088" y1="16.9318" x2="43.1347" y2="16.9318" gradientUnits="userSpaceOnUse">
      <stop stop-color="#D0BFFF"/>
      <stop offset="0.42" stop-color="#EFD1D1"/>
      <stop offset="1" stop-color="#F2C9C9"/>
    </linearGradient>
    <linearGradient id="paint6_linear_438_557" x1="42.3736" y1="11.581" x2="44.2224" y2="14.383" gradientUnits="userSpaceOnUse">
      <stop stop-color="#D0BFFF"/>
      <stop offset="0.42" stop-color="#EFD1D1"/>
      <stop offset="1" stop-color="#F2C9C9"/>
    </linearGradient>
    <linearGradient id="paint7_linear_438_557" x1="42.668" y1="16.9157" x2="43.088" y2="16.9157" gradientUnits="userSpaceOnUse">
      <stop stop-color="#D0BFFF"/>
      <stop offset="0.42" stop-color="#EFD1D1"/>
      <stop offset="1" stop-color="#F2C9C9"/>
    </linearGradient>
    <linearGradient id="paint8_linear_438_557" x1="42.9731" y1="27.5831" x2="43.2855" y2="29.1627" gradientUnits="userSpaceOnUse">
      <stop stop-opacity="0"/>
      <stop offset="0.91" stop-opacity="0.8"/>
      <stop offset="1"/>
    </linearGradient>
    <linearGradient id="paint9_linear_438_557" x1="39.0763" y1="34.1742" x2="58.4941" y2="34.1742" gradientUnits="userSpaceOnUse">
      <stop stop-color="#D0BFFF"/>
      <stop offset="0.42" stop-color="#EFD1D1"/>
      <stop offset="1" stop-color="#F2C9C9"/>
    </linearGradient>
    <linearGradient id="paint10_linear_438_557" x1="58.1568" y1="31.5751" x2="51.0451" y2="36.7482" gradientUnits="userSpaceOnUse">
      <stop stop-color="#D0BFFF"/>
      <stop offset="0.42" stop-color="#EFD1D1"/>
      <stop offset="1" stop-color="#F2C9C9"/>
    </linearGradient>
    <linearGradient id="paint11_linear_438_557" x1="18.3553" y1="44.5742" x2="74.1857" y2="43.885" gradientUnits="userSpaceOnUse">
      <stop stop-opacity="0"/>
      <stop offset="0.88" stop-opacity="0.8"/>
      <stop offset="0.97"/>
    </linearGradient>
    <linearGradient id="paint12_linear_438_557" x1="20.4105" y1="45.8074" x2="0.244152" y2="47.1733" gradientUnits="userSpaceOnUse">
      <stop stop-opacity="0"/>
      <stop offset="0.88" stop-opacity="0.8"/>
      <stop offset="0.97"/>
    </linearGradient>
    <linearGradient id="paint13_linear_438_557" x1="-8.71268" y1="25.9838" x2="74.6273" y2="8.21909" gradientUnits="userSpaceOnUse">
      <stop stop-opacity="0"/>
      <stop offset="0.88" stop-opacity="0.8"/>
      <stop offset="0.97"/>
    </linearGradient>
    <linearGradient id="paint14_linear_438_557" x1="28.556" y1="40.4135" x2="17.8258" y2="62.829" gradientUnits="userSpaceOnUse">
      <stop stop-opacity="0"/>
      <stop offset="0.88" stop-opacity="0.8"/>
      <stop offset="0.97"/>
    </linearGradient>
    <linearGradient id="paint15_linear_438_557" x1="17.5781" y1="18.9242" x2="52.2334" y2="3.50372" gradientUnits="userSpaceOnUse">
      <stop stop-color="#FAF3F3" stop-opacity="0"/>
      <stop offset="0.84" stop-color="#FAF3F3" stop-opacity="0.84"/>
      <stop offset="0.97" stop-color="#FAF3F3"/>
    </linearGradient>
    <linearGradient id="paint16_linear_438_557" x1="16.6573" y1="61.6227" x2="57.8409" y2="61.6227" gradientUnits="userSpaceOnUse">
      <stop stop-color="#FAF3F3" stop-opacity="0"/>
      <stop offset="0.84" stop-color="#FAF3F3" stop-opacity="0.84"/>
      <stop offset="0.97" stop-color="#FAF3F3"/>
    </linearGradient>
    <linearGradient id="paint17_linear_438_557" x1="37.8216" y1="73.5808" x2="47.1303" y2="35.0089" gradientUnits="userSpaceOnUse">
      <stop stop-opacity="0"/>
      <stop offset="0.88" stop-opacity="0.8"/>
      <stop offset="0.97"/>
    </linearGradient>
    <linearGradient id="paint18_linear_438_557" x1="43.307" y1="30.5035" x2="43.0683" y2="43.2029" gradientUnits="userSpaceOnUse">
      <stop stop-opacity="0"/>
      <stop offset="0.91" stop-opacity="0.8"/>
      <stop offset="1"/>
    </linearGradient>
    <linearGradient id="paint19_linear_438_557" x1="49.7257" y1="27.0626" x2="48.7116" y2="37.0175" gradientUnits="userSpaceOnUse">
      <stop stop-opacity="0"/>
      <stop offset="0.91" stop-opacity="0.8"/>
      <stop offset="1"/>
    </linearGradient>
    <linearGradient id="paint20_linear_438_557" x1="40.7994" y1="27.9224" x2="39.866" y2="34.9281" gradientUnits="userSpaceOnUse">
      <stop stop-color="#FAF3F3" stop-opacity="0"/>
      <stop offset="0.84" stop-color="#FAF3F3" stop-opacity="0.84"/>
      <stop offset="0.97" stop-color="#FAF3F3"/>
    </linearGradient>
    <linearGradient id="paint21_linear_438_557" x1="43.3923" y1="30.4331" x2="40.73" y2="36.9802" gradientUnits="userSpaceOnUse">
      <stop stop-color="#FAF3F3" stop-opacity="0"/>
      <stop offset="0.84" stop-color="#FAF3F3" stop-opacity="0.84"/>
      <stop offset="0.97" stop-color="#FAF3F3"/>
    </linearGradient>
    <linearGradient id="paint22_linear_438_557" x1="46.0165" y1="29.8175" x2="43.3529" y2="36.3624" gradientUnits="userSpaceOnUse">
      <stop stop-color="#FAF3F3" stop-opacity="0"/>
      <stop offset="0.84" stop-color="#FAF3F3" stop-opacity="0.84"/>
      <stop offset="0.97" stop-color="#FAF3F3"/>
    </linearGradient>
    <linearGradient id="paint23_linear_438_557" x1="50.0642" y1="24.7999" x2="47.4019" y2="31.347" gradientUnits="userSpaceOnUse">
      <stop stop-color="#FAF3F3" stop-opacity="0"/>
      <stop offset="0.84" stop-color="#FAF3F3" stop-opacity="0.84"/>
      <stop offset="0.97" stop-color="#FAF3F3"/>
    </linearGradient>
    <linearGradient id="paint24_linear_438_557" x1="40.5928" y1="27.9069" x2="44.0821" y2="32.7937" gradientUnits="userSpaceOnUse">
      <stop stop-color="#FAF3F3" stop-opacity="0"/>
      <stop offset="0.84" stop-color="#FAF3F3" stop-opacity="0.84"/>
      <stop offset="0.97" stop-color="#FAF3F3"/>
    </linearGradient>
    <linearGradient id="paint25_linear_438_557" x1="43.1982" y1="26.9155" x2="46.6875" y2="31.8024" gradientUnits="userSpaceOnUse">
      <stop stop-color="#FAF3F3" stop-opacity="0"/>
      <stop offset="0.84" stop-color="#FAF3F3" stop-opacity="0.84"/>
      <stop offset="0.97" stop-color="#FAF3F3"/>
    </linearGradient>
    <linearGradient id="paint26_linear_438_557" x1="49.4969" y1="26.2993" x2="52.9863" y2="31.1862" gradientUnits="userSpaceOnUse">
      <stop stop-color="#FAF3F3" stop-opacity="0"/>
      <stop offset="0.84" stop-color="#FAF3F3" stop-opacity="0.84"/>
      <stop offset="0.97" stop-color="#FAF3F3"/>
    </linearGradient>
    <linearGradient id="paint27_linear_438_557" x1="43.3847" y1="30.0925" x2="45.1355" y2="32.5451" gradientUnits="userSpaceOnUse">
      <stop stop-color="#FAF3F3" stop-opacity="0"/>
      <stop offset="0.84" stop-color="#FAF3F3" stop-opacity="0.84"/>
      <stop offset="0.97" stop-color="#FAF3F3"/>
    </linearGradient>
    <linearGradient id="paint28_linear_438_557" x1="45.9262" y1="27.4495" x2="47.6757" y2="29.9007" gradientUnits="userSpaceOnUse">
      <stop stop-color="#FAF3F3" stop-opacity="0"/>
      <stop offset="0.84" stop-color="#FAF3F3" stop-opacity="0.84"/>
      <stop offset="0.97" stop-color="#FAF3F3"/>
    </linearGradient>
    <linearGradient id="paint29_linear_438_557" x1="48.388" y1="29.3221" x2="50.1387" y2="31.7747" gradientUnits="userSpaceOnUse">
      <stop stop-color="#FAF3F3" stop-opacity="0"/>
      <stop offset="0.84" stop-color="#FAF3F3" stop-opacity="0.84"/>
      <stop offset="0.97" stop-color="#FAF3F3"/>
    </linearGradient>
    <linearGradient id="paint30_linear_438_557" x1="29.8322" y1="52.5833" x2="-9.69281" y2="72.9705" gradientUnits="userSpaceOnUse">
      <stop stop-color="#FAF3F3" stop-opacity="0"/>
      <stop offset="0.84" stop-color="#FAF3F3" stop-opacity="0.84"/>
      <stop offset="0.97" stop-color="#FAF3F3"/>
    </linearGradient>
    <linearGradient id="paint31_linear_438_557" x1="27.7752" y1="8.87424" x2="43.9191" y2="8.87424" gradientUnits="userSpaceOnUse">
      <stop stop-color="#FAF3F3" stop-opacity="0"/>
      <stop offset="0.84" stop-color="#FAF3F3" stop-opacity="0.84"/>
      <stop offset="0.97" stop-color="#FAF3F3"/>
    </linearGradient>
    <linearGradient id="paint32_linear_438_557" x1="68.0721" y1="27.8829" x2="68.7272" y2="44.2763" gradientUnits="userSpaceOnUse">
      <stop stop-color="#FAF3F3" stop-opacity="0"/>
      <stop offset="0.84" stop-color="#FAF3F3" stop-opacity="0.84"/>
      <stop offset="0.97" stop-color="#FAF3F3"/>
    </linearGradient>
    <linearGradient id="paint33_linear_438_557" x1="27.8326" y1="53.7537" x2="55.1501" y2="53.7537" gradientUnits="userSpaceOnUse">
      <stop stop-color="#FAF3F3" stop-opacity="0"/>
      <stop offset="0.84" stop-color="#FAF3F3" stop-opacity="0.84"/>
      <stop offset="0.97" stop-color="#FAF3F3"/>
    </linearGradient>
    <linearGradient id="paint34_linear_438_557" x1="4.60227" y1="49.7258" x2="27.6388" y2="49.7258" gradientUnits="userSpaceOnUse">
      <stop stop-color="#FAF3F3" stop-opacity="0"/>
      <stop offset="0.84" stop-color="#FAF3F3" stop-opacity="0.84"/>
      <stop offset="0.97" stop-color="#FAF3F3"/>
    </linearGradient>
    <linearGradient id="paint35_linear_438_557" x1="35.8866" y1="50.232" x2="28.154" y2="51.799" gradientUnits="userSpaceOnUse">
      <stop stop-color="#FAF3F3" stop-opacity="0"/>
      <stop offset="0.84" stop-color="#FAF3F3" stop-opacity="0.84"/>
      <stop offset="0.97" stop-color="#FAF3F3"/>
    </linearGradient>
    <linearGradient id="paint36_linear_438_557" x1="25.3556" y1="47.4049" x2="23.9915" y2="47.6813" gradientUnits="userSpaceOnUse">
      <stop stop-color="#FAF3F3" stop-opacity="0"/>
      <stop offset="0.84" stop-color="#FAF3F3" stop-opacity="0.84"/>
      <stop offset="0.97" stop-color="#FAF3F3"/>
    </linearGradient>
    <linearGradient id="paint37_linear_438_557" x1="22.9252" y1="64.3834" x2="21.561" y2="64.6598" gradientUnits="userSpaceOnUse">
      <stop stop-color="#FAF3F3" stop-opacity="0"/>
      <stop offset="0.84" stop-color="#FAF3F3" stop-opacity="0.84"/>
      <stop offset="0.97" stop-color="#FAF3F3"/>
    </linearGradient>
    <linearGradient id="paint38_linear_438_557" x1="25.6194" y1="44.2134" x2="24.6376" y2="44.4127" gradientUnits="userSpaceOnUse">
      <stop stop-color="#FAF3F3" stop-opacity="0"/>
      <stop offset="0.84" stop-color="#FAF3F3" stop-opacity="0.84"/>
      <stop offset="0.97" stop-color="#FAF3F3"/>
    </linearGradient>
    <linearGradient id="paint39_linear_438_557" x1="47.4269" y1="57.0897" x2="46.7838" y2="57.0832" gradientUnits="userSpaceOnUse">
      <stop stop-color="#FAF3F3" stop-opacity="0"/>
      <stop offset="0.84" stop-color="#FAF3F3" stop-opacity="0.84"/>
      <stop offset="0.97" stop-color="#FAF3F3"/>
    </linearGradient>
    <linearGradient id="paint40_linear_438_557" x1="49.383" y1="58.1495" x2="47.8411" y2="61.4343" gradientUnits="userSpaceOnUse">
      <stop stop-color="#FAF3F3" stop-opacity="0"/>
      <stop offset="0.84" stop-color="#FAF3F3" stop-opacity="0.84"/>
      <stop offset="0.97" stop-color="#FAF3F3"/>
    </linearGradient>
    <linearGradient id="paint41_linear_438_557" x1="49.6756" y1="55.8071" x2="48.1355" y2="59.0919" gradientUnits="userSpaceOnUse">
      <stop stop-color="#FAF3F3" stop-opacity="0"/>
      <stop offset="0.84" stop-color="#FAF3F3" stop-opacity="0.84"/>
      <stop offset="0.97" stop-color="#FAF3F3"/>
    </linearGradient>
    <linearGradient id="paint42_linear_438_557" x1="51.1959" y1="51.8546" x2="50.214" y2="52.0538" gradientUnits="userSpaceOnUse">
      <stop stop-color="#FAF3F3" stop-opacity="0"/>
      <stop offset="0.84" stop-color="#FAF3F3" stop-opacity="0.84"/>
      <stop offset="0.97" stop-color="#FAF3F3"/>
    </linearGradient>
    <linearGradient id="paint43_linear_438_557" x1="17.9963" y1="50.3288" x2="17.0144" y2="50.5281" gradientUnits="userSpaceOnUse">
      <stop stop-color="#FAF3F3" stop-opacity="0"/>
      <stop offset="0.84" stop-color="#FAF3F3" stop-opacity="0.84"/>
      <stop offset="0.97" stop-color="#FAF3F3"/>
    </linearGradient>
    <linearGradient id="paint44_linear_438_557" x1="12.1843" y1="45.2743" x2="11.2024" y2="45.4735" gradientUnits="userSpaceOnUse">
      <stop stop-color="#FAF3F3" stop-opacity="0"/>
      <stop offset="0.84" stop-color="#FAF3F3" stop-opacity="0.84"/>
      <stop offset="0.97" stop-color="#FAF3F3"/>
    </linearGradient>
    <linearGradient id="paint45_linear_438_557" x1="15.8926" y1="26.4792" x2="14.9108" y2="26.6785" gradientUnits="userSpaceOnUse">
      <stop stop-color="#FAF3F3" stop-opacity="0"/>
      <stop offset="0.84" stop-color="#FAF3F3" stop-opacity="0.84"/>
      <stop offset="0.97" stop-color="#FAF3F3"/>
    </linearGradient>
    <linearGradient id="paint46_linear_438_557" x1="29.3387" y1="42.9247" x2="28.3568" y2="43.1239" gradientUnits="userSpaceOnUse">
      <stop stop-color="#FAF3F3" stop-opacity="0"/>
      <stop offset="0.84" stop-color="#FAF3F3" stop-opacity="0.84"/>
      <stop offset="0.97" stop-color="#FAF3F3"/>
    </linearGradient>
    <linearGradient id="paint47_linear_438_557" x1="22.3473" y1="35.3678" x2="9.71258" y2="36.4789" gradientUnits="userSpaceOnUse">
      <stop stop-color="#FAF3F3" stop-opacity="0"/>
      <stop offset="0.84" stop-color="#FAF3F3" stop-opacity="0.84"/>
      <stop offset="0.97" stop-color="#FAF3F3"/>
    </linearGradient>
    <linearGradient id="paint48_linear_438_557" x1="5.97538" y1="42.449" x2="15.1387" y2="42.449" gradientUnits="userSpaceOnUse">
      <stop stop-color="#FAF3F3" stop-opacity="0"/>
      <stop offset="0.84" stop-color="#FAF3F3" stop-opacity="0.84"/>
      <stop offset="0.97" stop-color="#FAF3F3"/>
    </linearGradient>
    <clipPath id="clip0_438_557">
      <rect width="78" height="85.634" fill="white"/>
    </clipPath>
  </defs>
</svg>