<svg xmlns="http://www.w3.org/2000/svg" width="101" height="57" viewBox="0 0 101 57" fill="none">
  <g clip-path="url(#clip0_432_444)">
    <path opacity="0.1" d="M56.8362 20.9211C56.8362 20.9211 35.9581 28.0944 53.9194 30.2472C71.8807 32.4 78.3284 56.8125 78.3284 56.8125H18.7643C18.7643 56.8125 43.8689 34.8997 36.8804 31.0184C29.8919 27.137 56.2221 20.1172 56.2221 20.1172L58.6784 20.3525L56.8362 20.9211Z" fill="#602AF4"/>
    <path opacity="0.1" d="M29.5885 21.0415C29.5885 21.0415 60.4166 1.23115 63.6907 1.54351C65.6826 1.73352 69.656 2.25998 73.5905 3.9369C87.7331 9.9646 92.5199 18.2565 97.633 21.0884C97.6331 21.0884 31.5928 21.1119 29.5885 21.0415Z" fill="#602AF4"/>
    <path opacity="0.15" d="M101 20.2267C101 20.2267 86.1416 14.8596 75.2676 16.2707C64.3935 17.6818 55.6915 22.0402 45.7236 18.6159C35.7558 15.1916 33.1504 17.2827 29 20.2217L101 20.2267Z" fill="#602AF4"/>
    <path d="M56.1953 18.4484C56.1953 18.4484 59.0544 16.6064 58.0695 14.2446C57.0846 11.8828 53.5566 10.9795 52.268 13.9044C52.268 13.9044 50.2854 11.1549 48.7512 13.3385C47.217 15.5221 48.868 16.0406 49.5088 16.4095C51.347 17.468 48.4244 19.5121 47.6519 17.3194C47.6519 17.3194 47.0934 18.6388 48.0084 19.1317C49.3041 19.8297 51.7986 20.0077 51.347 18.181C50.8134 16.0233 52.9621 16.7087 52.873 15.6132C52.873 15.6132 52.5621 15.8155 52.6059 16.4094C52.6912 17.5647 53.4977 19.3949 56.1953 18.4484Z" fill="#5D0B70"/>
    <path d="M52.2679 20.0966C52.2679 20.0966 53.762 17.5906 54.0188 16.6993L55.0792 18.285C55.0792 18.285 54.8308 20.5258 54.3947 20.7423C53.9586 20.9588 52.2679 20.0966 52.2679 20.0966Z" fill="#9C53AD"/>
    <path d="M51.3779 36.6707C51.3779 36.6707 53.1706 43.1879 53.2263 43.8279C53.2821 44.4678 52.4386 47.1563 53.72 50.8313C55.0013 54.5062 55.1914 54.9178 55.1914 54.9178H56.1593C56.1593 54.9178 55.1004 47.2099 55.5101 44.8036C55.9198 42.3972 54.1116 32.8166 53.8759 31.4907L45.8481 29.9C45.8481 29.9 45.2434 32.8742 46.6815 35.3966C47.2018 36.3093 47.9608 40.3494 47.939 41.3115C47.9172 42.2736 45.9426 44.9345 46.0034 49.2243C46.0121 49.8304 45.8322 54.9178 45.8322 54.9178H46.6789C46.6789 54.9178 50.2633 43.7765 50.3995 41.9314C50.5357 40.0862 51.3779 36.6707 51.3779 36.6707Z" fill="#2F0E8C"/>
    <path d="M51.8408 19.6212C51.8408 19.6212 55.1237 18.7009 56.0505 22.2056C56.0505 22.2056 56.6834 23.5138 55.302 26.9006C53.9205 30.2874 54.0495 31.0254 54.2524 32.8846C54.2524 32.8846 49.1548 35.8996 46.4338 34.4764C43.7128 33.0532 48.6212 20.9343 51.8408 19.6212Z" fill="#5D0B70"/>
    <path d="M56.7725 23.4395C56.7725 23.4395 54.6953 21.4126 51.3655 23.4395C50.6822 23.8554 49.4888 27.2115 50.6822 29.7972C50.8605 30.1834 52.8807 28.9951 54.1878 26.6481L54.2769 27.1234C54.2769 27.1234 53.6828 29.0842 50.5336 30.9262C50.5336 30.9262 50.2174 33.1736 44.77 33.6297C43.9716 33.6966 41.5986 31.4126 42.9257 28.68C42.9582 28.6132 42.9419 28.532 42.9526 28.458C43.0899 27.5087 43.5184 26.564 44.4135 25.7568C44.4135 25.7568 45.5424 23.6771 46.9685 22.9642C46.9685 22.9642 46.7979 21.0653 48.9293 20.2012C50.0285 19.7556 50.8307 20.4092 50.8307 20.4092C50.8307 20.4092 50.9154 20.081 51.1875 19.6793C51.1875 19.6793 51.599 19.2199 51.3951 20.8845C51.3261 21.4479 51.963 21.6867 54.3957 21.6867C55.5842 21.6867 57.337 22.8156 56.7725 23.4395Z" fill="#FF5555"/>
    <path d="M42.9764 28.3118C42.9764 28.3118 42.9016 28.9357 45.3049 28.7574V29.2624C45.3049 29.2624 43.6771 29.5595 42.9016 28.9357C42.9016 28.9357 42.6978 28.4009 42.9764 28.3118Z" fill="#FAF3F3"/>
    <path d="M57.1588 23.4246C57.1588 23.4246 59.0899 25.4003 58.867 28.3118C58.6442 31.2232 57.5747 30.8667 57.5747 30.8667C57.5747 30.8667 55.4407 24.7169 57.1588 23.4246Z" fill="#5D0B70"/>
    <path d="M53.316 22.6372C53.316 22.6372 53.0739 25.1181 54.2771 27.1235C55.4803 29.1288 56.8618 30.6885 57.5748 30.8668C58.2878 31.0451 58.0204 27.6137 58.0204 27.6137C58.0204 27.6137 57.0103 24.2269 56.4625 23.1986C56.0639 22.4504 56.1326 21.9056 53.316 22.6372Z" fill="#2F0E8C"/>
    <path d="M56.416 22.2913C56.416 22.2913 56.9175 22.4481 57.3723 23.6716L56.8815 24.1748C56.8815 24.1748 56.194 22.6079 55.8816 22.3998C55.5693 22.1917 56.416 22.2913 56.416 22.2913ZM57.0113 13.9043C57.0113 13.9043 57.876 14.9955 57.6495 16.6838C57.423 18.3722 55.7553 20.1016 53.6964 17.8163C53.6964 17.8163 53.3052 17.3221 53.2434 16.8074C53.2434 16.8074 52.4816 16.3132 52.8728 15.6132C53.2641 14.9131 53.7376 15.5308 53.6964 15.8603C53.6552 16.1897 53.7994 16.6015 53.8817 16.1691C53.9641 15.7368 54.2111 15.1603 54.9935 14.6661C55.7759 14.1719 55.8789 15.222 56.4553 14.7691C57.0319 14.3161 57.0113 13.9043 57.0113 13.9043Z" fill="#E599F7"/>
    <path d="M56.0273 53.8953C56.2675 54.3963 56.5944 54.5152 57.248 54.5449C57.9016 54.5746 58.2878 54.7825 58.3472 55.0796C58.4066 55.3768 58.3472 55.8224 58.3472 55.8224H54.7821C54.7821 55.8224 54.4885 55.0597 54.9473 54.2823C54.9473 54.2823 55.6437 54.7928 56.0893 54.3866L56.0273 53.8953ZM47.005 53.8953C47.2452 54.3963 47.444 54.5152 48.0976 54.5449C48.7512 54.5746 49.1374 54.7825 49.1968 55.0796C49.2563 55.3768 49.1968 55.8224 49.1968 55.8224H45.6317C45.6317 55.8224 45.3381 55.0597 45.7968 54.2823C45.7968 54.2823 46.4018 54.7971 46.8475 54.3908L47.005 53.8953Z" fill="#FF5555"/>
    <path d="M86.2393 20.9002C86.4086 20.9002 86.4089 20.6372 86.2393 20.6372C86.0701 20.6372 86.0698 20.9002 86.2393 20.9002Z" fill="#D0BFFF"/>
  </g>
  <defs>
    <clipPath id="clip0_432_444">
      <rect width="101" height="56.8125" fill="white"/>
    </clipPath>
  </defs>
</svg>