<svg xmlns="http://www.w3.org/2000/svg" width="74" height="98" viewBox="0 0 74 98" fill="none">
  <g clip-path="url(#clip0_438_627)">
    <path opacity="0.18" d="M25.4527 7.64706C22.8463 9.96852 20.9718 13.0136 18.3982 15.3711C15.3139 18.1951 11.3896 19.8929 7.85669 22.1325C4.32375 24.3721 0.964336 27.5039 0.181783 31.6066C-1.19669 38.8428 5.64164 44.7561 8.4919 51.5486C12.8876 62.0263 7.75683 75.2871 14.0434 84.7547C19.1661 92.4623 29.5881 94.1879 38.815 94.905C46.1281 95.478 54.7624 95.2831 59.0812 89.3534C63.1249 83.8002 61.2651 76.0435 62.8187 69.3525C64.1072 63.8059 67.83 58.6865 67.3192 53.0155C66.4827 43.7345 55.1225 38.7527 52.5768 29.7877C50.5762 22.748 54.471 14.6344 51.141 8.11364C46.5718 -0.844783 31.6574 2.1168 25.4527 7.64706Z" fill="#9068FD"/>
    <path opacity="0.19" d="M13.5605 89.7725C13.0055 90.5911 13.459 92.04 14.4461 91.999L7.05774 96.2441C8.53116 97.5146 10.6594 97.6128 12.6093 97.6406C32.6664 97.9342 52.7186 97.5571 72.766 96.5094C73.5845 95.3241 72.4664 93.7033 71.1861 93.0419C69.9059 92.3805 68.3571 92.0956 67.4207 90.9987C66.8854 90.3684 66.6201 89.5253 66.0422 88.9392C65.0436 87.9144 63.4343 87.8816 62.0083 87.9144C52.7045 88.1518 43.4006 88.4202 34.0967 88.6707C29.7501 88.7919 16.4484 85.5127 13.5605 89.7725Z" fill="url(#paint0_linear_438_627)"/>
    <path d="M36.6883 14.379C36.6883 14.379 40.5503 10.8051 42.4658 10.3271C44.3812 9.84902 50.1128 18.4538 50.1128 18.4538L49.2304 19.0972L42.5935 14.4428C42.5935 14.4428 35.4277 22.568 31.6737 19.9289C27.9198 17.2898 36.6883 14.379 36.6883 14.379Z" fill="#36233A"/>
    <path d="M29.367 1.27531C29.367 1.27531 30.4983 0.628638 30.8224 0.818546C31.1466 1.00845 32.2958 9.51176 32.2958 9.51176L26.8507 7.41458L29.367 1.27531Z" fill="#9068FD"/>
    <path d="M29.367 1.27531C29.367 1.27531 30.4983 0.628638 30.8224 0.818546C31.1466 1.00845 32.2958 9.51176 32.2958 9.51176L26.8507 7.41458L29.367 1.27531Z" fill="url(#paint1_linear_438_627)"/>
    <path d="M57.5111 20.4675H21.9115C19.699 20.4675 17.9054 22.2611 17.9054 24.4736V86.8404C17.9054 89.0529 19.699 90.8465 21.9115 90.8465H57.5111C59.7236 90.8465 61.5172 89.0529 61.5172 86.8404V24.4736C61.5172 22.2611 59.7236 20.4675 57.5111 20.4675Z" fill="#9068FD"/>
    <path d="M59.4297 26.4185V82.8131C59.4298 83.0888 59.3974 83.3635 59.3331 83.6316C59.1498 84.4297 58.7012 85.1421 58.0607 85.6524C57.4202 86.1626 56.6256 86.4406 55.8067 86.441H23.6157C22.6548 86.441 21.7333 86.0593 21.0538 85.3798C20.3744 84.7004 19.9927 83.7788 19.9927 82.818V26.4185C19.9927 25.4576 20.3744 24.5361 21.0538 23.8567C21.7333 23.1772 22.6548 22.7955 23.6157 22.7955H55.8067C56.2825 22.7955 56.7536 22.8892 57.1932 23.0713C57.6328 23.2534 58.0322 23.5203 58.3686 23.8567C58.705 24.1931 58.9719 24.5925 59.1539 25.0321C59.336 25.4716 59.4297 25.9427 59.4297 26.4185Z" fill="#9068FD"/>
    <path d="M59.4298 26.4185V82.8131C59.4298 83.0888 59.3974 83.3635 59.3332 83.6316L30.9206 86.0448C29.9631 86.1255 29.0127 85.8226 28.2783 85.2028C27.544 84.583 27.0858 83.6969 27.0046 82.7394L22.2438 26.5479C22.1744 25.7329 22.3828 24.9185 22.8353 24.2372C23.2877 23.5558 23.9575 23.0477 24.7355 22.7955H55.8068C56.2826 22.7955 56.7537 22.8892 57.1932 23.0713C57.6328 23.2534 58.0322 23.5203 58.3686 23.8567C58.705 24.1931 58.9719 24.5925 59.154 25.0321C59.3361 25.4716 59.4298 25.9427 59.4298 26.4185Z" fill="#9068FD"/>
    <path d="M53.4624 46.493H26.6379C24.938 46.493 23.5601 47.871 23.5601 49.5709V58.1135C23.5601 59.8133 24.938 61.1913 26.6379 61.1913H53.4624C55.1622 61.1913 56.5402 59.8133 56.5402 58.1135V49.5709C56.5402 47.871 55.1622 46.493 53.4624 46.493Z" fill="#FAF3F3"/>
    <path d="M52.1919 58.5277H52.5357C53.1406 58.5277 53.631 58.0374 53.631 57.4325V50.3731C53.631 49.7682 53.1406 49.2779 52.5357 49.2779H52.1919C51.5871 49.2779 51.0967 49.7682 51.0967 50.3731V57.4325C51.0967 58.0374 51.5871 58.5277 52.1919 58.5277Z" fill="#9068FD"/>
    <path d="M52.6471 65.6968H25.8226C24.1227 65.6968 22.7448 67.0748 22.7448 68.7746V77.3172C22.7448 79.017 24.1227 80.395 25.8226 80.395H52.6471C54.3469 80.395 55.7249 79.017 55.7249 77.3172V68.7746C55.7249 67.0748 54.3469 65.6968 52.6471 65.6968Z" fill="#FAF3F3"/>
    <path d="M28.848 0.73503C28.848 0.73503 29.4848 1.20653 29.552 1.71731C29.6584 2.53588 30.0218 2.56208 30.4573 2.79619C30.7389 2.94681 30.3607 3.52472 30.3607 3.52472C30.3607 3.52472 30.9763 4.52337 30.7847 5.24699C30.5932 5.9706 29.2786 6.94634 26.9473 6.4159C24.616 5.88547 24.1429 4.37767 24.7028 3.24968C25.2627 2.12169 26.4005 0.667907 28.848 0.73503Z" fill="url(#paint2_linear_438_627)"/>
    <path d="M29.0412 0.623685C29.0085 0.574571 29.1689 0.841425 28.5632 0.787399C28.3291 0.766116 27.7724 1.01332 27.499 1.49301C27.0521 2.27883 26.8704 1.8761 26.5462 2.47529C26.2221 3.07448 26.1517 3.40027 26.4971 3.98637C26.6232 4.1992 26.7951 4.39729 26.8393 4.64122C26.651 4.5872 26.5528 4.37437 26.3776 4.29415C26.2658 4.25479 26.1432 4.26005 26.0353 4.30884C25.9273 4.35764 25.8423 4.44621 25.798 4.55609C25.7591 4.66797 25.7474 4.78753 25.7639 4.90483C25.7804 5.02214 25.8247 5.13382 25.893 5.2306C26.0316 5.42149 26.2015 5.58755 26.3956 5.72174C26.5906 5.85877 26.7639 6.02434 26.9097 6.21288C26.9522 6.27345 26.9899 6.35695 26.9473 6.41916C26.9133 6.45711 26.8656 6.48006 26.8147 6.48301C26.4214 6.52841 26.0234 6.45904 25.6687 6.28328C25.0093 5.97338 24.4572 5.4739 24.083 4.84867C23.7089 4.22344 23.5297 3.50085 23.5683 2.77325C23.573 2.60436 23.6091 2.43782 23.6747 2.28211C23.7586 2.12391 23.8694 1.98154 24.0021 1.86136C24.8562 1.02812 25.9079 0.425378 27.0586 0.109623C27.4548 0.00157217 27.8919 -0.0688248 28.2619 0.109623C28.6319 0.288072 28.8628 0.291346 29.0412 0.628596" fill="#E599F7"/>
    <path d="M26.5854 6.31935L27.052 7.46535C27.052 7.46535 27.5203 8.21189 29.0412 8.04981C30.5621 7.88773 30.2215 7.71256 30.2215 7.71256C30.2215 7.71256 29.4521 7.66999 28.938 6.41595C28.424 5.1619 26.5854 6.31935 26.5854 6.31935Z" fill="url(#paint3_linear_438_627)"/>
    <path d="M34.0803 19.0923C32.5692 19.6211 30.8666 19.4197 29.9596 19.238C29.5536 19.1594 29.3047 19.0857 29.3047 19.0857C29.3047 19.0857 22.0309 9.47736 26.849 7.41456C26.849 7.41456 27.3402 7.24102 29.2098 7.46695C31.0794 7.69287 32.0928 9.06152 32.2893 9.51174C32.4857 9.96195 32.8311 12.5421 32.8311 12.5421L34.8121 14.7539C34.8121 14.7539 36.2708 18.3359 34.0803 19.0923Z" fill="#9068FD"/>
    <path d="M30.7127 16.7086L29.9596 19.238C29.5536 19.1594 29.3047 19.0857 29.3047 19.0857C29.3047 19.0857 22.0309 9.47735 26.849 7.41455L28.198 11.3437C28.198 11.3437 27.3696 12.3669 29.0412 14.5377L30.7127 16.7086Z" fill="url(#paint4_linear_438_627)"/>
    <path d="M34.8138 14.7539C34.8138 14.7539 38.6758 11.18 40.5896 10.7019C42.5034 10.2239 50.1128 18.4538 50.1128 18.4538L47.3543 19.4721L40.7173 14.8177C40.7173 14.8177 34.2113 22.5925 30.4524 19.9518C26.6936 17.3111 34.8138 14.7539 34.8138 14.7539Z" fill="#E599F7"/>
    <path d="M47.8519 19.2871L48.7409 20.1057C48.7409 20.1057 50.5598 20.5674 50.8299 19.9534C51.1 19.3395 50.1128 18.4554 50.1128 18.4554L47.8519 19.2871Z" fill="url(#paint5_linear_438_627)"/>
    <path d="M47.8519 19.6571C47.8519 19.6571 49.9524 18.7174 50.5909 18.6847C51.2293 18.6519 54.132 18.9712 54.6739 19.5785C54.7883 19.6925 54.8653 19.8386 54.8946 19.9975C54.9238 20.1563 54.904 20.3203 54.8376 20.4675H47.8519V19.6571Z" fill="#36233A"/>
    <path d="M54.0354 27.4548H26.0649C24.6815 27.4548 23.5601 28.5763 23.5601 29.9597V38.1896C23.5601 39.5729 24.6815 40.6944 26.0649 40.6944H54.0354C55.4188 40.6944 56.5402 39.5729 56.5402 38.1896V29.9597C56.5402 28.5763 55.4188 27.4548 54.0354 27.4548Z" fill="#FAF3F3"/>
    <path d="M28.3847 52.9794H51.5863V54.8278H28.3847V52.9794ZM26.1386 51.2424H26.502V56.8627H26.1386C25.806 56.8627 25.487 56.7306 25.2518 56.4954C25.0166 56.2602 24.8845 55.9413 24.8845 55.6087V52.4981C24.8843 52.3333 24.9166 52.17 24.9795 52.0177C25.0424 51.8654 25.1348 51.7269 25.2512 51.6103C25.3677 51.4937 25.506 51.4012 25.6583 51.338C25.8105 51.2749 25.9738 51.2424 26.1386 51.2424Z" fill="#9068FD"/>
    <path d="M27.9067 49.2778H27.5629C26.958 49.2778 26.4677 49.7682 26.4677 50.3731V57.4324C26.4677 58.0373 26.958 58.5277 27.5629 58.5277H27.9067C28.5116 58.5277 29.0019 58.0373 29.0019 57.4324V50.3731C29.0019 49.7682 28.5116 49.2778 27.9067 49.2778Z" fill="#9068FD"/>
    <path d="M29.0019 50.3747V57.4324C29.0019 57.7226 28.8867 58.001 28.6817 58.2063C28.4766 58.4117 28.1985 58.5272 27.9083 58.5277H27.5645C27.274 58.5277 26.9954 58.4123 26.79 58.2069C26.5846 58.0015 26.4692 57.7229 26.4692 57.4324V50.3747C26.469 50.2307 26.4972 50.0882 26.5521 49.9551C26.6071 49.822 26.6877 49.7011 26.7895 49.5992C26.8912 49.4973 27.012 49.4165 27.145 49.3614C27.278 49.3062 27.4205 49.2778 27.5645 49.2778H27.9083C28.0521 49.278 28.1945 49.3066 28.3273 49.3618C28.4601 49.4171 28.5807 49.4979 28.6823 49.5998C28.7838 49.7016 28.8643 49.8225 28.9192 49.9555C28.974 50.0884 29.0021 50.2309 29.0019 50.3747Z" fill="url(#paint6_linear_438_627)"/>
    <path d="M53.6311 50.3747V57.4324C53.6307 57.7228 53.5151 58.0011 53.3098 58.2064C53.1045 58.4117 52.8262 58.5272 52.5358 58.5277H52.1937C51.9031 58.5277 51.6243 58.4123 51.4186 58.207C51.213 58.0016 51.0972 57.7231 51.0968 57.4324V50.3747C51.0968 50.0838 51.2124 49.8048 51.4181 49.5991C51.6238 49.3934 51.9028 49.2778 52.1937 49.2778H52.5358C52.8265 49.2783 53.105 49.394 53.3104 49.5997C53.5157 49.8053 53.6311 50.0841 53.6311 50.3747Z" fill="url(#paint7_linear_438_627)"/>
    <path d="M53.9601 56.8758H53.5967V51.2555H53.9601C54.2927 51.2555 54.6117 51.3876 54.8469 51.6228C55.0821 51.858 55.2142 52.1769 55.2142 52.5095V55.6201C55.2144 55.7849 55.1821 55.9482 55.1192 56.1005C55.0563 56.2529 54.9639 56.3913 54.8475 56.5079C54.731 56.6245 54.5927 56.7171 54.4404 56.7802C54.2882 56.8433 54.1249 56.8758 53.9601 56.8758Z" fill="#9068FD"/>
    <path d="M29.002 52.9794H51.0968V54.8261H29.002V52.9794Z" fill="url(#paint8_linear_438_627)"/>
    <path d="M26.1386 51.2424H26.502V56.8627H26.1386C25.806 56.8627 25.487 56.7306 25.2518 56.4954C25.0166 56.2602 24.8845 55.9413 24.8845 55.6087V52.4981C24.8843 52.3333 24.9166 52.17 24.9795 52.0177C25.0424 51.8654 25.1348 51.7269 25.2512 51.6103C25.3677 51.4937 25.506 51.4012 25.6583 51.338C25.8105 51.2749 25.9738 51.2424 26.1386 51.2424Z" fill="url(#paint9_linear_438_627)"/>
    <path d="M53.9601 56.8759H53.5966V51.2556H53.9601C54.2927 51.2556 54.6116 51.3877 54.8468 51.6229C55.082 51.858 55.2141 52.177 55.2141 52.5096V55.6202C55.2143 55.785 55.182 55.9482 55.1191 56.1006C55.0562 56.2529 54.9639 56.3914 54.8474 56.508C54.7309 56.6246 54.5926 56.7171 54.4403 56.7802C54.2881 56.8434 54.1249 56.8759 53.9601 56.8759Z" fill="url(#paint10_linear_438_627)"/>
    <path d="M36.5066 72.4892H42.9455V74.3375H36.5066V72.4892Z" fill="#9068FD"/>
    <path d="M34.9905 69.5833H32.7133C31.876 69.5833 31.1973 70.262 31.1973 71.0992V75.7291C31.1973 76.5663 31.876 77.2451 32.7133 77.2451H34.9905C35.8278 77.2451 36.5065 76.5663 36.5065 75.7291V71.0992C36.5065 70.262 35.8278 69.5833 34.9905 69.5833Z" fill="#9068FD"/>
    <path d="M46.7371 69.5817H44.4598C43.6226 69.5817 42.9438 70.2604 42.9438 71.0977V75.7275C42.9438 76.5647 43.6226 77.2435 44.4598 77.2435H46.7371C47.5744 77.2435 48.2531 76.5647 48.2531 75.7275V71.0977C48.2531 70.2604 47.5744 69.5817 46.7371 69.5817Z" fill="#9068FD"/>
    <path d="M33.8511 69.5784V77.2386H32.7133C32.5141 77.2388 32.3169 77.1998 32.1329 77.1236C31.9488 77.0475 31.7816 76.9359 31.6408 76.7951C31.5 76.6542 31.3883 76.487 31.3122 76.303C31.2361 76.119 31.1971 75.9218 31.1973 75.7226V71.0993C31.1971 70.9002 31.2361 70.703 31.3122 70.5189C31.3883 70.3349 31.5 70.1677 31.6408 70.0269C31.7816 69.8861 31.9488 69.7744 32.1329 69.6983C32.3169 69.6222 32.5141 69.5831 32.7133 69.5833L33.8511 69.5784ZM45.5992 69.5784V77.2386H44.4614C44.2622 77.2388 44.065 77.1998 43.881 77.1236C43.6969 77.0475 43.5297 76.9359 43.3889 76.7951C43.2481 76.6542 43.1364 76.487 43.0603 76.303C42.9842 76.119 42.9452 75.9218 42.9454 75.7226V71.0993C42.9452 70.9002 42.9842 70.703 43.0603 70.5189C43.1364 70.3349 43.2481 70.1677 43.3889 70.0269C43.5297 69.8861 43.6969 69.7744 43.881 69.6983C44.065 69.6222 44.2622 69.5831 44.4614 69.5833L45.5992 69.5784Z" fill="#9068FD"/>
    <path d="M36.5066 72.4892H42.9455V74.3375H36.5066V72.4892Z" fill="url(#paint11_linear_438_627)"/>
    <path d="M34.9905 69.5833H32.7133C31.876 69.5833 31.1973 70.262 31.1973 71.0992V75.7291C31.1973 76.5663 31.876 77.2451 32.7133 77.2451H34.9905C35.8278 77.2451 36.5065 76.5663 36.5065 75.7291V71.0992C36.5065 70.262 35.8278 69.5833 34.9905 69.5833Z" fill="url(#paint12_linear_438_627)"/>
    <path d="M46.7371 69.5817H44.4598C43.6226 69.5817 42.9438 70.2604 42.9438 71.0977V75.7275C42.9438 76.5647 43.6226 77.2435 44.4598 77.2435H46.7371C47.5744 77.2435 48.2531 76.5647 48.2531 75.7275V71.0977C48.2531 70.2604 47.5744 69.5817 46.7371 69.5817Z" fill="url(#paint13_linear_438_627)"/>
    <path d="M33.8511 69.5784V77.2386H32.7133C32.5141 77.2388 32.3169 77.1998 32.1329 77.1236C31.9488 77.0475 31.7816 76.9359 31.6408 76.7951C31.5 76.6542 31.3883 76.487 31.3122 76.303C31.2361 76.119 31.1971 75.9218 31.1973 75.7226V71.0993C31.1971 70.9002 31.2361 70.703 31.3122 70.5189C31.3883 70.3349 31.5 70.1677 31.6408 70.0269C31.7816 69.8861 31.9488 69.7744 32.1329 69.6983C32.3169 69.6222 32.5141 69.5831 32.7133 69.5833L33.8511 69.5784Z" fill="url(#paint14_linear_438_627)"/>
    <path d="M45.5992 69.5784V77.2386H44.4614C44.2623 77.2388 44.0651 77.1998 43.881 77.1236C43.697 77.0475 43.5298 76.9359 43.389 76.7951C43.2482 76.6542 43.1365 76.487 43.0604 76.303C42.9843 76.119 42.9452 75.9218 42.9454 75.7226V71.0993C42.9452 70.9002 42.9843 70.703 43.0604 70.5189C43.1365 70.3349 43.2482 70.1677 43.389 70.0269C43.5298 69.8861 43.697 69.7744 43.881 69.6983C44.0651 69.6222 44.2623 69.5831 44.4614 69.5833L45.5992 69.5784Z" fill="url(#paint15_linear_438_627)"/>
    <path d="M22.7416 4.20418C22.6991 4.4696 22.7373 4.74164 22.8513 4.98509C22.932 5.20626 23.0789 5.39718 23.272 5.5319C23.4247 5.61641 23.5974 5.658 23.7718 5.65223C23.9462 5.64647 24.1157 5.59357 24.2625 5.49916C24.2948 5.48399 24.3212 5.4587 24.3378 5.42712C24.3607 5.36982 24.3198 5.30761 24.2821 5.26341L23.8057 4.65112C23.5863 4.36953 23.439 4.06666 23.2458 3.77525C23.1443 3.61972 23.0821 3.65737 22.9462 3.79817C22.8422 3.91226 22.7714 4.05268 22.7416 4.20418Z" fill="url(#paint16_linear_438_627)"/>
    <path d="M29.5717 9.51179C29.4423 11.3045 26.4808 12.0919 26.4808 12.0919C25.027 10.5612 26.1075 8.79473 26.1075 8.79473V8.76853L26.0535 7.88611L25.9274 5.79549L25.8947 5.24705V5.22904L24.729 5.64814C24.729 5.64814 23.9399 5.37147 23.8057 5.28634C23.6714 5.20121 23.3866 4.73298 23.1312 4.1518C22.8758 3.57061 23.6796 3.24974 23.6796 3.24974C23.6796 3.24974 26.0224 2.73404 27.0538 2.26745C27.3571 2.13634 27.6882 2.08265 28.0174 2.11123C28.3466 2.13981 28.6636 2.24975 28.9397 2.43117C28.9397 2.43117 29.6994 7.7224 29.5717 9.51179Z" fill="#9068FD"/>
    <path d="M26.926 7.27873C26.902 7.54652 26.838 7.8092 26.7361 8.05801C26.5806 8.40508 26.3678 8.52295 26.1026 8.79472C26.1271 8.75379 26.1222 8.75052 26.1026 8.76853L26.0485 7.88611C26.0522 7.87546 26.0566 7.86507 26.0616 7.855C26.209 7.49156 26.0387 7.06917 26.0109 6.67626C25.988 6.38321 25.9585 6.09017 25.9241 5.79548L25.8897 5.53026C25.8684 5.36655 25.8373 5.30598 25.8897 5.24704C25.9247 5.21612 25.9645 5.19122 26.0076 5.17337C26.1856 5.10855 26.3753 5.08232 26.5642 5.09642C26.6105 5.09192 26.6572 5.09732 26.7013 5.11229C26.7453 5.12725 26.7857 5.15142 26.8196 5.18319C26.8536 5.23175 26.875 5.28801 26.8818 5.3469C27.0011 5.9842 27.016 6.63664 26.926 7.27873Z" fill="url(#paint17_linear_438_627)"/>
    <path opacity="0.47" d="M20.1385 3.7441C20.1582 4.58395 20.5707 5.36487 21.0651 6.04428C21.1472 6.13734 21.2037 6.25019 21.2289 6.37171C21.2583 6.60418 21.0651 6.79573 20.9129 6.97581C20.5044 7.5007 20.3128 8.16223 20.3775 8.82415C20.4464 9.4812 20.6357 10.12 20.9358 10.7085C21.591 12.102 22.5138 13.3531 23.6518 14.3904C23.8059 14.5087 23.9303 14.6611 24.0153 14.8357C24.0552 14.9238 24.0619 15.0233 24.0342 15.116C24.0065 15.2086 23.9463 15.2882 23.8647 15.34C23.6682 15.4316 23.4488 15.2876 23.2851 15.1468C21.5925 13.6802 20.3619 11.754 19.7423 9.60179C19.5328 8.86671 19.4051 8.04487 19.7554 7.36545C19.8884 7.16661 19.9951 6.95147 20.073 6.72533C20.1844 6.22437 19.7947 5.76761 19.5606 5.31084C19.3922 4.9758 19.2995 4.60783 19.289 4.23298C19.2785 3.85813 19.3506 3.48556 19.5 3.14163C19.6638 2.78801 20.3186 1.74679 20.795 2.05294C20.4676 2.60138 20.1238 3.04341 20.1385 3.7441ZM16.6383 5.16023C16.7349 5.99353 17.2195 6.73352 17.7761 7.36218C17.8648 7.44833 17.9316 7.55441 17.9709 7.6716C18.0217 7.9008 17.8449 8.10872 17.7106 8.3019C17.3527 8.86334 17.2237 9.54074 17.3505 10.1944C17.4809 10.8425 17.7301 11.4608 18.0855 12.0182C18.8679 13.3459 19.9044 14.5064 21.1355 15.4333C21.2998 15.5364 21.4381 15.6759 21.5399 15.8409C21.5877 15.9253 21.6033 16.0241 21.5841 16.1192C21.5648 16.2142 21.512 16.2991 21.4351 16.3583C21.2501 16.4679 21.016 16.3435 20.8409 16.2191C19.0189 14.9165 17.6141 13.1131 16.7971 11.0277C16.5204 10.3156 16.3158 9.51011 16.6023 8.80123C16.7162 8.59125 16.8021 8.36723 16.8577 8.13491C16.9215 7.62412 16.4926 7.20665 16.2176 6.77281C16.0192 6.45491 15.8931 6.09733 15.8481 5.72533C15.8031 5.35333 15.8404 4.97599 15.9573 4.61997C16.0817 4.25161 16.6432 3.15473 17.1458 3.41504C16.8593 3.99131 16.5581 4.46444 16.6383 5.16023Z" fill="#9068FD"/>
    <path d="M32.4367 31.3364C32.4367 31.3364 29.9466 34.2702 30.459 35.2934C30.9714 36.3166 35.6176 36.2659 35.6176 36.2659L36.5999 40.6862H43.2516L44.2797 36.3445C44.2797 36.3445 48.7475 36.3445 49.0274 34.9791C49.3074 33.6137 46.7354 30.8862 46.7354 30.8862C46.7354 30.8862 46.5979 29.904 46.1543 29.9662C45.7106 30.0284 44.8593 30.0677 44.7218 30.5457C44.5842 31.0238 45.2473 31.3987 45.2473 31.3987C45.2473 31.3987 44.9002 31.5902 45.0017 31.7261C45.1032 31.862 45.8498 31.8898 45.8498 31.8898C45.8498 31.8898 46.259 33.9231 46.6683 34.059C46.6683 34.059 44.2339 32.5266 42.2792 33.1406C42.2792 33.1406 41.1413 34.059 41.3116 33.1291C41.3607 32.8606 41.5506 31.97 41.5506 31.97C41.5506 31.97 42.1645 31.5951 42.1645 31.3561C42.1645 31.1171 41.824 31.1171 41.7209 31.2202C41.6177 31.3234 41.9599 30.2232 41.2428 29.9547C40.5258 29.6862 39.0949 29.3784 38.481 30.3329C37.8671 31.2873 38.463 31.6426 37.9522 31.9193L38.242 32.2598C38.242 32.2598 38.0406 33.0047 38.2927 33.1127C38.959 33.3992 38.7102 33.5662 38.3615 33.6579C38.2096 33.6977 38.0501 33.6987 37.8977 33.661C37.7452 33.6232 37.6047 33.5479 37.4889 33.4418C37.204 33.1799 36.0269 32.8819 35.2296 33.2093C33.1603 34.059 32.3581 34.1703 32.3581 34.1703C32.3581 34.1703 33.3305 33.9821 33.7055 32.4808C34.0804 30.9796 34.5748 30.4688 34.5748 30.4688C34.5748 30.4688 35.2067 30.4016 35.2067 30.3051C35.2067 30.2085 34.9169 29.9989 34.9169 29.9989C34.9169 29.9989 35.1379 29.4406 34.8203 29.2818C34.4958 29.1482 34.1607 29.042 33.8184 28.9642C33.8184 28.9642 33.4288 29.0543 33.3633 29.737C33.2978 30.4197 32.4367 31.3364 32.4367 31.3364ZM42.397 89.4172H38.2485C38.1267 89.4172 38.0061 89.3932 37.8935 89.3466C37.781 89.2999 37.6788 89.2315 37.5927 89.1453C37.5066 89.059 37.4384 88.9567 37.392 88.8441C37.3455 88.7315 37.3217 88.6108 37.3219 88.489C37.3219 88.2432 37.4195 88.0075 37.5933 87.8338C37.7671 87.66 38.0028 87.5624 38.2485 87.5624H42.397C42.6428 87.5624 42.8785 87.66 43.0522 87.8338C43.226 88.0075 43.3236 88.2432 43.3236 88.489C43.3239 88.6108 43.3001 88.7315 43.2536 88.8441C43.2071 88.9567 43.1389 89.059 43.0528 89.1453C42.9668 89.2315 42.8645 89.2999 42.752 89.3466C42.6395 89.3932 42.5188 89.4172 42.397 89.4172Z" fill="#9068FD"/>
  </g>
  <defs>
    <linearGradient id="paint0_linear_438_627" x1="7.05774" y1="92.6588" x2="73.0426" y2="92.6588" gradientUnits="userSpaceOnUse">
      <stop stop-color="#571866"/>
      <stop offset="1" stop-color="#461AC1"/>
    </linearGradient>
    <linearGradient id="paint1_linear_438_627" x1="27.7921" y1="5.14878" x2="33.2323" y2="5.14878" gradientUnits="userSpaceOnUse">
      <stop/>
      <stop offset="0.08" stop-opacity="0.81"/>
      <stop offset="1" stop-opacity="0"/>
    </linearGradient>
    <linearGradient id="paint2_linear_438_627" x1="27.0259" y1="3.19565" x2="30.9812" y2="5.57769" gradientUnits="userSpaceOnUse">
      <stop stop-color="#D0BFFF"/>
      <stop offset="0.83" stop-color="#F2C9C9"/>
    </linearGradient>
    <linearGradient id="paint3_linear_438_627" x1="26.5854" y1="6.95456" x2="30.2543" y2="6.95456" gradientUnits="userSpaceOnUse">
      <stop stop-color="#D0BFFF"/>
      <stop offset="0.83" stop-color="#F2C9C9"/>
    </linearGradient>
    <linearGradient id="paint4_linear_438_627" x1="23.8711" y1="14.8652" x2="33.6514" y2="11.5451" gradientUnits="userSpaceOnUse">
      <stop/>
      <stop offset="0.08" stop-opacity="0.81"/>
      <stop offset="1" stop-opacity="0"/>
    </linearGradient>
    <linearGradient id="paint5_linear_438_627" x1="47.8519" y1="19.3624" x2="50.8774" y2="19.3624" gradientUnits="userSpaceOnUse">
      <stop stop-color="#D0BFFF"/>
      <stop offset="0.83" stop-color="#F2C9C9"/>
    </linearGradient>
    <linearGradient id="paint6_linear_438_627" x1="27.7593" y1="49.1387" x2="27.7004" y2="60.8377" gradientUnits="userSpaceOnUse">
      <stop/>
      <stop offset="0.17" stop-opacity="0.73"/>
      <stop offset="0.29" stop-opacity="0.36"/>
      <stop offset="1" stop-opacity="0"/>
    </linearGradient>
    <linearGradient id="paint7_linear_438_627" x1="52.6226" y1="49.9049" x2="51.9661" y2="60.0518" gradientUnits="userSpaceOnUse">
      <stop/>
      <stop offset="0.14" stop-opacity="0.49"/>
      <stop offset="1" stop-opacity="0"/>
    </linearGradient>
    <linearGradient id="paint8_linear_438_627" x1="40.0314" y1="52.8517" x2="40.0674" y2="54.9375" gradientUnits="userSpaceOnUse">
      <stop/>
      <stop offset="0.17" stop-opacity="0.73"/>
      <stop offset="0.29" stop-opacity="0.36"/>
      <stop offset="1" stop-opacity="0"/>
    </linearGradient>
    <linearGradient id="paint9_linear_438_627" x1="24.634" y1="49.8443" x2="27.9165" y2="61.2454" gradientUnits="userSpaceOnUse">
      <stop/>
      <stop offset="0.17" stop-opacity="0.73"/>
      <stop offset="0.29" stop-opacity="0.36"/>
      <stop offset="1" stop-opacity="0"/>
    </linearGradient>
    <linearGradient id="paint10_linear_438_627" x1="54.6149" y1="51.0869" x2="53.8389" y2="59.8604" gradientUnits="userSpaceOnUse">
      <stop/>
      <stop offset="0.17" stop-opacity="0.73"/>
      <stop offset="0.29" stop-opacity="0.36"/>
      <stop offset="1" stop-opacity="0"/>
    </linearGradient>
    <linearGradient id="paint11_linear_438_627" x1="39.5631" y1="71.1091" x2="40.1083" y2="78.8528" gradientUnits="userSpaceOnUse">
      <stop/>
      <stop offset="0.17" stop-opacity="0.73"/>
      <stop offset="0.29" stop-opacity="0.36"/>
      <stop offset="1" stop-opacity="0"/>
    </linearGradient>
    <linearGradient id="paint12_linear_438_627" x1="35.0626" y1="64.2364" x2="31.916" y2="88.0747" gradientUnits="userSpaceOnUse">
      <stop/>
      <stop offset="0.17" stop-opacity="0.73"/>
      <stop offset="0.29" stop-opacity="0.36"/>
      <stop offset="1" stop-opacity="0"/>
    </linearGradient>
    <linearGradient id="paint13_linear_438_627" x1="46.6094" y1="65.7606" x2="43.4628" y2="89.599" gradientUnits="userSpaceOnUse">
      <stop/>
      <stop offset="0.17" stop-opacity="0.73"/>
      <stop offset="0.29" stop-opacity="0.36"/>
      <stop offset="1" stop-opacity="0"/>
    </linearGradient>
    <linearGradient id="paint14_linear_438_627" x1="29.0739" y1="68.5847" x2="36.1529" y2="77.4776" gradientUnits="userSpaceOnUse">
      <stop/>
      <stop offset="0.17" stop-opacity="0.73"/>
      <stop offset="0.26" stop-opacity="0.55"/>
      <stop offset="1" stop-opacity="0"/>
    </linearGradient>
    <linearGradient id="paint15_linear_438_627" x1="44.3763" y1="67.4682" x2="44.1946" y2="79.2048" gradientUnits="userSpaceOnUse">
      <stop/>
      <stop offset="0.17" stop-opacity="0.73"/>
      <stop offset="0.29" stop-opacity="0.36"/>
      <stop offset="1" stop-opacity="0"/>
    </linearGradient>
    <linearGradient id="paint16_linear_438_627" x1="22.7219" y1="4.66258" x2="24.3443" y2="4.66258" gradientUnits="userSpaceOnUse">
      <stop stop-color="#D0BFFF"/>
      <stop offset="0.83" stop-color="#F2C9C9"/>
    </linearGradient>
    <linearGradient id="paint17_linear_438_627" x1="27.3337" y1="5.51225" x2="23.4209" y2="10.0602" gradientUnits="userSpaceOnUse">
      <stop/>
      <stop offset="0.08" stop-opacity="0.81"/>
      <stop offset="1" stop-opacity="0"/>
    </linearGradient>
    <clipPath id="clip0_438_627">
      <rect width="73.0426" height="97.7372" fill="white"/>
    </clipPath>
  </defs>
</svg>