<svg width="2891" height="824" viewBox="0 0 2891 824" fill="none" xmlns="http://www.w3.org/2000/svg">
<path d="M328.407 726.751C322.66 727.145 303.976 727.692 286.706 715.023C279.044 709.363 272.799 702.003 268.462 693.521C268.066 692.308 263.465 677.678 270.09 672.018C275.713 667.216 286.036 671.766 295.176 675.928C320.728 687.563 347.51 711.486 342.546 721.655C341.346 724.113 337.917 726.534 328.406 726.751H328.407Z" fill="url(#paint0_linear_560_437)"/>
<path d="M763.546 567.655C764.794 570.464 763.748 576.437 763.82 579.557L764.144 593.623L764.767 620.673L766.014 674.771C766.448 693.621 767.204 712.461 767.786 731.307C768.522 755.154 776.919 790.897 754.546 807.655C733.628 823.323 700.943 807.361 699.546 806.655C652.409 782.863 643.286 689.743 664.546 621.655C675.56 586.379 703.269 530.472 731.546 533.655C746.056 535.289 756.662 552.028 763.546 567.655Z" fill="url(#paint1_linear_560_437)"/>
<path d="M1153.55 601.655C1142.75 609.81 1130.55 615.912 1117.55 619.655C1015.36 618.477 967.042 616.483 942.546 614.655C936.172 614.18 920.852 613.001 898.688 611.665C877.301 610.375 861.604 609.69 848.036 608.975C824.412 607.973 800.872 605.528 777.546 601.655C713.596 591.395 680.856 585.855 643.546 565.655C624.876 555.545 556.006 516.955 522.546 434.655C515.186 416.545 501.426 376.385 505.546 325.655C507.966 295.795 510.736 261.675 534.546 237.655C563.946 207.995 608.816 210.505 653.546 213.655C740.006 219.735 803.806 254.345 847.546 278.655C862.296 286.855 879.706 297.255 898.896 310.305C921.524 325.696 943.221 342.414 963.871 360.372C972.01 367.422 982.561 371.049 993.314 370.494C1013.73 369.476 1034.19 369.864 1054.55 371.655C1082.68 374.128 1099.81 375.635 1119.55 383.655C1130.39 388.062 1172.79 405.155 1192.55 448.655C1216.28 500.93 1196.63 568.826 1153.55 601.655Z" fill="url(#paint2_linear_560_437)"/>
<path d="M1153.55 571.655C1142.75 579.81 1130.55 585.912 1117.55 589.655C1015.36 588.477 967.042 586.483 942.546 584.655C936.172 584.18 920.852 583.001 898.688 581.665C877.301 580.375 861.604 579.69 848.036 578.975C824.412 577.973 800.872 575.528 777.546 571.655C713.596 561.395 680.856 555.855 643.546 535.655C624.876 525.545 556.006 486.955 522.546 404.655C512.811 380.629 506.984 355.198 505.286 329.33C503.092 365.287 508.99 401.279 522.546 434.655C556.006 516.955 624.876 555.545 643.546 565.655C680.856 585.855 713.596 591.395 777.546 601.655C800.872 605.528 824.412 607.973 848.036 608.975C861.604 609.69 877.301 610.375 898.688 611.665C920.852 613.001 936.172 614.18 942.546 614.655C967.042 616.483 1015.36 618.477 1117.55 619.655C1130.55 615.912 1142.75 609.81 1153.55 601.655C1187.75 575.593 1207.18 527.432 1201.86 482.53C1197.86 517.656 1180.18 551.358 1153.55 571.655Z" fill="#FB7D7D"/>
<g style="mix-blend-mode:multiply" opacity="0.08">
<path d="M1153.55 571.655C1142.75 579.81 1130.55 585.912 1117.55 589.655C1015.36 588.477 967.042 586.483 942.546 584.655C936.172 584.18 920.852 583.001 898.688 581.665C877.301 580.375 861.604 579.69 848.036 578.975C824.412 577.973 800.872 575.528 777.546 571.655C713.596 561.395 680.856 555.855 643.546 535.655C624.876 525.545 556.006 486.955 522.546 404.655C512.811 380.629 506.984 355.198 505.286 329.33C503.092 365.287 508.99 401.279 522.546 434.655C556.006 516.955 624.876 555.545 643.546 565.655C680.856 585.855 713.596 591.395 777.546 601.655C800.872 605.528 824.412 607.973 848.036 608.975C861.604 609.69 877.301 610.375 898.688 611.665C920.852 613.001 936.172 614.18 942.546 614.655C967.042 616.483 1015.36 618.477 1117.55 619.655C1130.55 615.912 1142.75 609.81 1153.55 601.655C1187.75 575.593 1207.18 527.432 1201.86 482.53C1197.86 517.656 1180.18 551.358 1153.55 571.655Z" fill="#DD69F9"/>
</g>
<path d="M898.894 310.305C898.814 313.616 898.681 317.119 898.494 320.815C897.294 345.245 893.794 378.585 886.544 424.655C882.904 447.785 878.994 469.795 874.964 490.585V490.595C874.944 490.705 874.924 490.815 874.894 490.925C866.784 532.805 858.154 569.725 850.154 600.825C849.444 603.585 848.737 606.301 848.034 608.975C824.41 607.973 800.87 605.528 777.544 601.655C713.594 591.395 680.854 585.855 643.544 565.655C640.604 564.055 636.404 561.755 631.294 558.675C604.024 542.285 550.724 503.975 522.544 434.655C515.184 416.545 501.424 376.385 505.544 325.655C507.964 295.795 510.734 261.675 534.544 237.655C556.974 215.025 588.414 211.125 621.924 211.945H622.014C632.394 212.205 642.974 212.915 653.544 213.655C740.004 219.735 803.804 254.345 847.544 278.655C865.127 288.429 882.261 298.99 898.894 310.305Z" fill="url(#paint3_linear_560_437)"/>
<path d="M886.546 394.655C880.26 434.602 872.695 474.337 863.863 513.799C859.673 532.52 848.505 548.941 832.633 559.717C816.76 570.492 797.377 574.812 778.431 571.797L777.546 571.655C713.596 561.395 680.856 555.855 643.546 535.655C624.876 525.545 556.006 486.955 522.546 404.655C512.811 380.628 506.984 355.198 505.286 329.33C503.092 365.287 508.99 401.279 522.546 434.655C556.006 516.955 624.876 555.545 643.546 565.655C680.856 585.855 713.596 591.395 777.546 601.655C800.872 605.528 824.412 607.973 848.036 608.975C863.94 548.216 876.793 486.699 886.546 424.655C893.796 378.585 897.296 345.245 898.496 320.815C898.686 317.115 898.819 313.612 898.896 310.305C898.353 309.936 897.817 309.577 897.277 309.212C895.478 331.323 892.122 359.22 886.546 394.655Z" fill="url(#paint4_linear_560_437)"/>
<path d="M232.546 754.655C238.412 739.095 244.47 728.776 254.546 716.655C264.284 704.941 269.153 699.084 276.546 696.655C282.973 694.545 289.636 694.97 297.326 697.457C274.49 683.909 260.005 677.235 246.546 681.655C239.153 684.084 234.284 689.941 224.546 701.655C215.003 712.907 207.552 725.777 202.546 739.655C189.639 776.587 196.08 817.57 205.546 819.655C206.878 819.744 208.214 819.744 209.546 819.655C215.85 819.585 221.002 819.615 224.546 819.655C222.124 797.661 224.863 775.405 232.546 754.655Z" fill="#FB7D7D"/>
<path d="M560.546 226.655C556.436 252.475 563.326 269.285 555.696 284.215C551.616 292.205 547.666 299.655 544.546 307.655C535.046 332.045 530.166 369.385 551.546 425.655C514.386 412.995 488.596 404.195 466.546 396.655C450.686 391.225 434.476 386.855 418.546 381.655C386.756 371.275 379.356 367.945 367.546 370.655C356.716 373.145 348.326 379.645 331.546 392.655C313.736 406.465 314.076 410.285 304.546 413.655C289.466 418.975 269.536 416.145 259.546 404.655C254.286 398.615 255.526 394.465 251.546 385.655C248.146 378.135 237.006 360.395 216.546 353.655C210.338 351.635 203.812 350.774 197.292 351.113C196.622 351.145 195.953 351.027 195.334 350.767C194.715 350.507 194.162 350.112 193.716 349.611C193.27 349.11 192.941 348.515 192.755 347.87C192.568 347.225 192.528 346.547 192.638 345.885C195.268 330.319 196.187 309.516 188.546 287.655C184.076 274.855 179.206 268.945 174.546 260.655C158.946 232.875 155.736 196.105 162.856 163.285C164.298 156.618 166.199 150.059 168.546 143.655C182.656 105.345 209.356 85.165 232.546 67.655C253.576 51.765 277.336 34.365 306.546 38.655C316.576 40.2148 326.137 43.9709 334.546 49.655C335.286 43.125 337.926 28.475 349.546 16.655C369.836 -3.99501 400.506 1.27499 402.546 1.65499C443.296 9.31499 470.506 63.815 478.546 103.655C482.656 124.015 483.366 148.545 494.546 200.655C497.296 213.475 500.946 229.205 510.546 231.655C520.786 234.265 533.456 220.645 545.546 207.655C563.186 188.705 568.036 175.535 572.546 176.655C578.766 178.195 564.286 203.165 560.546 226.655Z" fill="url(#paint5_radial_560_437)"/>
<path d="M349.546 42.6552C350.286 36.1252 352.926 21.4752 364.546 9.65515C366.811 7.35445 369.3 5.28453 371.975 3.47607C363.491 5.87037 355.766 10.4095 349.545 16.6561C344.161 22.2025 340.08 28.878 337.598 36.1981C341.771 37.9779 345.771 40.1395 349.546 42.6552ZM560.546 200.655C566.122 194.637 571.316 188.276 576.098 181.61C575.238 178.808 574.063 177.031 572.546 176.655C568.036 175.535 563.186 188.705 545.546 207.655C539.726 213.909 533.772 220.303 528.018 224.968C537.786 225.106 549.411 212.619 560.546 200.655Z" fill="#FB7D7D"/>
<path opacity="0.11" d="M481.546 389.655C465.686 384.225 449.476 379.855 433.546 374.655C401.756 364.275 394.356 360.945 382.546 363.655C377.018 364.926 372.121 367.251 366.424 370.943C366.797 370.846 367.167 370.743 367.546 370.655C379.356 367.945 386.756 371.275 418.546 381.655C434.476 386.855 450.686 391.225 466.546 396.655C488.596 404.195 514.386 412.995 551.546 425.655C549.82 421.112 548.212 416.526 546.722 411.9C524.993 404.496 503.268 397.081 481.546 389.655Z" fill="#FB7D7D"/>
<path d="M274.546 397.655C269.286 391.615 270.526 387.465 266.546 378.655C263.146 371.135 252.006 353.395 231.546 346.655C225.338 344.635 218.812 343.774 212.292 344.113C211.622 344.145 210.953 344.027 210.334 343.767C209.715 343.507 209.162 343.112 208.716 342.611C208.27 342.11 207.941 341.515 207.755 340.87C207.568 340.225 207.528 339.547 207.638 338.885C210.268 323.319 211.187 302.517 203.546 280.655C199.076 267.855 194.206 261.945 189.546 253.655C173.946 225.875 170.736 189.105 177.856 156.285C179.298 149.618 181.199 143.059 183.546 136.655C197.656 98.345 224.356 78.165 247.546 60.655C255.999 54.268 264.896 47.639 274.408 42.271C259.048 47.845 245.294 58.023 232.546 67.655C209.356 85.165 182.656 105.345 168.546 143.655C166.199 150.059 164.298 156.618 162.856 163.285C155.736 196.105 158.946 232.875 174.546 260.655C179.206 268.945 184.076 274.855 188.546 287.655C196.187 309.517 195.267 330.319 192.638 345.885C192.528 346.547 192.568 347.225 192.755 347.87C192.941 348.515 193.27 349.11 193.716 349.611C194.162 350.112 194.715 350.507 195.334 350.767C195.953 351.027 196.622 351.145 197.292 351.113C203.812 350.774 210.338 351.635 216.546 353.655C237.006 360.395 248.146 378.135 251.546 385.655C255.526 394.465 254.286 398.615 259.546 404.655C269.536 416.145 289.466 418.975 304.546 413.655C307.922 412.544 311.015 410.711 313.61 408.283C299.575 411.118 283.27 407.69 274.546 397.655Z" fill="#FB7D7D"/>
<path d="M562.546 251.655C565.351 268.628 562.138 292.482 546.813 305.064C534.783 314.939 523.748 327.924 453.546 298.655C435.049 290.949 416.426 283.55 397.683 276.463C397.1 276.244 396.615 275.823 396.317 275.277C396.018 274.73 395.926 274.095 396.058 273.486C397.906 265.1 400.453 246.584 390.546 228.656C388.175 224.364 384.019 217.046 375.546 211.656C362.69 203.476 340.813 200.245 325.546 213.656C312.981 224.692 308.966 244.583 316.37 262.94C316.473 263.188 316.491 263.464 316.42 263.723C316.348 263.982 316.193 264.21 315.977 264.371C315.762 264.532 315.499 264.616 315.23 264.61C314.962 264.605 314.702 264.51 314.494 264.34C272.509 230.128 238.069 206.467 219.546 196.655C210.543 191.924 201.181 187.912 191.546 184.655C182.197 181.66 172.594 179.528 162.856 178.285C164.298 171.618 166.199 165.059 168.546 158.655C181.394 123.773 210.47 97.7389 240.136 76.5009C268.606 56.1189 303.058 43.751 334.546 64.655C335.286 58.125 337.926 43.475 349.546 31.655C369.836 11.005 400.506 16.275 402.546 16.655C445.136 24.589 470.551 83.733 478.546 118.655C491.15 173.71 494.546 196.655 494.546 196.655C497.043 213.529 498.441 227.275 507.513 231.221C507.513 231.221 512.933 233.149 543.546 215.655C553.51 225.356 560.159 237.954 562.546 251.655Z" fill="url(#paint6_linear_560_437)"/>
<path d="M575.545 226.661C570.651 252.483 565.392 276.414 546.813 290.064C516.955 311.999 483.107 295.98 453.546 283.655C435.049 275.949 416.426 268.55 397.683 261.463C397.1 261.244 396.615 260.823 396.317 260.277C396.018 259.73 395.926 259.095 396.058 258.486C397.906 250.101 400.453 231.584 390.546 213.656C388.175 209.364 384.019 202.046 375.546 196.656C362.69 188.476 340.813 185.245 325.546 198.656C312.981 209.692 308.966 229.583 316.37 247.94C316.473 248.188 316.491 248.464 316.42 248.723C316.348 248.982 316.193 249.21 315.977 249.371C315.762 249.532 315.499 249.616 315.23 249.61C314.962 249.605 314.702 249.51 314.494 249.34C272.509 215.128 238.069 191.467 219.546 181.656C210.543 176.925 201.181 172.913 191.546 169.656C182.197 166.661 172.594 164.529 162.856 163.286C164.298 156.619 166.199 150.06 168.546 143.656C181.394 108.773 210.47 82.7389 240.136 61.5009C268.606 41.1189 303.058 28.751 334.546 49.656C335.286 43.126 337.926 28.476 349.546 16.656C369.836 -3.99404 400.506 1.27596 402.546 1.65596C445.136 9.58896 470.551 68.733 478.546 103.656C491.15 158.71 494.546 181.656 494.546 181.656C497.043 198.529 498.441 212.274 507.513 216.221C518.367 220.942 533.915 209.193 543.546 200.656C556.381 189.212 567.199 175.69 575.546 160.656C579.632 182.468 579.631 204.849 575.545 226.661Z" fill="url(#paint7_linear_560_437)"/>
<path d="M396.122 258.188L396.058 258.486C395.971 258.886 395.981 259.301 396.087 259.696C396.194 260.092 396.393 260.456 396.668 260.759C396.507 259.908 396.325 259.052 396.122 258.188ZM315.105 244.451C314.606 245.881 314.184 247.336 313.841 248.81L314.494 249.34C314.703 249.51 314.962 249.605 315.23 249.61C315.499 249.616 315.762 249.532 315.977 249.371C316.193 249.21 316.348 248.982 316.42 248.723C316.491 248.464 316.473 248.188 316.37 247.94C315.903 246.782 315.482 245.619 315.105 244.45V244.451Z" fill="#2C2A2D"/>
<path opacity="0.1" d="M181.546 148.655C194.394 113.773 223.47 87.739 253.136 66.501C275.818 50.263 302.294 39.133 328.045 45.839C298.372 30.495 266.66 42.513 240.137 61.501C210.47 82.739 181.394 108.773 168.546 143.655C166.199 150.059 164.298 156.618 162.856 163.285C166.526 163.753 171.156 164.475 176.481 165.626C177.826 159.873 179.518 154.205 181.546 148.655Z" fill="#2C2A2D"/>
<path d="M466.546 288.655C449.014 281.351 431.368 274.324 413.615 267.577C426.989 272.776 440.3 278.135 453.545 283.655C461.952 287.16 470.705 290.962 479.615 294.106C475.186 292.296 470.82 290.438 466.545 288.656L466.546 288.655Z" fill="#403B41"/>
<path d="M2531.55 702.655C2516.18 758.215 2499.96 783.515 2476.55 799.655C2457.8 812.585 2426.7 824.975 2414.55 813.655C2405.1 804.855 2409.56 783.995 2411.55 774.655C2412.24 771.295 2413.19 767.995 2414.4 764.785C2415.29 762.468 2416.33 760.208 2417.5 758.015C2420.19 752.865 2423.28 748.115 2426.55 739.655C2428.31 734.78 2429.74 729.788 2430.82 724.715C2431.3 722.515 2431.77 720.105 2432.2 717.545C2433.78 708.2 2434.27 698.704 2433.67 689.245C2433.51 686.945 2433.27 684.605 2432.94 682.255C2432.59 679.735 2432.13 677.195 2431.55 674.655C2427.58 657.145 2422 657.135 2407.55 629.655C2393.19 602.355 2374.53 566.865 2383.55 529.655C2385.69 520.825 2388.68 508.505 2398.55 498.655C2429.04 468.245 2507.44 479.215 2541.55 520.655C2571.75 557.345 2558.07 606.775 2531.55 702.655Z" fill="url(#paint8_linear_560_437)"/>
<path d="M2541.55 520.655C2519.06 493.336 2477.33 479.265 2442.76 481.557C2473.73 483.505 2507.23 497.194 2526.55 520.655C2556.74 557.341 2543.07 606.775 2516.55 702.655C2501.18 758.218 2484.95 783.513 2461.55 799.655C2450.36 807.37 2434.78 814.888 2421.46 817.299C2436.05 821.119 2460.7 810.581 2476.55 799.655C2499.95 783.513 2516.18 758.218 2531.55 702.655C2558.07 606.775 2571.74 557.341 2541.55 520.655Z" fill="url(#paint9_linear_560_437)"/>
<path d="M2613.55 696.655C2604.75 762.445 2595.62 782.175 2579.55 796.655C2576.76 799.165 2563.44 811.175 2546.51 816.705C2537.53 819.635 2527.53 820.745 2517.55 817.655C2516.08 817.198 2514.64 816.66 2513.23 816.045C2509.61 814.428 2506.71 811.531 2505.09 807.911C2503.48 804.29 2503.25 800.2 2504.47 796.425C2512.53 770.996 2514.94 744.114 2511.55 717.655C2509.61 702.915 2507.55 684.395 2499.62 666.815C2498.67 664.695 2497.62 662.588 2496.48 660.495C2492.74 653.589 2488.05 647.247 2482.55 641.655C2477.69 636.735 2473.65 633.865 2460.02 622.795C2437.98 604.875 2438.19 605.115 2434.55 601.655C2430.82 598.115 2399.67 568.545 2406.55 553.655C2411.62 542.685 2431.41 552.495 2452.55 539.655C2475.18 525.905 2487.75 492.965 2482.55 466.655C2477.5 441.125 2455.06 432.175 2459.55 421.655C2462.32 415.155 2473.89 411.535 2520.55 414.655C2542.22 416.108 2563.82 418.491 2585.29 421.795C2593.45 423.041 2600.97 426.961 2606.67 432.939C2612.37 438.918 2615.93 446.619 2616.79 454.835C2620.51 491.065 2621.98 521.895 2622.55 545.655C2622.86 558.485 2624.03 618.355 2613.55 696.655Z" fill="url(#paint10_linear_560_437)"/>
<path opacity="0.32" d="M2537.65 818.875C2530.94 820.034 2524.06 819.616 2517.55 817.655C2516.08 817.197 2514.64 816.66 2513.23 816.045C2509.61 814.428 2506.71 811.531 2505.09 807.91C2503.48 804.29 2503.25 800.2 2504.47 796.425C2510.1 778.57 2513 759.966 2513.07 741.245C2513.07 738.715 2513.03 736.145 2512.91 733.525C2512.7 728.395 2512.26 723.095 2511.55 717.655C2510.8 712.005 2510.04 705.805 2508.94 699.305C2508.55 696.976 2508.1 694.615 2507.61 692.225C2504.06 675.155 2497.51 656.825 2482.55 641.655C2477.69 636.735 2473.65 633.865 2460.02 622.795C2437.98 604.875 2438.19 605.115 2434.55 601.655C2430.82 598.115 2399.67 568.545 2406.55 553.655C2411.62 542.685 2431.41 552.495 2452.55 539.655C2475.18 525.905 2487.75 492.965 2482.55 466.655C2477.5 441.125 2455.06 432.175 2459.55 421.655C2461.85 416.255 2470.25 412.845 2499.8 413.635C2482.21 414.255 2476.4 417.305 2474.55 421.655C2470.06 432.175 2492.5 441.125 2497.55 466.655C2502.75 492.965 2490.18 525.905 2467.55 539.655C2446.41 552.495 2426.62 542.685 2421.55 553.655C2414.67 568.545 2445.82 598.115 2449.55 601.655C2453.19 605.115 2452.98 604.875 2475.02 622.795C2488.65 633.865 2492.69 636.735 2497.55 641.655C2509.4 653.675 2515.97 667.675 2519.96 681.465C2520.77 684.245 2521.47 687.025 2522.07 689.765C2524.31 699.705 2525.45 709.295 2526.55 717.655C2526.63 718.275 2526.71 718.885 2526.78 719.495C2527.21 723.035 2527.52 726.515 2527.73 729.925C2529.05 752.41 2526.25 774.948 2519.47 796.425C2518.25 800.2 2518.48 804.29 2520.09 807.91C2521.71 811.531 2524.61 814.428 2528.23 816.045C2529.64 816.66 2531.08 817.197 2532.55 817.655C2534.22 818.17 2535.92 818.577 2537.65 818.875Z" fill="url(#paint11_linear_560_437)"/>
<path d="M2464.55 534.655C2441.96 551.775 2417.35 553.575 2406.55 553.655C2322.85 562.489 2238.71 566.496 2154.55 565.655C2090.7 565.015 2030.64 561.615 1974.86 556.455C1945.89 553.775 1924.52 570.045 1898.23 579.345C1824.06 605.595 1736.03 607.665 1658.02 613.755C1599.33 618.345 1540.42 620.685 1481.55 619.655C1445.57 619.025 1323.62 615.635 1154.29 618.865C1138.73 619.165 1125.94 619.455 1117.55 619.655C1106.12 595.635 1109.01 563.985 1101.55 525.655C1089.27 462.625 1079.94 409.115 1086.55 374.655C1092.71 364.965 1111.63 336.545 1143.25 312.105C1165.01 295.275 1192.79 280.325 1226.55 274.655C1297.78 262.675 1369.09 296.385 1406.09 327.285C1412.47 332.483 1418.31 338.302 1423.55 344.655C1430.25 353.571 1438.34 361.345 1447.53 367.675C1448.5 368.345 1449.51 369.005 1450.55 369.655C1472.64 383.475 1495.18 384.895 1512.55 385.655C1552.66 387.415 1572.72 388.295 1609.55 385.655C1668.65 381.425 1733.45 398.405 1760.55 414.655C1766.15 418.131 1772.21 420.823 1778.55 422.655C1795.66 427.565 1809.91 424.535 1820.55 422.655C1851.93 417.105 1845.08 422.705 1885.55 416.655C1922.47 411.135 1945.7 403.845 1962.55 399.655C2046.12 378.865 2133.36 394.175 2221.55 409.655C2230.8 411.275 2242.29 413.455 2259.55 415.655C2287.1 419.175 2313.7 420.765 2371.55 420.655C2399.59 420.605 2435.14 420.145 2476.55 418.655C2483.12 424.255 2496.52 437.375 2500.55 457.655C2508.96 500.005 2468.2 531.885 2464.55 534.655Z" fill="url(#paint12_linear_560_437)"/>
<path d="M1117.55 619.655C1125.93 619.455 1138.73 619.162 1154.29 618.865C1323.62 615.635 1445.57 619.027 1481.55 619.655C1540.42 620.685 1599.32 618.345 1658.02 613.76C1736.02 607.667 1824.05 605.593 1898.23 579.35C1924.52 570.05 1945.88 553.78 1974.85 556.46C2034.6 561.986 2094.55 565.054 2154.55 565.655C2238.71 566.496 2322.85 562.489 2406.55 553.655C2417.35 553.575 2441.96 551.775 2464.55 534.655C2468.2 531.885 2508.96 500.005 2500.55 457.655C2500.32 456.529 2500.06 455.409 2499.77 454.298C2492.57 482.812 2467.38 502.505 2464.55 504.655C2441.96 521.775 2417.35 523.575 2406.55 523.655C2322.85 532.489 2238.71 536.496 2154.55 535.655C2094.55 535.054 2034.6 531.986 1974.85 526.46C1945.88 523.78 1924.52 540.05 1898.23 549.35C1824.05 575.593 1736.02 577.667 1658.02 583.76C1599.32 588.345 1540.42 590.684 1481.55 589.655C1445.57 589.027 1323.62 585.635 1154.29 588.865C1138.73 589.162 1125.93 589.455 1117.55 589.655V619.655Z" fill="#330AA4"/>
<g style="mix-blend-mode:screen" opacity="0.5">
<path d="M1117.55 619.655C1125.93 619.455 1138.73 619.162 1154.29 618.865C1323.62 615.635 1445.57 619.027 1481.55 619.655C1540.42 620.685 1599.32 618.345 1658.02 613.76C1736.02 607.667 1824.05 605.593 1898.23 579.35C1924.52 570.05 1945.88 553.78 1974.85 556.46C2034.6 561.986 2094.55 565.054 2154.55 565.655C2238.71 566.496 2322.85 562.489 2406.55 553.655C2417.35 553.575 2441.96 551.775 2464.55 534.655C2468.2 531.885 2508.96 500.005 2500.55 457.655C2500.32 456.529 2500.06 455.409 2499.77 454.298C2492.57 482.812 2467.38 502.505 2464.55 504.655C2441.96 521.775 2417.35 523.575 2406.55 523.655C2322.85 532.489 2238.71 536.496 2154.55 535.655C2094.55 535.054 2034.6 531.986 1974.85 526.46C1945.88 523.78 1924.52 540.05 1898.23 549.35C1824.05 575.593 1736.02 577.667 1658.02 583.76C1599.32 588.345 1540.42 590.684 1481.55 589.655C1445.57 589.027 1323.62 585.635 1154.29 588.865C1138.73 589.162 1125.93 589.455 1117.55 589.655V619.655Z" fill="#330AA4"/>
</g>
<path d="M2613.55 696.655C2604.75 762.445 2595.62 782.175 2579.55 796.655C2576.76 799.165 2563.44 811.175 2546.51 816.705V816.655C2546.48 813.492 2547.36 810.389 2549.05 807.713C2560.52 789.39 2570.07 769.934 2577.55 749.655C2587.39 722.918 2598 682.722 2594.55 574.655C2592.89 523.331 2588.59 472.127 2581.67 421.245C2582.52 421.32 2583.77 421.562 2585.29 421.795C2593.45 423.041 2600.97 426.961 2606.67 432.939C2612.37 438.918 2615.93 446.619 2616.79 454.835C2620.51 491.065 2621.98 521.895 2622.55 545.655C2622.86 558.485 2624.03 618.355 2613.55 696.655Z" fill="url(#paint13_linear_560_437)"/>
<path d="M1154.29 618.865C1142.4 619.085 1130.15 619.348 1117.55 619.655C1103.3 589.75 1092.89 558.167 1086.55 525.655C1076.91 475.783 1076.91 424.527 1086.55 374.655C1092.71 364.965 1111.63 336.545 1143.25 312.105C1136.83 353.495 1123.81 408.535 1127.55 480.655C1130.08 527.733 1139.08 574.239 1154.29 618.865Z" fill="url(#paint14_linear_560_437)"/>
<g opacity="0.44">
<path d="M1145.06 588.738L1124.18 589.227L1105.55 589.655C1104.26 586.939 1103 584.209 1101.77 581.465C1106.36 594.46 1111.63 607.208 1117.55 619.655C1130.15 619.345 1142.39 619.082 1154.29 618.865C1150.91 608.916 1147.84 598.869 1145.06 588.738Z" fill="url(#paint15_linear_560_437)"/>
<g style="mix-blend-mode:multiply" opacity="0.22">
<path d="M1145.06 588.738L1124.18 589.227L1105.55 589.655C1104.26 586.939 1103 584.209 1101.77 581.465C1106.36 594.46 1111.63 607.208 1117.55 619.655C1130.15 619.345 1142.39 619.082 1154.29 618.865C1150.91 608.916 1147.84 598.869 1145.06 588.738Z" fill="#481AC6"/>
</g>
</g>
<path d="M2525.72 639.135C2519.09 653.325 2509.52 663.245 2499.62 666.815C2498.67 664.695 2497.62 662.588 2496.48 660.495C2504.79 657.885 2513.41 648.935 2519.38 636.175C2519.57 635.759 2519.84 635.385 2520.18 635.075C2520.52 634.764 2520.92 634.524 2521.35 634.367C2521.78 634.21 2522.24 634.14 2522.7 634.16C2523.16 634.18 2523.61 634.291 2524.03 634.485C2524.44 634.679 2524.82 634.954 2525.13 635.293C2525.44 635.632 2525.68 636.028 2525.83 636.46C2525.99 636.892 2526.06 637.35 2526.04 637.809C2526.02 638.268 2525.91 638.719 2525.72 639.135Z" fill="url(#paint16_linear_560_437)"/>
<path d="M2533.72 672.135C2530.79 678.589 2526.85 684.54 2522.07 689.765C2518.4 693.828 2513.93 697.078 2508.94 699.305C2508.55 696.976 2508.1 694.616 2507.61 692.225C2512.46 689.588 2516.68 685.915 2519.96 681.465C2522.88 677.656 2525.37 673.534 2527.38 669.175C2527.57 668.759 2527.84 668.385 2528.18 668.075C2528.52 667.764 2528.92 667.524 2529.35 667.367C2529.78 667.21 2530.24 667.14 2530.7 667.16C2531.16 667.18 2531.61 667.291 2532.03 667.485C2532.44 667.679 2532.82 667.954 2533.13 668.293C2533.44 668.632 2533.68 669.028 2533.83 669.46C2533.99 669.892 2534.06 670.35 2534.04 670.809C2534.02 671.268 2533.91 671.719 2533.72 672.135Z" fill="url(#paint17_linear_560_437)"/>
<path d="M2537.72 714.135C2535.11 719.825 2531.75 725.137 2527.73 729.925C2523.77 734.768 2518.75 738.64 2513.07 741.245C2513.07 738.715 2513.03 736.145 2512.91 733.525C2517.81 730.715 2522.63 725.865 2526.78 719.495C2528.5 716.831 2530.04 714.051 2531.38 711.175C2531.57 710.759 2531.84 710.385 2532.18 710.075C2532.52 709.764 2532.92 709.524 2533.35 709.367C2533.78 709.21 2534.24 709.14 2534.7 709.16C2535.16 709.18 2535.61 709.291 2536.03 709.485C2536.44 709.679 2536.82 709.954 2537.13 710.293C2537.44 710.632 2537.68 711.028 2537.83 711.46C2537.99 711.892 2538.06 712.35 2538.04 712.809C2538.02 713.268 2537.91 713.719 2537.72 714.135Z" fill="url(#paint18_linear_560_437)"/>
<path d="M2463.94 677.935C2453.53 685.175 2442.86 689.035 2433.67 689.245C2433.51 686.945 2433.27 684.605 2432.94 682.255C2440.81 682.235 2450.5 678.755 2459.94 672.185C2460.7 671.655 2461.64 671.449 2462.55 671.613C2463.47 671.777 2464.28 672.298 2464.81 673.06C2465.34 673.823 2465.55 674.765 2465.38 675.679C2465.22 676.593 2464.7 677.405 2463.94 677.935Z" fill="url(#paint19_linear_560_437)"/>
<path d="M2451.94 753.935C2439.44 762.635 2424.72 766.335 2414.4 764.785C2415.29 762.468 2416.33 760.207 2417.5 758.015C2425.87 759.215 2437.08 755.755 2447.94 748.185C2448.7 747.654 2449.64 747.449 2450.55 747.613C2451.47 747.777 2452.28 748.297 2452.81 749.06C2453.34 749.822 2453.55 750.764 2453.38 751.679C2453.22 752.593 2452.7 753.404 2451.94 753.935Z" fill="url(#paint20_linear_560_437)"/>
<path d="M2459.31 713.495C2453.53 717.604 2447.15 720.776 2440.39 722.895C2437.27 723.849 2434.06 724.46 2430.82 724.715C2431.3 722.515 2431.77 720.105 2432.2 717.545C2435.81 717.021 2439.34 716.05 2442.72 714.655C2447.16 712.83 2451.38 710.513 2455.31 707.745C2456.07 707.214 2457.01 707.009 2457.92 707.173C2458.84 707.337 2459.65 707.857 2460.18 708.62C2460.71 709.382 2460.92 710.324 2460.75 711.238C2460.59 712.153 2460.07 712.964 2459.31 713.495Z" fill="url(#paint21_linear_560_437)"/>
<path d="M2522.55 649.655C2526.96 649.655 2530.55 645.178 2530.55 639.655C2530.55 634.132 2526.96 629.655 2522.55 629.655C2518.13 629.655 2514.55 634.132 2514.55 639.655C2514.55 645.178 2518.13 649.655 2522.55 649.655Z" fill="url(#paint22_linear_560_437)"/>
<path d="M2530.55 683.655C2534.96 683.655 2538.55 679.178 2538.55 673.655C2538.55 668.132 2534.96 663.655 2530.55 663.655C2526.13 663.655 2522.55 668.132 2522.55 673.655C2522.55 679.178 2526.13 683.655 2530.55 683.655Z" fill="url(#paint23_linear_560_437)"/>
<path d="M2535.55 722.655C2539.96 722.655 2543.55 718.178 2543.55 712.655C2543.55 707.132 2539.96 702.655 2535.55 702.655C2531.13 702.655 2527.55 707.132 2527.55 712.655C2527.55 718.178 2531.13 722.655 2535.55 722.655Z" fill="url(#paint24_linear_560_437)"/>
<path d="M2470.34 676.415C2471.83 671.097 2469.59 665.82 2465.34 664.627C2461.08 663.435 2456.43 666.779 2454.93 672.097C2453.44 677.415 2455.68 682.693 2459.94 683.885C2464.19 685.077 2468.85 681.733 2470.34 676.415Z" fill="url(#paint25_linear_560_437)"/>
<path d="M2468.87 711.312C2470.36 705.994 2468.12 700.716 2463.86 699.524C2459.61 698.331 2454.95 701.676 2453.46 706.994C2451.97 712.312 2454.21 717.589 2458.47 718.782C2462.72 719.974 2467.38 716.63 2468.87 711.312Z" fill="url(#paint26_linear_560_437)"/>
<path d="M2463.16 750.214C2464.65 744.896 2462.41 739.619 2458.15 738.426C2453.9 737.234 2449.24 740.578 2447.75 745.896C2446.26 751.214 2448.5 756.492 2452.75 757.684C2457.01 758.877 2461.67 755.532 2463.16 750.214Z" fill="url(#paint27_linear_560_437)"/>
<path d="M1790.87 424.995H1790.88C1800.88 433.946 1808.46 445.276 1812.92 457.935C1818.3 473.685 1818.82 490.691 1814.4 506.739C1814.27 507.192 1814.06 507.616 1813.77 507.984C1813.47 508.352 1813.11 508.657 1812.7 508.88C1812.28 509.104 1811.83 509.241 1811.36 509.285C1810.89 509.328 1810.42 509.276 1809.97 509.132C1809.11 508.856 1808.39 508.258 1807.96 507.463C1807.53 506.668 1807.42 505.738 1807.66 504.867C1811.7 490.198 1811.23 474.654 1806.32 460.255C1799.36 440.415 1785.54 428.265 1774.54 421.375L1790.87 424.995Z" fill="url(#paint28_linear_560_437)"/>
<path d="M2193.87 405.655H2193.88C2203.88 414.606 2211.46 425.936 2215.92 438.595C2221.3 454.345 2221.82 471.352 2217.4 487.399C2217.27 487.853 2217.06 488.276 2216.77 488.644C2216.47 489.012 2216.11 489.317 2215.7 489.54C2215.28 489.764 2214.83 489.901 2214.36 489.945C2213.89 489.988 2213.42 489.936 2212.97 489.792C2212.11 489.516 2211.39 488.918 2210.96 488.123C2210.53 487.328 2210.42 486.398 2210.66 485.527C2214.7 470.858 2214.23 455.314 2209.32 440.915C2202.36 421.075 2188.54 408.925 2177.54 402.035L2193.87 405.655Z" fill="url(#paint29_linear_560_437)"/>
<path d="M1450.72 396.805C1440.93 364.105 1421.81 341.365 1406.09 327.285C1412.47 332.484 1418.31 338.302 1423.55 344.655C1430.25 353.572 1438.34 361.345 1447.53 367.675C1451.97 376.259 1455.61 385.242 1458.38 394.505C1463.73 412.457 1465.82 431.225 1464.54 449.915C1464.47 450.929 1464.02 451.879 1463.28 452.573C1462.54 453.268 1461.56 453.655 1460.55 453.655C1460.46 453.657 1460.37 453.653 1460.29 453.645" fill="url(#paint30_linear_560_437)"/>
<path fill-rule="evenodd" clip-rule="evenodd" d="M2518.23 581.04C2530.1 591.145 2544.43 600.927 2555.8 600.927C2562.4 600.927 2571.65 595.396 2571.65 581.9C2571.65 574.59 2568.69 567.318 2566.44 561.65C2562.6 552.076 2516.68 446.32 2516.68 446.32C2516.15 445.284 2515.51 445.478 2515.84 446.772C2515.97 447.277 2547.03 561.91 2547.03 561.91C2547.66 564.077 2547.99 566.322 2548 568.58C2548 578.485 2543.24 585.161 2532.86 585.161C2528.81 585.161 2523.96 583.893 2518.23 581.04H2518.23Z" fill="url(#paint31_linear_560_437)"/>
<path d="M863.863 513.799L825.963 592.36C825.185 593.584 824.813 595.022 824.9 596.47C825.392 602.191 834.669 607.275 848.036 608.976C835.363 606.173 814.98 601.955 789.5 598.033C772.41 595.402 769.221 595.736 753.354 593.19C689.404 582.93 656.664 577.39 619.354 557.19C616.414 555.59 612.214 553.29 607.104 550.21L637.174 331.25C645.163 317.262 654.184 310.396 662.669 307.132C710.451 288.757 793.525 364.51 874.894 490.925L863.863 513.799Z" fill="url(#paint32_linear_560_437)"/>
<path d="M691.825 339.715C703.028 372.957 697.061 408.288 699.981 442.525C704.741 498.357 724.958 550.876 728.068 606.706C731.558 669.345 726.129 732.69 720.2 794.998C719.499 802.341 716.115 809.169 710.696 814.174C705.277 819.179 698.203 822.01 690.827 822.126C673.546 822.395 658.895 822.555 647.547 822.656C605.119 823.031 562.68 822.276 520.271 820.96C478.905 819.677 414.734 818.242 315.546 817.655C284.377 817.648 259.142 818.495 241.545 819.293C218.567 820.336 211.371 821.173 204.545 815.655C182.565 797.887 201.075 743.823 202.545 739.655C207.648 725.822 215.09 712.968 224.545 701.655C234.285 689.941 239.153 684.084 246.545 681.655C262.775 676.325 280.483 687.116 312.545 706.655C318.31 710.168 323.979 713.836 329.545 717.655C388.481 726.06 448.061 729.073 507.545 726.655C530.511 725.717 553.437 723.967 576.279 721.408C582.596 720.704 588.446 717.746 592.757 713.076C597.068 708.406 599.55 702.338 599.747 695.985C601.295 643.079 593.582 601.851 585.546 572.655C563.504 492.579 509.529 404.678 529.063 318.675C531.797 306.64 544.203 277.078 570.401 267.016C609.918 251.84 655.751 284.002 678.467 314.072C684.28 321.839 688.791 330.5 691.825 339.715Z" fill="url(#paint33_radial_560_437)"/>
<path opacity="0.11" d="M342.546 721.655C348.311 725.168 353.98 728.836 359.546 732.655C418.482 741.06 478.062 744.073 537.546 741.655C560.512 740.717 583.437 738.967 606.279 736.408C612.596 735.704 618.446 732.746 622.757 728.076C627.068 723.406 629.55 717.338 629.747 710.985C631.295 658.079 623.582 616.851 615.546 587.655C593.504 507.579 539.529 419.679 559.063 333.675C561.797 321.64 574.203 292.078 600.4 282.017C613.9 276.832 629.633 277.622 645.396 282.767C620.899 266.13 592.622 258.482 570.4 267.017C544.202 277.078 531.797 306.64 529.063 318.676C509.529 404.678 563.504 492.579 585.546 572.656C593.582 601.851 601.296 643.079 599.747 695.985C599.55 702.338 597.068 708.406 592.757 713.076C588.446 717.746 582.596 720.704 576.279 721.408C553.437 723.967 530.512 725.717 507.546 726.655C450.859 728.96 394.079 726.33 337.848 718.795L342.546 721.655Z" fill="#FB7D7D"/>
<path d="M-109 819.655H2891" stroke="#5B565C" stroke-width="7" stroke-miterlimit="10"/>
<defs>
<linearGradient id="paint0_linear_560_437" x1="312.666" y1="685.378" x2="293.161" y2="719.161" gradientUnits="userSpaceOnUse">
<stop stop-color="#E47EFC"/>
<stop offset="0.005" stop-color="#E47FFC"/>
<stop offset="0.164" stop-color="#FD9292"/>
<stop offset="0.348" stop-color="#FEA0A0"/>
<stop offset="0.579" stop-color="#FFA8A8"/>
<stop offset="1" stop-color="#FFAAAA"/>
</linearGradient>
<linearGradient id="paint1_linear_560_437" x1="653.696" y1="674.022" x2="769.934" y2="674.022" gradientUnits="userSpaceOnUse">
<stop stop-color="#FFAAAA"/>
<stop offset="0.421" stop-color="#FFA8A8"/>
<stop offset="0.652" stop-color="#FEA0A0"/>
<stop offset="0.836" stop-color="#FD9292"/>
<stop offset="0.995" stop-color="#E47FFC"/>
<stop offset="1" stop-color="#E47EFC"/>
</linearGradient>
<linearGradient id="paint2_linear_560_437" x1="877.775" y1="244.259" x2="826.556" y2="608.701" gradientUnits="userSpaceOnUse">
<stop stop-color="#FFAAAA"/>
<stop offset="0.421" stop-color="#FFA8A8"/>
<stop offset="0.652" stop-color="#FEA0A0"/>
<stop offset="0.836" stop-color="#FD9292"/>
<stop offset="0.995" stop-color="#E47FFC"/>
<stop offset="1" stop-color="#E47EFC"/>
</linearGradient>
<linearGradient id="paint3_linear_560_437" x1="504.79" y1="410.411" x2="898.894" y2="410.411" gradientUnits="userSpaceOnUse">
<stop stop-color="#DB44FF"/>
<stop offset="1" stop-color="#CD14F9"/>
</linearGradient>
<linearGradient id="paint4_linear_560_437" x1="898.896" y1="459.094" x2="504.8" y2="459.094" gradientUnits="userSpaceOnUse">
<stop stop-color="#CD14F9" stop-opacity="0"/>
<stop offset="1" stop-color="#A427C1"/>
</linearGradient>
<radialGradient id="paint5_radial_560_437" cx="0" cy="0" r="1" gradientUnits="userSpaceOnUse" gradientTransform="translate(366.667 213.218) scale(209.94 209.94)">
<stop stop-color="#FFAAAA"/>
<stop offset="0.421" stop-color="#FFA8A8"/>
<stop offset="0.652" stop-color="#FEA0A0"/>
<stop offset="0.836" stop-color="#FD9292"/>
<stop offset="0.995" stop-color="#E47FFC"/>
<stop offset="1" stop-color="#E47EFC"/>
</radialGradient>
<linearGradient id="paint6_linear_560_437" x1="343.661" y1="275.607" x2="438.178" y2="29.383" gradientUnits="userSpaceOnUse">
<stop stop-color="#E47EFC" stop-opacity="0"/>
<stop offset="1" stop-color="#DB44FF"/>
</linearGradient>
<linearGradient id="paint7_linear_560_437" x1="342.114" y1="8.33697" x2="397.479" y2="322.323" gradientUnits="userSpaceOnUse">
<stop stop-color="#403B41"/>
<stop offset="1" stop-color="#1A1A1A"/>
</linearGradient>
<linearGradient id="paint8_linear_560_437" x1="2381.18" y1="649.703" x2="2558.71" y2="649.703" gradientUnits="userSpaceOnUse">
<stop stop-color="#FAF3F3"/>
<stop offset="1" stop-color="#FCDDDD"/>
</linearGradient>
<linearGradient id="paint9_linear_560_437" x1="2421.46" y1="649.706" x2="2558.71" y2="649.706" gradientUnits="userSpaceOnUse">
<stop stop-color="#9E7FF3"/>
<stop offset="1" stop-color="#664AB2"/>
</linearGradient>
<linearGradient id="paint10_linear_560_437" x1="2405.56" y1="616.511" x2="2622.74" y2="616.511" gradientUnits="userSpaceOnUse">
<stop stop-color="#FAF3F3"/>
<stop offset="1" stop-color="#FCDDDD"/>
</linearGradient>
<linearGradient id="paint11_linear_560_437" x1="2431.3" y1="640.513" x2="2559.93" y2="598.718" gradientUnits="userSpaceOnUse">
<stop stop-color="#FCDDDD" stop-opacity="0"/>
<stop offset="0.289" stop-color="#D0BFFF" stop-opacity="0.289"/>
<stop offset="0.592" stop-color="#E599F7" stop-opacity="0.592"/>
<stop offset="0.84" stop-color="#AD81B8" stop-opacity="0.84"/>
<stop offset="1" stop-color="#A879B3"/>
</linearGradient>
<linearGradient id="paint12_linear_560_437" x1="1790" y1="262.84" x2="1796.15" y2="615.141" gradientUnits="userSpaceOnUse">
<stop stop-color="#784AF7"/>
<stop offset="1" stop-color="#3504BC"/>
</linearGradient>
<linearGradient id="paint13_linear_560_437" x1="2546.5" y1="618.975" x2="2622.74" y2="618.975" gradientUnits="userSpaceOnUse">
<stop stop-color="#9E7FF3"/>
<stop offset="1" stop-color="#664AB2"/>
</linearGradient>
<linearGradient id="paint14_linear_560_437" x1="1058.68" y1="429.341" x2="1211.25" y2="507.075" gradientUnits="userSpaceOnUse">
<stop stop-color="#9E7FF3"/>
<stop offset="1" stop-color="#664AB2"/>
</linearGradient>
<linearGradient id="paint15_linear_560_437" x1="1154.29" y1="600.56" x2="1101.77" y2="600.56" gradientUnits="userSpaceOnUse">
<stop stop-color="#664AB2"/>
<stop offset="0.204" stop-color="#7B60C6"/>
<stop offset="0.517" stop-color="#967BDF"/>
<stop offset="0.792" stop-color="#9C7EEE"/>
<stop offset="1" stop-color="#9E7FF3"/>
</linearGradient>
<linearGradient id="paint16_linear_560_437" x1="2496.48" y1="650.485" x2="2526.05" y2="650.485" gradientUnits="userSpaceOnUse">
<stop stop-color="#9E7FF3"/>
<stop offset="1" stop-color="#664AB2"/>
</linearGradient>
<linearGradient id="paint17_linear_560_437" x1="2507.61" y1="683.23" x2="2534.05" y2="683.23" gradientUnits="userSpaceOnUse">
<stop stop-color="#9E7FF3"/>
<stop offset="1" stop-color="#664AB2"/>
</linearGradient>
<linearGradient id="paint18_linear_560_437" x1="2512.91" y1="725.2" x2="2538.05" y2="725.2" gradientUnits="userSpaceOnUse">
<stop stop-color="#9E7FF3"/>
<stop offset="1" stop-color="#664AB2"/>
</linearGradient>
<linearGradient id="paint19_linear_560_437" x1="2432.94" y1="680.403" x2="2465.44" y2="680.403" gradientUnits="userSpaceOnUse">
<stop stop-color="#9E7FF3"/>
<stop offset="1" stop-color="#664AB2"/>
</linearGradient>
<linearGradient id="paint20_linear_560_437" x1="2414.4" y1="756.345" x2="2453.44" y2="756.345" gradientUnits="userSpaceOnUse">
<stop stop-color="#9E7FF3"/>
<stop offset="1" stop-color="#664AB2"/>
</linearGradient>
<linearGradient id="paint21_linear_560_437" x1="2430.82" y1="715.918" x2="2460.8" y2="715.918" gradientUnits="userSpaceOnUse">
<stop stop-color="#9E7FF3"/>
<stop offset="1" stop-color="#664AB2"/>
</linearGradient>
<linearGradient id="paint22_linear_560_437" x1="2514.55" y1="639.655" x2="2530.55" y2="639.655" gradientUnits="userSpaceOnUse">
<stop stop-color="#9E7FF3"/>
<stop offset="1" stop-color="#664AB2"/>
</linearGradient>
<linearGradient id="paint23_linear_560_437" x1="2522.55" y1="673.655" x2="2538.55" y2="673.655" gradientUnits="userSpaceOnUse">
<stop stop-color="#9E7FF3"/>
<stop offset="1" stop-color="#664AB2"/>
</linearGradient>
<linearGradient id="paint24_linear_560_437" x1="2527.55" y1="712.655" x2="2543.55" y2="712.655" gradientUnits="userSpaceOnUse">
<stop stop-color="#9E7FF3"/>
<stop offset="1" stop-color="#664AB2"/>
</linearGradient>
<linearGradient id="paint25_linear_560_437" x1="2454.47" y1="674.256" x2="2470.8" y2="674.256" gradientUnits="userSpaceOnUse">
<stop stop-color="#9E7FF3"/>
<stop offset="1" stop-color="#664AB2"/>
</linearGradient>
<linearGradient id="paint26_linear_560_437" x1="2453" y1="709.153" x2="2469.33" y2="709.153" gradientUnits="userSpaceOnUse">
<stop stop-color="#9E7FF3"/>
<stop offset="1" stop-color="#664AB2"/>
</linearGradient>
<linearGradient id="paint27_linear_560_437" x1="2447.29" y1="748.055" x2="2463.62" y2="748.055" gradientUnits="userSpaceOnUse">
<stop stop-color="#9E7FF3"/>
<stop offset="1" stop-color="#664AB2"/>
</linearGradient>
<linearGradient id="paint28_linear_560_437" x1="1774.54" y1="465.337" x2="1817.38" y2="465.337" gradientUnits="userSpaceOnUse">
<stop stop-color="#3504BC" stop-opacity="0"/>
<stop offset="1" stop-color="#3504BC"/>
</linearGradient>
<linearGradient id="paint29_linear_560_437" x1="2177.54" y1="445.997" x2="2220.38" y2="445.997" gradientUnits="userSpaceOnUse">
<stop stop-color="#3504BC" stop-opacity="0"/>
<stop offset="1" stop-color="#3504BC"/>
</linearGradient>
<linearGradient id="paint30_linear_560_437" x1="1406.09" y1="390.47" x2="1464.89" y2="390.47" gradientUnits="userSpaceOnUse">
<stop stop-color="#3504BC" stop-opacity="0"/>
<stop offset="1" stop-color="#3504BC"/>
</linearGradient>
<linearGradient id="paint31_linear_560_437" x1="2515.75" y1="523.291" x2="2571.65" y2="523.291" gradientUnits="userSpaceOnUse">
<stop stop-color="#9E7FF3"/>
<stop offset="1" stop-color="#664AB2"/>
</linearGradient>
<linearGradient id="paint32_linear_560_437" x1="785.533" y1="451.823" x2="663.609" y2="475.775" gradientUnits="userSpaceOnUse">
<stop offset="0.248" stop-color="#CD14F9" stop-opacity="0"/>
<stop offset="0.762" stop-color="#A427C1"/>
</linearGradient>
<radialGradient id="paint33_radial_560_437" cx="0" cy="0" r="1" gradientUnits="userSpaceOnUse" gradientTransform="translate(461.514 542.942) scale(273.798 273.798)">
<stop stop-color="#FFAAAA"/>
<stop offset="0.421" stop-color="#FFA8A8"/>
<stop offset="0.652" stop-color="#FEA0A0"/>
<stop offset="0.836" stop-color="#FD9292"/>
<stop offset="0.995" stop-color="#E47FFC"/>
<stop offset="1" stop-color="#E47EFC"/>
</radialGradient>
</defs>
</svg>
