<svg xmlns="http://www.w3.org/2000/svg" width="63" height="63" viewBox="0 0 63 63" fill="none">
  <path d="M21.6427 19.2609C16.8679 24.0046 14.0198 43.9731 22.9727 44.1149C27.6854 44.1895 36.0675 48.1314 41.5938 51.7905C46.9674 55.3485 45.7731 35.9194 40.2638 26.9366C34.7544 17.9538 26.4175 14.5173 21.6427 19.2609Z" fill="#C1E8F7"/>
  <path d="M43.9629 53.7652C43.5576 53.7652 43.1124 53.6079 42.6351 53.2918L42.6761 53.1913C43.7834 53.9245 44.6734 53.7939 45.3207 52.8034C46.5032 50.9941 46.753 46.452 45.9726 40.9499C45.1532 35.1723 43.3547 29.5882 41.1614 26.0124C35.1426 16.1987 26.0073 12.4257 20.7972 17.6021L20.7424 17.5127C25.9912 12.298 35.1826 16.0798 41.2317 25.9427C43.4332 29.5323 45.2384 35.1349 46.0602 40.9297C46.8452 46.464 46.588 51.0415 45.3892 52.8757C45.0022 53.4677 44.5202 53.7652 43.9629 53.7652Z" fill="#C1E8F7"/>
  <path d="M45.1419 33.9506H48.4054V32.1158H45.1419V33.9506Z" fill="#AFC5CE"/>
  <path d="M43.2479 31.5435H46.5115V29.7087H43.2479V31.5435Z" fill="#AFC5CE"/>
  <path d="M41.2793 33.9506H44.5428V32.1158H41.2793V33.9506Z" fill="#AFC5CE"/>
  <path d="M43.9229 36.3579H47.1864V34.5231H43.9229V36.3579Z" fill="#AFC5CE"/>
  <path d="M40.2052 36.3579H43.4688V34.5231H40.2052V36.3579Z" fill="#AFC5CE"/>
  <path d="M33.4448 17.7876H36.7084V15.9528H33.4448V17.7876Z" fill="#AFC5CE"/>
  <path d="M31.5509 15.3805H34.8145V13.5457H31.5509V15.3805Z" fill="#AFC5CE"/>
  <path d="M29.5822 17.7876H32.8457V15.9528H29.5822V17.7876Z" fill="#AFC5CE"/>
  <path d="M32.2258 20.1948H35.4894V18.36H32.2258V20.1948Z" fill="#AFC5CE"/>
  <path d="M28.5086 20.1948H31.7721V18.36H28.5086V20.1948Z" fill="#AFC5CE"/>
  <path d="M12.762 51.9225C12.762 51.9335 12.8519 51.9066 12.8509 51.9189C12.8509 51.9189 11.966 53.7652 11.8689 53.7652C11.8596 53.765 11.8502 53.7641 11.8409 53.7625C11.789 53.7531 11.7422 53.7179 11.7107 53.6646C11.6791 53.6114 11.6655 53.5444 11.6727 53.4783L12.3629 51.9189L12.762 51.9225ZM17.2753 51.9225C17.2753 51.9335 17.1854 51.9066 17.1864 51.9189C17.1864 51.9189 18.0713 53.7652 18.1684 53.7652C18.1777 53.765 18.1871 53.7641 18.1964 53.7625C18.2483 53.7531 18.2951 53.7179 18.3266 53.6646C18.3582 53.6114 18.3718 53.5444 18.3646 53.4783L17.6744 51.9189L17.2753 51.9225Z" fill="#765093"/>
  <path d="M18.657 47.7725H11.3518V43.8291C11.3518 43.793 11.3574 43.7573 11.3682 43.724C11.3791 43.6907 11.395 43.6604 11.415 43.6349C11.435 43.6095 11.4588 43.5892 11.485 43.5754C11.5111 43.5616 11.5392 43.5545 11.5675 43.5545H18.4413C18.4985 43.5545 18.5534 43.5835 18.5939 43.6349C18.6343 43.6864 18.657 43.7563 18.657 43.8291L18.657 47.7725Z" fill="#9A4BD6"/>
  <path d="M12.3629 51.9903H11.568C11.5397 51.9903 11.5116 51.9832 11.4855 51.9694C11.4593 51.9556 11.4355 51.9354 11.4155 51.9099C11.3954 51.8844 11.3796 51.8541 11.3687 51.8208C11.3579 51.7875 11.3523 51.7518 11.3523 51.7157V47.7719H18.6574V51.7157C18.6574 51.7518 18.6518 51.7875 18.641 51.8208C18.6302 51.8541 18.6143 51.8844 18.5942 51.9099C18.5742 51.9354 18.5504 51.9556 18.5243 51.9694C18.4981 51.9832 18.47 51.9903 18.4417 51.9903H17.8938" fill="#9A4BD6"/>
  <path d="M18.1235 43.989H11.8851C11.766 43.989 11.6694 44.1119 11.6694 44.2635V47.0635C11.6694 47.2151 11.766 47.338 11.8851 47.338H18.1235C18.2426 47.338 18.3392 47.2151 18.3392 47.0635V44.2635C18.3392 44.1119 18.2426 43.989 18.1235 43.989Z" fill="#B274E1"/>
  <path d="M15.0044 46.1264C15.2072 46.1264 15.3717 45.9192 15.3717 45.6636C15.3717 45.408 15.2072 45.2007 15.0044 45.2007C14.8015 45.2007 14.6371 45.408 14.6371 45.6636C14.6371 45.9192 14.8015 46.1264 15.0044 46.1264Z" fill="#765093"/>
  <path d="M18.1235 48.2069H11.8851C11.766 48.2069 11.6694 48.3299 11.6694 48.4815V51.2815C11.6694 51.4331 11.766 51.556 11.8851 51.556H18.1235C18.2426 51.556 18.3392 51.4331 18.3392 51.2815V48.4815C18.3392 48.3299 18.2426 48.2069 18.1235 48.2069Z" fill="#B274E1"/>
  <path d="M15.0044 50.3442C15.2072 50.3442 15.3717 50.137 15.3717 49.8814C15.3717 49.6258 15.2072 49.4185 15.0044 49.4185C14.8015 49.4185 14.6371 49.6258 14.6371 49.8814C14.6371 50.137 14.8015 50.3442 15.0044 50.3442Z" fill="#765093"/>
  <path d="M50.0675 50.6783C49.9842 50.0535 49.9362 49.4219 49.9239 48.7884C49.9095 48.1542 49.9291 47.5194 49.9827 46.8886C50.0384 46.2574 50.1406 45.6341 50.2879 45.0272C50.3652 44.7254 50.4562 44.4295 50.5603 44.1411C50.6693 43.8561 50.7939 43.5812 50.9331 43.3184C50.6728 43.8569 50.47 44.4372 50.33 45.0438C50.2615 45.3469 50.1998 45.6523 50.1517 45.9618C50.1049 46.2715 50.0675 46.5832 50.0396 46.8969C49.9842 47.5245 49.9602 48.1558 49.9678 48.7872C49.9701 49.1031 49.9797 49.4187 49.9965 49.7342C50.0123 50.0496 50.0333 50.3649 50.0675 50.6783Z" fill="#1A5266"/>
  <path d="M50.0674 45.9383C50.0674 45.9383 47.4517 46.3576 46.3134 44.9291C45.4687 43.869 46.2722 42.0444 47.4299 42.3741C48.2049 42.5947 49.1609 43.4715 50.0674 45.9383Z" fill="#56247C"/>
  <path d="M50.0674 45.9383C49.7003 45.7961 49.3389 45.6295 48.9831 45.4451C48.6275 45.2602 48.2789 45.0547 47.9372 44.8285C47.7673 44.7139 47.6006 44.5918 47.4371 44.4622C47.2726 44.3346 47.114 44.195 46.9621 44.0442C46.8093 43.8944 46.6664 43.7289 46.5347 43.5495C46.4038 43.3691 46.2976 43.1618 46.2207 42.9365C46.3055 43.1552 46.4185 43.3542 46.5552 43.5251C46.6895 43.6978 46.8345 43.8565 46.9888 43.9996C47.2977 44.2865 47.6238 44.5421 47.964 44.7641C48.301 44.9948 48.6493 45.1982 49.0001 45.3936C49.1757 45.4912 49.3525 45.5849 49.5307 45.6748C49.7082 45.7669 49.8869 45.8558 50.0674 45.9383Z" fill="#1A5266"/>
  <path d="M47.2311 44.2549L47.2337 43.7638C47.2329 43.6006 47.2337 43.4376 47.2264 43.2752C47.2223 43.113 47.211 42.9514 47.1925 42.7909L47.1748 42.6719C47.1684 42.6323 47.1575 42.5947 47.1493 42.5556C47.1399 42.5172 47.1284 42.4796 47.1148 42.4432C47.0994 42.4076 47.0822 42.3733 47.0635 42.3405C47.1546 42.4614 47.2147 42.6148 47.2358 42.7802C47.2614 42.9424 47.2774 43.1068 47.2836 43.2721C47.2862 43.4369 47.2863 43.6016 47.2776 43.7657C47.2697 43.9298 47.2542 44.0932 47.2311 44.2549ZM46.0001 44.2549C46.1539 44.2209 46.3055 44.1928 46.4538 44.1494C46.5272 44.1282 46.5992 44.0994 46.6689 44.0632C46.7403 44.0311 46.8 43.967 46.8369 43.8829C46.8275 43.933 46.8094 43.9798 46.7838 44.0198C46.7583 44.0598 46.726 44.0919 46.6893 44.1138C46.6193 44.162 46.5444 44.1979 46.4668 44.2204C46.3138 44.2648 46.1561 44.2765 46.0001 44.2549ZM46.473 45.1079C46.678 45.0745 46.8809 45.0226 47.0802 44.9526C47.178 44.9179 47.2716 44.8667 47.3588 44.8005C47.4479 44.7365 47.5143 44.6312 47.5441 44.5066C47.5392 44.575 47.5222 44.6411 47.4946 44.7C47.4669 44.759 47.4293 44.8093 47.3843 44.8472C47.2971 44.9263 47.1998 44.9856 47.0968 45.0224C46.8944 45.0971 46.6833 45.126 46.473 45.1079ZM47.9356 44.7867C47.9791 44.624 48.0192 44.4607 48.0557 44.2968C48.0911 44.1324 48.126 43.968 48.1491 43.8007C48.2071 43.4681 48.2192 43.1252 48.1849 42.7874C48.2256 42.9527 48.2462 43.125 48.2461 43.2983C48.244 43.4715 48.2304 43.6443 48.2054 43.8146C48.1779 43.9837 48.1418 44.1504 48.0975 44.3136C48.0537 44.4766 47.9995 44.6348 47.9356 44.7867ZM47.5441 45.75C47.6275 45.7221 47.7081 45.6873 47.7872 45.6501C47.8658 45.6135 47.9415 45.5677 48.0134 45.5133C48.0845 45.4599 48.1489 45.3934 48.2046 45.3159C48.2578 45.2331 48.2983 45.1384 48.3241 45.0367C48.3191 45.1493 48.29 45.2579 48.24 45.3509C48.1865 45.4416 48.1196 45.5181 48.0429 45.5759C47.9673 45.6327 47.8859 45.6758 47.8009 45.7041C47.7173 45.7339 47.6309 45.7493 47.5441 45.75ZM48.8694 43.5368C48.9266 43.6737 48.968 43.8203 48.9924 43.9722C49.0172 44.125 49.0269 44.2811 49.0212 44.4369C49.0143 44.5933 48.9884 44.7473 48.9445 44.8936C48.9009 45.0388 48.8381 45.1734 48.759 45.2918C48.8188 45.1601 48.867 45.0204 48.9028 44.8752C48.9388 44.732 48.9594 44.5831 48.964 44.4328C48.9716 44.2822 48.9666 44.1311 48.9492 43.9819C48.9324 43.831 48.9057 43.6821 48.8694 43.5368ZM48.7003 45.9383C48.7954 45.8776 48.8888 45.8256 48.9785 45.7645C49.0697 45.706 49.1542 45.6318 49.2294 45.5438C49.1829 45.669 49.1037 45.7697 49.0054 45.8289C48.9112 45.8933 48.8071 45.9307 48.7003 45.9383ZM49.5283 44.6601C49.5802 44.8252 49.6106 45 49.6182 45.1775C49.6229 45.267 49.6195 45.3569 49.6081 45.4454C49.5991 45.5353 49.5715 45.6206 49.5283 45.6927C49.5506 45.611 49.5625 45.5254 49.5636 45.439C49.5665 45.3532 49.5657 45.2673 49.5609 45.1816C49.5539 45.0092 49.5376 44.837 49.5283 44.6601Z" fill="#1A5266"/>
  <path d="M49.9725 45.9215C49.9725 45.9215 47.9345 43.793 47.9666 41.7588C47.9903 40.2493 49.5836 39.737 50.1918 41.0333C50.5989 41.9012 50.7562 43.3875 49.9725 45.9215Z" fill="#6EB3CE"/>
  <path d="M49.9723 45.9215C49.7958 45.487 49.637 45.0412 49.4966 44.5859C49.355 44.131 49.2312 43.6675 49.1252 43.1954C49.074 42.9591 49.0294 42.7206 48.9913 42.4797C48.9511 42.2394 48.9223 41.9961 48.9051 41.7513C48.8869 41.5062 48.8844 41.2596 48.8977 41.014C48.9119 40.7682 48.9597 40.5276 49.0392 40.3029C48.9766 40.5327 48.9435 40.774 48.9413 41.0173C48.9367 41.2596 48.9473 41.5019 48.9732 41.742C49.0237 42.2234 49.1031 42.6992 49.2108 43.1651C49.3095 43.6349 49.4331 44.096 49.5604 44.5553C49.624 44.7851 49.6908 45.0135 49.7607 45.2406C49.8277 45.4692 49.9001 45.6951 49.9723 45.9215Z" fill="#70369D"/>
  <path d="M48.982 42.1432C49.1628 41.9065 49.3489 41.6836 49.5263 41.451C49.6148 41.3347 49.7002 41.2155 49.7803 41.0913C49.8192 41.0285 49.8552 40.9628 49.8881 40.8947C49.9045 40.8606 49.919 40.8251 49.9315 40.7883C49.9422 40.7501 49.9513 40.7112 49.9588 40.6717C49.9586 40.8412 49.9159 41.0062 49.8368 41.1427C49.7639 41.2809 49.6814 41.4105 49.5902 41.5298C49.4093 41.767 49.2048 41.9732 48.982 42.1432ZM48.1355 41.0057C48.2694 41.113 48.3905 41.23 48.5164 41.3355C48.578 41.388 48.6423 41.4353 48.7089 41.4769C48.7742 41.5226 48.8497 41.5389 48.9232 41.5231C48.8888 41.5529 48.8493 41.5718 48.808 41.5782C48.7668 41.5847 48.7249 41.5786 48.6858 41.5603C48.6083 41.531 48.5347 41.4871 48.4674 41.43C48.3352 41.3189 48.2222 41.1745 48.1355 41.0057ZM47.9741 42.0293C48.1473 42.1813 48.3119 42.3381 48.4881 42.466C48.5739 42.5315 48.6655 42.5835 48.7611 42.6209C48.8569 42.6612 48.9609 42.6557 49.0537 42.6054C49.0124 42.6518 48.9632 42.6852 48.9099 42.7029C48.8566 42.7206 48.8008 42.7222 48.747 42.7074C48.64 42.6837 48.5373 42.6352 48.444 42.5643C48.3522 42.4962 48.2662 42.4164 48.1871 42.326C48.1076 42.2376 48.0361 42.1381 47.9741 42.0293ZM49.1632 43.1597C49.2841 43.0817 49.4021 43 49.5197 42.9194C49.6364 42.8366 49.7525 42.7536 49.864 42.662C49.9759 42.5717 50.084 42.474 50.1878 42.3693C50.2911 42.2616 50.3872 42.1432 50.4751 42.0152C50.4138 42.1714 50.3324 42.3133 50.2342 42.4351C50.1354 42.5559 50.0273 42.6639 49.9117 42.7575C49.6817 42.944 49.4286 43.0799 49.1632 43.1597ZM48.3445 43.4605C48.4222 43.511 48.4982 43.5587 48.5745 43.6027C48.6495 43.6468 48.727 43.6834 48.8065 43.712C48.8841 43.7404 48.9644 43.7554 49.0451 43.7567C49.1283 43.7515 49.2102 43.7292 49.2877 43.6907C49.223 43.771 49.1409 43.8246 49.0519 43.8447C48.9618 43.8608 48.8701 43.8527 48.7826 43.8211C48.697 43.7898 48.6157 43.7423 48.5414 43.68C48.467 43.6206 48.4005 43.5465 48.3445 43.4605ZM50.5184 43.1631C50.4483 43.4657 50.3095 43.7352 50.1195 43.9377C50.0717 43.9883 50.0213 44.0348 49.9687 44.0768C49.942 44.0971 49.9137 44.114 49.8863 44.1326C49.8593 44.152 49.8308 44.1679 49.8013 44.1802C49.6866 44.2379 49.5645 44.2677 49.4413 44.268C49.5556 44.2251 49.6665 44.1687 49.7726 44.0996C49.8765 44.0317 49.9736 43.9483 50.0621 43.8512C50.1517 43.7548 50.2344 43.6484 50.3091 43.5333C50.3853 43.416 50.4552 43.2923 50.5184 43.1631ZM49.0322 44.6583C49.1387 44.6908 49.2323 44.7372 49.3276 44.7767C49.4232 44.8199 49.5213 44.8531 49.6211 44.876C49.5715 44.9083 49.5162 44.9238 49.4605 44.921C49.4057 44.9188 49.3514 44.9063 49.2993 44.8841C49.2482 44.8618 49.1994 44.8316 49.1539 44.7944C49.1076 44.7581 49.0665 44.7121 49.0322 44.6583ZM50.3307 44.5444C50.3078 44.6293 50.2765 44.7102 50.2378 44.7852C50.2001 44.8608 50.1569 44.9317 50.1089 44.9971C50.0604 45.0638 50.0054 45.1222 49.9451 45.1707C49.8853 45.2235 49.8145 45.2527 49.7417 45.2545C49.8005 45.212 49.8548 45.1601 49.9033 45.1001C49.9516 45.0423 49.9989 44.9826 50.0441 44.9194C50.1373 44.7959 50.2258 44.6657 50.3307 44.5444Z" fill="#70369D"/>
  <path d="M49.9113 49.4866C49.9113 49.4866 47.2767 49.6071 46.243 48.0551C45.476 46.9033 46.4042 45.1773 47.5341 45.6371C48.2906 45.9449 49.1813 46.9267 49.9113 49.4866Z" fill="#6EB3CE"/>
  <path d="M49.9111 49.4866C49.5528 49.3095 49.202 49.109 48.86 48.8859C48.5173 48.6641 48.1835 48.4196 47.8586 48.1562C47.6974 48.0221 47.5399 47.8809 47.3861 47.7324C47.2309 47.5861 47.0829 47.428 46.9427 47.2589C46.8016 47.0905 46.6716 46.9077 46.5538 46.7123C46.4367 46.5161 46.3474 46.2954 46.2902 46.06C46.3627 46.2851 46.4634 46.4938 46.5882 46.6781C46.7107 46.8636 46.8447 47.0363 46.9889 47.1946C47.2771 47.5129 47.584 47.8027 47.907 48.0613C48.2252 48.3305 48.5577 48.572 48.8919 48.8093C49.0591 48.9279 49.2279 49.0429 49.3984 49.1544C49.5675 49.2693 49.7392 49.3777 49.9111 49.4866Z" fill="#70369D"/>
  <path d="M47.2041 47.4879C47.2166 47.1582 47.2402 46.8344 47.2523 46.5105C47.2582 46.3488 47.2602 46.1876 47.2557 46.0269C47.2522 45.9471 47.245 45.8676 47.2343 45.7888C47.2289 45.7494 47.2213 45.7105 47.2115 45.6725C47.1997 45.6348 47.1863 45.5979 47.1713 45.562C47.2593 45.6893 47.3131 45.849 47.3248 46.0179C47.342 46.1829 47.3475 46.3496 47.3412 46.5158C47.3289 46.8461 47.2828 47.1728 47.2041 47.4879ZM45.978 47.3481C46.1342 47.3157 46.2859 47.3014 46.435 47.2745C46.5086 47.262 46.5813 47.2433 46.6529 47.2185C46.7256 47.1977 46.7907 47.1463 46.8376 47.0726C46.8273 47.1239 46.8075 47.1713 46.7799 47.2109C46.7524 47.2505 46.7178 47.2812 46.679 47.3004C46.6056 47.3437 46.5276 47.3727 46.4475 47.3866C46.2906 47.4147 46.1308 47.4016 45.978 47.3481ZM46.3892 48.2514C46.5981 48.2196 46.8031 48.1985 47.0017 48.1459C47.1 48.1228 47.1958 48.0846 47.2869 48.0321C47.3796 47.9817 47.4548 47.89 47.4982 47.7741C47.4913 47.8436 47.4718 47.9101 47.441 47.9683C47.4103 48.0264 47.3693 48.0746 47.3213 48.1089C47.2287 48.1812 47.1265 48.2313 47.0197 48.2568C46.9155 48.283 46.8094 48.2956 46.7032 48.2944C46.5976 48.2952 46.4923 48.2807 46.3892 48.2514ZM47.8685 48.0975C47.9186 47.9371 47.9645 47.7765 48.0108 47.617C48.0552 47.4567 48.0991 47.2967 48.1351 47.1341C48.172 46.9721 48.2023 46.8079 48.2257 46.6419C48.2471 46.4742 48.2576 46.3044 48.257 46.1345C48.2922 46.3032 48.305 46.4782 48.2947 46.6522C48.2834 46.826 48.2586 46.998 48.2206 47.1655C48.145 47.4991 48.026 47.8141 47.8685 48.0975ZM47.411 49.0125C47.4956 48.9849 47.5773 48.9567 47.6574 48.9253C47.7366 48.8953 47.8137 48.8574 47.8882 48.8119C47.9612 48.7678 48.0291 48.7115 48.0903 48.6444C48.15 48.5706 48.1998 48.4849 48.2379 48.3907C48.2312 48.5054 48.1975 48.6148 48.1411 48.7047C48.082 48.7927 48.009 48.8639 47.927 48.9139C47.8466 48.9625 47.7609 48.9953 47.6728 49.0112C47.5861 49.0294 47.4978 49.0298 47.411 49.0125ZM48.8863 46.9586C48.9911 47.2445 49.0272 47.5635 48.9899 47.8754C48.9804 47.9536 48.9668 48.0308 48.9492 48.1067C48.9398 48.1443 48.9273 48.1808 48.9165 48.2178C48.9063 48.2551 48.8932 48.2911 48.8774 48.3252C48.8215 48.4649 48.7454 48.5901 48.6532 48.6942C48.7166 48.5657 48.7705 48.4301 48.8141 48.2889C48.8566 48.1505 48.8861 48.0061 48.9019 47.8589C48.919 47.7111 48.9257 47.5617 48.9219 47.4124C48.918 47.2603 48.9061 47.1087 48.8863 46.9586ZM48.5494 49.3314C48.6462 49.266 48.7405 49.2219 48.8325 49.1713C48.9266 49.1232 49.0174 49.0654 49.1041 48.9986C49.0837 49.0646 49.0503 49.1228 49.0072 49.1676C48.9649 49.2121 48.9177 49.2485 48.8671 49.2756C48.8171 49.302 48.7649 49.3205 48.7114 49.3308C48.6578 49.3426 48.6031 49.3428 48.5494 49.3314ZM49.4637 48.1523C49.4907 48.2353 49.5093 48.3222 49.5193 48.4111C49.5303 48.4995 49.5348 48.5891 49.5328 48.6785C49.5312 48.7693 49.5202 48.8595 49.5002 48.9467C49.4829 49.0367 49.445 49.1181 49.3914 49.1808C49.4133 49.0994 49.4271 49.0147 49.4322 48.9289C49.4384 48.8449 49.4428 48.7603 49.4439 48.6748C49.4495 48.5037 49.4481 48.3316 49.4637 48.1523Z" fill="#70369D"/>
  <path d="M50.0669 46.1635C50.0669 46.1635 52.6963 46.4063 53.7737 44.9033C54.5733 43.7879 53.6952 42.0199 52.5528 42.4269C51.788 42.6994 50.8698 43.6393 50.0669 46.1635Z" fill="#56247C"/>
  <path d="M50.0669 46.1635C50.2438 46.069 50.4185 45.9682 50.5919 45.8643C50.7659 45.7622 50.9387 45.6567 51.1101 45.5478C51.4523 45.3291 51.7917 45.1026 52.1186 44.8495C52.4492 44.6049 52.7642 44.3278 53.0607 44.0205C53.2089 43.8673 53.3471 43.6991 53.474 43.5176C53.6034 43.3377 53.7081 43.1314 53.7836 42.9073C53.7162 43.1375 53.6188 43.3516 53.4955 43.5406C53.3715 43.7286 53.2356 43.9034 53.0893 44.0633C52.9438 44.2241 52.7913 44.3741 52.6323 44.5127C52.4745 44.6529 52.3131 44.7861 52.148 44.9121C51.817 45.1612 51.4774 45.3899 51.1292 45.5981C50.7816 45.8062 50.4276 45.9968 50.0669 46.1635Z" fill="#1A5266"/>
  <path d="M52.8292 44.2918C52.7994 44.1318 52.7771 43.9697 52.7625 43.8064C52.7469 43.6431 52.7402 43.4786 52.7359 43.3138C52.7353 43.1484 52.7444 42.9831 52.7633 42.8194C52.7775 42.6528 52.8311 42.4957 52.9171 42.3688C52.8997 42.4028 52.884 42.4382 52.8701 42.4748C52.8581 42.512 52.8481 42.5503 52.8403 42.5894C52.8338 42.629 52.8244 42.6673 52.8197 42.7072L52.807 42.8272C52.7951 42.9887 52.7905 43.1509 52.7932 43.3131C52.7927 43.4758 52.8002 43.6385 52.8062 43.8016L52.8292 44.2918ZM54.0584 44.2091C53.9036 44.241 53.7456 44.24 53.591 44.2059C53.5125 44.1887 53.4363 44.1579 53.3644 44.1145C53.3269 44.0951 53.2933 44.0651 53.2661 44.0269C53.2389 43.9887 53.2188 43.9432 53.2073 43.8938C53.2477 43.9753 53.31 44.0353 53.3827 44.0625C53.4538 44.094 53.5268 44.118 53.6011 44.1341C53.7509 44.1676 53.9035 44.1854 54.0584 44.2091ZM53.6216 45.0926C53.4124 45.1249 53.2004 45.1101 52.9952 45.0492C52.8907 45.0193 52.7911 44.9667 52.7008 44.8936C52.6543 44.8587 52.6146 44.811 52.5845 44.754C52.5545 44.697 52.5348 44.6321 52.5271 44.5642C52.562 44.6867 52.6327 44.7873 52.7243 44.8452C52.8141 44.9055 52.9098 44.9503 53.0088 44.9783C53.2107 45.0349 53.4155 45.0731 53.6216 45.0926ZM52.1478 44.8702C52.0776 44.7228 52.0169 44.5685 51.9664 44.4087C51.9154 44.2486 51.8725 44.0846 51.838 43.9176C51.8059 43.7492 51.7852 43.5776 51.7759 43.4047C51.7686 43.2317 51.7821 43.0583 51.8158 42.8904C51.7956 43.2301 51.8219 43.5717 51.8936 43.8999C51.9236 44.0655 51.9653 44.2273 52.0075 44.3891C52.0505 44.5506 52.0972 44.7109 52.1478 44.8702ZM52.5787 45.8058C52.4919 45.811 52.405 45.8014 52.3203 45.7772C52.2343 45.7547 52.1512 45.7171 52.0733 45.6655C51.9944 45.6129 51.9243 45.5411 51.8672 45.454C51.8134 45.3645 51.7798 45.258 51.7702 45.146C51.8002 45.2458 51.8446 45.3377 51.901 45.4168C51.9599 45.4904 52.027 45.5525 52.1002 45.601C52.1743 45.6505 52.2518 45.6911 52.3318 45.7224C52.4122 45.7542 52.4943 45.7836 52.5787 45.8058ZM51.1633 43.6848C51.1331 43.8323 51.1127 43.9828 51.1022 44.1347C51.091 44.2849 51.0923 44.4361 51.1061 44.5859C51.1169 44.7357 51.1436 44.883 51.1856 45.0236C51.2274 45.1662 51.2813 45.3025 51.3464 45.43C51.2625 45.3171 51.1943 45.1868 51.1447 45.0448C51.0948 44.9017 51.0625 44.7496 51.0492 44.5939C51.037 44.4387 51.0402 44.2821 51.0586 44.1279C51.0766 43.9746 51.1119 43.8254 51.1633 43.6848ZM51.4319 46.0716C51.325 46.0712 51.2194 46.0409 51.1227 45.9829C51.0221 45.9303 50.9388 45.8351 50.8871 45.7133C50.9659 45.796 51.0534 45.8645 51.1469 45.9168C51.239 45.9717 51.3344 46.0174 51.4319 46.0716ZM50.552 44.8509C50.5501 45.0282 50.5409 45.2012 50.5411 45.3739C50.5399 45.4597 50.5426 45.5456 50.5491 45.631C50.5538 45.7172 50.5692 45.802 50.5949 45.882C50.5487 45.813 50.5177 45.7296 50.5049 45.6404C50.4898 45.5528 50.4827 45.4633 50.4837 45.3736C50.4839 45.1958 50.507 45.0192 50.552 44.8509Z" fill="#1A5266"/>
  <path d="M49.9668 49.4485C49.9668 49.4485 52.5962 49.6914 53.6736 48.1883C54.4732 47.0729 53.5951 45.305 52.4527 45.712C51.6879 45.9844 50.7697 46.9243 49.9668 49.4485Z" fill="#70369D"/>
  <path d="M49.9668 49.4485C50.1417 49.3476 50.3164 49.2473 50.4887 49.1403C50.662 49.0365 50.834 48.9293 51.0047 48.819C51.3455 48.5974 51.6847 48.3714 52.0104 48.1173C52.3406 47.8738 52.6556 47.5985 52.9527 47.2937C53.1014 47.1423 53.2402 46.9759 53.368 46.7962C53.498 46.6178 53.6046 46.4139 53.6835 46.1923C53.6196 46.4249 53.5241 46.6414 53.4013 46.8319C53.2781 47.0217 53.1429 47.1984 52.997 47.3602C52.8521 47.5226 52.6996 47.6737 52.5404 47.8127C52.3826 47.9538 52.2211 48.0876 52.0561 48.2143C51.7238 48.4624 51.3832 48.6913 51.0344 48.897C50.6862 49.1041 50.3299 49.2882 49.9668 49.4485Z" fill="#56247C"/>
  <path d="M52.7293 47.5768C52.6597 47.2583 52.623 46.9296 52.6202 46.599C52.6186 46.4326 52.6288 46.2663 52.6508 46.1022C52.6673 45.934 52.7256 45.7769 52.8172 45.6538C52.8013 45.6889 52.7868 45.7251 52.7739 45.7623C52.7631 45.7998 52.7543 45.8383 52.7478 45.8774C52.7348 45.9557 52.7254 46.0348 52.7196 46.1145C52.7105 46.2748 52.7079 46.436 52.7091 46.5979C52.7119 46.922 52.7262 47.2467 52.7293 47.5768ZM53.9585 47.4941C53.8043 47.5404 53.6443 47.5461 53.4882 47.5108C53.4086 47.4932 53.3314 47.4605 53.2594 47.4138C53.2212 47.3929 53.1875 47.3606 53.1611 47.3197C53.1347 47.2788 53.1163 47.2305 53.1074 47.1788C53.1522 47.2546 53.2157 47.309 53.2878 47.3332C53.3586 47.3613 53.4308 47.3834 53.5039 47.3993C53.6522 47.4331 53.8034 47.4544 53.9585 47.4941ZM53.5217 48.3776C53.4179 48.4022 53.3122 48.4117 53.2067 48.4061C53.1005 48.4023 52.9949 48.3848 52.8915 48.3537C52.7855 48.3233 52.6848 48.2685 52.5943 48.192C52.5473 48.1554 52.5077 48.1054 52.4787 48.0459C52.4497 47.9864 52.432 47.919 52.4272 47.8492C52.4672 47.967 52.5397 48.0621 52.6309 48.1168C52.7205 48.1735 52.8151 48.2162 52.9127 48.2438C53.1097 48.3055 53.3139 48.3362 53.5217 48.3776ZM52.0479 48.1552C51.8986 47.8647 51.7887 47.5443 51.7227 47.2075C51.6895 47.0383 51.6696 46.8653 51.6634 46.691C51.6581 46.5166 51.6758 46.3423 51.7158 46.1754C51.7104 46.3452 51.716 46.5153 51.7326 46.684C51.7512 46.8509 51.7767 47.0165 51.809 47.18C51.8403 47.3442 51.8796 47.5061 51.9194 47.6684C51.961 47.83 52.0024 47.9925 52.0479 48.1552ZM52.4788 49.0908C52.3916 49.1041 52.3033 49.0996 52.2172 49.0774C52.1296 49.0574 52.0449 49.0206 51.966 48.9683C51.8854 48.9145 51.8145 48.84 51.7579 48.7493C51.7043 48.6568 51.6737 48.5459 51.6702 48.431C51.7056 48.5269 51.753 48.6148 51.8105 48.6914C51.8697 48.7613 51.936 48.8208 52.0076 48.8682C52.0808 48.9171 52.1568 48.9586 52.235 48.9923C52.3142 49.0273 52.395 49.0593 52.4788 49.0908ZM51.0634 46.9698C51.0393 47.1189 51.023 47.2698 51.0148 47.4217C51.0067 47.5706 51.0091 47.7202 51.0219 47.8687C51.0335 48.0166 51.0588 48.1623 51.0974 48.3026C51.1369 48.4456 51.1869 48.5837 51.2465 48.715C51.1573 48.6067 51.0849 48.4781 51.033 48.3358C51.0183 48.3011 51.0062 48.2645 50.9971 48.2267C50.9874 48.1893 50.9759 48.1522 50.9676 48.1142C50.9522 48.0375 50.9408 47.9597 50.9335 47.8811C50.9052 47.5677 50.9504 47.2506 51.0634 46.9698ZM51.332 49.3566C51.278 49.3655 51.2233 49.3628 51.1701 49.3486C51.117 49.3357 51.0653 49.3148 51.0161 49.2862C50.9663 49.2567 50.9202 49.2181 50.8792 49.1716C50.8374 49.1249 50.8057 49.0652 50.7872 48.9983C50.8719 49.0691 50.9611 49.1311 51.0537 49.1835C51.1442 49.2384 51.2372 49.2868 51.332 49.3566ZM50.4521 48.1359C50.4625 48.3158 50.4562 48.4877 50.457 48.6589C50.4555 48.7445 50.4575 48.8292 50.4613 48.9134C50.464 48.9994 50.4753 49.0847 50.4949 49.167C50.4431 49.1019 50.4076 49.0187 50.3928 48.928C50.3754 48.84 50.367 48.7494 50.368 48.6586C50.3685 48.569 50.3756 48.4798 50.3891 48.3919C50.4016 48.3036 50.4228 48.2175 50.4521 48.1359Z" fill="#56247C"/>
  <path d="M50.8453 43.499C50.8453 43.499 50.1163 40.2745 51.0497 38.6227C51.7423 37.3969 53.2827 38.1258 53.2054 39.6324C53.1536 40.6411 52.6204 41.9785 50.8453 43.499Z" fill="#70369D"/>
  <path d="M50.8455 43.499C50.8939 43.0138 50.9619 42.532 51.0493 42.0557C51.1355 41.5788 51.2412 41.1075 51.3634 40.6426C51.4266 40.411 51.4963 40.1823 51.5723 39.9566C51.6463 39.7296 51.731 39.5085 51.826 39.2945C51.9203 39.0795 52.0282 38.8747 52.1487 38.6821C52.2699 38.4899 52.4167 38.3263 52.5823 38.1987C52.4282 38.3427 52.2934 38.5175 52.1831 38.7163C52.0713 38.9124 51.972 39.1196 51.8863 39.336C51.7132 39.7689 51.5665 40.218 51.4475 40.6794C51.3192 41.1375 51.2154 41.6064 51.1154 42.0766C51.0654 42.3118 51.0185 42.5481 50.9748 42.7855C50.928 43.0221 50.887 43.2604 50.8455 43.499Z" fill="#56247C"/>
  <path d="M51.7146 39.6727C51.969 39.6084 52.2216 39.5592 52.4714 39.4958C52.5961 39.464 52.7195 39.4275 52.8409 39.3831C52.9009 39.3594 52.9598 39.3314 53.0173 39.2991C53.046 39.2829 53.0738 39.2641 53.1005 39.2428C53.1264 39.2191 53.1512 39.1936 53.1749 39.1665C53.0992 39.306 52.9904 39.411 52.8645 39.4662C52.7429 39.5274 52.6171 39.5745 52.4888 39.6069C52.2341 39.6715 51.9738 39.6937 51.7146 39.6727ZM51.5247 38.1247C51.5872 38.3097 51.6347 38.4936 51.6913 38.6713C51.7186 38.7591 51.7505 38.8445 51.7867 38.9268C51.8202 39.0116 51.8751 39.0795 51.9426 39.1196C51.901 39.1193 51.8601 39.1064 51.8232 39.0819C51.7863 39.0574 51.7546 39.0221 51.7306 38.9788C51.6798 38.8987 51.6388 38.8094 51.6089 38.7138C51.5495 38.5268 51.5209 38.3263 51.5247 38.1247ZM50.9355 38.8509C51.0102 39.1012 51.0759 39.3492 51.164 39.5818C51.2054 39.6977 51.2577 39.8067 51.3197 39.9065C51.3806 40.0089 51.4687 40.0795 51.5675 40.1051C51.5128 40.1134 51.4574 40.1053 51.4057 40.0814C51.3539 40.0576 51.3073 40.0186 51.2695 39.9676C51.192 39.8707 51.1291 39.7566 51.0838 39.6309C51.0386 39.5085 51.0034 39.3806 50.9786 39.2491C50.9525 39.1189 50.938 38.9853 50.9355 38.8509ZM51.4105 40.6405C51.5449 40.6637 51.6784 40.6816 51.8112 40.7001C51.9442 40.7162 52.0768 40.7317 52.2095 40.7369C52.3419 40.7433 52.4744 40.7409 52.6066 40.7297C52.7397 40.7156 52.8716 40.6875 53.0011 40.6457C52.881 40.73 52.7506 40.788 52.6155 40.8174C52.4802 40.8455 52.3431 40.8565 52.2062 40.85C51.9336 40.8374 51.6647 40.7665 51.4105 40.6405ZM50.6023 40.2969C50.6438 40.3947 50.6851 40.4888 50.7283 40.5801C50.7703 40.6706 50.8179 40.7567 50.8706 40.8377C50.9219 40.9171 50.9812 40.9874 51.0472 41.0468C51.1179 41.1026 51.1953 41.1434 51.2763 41.1677C51.1873 41.1871 51.0957 41.1719 51.0135 41.1241C50.9321 41.0724 50.8602 40.9995 50.8023 40.9102C50.7458 40.8227 50.7 40.7248 50.6666 40.6199C50.6318 40.5172 50.6101 40.4082 50.6023 40.2969ZM52.5249 41.6221C52.3323 41.8207 52.0978 41.9423 51.851 41.9718C51.7891 41.9789 51.7269 41.9808 51.6648 41.9774C51.6338 41.9749 51.603 41.9683 51.5722 41.9639C51.5413 41.9603 51.5107 41.9529 51.4809 41.9416C51.3608 41.9063 51.247 41.8427 51.1454 41.754C51.2586 41.8012 51.3751 41.8349 51.4932 41.8546C51.609 41.8737 51.7262 41.8752 51.8423 41.8591C51.9591 41.8445 52.0746 41.8166 52.1875 41.7758C52.3025 41.7342 52.4153 41.6829 52.5249 41.6221ZM50.6345 41.7799C50.7077 41.8836 50.7641 41.9893 50.825 42.0908C50.8844 42.1953 50.9504 42.2935 51.0223 42.3844C50.9671 42.3752 50.9147 42.348 50.8701 42.3056C50.8259 42.2641 50.7867 42.2146 50.7538 42.1587C50.7216 42.1034 50.6949 42.0433 50.674 41.9798C50.6521 41.9165 50.6387 41.8489 50.6345 41.7799ZM51.7545 42.6239C51.6977 42.6772 51.636 42.7213 51.5706 42.7551C51.5059 42.79 51.4387 42.8173 51.37 42.8364C51.3004 42.8564 51.229 42.8647 51.1577 42.8611C51.0849 42.8614 51.0136 42.8343 50.9529 42.7832C51.0203 42.7907 51.0881 42.7872 51.1548 42.7727C51.2203 42.7601 51.2859 42.7451 51.3513 42.7257C51.4831 42.6913 51.614 42.648 51.7545 42.6239Z" fill="#56247C"/>
  <path d="M48.2012 49.8211V50.4268C48.2008 50.4825 48.2177 50.5361 48.2483 50.5759C48.279 50.6156 48.3207 50.6382 48.3645 50.6388H51.6363C51.68 50.6382 51.7218 50.6156 51.7524 50.5759C51.783 50.5361 51.8 50.4825 51.7996 50.4268V49.8686C51.8 49.8133 51.7833 49.7601 51.753 49.7204C51.7228 49.6807 51.6815 49.6578 51.6381 49.6566L48.3663 49.6091C48.3445 49.6091 48.3229 49.6146 48.3028 49.6252C48.2826 49.6359 48.2643 49.6515 48.249 49.6712C48.2336 49.6909 48.2215 49.7143 48.2133 49.7401C48.2051 49.7658 48.201 49.7933 48.2012 49.8211Z" fill="#9A4BD6"/>
  <path d="M48.3572 50.6388L48.4735 53.7652H51.4499L51.6432 50.6388H48.3572Z" fill="#B274E1"/>
  <path d="M12.8279 39.8757C12.8279 39.8757 14.0773 41.0478 14.4859 40.9135" stroke="#70369D" stroke-width="1.1142" stroke-linecap="round" stroke-linejoin="round"/>
  <path d="M14.2178 37.6472L14.4098 40.9989" stroke="#70369D" stroke-width="1.1142" stroke-linecap="round" stroke-linejoin="round"/>
  <path d="M15.2179 41.088C15.2179 41.088 15.425 39.601 16.5094 38.957" stroke="#70369D" stroke-width="1.1142" stroke-linecap="round" stroke-linejoin="round"/>
  <path d="M15.1226 40.7425C15.0579 40.5813 14.7103 40.581 14.4882 40.7792C14.3908 40.8687 14.3164 40.993 14.2744 41.1363C14.2366 41.2602 14.1761 41.4585 14.2602 41.5941C14.3052 41.6509 14.3625 41.6891 14.4248 41.7038C14.4871 41.7185 14.5514 41.709 14.6094 41.6765C14.721 41.5676 14.8216 41.4415 14.9088 41.3011C15.0376 41.0935 15.1747 40.8725 15.1226 40.7425ZM15.3935 40.7242C15.3692 40.8052 15.4173 40.898 15.5075 41.0722C15.5919 41.2348 15.6981 41.3773 15.8211 41.4934C15.8797 41.5628 15.9542 41.6065 16.0338 41.6181C16.1133 41.6296 16.1937 41.6084 16.263 41.5575C16.3135 41.516 16.355 41.4591 16.3836 41.3919C16.4123 41.3247 16.4272 41.2493 16.4269 41.1729C16.4255 40.9357 16.2662 40.7889 16.206 40.7334C15.9144 40.4646 15.452 40.5285 15.3935 40.7242ZM16.2488 39.2042C16.27 39.1581 16.3251 39.1816 16.4483 39.1584C16.5525 39.1279 16.655 39.0881 16.7548 39.0394C16.8399 38.9991 16.9284 38.9714 17.0186 38.957C17.0559 38.9572 17.267 38.9584 17.3393 39.1401C17.415 39.3305 17.2749 39.5596 17.268 39.5705C17.1326 39.7859 16.9012 39.7754 16.8261 39.7719C16.7352 39.7661 16.6461 39.7372 16.564 39.6869C16.482 39.6366 16.4088 39.5659 16.3485 39.4789C16.3316 39.4549 16.2118 39.2843 16.2488 39.2042ZM14.3029 38.316C14.2277 38.2678 14.2717 37.9615 14.2958 37.7941C14.3287 37.6154 14.3741 37.4407 14.4312 37.2722C14.556 36.8539 14.5844 36.8089 14.6308 36.7869C14.6945 36.7689 14.761 36.778 14.8202 36.8127C14.8794 36.8475 14.928 36.9059 14.9587 36.9792C15.0411 37.1823 14.9147 37.439 14.7805 37.7117C14.6516 37.9736 14.4008 38.3787 14.3029 38.316Z" fill="#56247C"/>
  <path d="M14.2745 39.1218C14.3298 39.0072 14.228 38.7831 14.1248 38.664C14.0382 38.564 13.9496 38.5369 13.7969 38.49C13.6255 38.4375 13.4368 38.3796 13.3835 38.4809C13.3327 38.5775 13.4321 38.7672 13.4548 38.8105C13.5279 38.94 13.6296 39.0388 13.7471 39.0944C13.8994 39.1746 14.2031 39.2697 14.2745 39.1218Z" fill="#6EB3CE"/>
  <path d="M14.2818 40.01C14.2838 39.9188 14.1802 39.8999 13.9682 39.6804C13.7998 39.5061 13.795 39.4455 13.6973 39.4057C13.5477 39.3448 13.3524 39.4028 13.3196 39.5247C13.3115 39.5545 13.3126 39.5902 13.4407 39.8543C13.5404 40.0598 13.5912 40.1633 13.6403 40.2023C13.7496 40.277 13.8778 40.2935 13.9967 40.248C14.0861 40.2211 14.279 40.1336 14.2818 40.01ZM14.3597 38.9561C14.2899 38.8554 14.3602 38.6122 14.4459 38.472C14.5178 38.3544 14.6015 38.3081 14.7456 38.2282C14.9074 38.1385 15.0855 38.0398 15.1516 38.1278C15.2146 38.2117 15.142 38.4206 15.1255 38.4683C15.0708 38.612 14.9839 38.7318 14.8756 38.8125C14.7363 38.9252 14.4499 39.086 14.3597 38.9561ZM14.4114 39.9023C14.3972 39.813 14.4967 39.7715 14.6762 39.5083C14.8187 39.2994 14.8153 39.2387 14.9063 39.1779C15.0455 39.0848 15.2456 39.0988 15.2943 39.2117C15.3063 39.2393 15.3099 39.2746 15.2191 39.5632C15.1485 39.7876 15.1123 39.9008 15.0691 39.95C14.9715 40.0478 14.8475 40.0923 14.7242 40.0739C14.6324 40.0671 14.4307 40.0235 14.4114 39.9023ZM13.2697 40.3762C13.2597 40.2769 13.1311 40.222 12.9774 40.1565C12.8386 40.0973 12.7284 40.0502 12.5997 40.1015C12.5769 40.1106 12.3745 40.1913 12.3573 40.3854C12.3419 40.5595 12.4879 40.6866 12.4999 40.6967C12.5505 40.7326 12.6062 40.7551 12.6637 40.763C12.7213 40.7709 12.7795 40.7639 12.8349 40.7425C13.0353 40.6934 13.2844 40.5224 13.2697 40.3762Z" fill="#56247C"/>
  <path d="M13.847 40.8341C13.7397 40.7366 13.5371 40.9019 13.4407 40.9806C13.3416 41.0613 13.2566 41.1673 13.1913 41.2919C13.117 41.4337 13.0464 41.5687 13.0843 41.6856C13.1389 41.8538 13.3746 41.8513 13.4051 41.8504C13.5376 41.8433 13.6628 41.7711 13.7543 41.649C13.8246 41.5518 13.8715 41.4311 13.8898 41.3011C13.9027 41.2249 13.9529 40.9303 13.847 40.8341Z" fill="#6EB3CE"/>
  <path d="M12.9915 39.9001C12.9311 39.7883 12.9523 39.7091 12.9273 39.5155C12.8877 39.2077 12.8034 39.1683 12.8347 39.0119C12.8593 38.8888 12.9426 38.7575 13.0343 38.7555C13.1626 38.7528 13.2452 39.0053 13.2623 39.0577C13.3246 39.2481 13.3017 39.4142 13.2623 39.6986C13.2367 39.8843 13.2171 40.0173 13.1554 40.0374C13.0958 40.0569 13.0249 39.9619 12.9915 39.9001ZM15.7214 39.8726C15.7404 39.804 15.8413 39.7937 15.9637 39.7811C16.1166 39.7653 16.2311 39.7535 16.3415 39.8451C16.3584 39.8592 16.5371 40.0118 16.5054 40.1931C16.4806 40.3348 16.3423 40.4091 16.2417 40.4129C16.1325 40.417 16.0582 40.3384 15.9209 40.1931C15.8128 40.0787 15.6979 39.9571 15.7214 39.8726Z" fill="#70369D"/>
  <path d="M15.8997 39.3507C15.8723 39.3428 15.8706 39.2941 15.8355 39.1584C15.7573 38.8552 15.696 38.8277 15.7073 38.7006C15.7197 38.56 15.8108 38.4103 15.8926 38.4167C15.9817 38.4237 16.0349 38.6143 16.0565 38.6915C16.084 38.7817 16.0938 38.8791 16.085 38.9753C16.065 39.1722 15.9592 39.368 15.8997 39.3507Z" fill="#56247C"/>
  <path d="M14.132 38.0322C14.0904 38.1072 13.8543 38.0183 13.6972 37.8399C13.6571 37.7943 13.4796 37.5926 13.5261 37.4003C13.535 37.3584 13.5531 37.3205 13.5784 37.2913C13.6037 37.2621 13.635 37.2427 13.6687 37.2355C13.7353 37.2335 13.7786 37.3195 13.8897 37.5285C14.1181 37.9584 14.1502 37.9993 14.132 38.0322Z" fill="#70369D"/>
  <path d="M15.4294 40.0558C15.3098 40.0973 15.1533 39.7758 15.1157 39.6987C15.0182 39.5017 14.9686 39.2723 14.9732 39.0395C14.9783 38.8939 14.9877 38.6284 15.1086 38.5633C15.2245 38.501 15.3813 38.6558 15.4579 38.7739C15.609 39.007 15.5849 39.3085 15.5648 39.5614C15.5491 39.7584 15.5281 40.0216 15.4294 40.0558Z" fill="#6EB3CE"/>
  <path d="M15.4467 43.5545H14.2714L13.8933 41.0016C13.8911 40.9869 13.8914 40.9718 13.8943 40.9574C13.8972 40.9429 13.9025 40.9295 13.9099 40.9179C13.9174 40.9064 13.9267 40.8971 13.9373 40.8907C13.9478 40.8843 13.9594 40.8809 13.9711 40.8808H15.747C15.7587 40.8809 15.7702 40.8843 15.7808 40.8907C15.7914 40.8971 15.8007 40.9064 15.8081 40.9179C15.8156 40.9295 15.8209 40.9429 15.8238 40.9574C15.8266 40.9718 15.827 40.9869 15.8247 41.0016L15.4467 43.5545Z" fill="#B274E1"/>
  <path d="M15.7974 41.186L15.8247 41.0016C15.827 40.9869 15.8266 40.9718 15.8238 40.9574C15.8209 40.9429 15.8156 40.9295 15.8081 40.9179C15.8007 40.9064 15.7914 40.8971 15.7808 40.8907C15.7702 40.8843 15.7587 40.8809 15.7469 40.8808H13.9711C13.9594 40.8809 13.9478 40.8843 13.9373 40.8907C13.9267 40.8971 13.9173 40.9064 13.9099 40.9179C13.9025 40.9295 13.8972 40.9429 13.8943 40.9574C13.8914 40.9718 13.8911 40.9869 13.8933 41.0016L13.9206 41.186H15.7974Z" fill="#9A4BD6"/>
  <path d="M14.3653 42.8315L14.1171 42.5125L14.3653 42.1936L14.6136 42.5125L14.3653 42.8315Z" fill="#9A4BD6"/>
  <path d="M14.8619 42.8315L14.6136 42.5125L14.8619 42.1936L15.1102 42.5125L14.8619 42.8315Z" fill="#9A4BD6"/>
  <path d="M15.3525 42.8315L15.1042 42.5125L15.3525 42.1936L15.6008 42.5125L15.3525 42.8315Z" fill="#9A4BD6"/>
  <path d="M54.0823 53.5386H9.57141V53.7652H54.0823V53.5386Z" fill="#765093"/>
  <path d="M18.6128 30.4691H21.8763V28.6343H18.6128V30.4691Z" fill="#AFC5CE"/>
  <path d="M16.7191 28.0618H19.9827V26.227H16.7191V28.0618Z" fill="#AFC5CE"/>
  <path d="M14.7504 30.4691H18.0139V28.6343H14.7504V30.4691Z" fill="#AFC5CE"/>
  <path d="M17.3939 32.8761H20.6575V31.0413H17.3939V32.8761Z" fill="#AFC5CE"/>
  <path d="M13.6764 32.8761H16.9399V31.0413H13.6764V32.8761Z" fill="#AFC5CE"/>
  <path d="M31.7484 50.8783C31.1981 51.7147 30.4409 52.2882 29.6009 52.5049C29.5211 52.5238 29.445 52.5621 29.3766 52.6178L29.3705 52.6229C29.3261 52.6597 29.2922 52.7138 29.2739 52.7771C29.2555 52.8404 29.2537 52.9095 29.2688 52.9742C29.2838 53.0389 29.3148 53.0957 29.3572 53.1361C29.3996 53.1766 29.4512 53.1985 29.5042 53.1987H32.5442C32.7118 53.1987 32.8725 53.114 32.991 52.9631C33.1095 52.8123 33.1761 52.6077 33.1761 52.3944L33.1585 50.8783H31.7484Z" fill="#C27AF9"/>
  <path d="M40.0166 25.8344C40.0166 25.8344 40.2244 25.2498 39.9846 24.4612C39.7282 23.6183 39.8014 22.3664 40.0427 21.4959C40.0704 21.3988 40.0831 21.2958 40.0801 21.1926L40.0798 21.1833C40.0774 21.1159 40.058 21.0513 40.0245 20.9991C39.991 20.9468 39.9451 20.9097 39.8937 20.8934C39.8423 20.877 39.7881 20.8821 39.7392 20.9081C39.6903 20.9341 39.6492 20.9794 39.6222 21.0374L38.0784 24.3705C37.9933 24.5543 37.969 24.7735 38.0109 24.9801C38.0528 25.1866 38.1575 25.3635 38.3019 25.4719L38.7347 25.8344L40.0166 25.8344Z" fill="#CA87FD"/>
  <path d="M27.2776 22.8365C27.2776 22.8365 30.6266 22.9113 33.2118 23.9174L37.9908 24.4884L37.8908 25.8344L33.0836 25.3314L29.6332 25.2838L28.9388 27.3708C28.9388 27.3708 26.8557 27.3572 27.2776 22.8365ZM25.7578 24.3253C25.7578 24.3253 22.5299 24.2128 19.8267 24.2433L15.117 23.0639L14.9126 24.3906L19.6342 25.6454L25.1681 26.6045C25.1681 26.6045 25.1539 28.8124 25.7578 24.3253Z" fill="#CA87FD"/>
  <path d="M29.8363 33.915L31.1396 42.9246L31.6459 50.6705C31.6496 50.7272 31.6699 50.78 31.7028 50.8185C31.7356 50.857 31.7787 50.8783 31.8233 50.8783H33.0772C33.123 50.8783 33.1672 50.8558 33.2003 50.8154C33.2334 50.775 33.253 50.7199 33.255 50.6616L33.7996 34.767C33.7996 34.767 36.9061 35.8637 39.8884 36.0072C40.1566 36.021 40.4237 35.9556 40.6687 35.8162C40.9138 35.6769 41.1302 35.4673 41.3011 35.2038C41.472 34.9404 41.5926 34.6302 41.6537 34.2976C41.7148 33.9649 41.7146 33.6188 41.6532 33.2862C41.3726 31.7593 41.0631 29.4358 40.2338 25.9953C40.2226 25.9488 40.2 25.9082 40.1693 25.8792C40.1386 25.8503 40.1015 25.8346 40.0633 25.8344H38.7637C38.7381 25.8344 38.7127 25.8414 38.6895 25.855C38.6662 25.8686 38.6455 25.8885 38.6288 25.9132C38.612 25.9379 38.5997 25.9669 38.5926 25.9982C38.5855 26.0295 38.5838 26.0625 38.5876 26.0947L39.3759 32.7684L34.761 31.1369C34.761 31.1369 33.1586 29.3422 31.8446 29.9948C31.8446 29.9948 31.2464 32.4874 29.8363 33.915Z" fill="#55D0FF"/>
  <path d="M30.819 34.1688C30.9285 34.2509 31.0446 34.3177 31.1653 34.3683C31.2845 34.4223 31.4059 34.4678 31.5291 34.5046C31.7753 34.5794 32.025 34.6341 32.2767 34.6685C32.528 34.7095 32.7815 34.7252 33.0352 34.7446L33.4167 34.7584C33.544 34.7614 33.6714 34.7606 33.7994 34.7671C33.6726 34.7862 33.5451 34.7981 33.4177 34.8139L33.0341 34.8317C32.906 34.832 32.7779 34.8288 32.6498 34.8221C32.5219 34.8098 32.3937 34.8027 32.2663 34.7809C32.0105 34.7461 31.7578 34.6816 31.5112 34.5883C31.2619 34.5046 31.0272 34.3623 30.819 34.1688ZM39.3757 32.7684C39.4622 32.7635 39.5486 32.7799 39.6302 32.8167C39.7128 32.8493 39.7897 32.9022 39.8565 32.9724C39.77 32.9775 39.6836 32.9611 39.602 32.9241C39.5194 32.8912 39.4426 32.8384 39.3757 32.7684ZM33.511 42.5984C33.4737 42.6813 33.4225 42.7527 33.3609 42.8073C33.3012 42.8652 33.232 42.9053 33.1585 42.9247C33.1956 42.8416 33.2469 42.7702 33.3086 42.7157C33.3684 42.658 33.4375 42.6179 33.511 42.5984ZM40.0808 35.1749C40.0732 35.0035 40.1047 34.833 40.1717 34.6839C40.2386 34.5325 40.3317 34.4024 40.4439 34.3037C40.5556 34.2074 40.6792 34.136 40.8096 34.0923C40.8742 34.0719 40.94 34.0584 41.005 34.0445C41.0714 34.0406 41.1369 34.0331 41.2025 34.0329C41.1393 34.0586 41.076 34.0769 41.0137 34.0989L40.8308 34.1765C40.7715 34.2056 40.7135 34.2384 40.6569 34.2749L40.5731 34.3303L40.4949 34.3965C40.3919 34.4866 40.3024 34.5995 40.2308 34.7298C40.1576 34.8637 40.1065 35.0151 40.0808 35.1749ZM31.5561 42.2313C31.6484 42.2971 31.7262 42.3915 31.7823 42.5057C31.8419 42.6234 31.8725 42.7611 31.8699 42.9011C31.8651 43.0398 31.8313 43.1744 31.772 43.2909C31.7427 43.3467 31.7103 43.3996 31.6749 43.4492C31.6361 43.4941 31.597 43.5377 31.5561 43.5773C31.5829 43.52 31.6124 43.4676 31.6405 43.4148C31.6634 43.3577 31.6918 43.3055 31.7111 43.2484C31.7528 43.139 31.7766 43.02 31.781 42.8985C31.7835 42.7773 31.7631 42.657 31.7216 42.5479C31.6779 42.4333 31.6222 42.3268 31.5561 42.2313ZM34.7609 31.1369C34.82 31.1736 34.8709 31.2287 34.9088 31.2971C34.9491 31.3633 34.9754 31.4416 34.9852 31.5244C34.9259 31.4879 34.875 31.4328 34.8372 31.3642C34.7971 31.2979 34.7708 31.2197 34.7609 31.1369Z" fill="#952AE6"/>
  <path d="M25.9952 27.9962C25.3762 27.7242 25.2322 25.6017 24.9715 24.5087C24.9256 24.3154 24.8286 24.1482 24.6969 24.0355C24.5653 23.9228 24.4071 23.8714 24.2491 23.8902C24.2491 23.8902 23.424 24.3797 23.436 23.7869C23.4376 23.7262 23.4281 23.6658 23.4081 23.6107C23.3881 23.5555 23.3582 23.5071 23.3209 23.4693C23.3111 23.4593 23.3032 23.4466 23.2977 23.4322C23.2922 23.4179 23.2892 23.4021 23.289 23.3862C23.2888 23.3702 23.2914 23.3543 23.2965 23.3398C23.3017 23.3252 23.3093 23.3122 23.3188 23.3018C23.4157 23.2054 23.4957 23.0842 23.5535 22.946C23.558 22.933 23.5595 22.9188 23.558 22.9047C23.5566 22.8907 23.5521 22.8774 23.5451 22.8664C23.5382 22.8554 23.529 22.847 23.5185 22.8421C23.5081 22.8373 23.4968 22.8361 23.4858 22.8389L23.1485 22.9248C23.1412 22.9267 23.1336 22.9264 23.1263 22.9239C23.119 22.9215 23.1123 22.9169 23.1067 22.9107C23.101 22.9044 23.0966 22.8965 23.0937 22.8877C23.0908 22.8789 23.0895 22.8693 23.09 22.8598L23.0927 22.8026C23.0932 22.7938 23.0922 22.7849 23.0899 22.7766C23.0876 22.7683 23.0841 22.7606 23.0794 22.754C23.0748 22.7474 23.0691 22.7421 23.0629 22.7383C23.0566 22.7346 23.0498 22.7324 23.0428 22.732L22.9246 22.7254C22.9054 22.7243 22.8867 22.7176 22.8699 22.7057C22.8531 22.6939 22.8387 22.6773 22.8278 22.6572C22.8169 22.6371 22.8098 22.6141 22.807 22.5899C22.8043 22.5657 22.806 22.541 22.812 22.5178L22.9613 21.9393C22.9873 21.8381 22.9834 21.7284 22.9504 21.6306C22.8538 21.3431 22.6653 20.6708 22.7423 19.9857C22.7423 19.9857 23.1627 20.9015 24.453 21.7572C24.453 21.7572 24.4941 20.6688 25.1165 21.2192C25.1165 21.2192 25.3587 21.4225 25.3088 22.2152L25.5595 22.4437C25.7509 22.6105 25.8889 22.8592 25.9482 23.1447C26.0253 23.5547 26.6671 22.9099 26.8025 23.0639C26.8025 23.0639 26.8464 28.3702 25.9952 27.9962Z" fill="#C27AF9"/>
  <path d="M23.6623 21.5722C23.6735 21.5731 23.6846 21.569 23.6937 21.5606C23.7028 21.5522 23.7092 21.5401 23.712 21.5262C23.7148 21.5124 23.7137 21.4978 23.7089 21.4849C23.7042 21.472 23.696 21.4616 23.6858 21.4555C23.4435 21.3202 23.1811 21.253 22.9165 21.2584C22.9101 21.2587 22.9039 21.2606 22.8982 21.264C22.8924 21.2673 22.8872 21.2721 22.8829 21.278C22.8786 21.2839 22.8753 21.2908 22.8731 21.2984C22.8709 21.306 22.8699 21.314 22.8702 21.322C22.8708 21.3382 22.8764 21.3534 22.8857 21.3644C22.895 21.3754 22.9074 21.3814 22.9201 21.381C23.1692 21.3773 23.4162 21.4405 23.6448 21.5665C23.6503 21.5698 23.6563 21.5718 23.6623 21.5722ZM23.4241 21.7355C23.3701 21.6826 23.3053 21.6507 23.2374 21.6439C23.1689 21.6345 23.1 21.6564 23.043 21.7057C23.0773 21.7039 23.1084 21.6987 23.14 21.6996C23.1712 21.6985 23.2024 21.7003 23.2333 21.705C23.296 21.7086 23.357 21.7259 23.4241 21.7355Z" fill="#002735"/>
  <path d="M23.2487 21.8105C23.2523 21.7362 23.2281 21.6737 23.1946 21.6711C23.1611 21.6685 23.1311 21.7267 23.1275 21.801C23.1239 21.8754 23.1481 21.9379 23.1816 21.9405C23.215 21.9431 23.2451 21.8849 23.2487 21.8105Z" fill="#050505"/>
  <path d="M25.1097 21.4829C25.0325 21.4034 24.9352 21.3623 24.836 21.3673C24.7849 21.3721 24.7358 21.3953 24.6945 21.434C24.655 21.4725 24.6253 21.5251 24.6093 21.585C24.6396 21.5411 24.6754 21.5036 24.7151 21.4741C24.7536 21.448 24.796 21.4325 24.8395 21.4284C24.9314 21.4268 25.0227 21.4452 25.1097 21.4829Z" fill="#A65EDD"/>
  <path d="M25.0834 22.026C25.0144 21.943 24.9558 21.8473 24.9094 21.7419C24.887 21.6903 24.8698 21.6353 24.8584 21.5782C24.8467 21.5191 24.8391 21.4589 24.8356 21.3981C24.8202 21.459 24.8153 21.5234 24.8214 21.5869C24.8269 21.6514 24.8424 21.7139 24.8669 21.7708C24.891 21.8274 24.9221 21.8787 24.959 21.9226C24.9951 21.9666 25.0372 22.0017 25.0834 22.026Z" fill="#A65EDD"/>
  <path d="M24.8969 24.2993C24.8969 24.2993 26.2681 30.5522 26.6206 22.9384C26.6206 22.9384 27.0372 22.6325 27.2776 22.8365C27.2776 22.8365 27.295 24.0051 27.6449 24.9259C27.7319 25.1494 27.8601 25.3429 28.0185 25.4899C28.177 25.6368 28.361 25.7329 28.5548 25.7698C28.7487 25.8068 28.9467 25.7837 29.132 25.7023C29.3174 25.6209 29.4845 25.4838 29.6192 25.3026C29.6238 25.2963 29.6285 25.2901 29.6331 25.2837C29.6331 25.2837 30.5839 27.3707 31.8444 29.9948C31.8444 29.9948 31.2782 32.5078 29.8361 33.915C29.8361 33.915 27.2212 31.8574 26.5405 29.9744C26.5405 29.9744 25.237 30.0435 25.2586 28.1141C25.2586 28.1141 24.9874 26.7596 24.6509 26.5149C24.6509 26.5149 24.4269 23.7146 24.8969 24.2993Z" fill="#A63CF7"/>
  <path d="M22.7424 19.9857C22.7424 19.9857 22.9319 20.8598 24.4532 21.7572C24.4532 21.7572 24.5272 21.113 24.8558 21.1056C24.9109 21.1059 24.9651 21.1242 25.013 21.1587C25.061 21.1932 25.1013 21.2427 25.1299 21.3026C25.2698 21.5718 25.3329 21.8939 25.309 22.2151C25.3136 22.5548 25.3603 22.8914 25.4475 23.2125C25.5592 23.5545 25.6641 24.1677 25.8815 24.0136C27.2213 23.0639 26.8435 21.5972 26.5065 20.2808C25.8437 17.6916 23.0486 18.2101 22.7424 19.9857Z" fill="#5D2A84"/>
  <path d="M26.4065 20.4158C27.0584 20.4158 27.5869 19.7432 27.5869 18.9134C27.5869 18.0837 27.0584 17.4111 26.4065 17.4111C25.7546 17.4111 25.2261 18.0837 25.2261 18.9134C25.2261 19.7432 25.7546 20.4158 26.4065 20.4158Z" fill="#5D2A84"/>
  <path d="M25.1258 22.6947C25.2795 22.6947 25.4041 22.5362 25.4041 22.3406C25.4041 22.145 25.2795 21.9864 25.1258 21.9864C24.9721 21.9864 24.8475 22.145 24.8475 22.3406C24.8475 22.5362 24.9721 22.6947 25.1258 22.6947Z" fill="#A63CF7"/>
  <path d="M24.9465 24.512C24.9533 24.5407 24.9652 24.5858 24.9719 24.6158L24.9917 24.5971C25.1495 24.0124 24.9507 23.275 24.9507 23.275C24.7509 23.5368 24.5125 23.7459 24.249 23.8902C24.4042 23.8727 24.5592 23.9255 24.6868 24.0393C24.8144 24.153 24.9064 24.3205 24.9465 24.512Z" fill="#A65EDD"/>
  <path d="M26.5406 29.9744C26.6014 29.9367 26.6673 29.9147 26.7348 29.9097C26.7666 29.9066 26.7986 29.9057 26.8305 29.9072C26.863 29.9077 26.8933 29.9128 26.9306 29.9132C26.909 29.9517 26.8781 29.9801 26.8427 29.9942C26.8103 30.0093 26.7764 30.0189 26.742 30.0225C26.6727 30.0314 26.6028 30.0147 26.5406 29.9744ZM28.5971 31.5244C28.7048 31.5621 28.8122 31.598 28.9211 31.626C29.0293 31.6572 29.1381 31.684 29.2474 31.7044C29.4646 31.7491 29.6845 31.7688 29.9044 31.7634C30.1227 31.7605 30.339 31.7107 30.5443 31.6163C30.7505 31.5168 30.9334 31.3517 31.0754 31.1369C31.016 31.259 30.9431 31.3696 30.8591 31.4655C30.7713 31.5582 30.6744 31.6359 30.5708 31.6967C30.3612 31.8125 30.1354 31.8737 29.9069 31.8765C29.681 31.8824 29.4554 31.8532 29.2349 31.7897C29.0154 31.7309 28.8015 31.6419 28.5971 31.5244Z" fill="#7323B0"/>
  <path d="M40.2908 24.4861C40.2881 24.5292 40.2831 24.572 40.2756 24.6142C40.2436 24.8065 40.1842 24.9896 40.1003 25.1546L39.3819 25.7302C39.2352 25.8477 39.0636 25.9051 38.8905 25.8945L37.8907 25.8344L37.9904 24.4884L38.7249 23.7826C38.7936 23.716 38.8745 23.6727 38.9599 23.6568L39.8314 23.4914C39.9108 23.5453 39.9837 23.6136 40.0477 23.6942C40.0712 23.7221 40.0933 23.752 40.1136 23.7837C40.1692 23.8679 40.2134 23.9632 40.2445 24.0658C40.2562 24.1009 40.2654 24.1373 40.2721 24.1746C40.2913 24.2765 40.2976 24.3817 40.2908 24.4861Z" fill="#C27AF9"/>
  <path d="M37.9904 24.4884L38.3919 24.0778L38.5932 23.8734C38.6595 23.8006 38.7311 23.7359 38.807 23.6802C38.8477 23.655 38.8908 23.6364 38.9352 23.625L39.0632 23.5975L39.3171 23.5439C39.4863 23.5071 39.6561 23.4755 39.8256 23.4416L39.8381 23.4391L39.8487 23.4462C39.9664 23.5263 40.0706 23.6348 40.1557 23.7657C40.198 23.8318 40.2339 23.904 40.2626 23.981C40.2769 24.0196 40.2889 24.0595 40.2985 24.1003C40.3103 24.1406 40.3191 24.1823 40.3248 24.2247C40.3368 24.3089 40.3404 24.3946 40.3356 24.4799C40.3283 24.564 40.3161 24.6473 40.2989 24.729C40.2613 24.889 40.2062 25.0416 40.1354 25.1821L40.1302 25.1927L40.1222 25.199L39.62 25.5966C39.5358 25.6634 39.4536 25.7275 39.3659 25.7928C39.2759 25.8555 39.178 25.8976 39.0766 25.9171C38.9768 25.9328 38.8758 25.9332 38.7758 25.9186L38.4807 25.8924L37.8907 25.8344L38.4823 25.8474L38.778 25.8567C38.8744 25.8669 38.9714 25.8626 39.067 25.8438C39.1605 25.8218 39.2503 25.779 39.3322 25.7174L39.5795 25.5147L40.0783 25.1102L40.0652 25.127C40.1307 24.9941 40.1813 24.8502 40.2154 24.6995C40.2491 24.5516 40.2571 24.3961 40.2389 24.2439C40.2342 24.2065 40.2267 24.1697 40.2165 24.1341C40.2083 24.0974 40.1979 24.0614 40.1854 24.0267C40.1601 23.9571 40.1283 23.8916 40.0907 23.8317C40.0141 23.7118 39.9202 23.6116 39.8141 23.5366L39.8372 23.5411C39.6673 23.5717 39.4977 23.6045 39.3274 23.6321L39.0722 23.6751C38.9891 23.6812 38.9072 23.7036 38.8295 23.7415C38.7556 23.7923 38.6855 23.8517 38.6201 23.9189L38.4106 24.1094L37.9904 24.4884Z" fill="#A65EDD"/>
  <path d="M40.1138 23.7837L39.285 24.1881C39.2798 24.1904 39.2744 24.1915 39.269 24.1915C39.2585 24.1916 39.2484 24.187 39.2403 24.1785C39.2322 24.17 39.2268 24.1582 39.2249 24.1451C39.223 24.132 39.2247 24.1185 39.2299 24.1069C39.235 24.0953 39.2432 24.0863 39.253 24.0816L40.0479 23.6942C40.0714 23.7221 40.0934 23.752 40.1138 23.7837ZM40.2723 24.1745L39.545 24.5292C39.5398 24.5314 39.5344 24.5325 39.5289 24.5326C39.5185 24.5326 39.5083 24.528 39.5002 24.5195C39.4922 24.5111 39.4867 24.4992 39.4848 24.4861C39.4829 24.473 39.4847 24.4595 39.4898 24.4479C39.4949 24.4363 39.5031 24.4274 39.5129 24.4227L40.2447 24.0658C40.2564 24.1009 40.2656 24.1373 40.2723 24.1745ZM40.291 24.4861C40.2883 24.5292 40.2833 24.572 40.2758 24.6141L39.6117 24.9382C39.6067 24.9413 39.6012 24.9429 39.5957 24.9427C39.5867 24.9425 39.578 24.9389 39.5706 24.9325C39.5631 24.926 39.5573 24.917 39.5539 24.9065C39.5517 24.8995 39.5507 24.892 39.5509 24.8845C39.551 24.877 39.5524 24.8697 39.5547 24.8628C39.5571 24.856 39.5606 24.8498 39.5649 24.8447C39.5691 24.8395 39.5742 24.8355 39.5797 24.8328L40.291 24.4861Z" fill="#A65EDD"/>
  <path d="M15.1423 23.0919C14.9066 22.8058 14.6578 22.5379 14.3971 22.2896C14.3352 22.2357 14.2744 22.1805 14.2146 22.1227C14.0573 21.9706 13.771 21.714 13.6571 21.7436C13.4963 21.7853 14.1486 22.5832 14.1486 22.5832L12.5951 22.1888C12.5572 22.1786 12.5182 22.1781 12.4802 22.1874C12.4153 22.2044 12.3533 22.2502 12.5289 22.3741C12.6688 22.4728 13.4391 22.8004 13.4391 22.8004L12.4234 22.6263C12.4234 22.6263 11.9591 22.6373 12.3322 22.8465C12.6445 22.9969 12.9686 23.1036 13.2989 23.1648L12.4529 23.1657C12.4529 23.1657 12.0263 23.1541 12.4389 23.3497C12.6849 23.4671 12.9461 23.5237 13.2087 23.5165C13.2087 23.5165 13.1419 23.6094 12.5562 23.5524C12.5562 23.5524 12.0336 23.5632 12.7559 23.7942C13.0332 23.8694 13.3066 23.9662 13.5746 24.084C13.7503 24.1641 13.9721 24.324 14.1587 24.3248L14.9127 24.3907L15.1423 23.0919Z" fill="#C27AF9"/>
  <path d="M14.0858 22.7164C14.056 22.7717 14.0363 22.8349 14.0283 22.9012C14.019 22.9674 14.0174 23.035 14.0236 23.1017C14.03 23.1681 14.0432 23.233 14.0629 23.295C14.0724 23.3259 14.0848 23.3552 14.0958 23.3849C14.1099 23.413 14.1232 23.4412 14.1391 23.4674C14.1139 23.3442 14.0942 23.2193 14.08 23.0933C14.0672 22.968 14.0691 22.8409 14.0858 22.7164ZM13.8783 22.7877C13.7923 22.8882 13.7145 22.993 13.6312 23.0897C13.5905 23.1392 13.5481 23.1858 13.504 23.2295C13.4597 23.2744 13.4112 23.312 13.3595 23.3415C13.419 23.3378 13.4769 23.3154 13.528 23.2761C13.5795 23.2395 13.6272 23.1947 13.6699 23.1427C13.7127 23.092 13.7518 23.0365 13.7866 22.9768C13.8224 22.9181 13.8531 22.8547 13.8783 22.7877Z" fill="#A65EDD"/>
  <path d="M45.9027 53.1988H21.4445C21.3216 53.1988 21.2219 53.3256 21.2219 53.482C21.2219 53.6384 21.3216 53.7653 21.4445 53.7653H45.9027C46.0256 53.7653 46.1252 53.6384 46.1252 53.482C46.1252 53.3256 46.0256 53.1988 45.9027 53.1988Z" fill="#01BAFE"/>
</svg>