<svg width="279" height="279" viewBox="0 0 279 279" fill="none" xmlns="http://www.w3.org/2000/svg">
<path d="M21.9739 132.553C33.2088 100.406 46.1513 63.3382 54.8959 60.884C63.6405 58.4299 84.0462 98.0504 86.379 101.561C92.2095 85.25 108.262 40.9381 122.683 38.0241C144.682 41.5219 165.672 107.002 165.672 107.002C165.672 107.002 183.51 57.9571 193.249 54.6969C209.4 60.7652 237.287 132.556 237.287 132.556H21.9739V132.553Z" fill="#F3E2F9"/>
<path d="M180.214 58.665C175.551 54.2526 169.891 53.0152 162.892 53.3433C161.745 53.3975 160.464 53.5887 159.803 54.3818C159.144 55.1749 159.857 56.6215 160.973 56.3994C153.068 52.6587 143.644 51.2534 134.695 52.4779C133.706 52.6122 132.629 52.8292 132.04 53.5112C131.448 54.1932 131.841 55.441 132.843 55.4513C125.491 52.4004 112.236 58.2904 113.564 58.7993L180.214 58.665Z" fill="#DCF2FF"/>
<path d="M56.5026 261.038C49.0703 246.897 35.3606 236.207 19.8347 232.443C30.819 244.007 42.9771 254.396 56.1125 263.443L56.5026 261.038Z" fill="#70369D"/>
<path d="M61.6823 265.685C43.8909 251.379 31.23 230.826 26.4534 208.501C40.4162 226.453 52.5533 245.753 62.6846 266.114L61.6823 265.685Z" fill="#D38FF3" fill-opacity="0.59"/>
<path d="M58.1971 267.321C54.7277 256.429 51.2428 245.453 49.9279 234.099C48.6129 222.745 49.5972 210.849 54.7096 200.627C62.1341 222.836 63.0667 247.173 57.3601 269.883L58.1971 267.321Z" fill="#70369D"/>
<path d="M58.9958 268.155C45.9758 249.367 40.5637 225.463 44.2165 202.9C55.8312 222.159 56.9188 245.747 57.6886 268.225L58.9958 268.155Z" fill="#B0E1FF"/>
<path d="M57.7946 260.183C54.6791 241.379 62.1578 221.175 76.7666 208.932C75.0719 229.038 68.0607 248.672 56.6321 265.298L57.7946 260.183Z" fill="#D38FF3" fill-opacity="0.59"/>
<path d="M257.055 253.887C251.891 244.724 242.661 237.953 232.371 235.776C239.824 243.174 248.026 249.778 256.846 255.479L257.055 253.887Z" fill="#1A87D8"/>
<path d="M260.552 256.845C248.566 247.775 239.837 234.492 236.261 219.891C245.798 231.435 254.159 243.903 261.219 257.109L260.552 256.845Z" fill="#70369D" fill-opacity="0.75"/>
<path d="M258.289 257.99C255.796 250.888 253.29 243.732 252.205 236.285C251.12 228.837 251.539 220.989 254.706 214.164C260.023 228.635 261.105 244.637 257.788 259.692L258.289 257.99Z" fill="#D0BFFF"/>
<path d="M258.831 258.522C249.901 246.409 245.876 230.779 247.844 215.858C255.86 228.31 257.031 243.812 257.971 258.592L258.831 258.522Z" fill="#B0E1FF"/>
<path d="M257.886 253.298C255.473 240.984 260.004 227.54 269.382 219.201C268.656 232.466 264.419 245.523 257.217 256.688L257.886 253.298Z" fill="#70369D" fill-opacity="0.26"/>
<path d="M256.102 269.92H37.5671C29.8584 269.92 26.9909 257.011 33.5939 251.96C57.1849 233.911 113.349 221.146 164.902 221.146C219.106 221.146 251.71 235.259 262.413 254.786C265.91 261.17 262.227 269.92 256.102 269.92Z" fill="#FCF0FF"/>
<path d="M199.443 244.551C199.443 244.551 196.767 242.154 193.92 242.438C191.073 242.722 189.185 246.236 189.753 248.512C190.322 250.787 193.783 251.666 198.036 252.521C202.288 253.376 208.361 253.944 207.602 251.382C207.361 250.568 207.279 249.64 207.281 248.754C207.284 246.69 205.68 244.983 203.621 244.841L199.443 244.551ZM228.304 244.551C228.304 244.551 225.628 242.154 222.781 242.438C219.934 242.722 218.046 246.236 218.614 248.512C219.183 250.787 222.644 251.666 226.897 252.521C231.149 253.376 237.222 253.944 236.463 251.382C236.222 250.568 236.14 249.64 236.142 248.754C236.145 246.69 234.541 244.983 232.482 244.841L228.304 244.551Z" fill="#0E538C"/>
<path d="M234.515 209.015C235.372 225.156 234.61 246.853 234.61 246.853H227.405C227.405 246.853 225.571 229.372 223.442 209.015C222.138 196.54 220.722 182.985 219.552 171.714C218.097 157.715 217.02 147.234 217 146.733C217 146.733 220.118 145.746 224.006 144.907C230.2 143.566 238.353 142.597 238.981 146.583C239.96 152.781 236.416 183.743 234.515 195.538C234.515 199.712 234.145 202.074 234.515 209.015Z" fill="#5C60D5"/>
<path d="M224.281 154.743C222.552 165.8 220.001 177.545 218.062 183.44C216.901 186.968 213.862 194.071 213.148 202.214C211.54 220.596 207.184 246.174 207.184 246.174C207.184 246.174 203.241 248.033 198 246.174C198.704 232.332 199.719 217.019 200.808 202.214C203.523 165.332 206.714 131.594 206.714 131.594C206.714 131.594 217.439 118.902 229 126.335C229.019 133.309 227.544 142.699 224.281 154.743Z" fill="#5C60D5"/>
<path d="M189.438 50.2665L196.098 44.5211C196.098 44.5211 205.119 42.7515 207.902 42.3279C206.636 44.268 198.966 46.797 199.219 46.797C201.748 46.7118 204.502 46.7118 204.98 47.1355C204.783 47.895 197.364 48.905 196.437 49.2435C195.509 49.7498 191.125 53.0565 191.125 53.0565L189.438 50.2665ZM211.913 62.4779C211.913 62.4779 214.187 61.9845 214.494 62.4779C214.802 62.9713 215.726 64.7486 213.203 66.8489C216.659 67.1718 221.668 65.8517 222.477 62.8344C223.285 59.817 221.898 56.5853 221.898 56.5853L218.354 54.5031L211.913 62.4779Z" fill="#FCD2B1"/>
<path d="M208.095 47.4842C206.545 46.8901 205.344 45.4511 205.049 43.8185C204.755 42.1832 205.388 40.4111 206.659 39.3441C207.733 38.4426 209.17 38.0628 210.573 38.0266C211.975 37.9905 213.365 38.2669 214.739 38.5433C217.754 39.1504 221.076 39.9512 222.802 42.4958C224.494 44.9913 224.065 48.3031 223.569 51.2766C223.208 53.4466 222.706 55.8491 220.911 57.1175C219.346 58.2231 217.15 58.1121 215.442 57.2389C213.735 56.3657 212.448 54.8493 211.384 53.2554C210.322 51.6615 209.433 49.9461 208.268 48.4271L208.095 47.4842Z" fill="#0B4870"/>
<path d="M218.887 54.5057C220.429 53.7333 221.692 51.2094 220.641 50.0185C219.589 48.8276 217.977 50.4396 217.835 51.0002C217.696 51.5607 218.887 54.5057 218.887 54.5057Z" fill="#FFE3CA"/>
<path d="M207.64 44.0562C206.762 47.0219 205.499 60.5301 210.332 62.837C215.22 62.124 218.24 58.28 219.118 53.4466C219.118 53.4466 219.392 39.9358 207.64 44.0562Z" fill="#FFE3CA"/>
<path d="M206.087 41.8913C207.64 44.0535 214.811 53.4595 221.9 51.6873C221.458 46.1951 217.606 36.9313 206.087 41.8913Z" fill="#0B4870"/>
<path d="M217.507 52.0464L219.119 49.0679L218.313 48.4866L216.729 51.5814L217.507 52.0464Z" fill="#FFBE55"/>
<path d="M210.025 68.9983C212.262 65.3532 219.966 61.8373 224.851 62.6846C229.738 63.5319 228.744 71.2354 228.744 71.2354L210.025 68.9983Z" fill="#CCE9FF"/>
<path d="M229.585 131H207.803C207.803 131 202.138 128.488 201.962 122.578C201.957 122.397 207.811 122.763 207.803 122.578C207.622 117.012 201.962 123.13 206.365 109.179C205.115 102.214 199.818 100.862 201.962 96.426C155.841 72.1133 190.492 50 190.492 50C190.492 50 193.842 52.5762 194.742 53.2018C179.273 73.1928 210.983 75.2713 210.983 75.2713C210.983 75.2713 219.426 76.5998 229.501 78.1839C239.575 79.7679 229.585 131 229.585 131Z" fill="#B29EE8"/>
<path d="M256 144.809C249.459 153.03 229.048 149.45 224.473 147.72C224.337 147.668 224.213 147.62 224.105 147.572C220.67 147.389 216.679 144.44 213.099 138.366C205.478 98.2944 213.884 74.4413 217.332 68.422C217.371 68.36 217.404 68.2979 217.44 68.2359C217.44 68.2359 221.902 60.8626 237.576 62.1512C253.252 63.4398 255.038 126.399 256 144.809Z" fill="#0E538C"/>
<path d="M209.852 100.518C209.852 100.518 209.761 107.666 209.673 110.745C209.307 110.861 208.072 108.446 206.827 105.759C206.821 105.62 206.816 105.478 206.808 105.335C206.625 101.06 205.992 97.7482 205.354 95.0434C206.845 97.0274 208.981 99.789 209.852 100.518ZM216.876 67.1486C216.876 67.1486 212.28 67.0918 209.214 68.944C211.071 69.8921 214.217 72.0776 214.217 72.0776C214.217 72.0776 216.659 67.4483 216.876 67.1486Z" fill="#FFBE55"/>
<path d="M238.615 61.8683C247.083 65.0974 251.591 74.8418 250.834 81.2769C250.077 87.7119 235.533 96.9034 224.011 79.9671C223.273 74.8108 222.203 66.6139 217.323 66.5441C218.997 60.5534 238.615 61.8683 238.615 61.8683Z" fill="#D0BFFF"/>
<path d="M235.87 115C232.676 116.131 229.794 125.93 231.515 136.192C232.782 141.075 233.321 143.042 237.532 144C238.573 136.49 237.814 117.292 235.87 115Z" fill="#968BA7"/>
<path d="M235 120.465C236.021 123.197 235.549 143.67 236.915 144C239.549 143.889 254.755 142.504 257 137.347C256.317 125.94 257.528 116.292 255.605 115.192C251.144 114.095 235.344 117.953 235 120.465Z" fill="#C3B6D7"/>
<path d="M236.116 104.354C242.097 102.832 254.535 102.726 255.416 103.364C256.297 104.002 258.059 118.632 245.765 114.93C233.474 111.228 232.151 105.674 236.116 104.354Z" fill="#D0BFFF"/>
<path d="M224.278 144C224.144 143.95 224.022 143.903 223.915 143.856C220.526 143.679 216.589 140.815 213.058 134.917C205.538 96.0067 213.832 72.8448 217.234 67C221.323 73.0121 229.579 99.4862 224.278 144Z" fill="#0B4870"/>
<path d="M221.936 110.201C221.936 110.201 222.266 129.48 221.429 130.993C216.124 131.078 212.145 130.321 212.145 130.321L210 127.718L210.303 115.071C210.303 115.071 219.232 108.814 221.936 110.201Z" fill="#C3B6D7"/>
<path d="M222.402 99.4971C222.402 99.4971 212.257 97.1954 211.391 97.5545C210.529 97.9136 207.323 104.728 212.112 106.909C216.899 109.086 222.402 99.4971 222.402 99.4971Z" fill="#C3B6D7"/>
<path d="M241.5 96C242.881 96 244 94.8807 244 93.5C244 92.1193 242.881 91 241.5 91C240.119 91 239 92.1193 239 93.5C239 94.8807 240.119 96 241.5 96Z" fill="#CCE9FF"/>
<path d="M250.916 117.526C252.021 117.526 252.916 116.631 252.916 115.527C252.916 114.422 252.021 113.527 250.916 113.527C249.812 113.527 248.917 114.422 248.917 115.527C248.917 116.631 249.812 117.526 250.916 117.526Z" fill="#CCE9FF"/>
<path d="M213.218 106.602C213.467 105.526 212.93 104.483 212.016 104.271C211.103 104.059 210.161 104.759 209.911 105.835C209.661 106.91 210.199 107.954 211.112 108.166C212.025 108.378 212.968 107.678 213.218 106.602Z" fill="#CCE9FF"/>
<path d="M43.2088 47.9725C50.5522 47.9725 56.5052 42.0195 56.5052 34.6761C56.5052 27.3327 50.5522 21.3797 43.2088 21.3797C35.8654 21.3797 29.9124 27.3327 29.9124 34.6761C29.9124 42.0195 35.8654 47.9725 43.2088 47.9725Z" fill="#FFBE55"/>
<path d="M31.6177 113.468L29.0317 133.793H34.201L31.6177 113.468Z" fill="#2A94F4"/>
<path d="M34.2007 121.236L32.6042 133.793H35.7973L34.2007 121.236Z" fill="#0E538C"/>
<path d="M188.855 115.976L186.271 136.302H191.438L188.855 115.976Z" fill="#2A94F4"/>
<path d="M153.173 111.435L151.881 121.598H154.465L153.173 111.435Z" fill="#0E538C"/>
<path d="M155 107.229L153.174 121.597H156.827L155 107.229Z" fill="#2A94F4"/>
<path d="M80.7446 89.621L78.7502 105.302H82.7389L80.7446 89.621Z" fill="#0E538C"/>
<path d="M82.7391 94.302L81.3337 105.356H84.1444L82.7391 94.302ZM184.026 94.302L182.621 105.356H185.432L184.026 94.302Z" fill="#2A94F4"/>
<path d="M185.881 90.7654L184.026 105.356H187.736L185.881 90.7654Z" fill="#0B4870"/>
<path d="M191.438 123.747L189.844 136.302H193.035L191.438 123.747Z" fill="#0E538C"/>
<path d="M111.763 31.248C108.335 28.0033 104.173 27.094 99.027 27.3343C98.1849 27.373 97.242 27.5151 96.7563 28.0963C96.2706 28.6776 96.795 29.7419 97.6165 29.5792C91.804 26.8305 84.873 25.7946 78.2932 26.6962C77.5673 26.7969 76.7742 26.9545 76.3402 27.4557C75.9062 27.9568 76.1955 28.8739 76.9318 28.8817C71.5249 26.6393 61.778 30.969 62.7545 31.3436L111.763 31.248Z" fill="#DCF2FF"/>
</svg>
