<svg width="260" height="195" viewBox="0 0 260 195" fill="none" xmlns="http://www.w3.org/2000/svg">
<path d="M240.295 116.103C188.042 161.558 225.621 196.846 101.228 187.59C42.9908 183.251 14.1471 138.986 7.46832 98.5402C-0.812677 48.396 30.8716 12.7987 118.098 12.7987C157.446 12.7987 192.946 0.926463 217.73 16.91C252.278 39.1985 266.003 93.7432 240.295 116.103Z" fill="url(#paint0_linear_87_3086)"/>
<path d="M83.002 23.3057H217.321V157.625H83.002V23.3057Z" fill="url(#paint1_radial_87_3086)"/>
<path d="M224.903 59.212C225.928 59.212 226.759 58.3811 226.759 57.3562C226.759 56.3313 225.928 55.5005 224.903 55.5005C223.878 55.5005 223.047 56.3313 223.047 57.3562C223.047 58.3811 223.878 59.212 224.903 59.212Z" fill="#C7B3FF"/>
<path d="M58.302 45.8544C59.3269 45.8544 60.1578 45.0235 60.1578 43.9986C60.1578 42.9737 59.3269 42.1429 58.302 42.1429C57.2771 42.1429 56.4463 42.9737 56.4463 43.9986C56.4463 45.0235 57.2771 45.8544 58.302 45.8544Z" fill="#C7B3FF"/>
<path d="M178.36 43.1924C184.704 49.5657 195.007 49.5917 201.38 43.2509C207.753 36.9102 207.779 26.6044 201.438 20.2312C195.098 13.8579 184.792 13.8319 178.419 20.1727C172.049 26.5134 172.023 36.8192 178.36 43.1924Z" fill="url(#paint2_linear_87_3086)"/>
<path d="M86.8725 29.5262C89.1269 29.5262 90.9545 27.6986 90.9545 25.4442C90.9545 23.1898 89.1269 21.3622 86.8725 21.3622C84.6181 21.3622 82.7905 23.1898 82.7905 25.4442C82.7905 27.6986 84.6181 29.5262 86.8725 29.5262Z" fill="url(#paint3_linear_87_3086)"/>
<path opacity="0.6" d="M21.3393 69.6575C23.0302 69.6575 24.4008 68.2868 24.4008 66.596C24.4008 64.9052 23.0302 63.5345 21.3393 63.5345C19.6485 63.5345 18.2778 64.9052 18.2778 66.596C18.2778 68.2868 19.6485 69.6575 21.3393 69.6575Z" fill="url(#paint4_linear_87_3086)"/>
<path d="M139.932 29.5264C140.957 29.5264 141.788 28.6956 141.788 27.6707C141.788 26.6458 140.957 25.8149 139.932 25.8149C138.907 25.8149 138.076 26.6458 138.076 27.6707C138.076 28.6956 138.907 29.5264 139.932 29.5264Z" fill="#3B12AE"/>
<path d="M112.476 26.634L112.866 27.427L113.74 27.5538L113.107 28.168L113.256 29.039L112.476 28.6295L111.696 29.039L111.842 28.168L111.212 27.5538L112.086 27.427L112.476 26.634Z" fill="white"/>
<path opacity="0.4" d="M33.5855 46.7869L33.9755 47.5799L34.8498 47.7067L34.216 48.3242L34.3655 49.1919L33.5855 48.7824L32.8023 49.1919L32.9518 48.3242L32.3213 47.7067L33.1955 47.5799L33.5855 46.7869Z" fill="white"/>
<path d="M19.669 94.1006L20.059 94.8936L20.9333 95.0203L20.3028 95.6378L20.449 96.5056L19.669 96.0961L18.889 96.5056L19.0385 95.6378L18.4048 95.0203L19.279 94.8936L19.669 94.1006ZM242.096 78.1041L242.486 78.8971L243.36 79.0238L242.73 79.6413L242.876 80.5091L242.096 80.0996L241.316 80.5091L241.465 79.6413L240.832 79.0238L241.706 78.8971L242.096 78.1041ZM229.837 35.7826L230.227 36.5756L231.101 36.7023L230.471 37.3198L230.62 38.1876L229.837 37.7781L229.057 38.1876L229.206 37.3198L228.573 36.7023L229.447 36.5756L229.837 35.7826Z" fill="white"/>
<path d="M101.543 119.265L206.739 66.3097L113.626 143.858" fill="url(#paint5_linear_87_3086)"/>
<path d="M158.695 97.6462L206.739 66.3097L148.798 95.5922L158.695 97.6462Z" fill="url(#paint6_linear_87_3086)"/>
<path d="M59.605 175.474C54.717 179.108 43.1502 182.439 43.1502 182.439C43.1502 182.439 44.0765 181.909 45.5975 181.159C47.1185 180.405 48.3795 178.812 48.3795 178.812C48.3795 178.812 45.2725 180.707 40.9532 182.166C36.6372 183.625 30.862 184.685 30.862 184.685C30.862 184.685 32.0352 184.116 34.0925 182.771C36.153 181.425 39.6922 179.082 39.6922 179.082C39.6922 179.082 30.8587 183.921 17.355 184.851C12.0705 185.215 3.42871 187.106 3.42871 187.106C3.42871 187.106 7.60496 183.505 9.59071 181.428C12.7465 178.133 16.4157 172.832 19.292 169.485C23.5755 164.499 32.37 155.731 32.37 155.731L30.602 156.524C28.834 157.317 26.6955 158.168 26.6955 158.168C26.6955 158.168 35.5387 149.738 42.12 147.196C49.5365 144.333 59.4327 145.639 59.4327 145.639C59.4327 145.639 60.3037 149.871 63.5407 155.35C66.8882 161.012 69.641 163.319 69.641 163.319C69.641 163.319 67.093 169.91 59.605 175.474Z" fill="url(#paint7_linear_87_3086)"/>
<path d="M60.7844 170.58C57.1119 173.31 48.4181 175.815 48.4181 175.815C48.4181 175.815 49.1136 175.419 50.2576 174.853C51.4016 174.288 52.3474 173.089 52.3474 173.089C52.3474 173.089 50.0106 174.512 46.7671 175.607C43.5236 176.703 39.1849 177.502 39.1849 177.502C39.1849 177.502 40.0656 177.073 41.6126 176.062C43.1596 175.052 45.8214 173.29 45.8214 173.29C45.8214 173.29 39.1816 176.927 29.0319 177.626C25.0604 177.899 18.5669 179.319 18.5669 179.319C18.5669 179.319 21.7064 176.612 23.1981 175.052C25.5706 172.575 28.3266 168.594 30.4911 166.075C33.7119 162.328 40.3191 155.74 40.3191 155.74L38.9899 156.335C37.6606 156.93 36.0519 157.57 36.0519 157.57C36.0519 157.57 42.6981 151.236 47.6446 149.325C53.2184 147.173 60.6576 148.155 60.6576 148.155C60.6576 148.155 61.3109 151.336 63.7451 155.451C66.2606 159.708 68.3309 161.437 68.3309 161.437C68.3309 161.437 66.4101 166.397 60.7844 170.58Z" fill="url(#paint8_linear_87_3086)"/>
<path d="M66.3488 136.11C66.9078 135.268 82.5013 118.557 101.455 108.752C120.409 98.9463 128.999 98.1078 128.999 98.1078C128.999 98.1078 133.76 101.468 138.522 110.247C143.283 119.025 144.684 122.571 144.31 123.692C143.936 124.813 125.45 144.794 105.186 153.104C84.9258 161.415 82.5923 161.883 82.5923 161.883C82.5923 161.883 80.0703 161.603 77.1778 157.216C74.2853 152.828 67.5611 141.902 66.8136 139.474C66.0661 137.046 66.3488 136.11 66.3488 136.11Z" fill="url(#paint9_linear_87_3086)"/>
<path d="M159.624 97.0808C158.502 95.4948 157.011 95.212 147.953 95.3063C138.895 95.4005 129.467 98.3873 129.467 98.3873L129.574 98.5628C130.978 99.736 134.748 103.288 138.525 110.247C142.109 116.854 143.786 120.497 144.241 122.372L144.596 122.944L146.182 121.449C147.768 119.954 154.303 110.338 156.731 105.856C159.159 101.377 160.745 98.6668 159.624 97.0808Z" fill="url(#paint10_linear_87_3086)"/>
<path d="M83.3433 161.6L72.979 183.45C72.979 183.45 83.1548 179.247 95.014 171.405C106.873 163.563 107.806 162.347 107.806 162.347L110.981 150.397C110.978 150.397 91.933 159.172 83.3433 161.6Z" fill="url(#paint11_linear_87_3086)"/>
<path d="M89.5961 116.035L78.6729 113.796C78.6729 113.796 69.0561 117.81 61.0253 123.039C52.9946 128.268 45.1523 134.151 45.1523 134.151L67.0931 135.272C67.0963 135.269 82.5956 119.396 89.5961 116.035Z" fill="url(#paint12_linear_87_3086)"/>
<path d="M77.1775 157.212C74.2817 152.825 67.5607 141.898 66.8132 139.47C66.6085 138.811 66.485 138.265 66.407 137.813L60.7455 141.989C60.7455 141.989 60.3717 146.097 65.4125 153.754C70.4532 161.411 73.0695 164.024 74.2817 163.93C75.494 163.836 80.7232 161.128 80.7232 161.128L80.616 160.953C79.6702 160.293 78.4612 159.156 77.1775 157.212Z" fill="url(#paint13_linear_87_3086)"/>
<path d="M61.1197 144.421L59.4394 145.633C59.4394 145.633 59.2542 148.246 63.0794 154.596C66.9079 160.947 69.2414 163.28 70.2684 163.375C71.2954 163.469 72.0429 162.533 72.0429 162.533C72.0429 162.533 63.0794 152.542 61.1197 144.421Z" fill="url(#paint14_linear_87_3086)"/>
<path d="M96.4148 130.601L88.0103 133.497C88.0103 133.497 74.981 140.725 70.7365 143.302C65.413 146.533 49.8228 156.842 49.8228 156.842L50.476 158.243L89.1315 135.181L97.627 131.911L96.4148 130.601Z" fill="url(#paint15_linear_87_3086)"/>
<path d="M50.4761 158.239L71.7636 148.434C71.7636 148.434 79.9406 143.76 82.5958 142.083C86.4341 139.662 97.6271 131.908 97.6271 131.908L88.7578 135.268L50.4761 158.239Z" fill="url(#paint16_linear_87_3086)"/>
<path d="M134.696 51.5156L136.75 50.6739C136.75 50.6739 137.267 50.9111 137.777 52.0746C138.431 53.5696 138.525 54.5966 138.525 54.5966L136.471 55.7179C136.468 55.7179 135.441 52.9164 134.696 51.5156Z" fill="black"/>
<path d="M115.833 70.0051L136.841 57.3074C136.841 57.3074 137.091 55.3151 136.344 53.5731C135.596 51.8311 134.725 51.3306 134.725 51.3306L107.711 63.5636" fill="url(#paint17_linear_87_3086)"/>
<path d="M106.34 63.4988C106.34 63.4988 102.294 67.948 101.361 72.8035C100.428 77.659 100.519 85.7808 100.24 88.4913C99.9604 91.1985 98.5597 96.2425 97.7179 98.576C96.8762 100.91 96.5967 104.179 96.5967 104.179C96.5967 104.179 102.479 104.832 109.015 104.085C115.551 103.337 117.884 102.499 117.884 102.499C117.884 102.499 117.51 94.8418 116.825 92.3523C116.139 89.8628 115.954 88.9918 115.954 88.9918C115.954 88.9918 116.204 88.059 116.825 86.3788C117.449 84.6985 120.559 78.7218 120.062 76.4208C119.564 74.1165 118.32 70.756 117.26 69.6348C116.201 68.5135 115.765 68.3283 115.765 68.3283C115.765 68.3283 113.337 64.841 111.657 63.2225C109.977 61.604 107.923 61.7893 107.923 61.7893L106.34 63.4988Z" fill="url(#paint18_linear_87_3086)"/>
<path opacity="0.5" d="M107.9 78.3511C107.9 78.3511 108.989 81.5264 110.796 83.6421C112.6 85.7579 116.305 87.9386 116.305 87.9386L116.831 86.3786L108.151 78.3544" fill="url(#paint19_linear_87_3086)"/>
<path d="M114.897 67.1095C114.039 65.946 112.707 64.2235 111.664 63.2192C109.983 61.6007 107.929 61.786 107.929 61.786L106.363 63.476C107.487 64.165 110.263 64.6752 112.037 65.7087C113.116 66.336 114.101 66.791 114.897 67.1095Z" fill="url(#paint20_linear_87_3086)"/>
<path d="M107.432 91.6046C107.432 91.6046 109.424 91.5428 112.287 90.8571C115.151 90.1713 115.648 89.7358 115.648 89.7358L115.024 92.2871C115.024 92.2871 113.591 93.2816 111.537 93.4701C109.483 93.6553 107.24 93.7203 107.24 93.7203L107.432 91.6046Z" fill="url(#paint21_linear_87_3086)"/>
<path d="M98.4688 104.302C98.4688 104.302 99.0278 107.289 100.958 108.41C102.889 109.531 104.754 110.402 104.754 110.402L113.594 117.127L99.59 122.791C99.59 122.791 101.394 127.023 102.889 129.142C104.384 131.258 105.44 132.255 105.44 132.067C105.44 131.878 114.28 127.77 119.009 125.967C123.741 124.163 126.104 123.103 126.978 121.3C127.849 119.496 125.983 117.442 125.109 115.823C124.238 114.205 118.323 105.865 117.267 104.682C116.211 103.499 115.336 103.126 115.336 103.126C115.336 103.126 105.625 104.988 98.4688 104.302Z" fill="black"/>
<path d="M99.5866 122.788L95.7906 122.726L91.3706 124.719L93.2394 129.077L94.1104 128.518C94.1104 128.518 94.5458 132.688 95.7906 135.489C97.0353 138.291 99.7751 140.657 100.396 140.595C101.02 140.533 101.517 139.535 101.517 139.535C101.517 139.535 99.3396 135.863 99.7751 133.809C100.211 131.755 101.143 128.456 101.143 128.456L101.829 127.709C101.829 127.705 99.7134 123.848 99.5866 122.788Z" fill="url(#paint22_linear_87_3086)"/>
<path d="M99.5862 122.788L96.7197 122.743C96.8627 123.448 97.1227 124.54 97.4087 124.907C97.7987 125.411 100.093 126.214 101.279 128.307L101.829 127.709C101.829 127.706 99.713 123.848 99.5862 122.788Z" fill="white"/>
<path d="M100.396 140.592C100.565 140.576 100.724 140.488 100.867 140.374C99.6743 139.591 98.4199 138.128 97.2206 136.546C95.4786 134.241 95.3519 129.513 95.1049 128.515C94.8969 127.686 93.6131 124.833 93.1874 123.897L91.3706 124.716L93.2394 129.074L94.1104 128.515C94.1104 128.515 94.5458 132.685 95.7906 135.486C97.0353 138.288 99.7751 140.654 100.396 140.592ZM110.559 61.9744C110.559 61.9744 110.373 60.3884 110.279 59.7319C110.185 59.0786 110.559 55.7181 112.379 54.3629C114.199 53.0076 117.374 52.8679 119.288 53.8039C121.202 54.7366 122.928 55.8124 123.302 56.4656C123.676 57.1189 123.861 58.3344 123.721 58.7081C123.581 59.0819 123.347 59.0819 123.347 59.0819L121.388 57.4471C121.388 57.4471 119.941 58.9421 119.893 59.3159C119.847 59.6896 119.379 61.7891 119.379 61.7891C119.379 61.7891 118.492 61.7436 118.492 61.6039C118.492 61.4641 117.605 58.9909 116.951 59.0819C116.298 59.1761 115.427 58.9876 115.037 60.4826C114.927 60.9116 114.709 61.9776 114.709 61.9776L111.813 63.1444L110.559 61.9744Z" fill="black"/>
<path d="M121.391 57.4473C121.391 57.4473 119.945 58.9423 119.896 59.316C119.85 59.6898 119.382 61.7893 119.382 61.7893C119.382 61.7893 118.495 61.7438 118.495 61.604C118.495 61.4643 117.608 58.991 116.955 59.082C116.301 59.1763 115.43 58.9878 115.04 60.4828C114.93 60.9118 114.712 61.9778 114.712 61.9778L111.816 63.1445L115.645 68.2958L116.392 67.9838C116.392 67.9838 119.441 69.0108 119.724 68.9783C120.003 68.9458 120.315 67.6393 120.315 67.5158C120.315 67.3923 120.845 67.2655 121.063 67.2038C121.28 67.142 121.001 66.674 121.001 66.674L121.531 66.5798L121.716 65.4585C121.716 65.4585 122.119 65.6438 122.246 65.6438C122.369 65.6438 122.87 65.426 122.87 65.426L122.372 61.877L122.931 61.3473L123.149 58.9813L123.094 58.8578L121.391 57.4473Z" fill="url(#paint23_linear_87_3086)"/>
<path d="M107.929 78.0326C107.929 78.0326 108.739 81.0193 116.022 85.9366C123.305 90.8538 128.161 93.7788 129.841 94.7148C131.521 95.6476 134.072 97.9518 134.072 97.9518C134.072 97.9518 135.506 96.3333 136.312 94.8383C137.121 93.3433 137.306 92.5958 137.306 92.5958C137.306 92.5958 128.343 86.4338 125.665 84.3181C122.987 82.2023 119.379 77.9058 119.005 77.0348C118.632 76.1638 118.57 70.3756 115.892 68.8806C113.214 67.3856 110.227 68.8806 108.921 72.0558C107.614 75.2311 107.929 78.0326 107.929 78.0326Z" fill="url(#paint24_linear_87_3086)"/>
<path d="M134.927 96.756L137.17 97.6888C137.17 97.6888 138.057 96.8958 138.525 95.5406C138.993 94.1853 139.178 93.5808 139.178 93.5808L137.309 92.5993C137.309 92.5993 135.769 96.054 134.927 96.756Z" fill="black"/>
<path d="M139.178 93.9541C139.178 93.9541 142.353 93.5804 143.146 93.5804C143.939 93.5804 145.48 94.0484 146.835 94.6529C148.19 95.2574 149.217 96.1934 149.217 96.4274C149.217 96.6614 148.983 97.0351 148.236 96.8954C147.488 96.7556 144.453 96.1024 143.939 96.1479C143.426 96.1934 140.952 97.5031 140.156 97.5031C139.36 97.5031 137.914 96.9441 137.914 96.9441C137.914 96.9441 139.178 94.6529 139.178 93.9541Z" fill="url(#paint25_linear_87_3086)"/>
<path d="M136.75 50.6771C136.75 50.6771 138.245 49.9621 139.055 49.5266C139.864 49.0911 141.668 48.1584 143.039 47.5961C144.407 47.0371 146.214 46.0394 146.4 46.5366C146.585 47.0339 142.851 49.2146 142.851 49.2146C142.851 49.2146 144.095 50.7096 144.095 50.9566C144.095 51.2069 142.789 53.3844 142.789 53.3844C142.789 53.3844 141.765 53.7549 141.421 53.6964C141.076 53.6379 140.238 52.9489 140.238 52.9489L138.369 53.5079C138.369 53.5079 137.371 51.2036 136.75 50.6771Z" fill="url(#paint26_linear_87_3086)"/>
<path d="M76.2646 40.4367C76.62 40.4367 76.9081 40.1486 76.9081 39.7932C76.9081 39.4378 76.62 39.1497 76.2646 39.1497C75.9092 39.1497 75.6211 39.4378 75.6211 39.7932C75.6211 40.1486 75.9092 40.4367 76.2646 40.4367Z" fill="white"/>
<path d="M99.6158 59.0915C99.6158 59.267 99.4728 59.41 99.2973 59.41C99.1218 59.41 98.9788 59.267 98.9788 59.0915C98.9788 58.916 99.1218 58.773 99.2973 58.773C99.4728 58.773 99.6158 58.916 99.6158 59.0915ZM61.7956 64.5255C61.7978 64.6408 61.7771 64.7555 61.7345 64.8627C61.6919 64.9699 61.6284 65.0676 61.5476 65.15C61.4668 65.2323 61.3705 65.2978 61.2641 65.3425C61.1577 65.3872 61.0435 65.4102 60.9282 65.4102C60.8128 65.4102 60.6986 65.3872 60.5922 65.3426C60.4858 65.298 60.3894 65.2325 60.3086 65.1502C60.2278 65.0678 60.1642 64.9702 60.1216 64.863C60.079 64.7558 60.0582 64.6412 60.0604 64.5258C60.0648 64.2986 60.1581 64.0822 60.3203 63.9231C60.4825 63.7639 60.7006 63.6747 60.9278 63.6747C61.1551 63.6747 61.3733 63.7638 61.5355 63.9228C61.6978 64.0819 61.7911 64.2983 61.7956 64.5255ZM38.4573 60.4857C38.4573 60.6629 38.387 60.8328 38.2617 60.958C38.1365 61.0833 37.9666 61.1536 37.7895 61.1536C37.6123 61.1536 37.4424 61.0833 37.3172 60.958C37.1919 60.8328 37.1216 60.6629 37.1216 60.4857C37.1216 60.1152 37.4206 59.8162 37.7911 59.8162C38.1583 59.8195 38.4573 60.1185 38.4573 60.4857ZM96.7981 41.496C96.7981 41.8307 96.5251 42.1037 96.1903 42.1037C95.8556 42.1037 95.5826 41.8307 95.5826 41.496C95.5826 41.1612 95.8556 40.8882 96.1903 40.8882C96.5283 40.8882 96.7981 41.1612 96.7981 41.496Z" fill="white"/>
<path d="M212.544 35.607C212.984 35.607 213.34 35.2505 213.34 34.8108C213.34 34.371 212.984 34.0145 212.544 34.0145C212.104 34.0145 211.748 34.371 211.748 34.8108C211.748 35.2505 212.104 35.607 212.544 35.607Z" fill="white"/>
<path d="M241.469 58.718C241.469 58.9358 241.293 59.1113 241.075 59.1113C240.858 59.1113 240.682 58.9358 240.682 58.718C240.682 58.5003 240.858 58.3248 241.075 58.3248C241.293 58.3248 241.469 58.5003 241.469 58.718ZM194.617 65.4488C194.617 66.0435 194.136 66.5245 193.541 66.5245C192.946 66.5245 192.465 66.0435 192.465 65.4488C192.465 64.854 192.946 64.373 193.541 64.373C194.136 64.373 194.617 64.854 194.617 65.4488ZM165.708 60.4438C165.708 60.902 165.337 61.2725 164.879 61.2725C164.421 61.2725 164.05 60.902 164.05 60.4438C164.05 59.9855 164.421 59.615 164.879 59.615C165.099 59.6159 165.309 59.7035 165.464 59.8587C165.619 60.0139 165.707 60.2242 165.708 60.4438ZM237.981 36.9203C237.981 37.3363 237.643 37.6743 237.227 37.6743C236.811 37.6743 236.473 37.3363 236.473 36.9203C236.473 36.5043 236.811 36.1663 237.227 36.1663C237.643 36.1663 237.981 36.5043 237.981 36.9203Z" fill="white"/>
<path d="M177.752 131.401C178.192 131.401 178.549 131.044 178.549 130.604C178.549 130.165 178.192 129.808 177.752 129.808C177.313 129.808 176.956 130.165 176.956 130.604C176.956 131.044 177.313 131.401 177.752 131.401Z" fill="white"/>
<path d="M206.68 154.512C206.68 154.729 206.505 154.905 206.287 154.905C206.069 154.905 205.894 154.729 205.894 154.512C205.894 154.294 206.069 154.118 206.287 154.118C206.505 154.115 206.68 154.294 206.68 154.512ZM159.828 161.242C159.828 161.837 159.347 162.318 158.753 162.318C158.158 162.318 157.677 161.837 157.677 161.242C157.677 160.648 158.158 160.167 158.753 160.167C159.347 160.167 159.828 160.648 159.828 161.242ZM130.92 156.237C130.92 156.696 130.549 157.066 130.091 157.066C129.633 157.066 129.262 156.696 129.262 156.237C129.262 155.779 129.633 155.409 130.091 155.409C130.549 155.409 130.92 155.779 130.92 156.237ZM203.193 132.714C203.193 133.13 202.855 133.468 202.439 133.468C202.023 133.468 201.685 133.13 201.685 132.714C201.685 132.298 202.023 131.96 202.439 131.96C202.855 131.96 203.193 132.298 203.193 132.714Z" fill="white"/>
<path d="M145.252 167.902C145.491 167.902 145.684 167.708 145.684 167.47C145.684 167.231 145.491 167.037 145.252 167.037C145.013 167.037 144.82 167.231 144.82 167.47C144.82 167.708 145.013 167.902 145.252 167.902Z" fill="white"/>
<path d="M160.979 180.469C160.979 180.526 160.956 180.581 160.916 180.621C160.876 180.661 160.821 180.684 160.764 180.684C160.708 180.684 160.653 180.661 160.613 180.621C160.573 180.581 160.55 180.526 160.55 180.469C160.55 180.349 160.644 180.255 160.764 180.255C160.885 180.255 160.979 180.349 160.979 180.469ZM135.505 184.129C135.505 184.284 135.444 184.433 135.334 184.542C135.224 184.652 135.076 184.714 134.92 184.714C134.765 184.714 134.616 184.652 134.507 184.542C134.397 184.433 134.335 184.284 134.335 184.129C134.335 183.804 134.599 183.544 134.92 183.544C135.242 183.544 135.505 183.804 135.505 184.129ZM119.785 181.405C119.785 181.652 119.584 181.854 119.337 181.854C119.09 181.854 118.888 181.652 118.888 181.405C118.888 181.158 119.09 180.957 119.337 180.957C119.584 180.957 119.785 181.158 119.785 181.405ZM159.084 168.616C159.084 168.844 158.902 169.026 158.675 169.026C158.447 169.026 158.265 168.844 158.265 168.616C158.265 168.389 158.447 168.207 158.675 168.207C158.899 168.207 159.084 168.389 159.084 168.616Z" fill="white"/>
<path d="M53.0822 96.7753C53.3209 96.7753 53.5144 96.5818 53.5144 96.3431C53.5144 96.1044 53.3209 95.9108 53.0822 95.9108C52.8434 95.9108 52.6499 96.1044 52.6499 96.3431C52.6499 96.5818 52.8434 96.7753 53.0822 96.7753Z" fill="white"/>
<path d="M68.8124 109.343C68.8136 109.372 68.8089 109.401 68.7986 109.428C68.7884 109.455 68.7728 109.479 68.7528 109.5C68.7328 109.521 68.7088 109.538 68.6823 109.549C68.6557 109.56 68.6271 109.566 68.5983 109.566C68.5694 109.566 68.5408 109.56 68.5142 109.549C68.4877 109.538 68.4636 109.521 68.4436 109.501C68.4236 109.48 68.408 109.455 68.3977 109.428C68.3874 109.401 68.3826 109.372 68.3838 109.344C68.3859 109.288 68.4094 109.236 68.4493 109.197C68.4892 109.159 68.5425 109.137 68.5979 109.137C68.6534 109.137 68.7067 109.159 68.7467 109.197C68.7867 109.235 68.8102 109.288 68.8124 109.343ZM43.3357 113.003C43.3357 113.158 43.274 113.307 43.1643 113.416C43.0546 113.526 42.9058 113.588 42.7507 113.588C42.5955 113.588 42.4467 113.526 42.337 113.416C42.2273 113.307 42.1657 113.158 42.1657 113.003C42.1657 112.848 42.2273 112.699 42.337 112.589C42.4467 112.479 42.5955 112.418 42.7507 112.418C42.9058 112.418 43.0546 112.479 43.1643 112.589C43.274 112.699 43.3357 112.848 43.3357 113.003ZM27.6187 110.282C27.6187 110.529 27.4172 110.731 27.1702 110.731C26.9232 110.731 26.7217 110.529 26.7217 110.282C26.7217 110.035 26.9232 109.834 27.1702 109.834C27.4172 109.834 27.6187 110.032 27.6187 110.282ZM66.9144 97.4904C66.9144 97.7179 66.7324 97.8999 66.5049 97.8999C66.2774 97.8999 66.0954 97.7179 66.0954 97.4904C66.0954 97.2629 66.2774 97.0809 66.5049 97.0809C66.7324 97.0809 66.9144 97.2662 66.9144 97.4904Z" fill="white"/>
<path d="M216.73 86.8403C216.968 86.8403 217.162 86.6468 217.162 86.4081C217.162 86.1694 216.968 85.9758 216.73 85.9758C216.491 85.9758 216.297 86.1694 216.297 86.4081C216.297 86.6468 216.491 86.8403 216.73 86.8403Z" fill="white"/>
<path d="M232.459 99.4078C232.459 99.5248 232.365 99.6223 232.245 99.6223C232.125 99.6223 232.03 99.528 232.03 99.4078C232.03 99.2908 232.125 99.1933 232.245 99.1933C232.365 99.1933 232.459 99.2875 232.459 99.4078ZM206.983 103.067C206.983 103.222 206.921 103.371 206.811 103.481C206.702 103.591 206.553 103.652 206.398 103.652C206.243 103.652 206.094 103.591 205.984 103.481C205.874 103.371 205.813 103.222 205.813 103.067C205.813 102.912 205.874 102.763 205.984 102.654C206.094 102.544 206.243 102.482 206.398 102.482C206.553 102.482 206.702 102.544 206.811 102.654C206.921 102.763 206.983 102.912 206.983 103.067ZM191.266 100.347C191.266 100.594 191.064 100.796 190.817 100.796C190.57 100.796 190.369 100.594 190.369 100.347C190.369 100.1 190.57 99.8985 190.817 99.8985C191.064 99.8953 191.266 100.097 191.266 100.347ZM230.561 87.555C230.561 87.7825 230.379 87.9645 230.152 87.9645C229.924 87.9645 229.742 87.7825 229.742 87.555C229.742 87.3275 229.924 87.1455 230.152 87.1455C230.379 87.1455 230.561 87.3308 230.561 87.555Z" fill="white"/>
<path d="M169.371 58.1783C169.609 58.1783 169.803 57.9848 169.803 57.746C169.803 57.5073 169.609 57.3138 169.371 57.3138C169.132 57.3138 168.938 57.5073 168.938 57.746C168.938 57.9848 169.132 58.1783 169.371 58.1783Z" fill="white"/>
<path d="M185.101 70.7461C185.101 70.8631 185.006 70.9606 184.886 70.9606C184.766 70.9606 184.672 70.8664 184.672 70.7461C184.672 70.6291 184.766 70.5316 184.886 70.5316C185.006 70.5316 185.101 70.6259 185.101 70.7461ZM159.624 74.4056C159.624 74.5608 159.562 74.7096 159.452 74.8193C159.343 74.929 159.194 74.9906 159.039 74.9906C158.884 74.9906 158.735 74.929 158.625 74.8193C158.515 74.7096 158.454 74.5608 158.454 74.4056C158.454 74.2505 158.515 74.1017 158.625 73.992C158.735 73.8823 158.884 73.8206 159.039 73.8206C159.194 73.8206 159.343 73.8823 159.452 73.992C159.562 74.1017 159.624 74.2505 159.624 74.4056ZM143.907 71.6854C143.907 71.9324 143.705 72.1339 143.458 72.1339C143.211 72.1339 143.01 71.9324 143.01 71.6854C143.01 71.4384 143.211 71.2369 143.458 71.2369C143.705 71.2336 143.907 71.4351 143.907 71.6854ZM183.203 58.8934C183.203 59.1209 183.021 59.3029 182.793 59.3029C182.566 59.3029 182.384 59.1209 182.384 58.8934C182.384 58.6659 182.566 58.4839 182.793 58.4839C183.021 58.4839 183.203 58.6659 183.203 58.8934Z" fill="white"/>
<path opacity="0.6" d="M208.598 24.3295C209.843 24.3295 211.006 24.6707 212.004 25.2655C212.241 21.7945 215.131 19.0547 218.66 19.0547C219.521 19.0547 220.344 19.2205 221.098 19.5162C222.06 16.2987 225.04 13.9522 228.569 13.9522C232.879 13.9522 236.369 17.446 236.369 21.7522C236.369 21.8627 236.366 21.9732 236.36 22.0805H236.369C240.676 22.0805 244.169 25.5742 244.169 29.8805C244.169 34.19 240.676 37.6805 236.369 37.6805C236.1 37.6805 235.833 37.6675 235.573 37.6415H209.323C209.082 37.6675 208.842 37.6805 208.595 37.6805C204.909 37.6805 201.919 34.6905 201.919 31.005C201.923 27.3195 204.913 24.3295 208.598 24.3295Z" fill="url(#paint27_linear_87_3086)"/>
<path opacity="0.3" d="M175.412 33.1663C174.701 33.1663 174.031 33.3613 173.462 33.7026C173.326 31.7136 171.672 30.1438 169.65 30.1438C169.215 30.1438 168.795 30.2218 168.405 30.3583C167.843 28.5383 166.143 27.2123 164.138 27.2123C163.989 27.2123 163.839 27.2221 163.693 27.2351C161.818 27.3521 160.258 28.6228 159.715 30.3486C159.322 30.2121 158.902 30.1341 158.464 30.1341C156.442 30.1341 154.788 31.7038 154.651 33.6928C154.062 33.3408 153.388 33.1555 152.701 33.1566C150.589 33.1566 148.879 34.8693 148.879 36.9786C148.879 39.0911 150.592 40.8006 152.701 40.8006C152.841 40.8006 152.981 40.7908 153.117 40.7778H158.987C159.159 40.7973 159.331 40.8103 159.51 40.8103C159.663 40.8103 159.816 40.8038 159.965 40.7876H168.347C168.431 40.7908 168.516 40.8006 168.604 40.8006C168.691 40.8006 168.776 40.7908 168.86 40.7876H174.996C175.133 40.8038 175.273 40.8103 175.412 40.8103C177.525 40.8103 179.234 39.0976 179.234 36.9883C179.234 34.8791 177.522 33.1663 175.412 33.1663Z" fill="url(#paint28_linear_87_3086)"/>
<defs>
<linearGradient id="paint0_linear_87_3086" x1="75.6757" y1="10.1048" x2="189.048" y2="172.77" gradientUnits="userSpaceOnUse">
<stop stop-color="#2C0036"/>
<stop offset="0.594" stop-color="#70008B"/>
<stop offset="1" stop-color="#9624B1"/>
</linearGradient>
<radialGradient id="paint1_radial_87_3086" cx="0" cy="0" r="1" gradientUnits="userSpaceOnUse" gradientTransform="translate(150.164 90.467) scale(67.1599 67.16)">
<stop stop-color="#603EBF"/>
<stop offset="1" stop-color="#603EBF" stop-opacity="0"/>
</radialGradient>
<linearGradient id="paint2_linear_87_3086" x1="192.973" y1="16.4439" x2="186.554" y2="48.362" gradientUnits="userSpaceOnUse">
<stop stop-color="#9E88DA"/>
<stop offset="0.008" stop-color="#9E89D9"/>
<stop offset="0.478" stop-color="#C3BBD9"/>
<stop offset="0.822" stop-color="#F0A7A7"/>
<stop offset="1" stop-color="#FFA0A0"/>
</linearGradient>
<linearGradient id="paint3_linear_87_3086" x1="82.7922" y1="25.4448" x2="90.9552" y2="25.4448" gradientUnits="userSpaceOnUse">
<stop stop-color="#D833FF"/>
<stop offset="0.159" stop-color="#D937FF"/>
<stop offset="0.353" stop-color="#DB43FF"/>
<stop offset="0.568" stop-color="#DC49FF"/>
<stop offset="0.794" stop-color="#6026FF"/>
<stop offset="1" stop-color="#4400FF"/>
</linearGradient>
<linearGradient id="paint4_linear_87_3086" x1="18.2775" y1="66.5947" x2="24.3999" y2="66.5947" gradientUnits="userSpaceOnUse">
<stop stop-color="#D833FF"/>
<stop offset="0.159" stop-color="#D937FF"/>
<stop offset="0.353" stop-color="#DB43FF"/>
<stop offset="0.568" stop-color="#DC49FF"/>
<stop offset="0.794" stop-color="#6026FF"/>
<stop offset="1" stop-color="#4400FF"/>
</linearGradient>
<linearGradient id="paint5_linear_87_3086" x1="223.866" y1="61.265" x2="100.606" y2="135.782" gradientUnits="userSpaceOnUse">
<stop stop-color="#591DFF"/>
<stop offset="0.136" stop-color="#571CFB"/>
<stop offset="0.274" stop-color="#531BEF"/>
<stop offset="0.414" stop-color="#4C18DA"/>
<stop offset="0.555" stop-color="#4114BD"/>
<stop offset="0.696" stop-color="#330F98"/>
<stop offset="0.839" stop-color="#58086B"/>
<stop offset="0.979" stop-color="#2D0137"/>
<stop offset="1" stop-color="#25002E"/>
</linearGradient>
<linearGradient id="paint6_linear_87_3086" x1="210.843" y1="62.1799" x2="140.249" y2="104.761" gradientUnits="userSpaceOnUse">
<stop stop-color="#591DFF"/>
<stop offset="0.136" stop-color="#571CFB"/>
<stop offset="0.274" stop-color="#531BEF"/>
<stop offset="0.414" stop-color="#4C18DA"/>
<stop offset="0.555" stop-color="#4114BD"/>
<stop offset="0.696" stop-color="#330F98"/>
<stop offset="0.839" stop-color="#58086B"/>
<stop offset="0.979" stop-color="#2D0137"/>
<stop offset="1" stop-color="#25002E"/>
</linearGradient>
<linearGradient id="paint7_linear_87_3086" x1="3.43391" y1="166.218" x2="69.6458" y2="166.218" gradientUnits="userSpaceOnUse">
<stop stop-color="#9E88DA"/>
<stop offset="0.042" stop-color="#A18ED4"/>
<stop offset="0.496" stop-color="#E599F7"/>
<stop offset="0.828" stop-color="#D86DF1"/>
<stop offset="1" stop-color="#E05EFF"/>
</linearGradient>
<linearGradient id="paint8_linear_87_3086" x1="18.5682" y1="163.622" x2="68.3283" y2="163.622" gradientUnits="userSpaceOnUse">
<stop stop-color="#9E88DA"/>
<stop offset="0.042" stop-color="#A18ED4"/>
<stop offset="0.496" stop-color="#D99595"/>
<stop offset="0.828" stop-color="#F16D6D"/>
<stop offset="1" stop-color="#FF5E5E"/>
</linearGradient>
<linearGradient id="paint9_linear_87_3086" x1="118.796" y1="147.489" x2="59.2297" y2="69.8958" gradientUnits="userSpaceOnUse">
<stop stop-color="#BAA1FF"/>
<stop offset="0.488" stop-color="white"/>
</linearGradient>
<linearGradient id="paint10_linear_87_3086" x1="155.232" y1="115.167" x2="143.744" y2="96.424" gradientUnits="userSpaceOnUse">
<stop stop-color="#9600BA"/>
<stop offset="0.745" stop-color="#CE00FF"/>
</linearGradient>
<linearGradient id="paint11_linear_87_3086" x1="72.9777" y1="166.922" x2="110.979" y2="166.922" gradientUnits="userSpaceOnUse">
<stop stop-color="#9600BA"/>
<stop offset="0.745" stop-color="#CE00FF"/>
</linearGradient>
<linearGradient id="paint12_linear_87_3086" x1="81.6183" y1="130.697" x2="58.8361" y2="121.733" gradientUnits="userSpaceOnUse">
<stop stop-color="#9600BA"/>
<stop offset="0.745" stop-color="#CE00FF"/>
</linearGradient>
<linearGradient id="paint13_linear_87_3086" x1="77.9981" y1="164.131" x2="62.3126" y2="140.323" gradientUnits="userSpaceOnUse">
<stop stop-color="#2C0036"/>
<stop offset="0.438" stop-color="#70008B"/>
<stop offset="1" stop-color="#9624B1"/>
</linearGradient>
<linearGradient id="paint14_linear_87_3086" x1="59.5753" y1="144.603" x2="70.7793" y2="164.21" gradientUnits="userSpaceOnUse">
<stop stop-color="#D833FF"/>
<stop offset="0.159" stop-color="#D937FF"/>
<stop offset="0.353" stop-color="#DB43FF"/>
<stop offset="0.568" stop-color="#DC49FF"/>
<stop offset="0.794" stop-color="#6026FF"/>
<stop offset="1" stop-color="#4400FF"/>
</linearGradient>
<linearGradient id="paint15_linear_87_3086" x1="100.555" y1="129.131" x2="51.8186" y2="155.18" gradientUnits="userSpaceOnUse">
<stop stop-color="#D833FF"/>
<stop offset="0.132" stop-color="#DB42FF"/>
<stop offset="0.534" stop-color="#652EFF"/>
<stop offset="0.835" stop-color="#4D0DFF"/>
<stop offset="1" stop-color="#4400FF"/>
</linearGradient>
<linearGradient id="paint16_linear_87_3086" x1="50.4754" y1="145.073" x2="97.6274" y2="145.073" gradientUnits="userSpaceOnUse">
<stop stop-color="#9600BA"/>
<stop offset="0.745" stop-color="#CE00FF"/>
</linearGradient>
<linearGradient id="paint17_linear_87_3086" x1="107.711" y1="60.6669" x2="136.882" y2="60.6669" gradientUnits="userSpaceOnUse">
<stop stop-color="#D833FF"/>
<stop offset="0.159" stop-color="#D937FF"/>
<stop offset="0.353" stop-color="#DB43FF"/>
<stop offset="0.568" stop-color="#DC49FF"/>
<stop offset="0.794" stop-color="#6026FF"/>
<stop offset="1" stop-color="#4400FF"/>
</linearGradient>
<linearGradient id="paint18_linear_87_3086" x1="103.558" y1="107.285" x2="118.123" y2="59.8529" gradientUnits="userSpaceOnUse">
<stop stop-color="#D833FF"/>
<stop offset="0.111" stop-color="#DA40FF"/>
<stop offset="0.524" stop-color="#662FFF"/>
<stop offset="0.833" stop-color="#4D0DFF"/>
<stop offset="1" stop-color="#4400FF"/>
</linearGradient>
<linearGradient id="paint19_linear_87_3086" x1="107.902" y1="83.1433" x2="116.83" y2="83.1433" gradientUnits="userSpaceOnUse">
<stop stop-color="#9700BB"/>
<stop offset="1"/>
</linearGradient>
<linearGradient id="paint20_linear_87_3086" x1="106.362" y1="64.4458" x2="114.897" y2="64.4458" gradientUnits="userSpaceOnUse">
<stop stop-color="#D833FF"/>
<stop offset="0.159" stop-color="#D937FF"/>
<stop offset="0.353" stop-color="#DB43FF"/>
<stop offset="0.568" stop-color="#DC49FF"/>
<stop offset="0.794" stop-color="#6026FF"/>
<stop offset="1" stop-color="#4400FF"/>
</linearGradient>
<linearGradient id="paint21_linear_87_3086" x1="107.244" y1="91.7281" x2="115.647" y2="91.7281" gradientUnits="userSpaceOnUse">
<stop stop-color="#9700BB"/>
<stop offset="1"/>
</linearGradient>
<linearGradient id="paint22_linear_87_3086" x1="91.3713" y1="131.66" x2="101.829" y2="131.66" gradientUnits="userSpaceOnUse">
<stop stop-color="#2C0036"/>
<stop offset="0.594" stop-color="#70008B"/>
<stop offset="1" stop-color="#9624B1"/>
</linearGradient>
<linearGradient id="paint23_linear_87_3086" x1="111.819" y1="63.2118" x2="123.148" y2="63.2118" gradientUnits="userSpaceOnUse">
<stop stop-color="#BAA1FF"/>
<stop offset="0.488" stop-color="white"/>
</linearGradient>
<linearGradient id="paint24_linear_87_3086" x1="107.897" y1="83.1266" x2="137.309" y2="83.1266" gradientUnits="userSpaceOnUse">
<stop stop-color="#D833FF"/>
<stop offset="0.159" stop-color="#D937FF"/>
<stop offset="0.353" stop-color="#DB43FF"/>
<stop offset="0.568" stop-color="#DC49FF"/>
<stop offset="0.794" stop-color="#6026FF"/>
<stop offset="1" stop-color="#4400FF"/>
</linearGradient>
<linearGradient id="paint25_linear_87_3086" x1="137.916" y1="95.5405" x2="149.214" y2="95.5405" gradientUnits="userSpaceOnUse">
<stop stop-color="#BAA1FF"/>
<stop offset="0.488" stop-color="white"/>
</linearGradient>
<linearGradient id="paint26_linear_87_3086" x1="136.749" y1="50.0515" x2="146.404" y2="50.0515" gradientUnits="userSpaceOnUse">
<stop stop-color="#BAA1FF"/>
<stop offset="0.488" stop-color="white"/>
</linearGradient>
<linearGradient id="paint27_linear_87_3086" x1="201.923" y1="25.816" x2="244.174" y2="25.816" gradientUnits="userSpaceOnUse">
<stop stop-color="#BAA1FF"/>
<stop offset="0.089" stop-color="#D0BFFF"/>
<stop offset="0.499" stop-color="#E3D9FF"/>
<stop offset="0.816" stop-color="#FFF5F5"/>
<stop offset="1" stop-color="white"/>
</linearGradient>
<linearGradient id="paint28_linear_87_3086" x1="148.874" y1="34.0126" x2="179.234" y2="34.0126" gradientUnits="userSpaceOnUse">
<stop stop-color="#BAA1FF"/>
<stop offset="0.089" stop-color="#D0BFFF"/>
<stop offset="0.499" stop-color="#E3D9FF"/>
<stop offset="0.816" stop-color="#FFF5F5"/>
<stop offset="1" stop-color="white"/>
</linearGradient>
</defs>
</svg>
