<svg width="375" height="399" viewBox="0 0 375 399" fill="none" xmlns="http://www.w3.org/2000/svg">
<path d="M207.042 230.379C250.043 225.867 281.081 185.795 276.368 140.876C271.655 95.9579 232.974 63.202 189.973 67.7141C146.972 72.2263 115.933 112.298 120.647 157.216C125.36 202.135 164.04 234.891 207.042 230.379Z" fill="#ECDBDB" fill-opacity="0.03"/>
<path d="M296.869 140.344L295.976 131.829C295.805 130.205 295.024 128.713 293.804 127.681C292.583 126.648 291.024 126.159 289.469 126.323L268.769 128.495C267.998 128.575 267.219 128.497 266.475 128.264C265.732 128.031 265.038 127.648 264.434 127.137C263.829 126.625 263.327 125.996 262.954 125.284C262.581 124.572 262.346 123.792 262.262 122.988L261.368 114.474C261.284 113.67 261.352 112.858 261.569 112.084C261.786 111.311 262.147 110.59 262.632 109.965C263.117 109.339 263.716 108.82 264.395 108.438C265.074 108.056 265.82 107.817 266.59 107.737L267.244 107.668C268.799 107.505 270.223 106.703 271.203 105.44C272.182 104.176 272.637 102.554 272.466 100.931L271.573 92.4163C271.402 90.7927 270.621 89.3004 269.401 88.2677C268.181 87.235 266.621 86.7466 265.066 86.9098L116.244 102.526C114.689 102.689 113.265 103.49 112.286 104.754C111.306 106.017 110.852 107.639 111.022 109.263L111.916 117.777C112.086 119.401 112.867 120.893 114.087 121.926C115.308 122.959 116.867 123.447 118.423 123.284C119.193 123.203 119.972 123.281 120.716 123.514C121.46 123.747 122.153 124.13 122.758 124.642C123.362 125.153 123.865 125.783 124.237 126.494C124.61 127.206 124.845 127.986 124.929 128.79L125.823 137.305C125.907 138.109 125.839 138.921 125.622 139.694C125.406 140.468 125.044 141.188 124.559 141.814C124.074 142.439 123.475 142.958 122.796 143.34C122.117 143.723 121.371 143.961 120.601 144.042L97.9217 146.422C96.3663 146.585 94.9423 147.386 93.963 148.65C92.9836 149.913 92.5291 151.535 92.6995 153.159L93.5929 161.673C93.6773 162.477 93.9125 163.257 94.2852 163.969C94.6578 164.681 95.1606 165.311 95.7648 165.822C96.3691 166.333 97.0629 166.716 97.8067 166.949C98.5505 167.182 99.3297 167.261 100.1 167.18L108.999 166.246C110.554 166.083 112.114 166.571 113.334 167.604C114.554 168.637 115.335 170.129 115.506 171.753L116.399 180.267C116.484 181.071 116.415 181.883 116.199 182.657C115.982 183.43 115.621 184.15 115.136 184.776C114.651 185.402 114.052 185.92 113.372 186.303C112.693 186.685 111.947 186.923 111.177 187.004L111.155 187.007C109.6 187.17 108.176 187.971 107.197 189.235C106.217 190.498 105.763 192.12 105.933 193.744L106.827 202.258C106.911 203.062 107.146 203.842 107.519 204.554C107.892 205.266 108.394 205.895 108.999 206.407C109.603 206.918 110.297 207.301 111.04 207.534C111.784 207.767 112.563 207.845 113.334 207.765L114.621 207.63C116.176 207.466 117.736 207.955 118.956 208.987C120.176 210.02 120.958 211.512 121.128 213.136L122.021 221.65C122.192 223.274 121.737 224.896 120.758 226.159C119.779 227.423 118.355 228.224 116.799 228.388L95.6694 230.605C94.8992 230.686 94.1533 230.924 93.474 231.306C92.7948 231.689 92.1956 232.207 91.7106 232.833C91.2257 233.459 90.8645 234.179 90.6478 234.952C90.431 235.726 90.3628 236.538 90.4472 237.342L91.3406 245.856C91.4249 246.66 91.6602 247.441 92.0328 248.152C92.4055 248.864 92.9083 249.494 93.5125 250.005C94.1167 250.516 94.8106 250.899 95.5544 251.132C96.2982 251.365 97.0774 251.444 97.8476 251.363L283.461 231.886C285.017 231.723 286.441 230.922 287.42 229.658C288.4 228.395 288.854 226.773 288.684 225.149L287.79 216.635C287.62 215.011 286.839 213.519 285.618 212.486C284.398 211.454 282.839 210.965 281.283 211.128L276.198 211.662C274.643 211.825 273.084 211.337 271.863 210.304C270.643 209.271 269.862 207.779 269.691 206.155L268.798 197.641C268.628 196.017 269.082 194.395 270.062 193.132C271.041 191.868 272.465 191.067 274.02 190.904L286.01 189.646C287.565 189.482 288.989 188.681 289.969 187.417C290.948 186.154 291.403 184.532 291.232 182.908L290.339 174.394C290.168 172.77 289.387 171.278 288.167 170.245C286.947 169.213 285.387 168.724 283.832 168.887L280.195 169.269C279.425 169.35 278.645 169.272 277.902 169.039C277.158 168.806 276.464 168.423 275.86 167.911C275.255 167.4 274.753 166.77 274.38 166.059C274.007 165.347 273.772 164.567 273.688 163.763L272.794 155.248C272.624 153.625 273.078 152.003 274.058 150.739C275.037 149.476 276.461 148.674 278.017 148.511L291.647 147.081C293.202 146.918 294.626 146.116 295.606 144.853C296.585 143.589 297.039 141.967 296.869 140.344Z" fill="#ECDBDB" fill-opacity="0.03"/>
<path d="M210.556 137.253C219.732 136.29 226.366 127.85 225.375 118.4C224.383 108.951 216.141 102.071 206.966 103.034C197.79 103.997 191.156 112.438 192.147 121.887C193.139 131.336 201.381 138.216 210.556 137.253Z" fill="#B528D6"/>
<path d="M217.833 113.426C219.202 113.282 220.184 111.944 220.026 110.438C219.868 108.932 218.63 107.827 217.26 107.971C215.891 108.114 214.909 109.452 215.067 110.958C215.225 112.465 216.463 113.569 217.833 113.426Z" fill="#E599F7"/>
<path d="M266.456 156.56C270.092 146.128 245.236 126.905 210.938 113.626C176.64 100.346 145.889 98.0373 142.253 108.469C138.617 118.902 163.473 138.124 197.771 151.404C232.069 164.683 262.82 166.992 266.456 156.56Z" fill="#AF9FDE"/>
<path d="M208.197 121.134C238.168 132.746 260.925 148.901 263.741 159.75C264.925 158.955 265.837 157.789 266.348 156.418C269.982 145.987 245.14 126.764 210.862 113.483C176.585 100.202 145.853 97.8916 142.219 108.323C141.768 109.717 141.747 111.227 142.161 112.642C150.967 106.296 178.227 109.521 208.197 121.134Z" fill="#CCE9FF"/>
<path d="M226.491 149.634C227.941 145.474 218.03 137.81 204.354 132.515C190.679 127.22 178.418 126.299 176.968 130.459C175.518 134.618 185.429 142.283 199.104 147.578C212.78 152.873 225.041 153.793 226.491 149.634Z" fill="#E599F7"/>
<path d="M203.4 135.834C215.268 140.47 224.281 146.914 225.399 151.239C225.867 150.922 226.228 150.458 226.43 149.912C227.865 145.756 218.026 138.088 204.453 132.786C190.88 127.483 178.713 126.554 177.278 130.71C177.1 131.265 177.092 131.867 177.256 132.431C180.74 129.905 191.532 131.197 203.4 135.834Z" fill="#C218EA"/>
<path d="M207.34 235.863L103.964 246.71L176.735 132.278L225.81 151.221L207.34 235.863Z" fill="url(#paint0_linear_83_2530)"/>
<path d="M88.1918 269.027C82.4325 304.242 106.311 337.458 141.526 343.217C176.741 348.977 209.957 325.098 215.717 289.883C221.476 254.668 197.598 221.452 162.383 215.693C127.168 209.933 93.9512 233.812 88.1918 269.027Z" fill="url(#paint1_linear_83_2530)"/>
<path fill-rule="evenodd" clip-rule="evenodd" d="M98.8444 254.212C101.435 251.125 106.09 247.129 108.953 248.791C112.032 250.579 110.998 253.109 113.803 252.655C116.432 252.23 117.783 245.625 121.721 241.938C124.929 238.936 130.39 237.381 134.747 239.996C139.104 242.612 139.75 243.206 141.938 242.234C144.124 241.263 146.442 243.07 147.73 244.479C149.63 246.559 153.187 246.757 155.967 249.471C160.684 254.075 160.848 259.753 159.66 267.19C158.496 274.473 159.265 275.512 162.253 278.426C164.203 280.328 167.343 283.706 164.94 289.452C162.538 295.199 159.592 299.329 159.265 302.433C158.833 306.543 162.907 307.772 162.261 309.664C161.615 311.555 157.909 312.206 154.353 308.854C151.387 306.059 153.957 302.257 150.866 299.779C147.344 296.955 143.91 302.898 140.269 299.081C137.687 296.374 138.738 291.362 139.195 288.247C139.989 282.844 135.112 277.694 131.752 281.202C127.48 285.663 123.744 294.124 116.702 299.184C109.661 304.244 102.174 302.117 97.5595 297.289C93.623 293.171 93.3409 287.455 94.0139 283.087C94.7343 278.412 96.9619 276.35 96.6032 273.136C96.1907 269.441 93.5599 267.835 93.7411 264.138C93.8673 261.569 95.4262 258.285 98.8444 254.212Z" fill="white" fill-opacity="0.81"/>
<path d="M99.5812 254.83L99.5813 254.83C100.838 253.333 102.578 251.639 104.314 250.532C105.182 249.978 106.005 249.6 106.732 249.443C107.449 249.289 108.016 249.36 108.47 249.623C109.626 250.294 110.065 251.048 110.501 251.796C110.552 251.883 110.603 251.97 110.655 252.057C110.897 252.463 111.233 252.989 111.81 253.326C112.418 253.68 113.131 253.739 113.956 253.605C114.992 253.437 115.765 252.689 116.362 251.901C116.974 251.093 117.547 250.044 118.119 248.974C118.17 248.879 118.22 248.785 118.271 248.69C119.408 246.561 120.627 244.28 122.379 242.64C125.373 239.838 130.369 238.49 134.252 240.821C134.599 241.029 134.926 241.227 135.233 241.413C135.877 241.802 136.435 242.139 136.92 242.419C137.636 242.832 138.255 243.158 138.829 243.365C139.423 243.58 139.988 243.676 140.592 243.62C141.179 243.566 141.739 243.375 142.328 243.113L142.328 243.113C143.067 242.785 143.878 242.893 144.741 243.324C145.61 243.759 146.42 244.472 147.019 245.128L147.019 245.128C148.069 246.277 149.532 246.917 150.875 247.506C150.961 247.543 151.046 247.581 151.131 247.618C152.604 248.266 154.042 248.936 155.295 250.16C159.652 254.412 159.89 259.654 158.71 267.038C158.129 270.669 157.99 272.942 158.472 274.701C158.97 276.519 160.103 277.673 161.581 279.115L161.581 279.115C162.545 280.056 163.689 281.257 164.337 282.858C164.967 284.417 165.159 286.435 164.053 289.081C163.117 291.318 162.103 293.298 161.179 295.1C160.934 295.579 160.695 296.045 160.465 296.501C159.401 298.614 158.494 300.577 158.309 302.332C158.051 304.779 159.166 306.374 160.105 307.497C160.26 307.683 160.4 307.845 160.527 307.992C160.811 308.32 161.028 308.571 161.194 308.832C161.401 309.157 161.378 309.273 161.351 309.353C161.213 309.757 160.628 310.28 159.411 310.263C158.244 310.247 156.65 309.697 155.013 308.154C153.836 307.045 153.733 305.773 153.616 304.129L153.614 304.1C153.501 302.515 153.361 300.546 151.468 299.028C150.362 298.142 149.222 297.934 148.127 298.06C147.222 298.164 146.326 298.503 145.563 298.793C145.465 298.83 145.369 298.867 145.275 298.902C144.39 299.232 143.671 299.46 142.991 299.442C142.378 299.425 141.716 299.204 140.965 298.417C139.929 297.332 139.557 295.71 139.554 293.816C139.552 292.249 139.799 290.653 140.018 289.236C140.063 288.945 140.107 288.661 140.147 288.387C140.588 285.381 139.464 282.437 137.708 280.699C136.825 279.825 135.724 279.201 134.521 279.104C133.284 279.004 132.074 279.475 131.057 280.536L131.057 280.536C129.427 282.239 127.861 284.519 126.228 286.898C125.656 287.73 125.076 288.575 124.482 289.411C122.148 292.696 119.528 295.969 116.141 298.403C109.566 303.128 102.608 301.179 98.2549 296.624L98.2548 296.624C94.6251 292.827 94.3092 287.487 94.9646 283.234L94.9646 283.234C95.2759 281.214 95.8799 279.719 96.4475 278.315C96.5008 278.183 96.5537 278.052 96.6061 277.922C97.2105 276.414 97.7676 274.897 97.5592 273.029L96.6032 273.136L97.5592 273.029C97.3491 271.147 96.6123 269.74 95.9783 268.53C95.919 268.417 95.8606 268.305 95.8037 268.195C95.1324 266.899 94.6244 265.766 94.7019 264.185C94.8124 261.934 96.2056 258.852 99.5812 254.83Z" stroke="#70369D" stroke-opacity="0.47" stroke-width="1.92388"/>
<path fill-rule="evenodd" clip-rule="evenodd" d="M194.489 237.063C197.603 244.677 193.164 256.75 197.38 259.293C199.181 260.378 202.463 257.59 203.807 256.882C208.337 254.496 209.843 257.771 209.281 263.019C208.379 271.441 204.353 280.522 204.82 289.386C205.11 294.873 210.02 297.361 208.914 300.638C207.691 304.258 203.814 301.584 202.235 304.589C200.656 307.594 202.896 311.678 200.819 313.852C198.582 316.193 189.767 321.414 189.693 327.459C189.677 328.794 191.052 329.808 192.898 329.431C204.645 319.814 213.073 306.044 215.717 289.883C220.306 261.819 206.073 235.025 182.28 222.385C185.976 224.544 191.257 229.161 194.489 237.063Z" fill="#AFC5CE"/>
<path fill-rule="evenodd" clip-rule="evenodd" d="M196.265 235.277C199.379 242.89 197.438 253.122 200.865 254.918C202.331 255.687 203.882 254.818 205.226 254.11C209.756 251.724 211.321 257.802 211.377 263.086C211.467 271.556 209.796 282.247 210.552 287.902C211.085 291.895 213.013 298.567 211.906 301.844C210.683 305.464 206.334 303.75 204.755 306.755C203.176 309.76 205.724 312.301 203.647 314.475C201.41 316.816 192.95 320.699 192.876 326.744C192.86 328.078 194.015 328.5 194.562 328.02C205.44 318.489 213.2 305.27 215.717 289.883C220.306 261.819 206.073 235.025 182.28 222.385C185.976 224.544 193.033 227.375 196.265 235.277Z" fill="url(#paint2_linear_83_2530)"/>
<path fill-rule="evenodd" clip-rule="evenodd" d="M183.111 330.066C182.244 325.845 184.179 321.266 187.27 320.511C190.36 319.755 193.754 318.049 193.883 314.546C193.962 312.339 192.71 311.248 191.737 310.734C190.032 309.834 188.315 309.976 189.304 304.749C190.386 299.029 191.552 296.142 189.481 290.679C187.659 285.873 183.703 284.796 181.672 285.502C178.815 286.493 177.538 289.919 178.699 294.311C179.859 298.704 183.539 302.73 183.454 306.956C183.388 310.229 181.506 313.314 178.589 311.007C176.815 309.604 175.477 308.718 173.859 309.392C171.741 310.275 171.472 316.123 171.929 321.191C172.385 326.26 171.915 332.463 168.372 333.564C164.829 334.667 157.407 331.376 152.934 332.721C148.462 334.066 147.093 337.898 146.425 339.865C145.96 341.236 145.474 342.724 144.022 343.571C159.729 345.524 174.914 341.636 187.299 333.537C185.508 333.35 183.617 332.533 183.111 330.066Z" fill="#AFC5CE"/>
<path fill-rule="evenodd" clip-rule="evenodd" d="M181.337 330.481C180.135 326.947 181.453 321.135 184.96 319.516C187.946 318.137 190.584 316.756 190.047 313.292C189.638 310.655 187.074 310.505 187.596 305.211C188.047 300.637 189.167 299.535 187.651 294.293C185.991 288.552 179.622 289.271 180.782 293.664C181.943 298.056 185.302 304.651 185.217 308.877C185.15 312.149 183.063 316.486 180.146 314.179C178.373 312.776 177.242 312.74 176.093 313.566C174.804 314.492 174.935 317.925 175.392 322.994C175.848 328.063 174.902 336.071 169.82 337.523C164.51 339.04 159.194 333.383 154.697 334.641C149.567 336.077 150.574 344.091 152.779 344.065C165.319 343.92 177.234 340.119 187.299 333.538C184.868 334.285 182.148 332.865 181.337 330.481Z" fill="url(#paint3_linear_83_2530)"/>
<path fill-rule="evenodd" clip-rule="evenodd" d="M114.811 232.042C117.311 231.264 119.953 229.978 123.184 231.335C127.81 233.278 129.28 241.529 139.649 242.829C150.018 244.129 154.217 234.482 160.967 230.394C165.513 227.641 173.882 227.957 174.459 224.689C174.951 221.91 171.07 218.78 167.615 216.772C165.886 216.341 164.141 215.98 162.383 215.692C142.464 212.434 123.187 218.661 109.154 231.056C110.241 232.624 112.945 232.622 114.811 232.042L114.811 232.042Z" fill="#AFC5CE"/>
<path fill-rule="evenodd" clip-rule="evenodd" d="M115.884 228.88C118.13 227.533 120.662 225.643 123.892 227C128.519 228.944 129.989 237.194 140.357 238.495C150.726 239.795 151.274 232.517 158.024 228.429C162.57 225.676 170.939 225.992 171.517 222.724C172.008 219.946 166.305 216.456 165.643 216.312C164.562 216.077 163.475 215.87 162.382 215.692C143.59 212.618 125.369 217.987 111.584 229.013C111.76 230.283 114.28 229.842 115.884 228.88Z" fill="url(#paint4_linear_83_2530)"/>
<defs>
<linearGradient id="paint0_linear_83_2530" x1="216.355" y1="146.696" x2="138.727" y2="256.196" gradientUnits="userSpaceOnUse">
<stop stop-color="#D0BFFF"/>
<stop offset="1" stop-color="#FAF3F3" stop-opacity="0"/>
</linearGradient>
<linearGradient id="paint1_linear_83_2530" x1="-1946.9" y1="1788.28" x2="-12439" y2="9330.93" gradientUnits="userSpaceOnUse">
<stop stop-color="#6A9FEF" stop-opacity="0.26"/>
<stop offset="1" stop-color="#D8F1FC"/>
</linearGradient>
<linearGradient id="paint2_linear_83_2530" x1="-4933.78" y1="4581.52" x2="-602.041" y2="5289.97" gradientUnits="userSpaceOnUse">
<stop stop-color="#85C5FF"/>
<stop offset="1" stop-color="white"/>
</linearGradient>
<linearGradient id="paint3_linear_83_2530" x1="318.032" y1="1526.12" x2="-4862.94" y2="2484.25" gradientUnits="userSpaceOnUse">
<stop stop-color="#D0BFFF"/>
<stop offset="1" stop-color="#D9D9D9"/>
</linearGradient>
<linearGradient id="paint4_linear_83_2530" x1="-2696.12" y1="-251.786" x2="-3116.95" y2="2321.29" gradientUnits="userSpaceOnUse">
<stop stop-color="#DAEFFF"/>
<stop offset="1" stop-color="white"/>
</linearGradient>
</defs>
</svg>
