<svg width="351" height="351" viewBox="0 0 351 351" fill="none" xmlns="http://www.w3.org/2000/svg">
<path d="M351 175.5C351 272.426 272.426 351 175.5 351C78.574 351 0 272.426 0 175.5C0 78.574 78.574 0 175.5 0C272.426 0 351 78.574 351 175.5ZM3.50999 175.5C3.50999 270.487 80.5125 347.49 175.5 347.49C270.487 347.49 347.49 270.487 347.49 175.5C347.49 80.5125 270.487 3.50999 175.5 3.50999C80.5125 3.50999 3.50999 80.5125 3.50999 175.5Z" fill="#69A31A" fill-opacity="0.08"/>
<path d="M127.496 188.142L50.147 244.097C52.7333 250.114 56.5189 255.464 61.6227 259.452C61.6227 259.452 64.1884 262.711 69.8734 266.727L144.821 188.142H127.496Z" fill="#BFDA4E"/>
<path d="M144.821 188.142L69.8735 266.727C76.11 271.133 86.1015 276.449 100.583 279.376L160.853 188.142H144.821Z" fill="#93C74B"/>
<path d="M103.122 188.142L46.1927 215.057C45.1059 224.689 46.2951 235.134 50.1471 244.097L127.496 188.142H103.122Z" fill="#93C74B"/>
<path d="M170.944 188.142L132.085 281.322C132.659 281.288 133.24 281.251 133.825 281.21C147.28 280.259 158.248 278.553 167.115 276.545L180.578 188.142H170.944Z" fill="#93C74B"/>
<path d="M58.8835 188.142C51.9157 193.482 47.4743 203.707 46.1929 215.057L103.122 188.142H58.8835Z" fill="#BFDA4E"/>
<path d="M160.85 188.142L100.58 279.376C109.371 281.152 119.819 282.046 132.084 281.321L170.942 188.141L160.85 188.142Z" fill="#BFDA4E"/>
<path d="M284.592 244.637C282.859 246.498 280.871 248.177 278.679 249.688C278.371 249.901 278.06 250.11 277.744 250.315C276.324 251.237 274.858 252.086 273.35 252.857C273.073 252.999 272.794 253.14 272.512 253.279C270.967 254.041 269.367 254.746 267.709 255.395C267.501 255.478 267.293 255.558 267.083 255.638C266.857 255.724 266.632 255.81 266.404 255.895C266.079 256.016 265.752 256.135 265.423 256.252C264.537 256.568 263.64 256.87 262.731 257.158L261.087 254.562L260.047 252.922L250.487 237.847L218.964 188.142H233.625L276.523 235.692L280.857 240.496L281.855 241.602L284.592 244.637Z" fill="#93C74B"/>
<path d="M200.671 262.572C199.918 263.286 194.049 268.515 178.864 273.371C177.217 273.898 175.459 274.418 173.59 274.931C173.207 275.035 172.82 275.139 172.429 275.243C171.35 275.53 170.234 275.811 169.08 276.086C168.437 276.24 167.781 276.393 167.113 276.544L167.874 271.543L170.244 255.985L180.576 188.142H193.872L200.671 262.572Z" fill="#BFDA4E"/>
<path d="M293.535 219.264C293.258 223.335 292.549 227.694 291.282 232.335C291.154 232.807 291.019 233.281 290.877 233.759C289.646 237.944 287.471 241.544 284.592 244.637L276.521 235.692L233.623 188.142H254.652L293.535 219.264Z" fill="#BFDA4E"/>
<path d="M286.385 188.142H254.652L293.535 219.264C294.472 205.495 290.463 195.029 286.385 188.142Z" fill="#93C74B"/>
<path d="M193.872 188.142L200.671 262.571C200.728 262.517 200.756 262.488 200.756 262.488C200.756 262.488 212.963 263.575 228.447 262.746L204.199 188.142H193.872Z" fill="#93C74B"/>
<path d="M262.731 257.158C260.863 257.751 258.953 258.287 257.016 258.771C247.553 261.137 237.447 262.266 228.447 262.748L204.2 188.142H218.963L250.485 237.847L260.046 252.922L261.085 254.562L262.731 257.158Z" fill="#BFDA4E"/>
<path d="M237.418 189.65C237.418 189.65 239.565 190.436 240.268 192.632C240.97 194.828 244.835 195.97 245.363 196.497C245.89 197.023 245.889 197.463 246.504 198.956C247.12 200.45 249.183 201.635 250.283 202.735C251.383 203.835 252.391 204.931 252.391 205.988C252.391 207.045 256.037 207.349 256.783 209.238C257.53 211.126 258.73 214.627 260.497 216.394C262.264 218.161 261.471 216.796 263.943 219.268C266.415 221.74 267.535 223.43 268.545 224.442C269.555 225.454 268.306 223.629 272.212 227.537C276.119 231.446 279.621 233.041 280.675 234.095L284.594 238.014C285.067 238.487 286.89 241.858 286.89 241.858L284.594 244.642L233.622 188.142L235.217 188.196C235.217 188.196 236.764 188.997 237.418 189.65Z" fill="#76AE28"/>
<path d="M254.652 188.142L266.237 197.414L293.535 219.264C293.535 219.264 293.977 217.667 293.649 216.876C293.322 216.085 291.74 216.656 290.994 215.909C290.247 215.162 290.247 214.46 289.632 213.845C289.018 213.23 286.87 212.25 286.133 211.824C285.396 211.399 279.846 205.477 278.521 204.712C277.195 203.946 276.703 203.932 275.316 203.131C273.929 202.33 272.924 201.615 272.373 201.066C271.822 200.517 268.969 198.146 268.421 197.597C267.872 197.048 269.008 196.711 266.971 196.148C264.935 195.585 263.616 194.976 263.255 194.614C262.894 194.252 262.316 192.59 261.657 191.932C260.998 191.273 261.325 190.92 259.857 190.482C258.388 190.044 257.561 189.218 257.561 189.218L256.429 188.144L254.652 188.142Z" fill="#76AE28"/>
<path d="M263.579 253.064C262.332 251.817 262.666 250.692 261.964 249.99C261.261 249.287 260.558 248.408 259.241 247.091C257.923 245.774 255.727 243.578 255.727 243.578C255.727 243.578 254.37 238.001 251.777 235.409C249.185 232.816 248.349 231.719 247.472 229.787C246.595 227.855 247.34 226.142 245.627 224.43L242.202 221.004C241.016 219.818 241.324 220.917 240.006 218.018C238.688 215.119 235.009 213.275 234.477 209.937C233.946 206.599 229.653 202.621 228.45 201.417C227.248 200.213 227.184 199.309 226.217 197.552C225.251 195.795 223.231 192.282 222.439 191.491C221.646 190.7 219.54 188.143 219.54 188.143H218.966L262.733 257.159C262.733 257.159 266.959 255.927 267.349 255.537C267.739 255.148 264.826 254.311 263.579 253.064Z" fill="#76AE28"/>
<path d="M204.199 188.142L208.595 201.667L228.445 262.75L234.472 262.336C234.472 262.336 232.404 261.674 231.262 260.532C230.12 259.389 229.297 257.432 228.444 256.579C227.591 255.726 226.211 253.813 226.211 251.968C226.211 250.123 224.498 243.405 223.181 240.242C221.864 237.078 220.941 235.779 220.019 232.345C219.096 228.911 211.102 209.396 211.615 208.882C212.129 208.368 205.001 189.602 205.001 189.602L204.475 188.142L204.199 188.142Z" fill="#76AE28"/>
<path d="M193.872 188.142L200.671 262.571C200.671 262.571 207.415 263.241 207.415 263.058C207.415 262.875 204.605 262.549 203.287 260.265C201.969 257.982 200.669 257.63 200.669 255.873C200.669 254.116 199.949 248.143 199.949 244.542C199.949 240.942 200.16 238.494 198.983 234.856C197.805 231.218 198.632 223.637 198.105 219.333C197.577 215.029 197.052 212.482 197.052 212.482C197.052 212.482 194.503 192.215 194.503 191.732C194.503 191.248 194.174 188.142 194.174 188.142L193.872 188.142Z" fill="#76AE28"/>
<path d="M181.593 188.142C181.593 188.142 180.275 197.463 179.924 200.01C179.573 202.557 179.398 202.997 179.398 205.017C179.398 207.037 176.412 221.53 175.973 224.78C175.533 228.03 175.534 229.787 175.534 231.895C175.534 234.004 173.514 247.618 173.514 249.111V252.449C173.514 254.031 170.945 269.051 170.945 270.544C170.945 272.038 171.519 275.481 171.519 275.481L170.18 275.804L169.531 275.961L167.113 276.545L167.555 273.649L167.669 272.892L180.578 188.142H181.593Z" fill="#76AE28"/>
<path d="M170.944 188.142L162.673 207.974L132.085 281.321L134.612 281.023C134.612 281.023 133.922 280.206 134.612 278.8C135.302 277.395 136.357 275.726 137.147 273.53C137.938 271.334 138.992 269.489 138.992 268.26C138.992 267.03 140.134 264.746 141.276 262.199C142.418 259.651 151.904 236.679 152.782 234.858C153.66 233.037 156.561 227.855 157.701 224.517C158.842 221.179 166.133 202.559 166.133 201.679C166.133 200.8 167.234 198.298 167.802 197.727C168.371 197.155 171.375 188.142 171.375 188.142L170.944 188.142Z" fill="#76AE28"/>
<path d="M160.85 188.142L115.94 256.234L110.094 265.097L111.146 266.727C111.146 266.727 118.195 254.601 119.756 253.042C121.317 251.482 123.841 250.055 126.015 245.839C128.189 241.623 126.541 243.665 128.781 239.844C131.022 236.023 135.239 229.831 136.489 227.723C137.739 225.615 138.136 225.681 139.388 223.573C140.64 221.465 141.496 220.015 142.354 218.503C143.211 216.99 150.423 204.57 150.654 204.339C150.885 204.108 152.763 201.506 153.487 200.255C154.211 199.003 157.769 193.403 158.362 192.81C158.955 192.218 161.173 188.144 161.173 188.144L160.85 188.142Z" fill="#76AE28"/>
<path d="M144.821 188.142L118.758 215.47C118.758 215.47 124.102 211.787 125.157 210.73C126.213 209.673 126.688 208.371 127.496 207.564C128.305 206.758 129.271 205.35 130.313 204.749C131.355 204.147 135.094 199.893 135.901 198.78C136.707 197.667 136.737 197.872 137.879 196.293C139.021 194.715 144.701 188.975 144.701 188.975L145.463 188.145L144.821 188.142Z" fill="#76AE28"/>
<path d="M127.496 188.142L109.121 201.435C109.121 201.435 112.307 200.451 112.992 200.056C113.677 199.66 114.837 198.211 115.65 197.398C116.462 196.585 117.563 195.837 118.309 195.091C119.054 194.346 125.827 189.986 126.167 189.646C126.507 189.305 128.122 188.142 128.122 188.142L127.496 188.142Z" fill="#76AE28"/>
<path d="M51.8006 247.54C51.8006 247.54 53.8426 246.637 55.2446 244.096C56.6466 241.556 57.906 239.881 58.8842 239.317C59.8624 238.752 62.024 237.317 63.2098 236.131C64.3956 234.945 82.1183 221.968 82.1183 221.968L77.6966 224.169L50.147 244.097L51.8006 247.54Z" fill="#76AE28"/>
<path d="M46.1928 215.057L78.7357 199.671C78.7357 199.671 77.779 201.599 76.8075 201.599C75.836 201.599 61.8453 208.999 60.7293 209.643C59.6134 210.288 59.8047 209.83 58.9844 210.651C58.164 211.471 45.988 217.221 45.988 217.221L46.1928 215.057Z" fill="#76AE28"/>
<g opacity="0.99">
<path d="M165.33 202.804L166.128 200.804H168.281" stroke="white" stroke-width="0.334833" stroke-linecap="round" stroke-linejoin="round"/>
<path d="M173.289 200.804H190.818" stroke="white" stroke-width="0.334833" stroke-linecap="round" stroke-linejoin="round" stroke-dasharray="5.01 5.01"/>
<path d="M193.323 200.804H195.475L195.671 202.948" stroke="white" stroke-width="0.334833" stroke-linecap="round" stroke-linejoin="round"/>
<path d="M196.117 207.806L198.565 234.527" stroke="white" stroke-width="0.334833" stroke-linecap="round" stroke-linejoin="round" stroke-dasharray="4.88 4.88"/>
<path d="M198.788 236.956L198.984 239.099H196.832" stroke="white" stroke-width="0.334833" stroke-linecap="round" stroke-linejoin="round"/>
<path d="M192.847 239.099H154.994" stroke="white" stroke-width="0.334833" stroke-linecap="round" stroke-linejoin="round" stroke-dasharray="3.98 3.98"/>
<path d="M153.002 239.099H150.85L151.647 237.1" stroke="white" stroke-width="0.334833" stroke-linecap="round" stroke-linejoin="round"/>
<path d="M153.168 233.289L164.57 204.709" stroke="white" stroke-width="0.334833" stroke-linecap="round" stroke-linejoin="round" stroke-dasharray="4.1 4.1"/>
</g>
<g opacity="0.99">
<path d="M207.085 195.905L206.402 193.864H208.554" stroke="white" stroke-width="0.334833" stroke-linecap="round" stroke-linejoin="round"/>
<path d="M212.566 193.864H234.627" stroke="white" stroke-width="0.334833" stroke-linecap="round" stroke-linejoin="round" stroke-dasharray="4.01 4.01"/>
<path d="M236.633 193.864H238.785L240.241 195.45" stroke="white" stroke-width="0.334833" stroke-linecap="round" stroke-linejoin="round"/>
<path d="M243.245 198.723L259.773 216.729" stroke="white" stroke-width="0.334833" stroke-linecap="round" stroke-linejoin="round" stroke-dasharray="4.44 4.44"/>
<path d="M261.276 218.366L262.731 219.952L260.58 220.037" stroke="white" stroke-width="0.334833" stroke-linecap="round" stroke-linejoin="round"/>
<path d="M255.84 220.226L220.286 221.642" stroke="white" stroke-width="0.334833" stroke-linecap="round" stroke-linejoin="round" stroke-dasharray="4.74 4.74"/>
<path d="M217.916 221.736L215.765 221.822L215.082 219.781" stroke="white" stroke-width="0.334833" stroke-linecap="round" stroke-linejoin="round"/>
<path d="M213.482 215.006L207.885 198.293" stroke="white" stroke-width="0.334833" stroke-linecap="round" stroke-linejoin="round" stroke-dasharray="5.04 5.04"/>
</g>
<path d="M286.385 188.142H58.8833C62.1168 185.664 65.8942 184.237 70.1519 184.237C70.1519 182.844 70.7259 181.008 71.816 178.972C77.7373 167.915 98.9165 150.951 126.446 166.845C122.23 149.981 132.771 119.941 166.5 132.062C190.743 103.075 244.499 119.941 247.661 136.806C272.859 142.822 277.928 161.454 278.765 171.632C279.1 175.717 278.755 178.44 278.755 178.44C278.755 178.44 282.6 181.748 286.385 188.142Z" fill="#BDE9FF"/>
<path d="M286.385 188.142H241.498C241.498 188.142 263.632 176.155 269.166 176.155C274.699 176.155 277.091 175.541 278.268 172.588C278.402 172.254 278.569 171.934 278.765 171.632C279.1 175.717 278.755 178.44 278.755 178.44C278.755 178.44 282.6 181.748 286.385 188.142Z" fill="#1CA3E5"/>
<path d="M221.655 188.142H139.256V182.81C139.256 182.81 164.456 176.155 168.588 176.155C172.721 176.155 190.693 181.473 193.011 182.811C195.329 184.149 205.065 185.577 211.159 185.577C216.29 185.578 220.464 187.526 221.655 188.142Z" fill="#78C1E5"/>
<path d="M147.672 183.65C147.672 183.65 168.753 179.236 170.4 179.236C172.047 179.236 166.331 180.752 166.331 180.752C166.331 180.752 159.348 182.624 154.596 184.422C149.845 186.219 147.672 183.65 147.672 183.65Z" fill="#52ADD1"/>
<path d="M164.61 188.142H58.8833C62.1168 185.664 65.8942 184.237 70.1519 184.237C70.1519 182.844 70.7259 181.008 71.816 178.972C71.816 178.972 105.323 162.784 115.362 168.58C125.4 174.376 141.316 178.972 141.316 178.972L164.61 188.142Z" fill="#1CA3E5"/>
<path d="M114.232 208.283L116.289 214.09C116.289 214.09 130.209 213.379 132.052 213.379C134.335 215.663 132.364 217.751 132.364 217.751C132.364 217.751 115.505 222.659 111.146 220.143C106.787 217.627 106.788 211.379 106.788 211.379L112.647 208.284L114.232 208.283Z" fill="#F8877F"/>
<path d="M112.648 243.89C112.648 249.839 112.474 276.823 112.447 281.023C109.859 280.823 101.259 279.755 100.364 279.534C100.157 274.586 98.6746 237.861 98.6746 235.41V229.876L103.023 228.802L109.874 227.11C109.874 227.11 112.648 237.433 112.648 243.89Z" fill="#02232B"/>
<path d="M102.111 241.469C102.111 241.469 105.661 246.213 105.661 251.395V263.69C105.661 265.447 104.735 280.028 104.735 280.028L102.309 279.837L102.111 241.469Z" fill="#021418"/>
<path d="M103.023 228.691V279.838C101.914 280.497 85.2952 275.377 82.9112 273.785C81.1054 264.563 77.8566 246.632 78.5669 240.285C79.5394 231.589 81.6761 226.187 81.6761 226.187L103.023 228.691Z" fill="#023240"/>
<path d="M99.9333 188.735C99.9333 188.735 107.458 189.122 109.655 193.778C111.851 198.434 115.012 207.656 115.012 207.656C115.012 207.656 109.667 212.177 108.073 211.257C106.478 210.337 99.9333 188.735 99.9333 188.735Z" fill="#FE4775"/>
<path d="M106.141 196.321C106.141 196.321 111.747 206.131 111.747 210.054C107.722 213.01 107.473 212.747 107.473 212.308C107.473 211.868 106.141 196.321 106.141 196.321Z" fill="#DD1F56"/>
<path d="M89.8917 189.274C89.8917 189.274 86.4712 188.36 84.0766 189.447C81.0976 190.799 78.9891 194.897 78.6485 203.613C78.0334 219.336 81.1081 229.613 81.1081 229.613C81.1081 229.613 107.107 232.599 111.147 227.593C110.181 215.559 109.083 190.131 103.286 188.813C97.4886 187.495 89.8917 189.274 89.8917 189.274Z" fill="#FE4775"/>
<path d="M80.373 226.559C80.373 226.559 98.6166 223.175 100.367 223.175H103.889L103.563 220.859L79.8416 223.708L80.373 226.559Z" fill="#DD1F56"/>
<path d="M82.2495 200.537C82.2495 200.537 84.3135 206.981 84.3135 210.678C84.3135 214.375 84.0743 217.907 84.0743 217.907L98.5415 218.535C98.5415 218.535 80.3649 221.468 79.7909 221.136C79.2169 220.804 78.7385 214.021 78.7385 212.616C78.7385 211.21 81.6152 202.017 82.0328 201.6C82.4504 201.182 82.2495 200.537 82.2495 200.537Z" fill="#DD1F56"/>
<path d="M97.9279 186.938L97.7523 183.337C97.7523 183.337 101.09 183.425 102.539 180.746C103.988 178.067 99.9919 166.692 95.4683 167.263C90.9447 167.834 88.0029 170.846 88.7056 177.09C89.4083 183.335 89.4083 185.928 89.4083 185.928C89.4083 185.928 91.9994 190.701 94.371 190.701C96.7425 190.701 97.9279 186.938 97.9279 186.938Z" fill="#F8877F"/>
<path d="M73.9924 216.964C73.9924 216.964 73.9714 223.326 76.4626 224.765C78.9537 226.204 101.575 222.41 101.575 222.41L100.584 218.006C100.584 218.006 82.9564 218.908 82.6048 218.908C81.8653 213.901 81.3722 213.012 81.3722 213.012L73.9924 216.964Z" fill="#F8877F"/>
<path d="M98.3584 218.12C98.3584 218.12 103.285 215.993 103.684 216.39C104.083 216.787 107.812 218.179 107.9 218.267C107.988 218.354 106.648 222.542 105.664 222.776C104.679 223.01 100.367 222.608 100.367 222.608L98.3584 218.12Z" fill="#F8877F"/>
<path d="M84.0764 189.447C84.0764 189.447 75.618 190.35 74.5637 197.202C73.5095 204.054 71.0064 220.786 73.5114 218.283C79.9689 215.516 82.8107 213.874 82.8107 213.874C82.8107 213.874 82.2285 205.907 82.8107 203.992C83.3928 202.077 84.0764 189.447 84.0764 189.447Z" fill="#FE4775"/>
<path d="M86.324 187.741L89.2624 184.802C89.2624 184.802 94.371 189.911 94.371 190.701C94.371 191.492 91.9114 194.127 91.9114 194.127C91.9114 194.127 85.4797 190.49 86.324 187.741Z" fill="white"/>
<path d="M94.3708 190.701C94.3708 190.701 97.4451 186.455 97.7527 185.577C99.379 188.036 99.9334 188.734 99.9334 188.734C99.9334 188.734 98.982 193.381 98.1038 193.381C97.2255 193.381 94.3708 190.701 94.3708 190.701Z" fill="white"/>
<path d="M91.7357 176.091C91.7357 176.091 89.9788 177.329 90.8575 178.972C91.7362 180.614 92.9215 180.087 92.9215 180.087V181.404C92.9215 181.404 88.9906 181.602 88.793 181.404C88.5955 181.206 85.5026 177.626 86.2473 174.026C86.9921 170.427 88.3998 171.743 88.3998 171.743C88.3998 171.743 87.6092 167.438 91.2105 165.989C94.8119 164.541 98.3253 166.077 100.697 165.155C103.068 164.233 102.498 166.604 101.488 167.614C100.477 168.624 99.9353 170.074 99.9353 170.074C99.9353 170.074 101.262 172.445 98.5448 172.445C98.2358 174.816 94.4149 177.364 91.7357 176.091Z" fill="#2A2038"/>
<path d="M102.437 222.23L111.933 210.652C112.067 210.488 112.236 210.356 112.428 210.266C112.62 210.175 112.829 210.129 113.041 210.13L133.411 210.223C133.769 210.223 134.958 210.766 135.195 210.965C135.769 211.443 135.045 211.935 134.477 212.585L124.624 223.883C124.491 224.034 124.329 224.156 124.146 224.241C123.963 224.325 123.764 224.369 123.563 224.371L103.938 224.945C103.704 224.945 103.105 224.511 102.918 224.419C102.137 224.043 101.819 222.984 102.437 222.23Z" fill="#302A29"/>
<path d="M103.506 222.779L113.002 211.201C113.136 211.037 113.305 210.905 113.497 210.815C113.688 210.725 113.898 210.678 114.109 210.679L134.48 210.773C135.7 210.778 136.349 212.214 135.547 213.134L125.693 224.432C125.561 224.584 125.398 224.705 125.215 224.79C125.032 224.874 124.834 224.918 124.633 224.92L104.622 225.107C103.412 225.118 102.739 223.713 103.506 222.779Z" fill="#FFDFDB"/>
<path d="M133.334 216.517C133.334 216.517 132.643 217.67 131.69 217.67C130.736 217.67 125.938 215.732 124.587 217.949C124.092 218.762 125.072 220.63 125.257 221.5C125.574 223.006 127.355 223.016 128.206 223.016C129.551 223.016 131.985 221.133 133.635 219.485C135.285 217.838 134.618 215.235 133.334 216.517Z" fill="#F8877F"/>
<path d="M263.36 173.081C263.506 172.411 263.579 171.726 263.578 171.04C263.578 167.973 262.143 165.286 259.987 163.785C260.826 162.726 261.336 161.329 261.336 159.797C261.336 156.488 258.958 153.806 256.026 153.806C253.094 153.806 250.717 156.488 250.717 159.797C250.717 161.327 251.226 162.726 252.065 163.785C249.926 165.274 248.496 167.934 248.474 170.971C247.759 171.854 247.348 172.944 247.303 174.079C247.257 175.214 247.58 176.333 248.222 177.27C248.864 178.207 249.792 178.911 250.867 179.278C251.943 179.645 253.107 179.654 254.188 179.305C254.486 179.39 254.79 179.454 255.097 179.496C255.91 181.448 257.767 182.811 259.926 182.811C262.837 182.811 265.196 180.333 265.196 177.277C265.193 175.599 264.483 174.098 263.36 173.081Z" fill="#76AE28"/>
<path d="M255.069 188.142V176.354L253.751 173.455L255.069 174.216V164.167C255.069 164.167 255.793 166.275 255.793 167.526C255.793 168.778 256.244 170.03 256.244 171.215V173.917L258.027 172.133C258.027 172.133 256.244 174.312 256.244 175.234C256.244 176.156 256.518 179.187 256.518 179.187C256.518 179.187 256.963 179.538 258.027 178.923C259.092 178.309 260.495 176.906 260.495 176.906C260.495 176.906 260.273 178.001 259.746 178.528C259.219 179.055 258.139 180.461 257.835 180.636C257.531 180.812 256.847 181.954 256.847 181.954V188.142H255.069Z" fill="#9FCD5F"/>
<path d="M236.481 172.259C236.721 171.649 236.844 171 236.842 170.345C236.842 167.827 235.092 165.786 232.934 165.786C230.775 165.786 229.025 167.827 229.025 170.345C229.025 170.452 229.029 170.558 229.035 170.662C228.046 171.237 227.254 172.097 226.763 173.13C226.271 174.163 226.105 175.321 226.284 176.45C226.463 177.58 226.98 178.629 227.767 179.459C228.554 180.29 229.574 180.862 230.692 181.102C231.811 181.342 232.975 181.237 234.033 180.802C235.091 180.367 235.993 179.622 236.619 178.665C237.246 177.708 237.568 176.584 237.543 175.44C237.519 174.297 237.148 173.187 236.481 172.258V172.259Z" fill="#76AE28"/>
<path d="M231.879 188.142V179.779C231.879 179.779 231.265 178.679 231.265 178.418V178.023L232.193 178.559V171.391C232.193 171.391 232.934 175.651 232.934 177.057V179.999C232.934 179.999 233.986 178.616 234.317 178.616C234.648 178.616 234.426 179.911 233.987 180.351C233.548 180.79 232.935 180.681 232.935 181.131C232.935 181.58 232.871 188.142 232.871 188.142H231.879Z" fill="#9FCD5F"/>
<path d="M125.891 154.435H149.005C149.005 154.435 146.897 147.895 139.914 150.135C139.017 144.445 133.962 145.751 131.555 148.158C130.297 145.655 128.019 146.105 128.019 146.105C128.019 146.105 126.214 149.775 125.891 154.435Z" fill="white"/>
<path d="M225.958 160.615H251.942C251.942 160.615 250.15 153.312 242.736 157.593C242.262 150.935 232.969 151.881 232.969 156.248C229.953 153.231 228.168 157.061 229.953 158.093C226.052 157.132 224.686 159.345 225.958 160.615Z" fill="white"/>
<path d="M200.847 133.665H221.972C221.972 133.665 222.323 127.802 217.514 131.294C217.514 127.736 213.074 127.427 212.362 130.184C212.362 125.884 206.446 126.221 206.446 128.79C203.416 128.395 198.805 129.844 200.847 133.665Z" fill="white"/>
<path d="M189.08 110.645L187.4 110.9L187.885 114.106L189.566 113.851L189.08 110.645Z" fill="#02232B"/>
<path d="M177.588 109.455L176.671 109.596L177.021 111.869L177.937 111.728L177.588 109.455Z" fill="#02232B"/>
<path d="M189.788 112.825L167.552 116.194C167.245 116.24 167.034 116.527 167.08 116.834L167.206 117.668C167.253 117.975 167.54 118.186 167.847 118.14L190.083 114.771C190.39 114.724 190.601 114.437 190.555 114.13L190.429 113.297C190.382 112.989 190.095 112.778 189.788 112.825Z" fill="#00A3CC"/>
<path d="M178.517 111.319L166.663 113.141C166.503 113.166 166.393 113.316 166.418 113.476L166.485 113.91C166.509 114.07 166.659 114.18 166.819 114.156L178.673 112.333C178.833 112.309 178.942 112.159 178.918 111.999L178.851 111.564C178.826 111.404 178.677 111.295 178.517 111.319Z" fill="#00A3CC"/>
<path d="M188.121 111.196C191.906 110.614 194.861 109.407 194.722 108.501C194.583 107.595 191.401 107.332 187.616 107.914C183.831 108.496 180.875 109.703 181.014 110.609C181.154 111.515 184.335 111.777 188.121 111.196Z" fill="#BDE9FF"/>
<path d="M177.246 110.286C179.81 109.892 181.812 109.075 181.717 108.461C181.623 107.847 179.468 107.669 176.904 108.064C174.341 108.458 172.339 109.275 172.433 109.888C172.527 110.502 174.682 110.68 177.246 110.286Z" fill="#BDE9FF"/>
<path d="M136.811 121.598L138.489 121.34L137.997 118.139L136.319 118.397L136.811 121.598Z" fill="#02232B"/>
<path d="M147.147 116.47L148.064 116.33L147.715 114.056L146.798 114.197L147.147 116.47Z" fill="#02232B"/>
<path d="M136.589 122.627L158.788 119.214C159.095 119.167 159.306 118.88 159.259 118.573L159.131 117.741C159.084 117.434 158.797 117.224 158.49 117.271L136.29 120.684C135.984 120.731 135.773 121.018 135.82 121.325L135.948 122.157C135.995 122.464 136.282 122.674 136.589 122.627Z" fill="#00A3CC"/>
<path d="M146.628 117.268L158.481 115.446C158.641 115.421 158.751 115.271 158.726 115.111L158.66 114.677C158.635 114.517 158.485 114.407 158.325 114.432L146.472 116.254C146.312 116.278 146.202 116.428 146.227 116.588L146.293 117.023C146.318 117.183 146.468 117.293 146.628 117.268Z" fill="#00A3CC"/>
<path d="M137.274 119.012C141.059 118.43 144.015 117.224 143.875 116.318C143.736 115.412 140.555 115.149 136.769 115.731C132.984 116.313 130.028 117.519 130.168 118.425C130.307 119.331 133.489 119.594 137.274 119.012Z" fill="#BDE9FF"/>
<path d="M147.373 114.878C149.936 114.484 151.938 113.667 151.844 113.053C151.75 112.44 149.595 112.262 147.031 112.656C144.467 113.05 142.465 113.867 142.559 114.481C142.654 115.094 144.809 115.272 147.373 114.878Z" fill="#BDE9FF"/>
<path d="M164.565 118.965L161.403 119.451C161.023 119.51 160.762 119.866 160.82 120.247L161.656 125.685C161.715 126.066 162.071 126.327 162.451 126.268L165.613 125.782C165.994 125.724 166.255 125.368 166.196 124.987L165.36 119.549C165.302 119.168 164.946 118.907 164.565 118.965Z" fill="#023240"/>
<path d="M158.756 109.003L164.624 108.101C165.663 107.942 166.722 108.201 167.57 108.823C168.417 109.444 168.983 110.377 169.143 111.416L169.625 114.556L155.925 116.662L155.442 113.522C155.282 112.483 155.542 111.424 156.163 110.576C156.785 109.729 157.718 109.163 158.756 109.003Z" fill="#FE4775"/>
<path d="M159.074 120.908L153.995 125.39L153.689 128.99L153.233 129.059C152.637 128.212 152.91 125.322 152.91 125.322L157.161 120.586L159.074 120.908ZM167.896 119.552L174.086 122.3L175.459 125.643L175.914 125.573C176.228 124.585 175.101 121.91 175.101 121.91L169.624 118.671L167.896 119.552Z" fill="#00A3CC"/>
<path d="M174.796 117.598C172.27 118.337 169.869 118.768 167.28 119.2C162.659 120.061 158.224 120.924 153.603 120.308C152.774 120.213 151.869 120.035 151.13 119.569L151.203 120.048C151.322 120.821 151.743 121.515 152.373 121.978C153.004 122.44 153.793 122.634 154.566 122.515L172.673 119.731C173.248 119.643 173.785 119.387 174.214 118.994C174.644 118.602 174.948 118.091 175.088 117.526C174.993 117.545 174.895 117.57 174.796 117.598Z" fill="#02232B"/>
<path d="M167.282 119.2C169.87 118.769 172.272 118.339 174.798 117.598C174.894 117.57 174.993 117.545 175.09 117.523C175.184 117.145 175.202 116.752 175.142 116.366L174.821 114.279C174.702 113.506 174.281 112.812 173.651 112.349C173.02 111.886 172.231 111.693 171.458 111.812L153.351 114.594C152.578 114.713 151.884 115.134 151.421 115.764C150.958 116.395 150.765 117.184 150.884 117.957L151.132 119.568C151.871 120.034 152.776 120.209 153.605 120.307C158.226 120.924 162.661 120.062 167.282 119.2Z" fill="#023240"/>
<path opacity="0.7" d="M165.909 125.741L165.115 125.863L163.303 126.142L162.508 126.265L136.137 168.38C137.723 178.695 205.296 168.309 203.711 157.994L165.909 125.741Z" fill="url(#paint0_linear_83_1363)"/>
<g opacity="0.3">
<path d="M166.487 128.109C167.69 129.562 176.042 139.541 198.238 161.222C188.073 147.79 165.628 127.05 166.487 128.109Z" fill="white"/>
<path d="M164.782 128.261C164.897 129.691 165.972 141.874 171.469 169.438C170.962 154.056 164.686 126.877 164.773 128.116C164.771 128.116 164.775 128.164 164.782 128.261Z" fill="white"/>
<path d="M183.728 162.626C184.581 164.393 185.581 166.145 186.057 167.075L183.728 162.626Z" fill="white"/>
<path d="M166.477 129.7L166.544 129.829C166.543 129.826 166.478 129.703 166.477 129.7Z" fill="white"/>
<path d="M182.707 160.274C179.565 152.522 169.266 133.767 166.492 129.695C170.665 139.665 179.373 156.189 185.645 167.298C184.712 164.943 183.731 162.591 182.707 160.274Z" fill="white"/>
<path d="M162.506 167.354C162.464 167.58 162.378 168.033 162.335 168.258C162.287 168.234 162.239 170.488 162.233 170.543C162.426 169.722 162.59 168.117 162.73 166.003C162.663 166.437 162.581 166.919 162.506 167.354Z" fill="white"/>
<path d="M163.507 129.7L163.501 129.903C163.507 129.836 163.509 129.768 163.507 129.7Z" fill="white"/>
<path d="M163.758 133.353C163.635 131.039 163.522 129.7 163.522 129.7C162.319 141.853 162.943 157.236 161.775 170.436C162.115 169.447 162.314 168.379 162.506 167.354C164.311 156.569 164.261 143.485 163.758 133.353Z" fill="white"/>
<path d="M161.55 130.886L161.487 131.166C161.514 131.074 161.535 130.98 161.55 130.886Z" fill="white"/>
<path d="M153.042 169.585C152.943 169.788 152.842 169.988 152.735 170.181L152.477 171.335C152.907 170.904 153.471 169.326 154.114 167.02C153.79 167.886 153.441 168.757 153.042 169.585Z" fill="white"/>
<path d="M154.853 161.349C155.674 157.588 156.299 154.532 156.994 151.197L153.101 168.552C153.784 166.19 154.341 163.657 154.853 161.349Z" fill="white"/>
<path d="M161.487 131.166C158.746 141.558 156.471 154.735 153.741 166.161C153.286 167.759 152.992 169.547 152.144 171.002C153.121 169.894 153.547 168.371 154.114 167.02C158.112 155.903 160.437 141.652 161.564 130.888C161.559 130.905 161.506 131.096 161.487 131.166Z" fill="white"/>
<path d="M160.036 133.479C159.27 134.649 152.835 144.653 140.711 169.139C149.509 157.026 160.785 132.36 160.112 133.36C160.114 133.361 160.087 133.4 160.036 133.479Z" fill="white"/>
</g>
<path d="M163.654 118.997C164.06 118.997 164.39 118.667 164.39 118.26C164.39 117.853 164.06 117.523 163.654 117.523C163.247 117.523 162.917 117.853 162.917 118.26C162.917 118.667 163.247 118.997 163.654 118.997Z" fill="#67848C"/>
<path d="M167.325 118.26C167.731 118.26 168.061 117.93 168.061 117.523C168.061 117.117 167.731 116.787 167.325 116.787C166.918 116.787 166.588 117.117 166.588 117.523C166.588 117.93 166.918 118.26 167.325 118.26Z" fill="#67848C"/>
<path d="M279.821 135.65L279.033 135.555L278.873 136.877L279.662 136.972L279.821 135.65Z" fill="#02232B"/>
<path d="M274.84 133.991L274.41 133.939L274.297 134.877L274.727 134.929L274.84 133.991Z" fill="#02232B"/>
<path d="M279.834 136.586L269.506 135.341C269.334 135.321 269.178 135.443 269.157 135.615L269.135 135.794C269.115 135.966 269.237 136.123 269.409 136.143L279.737 137.388C279.909 137.409 280.066 137.286 280.086 137.114L280.108 136.935C280.129 136.763 280.006 136.606 279.834 136.586Z" fill="#00A3CC"/>
<path d="M275.011 134.832L269.495 134.167C269.406 134.156 269.324 134.22 269.313 134.31L269.302 134.404C269.291 134.494 269.355 134.575 269.445 134.586L274.961 135.251C275.051 135.261 275.132 135.198 275.143 135.108L275.154 135.014C275.165 134.924 275.101 134.843 275.011 134.832Z" fill="#00A3CC"/>
<path d="M282.668 135.634C282.713 135.26 281.308 134.783 279.53 134.569C277.752 134.355 276.274 134.484 276.229 134.858C276.184 135.232 277.589 135.709 279.367 135.923C281.145 136.138 282.623 136.008 282.668 135.634Z" fill="#BDE9FF"/>
<path d="M276.802 134.093C276.832 133.839 275.88 133.516 274.676 133.371C273.472 133.226 272.471 133.314 272.44 133.567C272.41 133.821 273.361 134.144 274.566 134.289C275.77 134.434 276.771 134.346 276.802 134.093Z" fill="#BDE9FF"/>
<path d="M254.978 134.027L255.766 134.122L255.925 132.8L255.137 132.705L254.978 134.027Z" fill="#02232B"/>
<path d="M260.255 133.215L260.685 133.267L260.798 132.328L260.368 132.277L260.255 133.215Z" fill="#02232B"/>
<path d="M254.805 134.413L265.133 135.658C265.305 135.679 265.461 135.556 265.482 135.384L265.504 135.205C265.524 135.033 265.402 134.876 265.23 134.856L254.902 133.611C254.73 133.591 254.573 133.713 254.553 133.885L254.531 134.064C254.51 134.236 254.633 134.393 254.805 134.413Z" fill="#00A3CC"/>
<path d="M259.951 133.472L265.467 134.137C265.557 134.147 265.638 134.084 265.649 133.994L265.661 133.9C265.671 133.81 265.607 133.729 265.518 133.718L260.002 133.053C259.912 133.042 259.831 133.106 259.82 133.196L259.808 133.29C259.798 133.38 259.862 133.461 259.951 133.472Z" fill="#00A3CC"/>
<path d="M258.782 132.755C258.827 132.381 257.422 131.904 255.644 131.69C253.866 131.476 252.388 131.605 252.343 131.979C252.298 132.353 253.703 132.83 255.481 133.044C257.259 133.259 258.737 133.129 258.782 132.755Z" fill="#BDE9FF"/>
<path d="M262.768 132.401C262.799 132.148 261.847 131.825 260.643 131.68C259.438 131.535 258.437 131.623 258.407 131.876C258.376 132.129 259.328 132.452 260.532 132.597C261.736 132.743 262.738 132.655 262.768 132.401Z" fill="#BDE9FF"/>
<path d="M267.46 136.173L266.712 136.083C266.33 136.037 265.982 136.31 265.936 136.692L265.764 138.122C265.718 138.505 265.99 138.852 266.373 138.898L267.121 138.988C267.503 139.034 267.851 138.762 267.897 138.379L268.069 136.949C268.115 136.567 267.842 136.22 267.46 136.173Z" fill="#023240"/>
<path d="M266.814 131.653L268.728 131.884C269.327 131.956 269.874 132.264 270.247 132.739C270.62 133.214 270.789 133.818 270.717 134.418L270.638 135.07L264.201 134.294L264.28 133.643C264.315 133.346 264.409 133.059 264.556 132.798C264.703 132.537 264.899 132.308 265.135 132.123C265.37 131.938 265.64 131.802 265.928 131.721C266.216 131.64 266.517 131.617 266.814 131.653Z" fill="#FE4775"/>
<path d="M265.114 136.354L262.288 137.527L261.721 138.915L261.507 138.889C261.339 138.484 261.806 137.375 261.806 137.375L264.289 136.004L265.114 136.354ZM269.259 136.854L271.726 138.665L271.948 140.148L272.162 140.174C272.421 139.821 272.231 138.632 272.231 138.632L270.144 136.711L269.259 136.854Z" fill="#00A3CC"/>
<path d="M272.608 136.892C271.38 136.887 270.243 136.775 269.024 136.642C266.835 136.441 264.729 136.259 262.717 135.475C262.354 135.339 261.967 135.164 261.688 134.894L261.665 135.09C261.585 135.755 262.133 136.367 262.889 136.459L271.396 137.484C271.965 137.553 272.49 137.306 272.749 136.896C272.702 136.894 272.655 136.892 272.608 136.892Z" fill="#02232B"/>
<path d="M269.024 136.642C270.243 136.775 271.38 136.887 272.608 136.892C272.656 136.892 272.704 136.892 272.748 136.896C272.835 136.76 272.89 136.606 272.91 136.445L273.013 135.584C273.093 134.919 272.545 134.307 271.789 134.215L263.282 133.19C262.526 133.099 261.847 133.564 261.768 134.229L261.688 134.894C261.966 135.164 262.354 135.34 262.716 135.476C264.729 136.262 266.835 136.441 269.024 136.642Z" fill="#023240"/>
<path opacity="0.7" d="M267.625 139.064L267.252 139.016L266.401 138.914L266.027 138.869L249.106 152.406C248.594 156.663 280.339 160.49 280.852 156.233L267.625 139.064Z" fill="url(#paint1_linear_83_1363)"/>
<g opacity="0.3">
<path d="M267.604 140.067C267.974 140.781 270.556 145.702 277.996 156.867C275.007 150.37 267.343 139.548 267.604 140.067Z" fill="white"/>
<path d="M266.816 139.927C266.697 140.505 265.732 145.442 264.932 156.971C266.535 150.837 266.937 139.368 266.828 139.868L266.816 139.927Z" fill="white"/>
<path d="M271.276 155.719C271.451 156.517 271.693 157.326 271.798 157.748L271.276 155.719Z" fill="white"/>
<path d="M267.41 140.694C267.41 140.694 267.415 140.714 267.425 140.753C267.425 140.751 267.41 140.695 267.41 140.694Z" fill="white"/>
<path d="M271.097 154.67C270.601 151.24 268.186 142.626 267.414 140.692C268.111 145.119 270.075 152.665 271.584 157.788C271.447 156.749 271.284 155.705 271.097 154.67Z" fill="white"/>
<path d="M261.135 155.096C261.09 155.18 260.997 155.349 260.95 155.431C260.93 155.416 260.642 156.3 260.632 156.322C260.817 156.02 261.082 155.405 261.398 154.587C261.313 154.753 261.219 154.933 261.135 155.096Z" fill="white"/>
<path d="M266.07 140.345L266.042 140.426C266.053 140.399 266.062 140.372 266.07 140.345Z" fill="white"/>
<path d="M265.747 141.818C265.967 140.889 266.076 140.347 266.076 140.347C264.085 145.005 262.536 151.152 260.436 156.228C260.707 155.877 260.924 155.479 261.133 155.097C263.232 151.049 264.77 145.877 265.747 141.818Z" fill="white"/>
<path d="M265.045 140.584L264.983 140.688C265.006 140.655 265.027 140.62 265.045 140.584Z" fill="white"/>
<path d="M256.595 154.869C256.526 154.937 256.457 155.005 256.386 155.068L256.131 155.494C256.376 155.375 256.82 154.817 257.385 153.982C257.135 154.283 256.874 154.586 256.595 154.869Z" fill="white"/>
<path d="M258.393 151.827C259.212 150.44 259.858 149.305 260.569 148.07L256.744 154.466C257.334 153.613 257.887 152.679 258.393 151.827Z" fill="white"/>
<path d="M264.983 140.688C262.507 144.469 259.912 149.405 257.318 153.596C256.923 154.174 256.577 154.846 256.021 155.318C256.595 154.996 256.967 154.444 257.384 153.979C260.513 150.057 263.26 144.704 265.05 140.586C265.046 140.592 265 140.663 264.983 140.688Z" fill="white"/>
<path d="M264.053 141.428C263.567 141.8 259.471 144.996 251.083 153.243C256.497 149.492 264.524 141.076 264.102 141.392L264.053 141.428Z" fill="white"/>
</g>
<path d="M267.854 135.891C267.874 135.725 267.737 135.572 267.549 135.549C267.36 135.526 267.19 135.642 267.17 135.808C267.15 135.974 267.287 136.127 267.476 136.15C267.664 136.173 267.834 136.057 267.854 135.891Z" fill="#67848C"/>
<path d="M269.599 136.031C269.619 135.865 269.482 135.712 269.294 135.689C269.105 135.666 268.935 135.782 268.915 135.948C268.895 136.114 269.032 136.267 269.221 136.29C269.409 136.313 269.579 136.197 269.599 136.031Z" fill="#67848C"/>
<path d="M105.661 149.189C110.667 149.189 114.726 145.13 114.726 140.124C114.726 135.117 110.667 131.059 105.661 131.059C100.655 131.059 96.5962 135.117 96.5962 140.124C96.5962 145.13 100.655 149.189 105.661 149.189Z" fill="#BDE9FF"/>
<path d="M94.8575 192.049C94.8575 192.049 99.5901 209.608 99.2897 214.572L99.8159 215.911L100.211 215.516C100.211 215.516 99.0979 206.371 97.4845 199.193C96.8564 196.402 96.7708 193.29 95.7218 192.052C94.371 190.701 94.8575 192.049 94.8575 192.049Z" fill="#DD1F56"/>
<path d="M97.7527 183.337C97.7527 183.337 94.5904 183.014 94.3708 182.093C94.9855 184.465 97.8239 184.803 97.8239 184.803L97.7527 183.337Z" fill="#EA716E"/>
<path d="M83.3914 243.49C83.3914 243.49 87.9135 241.382 88.6387 237.78C89.8914 237.78 89.8914 238.132 89.8914 238.132C89.8914 238.132 90.2578 243.562 83.9257 244.097L83.3914 243.49Z" fill="#021418"/>
<path d="M244.484 148.802H259.241C259.241 148.802 258.045 144.743 254.893 146.562C254.014 143.224 251.028 144.761 251.028 146.65C248.92 143.224 247.558 146.254 247.823 147.22C246.174 145.398 244.353 146.745 244.484 148.802Z" fill="white"/>
<path d="M272.52 219.374C273.211 223.952 273.541 228.573 273.577 233.195C273.632 239.999 273.051 246.805 272.056 253.474L271.626 254C271.475 254.101 271.323 254.201 271.171 254.301C272.193 247.25 272.948 239.888 272.893 232.572C272.829 223.597 271.55 214.689 268.062 206.503C268.291 206.404 268.506 206.276 268.701 206.12C270.618 210.267 271.793 214.798 272.52 219.374Z" fill="#69A31A"/>
<path d="M275.834 236.84C271.679 241.062 275.561 246.145 279.82 242.059C283.975 237.839 280.092 232.754 275.834 236.84Z" fill="#69A31A"/>
<path d="M275.15 227.4C272.056 231.219 276.331 235.89 279.533 232.188C282.626 228.368 278.35 223.698 275.15 227.4Z" fill="#69A31A"/>
<path d="M278.167 214.97C276.598 214.929 275.172 216.199 274.32 217.623C273.167 219.416 273.472 221.993 275.854 221.579C277.194 221.339 278.504 220.153 279.185 218.804C279.959 217.427 280.048 215.014 278.167 214.97Z" fill="#69A31A"/>
<path d="M275.8 206.043C273.822 204.92 271.615 206.569 270.947 208.742C269.911 211.827 272.37 213.201 274.572 211.899C276.142 210.96 277.781 207.496 275.8 206.043Z" fill="#69A31A"/>
<path d="M268.704 206.114C270.434 204.804 270.009 201.638 268.283 200.459C266.414 199.028 264.108 200.593 263.877 202.968C263.422 206.018 266.68 207.753 268.704 206.114Z" fill="#69A31A"/>
<path d="M269.128 212.806C269.682 209.007 262.814 207.508 262.256 211.306C261.699 215.105 268.568 216.605 269.128 212.806Z" fill="#69A31A"/>
<path d="M266.941 223.16C267.922 223.865 269.323 224.137 270.413 223.751C271.828 223.342 272.518 221.676 271.426 220.344C270.165 218.785 267.825 218.231 266.256 219.353C264.887 220.374 265.722 222.401 266.941 223.16Z" fill="#69A31A"/>
<path d="M269.643 232.632C271.53 233.455 273.493 232.24 272.425 229.846C271.564 227.834 268.443 225.594 266.789 227.373C266.105 228.251 266.567 229.813 267.264 230.741C267.832 231.556 268.781 232.311 269.643 232.632Z" fill="#69A31A"/>
<path d="M272.675 240.134C272.409 238.535 271.215 237.141 269.966 236.395C268.328 235.327 266.118 235.861 266.726 238.444C267.075 239.918 268.265 241.293 269.492 241.919C270.958 242.776 273.028 242.303 272.675 240.134Z" fill="#69A31A"/>
<path d="M259.082 241.444C259.082 241.444 253.17 242.888 251.437 238.802C254.798 235.995 259.082 241.444 259.082 241.444Z" fill="#F0F44D"/>
<path d="M257.572 237.473C257.572 237.473 251.478 238.697 250.115 233.161C251.535 232.535 253.382 232.989 254.794 234.101C256.454 235.409 257.572 237.473 257.572 237.473Z" fill="#F0F44D"/>
<path d="M256.23 232.004C256.23 232.004 250.135 233.227 248.773 227.692C250.193 227.066 252.04 227.52 253.451 228.632C255.112 229.94 256.23 232.004 256.23 232.004Z" fill="#F0F44D"/>
<path d="M255.55 227.345C255.55 227.345 249.455 228.569 248.094 223.033C249.513 222.407 251.361 222.861 252.772 223.973C254.432 225.28 255.55 227.345 255.55 227.345Z" fill="#F0F44D"/>
<path d="M258.608 241.477C258.608 241.477 264.516 240.016 264.156 235.593C259.878 234.664 258.608 241.477 258.608 241.477Z" fill="#F0F44D"/>
<path d="M258.105 237.258C258.105 237.258 264.073 235.516 262.714 229.981C261.165 230.085 259.739 231.343 259.004 232.983C258.138 234.911 258.105 237.258 258.105 237.258Z" fill="#F0F44D"/>
<path d="M256.759 231.79C256.759 231.79 262.726 230.049 261.367 224.513C259.819 224.617 258.392 225.875 257.657 227.514C256.793 229.441 256.759 231.79 256.759 231.79Z" fill="#F0F44D"/>
<path d="M255.204 227.347C255.204 227.347 261.172 225.606 259.812 220.07C258.264 220.173 256.837 221.431 256.102 223.071C255.235 225 255.204 227.347 255.204 227.347Z" fill="#F0F44D"/>
<path d="M266.304 253.693C260.811 246.579 257.964 238.902 256.49 232.716C255.017 226.529 254.917 221.833 254.917 220.688C254.917 220.599 254.917 220.532 254.917 220.487C254.917 220.464 254.917 220.447 254.917 220.436C254.917 220.425 254.917 220.426 254.917 220.423V220.42C254.918 220.369 254.899 220.32 254.864 220.283C254.829 220.246 254.781 220.225 254.73 220.223C254.68 220.222 254.631 220.241 254.594 220.276C254.557 220.311 254.535 220.359 254.534 220.41C254.534 220.41 254.532 220.505 254.532 220.688C254.532 221.854 254.632 226.577 256.115 232.803C257.597 239.028 260.462 246.756 265.997 253.925C266.028 253.965 266.074 253.991 266.124 253.998C266.174 254.004 266.225 253.991 266.265 253.96C266.306 253.929 266.332 253.883 266.338 253.833C266.345 253.782 266.331 253.731 266.3 253.691L266.304 253.693Z" fill="#F0F44D"/>
<path d="M254.973 223.998C254.973 223.998 250.403 218.654 255.141 214.122C257.08 218.402 255.966 223.728 254.973 223.998Z" fill="#F0F44D"/>
<path d="M162.694 260.891C162.694 260.891 157.43 262.177 155.886 258.539C158.878 256.04 162.694 260.891 162.694 260.891Z" fill="#F0F44D"/>
<path d="M161.349 257.355C161.349 257.355 155.922 258.445 154.709 253.516C155.973 252.959 157.618 253.362 158.875 254.353C160.353 255.517 161.349 257.355 161.349 257.355Z" fill="#F0F44D"/>
<path d="M160.153 252.485C160.153 252.485 154.726 253.575 153.513 248.646C154.778 248.089 156.423 248.493 157.679 249.483C159.158 250.647 160.153 252.485 160.153 252.485Z" fill="#F0F44D"/>
<path d="M159.548 248.336C159.548 248.336 154.122 249.426 152.908 244.497C154.173 243.939 155.818 244.343 157.074 245.333C158.553 246.499 159.548 248.336 159.548 248.336Z" fill="#F0F44D"/>
<path d="M162.27 260.921C162.27 260.921 167.532 259.62 167.212 255.68C163.402 254.854 162.27 260.921 162.27 260.921Z" fill="#F0F44D"/>
<path d="M161.823 257.164C161.823 257.164 167.137 255.614 165.926 250.684C164.548 250.777 163.277 251.897 162.623 253.357C161.853 255.074 161.823 257.164 161.823 257.164Z" fill="#F0F44D"/>
<path d="M160.625 252.295C160.625 252.295 165.938 250.745 164.728 245.815C163.35 245.908 162.079 247.027 161.425 248.488C160.655 250.205 160.625 252.295 160.625 252.295Z" fill="#F0F44D"/>
<path d="M159.238 248.339C159.238 248.339 164.552 246.789 163.341 241.859C161.962 241.951 160.692 243.071 160.038 244.531C159.268 246.249 159.238 248.339 159.238 248.339Z" fill="#F0F44D"/>
<path d="M169.14 271.784C164.252 265.453 161.717 258.62 160.406 253.114C159.095 247.607 159.006 243.428 159.007 242.411C159.007 242.331 159.007 242.271 159.007 242.231C159.007 242.211 159.007 242.196 159.007 242.186C159.007 242.183 159.007 242.179 159.007 242.175V242.172C159.008 242.121 158.989 242.072 158.954 242.035C158.919 241.998 158.871 241.977 158.82 241.975C158.77 241.974 158.72 241.993 158.684 242.028C158.647 242.063 158.625 242.111 158.624 242.162C158.624 242.162 158.624 242.249 158.624 242.411C158.624 243.45 158.713 247.657 160.034 253.202C161.354 258.748 163.908 265.631 168.835 272.018C168.866 272.057 168.912 272.082 168.962 272.088C169.011 272.094 169.062 272.08 169.101 272.05C169.141 272.019 169.167 271.974 169.174 271.924C169.181 271.875 169.168 271.824 169.138 271.784H169.14Z" fill="#F0F44D"/>
<path d="M159.034 245.357C159.034 245.357 154.965 240.599 159.183 236.563C160.911 240.374 159.92 245.116 159.034 245.357Z" fill="#F0F44D"/>
<path d="M281.323 229.837C281.323 229.837 286.142 231.014 287.554 227.685C284.813 225.398 281.323 229.837 281.323 229.837Z" fill="#F0F44D"/>
<path d="M282.554 226.601C282.554 226.601 287.52 227.598 288.629 223.088C287.472 222.578 285.967 222.947 284.816 223.853C283.465 224.919 282.554 226.601 282.554 226.601Z" fill="#F0F44D"/>
<path d="M283.648 222.145C283.648 222.145 288.614 223.142 289.723 218.631C288.566 218.121 287.061 218.49 285.91 219.396C284.559 220.463 283.648 222.145 283.648 222.145Z" fill="#F0F44D"/>
<path d="M284.202 218.348C284.202 218.348 289.168 219.345 290.277 214.834C289.12 214.324 287.614 214.694 286.464 215.599C285.113 216.666 284.202 218.348 284.202 218.348Z" fill="#F0F44D"/>
<path d="M281.71 229.864C281.71 229.864 276.895 228.673 277.187 225.069C280.675 224.312 281.71 229.864 281.71 229.864Z" fill="#F0F44D"/>
<path d="M282.12 226.428C282.12 226.428 277.257 225.009 278.365 220.497C279.626 220.581 280.789 221.606 281.388 222.942C282.092 224.515 282.12 226.428 282.12 226.428Z" fill="#F0F44D"/>
<path d="M283.216 221.97C283.216 221.97 278.354 220.552 279.462 216.039C280.723 216.124 281.885 217.149 282.485 218.485C283.189 220.058 283.216 221.97 283.216 221.97Z" fill="#F0F44D"/>
<path d="M284.486 218.349C284.486 218.349 279.623 216.931 280.731 212.418C281.992 212.503 283.155 213.527 283.754 214.864C284.458 216.437 284.486 218.349 284.486 218.349Z" fill="#F0F44D"/>
<path d="M285.062 212.696C285.061 212.646 285.039 212.598 285.002 212.563C284.966 212.528 284.917 212.509 284.866 212.51C284.815 212.511 284.767 212.533 284.732 212.569C284.697 212.606 284.678 212.655 284.679 212.706V212.709C284.679 212.724 284.679 212.797 284.679 212.924C284.679 213.855 284.599 217.678 283.399 222.716C282.2 227.753 279.881 234.004 275.409 239.796C275.393 239.816 275.381 239.839 275.374 239.863C275.367 239.888 275.365 239.914 275.368 239.939C275.371 239.964 275.379 239.988 275.392 240.01C275.404 240.033 275.421 240.052 275.441 240.067C275.461 240.083 275.484 240.094 275.509 240.101C275.533 240.107 275.559 240.109 275.584 240.106C275.609 240.102 275.633 240.094 275.655 240.081C275.677 240.068 275.696 240.051 275.711 240.03C280.226 234.183 282.562 227.881 283.771 222.804C284.981 217.728 285.063 213.876 285.063 212.924C285.064 212.776 285.062 212.7 285.062 212.696Z" fill="#F0F44D"/>
<path d="M284.672 215.621C284.672 215.621 288.396 211.268 284.535 207.573C282.955 211.061 283.862 215.4 284.672 215.621Z" fill="#F0F44D"/>
<path d="M119.788 267.392V281.436C118.322 281.334 117.051 281.225 116.177 281.145V267.393L119.788 267.392Z" fill="white"/>
<path d="M127.205 259.796V281.723C126.035 281.727 124.805 281.697 123.594 281.648V259.796H127.205Z" fill="white"/>
<path d="M134.706 254.481V281.162C133.302 281.311 132.059 281.44 131.095 281.538V254.481H134.706Z" fill="white"/>
<path d="M141.456 257.59V280.434C140.244 280.566 139.023 280.698 137.845 280.825V257.59H141.456Z" fill="white"/>
<path d="M149.464 251.047V279.556C148.423 279.671 147.189 279.808 145.853 279.954V251.047H149.464Z" fill="white"/>
<path d="M148.623 243.928C148.579 243.883 148.518 243.858 148.454 243.858C148.391 243.858 148.33 243.883 148.285 243.928L140.196 252.019L133.19 249.394C133.153 249.38 133.112 249.376 133.073 249.382C133.033 249.387 132.995 249.403 132.963 249.427L125.275 255.157L116.072 259.582C116.042 259.594 116.015 259.613 115.993 259.636C115.97 259.66 115.953 259.687 115.941 259.717C115.93 259.748 115.924 259.78 115.926 259.813C115.927 259.845 115.935 259.877 115.949 259.906C115.963 259.935 115.983 259.961 116.008 259.982C116.032 260.004 116.06 260.02 116.091 260.03C116.122 260.04 116.155 260.043 116.187 260.04C116.219 260.037 116.251 260.028 116.279 260.012L125.503 255.578C125.516 255.571 125.53 255.563 125.542 255.554L133.145 249.887L140.173 252.521C140.216 252.537 140.263 252.54 140.307 252.53C140.352 252.521 140.393 252.498 140.426 252.466L148.623 244.267C148.646 244.245 148.664 244.219 148.676 244.19C148.688 244.16 148.694 244.129 148.694 244.098C148.694 244.066 148.688 244.035 148.676 244.006C148.664 243.976 148.646 243.95 148.623 243.928Z" fill="white"/>
<path d="M117.287 261.274C118.099 261.274 118.758 260.616 118.758 259.804C118.758 258.992 118.099 258.333 117.287 258.333C116.475 258.333 115.817 258.992 115.817 259.804C115.817 260.616 116.475 261.274 117.287 261.274Z" fill="white"/>
<path d="M125.399 256.831C126.211 256.831 126.87 256.173 126.87 255.36C126.87 254.548 126.211 253.89 125.399 253.89C124.587 253.89 123.929 254.548 123.929 255.36C123.929 256.173 124.587 256.831 125.399 256.831Z" fill="white"/>
<path d="M132.901 251.047C133.713 251.047 134.371 250.389 134.371 249.577C134.371 248.765 133.713 248.107 132.901 248.107C132.088 248.107 131.43 248.765 131.43 249.577C131.43 250.389 132.088 251.047 132.901 251.047Z" fill="white"/>
<path d="M139.988 254.058C140.8 254.058 141.458 253.4 141.458 252.588C141.458 251.775 140.8 251.117 139.988 251.117C139.176 251.117 138.517 251.775 138.517 252.588C138.517 253.4 139.176 254.058 139.988 254.058Z" fill="white"/>
<path d="M148.455 245.716C149.267 245.716 149.925 245.057 149.925 244.245C149.925 243.433 149.267 242.775 148.455 242.775C147.643 242.775 146.984 243.433 146.984 244.245C146.984 245.057 147.643 245.716 148.455 245.716Z" fill="white"/>
<path d="M164.796 275.959C164.796 275.959 166.429 271.165 162.101 269.478C161.445 270.559 161.616 272.099 162.365 273.358C163.246 274.838 164.796 275.959 164.796 275.959Z" fill="#F0F44D"/>
<path d="M160.518 274.296C160.518 274.296 162.153 269.501 157.824 267.814C157.168 268.895 157.339 270.436 158.088 271.694C158.969 273.174 160.518 274.296 160.518 274.296Z" fill="#F0F44D"/>
<path d="M156.826 273.253C156.826 273.253 158.46 268.459 154.132 266.772C153.476 267.853 153.647 269.393 154.396 270.651C155.277 272.131 156.826 273.253 156.826 273.253Z" fill="#F0F44D"/>
<path d="M164.566 276.366C164.566 276.366 162.527 281.006 158.198 279.32C158.446 278.08 159.613 277.061 161.016 276.642C162.666 276.146 164.566 276.366 164.566 276.366Z" fill="#F0F44D"/>
<path d="M160.29 274.701C160.29 274.701 158.252 279.338 153.922 277.653C154.17 276.414 155.337 275.394 156.74 274.975C158.389 274.479 160.29 274.701 160.29 274.701Z" fill="#F0F44D"/>
<path d="M156.865 272.97C156.865 272.97 154.826 277.61 150.497 275.924C150.744 274.685 151.912 273.665 153.314 273.246C154.965 272.75 156.865 272.97 156.865 272.97Z" fill="#F0F44D"/>
<path d="M160.09 273.794C155.02 271.999 151.354 271.613 151.34 271.611C151.308 271.608 151.275 271.611 151.244 271.62C151.213 271.629 151.184 271.645 151.159 271.665C151.134 271.685 151.113 271.711 151.098 271.739C151.082 271.768 151.073 271.799 151.069 271.831C151.066 271.863 151.069 271.896 151.078 271.927C151.087 271.958 151.103 271.987 151.123 272.012C151.143 272.037 151.168 272.058 151.197 272.073C151.225 272.089 151.257 272.098 151.289 272.102H151.298C151.506 272.124 155.178 272.548 160.162 274.343C162.099 275.039 163.991 275.857 165.826 276.792L166.625 276.648C164.518 275.541 162.334 274.587 160.09 273.794Z" fill="#F0F44D"/>
<path d="M154.183 272.433C154.183 272.433 150.349 268.175 146.186 271.524C149.439 273.544 153.859 273.209 154.183 272.433Z" fill="#F0F44D"/>
<path d="M264.686 251.132C264.686 251.132 264.808 246.951 267.382 242.322C271.904 244.933 273.804 252.621 273.804 252.621C273.804 252.621 269.99 254.677 269.59 254.469C269.19 254.261 264.686 251.132 264.686 251.132Z" fill="#417300"/>
<path d="M272.512 253.279C270.522 254.254 268.483 255.127 266.404 255.893C266.079 256.014 265.752 256.133 265.424 256.251C264.537 256.566 263.64 256.868 262.731 257.156C260.863 257.749 258.953 258.285 257.016 258.77C247.674 253.727 228.462 241.006 228.546 221.705C233.252 225.478 241.958 231.788 250.484 237.845C259.961 244.578 269.219 250.999 272.512 253.279Z" fill="#69A31A"/>
<path d="M266.1 255.77C266.202 255.812 266.304 255.854 266.404 255.895C266.079 256.016 265.752 256.135 265.423 256.252C264.087 255.795 262.628 255.237 261.085 254.562C260.101 254.132 259.082 253.653 258.042 253.123C256.615 252.397 255.149 251.572 253.671 250.647C252.931 250.187 252.193 249.695 251.45 249.186C251.083 248.927 250.71 248.666 250.342 248.397C249.974 248.128 249.603 247.855 249.239 247.571C248.501 247.013 247.795 246.433 247.104 245.857C246.419 245.272 245.75 244.69 245.113 244.095C243.831 242.914 242.654 241.713 241.574 240.534C239.665 238.444 237.909 236.22 236.319 233.878C235.247 232.305 234.266 230.673 233.381 228.988C232.759 227.792 232.476 227.105 232.476 227.105C232.476 227.105 232.834 227.758 233.562 228.882C234.29 230.006 235.387 231.604 236.862 233.481C238.587 235.675 240.435 237.769 242.397 239.753C243.505 240.869 244.695 242.011 245.977 243.142C246.613 243.711 247.279 244.271 247.956 244.836C248.64 245.393 249.335 245.956 250.056 246.504C250.413 246.782 250.777 247.047 251.135 247.317C251.492 247.586 251.856 247.84 252.213 248.098C252.935 248.605 253.648 249.099 254.366 249.564C255.795 250.502 257.206 251.354 258.575 252.123C259.07 252.4 259.56 252.667 260.044 252.923C262.235 254.083 264.292 255.026 266.1 255.77Z" fill="#BCD845"/>
<path d="M261.41 257.046L259.034 258.245C252.984 259.89 246.612 261.001 240.392 261.737C235.609 259.659 229.821 255.357 226.568 246.448C236.825 239.685 261.41 257.046 261.41 257.046Z" fill="#588A16"/>
<path d="M253.083 259.678C252.225 259.86 251.364 260.033 250.5 260.196C250.412 260.178 250.324 260.158 250.236 260.139C247.966 259.634 245.749 258.915 243.615 257.99L243.19 257.808L242.774 257.613L241.951 257.224L241.155 256.812L240.762 256.607C240.633 256.539 240.506 256.464 240.38 256.394L239.626 255.967C239.38 255.823 239.14 255.671 238.9 255.526L238.544 255.307C238.426 255.235 238.312 255.157 238.197 255.083C237.968 254.932 237.742 254.783 237.519 254.636C236.639 254.028 235.818 253.431 235.08 252.832C234.706 252.539 234.362 252.237 234.024 251.954C233.858 251.811 233.697 251.667 233.54 251.524C233.382 251.38 233.229 251.246 233.082 251.107L232.652 250.704C232.515 250.569 232.382 250.438 232.252 250.311C231.992 250.06 231.759 249.809 231.535 249.581C231.099 249.114 230.731 248.705 230.443 248.36C230.156 248.015 229.938 247.743 229.796 247.555C229.661 247.379 229.591 247.278 229.583 247.268C229.592 247.277 229.678 247.364 229.84 247.518C230.009 247.68 230.262 247.917 230.596 248.213C230.93 248.509 231.344 248.863 231.83 249.266C232.077 249.463 232.336 249.679 232.62 249.896L233.055 250.235L233.518 250.584C233.675 250.704 233.839 250.823 234.008 250.945C234.176 251.066 234.346 251.192 234.522 251.317C234.878 251.562 235.242 251.825 235.631 252.08C236.399 252.603 237.243 253.125 238.134 253.663L238.818 254.06C238.934 254.126 239.048 254.197 239.166 254.261L239.523 254.456C239.762 254.587 240.001 254.722 240.246 254.853L240.992 255.241C241.118 255.305 241.243 255.373 241.37 255.437C241.498 255.5 241.628 255.562 241.757 255.625L242.537 256.008L243.34 256.375C243.474 256.437 243.608 256.499 243.744 256.561L244.156 256.737C246.224 257.635 248.348 258.398 250.515 259.021C251.41 259.275 252.267 259.492 253.083 259.678Z" fill="#C4DD5D"/>
<path d="M291.282 232.335C291.154 232.807 291.019 233.281 290.877 233.759C289.646 237.944 287.471 241.544 284.592 244.637C281.542 247.913 277.701 250.622 273.351 252.857C273.211 250.637 273.006 242.714 276.522 235.692C278.913 230.914 283.027 226.556 290.054 224.694C290.87 227.159 291.285 229.739 291.282 232.335Z" fill="#588A16"/>
<path d="M288.993 229.829C288.978 229.847 288.724 230.126 288.275 230.605L287.911 231.04L287.702 231.286C287.667 231.329 287.629 231.372 287.593 231.417C287.556 231.462 287.521 231.513 287.484 231.56L287.013 232.175C286.97 232.228 286.929 232.284 286.889 232.343C286.848 232.402 286.807 232.46 286.765 232.519L286.507 232.885C285.692 234.072 284.945 235.304 284.268 236.575C283.493 238.017 282.704 239.648 281.938 241.406C281.909 241.473 281.881 241.539 281.852 241.604C281.117 243.289 280.456 244.925 279.879 246.437C279.43 247.609 279.028 248.704 278.678 249.69C278.37 249.902 278.058 250.111 277.742 250.317C278.013 249.029 278.382 247.518 278.875 245.882C279.404 244.101 280.043 242.354 280.786 240.651C280.808 240.6 280.831 240.548 280.854 240.497C281.563 238.88 282.397 237.321 283.349 235.834C284.131 234.606 285.021 233.45 286.008 232.38C286.114 232.268 286.218 232.16 286.319 232.055L286.468 231.899C286.516 231.847 286.566 231.797 286.617 231.751C286.818 231.564 287.008 231.388 287.185 231.222C287.229 231.181 287.273 231.141 287.316 231.101C287.359 231.061 287.405 231.027 287.447 230.992L287.698 230.787L288.135 230.432C288.669 230.048 288.974 229.842 288.993 229.829Z" fill="#C4DD5D"/>
<path d="M202.869 239.838C202.598 239.801 202.333 239.731 202.08 239.63C197.517 254.08 186.151 265.141 174.354 274.255L176.249 273.872C184.171 267.655 191.419 260.479 197.038 252.114C199.539 248.323 201.638 244.222 202.869 239.838Z" fill="#69A31A"/>
<path d="M191.598 268.33C190.215 268.986 185.261 271.028 183.532 271.739C182.261 269.725 183.775 266.903 187.941 266.994C189.624 267.078 190.839 267.605 191.598 268.33Z" fill="#69A31A"/>
<path d="M193.773 259.785C188.622 260.161 188.995 266.694 194.156 266.481C199.308 266.105 198.934 259.572 193.773 259.785Z" fill="#69A31A"/>
<path d="M204.7 253.245C203.428 252.035 201.387 251.861 199.715 252.229C197.546 252.631 196.052 254.688 198.305 256.189C199.577 257.027 201.465 257.174 202.942 256.733C204.518 256.338 206.227 254.697 204.7 253.245Z" fill="#69A31A"/>
<path d="M208.792 245.134C207.917 242.847 204.969 242.356 202.945 243.39C199.996 244.798 201.1 247.624 203.806 248.359C205.744 248.878 209.449 247.657 208.792 245.134Z" fill="#69A31A"/>
<path d="M202.869 239.838C205.19 240.213 206.983 237.648 206.355 235.511C205.777 233.088 202.807 232.46 201.006 233.97C198.561 235.791 200.082 239.475 202.869 239.838Z" fill="#69A31A"/>
<path d="M198.683 244.902C201.718 242.626 197.049 236.39 194.011 238.661C190.972 240.932 195.645 247.174 198.683 244.902Z" fill="#69A31A"/>
<path d="M189.852 250.595C190.187 251.834 191.163 253.083 192.326 253.63C193.776 254.406 195.478 253.746 195.475 251.977C195.488 249.922 193.926 247.767 191.866 247.379C190.04 247.072 189.357 249.138 189.852 250.595Z" fill="#69A31A"/>
<path d="M185.668 259.346C186.672 261.352 189.122 261.969 189.86 259.467C190.511 257.391 189.446 253.453 186.87 253.468C185.709 253.576 185.032 255.032 184.981 256.213C184.896 257.217 185.171 258.47 185.668 259.346Z" fill="#69A31A"/>
<path d="M183.093 266.95C183.954 265.615 183.912 263.727 183.384 262.258C182.752 260.267 180.562 258.98 179.312 261.269C178.602 262.578 178.655 264.448 179.246 265.817C179.879 267.529 181.914 268.754 183.093 266.95Z" fill="#69A31A"/>
<path d="M170.181 275.804L169.533 275.96C168.886 275.181 168.227 274.41 167.556 273.649C161.78 267.107 155.089 261.442 147.138 259.355C147.192 259.159 147.224 258.958 147.234 258.755C150.152 259.408 152.932 260.725 155.531 262.36C159.976 265.213 164.007 268.835 167.672 272.891C168.528 273.84 169.364 274.811 170.181 275.804Z" fill="#69A31A"/>
<path d="M165.694 268.245C165.935 272.949 170.198 272.73 170.07 268.02C169.828 263.316 165.564 263.535 165.694 268.245Z" fill="#69A31A"/>
<path d="M160.694 264.332C161.21 268.149 165.443 267.477 165.033 263.644C164.517 259.829 160.285 260.5 160.694 264.332Z" fill="#69A31A"/>
<path d="M155.864 256.584C155.142 257.604 155.137 259.136 155.464 260.36C155.84 261.951 157.257 262.943 158.116 261.173C158.594 260.173 158.591 258.759 158.226 257.685C157.886 256.534 156.727 255.359 155.864 256.584Z" fill="#69A31A"/>
<path d="M150.368 254.023C148.926 254.813 148.761 257.038 149.541 258.485C150.612 260.598 152.394 259.605 152.73 257.544C152.966 256.07 151.976 253.382 150.368 254.023Z" fill="#69A31A"/>
<path d="M147.232 258.755C147.354 257.003 145.591 255.821 144.232 256.418C142.686 256.992 142.433 259.245 143.511 260.496C144.825 262.207 147.143 260.854 147.232 258.755Z" fill="#69A31A"/>
<path d="M150.749 261.569C149.108 259.445 145.296 263.299 146.933 265.426C148.569 267.554 152.387 263.697 150.749 261.569Z" fill="#69A31A"/>
<path d="M154.919 267.807C155.707 267.483 156.469 266.681 156.764 265.78C157.195 264.654 156.674 263.425 155.521 263.532C154.181 263.647 152.861 264.94 152.718 266.498C152.616 267.878 153.997 268.263 154.919 267.807Z" fill="#69A31A"/>
<path d="M160.835 270.398C162.087 269.53 162.361 267.667 160.691 267.268C159.304 266.907 156.799 267.937 156.943 269.856C157.075 270.717 158.058 271.132 158.83 271.1C159.489 271.101 160.291 270.821 160.835 270.398Z" fill="#69A31A"/>
<path d="M165.92 271.86C165.006 271.297 163.779 271.443 162.85 271.925C161.587 272.515 160.865 274.226 162.42 275.019C163.309 275.469 164.524 275.317 165.385 274.794C166.466 274.22 167.156 272.629 165.92 271.86Z" fill="#69A31A"/>
<path d="M178.862 273.371C177.215 273.898 175.457 274.418 173.588 274.931C173.205 275.035 172.818 275.139 172.427 275.243C171.348 275.53 170.232 275.811 169.078 276.086C168.57 274.601 168.167 273.083 167.872 271.542C167.021 267.102 166.8 260.938 170.242 255.984C171.47 254.217 173.163 252.604 175.46 251.278C180.365 261.589 179.906 269.143 178.862 273.371Z" fill="#588A16"/>
<path d="M174.821 255.606C174.81 255.654 174.457 257.18 174.094 259.633C173.913 260.877 173.722 262.362 173.585 264.01C173.508 264.833 173.46 265.699 173.409 266.593C173.401 266.817 173.391 267.042 173.383 267.27C173.378 267.384 173.373 267.498 173.368 267.613C173.363 267.728 173.363 267.844 173.36 267.958C173.354 268.189 173.349 268.422 173.343 268.657C173.338 268.891 173.34 269.127 173.338 269.365C173.318 271.223 173.402 273.081 173.59 274.93C173.207 275.033 172.82 275.137 172.429 275.241C172.406 275.119 172.381 274.996 172.358 274.872C172.339 274.767 172.317 274.662 172.3 274.556C172.283 274.45 172.268 274.342 172.252 274.235C172.22 274.018 172.189 273.8 172.157 273.58C172.121 273.359 172.103 273.134 172.076 272.91C172.05 272.686 172.028 272.455 172.005 272.224C171.989 271.993 171.972 271.761 171.957 271.525C171.942 271.29 171.922 271.053 171.918 270.813C171.904 270.335 171.884 269.849 171.894 269.358C171.894 269.113 171.894 268.869 171.903 268.627C171.913 268.385 171.923 268.144 171.933 267.905C171.939 267.786 171.942 267.666 171.951 267.548C171.959 267.431 171.968 267.312 171.976 267.195C171.995 266.961 172.013 266.729 172.03 266.497C172.122 265.578 172.23 264.693 172.376 263.857C172.624 262.377 172.963 260.915 173.39 259.477C173.753 258.252 174.116 257.282 174.381 256.621C174.638 255.981 174.81 255.628 174.821 255.606Z" fill="#C4DD5D"/>
<path d="M155.992 193.774C153.478 189.593 150.252 186.29 146.418 183.938C142.584 181.587 138.152 180.187 133.228 179.802C132.276 179.728 131.351 179.695 130.463 179.695C124.821 179.695 120.644 181 120.112 181.174C120.087 181.182 120.065 181.194 120.045 181.21C120.025 181.226 120.009 181.246 119.997 181.269C119.986 181.292 119.978 181.316 119.976 181.342C119.974 181.367 119.977 181.393 119.985 181.417C119.993 181.441 120.006 181.464 120.023 181.483C120.039 181.502 120.06 181.518 120.083 181.529C120.106 181.541 120.13 181.547 120.156 181.549C120.181 181.55 120.207 181.546 120.231 181.538C120.738 181.372 124.88 180.078 130.463 180.078C131.342 180.078 132.257 180.11 133.199 180.184C138.069 180.566 142.441 181.946 146.218 184.264C149.995 186.582 153.178 189.835 155.663 193.971C155.676 193.992 155.693 194.011 155.713 194.026C155.733 194.041 155.756 194.052 155.78 194.058C155.805 194.064 155.83 194.065 155.855 194.061C155.88 194.058 155.904 194.049 155.925 194.036C155.947 194.023 155.966 194.006 155.98 193.986C155.995 193.966 156.006 193.943 156.012 193.918C156.018 193.894 156.02 193.869 156.016 193.844C156.012 193.819 156.004 193.795 155.991 193.774H155.992Z" fill="white"/>
<path d="M143.884 188.618C140.614 186.627 136.852 185.461 132.721 185.14C131.914 185.077 131.131 185.05 130.377 185.05C125.554 185.05 121.986 186.169 121.556 186.309C121.509 186.325 121.471 186.36 121.449 186.405C121.427 186.45 121.423 186.501 121.439 186.549C121.454 186.596 121.488 186.635 121.532 186.659C121.576 186.682 121.628 186.687 121.676 186.672C122.079 186.54 125.614 185.433 130.377 185.433C131.12 185.433 131.894 185.46 132.69 185.522C136.768 185.839 140.468 186.988 143.683 188.944C146.899 190.901 149.63 193.665 151.77 197.222C151.782 197.245 151.799 197.265 151.819 197.281C151.84 197.297 151.863 197.308 151.888 197.315C151.913 197.322 151.939 197.323 151.964 197.32C151.99 197.316 152.014 197.308 152.036 197.294C152.058 197.281 152.078 197.263 152.093 197.243C152.108 197.222 152.119 197.198 152.124 197.173C152.13 197.148 152.131 197.122 152.126 197.096C152.121 197.071 152.112 197.047 152.098 197.025C149.931 193.42 147.153 190.607 143.884 188.618Z" fill="white"/>
<path d="M141.349 193.296C138.64 191.67 135.553 190.736 132.212 190.478C131.552 190.428 130.91 190.405 130.293 190.405C126.29 190.405 123.329 191.337 123.004 191.443C122.979 191.45 122.956 191.462 122.936 191.478C122.916 191.495 122.899 191.515 122.887 191.537C122.875 191.56 122.868 191.585 122.865 191.611C122.863 191.636 122.866 191.662 122.874 191.687C122.882 191.711 122.895 191.734 122.912 191.753C122.929 191.772 122.949 191.788 122.973 191.799C122.996 191.811 123.021 191.817 123.047 191.818C123.072 191.82 123.098 191.816 123.122 191.807C123.423 191.708 126.349 190.788 130.293 190.788C130.901 190.788 131.533 190.81 132.183 190.86C135.47 191.114 138.497 192.03 141.151 193.624C143.804 195.219 146.085 197.494 147.877 200.474C147.89 200.496 147.907 200.514 147.928 200.529C147.948 200.544 147.971 200.555 147.995 200.561C148.019 200.567 148.045 200.569 148.07 200.565C148.095 200.561 148.118 200.553 148.14 200.54C148.162 200.527 148.18 200.51 148.195 200.489C148.21 200.469 148.221 200.446 148.227 200.422C148.233 200.398 148.234 200.372 148.231 200.347C148.227 200.322 148.218 200.299 148.206 200.277C146.383 197.25 144.057 194.924 141.349 193.296Z" fill="white"/>
<path d="M138.813 197.975C136.666 196.709 134.252 196.011 131.705 195.817C131.191 195.777 130.691 195.761 130.21 195.761C127.025 195.761 124.672 196.505 124.451 196.578C124.426 196.585 124.403 196.597 124.384 196.613C124.364 196.63 124.348 196.65 124.336 196.672C124.324 196.695 124.317 196.72 124.315 196.745C124.313 196.771 124.316 196.796 124.324 196.82C124.332 196.845 124.344 196.867 124.361 196.886C124.378 196.906 124.398 196.921 124.421 196.933C124.444 196.944 124.469 196.95 124.495 196.952C124.52 196.953 124.546 196.95 124.57 196.941C124.766 196.877 127.085 196.143 130.21 196.143C130.682 196.143 131.172 196.16 131.677 196.198C134.172 196.389 136.527 197.071 138.619 198.302C140.711 199.534 142.541 201.32 143.986 203.723C143.998 203.745 144.015 203.765 144.036 203.78C144.056 203.795 144.079 203.807 144.104 203.813C144.128 203.819 144.154 203.821 144.179 203.817C144.204 203.813 144.228 203.805 144.25 203.791C144.272 203.778 144.291 203.761 144.306 203.74C144.321 203.72 144.331 203.697 144.337 203.672C144.343 203.647 144.344 203.622 144.34 203.596C144.336 203.571 144.327 203.547 144.313 203.526C142.838 201.076 140.96 199.241 138.813 197.975Z" fill="white"/>
<path d="M136.276 202.655C134.691 201.751 132.951 201.287 131.198 201.156C130.829 201.128 130.47 201.116 130.125 201.116C127.759 201.116 126.015 201.675 125.897 201.713C125.85 201.731 125.812 201.765 125.791 201.81C125.769 201.854 125.766 201.905 125.781 201.952C125.797 201.999 125.83 202.039 125.873 202.062C125.917 202.085 125.968 202.091 126.016 202.077C126.108 202.046 127.819 201.499 130.125 201.499C130.46 201.499 130.81 201.511 131.169 201.537C132.875 201.665 134.557 202.115 136.086 202.987C137.616 203.859 138.994 205.153 140.092 206.979C140.105 207 140.122 207.019 140.143 207.034C140.163 207.049 140.186 207.06 140.21 207.066C140.235 207.072 140.26 207.073 140.285 207.07C140.31 207.066 140.334 207.057 140.355 207.044C140.377 207.031 140.396 207.014 140.411 206.994C140.425 206.974 140.436 206.951 140.442 206.926C140.448 206.902 140.45 206.877 140.446 206.852C140.442 206.827 140.434 206.803 140.421 206.781C139.291 204.903 137.861 203.557 136.276 202.655Z" fill="white"/>
<path d="M135.056 208.243C134.32 207.593 133.452 207.109 132.511 206.825C131.71 206.585 130.877 206.465 130.04 206.47C128.493 206.47 127.355 206.843 127.343 206.846C127.295 206.862 127.255 206.896 127.232 206.941C127.209 206.987 127.205 207.039 127.22 207.088C127.236 207.136 127.271 207.176 127.316 207.199C127.361 207.222 127.414 207.226 127.462 207.21C127.468 207.208 128.566 206.852 130.04 206.853C131.005 206.853 132.131 207.005 133.219 207.501C133.795 207.763 134.329 208.11 134.803 208.53C135.353 209.021 135.824 209.594 136.2 210.229C136.212 210.251 136.229 210.271 136.249 210.287C136.269 210.303 136.293 210.315 136.318 210.321C136.342 210.328 136.368 210.33 136.394 210.326C136.419 210.323 136.444 210.314 136.466 210.301C136.488 210.287 136.507 210.27 136.522 210.249C136.538 210.228 136.548 210.204 136.554 210.179C136.56 210.154 136.56 210.128 136.556 210.103C136.551 210.077 136.542 210.053 136.527 210.032C136.132 209.363 135.636 208.76 135.056 208.243Z" fill="white"/>
<path d="M178.19 230.456H177.032C176.681 230.456 176.396 230.741 176.396 231.092V235.039C176.396 235.391 176.681 235.676 177.032 235.676H178.19C178.542 235.676 178.827 235.391 178.827 235.039V231.092C178.827 230.741 178.542 230.456 178.19 230.456Z" fill="#02232B"/>
<path d="M181.515 228.567L177.224 229.781V231.772H177.966V230.589L181.515 229.469V228.567Z" fill="#8BBA4A"/>
<path d="M195.711 230.456H194.553C194.202 230.456 193.917 230.741 193.917 231.092V235.039C193.917 235.391 194.202 235.676 194.553 235.676H195.711C196.063 235.676 196.348 235.391 196.348 235.039V231.092C196.348 230.741 196.063 230.456 195.711 230.456Z" fill="#02232B"/>
<path d="M191.262 228.567L195.552 229.781V231.772H194.811V230.589L191.262 229.469V228.567Z" fill="#8BBA4A"/>
<path d="M181.053 222.03L180.018 231.077L192.389 230.991L190.78 221.944L181.053 222.03Z" fill="#405C19"/>
<path d="M181.992 219.441L181.145 226.84L191.262 226.77L189.946 219.371L181.992 219.441Z" fill="#8BBA4A"/>
<path d="M189.414 217.775L182.59 217.836L181.864 224.183L190.543 224.122L189.414 217.775Z" fill="#1CA3E5"/>
<path d="M179.734 222.452H179.005C178.654 222.452 178.369 222.737 178.369 223.088V225.874C178.369 226.225 178.654 226.51 179.005 226.51H179.734C180.086 226.51 180.371 226.225 180.371 225.874V223.088C180.371 222.737 180.086 222.452 179.734 222.452Z" fill="#02232B"/>
<path d="M193.28 222.452H192.551C192.199 222.452 191.914 222.737 191.914 223.088V225.874C191.914 226.225 192.199 226.51 192.551 226.51H193.28C193.631 226.51 193.916 226.225 193.916 225.874V223.088C193.916 222.737 193.631 222.452 193.28 222.452Z" fill="#02232B"/>
<path d="M181.053 222.03L181.992 219.441L181.145 226.933L180.018 231.077L181.053 222.03Z" fill="#1C2A07"/>
<path d="M191.262 226.77L192.389 230.991L190.78 221.944L189.946 219.371L191.262 226.77Z" fill="#1C2A07"/>
<path d="M196.859 232.259V231.466C196.859 231.177 196.744 230.9 196.54 230.696C196.336 230.491 196.059 230.377 195.77 230.377H194.495C194.206 230.377 193.929 230.491 193.724 230.696C193.52 230.9 193.405 231.177 193.405 231.466V232.259C193.405 232.296 193.407 232.333 193.411 232.368H196.855C196.857 232.333 196.859 232.296 196.859 232.259Z" fill="#8BBA4A"/>
<path d="M193.997 223.558V223.007C193.997 222.807 193.917 222.615 193.775 222.473C193.634 222.332 193.441 222.252 193.241 222.252H192.356C192.156 222.252 191.964 222.332 191.822 222.473C191.68 222.615 191.601 222.807 191.601 223.007V223.558C191.601 223.583 191.601 223.609 191.605 223.634H193.993C193.995 223.606 193.997 223.582 193.997 223.558Z" fill="#8BBA4A"/>
<path d="M179.652 232.259V231.466C179.652 231.177 179.537 230.9 179.333 230.696C179.129 230.492 178.852 230.377 178.563 230.377H177.287C176.998 230.377 176.721 230.491 176.517 230.696C176.313 230.9 176.198 231.177 176.198 231.466V232.259C176.198 232.296 176.198 232.333 176.203 232.368H179.647C179.651 232.332 179.652 232.296 179.652 232.259Z" fill="#8BBA4A"/>
<path d="M193.16 222.566L190.709 221.873L190.858 222.597L192.623 223.153V223.384L193.16 223.351V222.566Z" fill="#8BBA4A"/>
<path d="M178.166 223.558V223.007C178.166 222.807 178.246 222.615 178.388 222.473C178.53 222.332 178.722 222.252 178.922 222.252H179.807C180.007 222.252 180.199 222.332 180.341 222.473C180.483 222.615 180.562 222.807 180.562 223.007V223.558C180.562 223.583 180.561 223.608 180.558 223.634H178.17C178.168 223.606 178.166 223.582 178.166 223.558Z" fill="#8BBA4A"/>
<path d="M179.003 222.566L181.454 221.873L181.305 222.597L179.541 223.153V223.384L179.003 223.351V222.566Z" fill="#8BBA4A"/>
<path d="M187.523 217.792L182.241 220.888L182.147 221.71L188.955 217.779L187.523 217.792Z" fill="#D2EDFA"/>
<path d="M189.936 220.712L184.041 224.167L185.39 224.158L190.069 221.457L189.936 220.712Z" fill="#D2EDFA"/>
<path d="M225.762 202.367H225.416C225.084 202.367 224.815 202.636 224.815 202.968V205.089C224.815 205.421 225.084 205.69 225.416 205.69H225.762C226.094 205.69 226.363 205.421 226.363 205.089V202.968C226.363 202.636 226.094 202.367 225.762 202.367Z" fill="#02232B"/>
<path d="M222.708 201.283L225.44 202.055V203.323H224.967V202.57L222.708 201.857V201.283Z" fill="#8BBA4A"/>
<path d="M226.688 203.516V203.011C226.688 202.827 226.615 202.65 226.485 202.52C226.355 202.39 226.179 202.317 225.995 202.317H225.182C224.998 202.317 224.821 202.39 224.692 202.52C224.562 202.65 224.489 202.827 224.489 203.011V203.516C224.489 203.539 224.489 203.564 224.492 203.585H226.684C226.686 203.562 226.688 203.539 226.688 203.516Z" fill="#8BBA4A"/>
<path d="M221.87 198.021H221.584C221.311 198.021 221.09 198.242 221.09 198.515V200.11C221.09 200.383 221.311 200.604 221.584 200.604H221.87C222.143 200.604 222.364 200.383 222.364 200.11V198.515C222.364 198.242 222.143 198.021 221.87 198.021Z" fill="#02232B"/>
<path d="M222.415 198.725V198.374C222.415 198.247 222.364 198.124 222.274 198.034C222.184 197.944 222.062 197.893 221.934 197.893H221.371C221.243 197.893 221.121 197.944 221.031 198.034C220.941 198.124 220.89 198.247 220.89 198.374V198.725C220.89 198.741 220.891 198.757 220.893 198.773H222.413C222.414 198.757 222.415 198.741 222.415 198.725Z" fill="#8BBA4A"/>
<path d="M221.883 198.094L220.322 197.653L220.417 198.113L221.54 198.467V198.615L221.883 198.593V198.094Z" fill="#8BBA4A"/>
<path d="M214.472 198.817L216.615 204.123L224.489 204.068L223.772 201.381L220.664 198.762L214.472 198.817Z" fill="#405C19"/>
<path d="M215.07 197.169L217.332 201.426L223.772 201.381L220.133 197.124L215.07 197.169Z" fill="#8BBA4A"/>
<path d="M213.652 198.633H213.367C213.094 198.633 212.872 198.854 212.872 199.127V200.721C212.872 200.995 213.094 201.216 213.367 201.216H213.652C213.926 201.216 214.147 200.995 214.147 200.721V199.127C214.147 198.854 213.926 198.633 213.652 198.633Z" fill="#02232B"/>
<path d="M214.472 198.817L215.07 197.169L217.332 201.485L216.615 204.123L214.472 198.817Z" fill="#1C2A07"/>
<path d="M212.744 199.336V198.986C212.744 198.858 212.795 198.736 212.885 198.646C212.975 198.556 213.097 198.505 213.225 198.505H213.788C213.851 198.505 213.914 198.518 213.972 198.542C214.03 198.566 214.083 198.601 214.128 198.646C214.173 198.691 214.208 198.744 214.232 198.802C214.257 198.86 214.269 198.923 214.269 198.986V199.336C214.269 199.352 214.269 199.369 214.269 199.384H212.748C212.745 199.369 212.744 199.354 212.744 199.336Z" fill="#8BBA4A"/>
<path d="M213.277 198.706L214.837 198.265L214.742 198.725L213.619 199.079V199.227L213.277 199.205V198.706Z" fill="#8BBA4A"/>
<path d="M220.108 197.471L215.784 197.503L217.375 200.812L222.88 200.781L220.108 197.471Z" fill="#1CA3E5"/>
<path d="M218.91 197.48L216.549 199.094L216.755 199.523L219.817 197.474L218.91 197.48Z" fill="#D2EDFA"/>
<path d="M221.391 199.003L218.755 200.804L219.611 200.799L221.716 199.391L221.391 199.003Z" fill="#D2EDFA"/>
<path d="M215.164 203.166H214.818C214.486 203.166 214.217 203.435 214.217 203.766V205.888C214.217 206.22 214.486 206.489 214.818 206.489H215.164C215.496 206.489 215.765 206.22 215.765 205.888V203.766C215.765 203.435 215.496 203.166 215.164 203.166Z" fill="#02232B"/>
<path d="M216.751 202.168L214.745 202.736V204.004H215.215V203.251L216.828 202.742C216.86 202.547 216.834 202.348 216.751 202.168Z" fill="#8BBA4A"/>
<path d="M216.29 204.314V203.809C216.29 203.625 216.217 203.448 216.087 203.318C215.957 203.188 215.781 203.115 215.597 203.115H214.784C214.6 203.115 214.424 203.188 214.294 203.318C214.164 203.448 214.091 203.625 214.091 203.809V204.314C214.091 204.337 214.091 204.362 214.094 204.383H216.286C216.288 204.36 216.29 204.337 216.29 204.314Z" fill="#8BBA4A"/>
<path d="M156.341 199.054H156.618C156.883 199.054 157.098 198.839 157.098 198.574V196.879C157.098 196.614 156.883 196.4 156.618 196.4H156.341C156.076 196.4 155.862 196.614 155.862 196.879V198.574C155.862 198.839 156.076 199.054 156.341 199.054Z" fill="#02232B"/>
<path d="M158.781 195.533L156.599 196.15V197.163H156.976V196.562L158.781 195.992V195.533Z" fill="#8BBA4A"/>
<path d="M155.602 197.317V196.915C155.602 196.842 155.616 196.77 155.644 196.703C155.672 196.636 155.712 196.575 155.764 196.523C155.815 196.472 155.876 196.431 155.943 196.403C156.011 196.375 156.083 196.361 156.155 196.361H156.804C156.877 196.361 156.949 196.375 157.016 196.403C157.083 196.431 157.144 196.472 157.196 196.523C157.247 196.574 157.288 196.636 157.316 196.703C157.344 196.77 157.358 196.842 157.358 196.915V197.318C157.358 197.337 157.357 197.355 157.355 197.374H155.605C155.603 197.355 155.602 197.336 155.602 197.317Z" fill="#8BBA4A"/>
<path d="M159.451 194.992H159.679C159.897 194.992 160.074 194.815 160.074 194.597V193.323C160.074 193.105 159.897 192.928 159.679 192.928H159.451C159.233 192.928 159.056 193.105 159.056 193.323V194.597C159.056 194.815 159.233 194.992 159.451 194.992Z" fill="#02232B"/>
<path d="M159.015 193.49V193.211C159.015 193.109 159.055 193.012 159.127 192.94C159.199 192.868 159.296 192.828 159.398 192.828H159.848C159.949 192.828 160.046 192.868 160.118 192.94C160.19 193.012 160.23 193.109 160.23 193.211V193.49C160.231 193.503 160.231 193.516 160.23 193.529H159.016C159.016 193.519 159.015 193.503 159.015 193.49Z" fill="#8BBA4A"/>
<path d="M159.44 192.987L160.686 192.634L160.61 193.002L159.714 193.285V193.402L159.44 193.386V192.987Z" fill="#8BBA4A"/>
<path d="M165.359 193.564L163.648 197.802L157.358 197.759L157.931 195.612L160.414 193.52L165.359 193.564Z" fill="#405C19"/>
<path d="M164.882 192.248L163.074 195.648L157.931 195.612L160.838 192.212L164.882 192.248Z" fill="#8BBA4A"/>
<path d="M166.014 195.48H166.242C166.46 195.48 166.637 195.303 166.637 195.085V193.812C166.637 193.594 166.46 193.417 166.242 193.417H166.014C165.796 193.417 165.619 193.594 165.619 193.812V195.085C165.619 195.303 165.796 195.48 166.014 195.48Z" fill="#02232B"/>
<path d="M165.359 193.564L164.882 192.248L163.074 195.696L163.648 197.802L165.359 193.564Z" fill="#1C2A07"/>
<path d="M166.74 193.979V193.699C166.74 193.597 166.7 193.5 166.628 193.428C166.556 193.357 166.459 193.316 166.357 193.316H165.907C165.806 193.316 165.708 193.357 165.637 193.428C165.565 193.5 165.524 193.597 165.524 193.699V193.979C165.524 193.992 165.524 194.004 165.524 194.017H166.739C166.739 194.005 166.74 193.992 166.74 193.979Z" fill="#8BBA4A"/>
<path d="M166.314 193.475L165.068 193.123L165.144 193.49L166.041 193.774V193.891L166.314 193.874V193.475Z" fill="#8BBA4A"/>
<path d="M160.858 192.489L164.311 192.515L163.041 195.157L158.644 195.133L160.858 192.489Z" fill="#1CA3E5"/>
<path d="M161.815 192.496L163.701 193.786L163.536 194.128L161.09 192.491L161.815 192.496Z" fill="#D2EDFA"/>
<path d="M159.833 193.712L161.938 195.151L161.255 195.147L159.573 194.022L159.833 193.712Z" fill="#D2EDFA"/>
<path d="M164.806 199.692H165.083C165.348 199.692 165.563 199.477 165.563 199.212V197.518C165.563 197.253 165.348 197.038 165.083 197.038H164.806C164.541 197.038 164.326 197.253 164.326 197.518V199.212C164.326 199.477 164.541 199.692 164.806 199.692Z" fill="#02232B"/>
<path d="M163.539 196.241L165.141 196.694V197.706H164.764V197.106L163.476 196.7C163.451 196.544 163.473 196.384 163.539 196.241Z" fill="#8BBA4A"/>
<path d="M163.907 197.955V197.551C163.907 197.404 163.966 197.263 164.069 197.159C164.173 197.055 164.314 196.997 164.461 196.997H165.109C165.256 196.997 165.397 197.055 165.501 197.159C165.605 197.263 165.663 197.404 165.663 197.551V197.955C165.663 197.973 165.662 197.991 165.66 198.01H163.91C163.908 197.991 163.907 197.973 163.907 197.955Z" fill="#8BBA4A"/>
<path d="M251.436 263.133C249.291 271.555 253.844 275.615 253.844 275.615C253.844 275.615 271.173 258.96 271.173 254.299C259.248 253.719 253.582 254.711 251.436 263.133Z" fill="#69A31A"/>
<path d="M256.047 266.356C258.491 260.866 262.882 255.514 269.19 254.26C264.2 253.606 260.822 256.894 258.105 260.669C255.648 264.084 253.595 267.763 253.826 271.735C254.459 270.108 254.937 268.751 256.047 266.356Z" fill="#BCD845"/>
<path d="M56.2539 172.992C55.6909 174.697 56.9136 176.982 58.2261 178.164C59.5597 179.363 61.3271 179.073 62.8105 178.308C64.7314 177.316 66.6424 175.371 65.7637 173.041C65.4767 172.28 64.8032 171.405 64.067 171.024C62.8956 170.416 61.5577 170.772 60.2882 170.852C59.3363 170.912 58.362 171.046 57.5297 171.511C56.849 171.89 56.4462 172.407 56.2539 172.992Z" fill="#1CA3E5"/>
<path d="M289.348 183.937C289.348 183.937 287.1 184.351 289.348 189.853C291.596 195.354 293.595 206.139 297.987 201.746C302.379 197.354 293.67 179.615 289.348 183.937Z" fill="#93C74B"/>
<path d="M129.536 245.099C134.101 245.099 137.802 241.398 137.802 236.833C137.802 232.267 134.101 228.567 129.536 228.567C124.97 228.567 121.27 232.267 121.27 236.833C121.27 241.398 124.97 245.099 129.536 245.099Z" fill="white"/>
<path d="M64.9971 254.405C71.4206 254.405 76.6278 249.198 76.6278 242.775C76.6278 236.351 71.4206 231.144 64.9971 231.144C58.5737 231.144 53.3665 236.351 53.3665 242.775C53.3665 249.198 58.5737 254.405 64.9971 254.405Z" fill="white"/>
<path d="M62.3618 224.997C66.2851 224.997 69.4655 221.816 69.4655 217.893C69.4655 213.97 66.2851 210.789 62.3618 210.789C58.4385 210.789 55.2581 213.97 55.2581 217.893C55.2581 221.816 58.4385 224.997 62.3618 224.997Z" fill="white"/>
<path d="M72.7638 241.543L72.7566 244.467L71.4613 244.464C71.2399 243.946 70.8717 243.504 70.4021 243.193C69.9326 242.883 69.3822 242.716 68.8191 242.715C68.256 242.713 67.7048 242.877 67.2336 243.185C66.7625 243.494 66.392 243.934 66.1681 244.45L64.6317 244.446C64.6333 243.759 64.4586 243.082 64.1243 242.482C63.7901 241.881 63.3073 241.377 62.7223 241.016C62.1373 240.655 61.4695 240.451 60.7829 240.422C60.0962 240.393 59.4136 240.541 58.8003 240.851L58.8075 238.104C58.8085 237.645 58.9917 237.205 59.3167 236.882C59.6418 236.558 60.0822 236.376 60.5409 236.377L64.2557 236.387C64.449 236.388 64.6375 236.448 64.7956 236.559C64.9536 236.67 65.0736 236.827 65.1392 237.009L66.3101 240.258L71.4943 240.271C71.8313 240.272 72.1543 240.406 72.3924 240.645C72.6305 240.883 72.7641 241.206 72.7638 241.543Z" fill="#76AE28"/>
<path d="M70.936 244.451C70.6586 243.936 70.2025 243.54 69.6536 243.338C69.1048 243.136 68.501 243.141 67.9558 243.353C67.4106 243.565 66.9617 243.969 66.6934 244.489C66.4251 245.009 66.3561 245.608 66.4992 246.176C66.6422 246.743 66.9877 247.238 67.4704 247.568C67.9531 247.899 68.5399 248.041 69.1204 247.969C69.7008 247.897 70.2349 247.615 70.6221 247.177C71.0093 246.738 71.223 246.174 71.223 245.589C71.223 245.192 71.1244 244.801 70.936 244.451ZM68.8251 246.778C68.5401 246.778 68.2645 246.675 68.0487 246.489C67.8328 246.303 67.6909 246.046 67.6489 245.764C67.6069 245.482 67.6675 245.194 67.8197 244.953C67.972 244.712 68.2057 244.534 68.4783 244.451C68.7043 244.382 68.9459 244.382 69.1719 244.451C69.4445 244.534 69.6783 244.712 69.8305 244.953C69.9827 245.194 70.0434 245.482 70.0014 245.764C69.9593 246.046 69.8175 246.303 69.6016 246.489C69.3857 246.675 69.1101 246.778 68.8251 246.778Z" fill="#76AE28"/>
<path d="M60.623 241.058C59.9519 241.058 59.2957 241.257 58.7375 241.629C58.1793 242.002 57.7442 242.532 57.4871 243.151C57.23 243.771 57.1625 244.454 57.2932 245.112C57.4239 245.77 57.7469 246.375 58.2213 246.85C58.6957 247.324 59.3003 247.648 59.9585 247.779C60.6167 247.91 61.299 247.843 61.919 247.586C62.5391 247.329 63.0691 246.894 63.442 246.336C63.8149 245.778 64.0139 245.122 64.0139 244.451C64.0157 244.005 63.9293 243.563 63.7596 243.151C63.5898 242.739 63.3402 242.364 63.0249 242.049C62.7097 241.733 62.3352 241.483 61.923 241.313C61.5107 241.143 61.0689 241.057 60.623 241.058ZM60.623 246.395C60.2385 246.394 59.8627 246.28 59.5431 246.067C59.2235 245.853 58.9744 245.549 58.8273 245.194C58.6803 244.839 58.6419 244.448 58.717 244.071C58.7921 243.694 58.9773 243.348 59.2492 243.076C59.5212 242.804 59.8676 242.619 60.2447 242.544C60.6218 242.469 61.0127 242.508 61.3678 242.655C61.723 242.802 62.0266 243.051 62.2401 243.371C62.4536 243.691 62.5675 244.067 62.5674 244.451C62.5674 244.706 62.5171 244.959 62.4194 245.195C62.3217 245.431 62.1784 245.645 61.9979 245.826C61.8173 246.006 61.6029 246.149 61.367 246.247C61.1311 246.345 60.8783 246.395 60.623 246.395Z" fill="#76AE28"/>
<path d="M131.743 236.227L133.364 235.498L134.751 236.885C134.788 236.924 134.832 236.955 134.881 236.977C134.929 236.999 134.982 237.01 135.035 237.011C135.089 237.012 135.142 237.002 135.191 236.982C135.241 236.962 135.285 236.932 135.323 236.895C135.361 236.857 135.391 236.812 135.411 236.763C135.431 236.713 135.441 236.66 135.44 236.607C135.439 236.553 135.427 236.501 135.406 236.452C135.384 236.403 135.353 236.359 135.314 236.323L133.735 234.744C133.679 234.687 133.606 234.649 133.526 234.634C133.447 234.619 133.365 234.629 133.291 234.662L131.419 235.504C131.323 235.548 131.248 235.627 131.211 235.726C131.173 235.824 131.177 235.934 131.22 236.03C131.263 236.126 131.343 236.201 131.441 236.239C131.54 236.276 131.649 236.273 131.746 236.23L131.743 236.227Z" fill="#3E610D"/>
<path d="M133.732 236.82C133.675 236.763 133.602 236.724 133.523 236.71C133.444 236.695 133.362 236.705 133.289 236.738L131.416 237.58C131.32 237.624 131.245 237.703 131.208 237.802C131.17 237.9 131.174 238.01 131.217 238.106C131.26 238.202 131.34 238.277 131.438 238.315C131.537 238.352 131.646 238.349 131.743 238.305L133.364 237.576L134.751 238.963C134.826 239.038 134.927 239.08 135.032 239.08C135.138 239.08 135.239 239.038 135.314 238.963C135.388 238.889 135.43 238.788 135.43 238.682C135.43 238.577 135.388 238.476 135.314 238.401L133.732 236.82Z" fill="#3E610D"/>
<path d="M133.732 238.673C133.676 238.616 133.603 238.578 133.523 238.563C133.444 238.549 133.362 238.559 133.289 238.592L131.416 239.433C131.32 239.477 131.245 239.556 131.208 239.655C131.17 239.754 131.174 239.863 131.217 239.959C131.26 240.055 131.34 240.13 131.438 240.168C131.537 240.205 131.646 240.202 131.743 240.159L133.364 239.43L134.751 240.817C134.788 240.854 134.832 240.883 134.88 240.903C134.928 240.923 134.98 240.933 135.032 240.933C135.085 240.933 135.136 240.923 135.185 240.903C135.233 240.883 135.277 240.854 135.314 240.817C135.351 240.78 135.38 240.736 135.4 240.688C135.42 240.64 135.43 240.588 135.43 240.536C135.43 240.484 135.42 240.432 135.4 240.384C135.38 240.335 135.351 240.292 135.314 240.255L133.732 238.673Z" fill="#3E610D"/>
<path d="M127.655 235.502L125.783 234.66C125.709 234.627 125.627 234.617 125.548 234.632C125.468 234.646 125.396 234.685 125.339 234.742L123.76 236.32C123.721 236.357 123.69 236.401 123.668 236.45C123.647 236.498 123.635 236.551 123.634 236.604C123.633 236.658 123.643 236.711 123.663 236.76C123.683 236.81 123.713 236.855 123.751 236.892C123.789 236.93 123.833 236.96 123.883 236.98C123.932 237 123.985 237.01 124.039 237.009C124.092 237.008 124.145 236.996 124.193 236.975C124.242 236.953 124.286 236.922 124.323 236.883L125.71 235.496L127.331 236.225C127.379 236.246 127.43 236.258 127.483 236.26C127.535 236.261 127.587 236.252 127.636 236.234C127.684 236.215 127.729 236.187 127.767 236.152C127.805 236.116 127.836 236.073 127.857 236.025C127.879 235.978 127.89 235.926 127.892 235.874C127.893 235.822 127.885 235.77 127.866 235.721C127.848 235.672 127.82 235.628 127.784 235.59C127.748 235.552 127.705 235.521 127.658 235.5L127.655 235.502Z" fill="#3E610D"/>
<path d="M127.655 237.58L125.783 236.738C125.709 236.705 125.627 236.695 125.548 236.71C125.469 236.724 125.396 236.763 125.339 236.82L123.76 238.398C123.686 238.473 123.644 238.574 123.644 238.679C123.644 238.785 123.686 238.886 123.76 238.961C123.835 239.035 123.936 239.077 124.042 239.077C124.147 239.077 124.248 239.035 124.323 238.96L125.71 237.573L127.331 238.303C127.428 238.346 127.537 238.349 127.636 238.312C127.734 238.274 127.814 238.199 127.857 238.103C127.9 238.007 127.904 237.898 127.866 237.799C127.829 237.7 127.754 237.621 127.658 237.577L127.655 237.58Z" fill="#3E610D"/>
<path d="M127.655 239.435L125.783 238.593C125.709 238.56 125.627 238.55 125.548 238.565C125.469 238.579 125.396 238.618 125.339 238.675L123.76 240.253C123.686 240.328 123.644 240.429 123.644 240.534C123.644 240.64 123.686 240.741 123.76 240.816C123.835 240.89 123.936 240.932 124.042 240.932C124.147 240.932 124.248 240.89 124.323 240.815L125.71 239.428L127.331 240.157C127.379 240.179 127.43 240.19 127.483 240.192C127.535 240.194 127.587 240.185 127.636 240.166C127.684 240.148 127.729 240.12 127.767 240.084C127.805 240.048 127.836 240.005 127.857 239.958C127.878 239.91 127.89 239.859 127.892 239.806C127.893 239.754 127.885 239.702 127.866 239.654C127.848 239.605 127.82 239.56 127.784 239.522C127.748 239.484 127.705 239.453 127.658 239.432L127.655 239.435Z" fill="#3E610D"/>
<path d="M132.82 237.696C132.82 236.917 132.538 236.164 132.027 235.577C131.516 234.99 130.809 234.607 130.038 234.499V240.892C130.809 240.785 131.516 240.402 132.027 239.814C132.539 239.227 132.82 238.474 132.82 237.696Z" fill="#76AE28"/>
<path d="M126.367 237.696C126.367 238.481 126.653 239.24 127.173 239.829C127.693 240.419 128.409 240.798 129.189 240.897V234.494C128.409 234.593 127.693 234.973 127.173 235.562C126.654 236.151 126.367 236.91 126.367 237.696Z" fill="#76AE28"/>
<path d="M127.974 233.346C128.067 233.621 128.256 233.854 128.506 234.002C128.756 234.151 129.051 234.205 129.337 234.155L128.562 231.873C128.305 232.008 128.104 232.231 127.996 232.501C127.888 232.771 127.88 233.07 127.974 233.346Z" fill="#76AE28"/>
<path d="M131.401 233.328C131.308 233.604 131.119 233.837 130.869 233.985C130.619 234.133 130.324 234.188 130.038 234.138L130.813 231.856C131.07 231.991 131.271 232.214 131.379 232.484C131.486 232.754 131.494 233.053 131.401 233.328Z" fill="#76AE28"/>
<path d="M64.4139 218.414C64.4057 218.952 64.1859 219.466 63.802 219.844C63.4181 220.222 62.9009 220.434 62.3621 220.434C61.8233 220.434 61.3061 220.222 60.9222 219.844C60.5383 219.466 60.3185 218.952 60.3103 218.414C60.3103 217.28 62.3619 213.977 62.3619 213.977C62.3619 213.977 64.4139 217.28 64.4139 218.414Z" fill="#76AE28"/>
<defs>
<linearGradient id="paint0_linear_83_1363" x1="162.037" y1="124.614" x2="170.118" y2="164.141" gradientUnits="userSpaceOnUse">
<stop stop-color="white"/>
<stop offset="1" stop-color="#F2F2F2" stop-opacity="0"/>
</linearGradient>
<linearGradient id="paint1_linear_83_1363" x1="266.115" y1="138.188" x2="264.94" y2="154.755" gradientUnits="userSpaceOnUse">
<stop stop-color="white"/>
<stop offset="1" stop-color="#F2F2F2" stop-opacity="0"/>
</linearGradient>
</defs>
</svg>
